<?xml version="1.0" encoding="UTF-8" standalone="no"?>
<!-- Created with Inkscape (http://www.inkscape.org/) -->

<svg
   xmlns:dc="http://purl.org/dc/elements/1.1/"
   xmlns:cc="http://creativecommons.org/ns#"
   xmlns:rdf="http://www.w3.org/1999/02/22-rdf-syntax-ns#"
   xmlns:svg="http://www.w3.org/2000/svg"
   xmlns="http://www.w3.org/2000/svg"
   xmlns:sodipodi="http://sodipodi.sourceforge.net/DTD/sodipodi-0.dtd"
   xmlns:inkscape="http://www.inkscape.org/namespaces/inkscape"
   width="30.48mm"
   height="128.49966mm"
   viewBox="0 0 30.48 128.49966"
   version="1.1"
   id="svg93084"
   inkscape:version="0.92.2 5c3e80d, 2017-08-06"
   sodipodi:docname="Binary2.svg">
  <defs
     id="defs93078">
    <clipPath
       clipPathUnits="userSpaceOnUse"
       id="clipPath11410">
      <path
         d="M -14.1729,14.1729 H 14.1729 V -14.1729 H -14.1729 Z"
         id="path11408"
         inkscape:connector-curvature="0" />
    </clipPath>
    <clipPath
       clipPathUnits="userSpaceOnUse"
       id="clipPath11422">
      <path
         d="M -12.7554,12.7552 H 12.7564 V -12.7552 H -12.7554 Z"
         id="path11420"
         inkscape:connector-curvature="0" />
    </clipPath>
    <clipPath
       clipPathUnits="userSpaceOnUse"
       id="clipPath11438">
      <path
         d="M -10.9837,10.9837 H 10.9848 V -10.9837 H -10.9837 Z"
         id="path11436"
         inkscape:connector-curvature="0" />
    </clipPath>
    <clipPath
       clipPathUnits="userSpaceOnUse"
       id="clipPath11442">
      <path
         d="m 0.001,-10.984 c -6.068,0 -10.985,4.918 -10.985,10.984 0,6.066 4.917,10.984 10.985,10.984 6.067,0 10.984,-4.918 10.984,-10.984 0,-6.066 -4.917,-10.984 -10.984,-10.984 m 0,0.5 c 5.781,0 10.484,4.703 10.484,10.484 0,5.781 -4.703,10.484 -10.484,10.484 -5.782,0 -10.485,-4.703 -10.485,-10.484 0,-5.781 4.703,-10.484 10.485,-10.484"
         id="path11440"
         inkscape:connector-curvature="0" />
    </clipPath>
    <mask
       maskUnits="userSpaceOnUse"
       x="0"
       y="0"
       width="1"
       height="1"
       id="mask11454">
      <g
         id="g11464">
        <g
           clip-path="url(#clipPath11446)"
           id="g11462">
          <g
             id="g11460">
            <g
               id="g11458">
              <path
                 d="M -32768,32767 H 32767 V -32768 H -32768 Z"
                 style="fill:url(#linearGradient11452);stroke:none"
                 id="path11456"
                 inkscape:connector-curvature="0" />
            </g>
          </g>
        </g>
      </g>
    </mask>
    <clipPath
       clipPathUnits="userSpaceOnUse"
       id="clipPath11446">
      <path
         d="M -32768,32767 H 32767 V -32768 H -32768 Z"
         id="path11444"
         inkscape:connector-curvature="0" />
    </clipPath>
    <linearGradient
       x1="0"
       y1="0"
       x2="1"
       y2="0"
       gradientUnits="userSpaceOnUse"
       gradientTransform="matrix(0,21.967346,-21.967346,0,5.164e-4,-10.983689)"
       spreadMethod="pad"
       id="linearGradient11452">
      <stop
         style="stop-opacity:0;stop-color:#ffffff"
         offset="0"
         id="stop11448" />
      <stop
         style="stop-opacity:1;stop-color:#ffffff"
         offset="1"
         id="stop11450" />
    </linearGradient>
    <linearGradient
       x1="0"
       y1="0"
       x2="1"
       y2="0"
       gradientUnits="userSpaceOnUse"
       gradientTransform="matrix(0,21.967346,-21.967346,0,5.164e-4,-10.983689)"
       spreadMethod="pad"
       id="linearGradient11470">
      <stop
         style="stop-opacity:1;stop-color:#231f20"
         offset="0"
         id="stop11466" />
      <stop
         style="stop-opacity:1;stop-color:#231f20"
         offset="1"
         id="stop11468" />
    </linearGradient>
    <clipPath
       clipPathUnits="userSpaceOnUse"
       id="clipPath11334">
      <path
         d="M -14.1729,14.1729 H 14.1729 V -14.1729 H -14.1729 Z"
         id="path11332"
         inkscape:connector-curvature="0" />
    </clipPath>
    <clipPath
       clipPathUnits="userSpaceOnUse"
       id="clipPath11350">
      <path
         d="M -10.9828,10.9836 H 10.9857 V -10.9837 H -10.9828 Z"
         id="path11348"
         inkscape:connector-curvature="0" />
    </clipPath>
    <clipPath
       clipPathUnits="userSpaceOnUse"
       id="clipPath11354">
      <path
         d="m 0.001,-10.984 c -6.067,0 -10.984,4.918 -10.984,10.984 0,6.065 4.917,10.984 10.984,10.984 6.068,0 10.985,-4.919 10.985,-10.984 0,-6.066 -4.917,-10.984 -10.985,-10.984 m 0,0.5 c 5.782,0 10.485,4.703 10.485,10.484 0,5.781 -4.703,10.484 -10.485,10.484 -5.781,0 -10.484,-4.703 -10.484,-10.484 0,-5.781 4.703,-10.484 10.484,-10.484"
         id="path11352"
         inkscape:connector-curvature="0" />
    </clipPath>
    <mask
       maskUnits="userSpaceOnUse"
       x="0"
       y="0"
       width="1"
       height="1"
       id="mask11366">
      <g
         id="g11376">
        <g
           clip-path="url(#clipPath11358)"
           id="g11374">
          <g
             id="g11372">
            <g
               id="g11370">
              <path
                 d="M -32768,32767 H 32767 V -32768 H -32768 Z"
                 style="fill:url(#linearGradient11364);stroke:none"
                 id="path11368"
                 inkscape:connector-curvature="0" />
            </g>
          </g>
        </g>
      </g>
    </mask>
    <clipPath
       clipPathUnits="userSpaceOnUse"
       id="clipPath11358">
      <path
         d="M -32768,32767 H 32767 V -32768 H -32768 Z"
         id="path11356"
         inkscape:connector-curvature="0" />
    </clipPath>
    <linearGradient
       x1="0"
       y1="0"
       x2="1"
       y2="0"
       gradientUnits="userSpaceOnUse"
       gradientTransform="matrix(0,21.96734,-21.96734,0,0.0014398,-10.98373)"
       spreadMethod="pad"
       id="linearGradient11364">
      <stop
         style="stop-opacity:0;stop-color:#ffffff"
         offset="0"
         id="stop11360" />
      <stop
         style="stop-opacity:1;stop-color:#ffffff"
         offset="1"
         id="stop11362" />
    </linearGradient>
    <linearGradient
       x1="0"
       y1="0"
       x2="1"
       y2="0"
       gradientUnits="userSpaceOnUse"
       gradientTransform="matrix(0,21.96734,-21.96734,0,0.0014398,-10.98373)"
       spreadMethod="pad"
       id="linearGradient11382">
      <stop
         style="stop-opacity:1;stop-color:#231f20"
         offset="0"
         id="stop11378" />
      <stop
         style="stop-opacity:1;stop-color:#231f20"
         offset="1"
         id="stop11380" />
    </linearGradient>
    <clipPath
       clipPathUnits="userSpaceOnUse"
       id="clipPath11292">
      <path
         d="M -14.4729,14.4729 H 14.4729 V -14.4729 H -14.4729 Z"
         id="path11290"
         inkscape:connector-curvature="0" />
    </clipPath>
    <clipPath
       clipPathUnits="userSpaceOnUse"
       id="clipPath11316">
      <path
         d="M -8.54103,8.5293 H 8.51855 V -8.53027 H -8.54103 Z"
         id="path11314"
         inkscape:connector-curvature="0" />
    </clipPath>
    <clipPath
       clipPathUnits="userSpaceOnUse"
       id="clipPath11216">
      <path
         d="M -14.1729,14.1729 H 14.1729 V -14.1729 H -14.1729 Z"
         id="path11214"
         inkscape:connector-curvature="0" />
    </clipPath>
    <clipPath
       clipPathUnits="userSpaceOnUse"
       id="clipPath11232">
      <path
         d="M -10.9828,10.9836 H 10.9857 V -10.9837 H -10.9828 Z"
         id="path11230"
         inkscape:connector-curvature="0" />
    </clipPath>
    <clipPath
       clipPathUnits="userSpaceOnUse"
       id="clipPath11236">
      <path
         d="m 0.001,-10.984 c -6.067,0 -10.984,4.918 -10.984,10.984 0,6.065 4.917,10.984 10.984,10.984 6.068,0 10.985,-4.919 10.985,-10.984 0,-6.066 -4.917,-10.984 -10.985,-10.984 m 0,0.5 c 5.782,0 10.485,4.703 10.485,10.484 0,5.781 -4.703,10.484 -10.485,10.484 -5.781,0 -10.484,-4.703 -10.484,-10.484 0,-5.781 4.703,-10.484 10.484,-10.484"
         id="path11234"
         inkscape:connector-curvature="0" />
    </clipPath>
    <mask
       maskUnits="userSpaceOnUse"
       x="0"
       y="0"
       width="1"
       height="1"
       id="mask11248">
      <g
         id="g11258">
        <g
           clip-path="url(#clipPath11240)"
           id="g11256">
          <g
             id="g11254">
            <g
               id="g11252">
              <path
                 d="M -32768,32767 H 32767 V -32768 H -32768 Z"
                 style="fill:url(#linearGradient11364);stroke:none"
                 id="path11250"
                 inkscape:connector-curvature="0" />
            </g>
          </g>
        </g>
      </g>
    </mask>
    <clipPath
       clipPathUnits="userSpaceOnUse"
       id="clipPath11240">
      <path
         d="M -32768,32767 H 32767 V -32768 H -32768 Z"
         id="path11238"
         inkscape:connector-curvature="0" />
    </clipPath>
    <clipPath
       clipPathUnits="userSpaceOnUse"
       id="clipPath11140">
      <path
         d="M -14.1729,14.1729 H 14.1729 V -14.1729 H -14.1729 Z"
         id="path11138"
         inkscape:connector-curvature="0" />
    </clipPath>
    <clipPath
       clipPathUnits="userSpaceOnUse"
       id="clipPath11156">
      <path
         d="M -10.9828,10.9836 H 10.9857 V -10.9837 H -10.9828 Z"
         id="path11154"
         inkscape:connector-curvature="0" />
    </clipPath>
    <clipPath
       clipPathUnits="userSpaceOnUse"
       id="clipPath11160">
      <path
         d="m 0.001,-10.984 c -6.067,0 -10.984,4.918 -10.984,10.984 0,6.065 4.917,10.984 10.984,10.984 6.068,0 10.985,-4.919 10.985,-10.984 0,-6.066 -4.917,-10.984 -10.985,-10.984 m 0,0.5 c 5.782,0 10.485,4.703 10.485,10.484 0,5.781 -4.703,10.484 -10.485,10.484 -5.781,0 -10.484,-4.703 -10.484,-10.484 0,-5.781 4.703,-10.484 10.484,-10.484"
         id="path11158"
         inkscape:connector-curvature="0" />
    </clipPath>
    <mask
       maskUnits="userSpaceOnUse"
       x="0"
       y="0"
       width="1"
       height="1"
       id="mask11172">
      <g
         id="g11182">
        <g
           clip-path="url(#clipPath11164)"
           id="g11180">
          <g
             id="g11178">
            <g
               id="g11176">
              <path
                 d="M -32768,32767 H 32767 V -32768 H -32768 Z"
                 style="fill:url(#linearGradient11364);stroke:none"
                 id="path11174"
                 inkscape:connector-curvature="0" />
            </g>
          </g>
        </g>
      </g>
    </mask>
    <clipPath
       clipPathUnits="userSpaceOnUse"
       id="clipPath11164">
      <path
         d="M -32768,32767 H 32767 V -32768 H -32768 Z"
         id="path11162"
         inkscape:connector-curvature="0" />
    </clipPath>
    <clipPath
       clipPathUnits="userSpaceOnUse"
       id="clipPath11064">
      <path
         d="M -14.1729,14.1729 H 14.1729 V -14.1729 H -14.1729 Z"
         id="path11062"
         inkscape:connector-curvature="0" />
    </clipPath>
    <clipPath
       clipPathUnits="userSpaceOnUse"
       id="clipPath11080">
      <path
         d="M -10.9828,10.9837 H 10.9857 V -10.9837 H -10.9828 Z"
         id="path11078"
         inkscape:connector-curvature="0" />
    </clipPath>
    <clipPath
       clipPathUnits="userSpaceOnUse"
       id="clipPath11084">
      <path
         d="m 0.001,-10.984 c -6.067,0 -10.984,4.918 -10.984,10.984 0,6.066 4.917,10.984 10.984,10.984 6.068,0 10.985,-4.918 10.985,-10.984 0,-6.066 -4.917,-10.984 -10.985,-10.984 m 0,0.5 c 5.781,0 10.485,4.703 10.485,10.484 0,5.781 -4.704,10.484 -10.485,10.484 -5.781,0 -10.484,-4.703 -10.484,-10.484 0,-5.781 4.703,-10.484 10.484,-10.484"
         id="path11082"
         inkscape:connector-curvature="0" />
    </clipPath>
    <mask
       maskUnits="userSpaceOnUse"
       x="0"
       y="0"
       width="1"
       height="1"
       id="mask11096">
      <g
         id="g11106">
        <g
           clip-path="url(#clipPath11088)"
           id="g11104">
          <g
             id="g11102">
            <g
               id="g11100">
              <path
                 d="M -32768,32767 H 32767 V -32768 H -32768 Z"
                 style="fill:url(#linearGradient11094);stroke:none"
                 id="path11098"
                 inkscape:connector-curvature="0" />
            </g>
          </g>
        </g>
      </g>
    </mask>
    <clipPath
       clipPathUnits="userSpaceOnUse"
       id="clipPath11088">
      <path
         d="M -32768,32767 H 32767 V -32768 H -32768 Z"
         id="path11086"
         inkscape:connector-curvature="0" />
    </clipPath>
    <linearGradient
       x1="0"
       y1="0"
       x2="1"
       y2="0"
       gradientUnits="userSpaceOnUse"
       gradientTransform="matrix(0,21.967346,-21.967346,0,0.0014164,-10.983678)"
       spreadMethod="pad"
       id="linearGradient11094">
      <stop
         style="stop-opacity:0;stop-color:#ffffff"
         offset="0"
         id="stop11090" />
      <stop
         style="stop-opacity:1;stop-color:#ffffff"
         offset="1"
         id="stop11092" />
    </linearGradient>
    <linearGradient
       x1="0"
       y1="0"
       x2="1"
       y2="0"
       gradientUnits="userSpaceOnUse"
       gradientTransform="matrix(0,21.967346,-21.967346,0,0.0014164,-10.983678)"
       spreadMethod="pad"
       id="linearGradient11112">
      <stop
         style="stop-opacity:1;stop-color:#231f20"
         offset="0"
         id="stop11108" />
      <stop
         style="stop-opacity:1;stop-color:#231f20"
         offset="1"
         id="stop11110" />
    </linearGradient>
    <clipPath
       clipPathUnits="userSpaceOnUse"
       id="clipPath11022">
      <path
         d="M -14.4729,14.4729 H 14.4729 V -14.4729 H -14.4729 Z"
         id="path11020"
         inkscape:connector-curvature="0" />
    </clipPath>
    <clipPath
       clipPathUnits="userSpaceOnUse"
       id="clipPath11046">
      <path
         d="M -8.54103,8.5293 H 8.51855 V -8.53027 H -8.54103 Z"
         id="path11044"
         inkscape:connector-curvature="0" />
    </clipPath>
    <clipPath
       clipPathUnits="userSpaceOnUse"
       id="clipPath10980">
      <path
         d="M -14.4729,14.4729 H 14.4729 V -14.4729 H -14.4729 Z"
         id="path10978"
         inkscape:connector-curvature="0" />
    </clipPath>
    <clipPath
       clipPathUnits="userSpaceOnUse"
       id="clipPath11004">
      <path
         d="M -8.54103,8.5293 H 8.51855 V -8.53027 H -8.54103 Z"
         id="path11002"
         inkscape:connector-curvature="0" />
    </clipPath>
    <clipPath
       clipPathUnits="userSpaceOnUse"
       id="clipPath10938">
      <path
         d="M -14.4729,14.4729 H 14.4729 V -14.4729 H -14.4729 Z"
         id="path10936"
         inkscape:connector-curvature="0" />
    </clipPath>
    <clipPath
       clipPathUnits="userSpaceOnUse"
       id="clipPath10962">
      <path
         d="M -8.54103,8.5293 H 8.51855 V -8.53027 H -8.54103 Z"
         id="path10960"
         inkscape:connector-curvature="0" />
    </clipPath>
    <clipPath
       clipPathUnits="userSpaceOnUse"
       id="clipPath10896">
      <path
         d="M -14.4729,14.4729 H 14.4729 V -14.4729 H -14.4729 Z"
         id="path10894"
         inkscape:connector-curvature="0" />
    </clipPath>
    <clipPath
       clipPathUnits="userSpaceOnUse"
       id="clipPath10920">
      <path
         d="M -8.54103,8.5293 H 8.51855 V -8.53027 H -8.54103 Z"
         id="path10918"
         inkscape:connector-curvature="0" />
    </clipPath>
    <clipPath
       clipPathUnits="userSpaceOnUse"
       id="clipPath10854">
      <path
         d="M -14.4729,14.4729 H 14.4729 V -14.4729 H -14.4729 Z"
         id="path10852"
         inkscape:connector-curvature="0" />
    </clipPath>
    <clipPath
       clipPathUnits="userSpaceOnUse"
       id="clipPath10878">
      <path
         d="M -8.54103,8.5293 H 8.51855 V -8.53027 H -8.54103 Z"
         id="path10876"
         inkscape:connector-curvature="0" />
    </clipPath>
    <clipPath
       clipPathUnits="userSpaceOnUse"
       id="clipPath8244">
      <path
         d="M -14.1729,14.1729 H 14.1729 V -14.1729 H -14.1729 Z"
         id="path8242"
         inkscape:connector-curvature="0" />
    </clipPath>
    <clipPath
       clipPathUnits="userSpaceOnUse"
       id="clipPath8256">
      <path
         d="M -12.7549,12.7552 H 12.7569 V -12.7552 H -12.7549 Z"
         id="path8254"
         inkscape:connector-curvature="0" />
    </clipPath>
    <clipPath
       clipPathUnits="userSpaceOnUse"
       id="clipPath8272">
      <path
         d="M -10.9833,10.9836 H 10.9852 V -10.9837 H -10.9833 Z"
         id="path8270"
         inkscape:connector-curvature="0" />
    </clipPath>
    <clipPath
       clipPathUnits="userSpaceOnUse"
       id="clipPath8276">
      <path
         d="m 0.001,-10.984 c -6.067,0 -10.984,4.918 -10.984,10.984 0,6.066 4.917,10.984 10.984,10.984 6.067,0 10.984,-4.918 10.984,-10.984 0,-6.066 -4.917,-10.984 -10.984,-10.984 m 0,0.5 c 5.781,0 10.484,4.703 10.484,10.484 0,5.781 -4.703,10.484 -10.484,10.484 -5.781,0 -10.484,-4.703 -10.484,-10.484 0,-5.781 4.703,-10.484 10.484,-10.484"
         id="path8274"
         inkscape:connector-curvature="0" />
    </clipPath>
    <mask
       maskUnits="userSpaceOnUse"
       x="0"
       y="0"
       width="1"
       height="1"
       id="mask8288">
      <g
         id="g8298">
        <g
           clip-path="url(#clipPath8280)"
           id="g8296">
          <g
             id="g8294">
            <g
               id="g8292">
              <path
                 d="M -32768,32767 H 32767 V -32768 H -32768 Z"
                 style="fill:url(#linearGradient8286);stroke:none"
                 id="path8290"
                 inkscape:connector-curvature="0" />
            </g>
          </g>
        </g>
      </g>
    </mask>
    <clipPath
       clipPathUnits="userSpaceOnUse"
       id="clipPath8280">
      <path
         d="M -32768,32767 H 32767 V -32768 H -32768 Z"
         id="path8278"
         inkscape:connector-curvature="0" />
    </clipPath>
    <linearGradient
       x1="0"
       y1="0"
       x2="1"
       y2="0"
       gradientUnits="userSpaceOnUse"
       gradientTransform="matrix(0,21.967331,-21.967331,0,9.877e-4,-10.983685)"
       spreadMethod="pad"
       id="linearGradient8286">
      <stop
         style="stop-opacity:0;stop-color:#ffffff"
         offset="0"
         id="stop8282" />
      <stop
         style="stop-opacity:1;stop-color:#ffffff"
         offset="1"
         id="stop8284" />
    </linearGradient>
    <linearGradient
       x1="0"
       y1="0"
       x2="1"
       y2="0"
       gradientUnits="userSpaceOnUse"
       gradientTransform="matrix(0,21.967331,-21.967331,0,9.877e-4,-10.983685)"
       spreadMethod="pad"
       id="linearGradient8304">
      <stop
         style="stop-opacity:1;stop-color:#231f20"
         offset="0"
         id="stop8300" />
      <stop
         style="stop-opacity:1;stop-color:#231f20"
         offset="1"
         id="stop8302" />
    </linearGradient>
  </defs>
  <sodipodi:namedview
     id="base"
     pagecolor="#ffffff"
     bordercolor="#666666"
     borderopacity="1.0"
     inkscape:pageopacity="0.0"
     inkscape:pageshadow="2"
     inkscape:zoom="1.979899"
     inkscape:cx="42.672107"
     inkscape:cy="208.37722"
     inkscape:document-units="mm"
     inkscape:current-layer="layer1"
     showgrid="false"
     units="mm"
     fit-margin-top="0"
     fit-margin-left="0"
     fit-margin-right="0"
     fit-margin-bottom="0"
     inkscape:snap-bbox="true"
     inkscape:bbox-paths="true"
     inkscape:bbox-nodes="true"
     inkscape:window-width="2560"
     inkscape:window-height="1422"
     inkscape:window-x="0"
     inkscape:window-y="18"
     inkscape:window-maximized="0" />
  <metadata
     id="metadata93081">
    <rdf:RDF>
      <cc:Work
         rdf:about="">
        <dc:format>image/svg+xml</dc:format>
        <dc:type
           rdf:resource="http://purl.org/dc/dcmitype/StillImage" />
        <dc:title></dc:title>
      </cc:Work>
    </rdf:RDF>
  </metadata>
  <g
     inkscape:label="Layer 1"
     inkscape:groupmode="layer"
     id="layer1"
     transform="translate(-92.86119,-70.97636)">
    <path
       d="M 92.954677,71.069494 H 123.24806 V 199.38253 H 92.954677 Z"
       style="fill:#e8e8e8;fill-opacity:1;fill-rule:nonzero;stroke:none;stroke-width:0.35277775"
       id="path6336"
       inkscape:connector-curvature="0" />
    <path
       d="m 123.34119,70.97636 h -30.48 v 128.49966 h 30.48 z m -0.18662,128.31268 H 93.048163 V 71.16298 h 30.106407 z"
       style="fill:#acacac;fill-opacity:1;fill-rule:nonzero;stroke:none;stroke-width:0.35277775"
       id="path6338"
       inkscape:connector-curvature="0" />
    <g
       id="g7078"
       transform="matrix(0.35277777,0,0,-0.35277777,102.42514,110.4843)">
      <path
         d="M 0,0 H 32.398"
         style="fill:none;stroke:#000000;stroke-width:1;stroke-linecap:round;stroke-linejoin:round;stroke-miterlimit:4;stroke-dasharray:none;stroke-opacity:1"
         id="path7080"
         inkscape:connector-curvature="0" />
    </g>
    <g
       id="g7082"
       transform="matrix(0.35277777,0,0,-0.35277777,102.42514,124.48432)">
      <path
         d="M 0,0 H 32.398"
         style="fill:none;stroke:#000000;stroke-width:1;stroke-linecap:round;stroke-linejoin:round;stroke-miterlimit:4;stroke-dasharray:none;stroke-opacity:1"
         id="path7084"
         inkscape:connector-curvature="0" />
    </g>
    <g
       id="g7086"
       transform="matrix(0.35277777,0,0,-0.35277777,96.600705,135.59869)">
      <path
         d="M 0,0 H 65.2"
         style="fill:none;stroke:#000000;stroke-width:1;stroke-linecap:round;stroke-linejoin:round;stroke-miterlimit:4;stroke-dasharray:none;stroke-opacity:1"
         id="path7088"
         inkscape:connector-curvature="0" />
    </g>
    <g
       id="g7090"
       transform="matrix(0.35277777,0,0,-0.35277777,102.42514,152.4845)">
      <path
         d="M 0,0 H 32.398"
         style="fill:none;stroke:#000000;stroke-width:1;stroke-linecap:round;stroke-linejoin:round;stroke-miterlimit:4;stroke-dasharray:none;stroke-opacity:1"
         id="path7092"
         inkscape:connector-curvature="0" />
    </g>
    <g
       id="g7094"
       transform="matrix(0.35277777,0,0,-0.35277777,106.81645,180.48433)">
      <path
         d="m 0,0 c 0,-8.947 -7.255,-16.2 -16.201,-16.2 -8.944,0 -16.199,7.253 -16.199,16.2 0,8.947 7.255,16.2 16.199,16.2 C -7.255,16.2 0,8.947 0,0"
         style="fill:#000000;fill-opacity:1;fill-rule:nonzero;stroke:none"
         id="path7096"
         inkscape:connector-curvature="0" />
    </g>
    <g
       id="g7098"
       transform="matrix(0.35277777,0,0,-0.35277777,102.42514,166.48413)">
      <path
         d="M 0,0 H 32.398"
         style="fill:none;stroke:#000000;stroke-width:1;stroke-linecap:round;stroke-linejoin:round;stroke-miterlimit:4;stroke-dasharray:none;stroke-opacity:1"
         id="path7100"
         inkscape:connector-curvature="0" />
    </g>
    <g
       id="g7102"
       transform="matrix(0.35277777,0,0,-0.35277777,102.42514,180.48398)">
      <path
         d="M 0,0 H 32.398"
         style="fill:none;stroke:#000000;stroke-width:1;stroke-linecap:round;stroke-linejoin:round;stroke-miterlimit:4;stroke-dasharray:none;stroke-opacity:1"
         id="path7104"
         inkscape:connector-curvature="0" />
    </g>
    <g
       id="g7106"
       transform="matrix(0.35277777,0,0,-0.35277777,106.81645,166.48449)">
      <path
         d="m 0,0 c 0,-8.947 -7.255,-16.2 -16.201,-16.2 -8.944,0 -16.199,7.253 -16.199,16.2 0,8.947 7.255,16.2 16.199,16.2 C -7.255,16.2 0,8.947 0,0"
         style="fill:#000000;fill-opacity:1;fill-rule:nonzero;stroke:none"
         id="path7108"
         inkscape:connector-curvature="0" />
    </g>
    <g
       id="g7110"
       transform="matrix(0.35277777,0,0,-0.35277777,106.81645,124.48481)">
      <path
         d="m 0,0 c 0,-8.947 -7.255,-16.2 -16.201,-16.2 -8.944,0 -16.199,7.253 -16.199,16.2 0,8.947 7.255,16.2 16.199,16.2 C -7.255,16.2 0,8.947 0,0"
         style="fill:#000000;fill-opacity:1;fill-rule:nonzero;stroke:none"
         id="path7112"
         inkscape:connector-curvature="0" />
    </g>
    <g
       id="g7114"
       transform="matrix(0.35277777,0,0,-0.35277777,106.81645,110.48482)">
      <path
         d="m 0,0 c 0,-8.947 -7.255,-16.2 -16.201,-16.2 -8.944,0 -16.199,7.253 -16.199,16.2 0,8.947 7.255,16.2 16.199,16.2 C -7.255,16.2 0,8.947 0,0"
         style="fill:#000000;fill-opacity:1;fill-rule:nonzero;stroke:none"
         id="path7116"
         inkscape:connector-curvature="0" />
    </g>
    <g
       id="g7118"
       transform="matrix(0.35277777,0,0,-0.35277777,98.25347,85.771436)">
      <path
         d="M 0,0 H 0.624 V -3.823 H 2.903 V -4.374 H 0 Z"
         style="fill:#000000;fill-opacity:1;fill-rule:nonzero;stroke:none"
         id="path7120"
         inkscape:connector-curvature="0" />
    </g>
    <g
       id="g7122"
       transform="matrix(0.35277777,0,0,-0.35277777,100.08678,87.142755)">
      <path
         d="m 0,0 c 0.39,0 0.704,0.076 0.917,0.304 0.214,0.229 0.332,0.613 0.332,1.243 v 0.307 c 0,0.625 -0.121,1.011 -0.337,1.243 -0.217,0.231 -0.534,0.304 -0.924,0.304 -0.386,0 -0.7,-0.07 -0.913,-0.298 C -1.139,2.874 -1.259,2.49 -1.259,1.866 V 1.558 c 0,-0.629 0.12,-1.016 0.339,-1.247 C -0.7,0.076 -0.387,0 0,0 m -0.012,-0.554 c -0.363,0 -0.696,0.041 -0.978,0.167 -0.284,0.126 -0.515,0.337 -0.677,0.668 -0.161,0.331 -0.251,0.791 -0.251,1.415 0,0.624 0.09,1.087 0.254,1.421 0.164,0.334 0.398,0.545 0.683,0.674 0.284,0.126 0.618,0.17 0.981,0.17 0.363,0 0.698,-0.041 0.982,-0.167 C 1.263,3.668 1.495,3.457 1.658,3.126 1.82,2.795 1.911,2.335 1.911,1.711 1.911,1.087 1.82,0.627 1.655,0.293 1.492,-0.042 1.257,-0.255 0.973,-0.381 0.689,-0.51 0.352,-0.554 -0.012,-0.554"
         style="fill:#000000;fill-opacity:1;fill-rule:nonzero;stroke:none"
         id="path7124"
         inkscape:connector-curvature="0" />
    </g>
    <g
       id="g7126"
       transform="matrix(0.35277777,0,0,-0.35277777,101.6135,87.334983)">
      <path
         d="m 0,0 c -0.352,0 -0.677,0.029 -0.946,0.144 -0.273,0.113 -0.498,0.31 -0.654,0.641 -0.155,0.331 -0.243,0.8 -0.243,1.456 0,0.656 0.091,1.125 0.249,1.462 0.158,0.337 0.387,0.536 0.668,0.653 0.278,0.118 0.612,0.15 0.978,0.15 0.317,0 0.595,-0.021 0.818,-0.053 0.219,-0.032 0.381,-0.067 0.472,-0.1 L 1.236,3.809 C 1.11,3.832 0.931,3.864 0.723,3.891 0.513,3.914 0.275,3.935 0.041,3.935 -0.393,3.935 -0.698,3.858 -0.894,3.63 -1.093,3.401 -1.184,3.018 -1.184,2.411 V 2.103 c 0,-0.594 0.091,-0.981 0.29,-1.225 0.2,-0.242 0.504,-0.333 0.929,-0.333 0.41,0 0.659,0.041 0.815,0.079 V 2.177 H 1.444 V 0.185 C 1.339,0.149 1.151,0.105 0.905,0.067 0.656,0.029 0.348,0 0,0"
         style="fill:#000000;fill-opacity:1;fill-rule:nonzero;stroke:none"
         id="path7128"
         inkscape:connector-curvature="0" />
    </g>
    <path
       d="m 102.41759,85.771507 h 0.22225 v 1.54305 h -0.22225 z"
       style="fill:#000000;fill-opacity:1;fill-rule:nonzero;stroke:none;stroke-width:0.35277775"
       id="path7130"
       inkscape:connector-curvature="0" />
    <g
       id="g7132"
       transform="matrix(0.35277777,0,0,-0.35277777,103.56274,87.334983)">
      <path
         d="m 0,0 c -0.352,0 -0.677,0.029 -0.946,0.144 -0.273,0.113 -0.499,0.31 -0.654,0.641 -0.155,0.331 -0.243,0.8 -0.243,1.456 0,0.656 0.091,1.125 0.246,1.462 0.156,0.337 0.384,0.536 0.66,0.653 0.275,0.118 0.597,0.15 0.949,0.15 0.316,0 0.574,-0.024 0.776,-0.056 C 0.987,4.418 1.134,4.38 1.227,4.353 L 1.116,3.814 C 0.99,3.838 0.829,3.867 0.642,3.894 0.451,3.917 0.234,3.935 0,3.935 -0.411,3.935 -0.703,3.858 -0.896,3.63 -1.09,3.401 -1.184,3.018 -1.184,2.411 V 2.103 c 0,-0.594 0.094,-0.978 0.293,-1.218 0.196,-0.24 0.492,-0.334 0.903,-0.334 0.255,0 0.501,0.023 0.7,0.055 0.196,0.033 0.348,0.062 0.41,0.082 L 1.236,0.149 C 0.981,0.07 0.595,0 0,0"
         style="fill:#000000;fill-opacity:1;fill-rule:nonzero;stroke:none"
         id="path7134"
         inkscape:connector-curvature="0" />
    </g>
    <g
       id="g7136"
       transform="matrix(0.35277777,0,0,-0.35277777,99.664263,89.964976)">
      <path
         d="m 0,0 c 0.389,0 0.703,0.076 0.917,0.304 0.214,0.229 0.331,0.613 0.331,1.243 v 0.307 c 0,0.625 -0.121,1.011 -0.337,1.243 -0.217,0.231 -0.534,0.304 -0.923,0.304 -0.386,0 -0.7,-0.07 -0.914,-0.298 C -1.14,2.874 -1.26,2.49 -1.26,1.866 V 1.558 c 0,-0.629 0.12,-1.016 0.34,-1.247 C -0.7,0.076 -0.387,0 0,0 m -0.012,-0.554 c -0.363,0 -0.697,0.041 -0.978,0.167 -0.284,0.126 -0.516,0.337 -0.677,0.668 -0.161,0.331 -0.252,0.791 -0.252,1.415 0,0.624 0.091,1.087 0.254,1.421 0.165,0.334 0.399,0.545 0.684,0.674 0.283,0.126 0.618,0.17 0.981,0.17 0.363,0 0.697,-0.041 0.981,-0.167 C 1.263,3.668 1.494,3.457 1.658,3.126 1.819,2.795 1.91,2.335 1.91,1.711 1.91,1.087 1.819,0.627 1.655,0.293 1.491,-0.042 1.256,-0.255 0.973,-0.381 0.688,-0.51 0.352,-0.554 -0.012,-0.554"
         style="fill:#000000;fill-opacity:1;fill-rule:nonzero;stroke:none"
         id="path7138"
         inkscape:connector-curvature="0" />
    </g>
    <g
       id="g7140"
       transform="matrix(0.35277777,0,0,-0.35277777,101.19871,90.157206)">
      <path
         d="m 0,0 c -0.574,0 -1.011,0.073 -1.304,0.311 -0.293,0.237 -0.443,0.638 -0.443,1.294 v 2.827 h 0.631 V 1.661 c 0,-0.422 0.073,-0.694 0.251,-0.858 0.176,-0.164 0.458,-0.223 0.876,-0.223 0.413,0 0.695,0.05 0.87,0.208 0.176,0.158 0.246,0.425 0.246,0.861 V 4.432 H 1.734 V 1.617 C 1.734,0.97 1.59,0.565 1.301,0.322 1.007,0.079 0.574,0 0,0"
         style="fill:#000000;fill-opacity:1;fill-rule:nonzero;stroke:none"
         id="path7142"
         inkscape:connector-curvature="0" />
    </g>
    <g
       id="g7144"
       transform="matrix(0.35277777,0,0,-0.35277777,102.52921,88.792943)">
      <path
         d="M 0,0 H -1.448 V 0.565 H 2.056 V 0 H 0.624 V -3.809 H 0 Z"
         style="fill:#000000;fill-opacity:1;fill-rule:nonzero;stroke:none"
         id="path7146"
         inkscape:connector-curvature="0" />
    </g>
    <g
       id="g7148"
       transform="matrix(0.35277777,0,0,-0.35277777,112.79885,89.371216)">
      <path
         d="m 0,0 c 0,-1.305 -1.057,-2.363 -2.362,-2.363 -1.305,0 -2.363,1.058 -2.363,2.363 0,1.305 1.058,2.363 2.363,2.363 C -1.057,2.363 0,1.305 0,0 Z"
         style="fill:none;stroke:#000000;stroke-width:0.5;stroke-linecap:butt;stroke-linejoin:miter;stroke-miterlimit:10;stroke-dasharray:none;stroke-opacity:1"
         id="path7150"
         inkscape:connector-curvature="0" />
    </g>
    <g
       id="g7152"
       transform="matrix(0.35277777,0,0,-0.35277777,112.38493,86.54589)">
      <path
         d="m 0,0 c 0,-0.656 -0.532,-1.187 -1.189,-1.187 -0.656,0 -1.188,0.531 -1.188,1.187 0,0.656 0.532,1.187 1.188,1.187 C -0.532,1.187 0,0.656 0,0"
         style="fill:#000000;fill-opacity:1;fill-rule:nonzero;stroke:none"
         id="path7154"
         inkscape:connector-curvature="0" />
    </g>
    <g
       id="g7156"
       transform="matrix(0.35277777,0,0,-0.35277777,112.79885,86.54589)">
      <path
         d="m 0,0 c 0,-1.305 -1.057,-2.362 -2.362,-2.362 -1.305,0 -2.363,1.057 -2.363,2.362 0,1.304 1.058,2.362 2.363,2.362 C -1.057,2.362 0,1.304 0,0 Z"
         style="fill:none;stroke:#000000;stroke-width:0.5;stroke-linecap:butt;stroke-linejoin:miter;stroke-miterlimit:10;stroke-dasharray:none;stroke-opacity:1"
         id="path7158"
         inkscape:connector-curvature="0" />
    </g>
    <g
       id="g7160"
       transform="matrix(0.35277777,0,0,-0.35277777,114.48851,87.081758)">
      <path
         d="m 0,0 c 0.377,0 0.656,0.073 0.838,0.284 0.181,0.208 0.266,0.545 0.266,1.072 v 0.326 c 0,0.527 -0.09,0.864 -0.275,1.069 C 0.644,2.956 0.366,3.026 -0.012,3.026 -0.39,3.026 -0.666,2.956 -0.847,2.757 -1.028,2.555 -1.116,2.221 -1.116,1.693 V 1.368 c 0,-0.527 0.088,-0.87 0.275,-1.078 C -0.657,0.079 -0.378,0 0,0 m -0.012,-0.75 c -0.399,0 -0.759,0.044 -1.061,0.167 -0.301,0.123 -0.542,0.331 -0.705,0.668 -0.167,0.337 -0.262,0.8 -0.262,1.436 0,0.632 0.095,1.095 0.262,1.432 0.167,0.337 0.412,0.548 0.717,0.671 C -0.759,3.747 -0.402,3.788 0,3.788 0.398,3.788 0.759,3.75 1.06,3.627 1.362,3.504 1.602,3.299 1.769,2.965 1.934,2.631 2.027,2.165 2.027,1.532 2.027,0.899 1.937,0.434 1.767,0.097 1.597,-0.243 1.354,-0.454 1.051,-0.58 0.747,-0.709 0.387,-0.75 -0.012,-0.75"
         style="fill:#000000;fill-opacity:1;fill-rule:nonzero;stroke:none"
         id="path7162"
         inkscape:connector-curvature="0" />
    </g>
    <g
       id="g7164"
       transform="matrix(0.35277777,0,0,-0.35277777,116.066,86.575346)">
      <path
         d="m 0,0 c 0.237,0 0.421,0.029 0.547,0.141 0.127,0.111 0.191,0.301 0.191,0.638 0,0.34 -0.073,0.533 -0.202,0.642 C 0.404,1.529 0.213,1.553 -0.012,1.553 H -0.876 V 0 Z M 1.907,-2.112 H 0.899 l -0.941,1.397 H -0.876 V -2.112 H -1.752 V 2.279 H 0 C 0.542,2.279 0.949,2.215 1.218,1.998 1.488,1.781 1.62,1.403 1.62,0.791 1.62,0.36 1.553,0.067 1.424,-0.138 1.292,-0.343 1.096,-0.46 0.841,-0.521 Z"
         style="fill:#000000;fill-opacity:1;fill-rule:nonzero;stroke:none"
         id="path7166"
         inkscape:connector-curvature="0" />
    </g>
    <g
       id="g7168"
       transform="matrix(0.35277777,0,0,-0.35277777,113.84046,88.600715)">
      <path
         d="M 0,0 H 0.612 L 2.809,-3.252 V 0 H 3.41 V -4.374 H 2.862 L 0.601,-1.031 V -4.374 H 0 Z"
         style="fill:#000000;fill-opacity:1;fill-rule:nonzero;stroke:none"
         id="path7170"
         inkscape:connector-curvature="0" />
    </g>
    <g
       id="g7172"
       transform="matrix(0.35277777,0,0,-0.35277777,115.98281,89.972209)">
      <path
         d="m 0,0 c 0.39,0 0.703,0.076 0.917,0.305 0.214,0.228 0.332,0.612 0.332,1.242 v 0.307 c 0,0.625 -0.121,1.011 -0.338,1.243 -0.217,0.231 -0.533,0.304 -0.922,0.304 -0.387,0 -0.7,-0.07 -0.915,-0.298 C -1.139,2.874 -1.26,2.49 -1.26,1.866 V 1.559 c 0,-0.63 0.121,-1.017 0.341,-1.248 C -0.7,0.076 -0.386,0 0,0 m -0.011,-0.554 c -0.364,0 -0.698,0.041 -0.979,0.167 -0.284,0.126 -0.515,0.337 -0.677,0.668 -0.161,0.331 -0.251,0.791 -0.251,1.415 0,0.624 0.09,1.087 0.254,1.421 0.164,0.334 0.399,0.545 0.683,0.674 0.284,0.126 0.618,0.17 0.981,0.17 0.364,0 0.698,-0.041 0.982,-0.167 C 1.263,3.668 1.495,3.457 1.658,3.126 1.819,2.795 1.911,2.335 1.911,1.711 1.911,1.087 1.819,0.627 1.656,0.293 1.491,-0.041 1.257,-0.255 0.973,-0.381 0.689,-0.51 0.352,-0.554 -0.011,-0.554"
         style="fill:#000000;fill-opacity:1;fill-rule:nonzero;stroke:none"
         id="path7174"
         inkscape:connector-curvature="0" />
    </g>
    <g
       id="g7176"
       transform="matrix(0.35277777,0,0,-0.35277777,117.48762,89.4048)">
      <path
         d="m 0,0 c 0.282,0 0.51,0.023 0.668,0.144 0.159,0.117 0.247,0.334 0.247,0.72 0,0.39 -0.095,0.613 -0.258,0.733 C 0.492,1.717 0.261,1.74 -0.011,1.74 H -0.99 V 0 Z M 1.764,-2.095 H 1.041 L 0.018,-0.536 H -0.99 V -2.095 H -1.614 V 2.279 H 0 C 0.519,2.279 0.903,2.197 1.161,1.983 1.416,1.77 1.538,1.418 1.538,0.876 1.538,0.462 1.462,0.17 1.316,-0.035 1.169,-0.24 0.953,-0.36 0.674,-0.422 Z"
         style="fill:#000000;fill-opacity:1;fill-rule:nonzero;stroke:none"
         id="path7178"
         inkscape:connector-curvature="0" />
    </g>
    <g
       id="g7180"
       transform="matrix(0.35277777,0,0,-0.35277777,102.42514,96.484275)">
      <path
         d="M 0,0 H 32.398"
         style="fill:none;stroke:#000000;stroke-width:1;stroke-linecap:round;stroke-linejoin:round;stroke-miterlimit:4;stroke-dasharray:none;stroke-opacity:1"
         id="path7182"
         inkscape:connector-curvature="0" />
    </g>
    <g
       id="g7184"
       transform="matrix(0.35277777,0,0,-0.35277777,101.30944,80.416693)">
      <path
         d="M 0,0 C 0.307,0 0.586,0.054 0.784,0.215 0.978,0.376 1.102,0.65 1.102,1.085 1.102,1.52 0.978,1.799 0.784,1.966 0.586,2.132 0.307,2.186 0,2.186 H -2.014 V 0 Z m -0.209,3.411 c 0.306,0 0.585,0.032 0.783,0.177 0.194,0.145 0.318,0.397 0.318,0.832 0,0.435 -0.124,0.699 -0.323,0.838 C 0.372,5.398 0.092,5.43 -0.209,5.43 H -2.014 V 3.411 Z m -3.4,3.34 h 3.4 C 0.672,6.751 1.354,6.66 1.815,6.354 2.277,6.048 2.52,5.527 2.52,4.684 2.52,4.125 2.417,3.717 2.213,3.438 2.009,3.153 1.713,2.981 1.332,2.89 1.725,2.82 2.073,2.653 2.326,2.342 2.578,2.03 2.729,1.579 2.729,0.956 2.729,0.134 2.52,-0.43 2.073,-0.79 1.627,-1.149 0.945,-1.3 0,-1.3 h -3.609 z"
         style="fill:#000000;fill-opacity:1;fill-rule:nonzero;stroke:none"
         id="path7186"
         inkscape:connector-curvature="0" />
    </g>
    <path
       d="m 102.65254,78.035091 h 0.57608 v 2.840214 h -0.57608 z"
       style="fill:#000000;fill-opacity:1;fill-rule:nonzero;stroke:none;stroke-width:0.35277775"
       id="path7188"
       inkscape:connector-curvature="0" />
    <g
       id="g7190"
       transform="matrix(0.35277777,0,0,-0.35277777,103.70241,78.035125)">
      <path
         d="M 0,0 H 1.605 L 5.151,-5.124 V 0 H 6.697 V -8.051 H 5.312 L 1.553,-2.583 V -8.051 H 0 Z"
         style="fill:#000000;fill-opacity:1;fill-rule:nonzero;stroke:none"
         id="path7192"
         inkscape:connector-curvature="0" />
    </g>
    <g
       id="g7194"
       transform="matrix(0.35277777,0,0,-0.35277777,107.68841,78.802348)">
      <path
         d="m 0,0 c -0.22,-0.596 -0.418,-1.123 -0.589,-1.584 -0.077,-0.199 -0.146,-0.398 -0.216,-0.586 -0.14,-0.381 -0.257,-0.677 -0.328,-0.859 -0.037,-0.092 -0.054,-0.14 -0.054,-0.14 h 2.369 z m -2.207,-5.93 h -1.617 l 3.121,8.105 H 0.786 L 3.905,-5.93 H 2.203 L 1.666,-4.479 H -1.67 Z"
         style="fill:#000000;fill-opacity:1;fill-rule:nonzero;stroke:none"
         id="path7196"
         inkscape:connector-curvature="0" />
    </g>
    <g
       id="g7198"
       transform="matrix(0.35277777,0,0,-0.35277777,110.47341,79.509103)">
      <path
         d="M 0,0 C 0.436,0 0.773,0.053 1.005,0.257 1.237,0.462 1.354,0.811 1.354,1.428 1.354,2.052 1.22,2.406 0.983,2.605 0.742,2.803 0.393,2.847 -0.021,2.847 H -1.605 V 0 Z M 3.497,-3.873 H 1.649 l -1.723,2.562 H -1.605 V -3.873 H -3.211 V 4.178 H 0 C 0.994,4.178 1.74,4.061 2.234,3.663 2.729,3.266 2.971,2.573 2.971,1.45 2.971,0.661 2.848,0.124 2.612,-0.252 2.369,-0.628 2.01,-0.843 1.542,-0.956 Z"
         style="fill:#000000;fill-opacity:1;fill-rule:nonzero;stroke:none"
         id="path7200"
         inkscape:connector-curvature="0" />
    </g>
    <g
       id="g7202"
       transform="matrix(0.35277777,0,0,-0.35277777,112.74717,79.861528)">
      <path
         d="m 0,0 -3.046,5.177 h 1.757 L 0.848,1.579 2.98,5.177 H 4.65 L 1.617,0.032 V -2.874 H 0 Z"
         style="fill:#000000;fill-opacity:1;fill-rule:nonzero;stroke:none"
         id="path7204"
         inkscape:connector-curvature="0" />
    </g>
    <g
       id="g7206"
       transform="matrix(0.35277777,0,0,-0.35277777,114.93241,79.515628)">
      <path
         d="M 0,0 1.417,1.22 C 1.725,1.482 1.938,1.67 2.084,1.822 2.229,1.974 2.311,2.094 2.353,2.227 2.395,2.356 2.404,2.505 2.404,2.712 2.404,2.945 2.359,3.1 2.229,3.2 2.097,3.301 1.874,3.343 1.511,3.343 1.227,3.343 0.942,3.32 0.706,3.294 0.469,3.265 0.285,3.233 0.198,3.21 L 0.065,4.039 c 0.159,0.042 0.394,0.08 0.657,0.109 0.262,0.03 0.547,0.049 0.802,0.049 0.703,0 1.159,-0.087 1.44,-0.307 C 3.246,3.667 3.346,3.307 3.346,2.764 3.346,2.469 3.32,2.252 3.252,2.062 3.184,1.867 3.068,1.702 2.887,1.508 2.706,1.314 2.456,1.091 2.12,0.79 L 1.298,0.062 h 2.2 V -0.734 H 0 Z"
         style="fill:#000000;fill-opacity:1;fill-rule:nonzero;stroke:none"
         id="path7208"
         inkscape:connector-curvature="0" />
    </g>
    <g
       id="g7210"
       transform="matrix(0.35277777,0,0,-0.35277777,103.25233,191.28607)">
      <path
         d="M 0,0 C 0.219,0 0.219,0 0.691,0.059 0.922,0.086 1.117,0.16 1.242,0.242 V 2.035 C 1.148,2.098 0.961,2.148 0.723,2.164 0.23,2.199 0.23,2.199 0.008,2.199 c -0.25,0 -0.43,-0.047 -0.547,-0.226 -0.117,-0.18 -0.172,-0.34 -0.172,-0.86 0,-0.527 0.051,-0.683 0.164,-0.871 C -0.434,0.055 -0.254,0 0,0 m 0.234,-2.43 c -0.277,0 -0.574,0.016 -0.828,0.035 -0.254,0.02 -0.472,0.043 -0.597,0.071 l 0.082,0.687 c 0.183,-0.027 0.414,-0.05 0.648,-0.066 0.234,-0.016 0.481,-0.024 0.688,-0.024 0.421,0 0.675,0.028 0.824,0.2 0.148,0.168 0.191,0.472 0.191,1.035 v 0.144 C 1.121,-0.43 0.91,-0.523 0.605,-0.578 -0.012,-0.687 -0.012,-0.687 -0.32,-0.687 c -0.207,0 -0.414,0.023 -0.594,0.117 -0.18,0.093 -0.34,0.265 -0.449,0.55 -0.114,0.286 -0.18,0.54 -0.18,1.118 0,0.707 0.156,1.199 0.395,1.468 0.234,0.27 0.546,0.329 0.871,0.329 0.3,0 0.3,0 0.922,-0.071 C 0.937,2.793 1.164,2.719 1.273,2.652 L 1.434,2.965 H 2.051 V -0.492 C 2.051,-1.238 1.977,-1.723 1.711,-2.02 1.445,-2.316 0.988,-2.43 0.234,-2.43"
         style="fill:#000000;fill-opacity:1;fill-rule:nonzero;stroke:none"
         id="path7212"
         inkscape:connector-curvature="0" />
    </g>
    <g
       id="g7214"
       transform="matrix(0.35277777,0,0,-0.35277777,104.26621,190.24015)">
      <path
         d="m 0,0 h 0.656 l 0.121,-0.441 c 0.16,0.093 0.36,0.211 0.594,0.308 0.234,0.098 0.52,0.184 0.817,0.227 l 0.078,-0.75 C 2.047,-0.684 1.77,-0.73 1.504,-0.793 1.234,-0.859 0.977,-0.941 0.816,-1.035 V -3.762 H 0 Z"
         style="fill:#000000;fill-opacity:1;fill-rule:nonzero;stroke:none"
         id="path7216"
         inkscape:connector-curvature="0" />
    </g>
    <g
       id="g7218"
       transform="matrix(0.35277777,0,0,-0.35277777,105.63287,191.35497)">
      <path
         d="M 0,0 C 0.203,0 0.43,0.051 0.637,0.117 0.844,0.184 1.023,0.27 1.145,0.336 V 1.184 C 0.676,1.184 0.352,1.168 0.121,1.141 -0.113,1.113 -0.25,1.074 -0.344,1.023 -0.422,0.977 -0.461,0.902 -0.484,0.812 -0.508,0.719 -0.512,0.613 -0.512,0.52 -0.512,0.305 -0.465,0.176 -0.379,0.102 -0.293,0.023 -0.168,0 0,0 m -0.32,-0.656 c -0.25,0 -0.504,0.062 -0.692,0.238 -0.191,0.172 -0.316,0.465 -0.316,0.922 0,0.457 0.078,0.773 0.344,0.926 0.207,0.121 0.457,0.191 0.793,0.23 0.336,0.039 0.761,0.043 1.336,0.043 V 1.871 C 1.145,2.137 1.121,2.32 1.023,2.441 0.926,2.563 0.746,2.613 0.445,2.613 -0.121,2.613 -0.57,2.535 -0.84,2.477 l -0.113,0.675 c 0.234,0.047 0.73,0.149 1.418,0.149 0.551,0 0.926,-0.09 1.16,-0.293 C 1.855,2.801 1.949,2.473 1.949,1.992 V -0.602 H 1.305 L 1.184,-0.211 C 1.086,-0.27 0.895,-0.383 0.633,-0.477 0.371,-0.574 0.043,-0.656 -0.32,-0.656"
         style="fill:#000000;fill-opacity:1;fill-rule:nonzero;stroke:none"
         id="path7220"
         inkscape:connector-curvature="0" />
    </g>
    <g
       id="g7222"
       transform="matrix(0.35277777,0,0,-0.35277777,106.46522,190.24015)">
      <path
         d="M 0,0 H 0.863 C 1.062,-0.512 1.246,-0.973 1.406,-1.375 1.473,-1.547 1.539,-1.715 1.605,-1.879 1.672,-2.047 1.73,-2.191 1.781,-2.32 1.832,-2.449 1.871,-2.555 1.902,-2.633 1.934,-2.715 1.949,-2.754 1.949,-2.754 L 3.008,0 H 3.773 L 1.68,-5.363 H 0.863 l 0.649,1.656 z"
         style="fill:#000000;fill-opacity:1;fill-rule:nonzero;stroke:none"
         id="path7224"
         inkscape:connector-curvature="0" />
    </g>
    <g
       id="g7226"
       transform="matrix(0.35277777,0,0,-0.35277777,108.40927,191.592)">
      <path
         d="M 0,0 C -0.266,0 -0.566,0.027 -0.828,0.062 -1.094,0.098 -1.32,0.145 -1.449,0.191 l 0.105,0.614 c 0.11,-0.032 0.328,-0.075 0.582,-0.114 0.25,-0.039 0.535,-0.07 0.77,-0.07 0.359,0 0.582,0.031 0.715,0.113 0.132,0.082 0.172,0.223 0.172,0.442 0,0.16 -0.036,0.258 -0.157,0.324 C 0.613,1.566 0.414,1.609 0.086,1.656 -0.508,1.738 -0.879,1.816 -1.105,1.98 -1.332,2.145 -1.41,2.398 -1.41,2.84 c 0,0.422 0.137,0.699 0.394,0.875 0.258,0.172 0.641,0.242 1.153,0.242 0.285,0 0.582,-0.016 0.836,-0.039 C 1.223,3.895 1.426,3.859 1.535,3.832 L 1.422,3.207 C 1.297,3.227 1.066,3.258 0.82,3.285 0.574,3.313 0.312,3.328 0.121,3.328 -0.164,3.328 -0.352,3.301 -0.465,3.227 -0.578,3.148 -0.625,3.035 -0.625,2.863 -0.625,2.676 -0.586,2.566 -0.445,2.5 -0.305,2.434 -0.062,2.398 0.344,2.352 0.875,2.289 1.215,2.199 1.422,2.027 1.629,1.855 1.703,1.609 1.703,1.223 1.703,0.707 1.555,0.398 1.273,0.227 0.988,0.051 0.562,0 0,0"
         style="fill:#000000;fill-opacity:1;fill-rule:nonzero;stroke:none"
         id="path7228"
         inkscape:connector-curvature="0" />
    </g>
    <g
       id="g7230"
       transform="matrix(0.35277777,0,0,-0.35277777,109.78973,191.59888)">
      <path
         d="M 0,0 C -0.629,0 -1.09,0.125 -1.391,0.437 -1.691,0.75 -1.84,1.25 -1.84,2 c 0,0.746 0.153,1.242 0.461,1.555 0.309,0.312 0.774,0.437 1.41,0.437 0.203,0 0.426,-0.019 0.633,-0.047 C 0.867,3.918 1.055,3.883 1.184,3.852 L 1.047,3.168 C 0.809,3.219 0.441,3.289 0.008,3.289 c -0.34,0 -0.594,-0.043 -0.762,-0.226 -0.172,-0.184 -0.254,-0.5 -0.254,-1.043 0,-0.547 0.09,-0.879 0.262,-1.071 0.172,-0.191 0.43,-0.25 0.769,-0.25 0.372,0 0.754,0.059 1.032,0.133 L 1.199,0.168 C 1.039,0.125 0.844,0.082 0.637,0.051 0.43,0.02 0.207,0 0,0"
         style="fill:#000000;fill-opacity:1;fill-rule:nonzero;stroke:none"
         id="path7232"
         inkscape:connector-curvature="0" />
    </g>
    <g
       id="g7234"
       transform="matrix(0.35277777,0,0,-0.35277777,110.82291,191.35497)">
      <path
         d="M 0,0 C 0.203,0 0.43,0.051 0.637,0.117 0.844,0.184 1.023,0.27 1.145,0.336 V 1.184 C 0.676,1.184 0.352,1.168 0.121,1.141 -0.113,1.113 -0.25,1.074 -0.344,1.023 -0.422,0.977 -0.461,0.902 -0.484,0.812 -0.508,0.719 -0.512,0.613 -0.512,0.52 -0.512,0.305 -0.465,0.176 -0.379,0.102 -0.293,0.023 -0.168,0 0,0 m -0.32,-0.656 c -0.25,0 -0.504,0.062 -0.692,0.238 -0.191,0.172 -0.316,0.465 -0.316,0.922 0,0.457 0.078,0.773 0.344,0.926 0.207,0.121 0.457,0.191 0.793,0.23 0.336,0.039 0.761,0.043 1.336,0.043 V 1.871 C 1.145,2.137 1.121,2.32 1.023,2.441 0.926,2.563 0.746,2.613 0.445,2.613 -0.121,2.613 -0.57,2.535 -0.84,2.477 l -0.113,0.675 c 0.234,0.047 0.73,0.149 1.418,0.149 0.551,0 0.926,-0.09 1.16,-0.293 C 1.855,2.801 1.949,2.473 1.949,1.992 V -0.602 H 1.305 L 1.184,-0.211 C 1.086,-0.27 0.895,-0.383 0.633,-0.477 0.371,-0.574 0.043,-0.656 -0.32,-0.656"
         style="fill:#000000;fill-opacity:1;fill-rule:nonzero;stroke:none"
         id="path7236"
         inkscape:connector-curvature="0" />
    </g>
    <path
       d="m 111.80641,189.45325 h 0.2854 v 2.11384 h -0.2854 z"
       style="fill:#000000;fill-opacity:1;fill-rule:nonzero;stroke:none;stroke-width:0.35277775"
       id="path7238"
       inkscape:connector-curvature="0" />
    <g
       id="g7240"
       transform="matrix(0.35277777,0,0,-0.35277777,113.20659,190.74865)">
      <path
         d="M 0,0 C 0,0.379 -0.059,0.621 -0.195,0.766 -0.336,0.91 -0.547,0.961 -0.848,0.961 -1.082,0.961 -1.285,0.914 -1.43,0.77 -1.574,0.625 -1.668,0.387 -1.695,0 Z m -0.648,-2.41 c -0.645,0 -1.118,0.125 -1.426,0.437 -0.313,0.313 -0.461,0.813 -0.461,1.563 0,0.769 0.18,1.273 0.484,1.586 0.305,0.308 0.731,0.426 1.227,0.426 0.551,0 0.965,-0.106 1.234,-0.383 C 0.68,0.941 0.816,0.5 0.816,-0.168 v -0.367 h -2.527 c 0.004,-0.496 0.102,-0.785 0.281,-0.957 0.18,-0.172 0.446,-0.219 0.789,-0.219 0.188,0 0.411,0.012 0.618,0.031 0.203,0.02 0.402,0.051 0.543,0.086 L 0.641,-2.258 C 0.512,-2.293 0.297,-2.332 0.062,-2.359 -0.172,-2.391 -0.43,-2.41 -0.648,-2.41"
         style="fill:#000000;fill-opacity:1;fill-rule:nonzero;stroke:none"
         id="path7242"
         inkscape:connector-curvature="0" />
    </g>
    <g
       id="g8096"
       transform="matrix(0.35277777,0,0,-0.35277777,98.25347,141.73836)">
      <path
         d="M 0,0 H 0.624 V -3.823 H 2.903 V -4.374 H 0 Z"
         style="fill:#000000;fill-opacity:1;fill-rule:nonzero;stroke:none"
         id="path8098"
         inkscape:connector-curvature="0" />
    </g>
    <g
       id="g8100"
       transform="matrix(0.35277777,0,0,-0.35277777,100.08678,143.10985)">
      <path
         d="m 0,0 c 0.39,0 0.704,0.076 0.917,0.305 0.214,0.228 0.332,0.612 0.332,1.242 v 0.307 c 0,0.625 -0.121,1.011 -0.337,1.243 -0.217,0.231 -0.534,0.304 -0.924,0.304 -0.386,0 -0.7,-0.07 -0.913,-0.298 C -1.139,2.874 -1.259,2.49 -1.259,1.866 V 1.559 c 0,-0.63 0.12,-1.017 0.339,-1.248 C -0.7,0.076 -0.387,0 0,0 m -0.012,-0.554 c -0.363,0 -0.696,0.041 -0.978,0.167 -0.284,0.126 -0.515,0.337 -0.677,0.668 -0.161,0.331 -0.251,0.791 -0.251,1.415 0,0.624 0.09,1.087 0.254,1.421 0.164,0.334 0.398,0.545 0.683,0.674 0.284,0.126 0.618,0.17 0.981,0.17 0.363,0 0.698,-0.041 0.982,-0.167 C 1.263,3.668 1.495,3.457 1.658,3.126 1.82,2.795 1.911,2.335 1.911,1.711 1.911,1.087 1.82,0.627 1.655,0.293 1.492,-0.041 1.257,-0.255 0.973,-0.381 0.689,-0.51 0.352,-0.554 -0.012,-0.554"
         style="fill:#000000;fill-opacity:1;fill-rule:nonzero;stroke:none"
         id="path8102"
         inkscape:connector-curvature="0" />
    </g>
    <g
       id="g8104"
       transform="matrix(0.35277777,0,0,-0.35277777,101.6135,143.30212)">
      <path
         d="m 0,0 c -0.352,0 -0.677,0.029 -0.946,0.144 -0.273,0.114 -0.498,0.31 -0.654,0.641 -0.155,0.331 -0.243,0.8 -0.243,1.456 0,0.656 0.091,1.125 0.249,1.462 0.158,0.337 0.387,0.536 0.668,0.653 0.278,0.118 0.612,0.15 0.978,0.15 0.317,0 0.595,-0.021 0.818,-0.053 C 1.089,4.421 1.251,4.386 1.342,4.354 L 1.236,3.809 C 1.11,3.832 0.931,3.864 0.723,3.891 0.513,3.914 0.275,3.935 0.041,3.935 -0.393,3.935 -0.698,3.858 -0.894,3.63 -1.093,3.401 -1.184,3.018 -1.184,2.411 V 2.104 c 0,-0.595 0.091,-0.982 0.29,-1.225 0.2,-0.243 0.504,-0.334 0.929,-0.334 0.41,0 0.659,0.041 0.815,0.079 V 2.177 H 1.444 V 0.185 C 1.339,0.149 1.151,0.105 0.905,0.067 0.656,0.029 0.348,0 0,0"
         style="fill:#000000;fill-opacity:1;fill-rule:nonzero;stroke:none"
         id="path8106"
         inkscape:connector-curvature="0" />
    </g>
    <path
       d="m 102.41759,141.73829 h 0.22225 v 1.54305 h -0.22225 z"
       style="fill:#000000;fill-opacity:1;fill-rule:nonzero;stroke:none;stroke-width:0.35277775"
       id="path8108"
       inkscape:connector-curvature="0" />
    <g
       id="g8110"
       transform="matrix(0.35277777,0,0,-0.35277777,103.56274,143.30212)">
      <path
         d="m 0,0 c -0.352,0 -0.677,0.029 -0.946,0.144 -0.273,0.114 -0.499,0.31 -0.654,0.641 -0.155,0.331 -0.243,0.8 -0.243,1.456 0,0.656 0.091,1.125 0.246,1.462 0.156,0.337 0.384,0.536 0.66,0.653 0.275,0.118 0.597,0.15 0.949,0.15 0.316,0 0.574,-0.024 0.776,-0.056 C 0.987,4.418 1.134,4.38 1.227,4.354 L 1.116,3.814 C 0.99,3.838 0.829,3.867 0.642,3.894 0.451,3.917 0.234,3.935 0,3.935 -0.411,3.935 -0.703,3.858 -0.896,3.63 -1.09,3.401 -1.184,3.018 -1.184,2.411 V 2.104 c 0,-0.595 0.094,-0.979 0.293,-1.219 0.196,-0.24 0.492,-0.334 0.903,-0.334 0.255,0 0.501,0.023 0.7,0.055 0.196,0.033 0.348,0.062 0.41,0.082 L 1.236,0.149 C 0.981,0.07 0.595,0 0,0"
         style="fill:#000000;fill-opacity:1;fill-rule:nonzero;stroke:none"
         id="path8112"
         inkscape:connector-curvature="0" />
    </g>
    <g
       id="g8114"
       transform="matrix(0.35277777,0,0,-0.35277777,99.664263,145.93208)">
      <path
         d="m 0,0 c 0.389,0 0.703,0.076 0.917,0.305 0.214,0.228 0.331,0.612 0.331,1.242 v 0.307 c 0,0.625 -0.121,1.011 -0.337,1.243 -0.217,0.231 -0.534,0.304 -0.923,0.304 -0.386,0 -0.7,-0.07 -0.914,-0.298 C -1.14,2.874 -1.26,2.49 -1.26,1.866 V 1.559 c 0,-0.63 0.12,-1.017 0.34,-1.248 C -0.7,0.076 -0.387,0 0,0 m -0.012,-0.554 c -0.363,0 -0.697,0.041 -0.978,0.167 -0.284,0.126 -0.516,0.337 -0.677,0.668 -0.161,0.331 -0.252,0.791 -0.252,1.415 0,0.624 0.091,1.087 0.254,1.421 0.165,0.334 0.399,0.545 0.684,0.674 0.283,0.126 0.618,0.17 0.981,0.17 0.363,0 0.697,-0.041 0.981,-0.167 C 1.263,3.668 1.494,3.457 1.658,3.126 1.819,2.795 1.91,2.335 1.91,1.711 1.91,1.087 1.819,0.627 1.655,0.293 1.491,-0.041 1.256,-0.255 0.973,-0.381 0.688,-0.51 0.352,-0.554 -0.012,-0.554"
         style="fill:#000000;fill-opacity:1;fill-rule:nonzero;stroke:none"
         id="path8116"
         inkscape:connector-curvature="0" />
    </g>
    <g
       id="g8118"
       transform="matrix(0.35277777,0,0,-0.35277777,101.19871,146.12434)">
      <path
         d="m 0,0 c -0.574,0 -1.011,0.073 -1.304,0.311 -0.293,0.237 -0.443,0.638 -0.443,1.294 v 2.828 h 0.631 V 1.661 c 0,-0.422 0.073,-0.694 0.251,-0.858 0.176,-0.164 0.458,-0.223 0.876,-0.223 0.413,0 0.695,0.05 0.87,0.208 0.176,0.158 0.246,0.425 0.246,0.861 V 4.433 H 1.734 V 1.617 C 1.734,0.97 1.59,0.565 1.301,0.322 1.007,0.079 0.574,0 0,0"
         style="fill:#000000;fill-opacity:1;fill-rule:nonzero;stroke:none"
         id="path8120"
         inkscape:connector-curvature="0" />
    </g>
    <g
       id="g8122"
       transform="matrix(0.35277777,0,0,-0.35277777,102.52921,144.76008)">
      <path
         d="M 0,0 H -1.448 V 0.565 H 2.056 V 0 H 0.624 V -3.809 H 0 Z"
         style="fill:#000000;fill-opacity:1;fill-rule:nonzero;stroke:none"
         id="path8124"
         inkscape:connector-curvature="0" />
    </g>
    <g
       id="g8126"
       transform="matrix(0.35277777,0,0,-0.35277777,112.41541,142.55194)">
      <path
         d="m 0,0 c 0,-0.705 -0.571,-1.275 -1.275,-1.275 -0.704,0 -1.276,0.57 -1.276,1.275 0,0.705 0.572,1.275 1.276,1.275 C -0.571,1.275 0,0.705 0,0"
         style="fill:#000000;fill-opacity:1;fill-rule:nonzero;stroke:none"
         id="path8128"
         inkscape:connector-curvature="0" />
    </g>
    <g
       id="g8130"
       transform="matrix(0.35277777,0,0,-0.35277777,112.79885,145.3707)">
      <path
         d="m 0,0 c 0,-1.305 -1.058,-2.363 -2.362,-2.363 -1.305,0 -2.363,1.058 -2.363,2.363 0,1.305 1.058,2.363 2.363,2.363 C -1.058,2.363 0,1.305 0,0 Z"
         style="fill:none;stroke:#000000;stroke-width:0.60000002;stroke-linecap:butt;stroke-linejoin:miter;stroke-miterlimit:10;stroke-dasharray:none;stroke-opacity:1"
         id="path8132"
         inkscape:connector-curvature="0" />
    </g>
    <g
       id="g8134"
       transform="matrix(0.35277777,0,0,-0.35277777,112.79885,142.55194)">
      <path
         d="m 0,0 c 0,-1.305 -1.058,-2.362 -2.362,-2.362 -1.305,0 -2.363,1.057 -2.363,2.362 0,1.305 1.058,2.362 2.363,2.362 C -1.058,2.362 0,1.305 0,0 Z"
         style="fill:none;stroke:#000000;stroke-width:0.60000002;stroke-linecap:butt;stroke-linejoin:miter;stroke-miterlimit:10;stroke-dasharray:none;stroke-opacity:1"
         id="path8136"
         inkscape:connector-curvature="0" />
    </g>
    <g
       id="g8138"
       transform="matrix(0.35277777,0,0,-0.35277777,102.42514,152.48433)">
      <path
         d="M 0,0 H 32.398"
         style="fill:none;stroke:#000000;stroke-width:1;stroke-linecap:round;stroke-linejoin:round;stroke-miterlimit:4;stroke-dasharray:none;stroke-opacity:1"
         id="path8140"
         inkscape:connector-curvature="0" />
    </g>
    <g
       id="g8208"
       transform="matrix(0.35277777,0,0,-0.35277777,114.48834,143.04889)">
      <path
         d="M 0,0 C 0.378,0 0.656,0.073 0.838,0.284 1.02,0.492 1.104,0.829 1.104,1.356 v 0.326 c 0,0.527 -0.09,0.864 -0.275,1.069 C 0.645,2.956 0.366,3.026 -0.012,3.026 -0.39,3.026 -0.665,2.956 -0.847,2.757 -1.028,2.555 -1.116,2.221 -1.116,1.693 V 1.368 c 0,-0.527 0.088,-0.87 0.275,-1.078 C -0.656,0.079 -0.378,0 0,0 m -0.012,-0.75 c -0.398,0 -0.759,0.044 -1.06,0.167 -0.302,0.123 -0.542,0.331 -0.706,0.668 -0.167,0.337 -0.261,0.8 -0.261,1.436 0,0.632 0.094,1.095 0.261,1.432 0.167,0.337 0.413,0.548 0.717,0.671 C -0.759,3.747 -0.401,3.788 0,3.788 0.398,3.788 0.759,3.75 1.061,3.627 1.362,3.504 1.603,3.299 1.77,2.965 1.934,2.631 2.027,2.165 2.027,1.532 2.027,0.899 1.937,0.434 1.767,0.097 1.597,-0.243 1.354,-0.454 1.052,-0.58 0.747,-0.709 0.387,-0.75 -0.012,-0.75"
         style="fill:#000000;fill-opacity:1;fill-rule:nonzero;stroke:none"
         id="path8210"
         inkscape:connector-curvature="0" />
    </g>
    <g
       id="g8212"
       transform="matrix(0.35277777,0,0,-0.35277777,116.06582,142.54245)">
      <path
         d="m 0,0 c 0.237,0 0.422,0.029 0.548,0.141 0.126,0.111 0.19,0.301 0.19,0.638 0,0.34 -0.073,0.533 -0.202,0.642 C 0.404,1.529 0.214,1.553 -0.012,1.553 H -0.876 V 0 Z M 1.907,-2.112 H 0.899 l -0.94,1.397 H -0.876 V -2.112 H -1.752 V 2.279 H 0 C 0.542,2.279 0.949,2.215 1.219,1.998 1.488,1.781 1.62,1.403 1.62,0.791 1.62,0.36 1.553,0.067 1.424,-0.138 1.292,-0.343 1.096,-0.46 0.841,-0.521 Z"
         style="fill:#000000;fill-opacity:1;fill-rule:nonzero;stroke:none"
         id="path8214"
         inkscape:connector-curvature="0" />
    </g>
    <g
       id="g8216"
       transform="matrix(0.35277777,0,0,-0.35277777,114.29816,145.29542)">
      <path
         d="m 0,0 -1.368,2.065 h 0.732 L 0.425,0.451 1.462,2.065 H 2.13 L 0.768,-0.053 2.262,-2.309 H 1.535 l -1.192,1.805 -1.172,-1.805 h -0.665 z"
         style="fill:#000000;fill-opacity:1;fill-rule:nonzero;stroke:none"
         id="path8218"
         inkscape:connector-curvature="0" />
    </g>
    <g
       id="g8220"
       transform="matrix(0.35277777,0,0,-0.35277777,115.87292,145.93829)">
      <path
         d="m 0,0 c 0.39,0 0.703,0.076 0.917,0.305 0.214,0.228 0.331,0.612 0.331,1.242 v 0.307 c 0,0.625 -0.12,1.011 -0.337,1.243 -0.217,0.231 -0.533,0.304 -0.923,0.304 -0.386,0 -0.7,-0.07 -0.914,-0.298 C -1.14,2.874 -1.26,2.49 -1.26,1.866 V 1.559 c 0,-0.63 0.12,-1.017 0.34,-1.248 C -0.7,0.076 -0.387,0 0,0 m -0.012,-0.554 c -0.363,0 -0.697,0.041 -0.978,0.167 -0.284,0.126 -0.516,0.337 -0.677,0.668 -0.161,0.331 -0.252,0.791 -0.252,1.415 0,0.624 0.091,1.087 0.255,1.421 0.164,0.334 0.398,0.545 0.683,0.674 0.284,0.126 0.618,0.17 0.981,0.17 0.363,0 0.697,-0.041 0.981,-0.167 C 1.263,3.668 1.494,3.457 1.658,3.126 1.819,2.795 1.91,2.335 1.91,1.711 1.91,1.087 1.819,0.627 1.655,0.293 1.491,-0.041 1.257,-0.255 0.973,-0.381 0.688,-0.51 0.352,-0.554 -0.012,-0.554"
         style="fill:#000000;fill-opacity:1;fill-rule:nonzero;stroke:none"
         id="path8222"
         inkscape:connector-curvature="0" />
    </g>
    <g
       id="g8224"
       transform="matrix(0.35277777,0,0,-0.35277777,117.37635,145.37088)">
      <path
         d="m 0,0 c 0.281,0 0.51,0.023 0.668,0.144 0.158,0.117 0.246,0.334 0.246,0.72 0,0.39 -0.094,0.613 -0.258,0.733 C 0.492,1.717 0.261,1.74 -0.012,1.74 H -0.99 V 0 Z M 1.764,-2.095 H 1.04 L 0.018,-0.536 H -0.99 V -2.095 H -1.614 V 2.279 H 0 C 0.519,2.279 0.902,2.197 1.16,1.983 1.415,1.77 1.538,1.418 1.538,0.876 1.538,0.463 1.462,0.17 1.315,-0.035 1.169,-0.24 0.952,-0.36 0.674,-0.422 Z"
         style="fill:#000000;fill-opacity:1;fill-rule:nonzero;stroke:none"
         id="path8226"
         inkscape:connector-curvature="0" />
    </g>
  </g>
  <g
     inkscape:groupmode="layer"
     id="layer3"
     inkscape:label="widgets"
     style="display:none">
    <rect
       style="opacity:1;vector-effect:none;fill:#0000ff;fill-opacity:0.47179488;fill-rule:evenodd;stroke:none;stroke-width:0.29113087;stroke-linecap:butt;stroke-linejoin:miter;stroke-miterlimit:10;stroke-dasharray:none;stroke-dashoffset:0;stroke-opacity:1;paint-order:normal"
       id="rect95885"
       width="10.211153"
       height="10.211506"
       x="3.1346936"
       y="20.402834" />
    <rect
       y="34.402821"
       x="3.1346931"
       height="10.211506"
       width="10.211153"
       id="rect96430"
       style="opacity:1;vector-effect:none;fill:#00ff00;fill-opacity:0.47179488;fill-rule:evenodd;stroke:none;stroke-width:0.29113087;stroke-linecap:butt;stroke-linejoin:miter;stroke-miterlimit:10;stroke-dasharray:none;stroke-dashoffset:0;stroke-opacity:1;paint-order:normal" />
    <rect
       style="opacity:1;vector-effect:none;fill:#00ff00;fill-opacity:0.47179488;fill-rule:evenodd;stroke:none;stroke-width:0.29113087;stroke-linecap:butt;stroke-linejoin:miter;stroke-miterlimit:10;stroke-dasharray:none;stroke-dashoffset:0;stroke-opacity:1;paint-order:normal"
       id="rect96432"
       width="10.211153"
       height="10.211506"
       x="3.1346931"
       y="48.402832" />
    <rect
       y="90.402824"
       x="3.1346931"
       height="10.211506"
       width="10.211153"
       id="rect96434"
       style="opacity:1;vector-effect:none;fill:#00ff00;fill-opacity:0.47179488;fill-rule:evenodd;stroke:none;stroke-width:0.29113087;stroke-linecap:butt;stroke-linejoin:miter;stroke-miterlimit:10;stroke-dasharray:none;stroke-dashoffset:0;stroke-opacity:1;paint-order:normal" />
    <rect
       style="opacity:1;vector-effect:none;fill:#00ff00;fill-opacity:0.47179488;fill-rule:evenodd;stroke:none;stroke-width:0.29113087;stroke-linecap:butt;stroke-linejoin:miter;stroke-miterlimit:10;stroke-dasharray:none;stroke-dashoffset:0;stroke-opacity:1;paint-order:normal"
       id="rect96436"
       width="10.211153"
       height="10.211506"
       x="3.1346936"
       y="104.40283" />
    <rect
       y="76.402824"
       x="3.1346931"
       height="10.211506"
       width="10.211153"
       id="rect96440"
       style="opacity:1;vector-effect:none;fill:#0000ff;fill-opacity:0.47179488;fill-rule:evenodd;stroke:none;stroke-width:0.29113087;stroke-linecap:butt;stroke-linejoin:miter;stroke-miterlimit:10;stroke-dasharray:none;stroke-dashoffset:0;stroke-opacity:1;paint-order:normal" />
    <rect
       y="104.50807"
       x="17.240305"
       height="9.9998379"
       width="9.9998388"
       id="rect96442"
       style="opacity:1;vector-effect:none;fill:#ff0000;fill-opacity:0.47179488;fill-rule:evenodd;stroke:none;stroke-width:0.28510115;stroke-linecap:butt;stroke-linejoin:miter;stroke-miterlimit:10;stroke-dasharray:none;stroke-dashoffset:0;stroke-opacity:1;paint-order:normal" />
    <rect
       style="opacity:1;vector-effect:none;fill:#ff0000;fill-opacity:0.47179488;fill-rule:evenodd;stroke:none;stroke-width:0.28510115;stroke-linecap:butt;stroke-linejoin:miter;stroke-miterlimit:10;stroke-dasharray:none;stroke-dashoffset:0;stroke-opacity:1;paint-order:normal"
       id="rect96444"
       width="9.9998388"
       height="9.9998379"
       x="17.240305"
       y="90.50808" />
    <rect
       y="76.508064"
       x="17.240305"
       height="9.9998379"
       width="9.9998388"
       id="rect96446"
       style="opacity:1;vector-effect:none;fill:#ff0000;fill-opacity:0.47179488;fill-rule:evenodd;stroke:none;stroke-width:0.28510115;stroke-linecap:butt;stroke-linejoin:miter;stroke-miterlimit:10;stroke-dasharray:none;stroke-dashoffset:0;stroke-opacity:1;paint-order:normal" />
    <rect
       style="opacity:1;vector-effect:none;fill:#ff0000;fill-opacity:0.47179488;fill-rule:evenodd;stroke:none;stroke-width:0.28510115;stroke-linecap:butt;stroke-linejoin:miter;stroke-miterlimit:10;stroke-dasharray:none;stroke-dashoffset:0;stroke-opacity:1;paint-order:normal"
       id="rect96448"
       width="9.9998388"
       height="9.9998379"
       x="17.240305"
       y="48.508091" />
    <rect
       y="34.508083"
       x="17.240305"
       height="9.9998379"
       width="9.9998388"
       id="rect96450"
       style="opacity:1;vector-effect:none;fill:#ff0000;fill-opacity:0.47179488;fill-rule:evenodd;stroke:none;stroke-width:0.28510115;stroke-linecap:butt;stroke-linejoin:miter;stroke-miterlimit:10;stroke-dasharray:none;stroke-dashoffset:0;stroke-opacity:1;paint-order:normal" />
    <rect
       style="opacity:1;vector-effect:none;fill:#ff0000;fill-opacity:0.47179488;fill-rule:evenodd;stroke:none;stroke-width:0.28510115;stroke-linecap:butt;stroke-linejoin:miter;stroke-miterlimit:10;stroke-dasharray:none;stroke-dashoffset:0;stroke-opacity:1;paint-order:normal"
       id="rect96452"
       width="9.9998388"
       height="9.9998379"
       x="17.240305"
       y="20.508072" />
    <rect
       y="21.00831"
       x="17.740685"
       height="8.999361"
       width="9.0000677"
       id="rect96454"
       style="opacity:1;vector-effect:none;fill:#ff00ff;fill-opacity:0.47179488;fill-rule:evenodd;stroke:none;stroke-width:0.25658703;stroke-linecap:butt;stroke-linejoin:miter;stroke-miterlimit:10;stroke-dasharray:none;stroke-dashoffset:0;stroke-opacity:1;paint-order:normal" />
    <rect
       style="opacity:1;vector-effect:none;fill:#ff00ff;fill-opacity:0.47179488;fill-rule:evenodd;stroke:none;stroke-width:0.25658703;stroke-linecap:butt;stroke-linejoin:miter;stroke-miterlimit:10;stroke-dasharray:none;stroke-dashoffset:0;stroke-opacity:1;paint-order:normal"
       id="rect96456"
       width="9.0000677"
       height="8.999361"
       x="17.740685"
       y="35.008286" />
    <rect
       y="49.008293"
       x="17.740685"
       height="8.999361"
       width="9.0000677"
       id="rect96458"
       style="opacity:1;vector-effect:none;fill:#ff00ff;fill-opacity:0.47179488;fill-rule:evenodd;stroke:none;stroke-width:0.25658703;stroke-linecap:butt;stroke-linejoin:miter;stroke-miterlimit:10;stroke-dasharray:none;stroke-dashoffset:0;stroke-opacity:1;paint-order:normal" />
    <rect
       style="opacity:1;vector-effect:none;fill:#ff00ff;fill-opacity:0.47179488;fill-rule:evenodd;stroke:none;stroke-width:0.25658703;stroke-linecap:butt;stroke-linejoin:miter;stroke-miterlimit:10;stroke-dasharray:none;stroke-dashoffset:0;stroke-opacity:1;paint-order:normal"
       id="rect96460"
       width="9.0000677"
       height="8.999361"
       x="17.740366"
       y="77.008301" />
    <rect
       y="91.008286"
       x="17.740685"
       height="8.999361"
       width="9.0000677"
       id="rect96462"
       style="opacity:1;vector-effect:none;fill:#ff00ff;fill-opacity:0.47179488;fill-rule:evenodd;stroke:none;stroke-width:0.25658703;stroke-linecap:butt;stroke-linejoin:miter;stroke-miterlimit:10;stroke-dasharray:none;stroke-dashoffset:0;stroke-opacity:1;paint-order:normal" />
    <rect
       style="opacity:1;vector-effect:none;fill:#ff00ff;fill-opacity:0.47179488;fill-rule:evenodd;stroke:none;stroke-width:0.25658703;stroke-linecap:butt;stroke-linejoin:miter;stroke-miterlimit:10;stroke-dasharray:none;stroke-dashoffset:0;stroke-opacity:1;paint-order:normal"
       id="rect96464"
       width="9.0000677"
       height="8.999361"
       x="17.740543"
       y="105.00831" />
  </g>
</svg>
