<svg id="svg48736" xmlns="http://www.w3.org/2000/svg" width="97.39057mm" height="128.31326mm" viewBox="0 0 276.06776 363.72262">
  <title>AudioInterface</title>
  <path id="path40442" d="M0,0H276.06776V363.72262H0Z" transform="translate(0 0.00001)" style="fill: #282828"/>
  <rect x="205.41234" y="247.53903" width="60.32809" height="40.35074" rx="2" style="fill: #444241"/>
  <rect x="139.64873" y="247.53903" width="60.32809" height="40.35074" rx="2" style="fill: #444241"/>
  <rect x="73.90254" y="247.53903" width="60.32809" height="40.35074" rx="2" style="fill: #444241"/>
  <rect x="8.15825" y="247.53903" width="60.32809" height="40.35074" rx="2" style="fill: #444241"/>
  <rect x="205.41234" y="292.80507" width="60.32809" height="40.35074" rx="2" style="fill: #444241"/>
  <rect x="139.64873" y="292.80507" width="60.32809" height="40.35074" rx="2" style="fill: #444241"/>
  <rect x="73.90254" y="292.80507" width="60.32809" height="40.35074" rx="2" style="fill: #444241"/>
  <rect x="8.15825" y="292.80507" width="60.32809" height="40.35074" rx="2" style="fill: #444241"/>
  <path id="path44500" d="M87.6446,210.21091h32.88282" transform="translate(0 0.00001)" style="fill: none;stroke: #fff;stroke-miterlimit: 10;stroke-width: 0.352777749300003px"/>
  <path id="path44502" d="M21.88286,210.21091H54.76174" transform="translate(0 0.00001)" style="fill: none;stroke: #fff;stroke-miterlimit: 10;stroke-width: 0.352777749300003px"/>
  <path id="path44504" d="M87.6446,168.789h32.88282" transform="translate(0 0.00001)" style="fill: none;stroke: #fff;stroke-miterlimit: 10;stroke-width: 0.352777749300003px"/>
  <path id="path44506" d="M21.88286,168.789H54.76174" transform="translate(0 0.00001)" style="fill: none;stroke: #fff;stroke-miterlimit: 10;stroke-width: 0.352777749300003px"/>
  <path id="path44500-2" d="M218.31126,210.21091h32.88279" transform="translate(0 0.00001)" style="fill: none;stroke: #fff;stroke-miterlimit: 10;stroke-width: 0.352777749300003px"/>
  <path id="path44502-2" d="M152.54953,210.21091h32.87889" transform="translate(0 0.00001)" style="fill: none;stroke: #fff;stroke-miterlimit: 10;stroke-width: 0.352777749300003px"/>
  <path id="path44504-2" d="M218.31126,168.789h32.88279" transform="translate(0 0.00001)" style="fill: none;stroke: #fff;stroke-miterlimit: 10;stroke-width: 0.352777749300003px"/>
  <path id="path44506-2" d="M152.54953,168.789h32.87889" transform="translate(0 0.00001)" style="fill: none;stroke: #fff;stroke-miterlimit: 10;stroke-width: 0.352777749300003px"/>
  <path id="path48212" d="M153.04069,256.56133a1.55267,1.55267,0,0,0,1.70314-1.57809v-.017a1.40116,1.40116,0,0,0-1.5937-1.45309,2.21572,2.21572,0,0,0-.60934.07823l.06263-.78125h1.53125a.43751.43751,0,0,0,0-.875H152.1503a.4442.4442,0,0,0-.43747.42189l-.09386,1.54686a.43143.43143,0,0,0,.18738.40623.79724.79724,0,0,0,.45312.20325,3.65075,3.65075,0,0,1,.68746-.125c.48434,0,.81247.23443.81247.625a.65143.65143,0,0,1-.73435.64062,1.41094,1.41094,0,0,1-.875-.29687.39448.39448,0,0,0-.26558-.09355.47374.47374,0,0,0-.46887.47856l.00009.0058a.49673.49673,0,0,0,.18738.39062,2.45244,2.45244,0,0,0,1.43747.42185Z" transform="translate(0 0.00001)" style="fill: #fff"/>
  <path id="path48208" d="M186.00772,256.56133a1.605,1.605,0,0,0,1.72929-1.47041q.00435-.05375.00509-.10768v-.017a1.42249,1.42249,0,0,0-1.59371-1.43752,1.68382,1.68382,0,0,0-.95312.28121c.0782-.59375.35934-1.04688.9219-1.04688a1.17123,1.17123,0,0,1,.67189.18737.65681.65681,0,0,0,.25.06236.46718.46718,0,0,0,.46877-.45316.49442.49442,0,0,0-.26557-.4375,2.1715,2.1715,0,0,0-1.09379-.26561c-1.35936,0-1.99994,1.07813-1.99994,2.48438v.01417a2.2671,2.2671,0,0,0,.54689,1.71878,1.73324,1.73324,0,0,0,1.31248.48435Zm-.03114-.85937a.70474.70474,0,0,1-.79129-.606q-.00435-.03281-.00562-.06591v-.01417c0-.39066.28124-.65625.78124-.65625.48434,0,.78125.28119.78125.65625v.01417a.6768.6768,0,0,1-.76567.67188Z" transform="translate(0 0.00001)" style="fill: #fff"/>
  <path id="path48204" d="M217.62141,256.077a.4669.4669,0,0,0,.49289.43936l.02269-.00186a.53655.53655,0,0,0,.48435-.32813l1.82815-3.31251a1.208,1.208,0,0,0,.14057-.48436.41143.41143,0,0,0-.45313-.45316H217.6682a.42976.42976,0,0,0-.0158.85938q.0079.00014.0158,0h1.73437l-1.68748,2.96875a.80019.80019,0,0,0-.09386.31253Z" transform="translate(0 0.00001)" style="fill: #fff"/>
  <path id="path48200" d="M251.71591,256.54571c1.0156,0,1.75-.48438,1.75-1.34374a1.11243,1.11243,0,0,0-.73436-1.07812,1.06762,1.06762,0,0,0,.57813-1c0-.70314-.625-1.25-1.59371-1.25s-1.5937.54687-1.5937,1.25a1.06767,1.06767,0,0,0,.57812,1,1.09862,1.09862,0,0,0-.73434,1.09375v.017c0,.79689.75,1.31251,1.75,1.31251Zm0-2.75a.59656.59656,0,0,1-.654-.533l-.00227-.02947v-.017a.58474.58474,0,0,1,.63159-.53382l.02464.00259a.59534.59534,0,0,1,.65465.5294l.00159.01749a.58735.58735,0,0,1-.60773.56622q-.02433-.00087-.04851-.00374Zm0,1.92189c-.5,0-.78123-.25-.78123-.56252v-.017c0-.34373.32812-.54686.78123-.54686s.78124.20325.78124.54686v.017C252.49715,255.48327,252.21593,255.7176,251.71591,255.7176Z" transform="translate(0 0.00001)" style="fill: #fff"/>
  <path id="path48148" d="M21.667,255.83614a.49224.49224,0,0,0,.98436,0v-3.67187a.48687.48687,0,0,0-.48435-.48438h-.01419a1.94671,1.94671,0,0,0-.46878.0781l-.64058.18751a.46447.46447,0,0,0-.34378.4375.43372.43372,0,0,0,.43747.42188.78143.78143,0,0,0,.18737-.03121l.34369-.07809Z" transform="translate(0 0.00001)" style="fill: #fff"/>
  <path id="path48144" d="M53.019,255.82052a.46978.46978,0,0,0,.53124.46875h2.46872a.42976.42976,0,0,0,.01579-.85938q-.00791-.00014-.01579,0H54.4408l.73436-.57812c.81247-.625,1.20313-1,1.20313-1.76563v-.01559a1.39661,1.39661,0,0,0-1.56248-1.39063,1.78508,1.78508,0,0,0-1.48437.65624.49573.49573,0,0,0-.125.3125.4571.4571,0,0,0,.4453.46861l.00782.00014a.44875.44875,0,0,0,.34378-.15625.97058.97058,0,0,1,.75-.39063.56158.56158,0,0,1,.60935.59377c0,.375-.21887.625-.79691,1.09373l-1.28123,1.0625a.60238.60238,0,0,0-.26558.5Z" transform="translate(0 0.00001)" style="fill: #fff"/>
  <path id="path48140" d="M87.64342,256.36739A1.4816,1.4816,0,0,0,89.284,254.883v-.0156a1.26528,1.26528,0,0,0-1.21878-1.28125l.89058-.84375a.70457.70457,0,0,0,.29689-.5625.45389.45389,0,0,0-.46769-.43966l-.03231.00215H86.53394a.43362.43362,0,0,0-.43746.42189.44717.44717,0,0,0,.43746.43748h1.39059l-.875.89063a.55971.55971,0,0,0-.21886.40623.42005.42005,0,0,0,.41822.42189h.1599c.56247,0,.89059.21875.89059.57813v.01559a.573.573,0,0,1-.64067.5625,1.32176,1.32176,0,0,1-.89059-.34376.477.477,0,0,0-.31246-.125.48682.48682,0,0,0-.48435.48437.49523.49523,0,0,0,.17179.35938,2.25744,2.25744,0,0,0,1.5.51562Z" transform="translate(0 0.00001)" style="fill: #fff"/>
  <path id="path48136" d="M120.884,255.85177a.46029.46029,0,0,0,.45167.46875q.00855.00014.01711,0a.47366.47366,0,0,0,.48425-.4628l.0001-.006v-.54689h.23443a.394.394,0,0,0,.40623-.38138q.00039-.01243,0-.02486a.4034.4034,0,0,0-.40047-.40625h-.24019v-2.34375a.48688.48688,0,0,0-.48435-.48437.73979.73979,0,0,0-.625.34376l-1.96872,2.29688a.75822.75822,0,0,0-.23443.54687.461.461,0,0,0,.46822.45366l.01613-.00053h1.875Zm-1.21879-1.35938,1.21879-1.42187v1.42187Z" transform="translate(0 0.00001)" style="fill: #fff"/>
  <path id="path48056" d="M153.02513,151.72358a1.537,1.537,0,0,0,1.66605-1.39607q.00663-.07521.00586-.15081a1.41361,1.41361,0,0,0-1.59371-1.4375,1.97293,1.97293,0,0,0-.71878.125l.0782-1.0625h1.70314a.35164.35164,0,1,0,.01548-.70311q-.00774-.00015-.01548,0h-2.06247a.363.363,0,0,0-.35934.35938l-.09386,1.64062a.33992.33992,0,0,0,.15624.34375.59119.59119,0,0,0,.375.15625,3.00134,3.00134,0,0,1,.78123-.15625c.54689,0,.93747.28125.93747.75v.0156a.79559.79559,0,0,1-.89067.78125,1.5231,1.5231,0,0,1-.98436-.375.37975.37975,0,0,0-.45943.60478l.00621.00462a2.26437,2.26437,0,0,0,1.45314.5Z" transform="translate(0 0.00001)" style="fill: #fff"/>
  <path id="path48040" d="M53.05177,151.008a.38282.38282,0,0,0,.38855.377l.03334-.002h2.57815a.35165.35165,0,0,0,.01569-.70313q-.00785-.00018-.01569,0H54.2081l.93747-.78125c.81256-.65623,1.18748-1.04687,1.18748-1.76562a1.36184,1.36184,0,0,0-1.5-1.35938,1.75749,1.75749,0,0,0-1.51559.73438.42132.42132,0,0,0-.07794.23437.36693.36693,0,0,0,.35871.375h.00063a.39572.39572,0,0,0,.28124-.125,1.10635,1.10635,0,0,1,.89057-.51562.68466.68466,0,0,1,.73436.71875c0,.40623-.21886.70312-.8437,1.21875l-1.40625,1.1875a.517.517,0,0,0-.2032.40623Z" transform="translate(0 0.00001)" style="fill: #fff"/>
  <path id="path48036" d="M185.99016,151.72308a1.57653,1.57653,0,0,0,1.68377-1.46145q.003-.04266.00371-.08543v-.01559a1.57416,1.57416,0,0,0-2.67193-.96875c.03114-.82813.42189-1.45313,1.09379-1.45313a1.30938,1.30938,0,0,1,.78124.26561.43247.43247,0,0,0,.2032.04689.3669.3669,0,0,0,.375-.35863l0-.00074a.37107.37107,0,0,0-.20322-.34375,1.9556,1.9556,0,0,0-1.125-.32813c-1.29681,0-1.95306,1.07813-1.95306,2.46875v.0156a2.223,2.223,0,0,0,.54689,1.73437A1.67052,1.67052,0,0,0,185.99016,151.72308ZM185.976,151.02a.81811.81811,0,1,1,.90117-.89923q.00412.0354.00517.07111v.01559a.81552.81552,0,0,1-.90625.81252Z" transform="translate(0 0.00001)" style="fill: #fff"/>
  <path id="path47996" d="M87.65135,151.4611a1.45774,1.45774,0,0,0,1.58742-1.31533q.00571-.06091.00629-.12217v-.0156c0-.84375-.64067-1.1875-1.32814-1.28125l1.06247-1.10937a.589.589,0,0,0,.23445-.4375.36451.36451,0,0,0-.38237-.34574l-.02388.002H86.47942a.34375.34375,0,0,0,0,.6875h1.65626l-1.06246,1.14064a.45274.45274,0,0,0-.1718.32812.3468.3468,0,0,0,.34378.34375h.1718c.625,0,1.0469.25,1.0469.70313v.01559a.72359.72359,0,0,1-.75522.69055l-.04168-.00306a1.3914,1.3914,0,0,1-1.03124-.43749.3768.3768,0,0,0-.26558-.10939.408.408,0,0,0-.39067.39063.37952.37952,0,0,0,.14058.28126,2.107,2.107,0,0,0,1.53125.59375Z" transform="translate(0 0.00001)" style="fill: #fff"/>
  <path id="path47992" d="M217.72749,151.31683a.366.366,0,0,0,.37038.36157c.012-.00015.024-.00089.03586-.0022a.40989.40989,0,0,0,.39065-.26562l1.875-3.57813a.7319.7319,0,0,0,.10944-.375.32872.32872,0,0,0-.35935-.35937h-2.54684a.35165.35165,0,1,0-.01569.70312c.00524.00012.01046.00012.01569,0h1.9688l-1.7656,3.26563a.57457.57457,0,0,0-.07794.25Z" transform="translate(0 0.00001)" style="fill: #fff"/>
  <path id="path47964" d="M120.98049,151.03927a.37394.37394,0,0,0,.37251.37536q.00908,0,.01815-.00036a.361.361,0,0,0,.375-.34644q.00057-.01428,0-.02856v-.67188h.35936a.32812.32812,0,1,0,.00262-.65623h-.362v-2.5625a.3701.3701,0,0,0-.36515-.375h-.00985a.569.569,0,0,0-.5.25l-2.14061,2.54687a.63233.63233,0,0,0-.17179.42188.37393.37393,0,0,0,.3725.37536q.00907.00006.01816-.00036h2.03126Zm-1.48437-1.32811,1.48437-1.81252v1.81252Z" transform="translate(0 0.00001)" style="fill: #fff"/>
  <path id="path47900" d="M21.75,151.0236a.39677.39677,0,0,0,.39058.39062.39057.39057,0,0,0,.40592-.37459q.00032-.008.00031-.016v-3.85933a.39058.39058,0,0,0-.39022-.39095l-.016.00032a1.32639,1.32639,0,0,0-.39058.0781l-.68755.21875a.34966.34966,0,0,0-.28124.34375.35875.35875,0,0,0,.35935.32812.48214.48214,0,0,0,.14057-.01559l.46878-.14063Z" transform="translate(0 0.00001)" style="fill: #fff"/>
  <path id="path47574" d="M251.69307,151.70895c1,0,1.73437-.5,1.73437-1.3125v-.0156a1.16256,1.16256,0,0,0-.81254-1.09373,1.09557,1.09557,0,0,0,.65623-1.01563v-.01559c0-.70311-.6719-1.21875-1.57814-1.21875s-1.57814.53125-1.57814,1.21875v.01559a1.09553,1.09553,0,0,0,.65624,1.01563,1.167,1.167,0,0,0-.81247,1.10937v.0156c0,.78125.73434,1.29687,1.73437,1.29687Zm0-2.6875a.72752.72752,0,0,1-.809-.63558l-.00343-.0363V148.334a.83552.83552,0,0,1,1.62494,0v.01559a.72754.72754,0,0,1-.77625.67531Zm0,2.01562c-.59378,0-.95313-.3125-.95313-.67187v-.0156c0-.42187.42189-.68751.95313-.68751.5469,0,.95312.26564.95312.68751v.0156C252.64619,150.7402,252.28685,151.03707,251.69307,151.03707Z" transform="translate(0 0.00001)" style="fill: #fff"/>
  <path d="M20.42631,192.5294a.39069.39069,0,0,1-.18652-.34082.37585.37585,0,0,1,.37847-.3732l.00825.00015a.42985.42985,0,0,1,.22656.0664,1.4016,1.4016,0,0,0,.85352.28711c.687,0,1.1001-.60644,1.127-1.46679a1.37445,1.37445,0,0,1-1.09375.49316,1.47958,1.47958,0,0,1-1.65332-1.48047v-.01269a1.62348,1.62348,0,0,1,1.62849-1.61846q.05594.0002.11175.0042a1.70038,1.70038,0,0,1,1.30029.49316,2.365,2.365,0,0,1,.56006,1.78125v.0127c0,1.501-.74024,2.541-2.00049,2.541A2.14373,2.14373,0,0,1,20.42631,192.5294Zm2.38038-2.86133v-.0127a.88158.88158,0,0,0-.89787-.865q-.03773.00072-.07528.00464a.85762.85762,0,0,0-.92449.7851q-.00335.04093-.00275.08209v.01269a.85261.85261,0,0,0,.95361.834.86239.86239,0,0,0,.9428-.77369Q22.806,189.70175,22.80669,189.66807Z" transform="translate(0 0.00001)" style="fill: #fff"/>
  <g>
    <path d="M52.18169,188.94152l-.48.14648a.58331.58331,0,0,1-.147.02051.35483.35483,0,0,1-.08642-.70019l.70654-.22657a1.41654,1.41654,0,0,1,.40039-.07324h.01322a.39967.39967,0,0,1,.40673.39249q.00012.00687,0,.01376V192.462a.40674.40674,0,1,1-.81347.00424v-3.52475Z" transform="translate(0 0.00001)" style="fill: #fff"/>
    <path d="M54.01713,190.51574v-.01367a2.0629,2.0629,0,1,1,4.06788-.01367v.01367a2.06289,2.06289,0,1,1-4.06788.01367Zm3.22071,0v-.01367c0-.91992-.47315-1.67383-1.19336-1.67383s-1.18018.7334-1.18018,1.66016v.01367c0,.91992.4668,1.67383,1.19336,1.67383C56.78471,192.1759,57.23784,191.42883,57.23784,190.51574Z" transform="translate(0 0.00001)" style="fill: #fff"/>
  </g>
  <g>
    <path d="M86.20512,188.94152l-.47949.14648a.58688.58688,0,0,1-.14746.02051.35483.35483,0,0,1-.08594-.70019l.70606-.22657a1.41661,1.41661,0,0,1,.4004-.07324h.01367a.39927.39927,0,0,1,.40625.39215q.00012.007,0,.0141V192.462a.40368.40368,0,0,1-.40011.40722h-.00614a.40821.40821,0,0,1-.40723-.40722Z" transform="translate(0 0.00001)" style="fill: #fff"/>
    <path d="M88.8477,188.94152l-.47949.14648a.58688.58688,0,0,1-.14746.02051.35483.35483,0,0,1-.08594-.70019l.70606-.22657a1.41654,1.41654,0,0,1,.40039-.07324h.01368a.39927.39927,0,0,1,.40625.39215q.00012.007,0,.0141V192.462a.40368.40368,0,0,1-.40011.40722h-.00614a.40821.40821,0,0,1-.40723-.40722Z" transform="translate(0 0.00001)" style="fill: #fff"/>
  </g>
  <g>
    <path d="M118.3311,188.94152l-.48047.14648a.57922.57922,0,0,1-.14648.02051.36073.36073,0,0,1-.36035-.34668.35671.35671,0,0,1,.27343-.35351l.707-.22657a1.41661,1.41661,0,0,1,.40039-.07324h.01271a.40009.40009,0,0,1,.40721.39282q.0001.00672,0,.01343V192.462a.40674.40674,0,1,1-.81347.00236V192.462Z" transform="translate(0 0.00001)" style="fill: #fff"/>
    <path d="M120.28618,192.04211l1.43359-1.21973c.64063-.54.874-.84082.874-1.26074a.70011.70011,0,0,0-.7539-.72656,1.1412,1.1412,0,0,0-.91993.51953.37769.37769,0,0,1-.66015-.2461.40806.40806,0,0,1,.09375-.2539,1.807,1.807,0,0,1,1.54688-.75293,1.39739,1.39739,0,0,1,1.54,1.39355v.01367c0,.7334-.38671,1.13282-1.21386,1.80664l-.96.79981h1.89355a.36035.36035,0,0,1,0,.7207h-2.64639a.39389.39389,0,0,1-.44043-.38672A.51046.51046,0,0,1,120.28618,192.04211Z" transform="translate(0 0.00001)" style="fill: #fff"/>
  </g>
  <g>
    <path d="M150.36919,188.94152l-.47951.14648a.58688.58688,0,0,1-.14746.02051.35483.35483,0,0,1-.08594-.70019l.706-.22657a1.41661,1.41661,0,0,1,.4004-.07324h.01367a.39926.39926,0,0,1,.40625.39215q.0001.007,0,.0141V192.462a.40368.40368,0,0,1-.40012.40722h-.00613a.40819.40819,0,0,1-.40723-.40722Z" transform="translate(0 0.00001)" style="fill: #fff"/>
    <path d="M152.31842,192.30871a.394.394,0,1,1,.53323-.58011,1.41912,1.41912,0,0,0,1.06055.44726.73069.73069,0,0,0,.80293-.65046q.003-.0282.00373-.05654v-.01367c0-.46-.41994-.71972-1.07326-.71972h-.167a.356.356,0,0,1-.35351-.35352.4643.4643,0,0,1,.17382-.333l1.09375-1.167h-1.69433a.35694.35694,0,1,1-.00427-.71387h2.392a.36689.36689,0,0,1,.40416.32537l.00209.035a.59315.59315,0,0,1-.2334.44629l-1.0996,1.14063c.70605.08691,1.373.44629,1.373,1.30664v.01367a1.49489,1.49489,0,0,1-1.50284,1.48691q-.0656-.00035-.131-.00644A2.18549,2.18549,0,0,1,152.31842,192.30871Z" transform="translate(0 0.00001)" style="fill: #fff"/>
  </g>
  <g>
    <path d="M183.003,188.94152l-.47949.14648a.58688.58688,0,0,1-.14746.02051.35483.35483,0,0,1-.08594-.70019l.70606-.22657a1.41654,1.41654,0,0,1,.40039-.07324h.01367a.39926.39926,0,0,1,.40625.39215q.00012.007,0,.0141V192.462a.40368.40368,0,0,1-.40011.40722h-.00614a.40821.40821,0,0,1-.40723-.40722Z" transform="translate(0 0.00001)" style="fill: #fff"/>
    <path d="M187.2061,191.78918h-2.08691a.38586.38586,0,0,1-.40012-.371q-.0003-.00783-.00027-.01567a.64384.64384,0,0,1,.17968-.4336l2.19434-2.60058a.57889.57889,0,0,1,.5-.2666.39576.39576,0,0,1,.40037.39109l0,.00246v2.62012h.35937a.33782.33782,0,0,1,.34082.33479v.005a.33235.33235,0,0,1-.33061.33411l-.01021-.00011h-.35937v.69336a.39362.39362,0,0,1-.78711,0Zm0-.67383v-1.84668l-1.53418,1.84668Z" transform="translate(0 0.00001)" style="fill: #fff"/>
  </g>
  <g>
    <path d="M216.11528,188.65827l-.47949.14649a.58778.58778,0,0,1-.14746.0205.35484.35484,0,0,1-.08594-.70019l.70605-.22656a1.41627,1.41627,0,0,1,.40039-.07325h.01369a.39928.39928,0,0,1,.40625.39217c.00008.0047.00008.00938,0,.01408v3.94727a.4037.4037,0,0,1-.40013.40723h-.00612a.40823.40823,0,0,1-.40723-.40723Z" transform="translate(0 0.00001)" style="fill: #fff"/>
    <path d="M218.1309,192.12609a.40471.40471,0,0,1-.166-.32031.39859.39859,0,0,1,.39258-.39356.3571.3571,0,0,1,.24024.08008,1.56983,1.56983,0,0,0,1.01367.39356.81729.81729,0,0,0,.90722-.80664v-.01369c0-.48045-.40039-.77344-.96679-.77344a3.17773,3.17773,0,0,0-.80078.16016.644.644,0,0,1-.38672-.16016.39135.39135,0,0,1-.16016-.36037l.10059-1.67968a.3754.3754,0,0,1,.373-.36719h2.11426a.3697.3697,0,0,1,.36621.36719.36367.36367,0,0,1-.36621.35937h-1.7539l-.07325,1.09375a1.9827,1.9827,0,0,1,.74024-.13281,1.44157,1.44157,0,0,1,1.627,1.4668v.01269a1.56989,1.56989,0,0,1-1.5526,1.587q-.07731.00084-.1544-.00592A2.37031,2.37031,0,0,1,218.1309,192.12609Z" transform="translate(0 0.00001)" style="fill: #fff"/>
  </g>
  <g>
    <path d="M248.85454,188.94152l-.48047.14648a.57981.57981,0,0,1-.14649.02051.36072.36072,0,0,1-.36035-.34668.35673.35673,0,0,1,.27344-.35351l.707-.22657a1.41654,1.41654,0,0,1,.40039-.07324h.0127a.40009.40009,0,0,1,.40721.39282c.00007.00448.00009.009,0,.01343V192.462a.40674.40674,0,1,1-.81347.00236V192.462Z" transform="translate(0 0.00001)" style="fill: #fff"/>
    <path d="M251.25688,192.422a2.28658,2.28658,0,0,1-.56738-1.78027v-.0127c0-1.42773.68066-2.541,2.001-2.541a2.02686,2.02686,0,0,1,1.167.334.38967.38967,0,0,1-.18652.7334.441.441,0,0,1-.207-.06055,1.36326,1.36326,0,0,0-.79981-.25976c-.69433,0-1.081.627-1.12109,1.48045a1.49272,1.49272,0,0,1,1.12109-.4668,1.47726,1.47726,0,0,1,1.61936,1.32q.00746.07318.0076.14684v.01369a1.62038,1.62038,0,0,1-1.64955,1.59068q-.04246-.00078-.08483-.00377A1.73732,1.73732,0,0,1,251.25688,192.422Zm2.21387-1.05957v-.01367a.85013.85013,0,0,0-.87982-.81938q-.03724.00132-.07428.0059a.859.859,0,0,0-.94246.76651q-.00274.02685-.00383.0538v.01367a.872.872,0,0,0,.90512.83759q.0309-.00122.06167-.00459a.84364.84364,0,0,0,.9336-.83983Z" transform="translate(0 0.00001)" style="fill: #fff"/>
  </g>
  <path d="M20.42631,301.69808a.39066.39066,0,0,1-.18652-.34082.37586.37586,0,0,1,.37851-.37314l.00821.00016a.42976.42976,0,0,1,.22656.0664,1.4016,1.4016,0,0,0,.85352.28711c.687,0,1.1001-.60644,1.127-1.4668a1.37442,1.37442,0,0,1-1.09375.49317,1.47958,1.47958,0,0,1-1.65332-1.48047v-.0127a1.62351,1.62351,0,0,1,1.62847-1.61847q.05595.0002.11177.00422a1.70034,1.70034,0,0,1,1.30029.49316,2.36493,2.36493,0,0,1,.56006,1.78125v.0127c0,1.501-.74024,2.541-2.00049,2.541A2.14366,2.14366,0,0,1,20.42631,301.69808Zm2.38038-2.86133v-.01269a.8816.8816,0,0,0-.89787-.865q-.03773.00074-.07528.00464a.85764.85764,0,0,0-.92449.78512q-.00335.04093-.00275.08206v.0127a.85261.85261,0,0,0,.95361.834.86239.86239,0,0,0,.9428-.77368Q22.806,298.87041,22.80669,298.83675Z" transform="translate(0 0.00001)" style="fill: #fff"/>
  <g>
    <path d="M52.18169,298.11019l-.48.14649a.58375.58375,0,0,1-.147.0205.35484.35484,0,0,1-.08642-.70019l.70654-.22656a1.41585,1.41585,0,0,1,.40039-.07325h.01322a.39967.39967,0,0,1,.40673.39249c.00008.00458.00008.00919,0,.01376v3.94727a.40674.40674,0,0,1-.81347.00424v-3.52475Z" transform="translate(0 0.00001)" style="fill: #fff"/>
    <path d="M54.01713,299.68441v-.01367a2.06289,2.06289,0,1,1,4.06788-.01367v.01367a2.06289,2.06289,0,1,1-4.06788.01367Zm3.22071,0v-.01367c0-.91992-.47315-1.67383-1.19336-1.67383s-1.18018.7334-1.18018,1.66016v.01367c0,.91992.4668,1.67383,1.19336,1.67383C56.78471,301.34457,57.23784,300.5975,57.23784,299.68441Z" transform="translate(0 0.00001)" style="fill: #fff"/>
  </g>
  <g>
    <path d="M86.20512,298.11019l-.47949.14649a.58732.58732,0,0,1-.14746.0205.35484.35484,0,0,1-.08594-.70019l.70606-.22656a1.41592,1.41592,0,0,1,.4004-.07325h.01367a.39925.39925,0,0,1,.40625.39215q.00012.007,0,.0141v3.94727a.40371.40371,0,0,1-.40013.40723h-.00612a.40824.40824,0,0,1-.40723-.40723Z" transform="translate(0 0.00001)" style="fill: #fff"/>
    <path d="M88.8477,298.11019l-.47949.14649a.58732.58732,0,0,1-.14746.0205.35484.35484,0,0,1-.08594-.70019l.70606-.22656a1.41585,1.41585,0,0,1,.40039-.07325h.01368a.39925.39925,0,0,1,.40625.39215q.00012.007,0,.0141v3.94727a.40371.40371,0,0,1-.40014.40723h-.00611a.40824.40824,0,0,1-.40723-.40723Z" transform="translate(0 0.00001)" style="fill: #fff"/>
  </g>
  <g>
    <path d="M118.3311,298.11019l-.48047.14649a.57966.57966,0,0,1-.14648.0205.36074.36074,0,0,1-.36035-.34668.35673.35673,0,0,1,.27343-.35351l.707-.22656a1.41592,1.41592,0,0,1,.40039-.07325h.01271a.4001.4001,0,0,1,.40721.39283c.00007.00448.00008.00894,0,.01342v3.94727a.40674.40674,0,1,1-.81347.00238v-.00238Z" transform="translate(0 0.00001)" style="fill: #fff"/>
    <path d="M120.28618,301.21078l1.43359-1.21973c.64063-.54.874-.84082.874-1.26074a.70011.70011,0,0,0-.7539-.72656,1.1412,1.1412,0,0,0-.91993.51953.37769.37769,0,0,1-.66015-.2461.40812.40812,0,0,1,.09375-.2539,1.80691,1.80691,0,0,1,1.54688-.75293,1.39741,1.39741,0,0,1,1.54,1.39355v.01367c0,.7334-.38671,1.13282-1.21386,1.80664l-.96.79981h1.89355a.36036.36036,0,0,1,0,.7207h-2.64639a.39392.39392,0,0,1-.44043-.38672A.51049.51049,0,0,1,120.28618,301.21078Z" transform="translate(0 0.00001)" style="fill: #fff"/>
  </g>
  <g>
    <path d="M150.36919,298.11019l-.47951.14649a.58732.58732,0,0,1-.14746.0205.35483.35483,0,0,1-.08594-.70019l.706-.22656a1.41592,1.41592,0,0,1,.4004-.07325h.01367a.39925.39925,0,0,1,.40625.39215q.0001.007,0,.0141v3.94727a.40372.40372,0,0,1-.40013.40723h-.00612a.40823.40823,0,0,1-.40723-.40723Z" transform="translate(0 0.00001)" style="fill: #fff"/>
    <path d="M152.31842,301.47738a.394.394,0,1,1,.53323-.58011,1.41917,1.41917,0,0,0,1.06055.44727.73069.73069,0,0,0,.80293-.65046q.003-.0282.00373-.05655v-.01367c0-.46-.41994-.71972-1.07326-.71972h-.167a.356.356,0,0,1-.35351-.35352.46425.46425,0,0,1,.17382-.333l1.09375-1.167h-1.69433a.35694.35694,0,0,1-.00427-.71387h2.392a.36688.36688,0,0,1,.40416.32535l.00209.035a.59319.59319,0,0,1-.2334.44628l-1.0996,1.14063c.70605.08691,1.373.44629,1.373,1.30664v.01367a1.49489,1.49489,0,0,1-1.50282,1.48691q-.0656-.00032-.131-.00644A2.18549,2.18549,0,0,1,152.31842,301.47738Z" transform="translate(0 0.00001)" style="fill: #fff"/>
  </g>
  <g>
    <path d="M183.003,298.11019l-.47949.14649a.58732.58732,0,0,1-.14746.0205.35484.35484,0,0,1-.08594-.70019l.70606-.22656a1.41585,1.41585,0,0,1,.40039-.07325h.01367a.39924.39924,0,0,1,.40625.39215q.00012.007,0,.0141v3.94727a.40371.40371,0,0,1-.40013.40723h-.00612a.40824.40824,0,0,1-.40723-.40723Z" transform="translate(0 0.00001)" style="fill: #fff"/>
    <path d="M187.2061,300.95785h-2.08691a.38587.38587,0,0,1-.40012-.37107q-.0003-.00781-.00027-.01565a.6438.6438,0,0,1,.17968-.4336l2.19434-2.60058a.579.579,0,0,1,.5-.2666.39575.39575,0,0,1,.40037.39111l0,.00244V300.284h.35937a.33782.33782,0,0,1,.34082.33481v.005a.33232.33232,0,0,1-.33056.33411l-.01026-.00009h-.35937v.69336a.39362.39362,0,0,1-.78711,0Zm0-.67383v-1.84668l-1.53418,1.84668Z" transform="translate(0 0.00001)" style="fill: #fff"/>
  </g>
  <g>
    <path d="M216.11528,297.827l-.47949.14648a.58733.58733,0,0,1-.14746.02051.35483.35483,0,0,1-.08594-.7002l.70605-.22656a1.41555,1.41555,0,0,1,.40039-.07324h.01369a.39927.39927,0,0,1,.40625.39215q.00012.00705,0,.0141v3.94727a.4037.4037,0,0,1-.40013.40722h-.00612a.40823.40823,0,0,1-.40723-.40722Z" transform="translate(0 0.00001)" style="fill: #fff"/>
    <path d="M218.1309,301.29476a.40468.40468,0,0,1-.166-.32031.39858.39858,0,0,1,.39258-.39356.357.357,0,0,1,.24024.08008,1.56991,1.56991,0,0,0,1.01367.39356.81729.81729,0,0,0,.90722-.80664v-.01361c0-.48047-.40039-.77344-.96679-.77344a3.17947,3.17947,0,0,0-.80078.16015.644.644,0,0,1-.38672-.16015.39135.39135,0,0,1-.16016-.36035l.10059-1.67969a.37538.37538,0,0,1,.373-.36719h2.11426a.36973.36973,0,0,1,.36621.36719.36367.36367,0,0,1-.36621.35937h-1.7539l-.07325,1.09375a1.9827,1.9827,0,0,1,.74024-.13281,1.44155,1.44155,0,0,1,1.627,1.4668v.01269a1.56989,1.56989,0,0,1-1.5526,1.587q-.07731.00083-.1544-.00592A2.37021,2.37021,0,0,1,218.1309,301.29476Z" transform="translate(0 0.00001)" style="fill: #fff"/>
  </g>
  <g>
    <path d="M248.85454,298.11019l-.48047.14649a.5798.5798,0,0,1-.14649.0205.36074.36074,0,0,1-.36035-.34668.35673.35673,0,0,1,.27344-.35351l.707-.22656a1.41585,1.41585,0,0,1,.40039-.07325h.0127a.40008.40008,0,0,1,.40721.39279c.00007.00449.00009.009,0,.01346v3.94727a.40674.40674,0,1,1-.81347.00238v-.00238Z" transform="translate(0 0.00001)" style="fill: #fff"/>
    <path d="M251.25688,301.59066a2.28654,2.28654,0,0,1-.56738-1.78027v-.0127c0-1.42773.68066-2.541,2.001-2.541a2.02687,2.02687,0,0,1,1.167.334.38967.38967,0,0,1-.18652.7334.441.441,0,0,1-.207-.06055,1.3634,1.3634,0,0,0-.79981-.25976c-.69433,0-1.081.627-1.12109,1.48047a1.49261,1.49261,0,0,1,1.12109-.4668,1.47727,1.47727,0,0,1,1.61936,1.31994q.00746.0732.0076.14686v.01367a1.62036,1.62036,0,0,1-1.64952,1.59067q-.04248-.00074-.08486-.00376A1.73728,1.73728,0,0,1,251.25688,301.59066Zm2.21387-1.05957v-.01367a.85018.85018,0,0,0-.87982-.8194q-.03724.00134-.07428.00592a.859.859,0,0,0-.94246.76651q-.00274.02682-.00383.0538v.01368a.872.872,0,0,0,.9051.83758q.03093-.00119.06169-.00458a.84362.84362,0,0,0,.9336-.83984Z" transform="translate(0 0.00001)" style="fill: #fff"/>
  </g>
  <g>
    <path d="M110.53955,25.9215l2.92676-6.6084a1.14106,1.14106,0,0,1,1.0791-.73144h.10791a1.12528,1.12528,0,0,1,1.06738.73144l2.92676,6.6084a.90813.90813,0,0,1,.0957.37207.87513.87513,0,0,1-.87548.88721.94043.94043,0,0,1-.8877-.63525l-.56348-1.31934h-3.69384l-.58789,1.37891a.90686.90686,0,0,1-.85157.57568.85.85,0,0,1-.85156-.86328A.98121.98121,0,0,1,110.53955,25.9215Zm5.19336-2.32666-1.16357-2.77051-1.16309,2.77051Z" transform="translate(0 0.00001)" style="fill: #fff"/>
    <path d="M119.88721,23.51086v-3.9458a.92359.92359,0,0,1,1.84717,0v3.898c0,1.36718.68359,2.0747,1.811,2.0747s1.811-.68359,1.811-2.01465v-3.958a.92334.92334,0,1,1,1.84667,0V23.4508c0,2.543-1.42724,3.79-3.68164,3.79C121.2666,27.24084,119.88721,25.98156,119.88721,23.51086Z" transform="translate(0 0.00001)" style="fill: #fff"/>
    <path d="M129.09131,19.63732a.91627.91627,0,0,1,.92334-.92383h2.35058a4.18484,4.18484,0,0,1,4.46192,4.17383v.02393a4.20326,4.20326,0,0,1-4.46192,4.19775h-2.35058a.91616.91616,0,0,1-.92334-.92334Zm3.27392,5.80469a2.39257,2.39257,0,0,0,2.53125-2.50684v-.02392a2.41146,2.41146,0,0,0-2.53125-2.53076h-1.42675V25.442Z" transform="translate(0 0.00001)" style="fill: #fff"/>
    <path d="M138.55957,19.56506a.92334.92334,0,1,1,1.84668,0v6.69238a.92334.92334,0,1,1-1.84668,0Z" transform="translate(0 0.00001)" style="fill: #fff"/>
    <path d="M142.13574,22.93517v-.02392a4.46344,4.46344,0,0,1,8.92285-.02393v.02393a4.46344,4.46344,0,0,1-8.92285.02392Zm6.99219,0v-.02392a2.5511,2.5511,0,0,0-2.543-2.63867,2.511,2.511,0,0,0-2.51855,2.61474v.02393a2.55082,2.55082,0,0,0,2.543,2.63867A2.51067,2.51067,0,0,0,149.12793,22.93517Z" transform="translate(0 0.00001)" style="fill: #fff"/>
    <path d="M156.53418,20.46447l-.64746.168a1.50858,1.50858,0,0,1-.32422.04834.80938.80938,0,0,1-.80371-.792.81793.81793,0,0,1,.6123-.79151l1.1875-.34765a3.28755,3.28755,0,0,1,.86329-.15576h.02343a.91138.91138,0,0,1,.91211.91113v6.76465a.91162.91162,0,0,1-1.82324,0Z" transform="translate(0 0.00001)" style="fill: #fff"/>
    <path d="M161.10742,26.35363a4.14871,4.14871,0,0,1-.99609-3.17871V23.151c0-2.59033,1.17578-4.58154,3.68262-4.58154a3.94778,3.94778,0,0,1,2.02636.50391.8769.8769,0,0,1,.47949.7915.85969.85969,0,0,1-.875.85156,1.006,1.006,0,0,1-.45605-.13183,2.32077,2.32077,0,0,0-1.23535-.33594c-1.043,0-1.57129.83984-1.69141,1.94287a2.90572,2.90572,0,0,1,1.73926-.53955,2.63978,2.63978,0,0,1,2.9502,2.67432v.02441a2.96105,2.96105,0,0,1-3.20215,2.90235A3.18334,3.18334,0,0,1,161.10742,26.35363Zm3.78906-1.91894v-.02442c0-.70752-.55175-1.22314-1.46289-1.22314s-1.43945.5039-1.43945,1.21142v.02393A1.29685,1.29685,0,0,0,163.458,25.67C164.36914,25.67,164.89648,25.15392,164.89648,24.43469Z" transform="translate(0 0.00001)" style="fill: #fff"/>
  </g>
  <path d="M128.76951,341.18955h0a3.28965,3.28965,0,0,0,0,6.5793h7.37863v-6.5793Z" transform="translate(0 0.00001)" style="fill: #ffd714"/>
  <path d="M132.8599,355.16422h0a3.28924,3.28924,0,0,0,0-6.57847h-7.37863v6.57847Z" transform="translate(0 0.00001)" style="fill: #ffd714"/>
  <path d="M144.38665,355.16422h0a3.28924,3.28924,0,0,0,0-6.57847h-7.3778v6.57847Z" transform="translate(0 0.00001)" style="fill: #fff"/>
  <path d="M144.38665,347.76851h0a3.28965,3.28965,0,0,0,0-6.57929h-7.3778v6.57929Z" transform="translate(0 0.00001)" style="fill: #fff"/>
  <g>
    <path d="M111.90625,136.33263l2.0791-4.63769a.62408.62408,0,0,1,.5918-.39941h.04785a.61383.61383,0,0,1,.584.39941l2.07911,4.63769a.427.427,0,0,1,.05566.208.46116.46116,0,0,1-.46387.47168.50652.50652,0,0,1-.47949-.34375l-.45605-1.04736h-2.71875l-.47168,1.0791a.47274.47274,0,0,1-.45508.312.451.451,0,0,1-.45606-.456A.50193.50193,0,0,1,111.90625,136.33263Zm3.66211-1.583-.9834-2.2627-.9834,2.2627Z" transform="translate(0 0.00001)" style="fill: #fff"/>
    <path d="M118.33887,134.59777v-2.7749a.49172.49172,0,0,1,.9834,0v2.73486c0,1.03955.53515,1.59082,1.415,1.59082.87208,0,1.40723-.51953,1.40723-1.55078v-2.7749a.49172.49172,0,0,1,.9834,0v2.72656a2.23479,2.23479,0,0,1-2.40625,2.51074A2.20637,2.20637,0,0,1,118.33887,134.59777Z" transform="translate(0 0.00001)" style="fill: #fff"/>
    <path d="M124.64258,131.87121a.48815.48815,0,0,1,.49609-.49561h1.59082a2.78983,2.78983,0,0,1,2.97461,2.78223v.01611a2.80223,2.80223,0,0,1-2.97461,2.79834h-1.59082a.48815.48815,0,0,1-.49609-.4956Zm2.08691,4.20557a1.824,1.824,0,0,0,1.94239-1.88672v-.01612a1.8362,1.8362,0,0,0-1.94239-1.90283H125.626v3.80567Z" transform="translate(0 0.00001)" style="fill: #fff"/>
    <path d="M131.11426,131.82287a.49172.49172,0,0,1,.9834,0v4.70166a.49172.49172,0,0,1-.9834,0Z" transform="translate(0 0.00001)" style="fill: #fff"/>
    <path d="M133.50586,134.19006v-.01612a2.92656,2.92656,0,0,1,5.85254-.01611v.01611a2.92656,2.92656,0,0,1-5.85254.01612Zm4.82129,0v-.01612a1.91766,1.91766,0,0,0-1.90332-1.99121,1.89107,1.89107,0,0,0-1.88672,1.9751v.01611a1.91116,1.91116,0,0,0,1.90332,1.98291A1.88431,1.88431,0,0,0,138.32715,134.19006Z" transform="translate(0 0.00001)" style="fill: #fff"/>
    <path d="M143.02637,134.19006v-.01612a2.92656,2.92656,0,0,1,5.85254-.01611v.01611a2.92656,2.92656,0,0,1-5.85254.01612Zm4.82129,0v-.01612a1.91747,1.91747,0,0,0-1.90235-1.99121,1.89127,1.89127,0,0,0-1.88769,1.9751v.01611a1.91116,1.91116,0,0,0,1.90332,1.98291A1.88431,1.88431,0,0,0,147.84766,134.19006Z" transform="translate(0 0.00001)" style="fill: #fff"/>
    <path d="M150.14648,134.59777v-2.7749a.49172.49172,0,0,1,.9834,0v2.73486c0,1.03955.53516,1.59082,1.415,1.59082.8711,0,1.40723-.51953,1.40723-1.55078v-2.7749a.49172.49172,0,0,1,.9834,0v2.72656a2.23479,2.23479,0,0,1-2.40625,2.51074A2.20637,2.20637,0,0,1,150.14648,134.59777Z" transform="translate(0 0.00001)" style="fill: #fff"/>
    <path d="M157.8252,132.28674h-1.35938a.45557.45557,0,0,1,0-.91114h3.71777a.45563.45563,0,0,1,0,.91114h-1.36718v4.23779a.49567.49567,0,0,1-.99121,0Z" transform="translate(0 0.00001)" style="fill: #fff"/>
  </g>
  <g>
    <path d="M116.57812,237.96691l2.07911-4.63769a.62337.62337,0,0,1,.59179-.39942h.04786a.61317.61317,0,0,1,.584.39942l2.0791,4.63769a.42423.42423,0,0,1,.05566.208.46115.46115,0,0,1-.46386.47168.50651.50651,0,0,1-.47949-.34375l-.45606-1.04785h-2.71875l-.47168,1.0791a.47318.47318,0,0,1-.45508.3125.451.451,0,0,1-.456-.45605A.50033.50033,0,0,1,116.57812,237.96691Zm3.66211-1.583-.98339-2.26269-.9834,2.26269Z" transform="translate(0 0.00001)" style="fill: #fff"/>
    <path d="M123.01074,236.23156v-2.77441a.49172.49172,0,0,1,.9834,0v2.73437c0,1.04.53516,1.59082,1.415,1.59082.87207,0,1.40723-.51953,1.40723-1.55078v-2.77441a.49171.49171,0,0,1,.98339,0v2.72656a2.235,2.235,0,0,1-2.40625,2.51074A2.20675,2.20675,0,0,1,123.01074,236.23156Z" transform="translate(0 0.00001)" style="fill: #fff"/>
    <path d="M129.31445,233.505a.488.488,0,0,1,.4961-.49512h1.59082a2.78983,2.78983,0,0,1,2.97461,2.78223v.01562a2.80261,2.80261,0,0,1-2.97461,2.79883h-1.59082a.48826.48826,0,0,1-.4961-.49609Zm2.08692,4.20605a1.8242,1.8242,0,0,0,1.94238-1.88672v-.0166a1.83581,1.83581,0,0,0-1.94238-1.90234h-1.10352v3.80566Z" transform="translate(0 0.00001)" style="fill: #fff"/>
    <path d="M135.78613,233.45715a.49172.49172,0,0,1,.9834,0v4.70117a.49171.49171,0,0,1-.9834,0Z" transform="translate(0 0.00001)" style="fill: #fff"/>
    <path d="M138.17773,235.82433v-.0166a2.92655,2.92655,0,0,1,5.85254-.01562v.01562a2.92656,2.92656,0,0,1-5.85254.0166Zm4.82129,0v-.0166a1.91794,1.91794,0,0,0-1.90332-1.99121,1.89121,1.89121,0,0,0-1.88672,1.97559v.01562a1.9113,1.9113,0,0,0,1.90332,1.9834A1.88431,1.88431,0,0,0,142.999,235.82433Z" transform="translate(0 0.00001)" style="fill: #fff"/>
    <path d="M148.002,233.45715a.49172.49172,0,0,1,.9834,0v4.70117a.49171.49171,0,0,1-.9834,0Z" transform="translate(0 0.00001)" style="fill: #fff"/>
    <path d="M150.6416,233.47277a.49264.49264,0,0,1,.49512-.49512h.10449a.61863.61863,0,0,1,.51172.28809l2.79883,3.62109v-3.4375a.48341.48341,0,0,1,.96679,0v4.70118a.4786.4786,0,0,1-.47949.48828h-.04a.61964.61964,0,0,1-.51172-.2959l-2.87792-3.72656v3.5498a.4839.4839,0,0,1-.96778,0Z" transform="translate(0 0.00001)" style="fill: #fff"/>
  </g>
</svg>
