<?xml version="1.0" encoding="UTF-8" standalone="no"?>
<!DOCTYPE svg PUBLIC "-//W3C//DTD SVG 1.1//EN" "http://www.w3.org/Graphics/SVG/1.1/DTD/svg11.dtd">
<svg width="300px" height="380px" version="1.1" xmlns="http://www.w3.org/2000/svg" xmlns:xlink="http://www.w3.org/1999/xlink" xml:space="preserve" xmlns:serif="http://www.serif.com/" style="fill-rule:evenodd;clip-rule:evenodd;stroke-miterlimit:10;">
    <g id="Panel">
        <g transform="matrix(4.00166,0,0,4.00166,68.662,-668.448)">
            <g id="Background">
                <g id="text9293-4">
                    <g transform="matrix(1,0,0,1,7.84711,253.965)">
                        <path d="M1.016,-1.176l-0.466,0l0,0.252l0.44,0l0,0.332l-0.44,0l0,0.26l0.466,0l0,0.332l-0.858,0l0,-1.508l0.858,0l0,0.332Z" style="fill:rgb(204,204,204);fill-rule:nonzero;"/>
                        <path d="M1.73,-0.804l-0.47,-0.704l0.484,0l0.204,0.39l0.252,-0.39l0.484,0l-0.498,0.704l0.562,0.804l-0.478,0l-0.302,-0.492l-0.354,0.492l-0.474,0l0.59,-0.804Z" style="fill:rgb(204,204,204);fill-rule:nonzero;"/>
                        <path d="M3.478,-1.176l0,1.176l-0.392,0l0,-1.176l-0.322,0l0,-0.332l1.036,0l0,0.332l-0.322,0Z" style="fill:rgb(204,204,204);fill-rule:nonzero;"/>
                        <path d="M3.88,-0.192c0,-0.032 0.006,-0.062 0.018,-0.091c0.012,-0.029 0.029,-0.054 0.05,-0.075c0.021,-0.021 0.046,-0.038 0.075,-0.05c0.029,-0.012 0.059,-0.018 0.091,-0.018c0.032,0 0.062,0.006 0.091,0.018c0.029,0.012 0.054,0.029 0.075,0.05c0.021,0.021 0.038,0.046 0.05,0.075c0.012,0.029 0.018,0.059 0.018,0.091c0,0.032 -0.006,0.062 -0.018,0.091c-0.012,0.029 -0.029,0.054 -0.05,0.075c-0.021,0.021 -0.046,0.038 -0.075,0.05c-0.029,0.012 -0.059,0.018 -0.091,0.018c-0.032,0 -0.062,-0.006 -0.091,-0.018c-0.029,-0.012 -0.054,-0.029 -0.075,-0.05c-0.021,-0.021 -0.038,-0.046 -0.05,-0.075c-0.012,-0.029 -0.018,-0.059 -0.018,-0.091Z" style="fill:rgb(204,204,204);fill-rule:nonzero;"/>
                        <path d="M5.634,-0.754c0,0.06 0.011,0.115 0.034,0.166c0.023,0.051 0.053,0.095 0.092,0.132c0.039,0.037 0.084,0.066 0.135,0.087c0.051,0.021 0.106,0.031 0.163,0.031c0.057,0 0.112,-0.01 0.163,-0.031c0.051,-0.021 0.097,-0.05 0.136,-0.087c0.039,-0.037 0.07,-0.081 0.093,-0.132c0.023,-0.051 0.034,-0.106 0.034,-0.166c0,-0.06 -0.011,-0.115 -0.034,-0.166c-0.023,-0.051 -0.054,-0.095 -0.093,-0.132c-0.039,-0.037 -0.085,-0.066 -0.136,-0.087c-0.051,-0.021 -0.106,-0.031 -0.163,-0.031c-0.057,0 -0.112,0.01 -0.163,0.031c-0.051,0.021 -0.096,0.05 -0.135,0.087c-0.039,0.037 -0.069,0.081 -0.092,0.132c-0.023,0.051 -0.034,0.106 -0.034,0.166Zm-0.41,0c0,-0.112 0.021,-0.216 0.062,-0.313c0.041,-0.097 0.099,-0.181 0.172,-0.253c0.073,-0.072 0.161,-0.128 0.263,-0.169c0.102,-0.041 0.214,-0.061 0.337,-0.061c0.121,0 0.233,0.02 0.336,0.061c0.103,0.041 0.191,0.097 0.265,0.169c0.074,0.072 0.132,0.156 0.173,0.253c0.041,0.097 0.062,0.201 0.062,0.313c0,0.112 -0.021,0.216 -0.062,0.313c-0.041,0.097 -0.099,0.181 -0.173,0.253c-0.074,0.072 -0.162,0.128 -0.265,0.169c-0.103,0.041 -0.215,0.061 -0.336,0.061c-0.123,0 -0.235,-0.02 -0.337,-0.061c-0.102,-0.041 -0.19,-0.097 -0.263,-0.169c-0.073,-0.072 -0.131,-0.156 -0.172,-0.253c-0.041,-0.097 -0.062,-0.201 -0.062,-0.313Z" style="fill:rgb(204,204,204);fill-rule:nonzero;"/>
                        <path d="M7.97,-1.122c-0.043,-0.035 -0.085,-0.06 -0.128,-0.077c-0.043,-0.017 -0.084,-0.025 -0.124,-0.025c-0.051,0 -0.092,0.012 -0.124,0.036c-0.032,0.024 -0.048,0.055 -0.048,0.094c0,0.027 0.008,0.049 0.024,0.066c0.016,0.017 0.037,0.032 0.063,0.045c0.026,0.013 0.055,0.024 0.088,0.033c0.033,0.009 0.065,0.019 0.097,0.03c0.128,0.043 0.222,0.1 0.281,0.171c0.059,0.071 0.089,0.164 0.089,0.279c0,0.077 -0.013,0.147 -0.039,0.21c-0.026,0.063 -0.064,0.116 -0.114,0.161c-0.05,0.045 -0.111,0.079 -0.184,0.104c-0.073,0.025 -0.155,0.037 -0.247,0.037c-0.191,0 -0.367,-0.057 -0.53,-0.17l0.168,-0.316c0.059,0.052 0.117,0.091 0.174,0.116c0.057,0.025 0.114,0.038 0.17,0.038c0.064,0 0.112,-0.015 0.143,-0.044c0.031,-0.029 0.047,-0.063 0.047,-0.1c0,-0.023 -0.004,-0.042 -0.012,-0.059c-0.008,-0.017 -0.021,-0.032 -0.04,-0.046c-0.019,-0.014 -0.043,-0.027 -0.073,-0.039c-0.03,-0.012 -0.066,-0.025 -0.109,-0.04c-0.051,-0.016 -0.1,-0.034 -0.149,-0.053c-0.049,-0.019 -0.092,-0.045 -0.13,-0.077c-0.038,-0.032 -0.069,-0.072 -0.092,-0.121c-0.023,-0.049 -0.035,-0.11 -0.035,-0.185c0,-0.075 0.012,-0.142 0.037,-0.203c0.025,-0.061 0.059,-0.113 0.104,-0.156c0.045,-0.043 0.099,-0.077 0.164,-0.101c0.065,-0.024 0.137,-0.036 0.217,-0.036c0.075,0 0.153,0.01 0.234,0.031c0.081,0.021 0.159,0.051 0.234,0.091l-0.156,0.306Z" style="fill:rgb(204,204,204);fill-rule:nonzero;"/>
                        <path d="M9.52,-1.004c-0.091,-0.111 -0.203,-0.166 -0.336,-0.166c-0.059,0 -0.113,0.011 -0.163,0.032c-0.05,0.021 -0.093,0.05 -0.129,0.087c-0.036,0.037 -0.064,0.08 -0.085,0.131c-0.021,0.051 -0.031,0.105 -0.031,0.164c0,0.06 0.01,0.115 0.031,0.166c0.021,0.051 0.049,0.095 0.086,0.132c0.037,0.037 0.08,0.067 0.129,0.088c0.049,0.021 0.103,0.032 0.16,0.032c0.125,0 0.238,-0.053 0.338,-0.16l0,0.464l-0.04,0.014c-0.06,0.021 -0.116,0.037 -0.168,0.047c-0.052,0.01 -0.103,0.015 -0.154,0.015c-0.104,0 -0.204,-0.02 -0.299,-0.059c-0.095,-0.039 -0.179,-0.095 -0.252,-0.166c-0.073,-0.071 -0.131,-0.156 -0.175,-0.254c-0.044,-0.098 -0.066,-0.205 -0.066,-0.321c0,-0.116 0.022,-0.222 0.065,-0.319c0.043,-0.097 0.101,-0.18 0.174,-0.25c0.073,-0.07 0.157,-0.125 0.253,-0.164c0.096,-0.039 0.197,-0.059 0.302,-0.059c0.06,0 0.119,0.006 0.177,0.019c0.058,0.013 0.119,0.032 0.183,0.059l0,0.468Z" style="fill:rgb(204,204,204);fill-rule:nonzero;"/>
                    </g>
                    <g id="rect9931" transform="matrix(1.89392,0,0,0.945274,-17.2605,-18.7148)">
                        <rect x="0.054" y="196.512" width="39.584" height="100.458" style="fill:rgb(32,32,32);"/>
                    </g>
                </g>
            </g>
        </g>
        <g id="g50" transform="matrix(0.0956609,0,0,0.0956609,119.457,280.461)">
            <path id="path42" d="M224.699,869.111l27.948,0l26.026,86.945l26.911,-86.945l27.806,0l-36.174,108.69c-3.38,10.021 -9.436,15.027 -18.173,15.027c-8.854,0 -14.971,-5.059 -18.345,-15.181l-35.999,-108.536Z" style="fill:rgb(102,102,102);fill-rule:nonzero;"/>
            <path id="path44" d="M335.484,961.026l0,-91.915l26.211,0l0,91.041c0.464,3.263 3.495,4.893 9.087,4.893l17.824,0c5.357,0 8.328,-1.512 8.912,-4.543l0.175,-0.874l0,-90.517l26.211,0l0,91.74c0,8.038 -0.873,13.747 -2.621,17.125c-4.66,8.972 -12.873,13.455 -24.639,13.455l-33.9,0c-12.118,0 -20.388,-4.601 -24.814,-13.805c-1.632,-3.377 -2.446,-8.911 -2.446,-16.6l0,0Z" style="fill:rgb(102,102,102);fill-rule:nonzero;"/>
            <path id="path46" d="M435.961,961.551l0,-92.439l26.212,0l0,90.342c0,3.73 2.211,5.592 6.64,5.592l46.657,0l-0.175,26.387l-48.754,0c-1.747,0 -3.263,-0.058 -4.543,-0.175c-9.437,-0.813 -16.137,-3.582 -20.096,-8.3c-3.962,-4.72 -5.941,-11.854 -5.941,-21.407l0,0Z" style="fill:rgb(102,102,102);fill-rule:nonzero;"/>
            <path id="path48" d="M516.341,895.497l0,-26.386l78.635,0l0,26.386l-26.386,0l0,95.935l-26.212,0l0,-95.935l-26.037,0Z" style="fill:rgb(102,102,102);fill-rule:nonzero;"/>
        </g>
        <g id="g8091" transform="matrix(0.0359254,0,0,0.0359254,129.829,366.685)">
            <path id="path4" d="M210.282,78.87c0,-125.517 -101.752,-227.268 -227.271,-227.268c-125.514,0 -227.267,101.751 -227.267,227.268c0,125.516 101.752,227.268 227.267,227.268c125.519,0 227.271,-101.752 227.271,-227.268l0,0Z" style="fill:rgb(117,117,117);fill-rule:nonzero;stroke:rgb(53,53,53);stroke-width:17px;"/>
            <g id="g40" transform="matrix(1,0,0,1,-426.825,-542.575)">
                <path id="polygon6" d="M357.002,759.965l15.391,-24.781l-29.594,-66.614l-61.688,-63.583l12.788,86.322l16.629,35.632l23.179,35.166l23.295,-2.142Z" style="fill:rgb(43,43,43);fill-rule:nonzero;"/>
                <path id="polygon8" d="M460.762,760.17l-15.392,-24.783l29.597,-66.612l61.685,-63.582l-12.787,86.321l-16.63,35.631l-23.175,35.168l-23.298,-2.143Z" style="fill:rgb(38,38,38);fill-rule:nonzero;"/>
                <path id="polygon12" d="M337.948,452.81l71.936,-18.383l0,374.323l-37.568,-73.799l-29.517,-66.381l-28.471,-16.175l-57.105,-81.295l-1.598,-21.58l31.971,-57.547l50.352,-39.163Z" style="fill:rgb(66,66,66);fill-rule:nonzero;"/>
                <path id="polygon14" d="M481.727,452.944l-71.932,-18.382l0,374.325l37.564,-73.801l29.518,-66.379l28.473,-16.178l57.101,-81.295l1.599,-21.579l-31.969,-57.547l-50.354,-39.164Z" style="fill:rgb(51,51,51);fill-rule:nonzero;"/>
                <path id="polyline16" d="M361.886,616.429l47.96,-46.887l0,34.229l-47.96,47.827l0,-35.169" style="fill:rgb(76,76,76);fill-rule:nonzero;"/>
                <path id="polygon18" d="M409.881,603.732l-47.957,47.827l10.469,83.625l37.491,73.566l-0.003,-205.018Z" style="fill:rgb(91,91,91);fill-rule:nonzero;"/>
                <path id="polygon20" d="M409.884,808.75l-37.491,-73.566l37.485,-17.672l0.006,91.238Z" style="fill:rgb(51,51,51);fill-rule:nonzero;"/>
                <path id="polygon22" d="M361.924,651.559l0,-35.169l-34.766,-43.958l-41.119,-33.129l-0.043,25.934l21.582,50.752l54.346,35.57Z" style="fill:white;fill-rule:nonzero;"/>
                <path id="polyline24" d="M457.816,616.448l-47.957,-46.887l0,34.229l47.957,47.826l0,-35.168" style="fill:rgb(45,45,45);fill-rule:nonzero;"/>
                <path id="polygon26" d="M409.804,603.732l47.954,47.827l-10.469,83.625l-37.488,73.566l0.003,-205.018Z" style="fill:rgb(53,53,53);fill-rule:nonzero;"/>
                <path id="polygon28" d="M409.801,808.75l37.488,-73.566l-37.482,-17.672l-0.006,91.238Z" style="fill:rgb(25,25,25);fill-rule:nonzero;"/>
                <path id="polygon30" d="M457.758,651.559l0,-35.168l34.765,-43.958l41.122,-33.13l0.041,25.935l-21.578,50.753l-54.35,35.568Z" style="fill:white;fill-rule:nonzero;"/>
                <path id="polyline32" d="M338.399,452.22l71.425,117.329l-0.154,-135.546" style="fill:rgb(56,56,56);fill-rule:nonzero;"/>
                <path id="polyline34" d="M481.271,452.232l-71.425,117.329l0.154,-135.545" style="fill:rgb(45,45,45);fill-rule:nonzero;"/>
                <path id="polygon36" d="M342.815,668.578l19.143,-16.982l10.448,83.674l-29.591,-66.692Z" style="fill:rgb(51,51,51);fill-rule:nonzero;"/>
                <path id="polygon38" d="M476.975,668.989l-19.144,-16.982l-10.448,83.675l29.592,-66.693Z" style="fill:rgb(28,28,28);fill-rule:nonzero;"/>
            </g>
        </g>
    </g>
</svg>
