<svg width="90px" height="380px" version="1.1" xmlns="http://www.w3.org/2000/svg" xmlns:xlink="http://www.w3.org/1999/xlink" xml:space="preserve" xmlns:serif="http://www.serif.com/" style="fill-rule:evenodd;clip-rule:evenodd;stroke-linecap:round;">
  <defs>
    <linearGradient id="_Linear1" x1="0" y1="0" x2="1" y2="0" gradientUnits="userSpaceOnUse" gradientTransform="matrix(89.7114,-379.998,227.268,150,0.288584,379.998)">
      <stop offset="0" style="stop-color:rgb(9,13,17);stop-opacity:1"/>
      <stop offset="1" style="stop-color:rgb(24,35,46);stop-opacity:1"/>
    </linearGradient>
    <linearGradient id="_Linear2" x1="0" y1="0" x2="1" y2="0" gradientUnits="userSpaceOnUse" gradientTransform="matrix(1.76509e-15,-89,28.8261,5.44968e-15,77.6522,197)">
      <stop offset="0" style="stop-color:rgb(156,156,156);stop-opacity:1"/>
      <stop offset="1" style="stop-color:rgb(36,36,36);stop-opacity:1"/>
    </linearGradient>
    <linearGradient id="_Linear3" x1="0" y1="0" x2="1" y2="0" gradientUnits="userSpaceOnUse" gradientTransform="matrix(1.76509e-15,-89,28.8261,5.44968e-15,77.6522,297)">
      <stop offset="0" style="stop-color:rgb(156,156,156);stop-opacity:1"/>
      <stop offset="1" style="stop-color:rgb(36,36,36);stop-opacity:1"/>
    </linearGradient>
  </defs>
  <g id="Panel">
    <rect id="rect9931" x="0.289" y="0" width="89.711" height="380" style="fill:rgb(26,26,26);"/>
    <rect id="rect2024" x="0.289" y="0" width="89.711" height="379.998" style="fill:url(#_Linear1);"/>
    <path d="M85,123.6c0,-8.61 -6.99,-15.6 -15.6,-15.6l-46.8,0c-8.61,0 -15.6,6.99 -15.6,15.6l0,57.8c0,8.61 6.99,15.6 15.6,15.6l46.8,0c8.61,0 15.6,-6.99 15.6,-15.6l0,-57.8Z" style="fill:url(#_Linear2);"/>
    <path d="M84.435,124.158c0,-8.485 -6.889,-15.374 -15.374,-15.374l-46.122,0c-8.485,0 -15.374,6.889 -15.374,15.374l0,56.684c0,8.485 6.889,15.374 15.374,15.374l46.122,0c8.485,0 15.374,-6.889 15.374,-15.374l0,-56.684Z" style="fill:rgb(21,30,39);"/>
    <g id="text9293-4">
      <path d="M63.476,99.477c0,0.21 0.04,0.404 0.119,0.581c0.079,0.178 0.187,0.332 0.322,0.462c0.135,0.131 0.293,0.233 0.472,0.305c0.18,0.072 0.37,0.108 0.571,0.108c0.201,0 0.391,-0.036 0.57,-0.108c0.18,-0.072 0.339,-0.174 0.476,-0.305c0.138,-0.13 0.247,-0.284 0.326,-0.462c0.079,-0.177 0.119,-0.371 0.119,-0.581c0,-0.21 -0.04,-0.403 -0.119,-0.581c-0.079,-0.177 -0.188,-0.331 -0.326,-0.462c-0.137,-0.13 -0.296,-0.232 -0.476,-0.304c-0.179,-0.072 -0.369,-0.109 -0.57,-0.109c-0.201,0 -0.391,0.037 -0.571,0.109c-0.179,0.072 -0.337,0.174 -0.472,0.304c-0.135,0.131 -0.243,0.285 -0.322,0.462c-0.079,0.178 -0.119,0.371 -0.119,0.581Zm-1.435,0c0,-0.392 0.072,-0.757 0.217,-1.095c0.145,-0.338 0.345,-0.634 0.602,-0.886c0.257,-0.252 0.563,-0.449 0.92,-0.591c0.357,-0.142 0.751,-0.214 1.18,-0.214c0.425,0 0.817,0.072 1.176,0.214c0.359,0.142 0.668,0.339 0.927,0.591c0.259,0.252 0.461,0.548 0.606,0.886c0.145,0.338 0.217,0.703 0.217,1.095c0,0.392 -0.072,0.758 -0.217,1.096c-0.145,0.338 -0.347,0.633 -0.606,0.885c-0.259,0.252 -0.568,0.45 -0.927,0.592c-0.359,0.142 -0.751,0.213 -1.176,0.213c-0.429,0 -0.823,-0.071 -1.18,-0.213c-0.357,-0.142 -0.663,-0.34 -0.92,-0.592c-0.257,-0.252 -0.457,-0.547 -0.602,-0.885c-0.145,-0.338 -0.217,-0.704 -0.217,-1.096Z" style="fill:white;fill-rule:nonzero;"/>
      <path d="M72.555,98.602c-0.317,-0.387 -0.709,-0.581 -1.176,-0.581c-0.205,0 -0.396,0.038 -0.571,0.112c-0.175,0.075 -0.325,0.177 -0.451,0.305c-0.126,0.128 -0.225,0.281 -0.298,0.458c-0.072,0.178 -0.108,0.369 -0.108,0.574c0,0.21 0.036,0.404 0.108,0.581c0.073,0.178 0.173,0.332 0.301,0.462c0.129,0.131 0.279,0.234 0.452,0.308c0.173,0.075 0.359,0.112 0.56,0.112c0.439,0 0.833,-0.186 1.183,-0.56l0,1.624l-0.14,0.049c-0.21,0.075 -0.406,0.13 -0.588,0.165c-0.182,0.035 -0.362,0.052 -0.539,0.052c-0.364,0 -0.713,-0.068 -1.047,-0.206c-0.333,-0.138 -0.627,-0.331 -0.882,-0.581c-0.254,-0.25 -0.458,-0.546 -0.612,-0.889c-0.154,-0.343 -0.231,-0.718 -0.231,-1.124c0,-0.406 0.076,-0.778 0.227,-1.116c0.152,-0.338 0.355,-0.63 0.609,-0.875c0.255,-0.245 0.55,-0.436 0.886,-0.574c0.336,-0.138 0.688,-0.207 1.057,-0.207c0.21,0 0.416,0.023 0.619,0.067c0.203,0.044 0.417,0.113 0.641,0.206l0,1.638Z" style="fill:white;fill-rule:nonzero;"/>
      <path d="M75.425,98l0,4.116l-1.372,0l0,-4.116l-1.127,0l0,-1.162l3.626,0l0,1.162l-1.127,0Z" style="fill:white;fill-rule:nonzero;"/>
    </g>
    <g>
      <path id="path8216-1" d="M83.989,88.593c4.17,-7.222 2.537,-16.486 -3.852,-21.847c-6.389,-5.361 -15.795,-5.361 -22.184,0c-6.389,5.361 -8.022,14.625 -3.852,21.847" style="fill:none;stroke:rgb(204,204,204);stroke-width:1.5px;"/>
      <path id="path9948" d="M63.872,65.747l-1.366,-3.81" style="fill:none;stroke:rgb(204,204,204);stroke-width:1.5px;"/>
      <path id="path99481" serif:id="path9948" d="M74.213,65.747l1.493,-3.86" style="fill:none;stroke:rgb(204,204,204);stroke-width:1.5px;"/>
      <path id="path99482" serif:id="path9948" d="M82.707,73.3l3.621,-1.741" style="fill:none;stroke:rgb(204,204,204);stroke-width:1.5px;"/>
      <path id="path99483" serif:id="path9948" d="M83.297,85.093l3.717,1.34" style="fill:none;stroke:rgb(204,204,204);stroke-width:1.5px;"/>
      <path id="path99484" serif:id="path9948" d="M55.418,73.559l-3.719,-1.86" style="fill:none;stroke:rgb(204,204,204);stroke-width:1.5px;"/>
      <path id="path99485" serif:id="path9948" d="M54.767,84.958l-3.764,1.378" style="fill:none;stroke:rgb(204,204,204);stroke-width:1.5px;"/>
      <path id="path9630" d="M83.425,90.411l0.037,6.718" style="fill:rgb(204,204,204);fill-rule:nonzero;stroke:rgb(204,204,204);stroke-width:1.5px;"/>
      <path id="path9630-1" d="M86.802,93.722l-6.718,0.031" style="fill:rgb(204,204,204);fill-rule:nonzero;stroke:rgb(204,204,204);stroke-width:1.5px;"/>
      <path id="path9630-1-6" d="M58.905,93.531l-6.719,0.031" style="fill:rgb(204,204,204);fill-rule:nonzero;stroke:rgb(204,204,204);stroke-width:1.5px;"/>
    </g>
    <g id="text9293-41" serif:id="text9293-4">
      <path d="M15.839,98.463l0,4.116l-1.372,0l0,-4.116l-1.127,0l0,-1.162l3.626,0l0,1.162l-1.127,0Z" style="fill:white;fill-rule:nonzero;"/>
      <path d="M18.947,97.301l0,2.87c0,0.154 0.006,0.312 0.018,0.473c0.011,0.161 0.046,0.307 0.104,0.437c0.059,0.131 0.151,0.237 0.277,0.319c0.126,0.082 0.303,0.122 0.532,0.122c0.229,0 0.405,-0.04 0.529,-0.122c0.123,-0.082 0.215,-0.188 0.276,-0.319c0.061,-0.13 0.097,-0.276 0.108,-0.437c0.012,-0.161 0.018,-0.319 0.018,-0.473l0,-2.87l1.365,0l0,3.059c0,0.822 -0.188,1.421 -0.563,1.799c-0.376,0.378 -0.954,0.567 -1.733,0.567c-0.779,0 -1.358,-0.189 -1.736,-0.567c-0.378,-0.378 -0.567,-0.977 -0.567,-1.799l0,-3.059l1.372,0Z" style="fill:white;fill-rule:nonzero;"/>
      <path d="M23.28,102.579l0,-5.278l1.372,0l2.534,3.227l0,-3.227l1.365,0l0,5.278l-1.365,0l-2.534,-3.227l0,3.227l-1.372,0Z" style="fill:white;fill-rule:nonzero;"/>
      <path d="M32.66,98.463l-1.631,0l0,0.882l1.54,0l0,1.162l-1.54,0l0,0.91l1.631,0l0,1.162l-3.003,0l0,-5.278l3.003,0l0,1.162Z" style="fill:white;fill-rule:nonzero;"/>
    </g>
    <g id="text9293-42" serif:id="text9293-4">
      <path d="M41.332,163.857l0.455,0c0.504,0 0.756,-0.219 0.756,-0.658c0,-0.439 -0.252,-0.658 -0.756,-0.658l-0.455,0l0,1.316Zm0,2.856l-1.372,0l0,-5.278l2.184,0c0.592,0 1.046,0.154 1.361,0.462c0.315,0.308 0.473,0.742 0.473,1.302c0,0.56 -0.158,0.994 -0.473,1.302c-0.315,0.308 -0.769,0.462 -1.361,0.462l-0.812,0l0,1.75Z" style="fill:white;fill-rule:nonzero;"/>
      <path d="M45.588,161.435l0.91,3.409l1.12,-3.409l1.092,0l1.12,3.409l0.91,-3.409l1.435,0l-1.575,5.278l-1.4,0l-1.036,-3.059l-1.036,3.059l-1.4,0l-1.575,-5.278l1.435,0Z" style="fill:white;fill-rule:nonzero;"/>
    </g>
    <g>
      <path id="path8216-1-5-0-2" d="M73.648,187.83c2.739,-4.743 1.666,-10.827 -2.529,-14.347c-4.196,-3.521 -10.374,-3.521 -14.569,0c-4.196,3.52 -5.269,9.604 -2.53,14.347l9.814,-5.666l9.814,5.666Z" style="fill:none;stroke:rgb(204,204,204);stroke-width:1px;"/>
      <path id="path9630-2-6-1" d="M73.278,189.024l0.024,4.412" style="fill:rgb(204,204,204);fill-rule:nonzero;stroke:rgb(204,204,204);stroke-width:1px;"/>
      <path id="path9630-1-1-4-7" d="M75.496,191.198l-4.413,0.02" style="fill:rgb(204,204,204);fill-rule:nonzero;stroke:rgb(204,204,204);stroke-width:1px;"/>
      <path id="path9630-1-6-9-9-2" d="M57.175,191.073l-4.412,0.02" style="fill:rgb(204,204,204);fill-rule:nonzero;stroke:rgb(204,204,204);stroke-width:1px;"/>
      <path id="path9948-9-9-4" d="M63.834,182.166l-0.023,-13.308" style="fill:none;stroke:rgb(204,204,204);stroke-width:1px;"/>
    </g>
    <g id="text7967-9-5">
      <g transform="matrix(1.05877,0,0,1.05877,7.75829,37.7142)">
        <path d="M22.548,-0.519c-0.434,0.419 -0.898,0.629 -1.394,0.629c-0.422,0 -0.765,-0.129 -1.029,-0.387c-0.263,-0.258 -0.395,-0.592 -0.395,-1.003c0,-0.533 0.213,-0.944 0.639,-1.233c0.427,-0.289 1.037,-0.433 1.832,-0.433l0.347,0l0,-0.44c0,-0.501 -0.286,-0.752 -0.857,-0.752c-0.507,0 -1.02,0.144 -1.539,0.431l0,-0.897c0.589,-0.223 1.172,-0.334 1.75,-0.334c1.263,0 1.895,0.503 1.895,1.508l0,2.137c0,0.378 0.122,0.567 0.365,0.567c0.044,0 0.101,-0.005 0.171,-0.017l0.031,0.73c-0.275,0.082 -0.519,0.123 -0.73,0.123c-0.533,0 -0.876,-0.21 -1.029,-0.629l-0.057,0Zm0,-0.699l0,-0.981l-0.308,0c-0.841,0 -1.262,0.264 -1.262,0.792c0,0.179 0.061,0.329 0.183,0.451c0.122,0.121 0.272,0.182 0.451,0.182c0.304,0 0.617,-0.148 0.936,-0.444Z" style="fill:white;fill-rule:nonzero;"/>
        <path d="M25.477,0l0,-4.828l1.301,0l0,0.91c0.425,-0.68 0.973,-1.02 1.645,-1.02c0.431,0 0.771,0.136 1.02,0.409c0.249,0.273 0.374,0.645 0.374,1.117l0,3.412l-1.302,0l0,-3.091c0,-0.548 -0.182,-0.822 -0.545,-0.822c-0.414,0 -0.811,0.291 -1.192,0.875l0,3.038l-1.301,0Z" style="fill:white;fill-rule:nonzero;"/>
        <path d="M33.756,-0.519c-0.433,0.419 -0.898,0.629 -1.394,0.629c-0.422,0 -0.765,-0.129 -1.028,-0.387c-0.264,-0.258 -0.396,-0.592 -0.396,-1.003c0,-0.533 0.213,-0.944 0.64,-1.233c0.426,-0.289 1.037,-0.433 1.831,-0.433l0.347,0l0,-0.44c0,-0.501 -0.285,-0.752 -0.857,-0.752c-0.507,0 -1.02,0.144 -1.539,0.431l0,-0.897c0.589,-0.223 1.173,-0.334 1.75,-0.334c1.263,0 1.895,0.503 1.895,1.508l0,2.137c0,0.378 0.122,0.567 0.365,0.567c0.044,0 0.101,-0.005 0.172,-0.017l0.03,0.73c-0.275,0.082 -0.519,0.123 -0.73,0.123c-0.533,0 -0.876,-0.21 -1.028,-0.629l-0.058,0Zm0,-0.699l0,-0.981l-0.307,0c-0.842,0 -1.262,0.264 -1.262,0.792c0,0.179 0.06,0.329 0.182,0.451c0.122,0.121 0.272,0.182 0.451,0.182c0.305,0 0.617,-0.148 0.936,-0.444Z" style="fill:white;fill-rule:nonzero;"/>
        <rect x="36.685" y="-6.943" width="1.302" height="6.943" style="fill:white;fill-rule:nonzero;"/>
        <path d="M41.64,0.11c-0.753,0 -1.352,-0.228 -1.796,-0.684c-0.444,-0.456 -0.666,-1.069 -0.666,-1.84c0,-0.78 0.223,-1.395 0.671,-1.847c0.447,-0.451 1.054,-0.677 1.822,-0.677c0.771,0 1.38,0.226 1.827,0.677c0.447,0.452 0.671,1.064 0.671,1.838c0,0.792 -0.225,1.412 -0.673,1.86c-0.449,0.449 -1.067,0.673 -1.856,0.673Zm0.022,-0.814c0.748,0 1.122,-0.573 1.122,-1.719c0,-0.525 -0.099,-0.939 -0.297,-1.244c-0.198,-0.305 -0.47,-0.457 -0.816,-0.457c-0.343,0 -0.613,0.152 -0.811,0.457c-0.198,0.305 -0.297,0.722 -0.297,1.253c0,0.525 0.098,0.941 0.295,1.249c0.196,0.308 0.464,0.461 0.804,0.461Z" style="fill:white;fill-rule:nonzero;"/>
        <path d="M45.4,1.499l0.105,-0.945c0.537,0.246 1.048,0.369 1.535,0.369c0.481,0 0.828,-0.102 1.042,-0.307c0.214,-0.206 0.321,-0.538 0.321,-0.999l0,-0.659c-0.317,0.695 -0.84,1.042 -1.57,1.042c-0.574,0 -1.03,-0.215 -1.367,-0.644c-0.337,-0.43 -0.506,-1.011 -0.506,-1.744c0,-0.771 0.189,-1.388 0.567,-1.853c0.378,-0.465 0.881,-0.697 1.509,-0.697c0.492,0 0.948,0.199 1.367,0.598l0.136,-0.488l1.17,0l0,3.685c0,0.736 -0.045,1.266 -0.134,1.592c-0.09,0.325 -0.263,0.602 -0.521,0.831c-0.434,0.375 -1.045,0.562 -1.834,0.562c-0.56,0 -1.166,-0.114 -1.82,-0.343Zm3.003,-3.297l0,-1.781c-0.314,-0.355 -0.642,-0.532 -0.985,-0.532c-0.328,0 -0.589,0.149 -0.783,0.448c-0.193,0.299 -0.29,0.701 -0.29,1.205c0,0.944 0.304,1.416 0.91,1.416c0.42,0 0.802,-0.252 1.148,-0.756Z" style="fill:white;fill-rule:nonzero;"/>
        <path d="M16.166,11.366c-0.754,0 -1.352,-0.227 -1.796,-0.683c-0.444,-0.456 -0.667,-1.07 -0.667,-1.84c0,-0.78 0.224,-1.396 0.671,-1.847c0.447,-0.452 1.055,-0.677 1.823,-0.677c0.771,0 1.38,0.225 1.827,0.677c0.447,0.451 0.67,1.064 0.67,1.838c0,0.791 -0.224,1.411 -0.673,1.86c-0.448,0.448 -1.067,0.672 -1.855,0.672Zm0.022,-0.813c0.747,0 1.121,-0.573 1.121,-1.719c0,-0.525 -0.099,-0.94 -0.297,-1.245c-0.198,-0.305 -0.469,-0.457 -0.815,-0.457c-0.343,0 -0.614,0.152 -0.812,0.457c-0.197,0.305 -0.296,0.723 -0.296,1.254c0,0.524 0.098,0.94 0.294,1.248c0.197,0.308 0.465,0.462 0.805,0.462Z" style="fill:white;fill-rule:nonzero;"/>
        <path d="M19.763,11.103l0,-0.955c0.645,0.27 1.196,0.405 1.653,0.405c0.533,0 0.8,-0.182 0.8,-0.545c0,-0.235 -0.22,-0.44 -0.659,-0.616l-0.44,-0.176c-0.478,-0.193 -0.819,-0.401 -1.025,-0.624c-0.205,-0.223 -0.307,-0.498 -0.307,-0.827c0,-0.457 0.174,-0.812 0.523,-1.066c0.349,-0.254 0.837,-0.38 1.464,-0.38c0.393,0 0.86,0.057 1.403,0.171l0,0.915c-0.522,-0.182 -0.954,-0.273 -1.297,-0.273c-0.54,0 -0.809,0.167 -0.809,0.501c0,0.22 0.199,0.406 0.598,0.559l0.378,0.145c0.566,0.214 0.959,0.431 1.18,0.651c0.222,0.219 0.332,0.502 0.332,0.848c0,0.455 -0.188,0.823 -0.565,1.106c-0.376,0.283 -0.867,0.424 -1.471,0.424c-0.58,0 -1.166,-0.087 -1.758,-0.263Z" style="fill:white;fill-rule:nonzero;"/>
        <path d="M28.544,11.151c-0.54,0.144 -1.04,0.215 -1.5,0.215c-0.771,0 -1.38,-0.226 -1.827,-0.679c-0.447,-0.453 -0.67,-1.069 -0.67,-1.849c0,-0.788 0.23,-1.405 0.69,-1.851c0.46,-0.446 1.096,-0.668 1.908,-0.668c0.393,0 0.846,0.063 1.359,0.189l0,0.941c-0.533,-0.173 -0.96,-0.26 -1.28,-0.26c-0.389,0 -0.703,0.15 -0.94,0.449c-0.238,0.299 -0.357,0.696 -0.357,1.191c0,0.507 0.129,0.913 0.385,1.218c0.257,0.305 0.599,0.458 1.027,0.458c0.39,0 0.791,-0.085 1.205,-0.255l0,0.901Z" style="fill:white;fill-rule:nonzero;"/>
        <path d="M29.775,11.257l0,-4.828l1.301,0l0,4.828l-1.301,0Zm0,-5.642l0,-1.086l1.301,0l0,1.086l-1.301,0Z" style="fill:white;fill-rule:nonzero;"/>
        <rect x="32.703" y="4.314" width="1.302" height="6.943" style="fill:white;fill-rule:nonzero;"/>
        <rect x="35.632" y="4.314" width="1.302" height="6.943" style="fill:white;fill-rule:nonzero;"/>
        <path d="M40.926,10.738c-0.434,0.419 -0.899,0.628 -1.394,0.628c-0.422,0 -0.765,-0.129 -1.029,-0.386c-0.264,-0.258 -0.396,-0.593 -0.396,-1.003c0,-0.534 0.214,-0.945 0.64,-1.233c0.427,-0.289 1.037,-0.434 1.831,-0.434l0.348,0l0,-0.439c0,-0.501 -0.286,-0.752 -0.858,-0.752c-0.507,0 -1.02,0.144 -1.539,0.431l0,-0.897c0.59,-0.223 1.173,-0.334 1.75,-0.334c1.264,0 1.896,0.502 1.896,1.508l0,2.137c0,0.378 0.121,0.567 0.365,0.567c0.043,0 0.101,-0.006 0.171,-0.018l0.031,0.73c-0.276,0.082 -0.519,0.123 -0.73,0.123c-0.534,0 -0.877,-0.209 -1.029,-0.628l-0.057,0Zm0,-0.699l0,-0.981l-0.308,0c-0.841,0 -1.262,0.264 -1.262,0.791c0,0.179 0.061,0.329 0.183,0.451c0.121,0.122 0.271,0.183 0.45,0.183c0.305,0 0.617,-0.148 0.937,-0.444Z" style="fill:white;fill-rule:nonzero;"/>
        <path d="M46.343,11.23c-0.311,0.091 -0.556,0.136 -0.734,0.136c-1.129,0 -1.693,-0.527 -1.693,-1.583l0,-2.541l-0.541,0l0,-0.813l0.541,0l0,-0.814l1.301,-0.149l0,0.963l1.034,0l0,0.813l-1.034,0l0,2.37c0,0.592 0.242,0.888 0.726,0.888c0.111,0 0.245,-0.02 0.4,-0.061l0,0.791Z" style="fill:white;fill-rule:nonzero;"/>
        <path d="M49.531,11.366c-0.753,0 -1.352,-0.227 -1.796,-0.683c-0.444,-0.456 -0.666,-1.07 -0.666,-1.84c0,-0.78 0.223,-1.396 0.67,-1.847c0.447,-0.452 1.055,-0.677 1.823,-0.677c0.771,0 1.38,0.225 1.827,0.677c0.447,0.451 0.67,1.064 0.67,1.838c0,0.791 -0.224,1.411 -0.673,1.86c-0.448,0.448 -1.067,0.672 -1.855,0.672Zm0.022,-0.813c0.747,0 1.121,-0.573 1.121,-1.719c0,-0.525 -0.099,-0.94 -0.297,-1.245c-0.198,-0.305 -0.469,-0.457 -0.815,-0.457c-0.343,0 -0.614,0.152 -0.812,0.457c-0.197,0.305 -0.296,0.723 -0.296,1.254c0,0.524 0.098,0.94 0.294,1.248c0.197,0.308 0.465,0.462 0.805,0.462Z" style="fill:white;fill-rule:nonzero;"/>
        <path d="M53.255,11.257l0,-4.828l1.302,0l0,0.91c0.337,-0.68 0.85,-1.02 1.539,-1.02c0.082,0 0.162,0.008 0.242,0.026l0,1.161c-0.185,-0.068 -0.357,-0.101 -0.515,-0.101c-0.519,0 -0.941,0.262 -1.266,0.787l0,3.065l-1.302,0Z" style="fill:white;fill-rule:nonzero;"/>
      </g>
    </g>
    <g>
      <path d="M27.703,24.283l0.541,0c0.62,0 1.065,-0.08 1.333,-0.239c0.268,-0.16 0.403,-0.415 0.403,-0.768c0,-0.352 -0.135,-0.608 -0.403,-0.767c-0.268,-0.159 -0.713,-0.239 -1.333,-0.239l-0.541,0l0,2.013Zm0,-3.85l0.453,0c0.771,0 1.157,-0.306 1.157,-0.918c0,-0.612 -0.386,-0.918 -1.157,-0.918l-0.453,0l0,1.836Zm-2.466,-3.723l3.673,0c0.873,0 1.535,0.209 1.988,0.629c0.453,0.419 0.679,1.023 0.679,1.811c0,0.478 -0.086,0.875 -0.258,1.189c-0.172,0.315 -0.434,0.581 -0.786,0.799c0.352,0.067 0.652,0.17 0.9,0.308c0.247,0.138 0.448,0.308 0.603,0.51c0.156,0.201 0.267,0.427 0.334,0.679c0.067,0.251 0.1,0.52 0.1,0.805c0,0.444 -0.077,0.839 -0.232,1.183c-0.155,0.343 -0.374,0.633 -0.654,0.868c-0.281,0.234 -0.623,0.41 -1.026,0.528c-0.402,0.117 -0.855,0.176 -1.358,0.176l-3.963,0l0,-9.485Z" style="fill:rgb(173,182,189);fill-rule:nonzero;"/>
      <path d="M36.408,16.71l0,7.397l2.956,0l0,2.088l-5.422,0l0,-9.485l2.466,0Z" style="fill:rgb(173,182,189);fill-rule:nonzero;"/>
      <path d="M46.031,18.798l-2.931,0l0,1.585l2.768,0l0,2.088l-2.768,0l0,1.636l2.931,0l0,2.088l-5.396,0l0,-9.485l5.396,0l0,2.088Z" style="fill:rgb(173,182,189);fill-rule:nonzero;"/>
      <path d="M52.963,22.673l-1.107,-3.158l-1.107,3.158l2.214,0Zm0.654,1.874l-3.522,0l-0.566,1.648l-2.63,0l3.611,-9.485l2.692,0l3.61,9.485l-2.629,0l-0.566,-1.648Z" style="fill:rgb(173,182,189);fill-rule:nonzero;"/>
      <path d="M60.36,20.622l3.006,-3.912l3.045,0l-3.762,4.491l4.114,4.994l-3.195,0l-3.208,-4.114l0,4.114l-2.466,0l0,-9.485l2.466,0l0,3.912Z" style="fill:rgb(173,182,189);fill-rule:nonzero;"/>
    </g>
    <g>
      <path id="path1274" d="M67.071,147.79c5.878,-10.185 3.577,-23.246 -5.431,-30.805c-9.007,-7.555 -22.273,-7.555 -31.28,0c-9.008,7.559 -11.309,20.62 -5.431,30.805" style="fill:none;stroke:rgb(204,204,204);stroke-width:1.5px;stroke-linejoin:miter;"/>
      <circle id="circle1277" cx="27.861" cy="157.057" r="3.706" style="fill:none;stroke:rgb(204,204,204);stroke-width:1px;stroke-linecap:butt;stroke-linejoin:miter;"/>
      <circle id="circle1280" cx="65.64" cy="156.545" r="3.706" style="fill:rgb(204,204,204);stroke:rgb(204,204,204);stroke-width:1px;stroke-linecap:butt;stroke-linejoin:miter;"/>
    </g>
    <path d="M79.321,317.522c0,-4.116 -3.342,-7.458 -7.458,-7.458l-14.916,0c-4.117,0 -7.459,3.342 -7.459,7.458l0,20.903c0,4.116 3.342,7.458 7.459,7.458l14.916,0c4.116,0 7.458,-3.342 7.458,-7.458l0,-20.903Z" style="stroke:rgb(64,75,84);stroke-width:1px;stroke-linecap:butt;stroke-linejoin:round;stroke-miterlimit:1.5;"/>
    <g id="text9293-43" serif:id="text9293-4">
      <path d="M15.403,339.394l1.274,3.213l1.281,-3.213l1.491,0l-2.226,5.278l-1.092,0l-2.219,-5.278l1.491,0Z" style="fill:white;fill-rule:nonzero;"/>
      <path d="M22.319,338.862l1.001,0l-2.884,7.021l-0.994,0l2.877,-7.021Z" style="fill:white;fill-rule:nonzero;"/>
      <path d="M24.874,342.033c0,0.21 0.04,0.404 0.119,0.581c0.08,0.178 0.187,0.332 0.322,0.462c0.136,0.131 0.293,0.232 0.473,0.305c0.18,0.072 0.37,0.108 0.57,0.108c0.201,0 0.391,-0.036 0.571,-0.108c0.18,-0.073 0.338,-0.174 0.476,-0.305c0.138,-0.13 0.246,-0.284 0.325,-0.462c0.08,-0.177 0.119,-0.371 0.119,-0.581c0,-0.21 -0.039,-0.403 -0.119,-0.581c-0.079,-0.177 -0.187,-0.331 -0.325,-0.462c-0.138,-0.13 -0.296,-0.232 -0.476,-0.304c-0.18,-0.073 -0.37,-0.109 -0.571,-0.109c-0.2,0 -0.39,0.036 -0.57,0.109c-0.18,0.072 -0.337,0.174 -0.473,0.304c-0.135,0.131 -0.242,0.285 -0.322,0.462c-0.079,0.178 -0.119,0.371 -0.119,0.581Zm-1.435,0c0,-0.392 0.073,-0.757 0.217,-1.095c0.145,-0.339 0.346,-0.634 0.602,-0.886c0.257,-0.252 0.564,-0.449 0.921,-0.591c0.357,-0.143 0.75,-0.214 1.179,-0.214c0.425,0 0.817,0.071 1.176,0.214c0.36,0.142 0.669,0.339 0.928,0.591c0.259,0.252 0.461,0.547 0.605,0.886c0.145,0.338 0.217,0.703 0.217,1.095c0,0.392 -0.072,0.757 -0.217,1.096c-0.144,0.338 -0.346,0.633 -0.605,0.885c-0.259,0.252 -0.568,0.449 -0.928,0.592c-0.359,0.142 -0.751,0.213 -1.176,0.213c-0.429,0 -0.822,-0.071 -1.179,-0.213c-0.357,-0.143 -0.664,-0.34 -0.921,-0.592c-0.256,-0.252 -0.457,-0.547 -0.602,-0.885c-0.144,-0.339 -0.217,-0.704 -0.217,-1.096Z" style="fill:white;fill-rule:nonzero;"/>
      <path d="M33.953,341.158c-0.317,-0.387 -0.709,-0.581 -1.176,-0.581c-0.205,0 -0.395,0.038 -0.57,0.112c-0.175,0.075 -0.326,0.176 -0.452,0.305c-0.126,0.128 -0.225,0.281 -0.297,0.458c-0.072,0.178 -0.109,0.369 -0.109,0.574c0,0.21 0.037,0.404 0.109,0.581c0.072,0.178 0.173,0.332 0.301,0.462c0.128,0.131 0.279,0.234 0.451,0.308c0.173,0.075 0.36,0.112 0.56,0.112c0.439,0 0.833,-0.186 1.183,-0.56l0,1.624l-0.14,0.049c-0.21,0.075 -0.406,0.13 -0.588,0.165c-0.182,0.035 -0.361,0.052 -0.539,0.052c-0.364,0 -0.712,-0.069 -1.046,-0.206c-0.334,-0.138 -0.628,-0.332 -0.882,-0.581c-0.254,-0.25 -0.459,-0.546 -0.613,-0.889c-0.154,-0.343 -0.231,-0.718 -0.231,-1.124c0,-0.406 0.076,-0.778 0.228,-1.116c0.152,-0.339 0.355,-0.63 0.609,-0.875c0.254,-0.245 0.549,-0.437 0.885,-0.574c0.336,-0.138 0.689,-0.207 1.057,-0.207c0.21,0 0.417,0.022 0.62,0.067c0.203,0.044 0.416,0.113 0.64,0.206l0,1.638Z" style="fill:white;fill-rule:nonzero;"/>
      <path d="M36.823,340.556l0,4.116l-1.372,0l0,-4.116l-1.127,0l0,-1.162l3.626,0l0,1.162l-1.127,0Z" style="fill:white;fill-rule:nonzero;"/>
    </g>
    <g id="text9293-44" serif:id="text9293-4">
      <path d="M58.162,342.097c0,0.21 0.039,0.404 0.119,0.581c0.079,0.178 0.186,0.332 0.322,0.462c0.135,0.131 0.292,0.232 0.472,0.305c0.18,0.072 0.37,0.108 0.571,0.108c0.2,0 0.39,-0.036 0.57,-0.108c0.18,-0.073 0.338,-0.174 0.476,-0.305c0.138,-0.13 0.246,-0.284 0.326,-0.462c0.079,-0.177 0.119,-0.371 0.119,-0.581c0,-0.21 -0.04,-0.403 -0.119,-0.581c-0.08,-0.177 -0.188,-0.331 -0.326,-0.462c-0.138,-0.13 -0.296,-0.232 -0.476,-0.304c-0.18,-0.073 -0.37,-0.109 -0.57,-0.109c-0.201,0 -0.391,0.036 -0.571,0.109c-0.18,0.072 -0.337,0.174 -0.472,0.304c-0.136,0.131 -0.243,0.285 -0.322,0.462c-0.08,0.178 -0.119,0.371 -0.119,0.581Zm-1.435,0c0,-0.392 0.072,-0.757 0.217,-1.095c0.144,-0.339 0.345,-0.634 0.602,-0.886c0.256,-0.252 0.563,-0.449 0.92,-0.591c0.357,-0.143 0.75,-0.214 1.18,-0.214c0.424,0 0.816,0.071 1.176,0.214c0.359,0.142 0.668,0.339 0.927,0.591c0.259,0.252 0.461,0.547 0.606,0.886c0.144,0.338 0.217,0.703 0.217,1.095c0,0.392 -0.073,0.757 -0.217,1.096c-0.145,0.338 -0.347,0.633 -0.606,0.885c-0.259,0.252 -0.568,0.449 -0.927,0.592c-0.36,0.142 -0.752,0.213 -1.176,0.213c-0.43,0 -0.823,-0.071 -1.18,-0.213c-0.357,-0.143 -0.664,-0.34 -0.92,-0.592c-0.257,-0.252 -0.458,-0.547 -0.602,-0.885c-0.145,-0.339 -0.217,-0.704 -0.217,-1.096Z" style="fill:white;fill-rule:nonzero;"/>
      <path d="M64.812,339.458l0,2.87c0,0.154 0.005,0.312 0.017,0.473c0.012,0.161 0.047,0.307 0.105,0.437c0.058,0.131 0.151,0.237 0.277,0.319c0.126,0.081 0.303,0.122 0.532,0.122c0.228,0 0.404,-0.041 0.528,-0.122c0.124,-0.082 0.216,-0.188 0.277,-0.319c0.06,-0.13 0.096,-0.276 0.108,-0.437c0.012,-0.161 0.018,-0.319 0.018,-0.473l0,-2.87l1.365,0l0,3.059c0,0.822 -0.188,1.421 -0.564,1.799c-0.376,0.378 -0.953,0.567 -1.732,0.567c-0.78,0 -1.358,-0.189 -1.736,-0.567c-0.378,-0.378 -0.567,-0.977 -0.567,-1.799l0,-3.059l1.372,0Z" style="fill:white;fill-rule:nonzero;"/>
      <path d="M71.147,340.62l0,4.116l-1.372,0l0,-4.116l-1.127,0l0,-1.162l3.626,0l0,1.162l-1.127,0Z" style="fill:white;fill-rule:nonzero;"/>
    </g>
    <g>
      <path id="path42" d="M33.395,368.094l1.751,0l1.632,5.451l1.687,-5.451l1.743,0l-2.268,6.814c-0.212,0.628 -0.591,0.942 -1.139,0.942c-0.555,0 -0.938,-0.317 -1.15,-0.952l-2.256,-6.804Z" style="fill:rgb(173,181,187);fill-rule:nonzero;"/>
      <path id="path44" d="M40.339,373.856l0,-5.762l1.643,0l0,5.707c0.029,0.205 0.219,0.307 0.57,0.307l1.117,0c0.336,0 0.522,-0.095 0.559,-0.285l0.011,-0.054l0,-5.675l1.643,0l0,5.751c0,0.504 -0.055,0.862 -0.165,1.074c-0.292,0.562 -0.806,0.843 -1.544,0.843l-2.125,0c-0.76,0 -1.278,-0.288 -1.556,-0.865c-0.102,-0.212 -0.153,-0.559 -0.153,-1.041l0,0Z" style="fill:rgb(173,181,187);fill-rule:nonzero;"/>
      <path id="path46" d="M46.638,373.889l0,-5.794l1.643,0l0,5.663c0,0.233 0.138,0.35 0.416,0.35l2.925,0l-0.011,1.654l-3.057,0c-0.109,0 -0.204,-0.004 -0.284,-0.011c-0.592,-0.051 -1.012,-0.224 -1.26,-0.52c-0.248,-0.296 -0.372,-0.743 -0.372,-1.342l0,0Z" style="fill:rgb(173,181,187);fill-rule:nonzero;"/>
      <path id="path48" d="M51.676,369.748l0,-1.654l4.929,0l0,1.654l-1.654,0l0,6.014l-1.643,0l0,-6.014l-1.632,0Z" style="fill:rgb(173,181,187);fill-rule:nonzero;"/>
      <path id="path4" d="M53.383,358.417c0,-4.509 -3.655,-8.164 -8.164,-8.164c-4.509,0 -8.165,3.655 -8.165,8.164c0,4.509 3.655,8.165 8.165,8.165c4.509,0 8.164,-3.656 8.164,-8.165Z" style="fill:rgb(117,117,117);fill-rule:nonzero;stroke:rgb(65,76,85);stroke-width:0.61px;stroke-linecap:butt;stroke-linejoin:miter;stroke-miterlimit:10;"/>
      <path id="polygon6" d="M43.321,363.394l0.553,-0.891l-1.064,-2.393l-2.216,-2.284l0.46,3.101l0.597,1.28l0.833,1.264l0.837,-0.077Z" style="fill:rgb(43,43,43);fill-rule:nonzero;"/>
      <path id="polygon8" d="M47.048,363.401l-0.553,-0.89l1.064,-2.393l2.216,-2.285l-0.46,3.101l-0.597,1.281l-0.833,1.263l-0.837,-0.077Z" style="fill:rgb(38,38,38);fill-rule:nonzero;"/>
      <path id="polygon12" d="M42.636,352.359l2.584,-0.66l0,13.447l-1.349,-2.651l-1.061,-2.385l-1.022,-0.581l-2.052,-2.92l-0.057,-0.776l1.148,-2.067l1.809,-1.407Z" style="fill:rgb(66,66,66);fill-rule:nonzero;"/>
      <path id="polygon14" d="M47.801,352.364l-2.584,-0.661l0,13.448l1.35,-2.651l1.06,-2.385l1.023,-0.581l2.051,-2.921l0.058,-0.775l-1.149,-2.067l-1.809,-1.407Z" style="fill:rgb(51,51,51);fill-rule:nonzero;"/>
      <path id="polyline16" d="M43.496,358.237l1.723,-1.684l0,1.229l-1.723,1.719l0,-1.264" style="fill:rgb(76,76,76);fill-rule:nonzero;"/>
      <path id="polygon18" d="M45.22,357.781l-1.723,1.718l0.377,3.004l1.346,2.643l0,-7.365Z" style="fill:rgb(91,91,91);fill-rule:nonzero;"/>
      <path id="polygon20" d="M45.22,365.146l-1.346,-2.643l1.346,-0.635l0,3.278Z" style="fill:rgb(51,51,51);fill-rule:nonzero;"/>
      <path id="polygon22" d="M43.497,359.499l0,-1.263l-1.249,-1.58l-1.477,-1.19l-0.001,0.932l0.775,1.823l1.952,1.278Z" style="fill:white;fill-rule:nonzero;"/>
      <path id="polyline24" d="M46.942,358.238l-1.722,-1.685l0,1.23l1.722,1.718l0,-1.263" style="fill:rgb(45,45,45);fill-rule:nonzero;"/>
      <path id="polygon26" d="M45.218,357.781l1.722,1.718l-0.376,3.004l-1.347,2.643l0.001,-7.365Z" style="fill:rgb(53,53,53);fill-rule:nonzero;"/>
      <path id="polygon28" d="M45.217,365.146l1.347,-2.643l-1.346,-0.635l-0.001,3.278Z" style="fill:rgb(25,25,25);fill-rule:nonzero;"/>
      <path id="polygon30" d="M46.94,359.499l0,-1.263l1.249,-1.58l1.478,-1.19l0.001,0.932l-0.775,1.823l-1.953,1.278Z" style="fill:white;fill-rule:nonzero;"/>
      <path id="polyline32" d="M42.652,352.338l2.566,4.215l-0.005,-4.87" style="fill:rgb(56,56,56);fill-rule:nonzero;"/>
      <path id="polyline34" d="M47.785,352.338l-2.566,4.215l0.006,-4.869" style="fill:rgb(45,45,45);fill-rule:nonzero;"/>
      <path id="polygon36" d="M42.811,360.111l0.688,-0.611l0.375,3.006l-1.063,-2.395Z" style="fill:rgb(51,51,51);fill-rule:nonzero;"/>
      <path id="polygon38" d="M47.631,360.125l-0.688,-0.61l-0.375,3.006l1.063,-2.396Z" style="fill:rgb(28,28,28);fill-rule:nonzero;"/>
    </g>
    <g>
      <path id="path8216-11" serif:id="path8216-1" d="M37.687,88.765c4.17,-7.222 2.537,-16.486 -3.852,-21.847c-6.389,-5.361 -15.795,-5.361 -22.184,0c-6.389,5.361 -8.023,14.625 -3.853,21.847" style="fill:none;stroke:rgb(204,204,204);stroke-width:1.5px;"/>
      <path id="path96301" serif:id="path9630" d="M37.122,90.583l0.037,6.718" style="fill:rgb(204,204,204);fill-rule:nonzero;stroke:rgb(204,204,204);stroke-width:1.5px;"/>
      <path id="path9630-11" serif:id="path9630-1" d="M40.5,93.894l-6.719,0.031" style="fill:rgb(204,204,204);fill-rule:nonzero;stroke:rgb(204,204,204);stroke-width:1.5px;"/>
      <path id="path9630-1-61" serif:id="path9630-1-6" d="M12.603,93.703l-6.719,0.031" style="fill:rgb(204,204,204);fill-rule:nonzero;stroke:rgb(204,204,204);stroke-width:1.5px;"/>
      <path id="path99486" serif:id="path9948" d="M22.708,65.906l0,-6.121" style="fill:none;stroke:rgb(204,204,204);stroke-width:1.5px;"/>
    </g>
    <path d="M85,223.6c0,-8.61 -6.99,-15.6 -15.6,-15.6l-46.8,0c-8.61,0 -15.6,6.99 -15.6,15.6l0,57.8c0,8.61 6.99,15.6 15.6,15.6l46.8,0c8.61,0 15.6,-6.99 15.6,-15.6l0,-57.8Z" style="fill:url(#_Linear3);"/>
    <path d="M84.435,224.158c0,-8.485 -6.889,-15.374 -15.374,-15.374l-46.122,0c-8.485,0 -15.374,6.889 -15.374,15.374l0,56.684c0,8.485 6.889,15.374 15.374,15.374l46.122,0c8.485,0 15.374,-6.889 15.374,-15.374l0,-56.684Z" style="fill:rgb(21,30,39);"/>
    <g id="text9293-45" serif:id="text9293-4">
      <path d="M35.842,261.435l0.91,3.409l1.12,-3.409l1.092,0l1.12,3.409l0.91,-3.409l1.435,0l-1.575,5.278l-1.4,0l-1.036,-3.059l-1.036,3.059l-1.4,0l-1.575,-5.278l1.435,0Z" style="fill:white;fill-rule:nonzero;"/>
      <path d="M45.572,264.753l-0.616,-1.757l-0.616,1.757l1.232,0Zm0.364,1.043l-1.96,0l-0.315,0.917l-1.463,0l2.009,-5.278l1.498,0l2.009,5.278l-1.463,0l-0.315,-0.917Z" style="fill:white;fill-rule:nonzero;"/>
      <path d="M48.848,261.435l1.274,3.213l1.281,-3.213l1.491,0l-2.226,5.278l-1.092,0l-2.219,-5.278l1.491,0Z" style="fill:white;fill-rule:nonzero;"/>
      <path d="M56.45,262.597l-1.631,0l0,0.882l1.54,0l0,1.162l-1.54,0l0,0.91l1.631,0l0,1.162l-3.003,0l0,-5.278l3.003,0l0,1.162Z" style="fill:white;fill-rule:nonzero;"/>
    </g>
    <g>
      <path id="path8216-1-5-0-21" serif:id="path8216-1-5-0-2" d="M73.648,287.83c2.739,-4.743 1.666,-10.827 -2.529,-14.347c-4.196,-3.521 -10.374,-3.521 -14.569,0c-4.196,3.52 -5.269,9.604 -2.53,14.347l9.814,-5.666l9.814,5.666Z" style="fill:none;stroke:rgb(204,204,204);stroke-width:1px;"/>
      <path id="path9630-2-6-11" serif:id="path9630-2-6-1" d="M73.278,289.024l0.024,4.412" style="fill:rgb(204,204,204);fill-rule:nonzero;stroke:rgb(204,204,204);stroke-width:1px;"/>
      <path id="path9630-1-1-4-71" serif:id="path9630-1-1-4-7" d="M75.496,291.198l-4.413,0.02" style="fill:rgb(204,204,204);fill-rule:nonzero;stroke:rgb(204,204,204);stroke-width:1px;"/>
      <path id="path9630-1-6-9-9-21" serif:id="path9630-1-6-9-9-2" d="M57.175,291.073l-4.412,0.02" style="fill:rgb(204,204,204);fill-rule:nonzero;stroke:rgb(204,204,204);stroke-width:1px;"/>
      <path id="path9948-9-9-41" serif:id="path9948-9-9-4" d="M63.834,282.166l-0.023,-13.308" style="fill:none;stroke:rgb(204,204,204);stroke-width:1px;"/>
    </g>
    <g>
      <path id="path12741" serif:id="path1274" d="M67.071,247.79c5.878,-10.185 3.577,-23.246 -5.431,-30.805c-9.007,-7.555 -22.273,-7.555 -31.28,0c-9.008,7.559 -11.309,20.62 -5.431,30.805" style="fill:none;stroke:rgb(204,204,204);stroke-width:1.5px;stroke-linejoin:miter;"/>
      <circle id="circle12771" serif:id="circle1277" cx="27.861" cy="257.057" r="3.706" style="fill:none;stroke:rgb(204,204,204);stroke-width:1px;stroke-linecap:butt;stroke-linejoin:miter;"/>
      <circle id="circle12801" serif:id="circle1280" cx="65.64" cy="256.545" r="3.706" style="fill:rgb(204,204,204);stroke:rgb(204,204,204);stroke-width:1px;stroke-linecap:butt;stroke-linejoin:miter;"/>
    </g>
  </g>
</svg>