<?xml version="1.0" encoding="UTF-8" standalone="no"?>
<!DOCTYPE svg PUBLIC "-//W3C//DTD SVG 1.1//EN" "http://www.w3.org/Graphics/SVG/1.1/DTD/svg11.dtd">
<svg width="17" height="16" viewBox="0 0 17 16" version="1.1" 
   xmlns="http://www.w3.org/2000/svg" 
   xmlns:xlink="http://www.w3.org/1999/xlink" xml:space="preserve" style="fill-rule:evenodd;clip-rule:evenodd;stroke-linecap:round;stroke-linejoin:round;stroke-miterlimit:1.5;">
   <g transform="matrix(1,0,0,1,-76.3043,-301.143)">
      <g transform="matrix(1,0,0,1,-0.0233391,8.20073)">
         <g transform="matrix(1.03804,0,0,1.04192,-3.4632,-29.2585)">
            <path d="M92.788,312.7c0,-1.536 -1.251,-2.782 -2.792,-2.782l-9.881,0c-1.541,0 -2.793,1.246 -2.793,2.782l0,8.433c0,1.536 1.252,2.783 2.793,2.783l9.881,0c1.541,0 2.792,-1.247 2.792,-2.783l0,-8.433Z" style="stroke:rgb(38,38,38);stroke-width:0.96px;"/>
         </g>
         <g transform="matrix(1.02667,0,0,1.13251,-2.85617,-57.5662)">
            <path d="M92.322,313.746c0,-1.541 -1.381,-2.792 -3.081,-2.792l-7.626,0c-1.7,0 -3.08,1.251 -3.08,2.792l0,5.586c0,1.541 1.38,2.792 3.08,2.792l7.626,0c1.7,0 3.081,-1.251 3.081,-2.792l0,-5.586Z" style="fill:rgb(38,38,38);stroke:rgb(102,102,102);stroke-width:0.79px;"/>
         </g>
         <g transform="matrix(0.925979,0,0,0.991131,5.74596,-12.8123)">
            <path d="M92.322,313.042c0,-1.153 -1.002,-2.088 -2.236,-2.088l-9.316,0c-1.234,0 -2.235,0.935 -2.235,2.088l0,6.994c0,1.153 1.001,2.088 2.235,2.088l9.316,0c1.234,0 2.236,-0.935 2.236,-2.088l0,-6.994Z" style="fill:rgb(26,26,26);stroke:rgb(51,51,51);stroke-width:0.89px;"/>
         </g>
      </g>
      <g transform="matrix(4.00166,0,0,4.00166,82.2388,311.782)">
         <g id="text9293.-4">
            <path d="M0.481,-0.266l0.075,0c0.087,0 0.148,-0.011 0.186,-0.033c0.037,-0.022 0.056,-0.058 0.056,-0.107c0,-0.049 -0.019,-0.084 -0.056,-0.107c-0.038,-0.022 -0.099,-0.033 -0.186,-0.033l-0.075,0l0,0.28Zm0,-0.535l0.063,0c0.107,0 0.161,-0.043 0.161,-0.128c0,-0.085 -0.054,-0.128 -0.161,-0.128l-0.063,0l0,0.256Zm-0.343,-0.518l0.511,0c0.121,0 0.213,0.029 0.276,0.088c0.063,0.058 0.095,0.142 0.095,0.251c0,0.067 -0.012,0.122 -0.036,0.166c-0.024,0.043 -0.06,0.08 -0.109,0.111c0.049,0.009 0.09,0.023 0.125,0.043c0.034,0.019 0.062,0.043 0.084,0.07c0.021,0.028 0.037,0.06 0.046,0.095c0.009,0.035 0.014,0.072 0.014,0.112c0,0.062 -0.011,0.117 -0.032,0.164c-0.022,0.048 -0.052,0.088 -0.091,0.121c-0.039,0.033 -0.087,0.057 -0.143,0.074c-0.056,0.016 -0.119,0.024 -0.189,0.024l-0.551,0l0,-1.319Z" style="fill:white;fill-rule:nonzero;"/>
         </g>
      </g>
   </g>
</svg>