<?xml version="1.0" encoding="UTF-8" standalone="no"?>
<!DOCTYPE svg PUBLIC "-//W3C//DTD SVG 1.1//EN" "http://www.w3.org/Graphics/SVG/1.1/DTD/svg11.dtd">
<svg width="17" height="16" viewBox="0 0 17 16" version="1.1" 
   xmlns="http://www.w3.org/2000/svg" 
   xmlns:xlink="http://www.w3.org/1999/xlink" xml:space="preserve" style="fill-rule:evenodd;clip-rule:evenodd;stroke-linecap:round;stroke-linejoin:round;stroke-miterlimit:1.5;">
   <g transform="matrix(1,0,0,1,-76.3043,-301.143)">
      <g transform="matrix(1,0,0,1,-0.0233391,8.20073)">
         <g transform="matrix(1.03804,0,0,1.04192,-3.4632,-29.2585)">
            <path d="M92.788,312.7c0,-1.536 -1.251,-2.782 -2.792,-2.782l-9.881,0c-1.541,0 -2.793,1.246 -2.793,2.782l0,8.433c0,1.536 1.252,2.783 2.793,2.783l9.881,0c1.541,0 2.792,-1.247 2.792,-2.783l0,-8.433Z" style="stroke:rgb(38,38,38);stroke-width:0.96px;"/>
         </g>
         <g transform="matrix(1.02667,0,0,1.13251,-2.85617,-57.5662)">
            <path d="M92.322,313.746c0,-1.541 -1.381,-2.792 -3.081,-2.792l-7.626,0c-1.7,0 -3.08,1.251 -3.08,2.792l0,5.586c0,1.541 1.38,2.792 3.08,2.792l7.626,0c1.7,0 3.081,-1.251 3.081,-2.792l0,-5.586Z" style="fill:rgb(38,38,38);stroke:rgb(102,102,102);stroke-width:0.79px;"/>
         </g>
         <g transform="matrix(0.925979,0,0,0.991131,5.74596,-12.8123)">
            <path d="M92.322,313.042c0,-1.153 -1.002,-2.088 -2.236,-2.088l-9.316,0c-1.234,0 -2.235,0.935 -2.235,2.088l0,6.994c0,1.153 1.001,2.088 2.235,2.088l9.316,0c1.234,0 2.236,-0.935 2.236,-2.088l0,-6.994Z" style="fill:rgb(26,26,26);stroke:rgb(51,51,51);stroke-width:0.89px;"/>
         </g>
      </g>
      <g transform="matrix(4.00166,0,0,4.00166,81.9973,311.782)">
         <g id="text9293.-4">
            <path d="M0.481,-0.29l0.079,0c0.059,0 0.112,-0.01 0.159,-0.028c0.047,-0.019 0.086,-0.045 0.118,-0.077c0.032,-0.033 0.057,-0.072 0.073,-0.117c0.017,-0.045 0.026,-0.094 0.026,-0.147c0,-0.053 -0.009,-0.102 -0.026,-0.147c-0.018,-0.046 -0.043,-0.085 -0.075,-0.118c-0.032,-0.032 -0.071,-0.058 -0.118,-0.077c-0.046,-0.018 -0.099,-0.028 -0.157,-0.028l-0.079,0l0,0.739Zm-0.343,-1.029l0.507,0c0.09,0 0.175,0.018 0.253,0.054c0.079,0.036 0.148,0.085 0.207,0.145c0.059,0.06 0.105,0.13 0.139,0.21c0.034,0.079 0.05,0.163 0.05,0.251c0,0.086 -0.016,0.169 -0.049,0.249c-0.034,0.08 -0.08,0.15 -0.139,0.211c-0.058,0.06 -0.127,0.109 -0.206,0.145c-0.079,0.036 -0.164,0.054 -0.255,0.054l-0.507,0l0,-1.319Z" style="fill:rgb(204,204,204);fill-rule:nonzero;"/>
         </g>
      </g>
   </g>
</svg>