<?xml version="1.0" encoding="UTF-8" standalone="no"?>
<!DOCTYPE svg PUBLIC "-//W3C//DTD SVG 1.1//EN" "http://www.w3.org/Graphics/SVG/1.1/DTD/svg11.dtd">
<svg width="17" height="16" viewBox="0 0 17 16" version="1.1" 
   xmlns="http://www.w3.org/2000/svg" 
   xmlns:xlink="http://www.w3.org/1999/xlink" xml:space="preserve" style="fill-rule:evenodd;clip-rule:evenodd;stroke-linecap:round;stroke-linejoin:round;stroke-miterlimit:1.5;">
   <g transform="matrix(1,0,0,1,-76.3043,-301.143)">
      <g transform="matrix(1,0,0,1,-0.0233391,8.20073)">
         <g transform="matrix(1.03804,0,0,1.04192,-3.4632,-29.2585)">
            <path d="M92.788,312.7c0,-1.536 -1.251,-2.782 -2.792,-2.782l-9.881,0c-1.541,0 -2.793,1.246 -2.793,2.782l0,8.433c0,1.536 1.252,2.783 2.793,2.783l9.881,0c1.541,0 2.792,-1.247 2.792,-2.783l0,-8.433Z" style="stroke:rgb(38,38,38);stroke-width:0.96px;"/>
         </g>
         <g transform="matrix(1.02667,0,0,1.13251,-2.85617,-57.5662)">
            <path d="M92.322,313.746c0,-1.541 -1.381,-2.792 -3.081,-2.792l-7.626,0c-1.7,0 -3.08,1.251 -3.08,2.792l0,5.586c0,1.541 1.38,2.792 3.08,2.792l7.626,0c1.7,0 3.081,-1.251 3.081,-2.792l0,-5.586Z" style="fill:rgb(38,38,38);stroke:rgb(102,102,102);stroke-width:0.79px;"/>
         </g>
         <g transform="matrix(0.925979,0,0,0.991131,5.74596,-12.8123)">
            <path d="M92.322,313.042c0,-1.153 -1.002,-2.088 -2.236,-2.088l-9.316,0c-1.234,0 -2.235,0.935 -2.235,2.088l0,6.994c0,1.153 1.001,2.088 2.235,2.088l9.316,0c1.234,0 2.236,-0.935 2.236,-2.088l0,-6.994Z" style="fill:rgb(26,26,26);stroke:rgb(51,51,51);stroke-width:0.89px;"/>
         </g>
      </g>
      <g transform="matrix(4.00166,0,0,4.00166,81.9973,311.782)">
         <g id="text9293.-4">
            <path d="M1.088,-0.878c-0.079,-0.097 -0.177,-0.145 -0.294,-0.145c-0.051,0 -0.099,0.009 -0.142,0.028c-0.044,0.018 -0.082,0.044 -0.113,0.076c-0.032,0.032 -0.056,0.07 -0.075,0.114c-0.018,0.045 -0.027,0.092 -0.027,0.144c0,0.052 0.009,0.101 0.027,0.145c0.019,0.044 0.044,0.083 0.076,0.115c0.032,0.033 0.069,0.059 0.112,0.077c0.044,0.019 0.09,0.028 0.14,0.028c0.11,0 0.209,-0.046 0.296,-0.14l0,0.406l-0.035,0.013c-0.052,0.018 -0.101,0.032 -0.147,0.041c-0.045,0.008 -0.09,0.013 -0.135,0.013c-0.091,0 -0.178,-0.017 -0.261,-0.052c-0.083,-0.034 -0.157,-0.083 -0.22,-0.145c-0.064,-0.062 -0.115,-0.137 -0.154,-0.222c-0.038,-0.086 -0.057,-0.18 -0.057,-0.281c0,-0.101 0.019,-0.194 0.057,-0.279c0.037,-0.085 0.088,-0.157 0.152,-0.219c0.063,-0.061 0.137,-0.109 0.221,-0.143c0.084,-0.034 0.172,-0.052 0.264,-0.052c0.053,0 0.104,0.006 0.155,0.017c0.051,0.011 0.104,0.028 0.16,0.052l0,0.409Z" style="fill:rgb(204,204,204);fill-rule:nonzero;"/>
         </g>
      </g>
   </g>
</svg>