<svg width="150px" height="380px" version="1.1" xmlns="http://www.w3.org/2000/svg" xmlns:xlink="http://www.w3.org/1999/xlink" xml:space="preserve" xmlns:serif="http://www.serif.com/" style="fill-rule:evenodd;clip-rule:evenodd;stroke-linejoin:round;stroke-miterlimit:1.41421;">
  <defs>
    <linearGradient id="_Linear1" x1="0" y1="0" x2="1" y2="0" gradientUnits="userSpaceOnUse" gradientTransform="matrix(150,-379.998,379.998,150,0.000252945,379.999)">
      <stop offset="0" style="stop-color:rgb(9,13,17);stop-opacity:1"/>
      <stop offset="1" style="stop-color:rgb(24,35,46);stop-opacity:1"/>
    </linearGradient>
    <linearGradient id="_Linear2" x1="0" y1="0" x2="1" y2="0" gradientUnits="userSpaceOnUse" gradientTransform="matrix(3.41944e-15,-55.8438,55.8438,3.41944e-15,141.178,258.844)">
      <stop offset="0" style="stop-color:rgb(155,155,155);stop-opacity:1"/>
      <stop offset="1" style="stop-color:rgb(36,36,36);stop-opacity:0.984314"/>
    </linearGradient>
  </defs>
  <g id="Panel">
    <rect id="rect9931" x="0" y="0" width="150" height="379.998" style="fill:url(#_Linear1);stroke:rgb(26,26,26);stroke-width:0.98px;"/>
    <path id="rect6361" d="M141.178,208c0,-2.76 -2.24,-5 -5,-5l-122.549,0c-2.76,0 -5,2.24 -5,5l0,45.844c0,2.759 2.24,5 5,5l122.549,0c2.76,0 5,-2.241 5,-5l0,-45.844Z" style="fill:url(#_Linear2);"/>
    <path id="rect6361-7" d="M139.609,210c0,-2.76 -2.24,-5 -5,-5l-119.477,0c-2.76,0 -5,2.24 -5,5l0,42.398c0,2.76 2.24,5 5,5l119.477,0c2.76,0 5,-2.24 5,-5l0,-42.398Z" style="fill:rgb(16,23,30);"/>
    <path id="path2021" d="M138.603,271.106c0,-2.961 -2.405,-5.367 -5.368,-5.367l-122.027,0c-2.963,0 -5.368,2.406 -5.368,5.367l0,75.487c0,2.963 2.405,5.367 5.368,5.367l122.027,0c2.963,0 5.368,-2.404 5.368,-5.367l0,-75.487Z" style="fill:rgb(2,2,3);stroke:rgb(65,76,85);stroke-width:1px;"/>
    <path id="path42" d="M64.952,363.601l2.673,0l2.49,8.317l2.574,-8.317l2.66,0l-3.46,10.397c-0.323,0.959 -0.903,1.438 -1.738,1.438c-0.847,0 -1.433,-0.484 -1.755,-1.452l-3.444,-10.383Z" style="fill:rgb(172,181,188);fill-rule:nonzero;"/>
    <path id="path44" d="M75.55,372.394l0,-8.793l2.507,0l0,8.709c0.044,0.312 0.334,0.468 0.869,0.468l1.705,0c0.513,0 0.797,-0.145 0.853,-0.435l0.017,-0.083l0,-8.659l2.507,0l0,8.776c0,0.769 -0.083,1.315 -0.251,1.638c-0.445,0.858 -1.231,1.287 -2.357,1.287l-3.243,0c-1.159,0 -1.95,-0.44 -2.373,-1.32c-0.156,-0.323 -0.234,-0.853 -0.234,-1.588Z" style="fill:rgb(172,181,188);fill-rule:nonzero;"/>
    <path id="path46" d="M85.161,372.444l0,-8.843l2.508,0l0,8.642c0,0.357 0.211,0.535 0.635,0.535l4.463,0l-0.016,2.524l-4.664,0c-0.167,0 -0.312,-0.005 -0.435,-0.016c-0.903,-0.078 -1.544,-0.343 -1.922,-0.794c-0.379,-0.452 -0.569,-1.134 -0.569,-2.048Z" style="fill:rgb(172,181,188);fill-rule:nonzero;"/>
    <path id="path48" d="M92.851,366.125l0,-2.524l7.522,0l0,2.524l-2.524,0l0,9.177l-2.508,0l0,-9.177l-2.49,0Z" style="fill:rgb(172,181,188);fill-rule:nonzero;"/>
    <path id="path4" d="M61.383,369.518c0,-4.509 -3.655,-8.164 -8.164,-8.164c-4.509,0 -8.165,3.655 -8.165,8.164c0,4.51 3.655,8.165 8.165,8.165c4.509,0 8.164,-3.655 8.164,-8.165Z" style="fill:rgb(117,117,117);fill-rule:nonzero;stroke:rgb(65,76,85);stroke-width:0.61px;stroke-linejoin:miter;stroke-miterlimit:10;"/>
    <g id="g40">
      <path id="polygon6" d="M51.321,374.495l0.553,-0.89l-1.064,-2.394l-2.216,-2.284l0.46,3.101l0.597,1.28l0.833,1.264l0.837,-0.077Z" style="fill:rgb(43,43,43);fill-rule:nonzero;stroke:rgb(65,76,85);stroke-width:0.04px;"/>
      <path id="polygon8" d="M55.048,374.502l-0.553,-0.89l1.064,-2.393l2.216,-2.284l-0.46,3.101l-0.597,1.28l-0.833,1.263l-0.837,-0.077Z" style="fill:rgb(38,38,38);fill-rule:nonzero;stroke:rgb(65,76,85);stroke-width:0.04px;"/>
      <path id="polygon12" d="M50.636,363.46l2.584,-0.66l0,13.447l-1.349,-2.651l-1.061,-2.385l-1.022,-0.581l-2.052,-2.92l-0.057,-0.775l1.148,-2.068l1.809,-1.407Z" style="fill:rgb(66,66,66);fill-rule:nonzero;stroke:rgb(65,76,85);stroke-width:0.04px;"/>
      <path id="polygon14" d="M55.801,363.465l-2.584,-0.66l0,13.447l1.35,-2.651l1.06,-2.385l1.023,-0.581l2.051,-2.92l0.058,-0.776l-1.149,-2.067l-1.809,-1.407Z" style="fill:rgb(51,51,51);fill-rule:nonzero;stroke:rgb(65,76,85);stroke-width:0.04px;"/>
      <path id="polyline16" d="M51.496,369.338l1.723,-1.684l0,1.229l-1.723,1.719l0,-1.264" style="fill:rgb(76,76,76);fill-rule:nonzero;stroke:rgb(65,76,85);stroke-width:0.04px;"/>
      <path id="polygon18" d="M53.22,368.882l-1.723,1.718l0.377,3.005l1.346,2.642l0,-7.365Z" style="fill:rgb(91,91,91);fill-rule:nonzero;stroke:rgb(65,76,85);stroke-width:0.04px;"/>
      <path id="polygon20" d="M53.22,376.247l-1.346,-2.642l1.346,-0.635l0,3.277Z" style="fill:rgb(51,51,51);fill-rule:nonzero;stroke:rgb(65,76,85);stroke-width:0.04px;"/>
      <path id="polygon22" d="M51.497,370.6l0,-1.263l-1.249,-1.579l-1.477,-1.191l-0.001,0.932l0.775,1.823l1.952,1.278Z" style="fill:white;fill-rule:nonzero;stroke:rgb(65,76,85);stroke-width:0.04px;"/>
      <path id="polyline24" d="M54.942,369.339l-1.723,-1.685l0,1.23l1.723,1.718l0,-1.263" style="fill:rgb(45,45,45);fill-rule:nonzero;stroke:rgb(65,76,85);stroke-width:0.04px;"/>
      <path id="polygon26" d="M53.218,368.882l1.722,1.718l-0.376,3.005l-1.347,2.642l0.001,-7.365Z" style="fill:rgb(53,53,53);fill-rule:nonzero;stroke:rgb(65,76,85);stroke-width:0.04px;"/>
      <path id="polygon28" d="M53.217,376.247l1.347,-2.642l-1.346,-0.635l-0.001,3.277Z" style="fill:rgb(25,25,25);fill-rule:nonzero;stroke:rgb(65,76,85);stroke-width:0.04px;"/>
      <path id="polygon30" d="M54.94,370.6l0,-1.263l1.249,-1.579l1.478,-1.191l0.001,0.932l-0.775,1.823l-1.953,1.278Z" style="fill:white;fill-rule:nonzero;stroke:rgb(65,76,85);stroke-width:0.04px;"/>
      <path id="polyline32" d="M50.652,363.439l2.566,4.215l-0.005,-4.869" style="fill:rgb(56,56,56);fill-rule:nonzero;stroke:rgb(65,76,85);stroke-width:0.04px;"/>
      <path id="polyline34" d="M55.785,363.439l-2.566,4.215l0.006,-4.869" style="fill:rgb(45,45,45);fill-rule:nonzero;stroke:rgb(65,76,85);stroke-width:0.04px;"/>
      <path id="polygon36" d="M50.811,371.212l0.688,-0.61l0.375,3.006l-1.063,-2.396Z" style="fill:rgb(51,51,51);fill-rule:nonzero;stroke:rgb(65,76,85);stroke-width:0.04px;"/>
      <path id="polygon38" d="M55.631,371.226l-0.688,-0.61l-0.375,3.006l1.063,-2.396Z" style="fill:rgb(28,28,28);fill-rule:nonzero;stroke:rgb(65,76,85);stroke-width:0.04px;"/>
    </g>
    <path id="path2050" d="M14.232,37.714l0,-5.112l1.323,0l0,0.964c0.403,-0.72 0.978,-1.08 1.722,-1.08c0.386,0 0.702,0.094 0.95,0.284c0.249,0.189 0.4,0.455 0.456,0.796c0.478,-0.72 1.056,-1.08 1.733,-1.08c0.933,0 1.4,0.516 1.4,1.546l0,3.682l-1.321,0l0,-3.231c0,-0.605 -0.202,-0.908 -0.606,-0.908c-0.413,0 -0.815,0.298 -1.206,0.894l0,3.245l-1.322,0l0,-3.231c0,-0.608 -0.203,-0.912 -0.61,-0.912c-0.406,0 -0.804,0.299 -1.196,0.898l0,3.245l-1.323,0Z" style="fill:white;fill-rule:nonzero;"/>
    <path id="path2052" d="M27.641,37.542c-0.655,0.192 -1.276,0.289 -1.863,0.289c-0.853,0 -1.526,-0.243 -2.02,-0.727c-0.493,-0.484 -0.74,-1.145 -0.74,-1.983c0,-0.792 0.226,-1.428 0.678,-1.911c0.451,-0.483 1.048,-0.724 1.789,-0.724c0.749,0 1.295,0.236 1.639,0.707c0.344,0.472 0.517,1.219 0.517,2.24l-3.17,0c0.093,0.975 0.628,1.462 1.606,1.462c0.461,0 0.983,-0.107 1.564,-0.321l0,0.968Zm-3.189,-2.887l1.833,0c0,-0.872 -0.28,-1.307 -0.841,-1.307c-0.572,0 -0.902,0.435 -0.992,1.307Z" style="fill:white;fill-rule:nonzero;"/>
    <path id="path2054" d="M32.836,37.602c-0.571,0.152 -1.1,0.229 -1.587,0.229c-0.816,0 -1.461,-0.241 -1.934,-0.719c-0.474,-0.48 -0.711,-1.133 -0.711,-1.958c0,-0.835 0.244,-1.489 0.732,-1.961c0.487,-0.471 1.16,-0.707 2.02,-0.707c0.416,0 0.896,0.067 1.439,0.2l0,0.996c-0.566,-0.183 -1.017,-0.274 -1.355,-0.274c-0.413,0 -0.745,0.158 -0.997,0.475c-0.251,0.316 -0.377,0.736 -0.377,1.262c0,0.536 0.136,0.966 0.408,1.289c0.271,0.323 0.633,0.484 1.086,0.484c0.413,0 0.839,-0.09 1.276,-0.27l0,0.954Z" style="fill:white;fill-rule:nonzero;"/>
    <path id="path2056" d="M34.139,37.714l0,-7.351l1.379,0l0,3.203c0.45,-0.72 1.03,-1.08 1.741,-1.08c0.456,0 0.816,0.144 1.081,0.433c0.263,0.289 0.394,0.683 0.394,1.183l0,3.612l-1.377,0l0,-3.272c0,-0.581 -0.193,-0.871 -0.577,-0.871c-0.438,0 -0.859,0.308 -1.262,0.927l0,3.216l-1.379,0Z" style="fill:white;fill-rule:nonzero;"/>
    <path id="path2058" d="M42.906,37.165c-0.46,0.443 -0.951,0.666 -1.476,0.666c-0.447,0 -0.81,-0.137 -1.089,-0.41c-0.28,-0.273 -0.419,-0.627 -0.419,-1.062c0,-0.564 0.226,-1 0.677,-1.305c0.452,-0.306 1.098,-0.459 1.94,-0.459l0.367,0l0,-0.466c0,-0.53 -0.303,-0.796 -0.907,-0.796c-0.538,0 -1.08,0.152 -1.63,0.456l0,-0.949c0.624,-0.236 1.241,-0.354 1.853,-0.354c1.337,0 2.006,0.533 2.006,1.597l0,2.262c0,0.4 0.129,0.601 0.387,0.601c0.046,0 0.107,-0.006 0.181,-0.018l0.033,0.772c-0.293,0.087 -0.55,0.131 -0.773,0.131c-0.565,0 -0.928,-0.223 -1.09,-0.666l-0.06,0Zm0,-0.74l0,-1.039l-0.326,0c-0.891,0 -1.336,0.279 -1.336,0.839c0,0.189 0.064,0.348 0.193,0.477c0.129,0.128 0.288,0.193 0.477,0.193c0.323,0 0.654,-0.157 0.992,-0.47Z" style="fill:white;fill-rule:nonzero;"/>
    <path id="path2060" d="M46.007,37.714l0,-5.112l1.378,0l0,0.964c0.45,-0.72 1.03,-1.08 1.741,-1.08c0.456,0 0.817,0.144 1.08,0.433c0.264,0.289 0.395,0.683 0.395,1.183l0,3.612l-1.377,0l0,-3.272c0,-0.581 -0.193,-0.871 -0.577,-0.871c-0.439,0 -0.859,0.308 -1.262,0.927l0,3.216l-1.378,0Z" style="fill:white;fill-rule:nonzero;"/>
    <path id="path2062" d="M52.269,37.714l0,-5.112l1.377,0l0,5.112l-1.377,0Zm0,-5.972l0,-1.151l1.377,0l0,1.151l-1.377,0Z" style="fill:white;fill-rule:nonzero;"/>
    <path id="path2064" d="M59.14,37.602c-0.572,0.152 -1.101,0.229 -1.588,0.229c-0.816,0 -1.461,-0.241 -1.934,-0.719c-0.474,-0.48 -0.71,-1.133 -0.71,-1.958c0,-0.835 0.244,-1.489 0.731,-1.961c0.487,-0.471 1.16,-0.707 2.02,-0.707c0.416,0 0.896,0.067 1.439,0.2l0,0.996c-0.565,-0.183 -1.017,-0.274 -1.354,-0.274c-0.413,0 -0.746,0.158 -0.997,0.475c-0.252,0.316 -0.378,0.736 -0.378,1.262c0,0.536 0.137,0.966 0.408,1.289c0.272,0.323 0.634,0.484 1.087,0.484c0.413,0 0.838,-0.09 1.276,-0.27l0,0.954Z" style="fill:white;fill-rule:nonzero;"/>
    <path id="path2066" d="M62.947,37.165c-0.458,0.443 -0.95,0.666 -1.474,0.666c-0.448,0 -0.81,-0.137 -1.09,-0.41c-0.279,-0.273 -0.419,-0.627 -0.419,-1.062c0,-0.564 0.225,-1 0.677,-1.305c0.451,-0.306 1.098,-0.459 1.939,-0.459l0.367,0l0,-0.466c0,-0.53 -0.301,-0.796 -0.907,-0.796c-0.537,0 -1.08,0.152 -1.629,0.456l0,-0.949c0.623,-0.236 1.242,-0.354 1.852,-0.354c1.339,0 2.007,0.533 2.007,1.597l0,2.262c0,0.4 0.129,0.601 0.386,0.601c0.047,0 0.107,-0.006 0.182,-0.018l0.032,0.772c-0.291,0.087 -0.548,0.131 -0.772,0.131c-0.565,0 -0.928,-0.223 -1.089,-0.666l-0.062,0Zm0,-0.74l0,-1.039l-0.325,0c-0.891,0 -1.336,0.279 -1.336,0.839c0,0.189 0.065,0.348 0.193,0.477c0.129,0.128 0.288,0.193 0.477,0.193c0.323,0 0.654,-0.157 0.991,-0.47Z" style="fill:white;fill-rule:nonzero;"/>
    <rect id="rect2068" x="66.049" y="30.363" width="1.379" height="7.351" style="fill:white;"/>
    <path id="path2070" d="M76.062,37.602c-0.57,0.152 -1.1,0.229 -1.587,0.229c-0.816,0 -1.461,-0.241 -1.934,-0.719c-0.473,-0.48 -0.71,-1.133 -0.71,-1.958c0,-0.835 0.243,-1.489 0.73,-1.961c0.488,-0.471 1.162,-0.707 2.021,-0.707c0.416,0 0.895,0.067 1.438,0.2l0,0.996c-0.564,-0.183 -1.016,-0.274 -1.354,-0.274c-0.413,0 -0.745,0.158 -0.996,0.475c-0.252,0.316 -0.377,0.736 -0.377,1.262c0,0.536 0.135,0.966 0.407,1.289c0.271,0.323 0.633,0.484 1.087,0.484c0.413,0 0.838,-0.09 1.275,-0.27l0,0.954Z" style="fill:white;fill-rule:nonzero;"/>
    <path id="path2072" d="M77.366,37.714l0,-7.351l1.378,0l0,3.203c0.45,-0.72 1.03,-1.08 1.741,-1.08c0.456,0 0.816,0.144 1.08,0.433c0.265,0.289 0.396,0.683 0.396,1.183l0,3.612l-1.378,0l0,-3.272c0,-0.581 -0.192,-0.871 -0.578,-0.871c-0.437,0 -0.857,0.308 -1.261,0.927l0,3.216l-1.378,0Z" style="fill:white;fill-rule:nonzero;"/>
    <path id="path2074" d="M86.132,37.165c-0.459,0.443 -0.951,0.666 -1.476,0.666c-0.446,0 -0.809,-0.137 -1.089,-0.41c-0.28,-0.273 -0.419,-0.627 -0.419,-1.062c0,-0.564 0.226,-1 0.677,-1.305c0.452,-0.306 1.098,-0.459 1.94,-0.459l0.367,0l0,-0.466c0,-0.53 -0.302,-0.796 -0.908,-0.796c-0.537,0 -1.08,0.152 -1.628,0.456l0,-0.949c0.623,-0.236 1.24,-0.354 1.852,-0.354c1.338,0 2.007,0.533 2.007,1.597l0,2.262c0,0.4 0.128,0.601 0.386,0.601c0.047,0 0.107,-0.006 0.181,-0.018l0.033,0.772c-0.292,0.087 -0.549,0.131 -0.773,0.131c-0.565,0 -0.927,-0.223 -1.089,-0.666l-0.061,0Zm0,-0.74l0,-1.039l-0.326,0c-0.89,0 -1.336,0.279 -1.336,0.839c0,0.189 0.065,0.348 0.194,0.477c0.128,0.128 0.288,0.193 0.476,0.193c0.323,0 0.654,-0.157 0.992,-0.47Z" style="fill:white;fill-rule:nonzero;"/>
    <path id="path2076" d="M91.379,37.831c-0.798,0 -1.432,-0.242 -1.902,-0.725c-0.47,-0.482 -0.705,-1.131 -0.705,-1.948c0,-0.826 0.237,-1.477 0.71,-1.955c0.474,-0.478 1.116,-0.717 1.929,-0.717c0.817,0 1.462,0.239 1.935,0.717c0.473,0.478 0.71,1.126 0.71,1.946c0,0.838 -0.238,1.495 -0.712,1.969c-0.476,0.476 -1.13,0.713 -1.965,0.713Zm0.023,-0.862c0.792,0 1.188,-0.607 1.188,-1.82c0,-0.556 -0.105,-0.994 -0.315,-1.317c-0.209,-0.323 -0.497,-0.484 -0.864,-0.484c-0.363,0 -0.649,0.161 -0.858,0.484c-0.21,0.323 -0.315,0.764 -0.315,1.326c0,0.556 0.104,0.997 0.313,1.323c0.207,0.326 0.491,0.488 0.851,0.488Z" style="fill:white;fill-rule:nonzero;"/>
    <path id="path2078" d="M95.187,37.551l0,-1.01c0.683,0.286 1.266,0.428 1.751,0.428c0.565,0 0.847,-0.192 0.847,-0.577c0,-0.248 -0.233,-0.465 -0.699,-0.651l-0.464,-0.187c-0.506,-0.205 -0.869,-0.425 -1.086,-0.661c-0.217,-0.235 -0.326,-0.528 -0.326,-0.875c0,-0.485 0.186,-0.861 0.554,-1.13c0.37,-0.268 0.886,-0.402 1.551,-0.402c0.415,0 0.911,0.06 1.485,0.182l0,0.968c-0.552,-0.193 -1.011,-0.288 -1.374,-0.288c-0.57,0 -0.856,0.177 -0.856,0.53c0,0.233 0.21,0.43 0.633,0.591l0.4,0.154c0.599,0.226 1.017,0.456 1.251,0.689c0.234,0.233 0.351,0.532 0.351,0.899c0,0.48 -0.199,0.871 -0.598,1.171c-0.399,0.298 -0.918,0.449 -1.558,0.449c-0.614,0 -1.235,-0.094 -1.862,-0.28Z" style="fill:white;fill-rule:nonzero;"/>
    <path id="path2080" d="M103.721,37.551l0,-1.01c0.683,0.286 1.266,0.428 1.75,0.428c0.565,0 0.848,-0.192 0.848,-0.577c0,-0.248 -0.233,-0.465 -0.699,-0.651l-0.466,-0.187c-0.505,-0.205 -0.867,-0.425 -1.084,-0.661c-0.217,-0.235 -0.326,-0.528 -0.326,-0.875c0,-0.485 0.184,-0.861 0.554,-1.13c0.369,-0.268 0.886,-0.402 1.551,-0.402c0.415,0 0.91,0.06 1.484,0.182l0,0.968c-0.552,-0.193 -1.01,-0.288 -1.373,-0.288c-0.571,0 -0.857,0.177 -0.857,0.53c0,0.233 0.211,0.43 0.634,0.591l0.4,0.154c0.599,0.226 1.015,0.456 1.25,0.689c0.234,0.233 0.352,0.532 0.352,0.899c0,0.48 -0.2,0.871 -0.598,1.171c-0.4,0.298 -0.918,0.449 -1.558,0.449c-0.615,0 -1.236,-0.094 -1.862,-0.28Z" style="fill:white;fill-rule:nonzero;"/>
    <path id="path2082" d="M111.393,37.831c-0.798,0 -1.432,-0.242 -1.902,-0.725c-0.47,-0.482 -0.705,-1.131 -0.705,-1.948c0,-0.826 0.237,-1.477 0.71,-1.955c0.474,-0.478 1.116,-0.717 1.929,-0.717c0.817,0 1.461,0.239 1.935,0.717c0.473,0.478 0.71,1.126 0.71,1.946c0,0.838 -0.237,1.495 -0.712,1.969c-0.475,0.476 -1.13,0.713 -1.965,0.713Zm0.023,-0.862c0.792,0 1.188,-0.607 1.188,-1.82c0,-0.556 -0.105,-0.994 -0.315,-1.317c-0.209,-0.323 -0.497,-0.484 -0.864,-0.484c-0.363,0 -0.649,0.161 -0.858,0.484c-0.21,0.323 -0.315,0.764 -0.315,1.326c0,0.556 0.104,0.997 0.313,1.323c0.207,0.326 0.491,0.488 0.851,0.488Z" style="fill:white;fill-rule:nonzero;"/>
    <path id="path2084" d="M118.497,37.714l0,-0.963c-0.447,0.72 -1.027,1.08 -1.741,1.08c-0.456,0 -0.816,-0.144 -1.08,-0.433c-0.263,-0.289 -0.396,-0.683 -0.396,-1.183l0,-3.613l1.379,0l0,3.273c0,0.58 0.194,0.87 0.581,0.87c0.435,0 0.853,-0.308 1.257,-0.926l0,-3.217l1.378,0l0,5.112l-1.378,0Z" style="fill:white;fill-rule:nonzero;"/>
    <path id="path2086" d="M121.598,37.714l0,-5.112l1.377,0l0,0.964c0.357,-0.72 0.9,-1.08 1.63,-1.08c0.087,0 0.172,0.01 0.256,0.028l0,1.229c-0.195,-0.071 -0.377,-0.107 -0.544,-0.107c-0.55,0 -0.996,0.278 -1.342,0.833l0,3.245l-1.377,0Z" style="fill:white;fill-rule:nonzero;"/>
    <path id="path2088" d="M129.703,37.602c-0.571,0.152 -1.1,0.229 -1.587,0.229c-0.817,0 -1.461,-0.241 -1.935,-0.719c-0.473,-0.48 -0.71,-1.133 -0.71,-1.958c0,-0.835 0.244,-1.489 0.732,-1.961c0.487,-0.471 1.16,-0.707 2.02,-0.707c0.416,0 0.895,0.067 1.439,0.2l0,0.996c-0.566,-0.183 -1.017,-0.274 -1.356,-0.274c-0.413,0 -0.745,0.158 -0.996,0.475c-0.251,0.316 -0.377,0.736 -0.377,1.262c0,0.536 0.136,0.966 0.408,1.289c0.271,0.323 0.633,0.484 1.086,0.484c0.413,0 0.839,-0.09 1.276,-0.27l0,0.954Z" style="fill:white;fill-rule:nonzero;"/>
    <path id="path2090" d="M135.168,37.542c-0.654,0.192 -1.274,0.289 -1.862,0.289c-0.853,0 -1.527,-0.243 -2.02,-0.727c-0.494,-0.484 -0.74,-1.145 -0.74,-1.983c0,-0.792 0.225,-1.428 0.677,-1.911c0.451,-0.483 1.048,-0.724 1.79,-0.724c0.748,0 1.294,0.236 1.639,0.707c0.345,0.472 0.516,1.219 0.516,2.24l-3.17,0c0.093,0.975 0.629,1.462 1.606,1.462c0.463,0 0.984,-0.107 1.564,-0.321l0,0.968Zm-3.189,-2.887l1.835,0c0,-0.872 -0.282,-1.307 -0.843,-1.307c-0.57,0 -0.902,0.435 -0.992,1.307Z" style="fill:white;fill-rule:nonzero;"/>
    <path id="path2095" d="M57.514,19.88c-0.57,-0.696 -1.275,-1.044 -2.114,-1.044c-0.369,0 -0.711,0.067 -1.026,0.201c-0.314,0.135 -0.584,0.317 -0.811,0.548c-0.226,0.23 -0.405,0.504 -0.534,0.823c-0.13,0.319 -0.196,0.663 -0.196,1.032c0,0.377 0.066,0.725 0.196,1.044c0.129,0.319 0.31,0.596 0.541,0.83c0.23,0.234 0.501,0.42 0.811,0.554c0.31,0.133 0.646,0.201 1.007,0.201c0.787,0 1.496,-0.335 2.126,-1.007l0,2.919l-0.252,0.089c-0.378,0.133 -0.73,0.232 -1.058,0.295c-0.326,0.063 -0.65,0.094 -0.968,0.094c-0.654,0 -1.281,-0.124 -1.881,-0.371c-0.599,-0.247 -1.128,-0.595 -1.585,-1.044c-0.456,-0.449 -0.824,-0.981 -1.1,-1.598c-0.277,-0.617 -0.415,-1.289 -0.415,-2.019c0,-0.729 0.136,-1.399 0.409,-2.006c0.273,-0.609 0.638,-1.132 1.094,-1.573c0.457,-0.44 0.987,-0.783 1.591,-1.031c0.604,-0.248 1.237,-0.372 1.9,-0.372c0.377,0 0.749,0.04 1.114,0.12c0.363,0.08 0.747,0.204 1.151,0.372l0,2.943Z" style="fill:rgb(172,181,188);fill-rule:nonzero;"/>
    <path id="path2097" d="M64.457,22.672l-1.107,-3.157l-1.107,3.157l2.214,0Zm0.654,1.875l-3.522,0l-0.566,1.648l-2.629,0l3.611,-9.485l2.692,0l3.609,9.485l-2.629,0l-0.566,-1.648Z" style="fill:rgb(172,181,188);fill-rule:nonzero;"/>
    <path id="path2099" d="M71.591,16.71l0,5.158c0,0.277 0.009,0.559 0.03,0.848c0.022,0.29 0.084,0.551 0.189,0.787c0.106,0.235 0.271,0.425 0.497,0.573c0.227,0.146 0.545,0.22 0.957,0.22c0.41,0 0.727,-0.074 0.949,-0.22c0.223,-0.148 0.388,-0.338 0.497,-0.573c0.109,-0.236 0.175,-0.497 0.195,-0.787c0.021,-0.289 0.031,-0.571 0.031,-0.848l0,-5.158l2.454,0l0,5.497c0,1.476 -0.338,2.554 -1.014,3.233c-0.675,0.679 -1.713,1.019 -3.112,1.019c-1.402,0 -2.442,-0.34 -3.121,-1.019c-0.679,-0.679 -1.019,-1.757 -1.019,-3.233l0,-5.497l2.467,0Z" style="fill:rgb(172,181,188);fill-rule:nonzero;"/>
    <path id="path2101" d="M81.842,24.107l0.567,0c0.427,0 0.809,-0.067 1.145,-0.202c0.336,-0.134 0.618,-0.318 0.848,-0.554c0.231,-0.234 0.408,-0.512 0.529,-0.836c0.121,-0.322 0.183,-0.677 0.183,-1.063c0,-0.377 -0.063,-0.73 -0.189,-1.056c-0.126,-0.328 -0.304,-0.609 -0.535,-0.843c-0.23,-0.235 -0.514,-0.42 -0.849,-0.553c-0.336,-0.135 -0.713,-0.202 -1.132,-0.202l-0.567,0l0,5.309Zm-2.465,-7.397l3.648,0c0.646,0 1.252,0.13 1.818,0.389c0.566,0.261 1.061,0.606 1.484,1.039c0.424,0.432 0.758,0.935 1,1.509c0.244,0.574 0.365,1.176 0.365,1.805c0,0.621 -0.12,1.219 -0.358,1.793c-0.24,0.574 -0.57,1.08 -0.994,1.516c-0.423,0.436 -0.919,0.784 -1.485,1.044c-0.566,0.259 -1.176,0.39 -1.83,0.39l-3.648,0l0,-9.485Z" style="fill:rgb(172,181,188);fill-rule:nonzero;"/>
    <path id="path2103" d="M94.02,22.672l-1.107,-3.157l-1.106,3.157l2.213,0Zm0.654,1.875l-3.523,0l-0.566,1.648l-2.629,0l3.611,-9.485l2.692,0l3.61,9.485l-2.629,0l-0.566,-1.648Z" style="fill:rgb(172,181,188);fill-rule:nonzero;"/>
    <path id="path2105" d="M101.416,16.71l0,7.397l2.957,0l0,2.088l-5.422,0l0,-9.485l2.465,0Z" style="fill:rgb(172,181,188);fill-rule:nonzero;"/>
    <path id="path2110" d="M21.82,225.876l1.981,0l0,-2.037l1.373,0l0,5.278l-1.373,0l0,-2.177l-1.981,0l0,2.177l-1.372,0l0,-5.278l1.372,0l0,2.037Z" style="fill:white;fill-rule:nonzero;"/>
    <rect id="rect2112" x="26.278" y="223.839" width="1.373" height="5.278" style="fill:white;"/>
    <path id="path2114" d="M30.76,224.999l0,4.118l-1.373,0l0,-4.118l-1.128,0l0,-1.16l3.629,0l0,1.16l-1.128,0Z" style="fill:white;fill-rule:nonzero;"/>
    <path id="path2118" d="M27.494,271.156l-0.616,-1.757l-0.613,1.757l1.229,0Zm0.364,1.045l-1.957,0l-0.316,0.916l-1.465,0l2.009,-5.278l1.501,0l2.009,5.278l-1.465,0l-0.316,-0.916Z" style="fill:white;fill-rule:nonzero;"/>
    <path id="path2122" d="M57.997,272.053l0.3,0c0.348,0 0.593,-0.044 0.745,-0.132c0.148,-0.089 0.224,-0.233 0.224,-0.429c0,-0.196 -0.076,-0.336 -0.224,-0.428c-0.152,-0.088 -0.397,-0.132 -0.745,-0.132l-0.3,0l0,1.121Zm0,-2.141l0.252,0c0.428,0 0.645,-0.172 0.645,-0.513c0,-0.34 -0.217,-0.512 -0.645,-0.512l-0.252,0l0,1.025Zm-1.372,-2.073l2.044,0c0.485,0 0.853,0.116 1.105,0.352c0.252,0.232 0.38,0.568 0.38,1.004c0,0.268 -0.048,0.489 -0.144,0.665c-0.096,0.172 -0.24,0.32 -0.436,0.444c0.196,0.036 0.36,0.092 0.5,0.172c0.136,0.076 0.248,0.172 0.336,0.28c0.084,0.112 0.148,0.24 0.184,0.38c0.036,0.14 0.056,0.288 0.056,0.448c0,0.248 -0.044,0.469 -0.128,0.657c-0.088,0.192 -0.208,0.352 -0.364,0.484c-0.156,0.132 -0.348,0.228 -0.572,0.296c-0.224,0.064 -0.476,0.096 -0.756,0.096l-2.205,0l0,-5.278Z" style="fill:white;fill-rule:nonzero;"/>
    <path id="path2126" d="M92.426,269.604c-0.316,-0.389 -0.708,-0.581 -1.176,-0.581c-0.204,0 -0.396,0.036 -0.569,0.112c-0.176,0.072 -0.328,0.176 -0.452,0.304c-0.128,0.129 -0.224,0.281 -0.3,0.457c-0.072,0.18 -0.108,0.368 -0.108,0.576c0,0.208 0.036,0.404 0.108,0.58c0.076,0.176 0.176,0.332 0.304,0.46c0.128,0.132 0.276,0.236 0.448,0.308c0.177,0.076 0.361,0.113 0.561,0.113c0.44,0 0.836,-0.185 1.184,-0.561l0,1.625l-0.14,0.052c-0.208,0.072 -0.404,0.128 -0.588,0.164c-0.18,0.032 -0.36,0.052 -0.54,0.052c-0.364,0 -0.713,-0.068 -1.045,-0.208c-0.332,-0.136 -0.628,-0.332 -0.88,-0.58c-0.256,-0.248 -0.46,-0.548 -0.616,-0.889c-0.152,-0.344 -0.228,-0.72 -0.228,-1.124c0,-0.404 0.076,-0.776 0.228,-1.117c0.148,-0.34 0.352,-0.628 0.608,-0.876c0.252,-0.244 0.548,-0.436 0.884,-0.572c0.336,-0.136 0.689,-0.208 1.057,-0.208c0.212,0 0.416,0.024 0.62,0.068c0.204,0.044 0.416,0.112 0.64,0.208l0,1.637Z" style="fill:white;fill-rule:nonzero;"/>
    <path id="path2130" d="M121.997,272.009l0.316,0c0.236,0 0.448,-0.04 0.636,-0.113c0.188,-0.076 0.344,-0.18 0.472,-0.308c0.128,-0.132 0.228,-0.288 0.293,-0.468c0.068,-0.18 0.104,-0.376 0.104,-0.588c0,-0.212 -0.036,-0.408 -0.104,-0.588c-0.073,-0.184 -0.173,-0.34 -0.301,-0.473c-0.128,-0.128 -0.284,-0.232 -0.472,-0.308c-0.184,-0.072 -0.396,-0.112 -0.628,-0.112l-0.316,0l0,2.958Zm-1.373,-4.118l2.029,0c0.36,0 0.7,0.072 1.012,0.216c0.317,0.144 0.593,0.34 0.829,0.58c0.236,0.24 0.42,0.52 0.556,0.84c0.136,0.317 0.2,0.653 0.2,1.005c0,0.344 -0.064,0.676 -0.196,0.996c-0.136,0.32 -0.32,0.601 -0.556,0.845c-0.232,0.24 -0.508,0.436 -0.825,0.58c-0.316,0.144 -0.656,0.216 -1.02,0.216l-2.029,0l0,-5.278Z" style="fill:white;fill-rule:nonzero;"/>
    <path id="path2134" d="M9.444,286.304l-1.644,-2.465l1.692,0l0.717,1.364l0.88,-1.364l1.693,0l-1.741,2.465l1.965,2.813l-1.673,0l-1.056,-1.721l-1.237,1.721l-1.661,0l2.065,-2.813Z" style="fill:white;fill-rule:nonzero;"/>
    <path id="path2138" d="M9.522,311.629l-1.737,-3.101l1.469,0l0.961,1.84l0.932,-1.84l1.456,0l-2.885,5.382l-1.42,0l1.224,-2.281Z" style="fill:white;fill-rule:nonzero;"/>
    <path id="path2142" d="M52.82,226.2l0.26,0c0.269,0 0.477,-0.056 0.621,-0.168c0.148,-0.112 0.22,-0.276 0.22,-0.484c0,-0.213 -0.072,-0.373 -0.22,-0.485c-0.144,-0.112 -0.352,-0.168 -0.621,-0.168l-0.26,0l0,1.305Zm3.018,2.917l-1.709,0l-1.309,-2.029l0,2.029l-1.372,0l0,-5.278l2.137,0c0.292,0 0.548,0.044 0.768,0.128c0.22,0.088 0.4,0.204 0.544,0.356c0.14,0.148 0.248,0.32 0.32,0.516c0.072,0.196 0.108,0.408 0.108,0.632c0,0.401 -0.096,0.725 -0.288,0.977c-0.196,0.248 -0.48,0.416 -0.86,0.504l1.661,2.165Z" style="fill:white;fill-rule:nonzero;"/>
    <path id="path2144" d="M59.415,224.999l-1.633,0l0,0.885l1.541,0l0,1.16l-1.541,0l0,0.913l1.633,0l0,1.16l-3.005,0l0,-5.278l3.005,0l0,1.16Z" style="fill:white;fill-rule:nonzero;"/>
    <path id="path2146" d="M61.34,223.839l1.272,3.213l1.281,-3.213l1.493,0l-2.225,5.278l-1.093,0l-2.221,-5.278l1.493,0Z" style="fill:white;fill-rule:nonzero;"/>
    <path id="path2150" d="M82.345,225.191c-0.148,-0.124 -0.296,-0.212 -0.448,-0.272c-0.148,-0.056 -0.292,-0.088 -0.432,-0.088c-0.177,0 -0.321,0.044 -0.433,0.128c-0.112,0.084 -0.168,0.192 -0.168,0.328c0,0.092 0.028,0.172 0.084,0.233c0.056,0.06 0.128,0.112 0.22,0.156c0.088,0.044 0.193,0.084 0.309,0.116c0.112,0.032 0.224,0.068 0.336,0.104c0.448,0.152 0.776,0.352 0.984,0.6c0.208,0.248 0.312,0.576 0.312,0.976c0,0.272 -0.044,0.517 -0.136,0.737c-0.092,0.216 -0.224,0.404 -0.4,0.56c-0.172,0.156 -0.388,0.28 -0.644,0.364c-0.252,0.088 -0.54,0.132 -0.865,0.132c-0.664,0 -1.284,-0.2 -1.852,-0.596l0.588,-1.105c0.204,0.18 0.408,0.316 0.608,0.405c0.2,0.088 0.4,0.132 0.596,0.132c0.224,0 0.389,-0.048 0.501,-0.152c0.108,-0.105 0.164,-0.221 0.164,-0.353c0,-0.076 -0.016,-0.148 -0.044,-0.204c-0.028,-0.06 -0.072,-0.112 -0.14,-0.16c-0.064,-0.052 -0.148,-0.096 -0.257,-0.14c-0.104,-0.04 -0.232,-0.088 -0.38,-0.14c-0.176,-0.056 -0.352,-0.116 -0.52,-0.184c-0.172,-0.068 -0.324,-0.156 -0.456,-0.268c-0.132,-0.112 -0.24,-0.252 -0.32,-0.424c-0.084,-0.172 -0.124,-0.388 -0.124,-0.649c0,-0.26 0.044,-0.496 0.128,-0.708c0.088,-0.212 0.208,-0.396 0.364,-0.548c0.156,-0.152 0.348,-0.268 0.576,-0.352c0.224,-0.084 0.48,-0.128 0.76,-0.128c0.261,0 0.533,0.036 0.817,0.108c0.284,0.076 0.56,0.18 0.82,0.32l-0.548,1.072Z" style="fill:white;fill-rule:nonzero;"/>
    <path id="path2152" d="M86.006,224.999l0,4.118l-1.372,0l0,-4.118l-1.125,0l0,-1.16l3.626,0l0,1.16l-1.129,0Z" style="fill:white;fill-rule:nonzero;"/>
    <path id="path2154" d="M88.892,226.48c0,0.208 0.04,0.4 0.12,0.58c0.08,0.176 0.184,0.332 0.32,0.46c0.136,0.132 0.292,0.232 0.472,0.304c0.18,0.072 0.372,0.109 0.572,0.109c0.2,0 0.388,-0.037 0.568,-0.109c0.181,-0.072 0.341,-0.172 0.477,-0.304c0.14,-0.128 0.248,-0.284 0.328,-0.46c0.076,-0.18 0.116,-0.372 0.116,-0.58c0,-0.212 -0.04,-0.404 -0.116,-0.584c-0.08,-0.176 -0.188,-0.328 -0.328,-0.461c-0.136,-0.132 -0.296,-0.232 -0.477,-0.304c-0.18,-0.072 -0.368,-0.108 -0.568,-0.108c-0.2,0 -0.392,0.036 -0.572,0.108c-0.18,0.072 -0.336,0.172 -0.472,0.304c-0.136,0.133 -0.24,0.285 -0.32,0.461c-0.08,0.18 -0.12,0.372 -0.12,0.584Zm-1.437,0c0,-0.392 0.072,-0.76 0.22,-1.097c0.144,-0.34 0.344,-0.636 0.6,-0.888c0.256,-0.248 0.565,-0.448 0.921,-0.588c0.356,-0.144 0.752,-0.216 1.18,-0.216c0.424,0 0.817,0.072 1.177,0.216c0.356,0.14 0.668,0.34 0.924,0.588c0.26,0.252 0.464,0.548 0.608,0.888c0.144,0.337 0.216,0.705 0.216,1.097c0,0.388 -0.072,0.756 -0.216,1.092c-0.144,0.341 -0.348,0.637 -0.608,0.889c-0.256,0.252 -0.568,0.448 -0.924,0.588c-0.36,0.144 -0.753,0.216 -1.177,0.216c-0.428,0 -0.824,-0.072 -1.18,-0.216c-0.356,-0.14 -0.665,-0.336 -0.921,-0.588c-0.256,-0.252 -0.456,-0.548 -0.6,-0.889c-0.148,-0.336 -0.22,-0.704 -0.22,-1.092Z" style="fill:white;fill-rule:nonzero;"/>
    <path id="path2156" d="M95.542,226.2l0.257,0c0.272,0 0.48,-0.056 0.624,-0.168c0.144,-0.112 0.216,-0.276 0.216,-0.484c0,-0.213 -0.072,-0.373 -0.216,-0.485c-0.144,-0.112 -0.352,-0.168 -0.624,-0.168l-0.257,0l0,1.305Zm3.018,2.917l-1.709,0l-1.309,-2.029l0,2.029l-1.372,0l0,-5.278l2.133,0c0.296,0 0.552,0.044 0.772,0.128c0.22,0.088 0.4,0.204 0.54,0.356c0.144,0.148 0.252,0.32 0.324,0.516c0.072,0.196 0.108,0.408 0.108,0.632c0,0.401 -0.096,0.725 -0.292,0.977c-0.192,0.248 -0.476,0.416 -0.856,0.504l1.661,2.165Z" style="fill:white;fill-rule:nonzero;"/>
    <path id="path2158" d="M102.137,224.999l-1.633,0l0,0.885l1.541,0l0,1.16l-1.541,0l0,0.913l1.633,0l0,1.16l-3.005,0l0,-5.278l3.005,0l0,1.16Z" style="fill:white;fill-rule:nonzero;"/>
    <path id="path2162" d="M110.821,226.2l0.26,0c0.268,0 0.476,-0.056 0.62,-0.168c0.148,-0.112 0.22,-0.276 0.22,-0.484c0,-0.213 -0.072,-0.373 -0.22,-0.485c-0.144,-0.112 -0.352,-0.168 -0.62,-0.168l-0.26,0l0,1.305Zm3.017,2.917l-1.709,0l-1.308,-2.029l0,2.029l-1.373,0l0,-5.278l2.137,0c0.292,0 0.548,0.044 0.768,0.128c0.221,0.088 0.401,0.204 0.545,0.356c0.14,0.148 0.248,0.32 0.32,0.516c0.072,0.196 0.108,0.408 0.108,0.632c0,0.401 -0.096,0.725 -0.288,0.977c-0.196,0.248 -0.48,0.416 -0.861,0.504l1.661,2.165Z" style="fill:white;fill-rule:nonzero;"/>
    <path id="path2164" d="M117.416,224.999l-1.633,0l0,0.885l1.54,0l0,1.16l-1.54,0l0,0.913l1.633,0l0,1.16l-3.006,0l0,-5.278l3.006,0l0,1.16Z" style="fill:white;fill-rule:nonzero;"/>
    <path id="path2166" d="M122.202,225.604c-0.317,-0.389 -0.709,-0.581 -1.177,-0.581c-0.204,0 -0.392,0.036 -0.568,0.112c-0.176,0.072 -0.324,0.176 -0.452,0.304c-0.124,0.129 -0.224,0.281 -0.297,0.457c-0.072,0.18 -0.108,0.368 -0.108,0.576c0,0.208 0.036,0.404 0.108,0.58c0.073,0.176 0.173,0.332 0.301,0.46c0.128,0.132 0.28,0.236 0.452,0.308c0.172,0.076 0.36,0.113 0.56,0.113c0.436,0 0.832,-0.185 1.181,-0.561l0,1.625l-0.141,0.052c-0.208,0.072 -0.404,0.128 -0.588,0.164c-0.18,0.032 -0.36,0.052 -0.536,0.052c-0.364,0 -0.712,-0.068 -1.048,-0.208c-0.333,-0.136 -0.629,-0.332 -0.881,-0.58c-0.256,-0.248 -0.46,-0.548 -0.612,-0.889c-0.156,-0.344 -0.232,-0.72 -0.232,-1.124c0,-0.404 0.076,-0.776 0.228,-1.117c0.152,-0.34 0.356,-0.628 0.608,-0.876c0.256,-0.244 0.548,-0.436 0.885,-0.572c0.336,-0.136 0.688,-0.208 1.06,-0.208c0.208,0 0.416,0.024 0.616,0.068c0.204,0.044 0.416,0.112 0.641,0.208l0,1.637Z" style="fill:white;fill-rule:nonzero;"/>
    <path id="path2168" d="M126.067,227.156l-0.616,-1.757l-0.616,1.757l1.232,0Zm0.364,1.045l-1.961,0l-0.316,0.916l-1.46,0l2.009,-5.278l1.496,0l2.009,5.278l-1.461,0l-0.316,-0.916Z" style="fill:white;fill-rule:nonzero;"/>
    <path id="path2170" d="M130.185,223.839l0,4.118l1.645,0l0,1.16l-3.018,0l0,-5.278l1.373,0Z" style="fill:white;fill-rule:nonzero;"/>
    <path id="path2172" d="M133.906,223.839l0,4.118l1.645,0l0,1.16l-3.017,0l0,-5.278l1.372,0Z" style="fill:white;fill-rule:nonzero;"/>
    <path id="path2176" d="M34.528,115.045c-0.172,-0.14 -0.34,-0.24 -0.512,-0.308c-0.172,-0.068 -0.337,-0.1 -0.497,-0.1c-0.204,0 -0.368,0.048 -0.496,0.144c-0.128,0.096 -0.192,0.22 -0.192,0.376c0,0.108 0.032,0.196 0.096,0.264c0.064,0.068 0.148,0.128 0.252,0.18c0.104,0.052 0.22,0.096 0.352,0.132c0.132,0.036 0.261,0.076 0.389,0.12c0.512,0.173 0.888,0.401 1.124,0.685c0.236,0.284 0.356,0.656 0.356,1.116c0,0.308 -0.052,0.588 -0.156,0.841c-0.104,0.252 -0.256,0.464 -0.456,0.644c-0.2,0.18 -0.444,0.316 -0.736,0.416c-0.292,0.1 -0.621,0.148 -0.989,0.148c-0.764,0 -1.468,-0.228 -2.121,-0.68l0.673,-1.265c0.236,0.208 0.468,0.364 0.696,0.464c0.228,0.1 0.456,0.153 0.68,0.153c0.256,0 0.448,-0.061 0.572,-0.177c0.124,-0.116 0.189,-0.252 0.189,-0.4c0,-0.092 -0.016,-0.168 -0.049,-0.236c-0.032,-0.068 -0.084,-0.128 -0.16,-0.184c-0.076,-0.056 -0.172,-0.108 -0.292,-0.156c-0.12,-0.048 -0.264,-0.1 -0.436,-0.16c-0.204,-0.064 -0.4,-0.136 -0.596,-0.212c-0.196,-0.076 -0.368,-0.18 -0.52,-0.308c-0.152,-0.128 -0.276,-0.288 -0.368,-0.484c-0.093,-0.197 -0.141,-0.441 -0.141,-0.741c0,-0.3 0.048,-0.568 0.149,-0.812c0.1,-0.244 0.236,-0.452 0.416,-0.624c0.18,-0.172 0.396,-0.308 0.656,-0.405c0.26,-0.096 0.548,-0.144 0.868,-0.144c0.3,0 0.613,0.04 0.937,0.124c0.324,0.085 0.636,0.205 0.936,0.365l-0.624,1.224Z" style="fill:white;fill-rule:nonzero;"/>
    <path id="path2178" d="M37.953,116.27l0.52,0c0.577,0 0.865,-0.252 0.865,-0.753c0,-0.5 -0.288,-0.752 -0.865,-0.752l-0.52,0l0,1.505Zm0,3.265l-1.568,0l0,-6.035l2.497,0c0.676,0 1.196,0.177 1.556,0.529c0.36,0.352 0.541,0.848 0.541,1.488c0,0.641 -0.181,1.137 -0.541,1.489c-0.36,0.352 -0.88,0.528 -1.556,0.528l-0.929,0l0,2.001Z" style="fill:white;fill-rule:nonzero;"/>
    <path id="path2180" d="M45.244,114.829l-1.864,0l0,1.008l1.76,0l0,1.329l-1.76,0l0,1.04l1.864,0l0,1.329l-3.433,0l0,-6.035l3.433,0l0,1.329Z" style="fill:white;fill-rule:nonzero;"/>
    <path id="path2182" d="M49.806,114.829l-1.865,0l0,1.008l1.761,0l0,1.329l-1.761,0l0,1.04l1.865,0l0,1.329l-3.433,0l0,-6.035l3.433,0l0,1.329Z" style="fill:white;fill-rule:nonzero;"/>
    <path id="path2184" d="M52.503,118.206l0.36,0c0.273,0 0.517,-0.044 0.729,-0.128c0.212,-0.084 0.392,-0.204 0.54,-0.352c0.148,-0.148 0.26,-0.328 0.336,-0.532c0.076,-0.204 0.116,-0.432 0.116,-0.676c0,-0.24 -0.04,-0.464 -0.12,-0.673c-0.08,-0.208 -0.192,-0.388 -0.34,-0.536c-0.148,-0.148 -0.328,-0.268 -0.54,-0.352c-0.212,-0.084 -0.452,-0.128 -0.721,-0.128l-0.36,0l0,3.377Zm-1.568,-4.706l2.321,0c0.412,0 0.796,0.085 1.156,0.249c0.36,0.164 0.676,0.384 0.944,0.66c0.269,0.276 0.481,0.596 0.637,0.96c0.156,0.364 0.232,0.749 0.232,1.149c0,0.396 -0.076,0.776 -0.228,1.14c-0.152,0.364 -0.364,0.689 -0.633,0.965c-0.268,0.276 -0.584,0.5 -0.944,0.664c-0.36,0.164 -0.748,0.248 -1.164,0.248l-2.321,0l0,-6.035Z" style="fill:white;fill-rule:nonzero;"/>
    <path id="path2189" d="M65.14,98.544c5.878,-10.185 3.577,-23.246 -5.431,-30.805c-9.007,-7.555 -22.273,-7.555 -31.281,0c-9.007,7.559 -11.308,20.62 -5.43,30.805" style="fill:none;stroke:rgb(204,204,204);stroke-width:1.5px;stroke-linecap:round;stroke-linejoin:miter;stroke-miterlimit:4;"/>
    <circle id="circle2192" cx="25.93" cy="107.811" r="3.706" style="fill:none;stroke:rgb(204,204,204);stroke-width:1px;stroke-linejoin:miter;stroke-miterlimit:4;"/>
    <circle id="circle2195" cx="63.709" cy="107.299" r="3.706" style="fill:rgb(204,204,204);stroke:rgb(204,204,204);stroke-width:1px;stroke-linejoin:miter;stroke-miterlimit:4;"/>
    <path id="path2199" d="M31.035,176.644l-1.865,0l0,1.008l1.761,0l0,1.329l-1.761,0l0,1.04l1.865,0l0,1.329l-3.433,0l0,-6.035l3.433,0l0,1.329Z" style="fill:white;fill-rule:nonzero;"/>
    <path id="path2201" d="M32.164,181.35l0,-6.035l1.568,0l2.898,3.69l0,-3.69l1.56,0l0,6.035l-1.56,0l-2.898,-3.69l0,3.69l-1.568,0Z" style="fill:white;fill-rule:nonzero;"/>
    <path id="path2203" d="M42.888,176.644l-1.865,0l0,1.008l1.761,0l0,1.329l-1.761,0l0,1.04l1.865,0l0,1.329l-3.433,0l0,-6.035l3.433,0l0,1.329Z" style="fill:white;fill-rule:nonzero;"/>
    <path id="path2205" d="M45.585,178.013l0.296,0c0.308,0 0.549,-0.064 0.713,-0.192c0.164,-0.129 0.248,-0.313 0.248,-0.553c0,-0.24 -0.084,-0.424 -0.248,-0.552c-0.164,-0.128 -0.405,-0.192 -0.713,-0.192l-0.296,0l0,1.489Zm3.45,3.337l-1.953,0l-1.497,-2.321l0,2.321l-1.568,0l0,-6.035l2.441,0c0.336,0 0.628,0.049 0.88,0.149c0.252,0.1 0.456,0.232 0.62,0.404c0.164,0.172 0.284,0.368 0.368,0.592c0.084,0.224 0.124,0.464 0.124,0.72c0,0.46 -0.112,0.833 -0.332,1.117c-0.22,0.284 -0.548,0.48 -0.98,0.58l1.897,2.473Z" style="fill:white;fill-rule:nonzero;"/>
    <path id="path2207" d="M52.548,177.973l3.113,0c0,0.32 -0.012,0.612 -0.04,0.872c-0.028,0.26 -0.08,0.504 -0.16,0.728c-0.112,0.316 -0.264,0.593 -0.456,0.837c-0.192,0.244 -0.416,0.444 -0.676,0.608c-0.26,0.164 -0.544,0.288 -0.853,0.372c-0.308,0.084 -0.636,0.128 -0.976,0.128c-0.468,0 -0.896,-0.076 -1.284,-0.232c-0.389,-0.156 -0.721,-0.372 -0.997,-0.652c-0.276,-0.28 -0.492,-0.617 -0.648,-1.009c-0.156,-0.392 -0.232,-0.824 -0.232,-1.3c0,-0.468 0.076,-0.901 0.228,-1.293c0.152,-0.392 0.368,-0.728 0.648,-1.004c0.28,-0.276 0.616,-0.492 1.013,-0.648c0.396,-0.157 0.836,-0.233 1.32,-0.233c0.628,0 1.181,0.136 1.657,0.409c0.476,0.272 0.852,0.692 1.128,1.264l-1.488,0.616c-0.14,-0.332 -0.32,-0.568 -0.541,-0.712c-0.22,-0.144 -0.472,-0.216 -0.756,-0.216c-0.236,0 -0.448,0.044 -0.64,0.132c-0.192,0.088 -0.356,0.212 -0.492,0.376c-0.136,0.164 -0.244,0.36 -0.32,0.588c-0.077,0.229 -0.117,0.485 -0.117,0.769c0,0.256 0.032,0.492 0.101,0.712c0.068,0.22 0.168,0.408 0.3,0.568c0.132,0.16 0.3,0.284 0.496,0.372c0.196,0.088 0.428,0.133 0.688,0.133c0.156,0 0.304,-0.017 0.448,-0.053c0.144,-0.036 0.272,-0.092 0.388,-0.168c0.117,-0.076 0.209,-0.176 0.285,-0.3c0.076,-0.124 0.124,-0.272 0.152,-0.448l-1.289,0l0,-1.216Z" style="fill:white;fill-rule:nonzero;"/>
    <path id="path2209" d="M57.71,178.453l-2.201,-3.138l1.873,0l1.121,1.649l1.112,-1.649l1.873,0l-2.209,3.138l0,2.897l-1.569,0l0,-2.897Z" style="fill:white;fill-rule:nonzero;"/>
    <path id="path2214" d="M98.904,92.593c2.737,-4.742 1.664,-10.824 -2.533,-14.346c-4.194,-3.521 -10.373,-3.521 -14.567,0c-4.197,3.522 -5.27,9.604 -2.533,14.346l9.816,-5.666l9.817,5.666Z" style="fill:none;stroke:rgb(204,204,204);stroke-width:1px;stroke-linecap:round;stroke-linejoin:miter;stroke-miterlimit:4;"/>
    <path id="path2217" d="M98.531,93.79l0.024,4.41" style="fill:rgb(204,204,204);fill-rule:nonzero;stroke:rgb(204,204,204);stroke-width:1px;stroke-linecap:round;stroke-linejoin:miter;stroke-miterlimit:4;"/>
    <path id="path2220" d="M100.748,95.963l-4.41,0.02" style="fill:rgb(204,204,204);fill-rule:nonzero;stroke:rgb(204,204,204);stroke-width:1px;stroke-linecap:round;stroke-linejoin:miter;stroke-miterlimit:4;"/>
    <path id="path2223" d="M82.429,95.839l-4.414,0.02" style="fill:rgb(204,204,204);fill-rule:nonzero;stroke:rgb(204,204,204);stroke-width:1px;stroke-linecap:round;stroke-linejoin:miter;stroke-miterlimit:4;"/>
    <path id="path2226" d="M98.531,93.79l0.024,4.41" style="fill:rgb(204,204,204);fill-rule:nonzero;stroke:rgb(204,204,204);stroke-width:1px;stroke-linecap:round;stroke-linejoin:miter;stroke-miterlimit:4;"/>
    <path id="path2229" d="M100.748,95.963l-4.41,0.02" style="fill:rgb(204,204,204);fill-rule:nonzero;stroke:rgb(204,204,204);stroke-width:1px;stroke-linecap:round;stroke-linejoin:miter;stroke-miterlimit:4;"/>
    <path id="path2232" d="M82.429,95.839l-4.414,0.02" style="fill:rgb(204,204,204);fill-rule:nonzero;stroke:rgb(204,204,204);stroke-width:1px;stroke-linecap:round;stroke-linejoin:miter;stroke-miterlimit:4;"/>
    <path id="path2235" d="M89.087,86.927l-0.024,-13.309" style="fill:none;stroke:rgb(204,204,204);stroke-width:1px;stroke-linecap:round;stroke-linejoin:miter;stroke-miterlimit:4;"/>
    <path id="path2240" d="M98.904,155.593c2.737,-4.742 1.664,-10.824 -2.533,-14.346c-4.194,-3.521 -10.373,-3.521 -14.567,0c-4.197,3.522 -5.27,9.604 -2.533,14.346l9.816,-5.666l9.817,5.666Z" style="fill:none;stroke:rgb(204,204,204);stroke-width:1px;stroke-linecap:round;stroke-linejoin:miter;stroke-miterlimit:4;"/>
    <path id="path2243" d="M98.531,156.79l0.024,4.41" style="fill:rgb(204,204,204);fill-rule:nonzero;stroke:rgb(204,204,204);stroke-width:1px;stroke-linecap:round;stroke-linejoin:miter;stroke-miterlimit:4;"/>
    <path id="path2246" d="M100.748,158.963l-4.41,0.02" style="fill:rgb(204,204,204);fill-rule:nonzero;stroke:rgb(204,204,204);stroke-width:1px;stroke-linecap:round;stroke-linejoin:miter;stroke-miterlimit:4;"/>
    <path id="path2249" d="M82.429,158.839l-4.414,0.02" style="fill:rgb(204,204,204);fill-rule:nonzero;stroke:rgb(204,204,204);stroke-width:1px;stroke-linecap:round;stroke-linejoin:miter;stroke-miterlimit:4;"/>
    <path id="path2252" d="M89.087,149.931l-0.024,-13.31" style="fill:none;stroke:rgb(204,204,204);stroke-width:1px;stroke-linecap:round;stroke-linejoin:miter;stroke-miterlimit:4;"/>
    <path id="path2261" d="M64.433,161.18c5.718,-9.906 3.48,-22.61 -5.286,-29.963c-8.761,-7.353 -21.661,-7.353 -30.422,0c-8.762,7.353 -11.004,20.057 -5.282,29.963" style="fill:none;stroke:rgb(204,204,204);stroke-width:1.5px;stroke-linecap:round;stroke-linejoin:miter;stroke-miterlimit:4;"/>
    <path id="path9630" d="M63.658,163.671l0.051,9.217" style="fill:rgb(204,204,204);fill-rule:nonzero;stroke:rgb(204,204,204);stroke-width:1.5px;stroke-linecap:round;stroke-linejoin:miter;stroke-miterlimit:4;"/>
    <path id="path9630-1" d="M68.29,168.213l-9.213,0.043" style="fill:rgb(204,204,204);fill-rule:nonzero;stroke:rgb(204,204,204);stroke-width:1.5px;stroke-linecap:round;stroke-linejoin:miter;stroke-miterlimit:4;"/>
    <path id="path9630-1-6" d="M30.029,167.953l-9.213,0.042" style="fill:rgb(204,204,204);fill-rule:nonzero;stroke:rgb(204,204,204);stroke-width:1.5px;stroke-linecap:round;stroke-linejoin:miter;stroke-miterlimit:4;"/>
    <path id="path9948" d="M43.936,149.351l-0.047,-26.347" style="fill:none;stroke:rgb(204,204,204);stroke-width:1.5px;stroke-linecap:round;stroke-linejoin:miter;stroke-miterlimit:4;"/>
    <path id="path2270" d="M9.373,331.866l-2.434,6.276l5.931,-1.938" style="fill:none;stroke:white;stroke-width:1.1px;stroke-miterlimit:1.5;"/>
    <path id="path2274" d="M8.666,334.228c1.075,0.44 1.824,1.188 1.956,2.521" style="fill:none;stroke:white;stroke-width:1.1px;stroke-miterlimit:1.5;"/>
  </g>
</svg>