<svg width="150px" height="380px" version="1.1" xmlns="http://www.w3.org/2000/svg" xmlns:xlink="http://www.w3.org/1999/xlink" xml:space="preserve" xmlns:serif="http://www.serif.com/" style="fill-rule:evenodd;clip-rule:evenodd;stroke-linecap:round;">
  <defs>
    <linearGradient id="_Linear1" x1="0" y1="0" x2="1" y2="0" gradientUnits="userSpaceOnUse" gradientTransform="matrix(150,-379.998,379.998,150,0.000328145,379.998)">
      <stop offset="0" style="stop-color:rgb(9,13,17);stop-opacity:1"/>
      <stop offset="1" style="stop-color:rgb(24,35,46);stop-opacity:1"/>
    </linearGradient>
  </defs>
  <g id="Panel">
    <rect id="rect9931" x="0" y="0" width="150" height="380" style="fill:rgb(26,26,26);"/>
    <rect id="rect1106" x="0" y="0" width="150" height="379.998" style="fill:url(#_Linear1);"/>
    <path id="path1109" d="M62.683,123.163c-0.364,-0.444 -0.812,-0.664 -1.345,-0.664c-0.236,0 -0.452,0.044 -0.652,0.128c-0.2,0.084 -0.372,0.2 -0.516,0.348c-0.144,0.148 -0.256,0.32 -0.34,0.524c-0.084,0.204 -0.124,0.42 -0.124,0.657c0,0.24 0.04,0.46 0.124,0.664c0.084,0.204 0.196,0.38 0.344,0.528c0.148,0.148 0.32,0.268 0.516,0.352c0.196,0.084 0.412,0.128 0.64,0.128c0.501,0 0.953,-0.212 1.353,-0.64l0,1.857l-0.16,0.056c-0.24,0.084 -0.464,0.148 -0.672,0.188c-0.209,0.04 -0.413,0.06 -0.617,0.06c-0.416,0 -0.816,-0.08 -1.196,-0.236c-0.38,-0.156 -0.717,-0.38 -1.009,-0.665c-0.292,-0.284 -0.524,-0.624 -0.7,-1.016c-0.176,-0.392 -0.264,-0.82 -0.264,-1.284c0,-0.465 0.088,-0.889 0.26,-1.277c0.172,-0.388 0.404,-0.72 0.696,-1c0.292,-0.281 0.629,-0.501 1.013,-0.657c0.384,-0.156 0.788,-0.236 1.208,-0.236c0.24,0 0.476,0.024 0.709,0.076c0.232,0.052 0.476,0.128 0.732,0.236l0,1.873Z" style="fill:white;fill-rule:nonzero;"/>
    <path id="path1111" d="M65.244,121.146l0,3.282c0,0.176 0.008,0.356 0.02,0.54c0.012,0.184 0.052,0.352 0.12,0.5c0.068,0.148 0.172,0.272 0.316,0.364c0.144,0.092 0.348,0.14 0.608,0.14c0.26,0 0.465,-0.048 0.605,-0.14c0.14,-0.092 0.248,-0.216 0.316,-0.364c0.068,-0.148 0.112,-0.316 0.124,-0.5c0.012,-0.184 0.02,-0.364 0.02,-0.54l0,-3.282l1.56,0l0,3.498c0,0.94 -0.216,1.624 -0.644,2.057c-0.428,0.432 -1.088,0.648 -1.981,0.648c-0.892,0 -1.552,-0.216 -1.984,-0.648c-0.433,-0.433 -0.649,-1.117 -0.649,-2.057l0,-3.498l1.569,0Z" style="fill:white;fill-rule:nonzero;"/>
    <path id="path1113" d="M72.487,122.475l0,4.706l-1.569,0l0,-4.706l-1.288,0l0,-1.329l4.145,0l0,1.329l-1.288,0Z" style="fill:white;fill-rule:nonzero;"/>
    <path id="path1115" d="M75.784,124.164c0,0.24 0.044,0.46 0.136,0.664c0.092,0.204 0.212,0.38 0.369,0.528c0.156,0.148 0.336,0.264 0.54,0.348c0.204,0.084 0.424,0.124 0.652,0.124c0.228,0 0.448,-0.04 0.652,-0.124c0.204,-0.084 0.388,-0.2 0.545,-0.348c0.156,-0.148 0.28,-0.324 0.372,-0.528c0.092,-0.204 0.136,-0.424 0.136,-0.664c0,-0.241 -0.044,-0.461 -0.136,-0.665c-0.092,-0.204 -0.216,-0.38 -0.372,-0.528c-0.157,-0.148 -0.341,-0.264 -0.545,-0.348c-0.204,-0.084 -0.424,-0.124 -0.652,-0.124c-0.228,0 -0.448,0.04 -0.652,0.124c-0.204,0.084 -0.384,0.2 -0.54,0.348c-0.157,0.148 -0.277,0.324 -0.369,0.528c-0.092,0.204 -0.136,0.424 -0.136,0.665Zm-1.64,0c0,-0.449 0.084,-0.865 0.248,-1.253c0.164,-0.388 0.396,-0.724 0.688,-1.012c0.292,-0.289 0.644,-0.513 1.052,-0.677c0.409,-0.164 0.857,-0.244 1.349,-0.244c0.484,0 0.932,0.08 1.345,0.244c0.412,0.164 0.764,0.388 1.06,0.677c0.296,0.288 0.528,0.624 0.692,1.012c0.164,0.388 0.248,0.804 0.248,1.253c0,0.448 -0.084,0.864 -0.248,1.252c-0.164,0.388 -0.396,0.724 -0.692,1.012c-0.296,0.289 -0.648,0.513 -1.06,0.677c-0.413,0.164 -0.861,0.244 -1.345,0.244c-0.492,0 -0.94,-0.08 -1.349,-0.244c-0.408,-0.164 -0.76,-0.388 -1.052,-0.677c-0.292,-0.288 -0.524,-0.624 -0.688,-1.012c-0.164,-0.388 -0.248,-0.804 -0.248,-1.252Z" style="fill:white;fill-rule:nonzero;"/>
    <path id="path1117" d="M85.276,122.475l-1.889,0l0,1.008l1.721,0l0,1.329l-1.721,0l0,2.369l-1.568,0l0,-6.035l3.457,0l0,1.329Z" style="fill:white;fill-rule:nonzero;"/>
    <path id="path1119" d="M89.67,122.475l-1.889,0l0,1.008l1.721,0l0,1.329l-1.721,0l0,2.369l-1.568,0l0,-6.035l3.457,0l0,1.329Z" style="fill:white;fill-rule:nonzero;"/>
    <path id="path1124" d="M102.739,103.173c8.221,-14.243 5.003,-32.509 -7.595,-43.081c-12.597,-10.566 -31.149,-10.566 -43.747,0c-12.597,10.572 -15.815,28.838 -7.594,43.081" style="fill:none;stroke:rgb(204,204,204);stroke-width:1.5px;"/>
    <circle id="circle1127" cx="44.173" cy="112.44" r="3.706" style="fill:none;stroke:rgb(204,204,204);stroke-width:1px;stroke-linecap:butt;"/>
    <circle id="circle1130" cx="102.952" cy="111.928" r="3.706" style="fill:rgb(204,204,204);stroke:rgb(204,204,204);stroke-width:1px;stroke-linecap:butt;"/>
    <rect id="rect1133" x="63.164" y="349.613" width="1.569" height="6.035" style="fill:white;"/>
    <path id="path1135" d="M65.997,355.648l0,-6.035l1.569,0l2.897,3.69l0,-3.69l1.561,0l0,6.035l-1.561,0l-2.897,-3.69l0,3.69l-1.569,0Z" style="fill:white;fill-rule:nonzero;"/>
    <path id="path1137" d="M74.857,352.382l0.52,0c0.577,0 0.865,-0.252 0.865,-0.752c0,-0.5 -0.288,-0.752 -0.865,-0.752l-0.52,0l0,1.504Zm0,3.266l-1.569,0l0,-6.035l2.497,0c0.677,0 1.197,0.176 1.557,0.529c0.36,0.352 0.54,0.848 0.54,1.488c0,0.64 -0.18,1.137 -0.54,1.489c-0.36,0.352 -0.88,0.528 -1.557,0.528l-0.928,0l0,2.001Z" style="fill:white;fill-rule:nonzero;"/>
    <path id="path1139" d="M80.283,349.613l0,3.282c0,0.176 0.008,0.356 0.02,0.54c0.012,0.184 0.052,0.352 0.12,0.5c0.068,0.148 0.172,0.272 0.317,0.364c0.144,0.092 0.348,0.14 0.608,0.14c0.26,0 0.464,-0.048 0.604,-0.14c0.14,-0.092 0.248,-0.216 0.316,-0.364c0.068,-0.148 0.112,-0.316 0.124,-0.5c0.012,-0.184 0.02,-0.364 0.02,-0.54l0,-3.282l1.561,0l0,3.498c0,0.94 -0.216,1.624 -0.644,2.057c-0.429,0.432 -1.089,0.648 -1.981,0.648c-0.893,0 -1.553,-0.216 -1.985,-0.648c-0.432,-0.433 -0.648,-1.117 -0.648,-2.057l0,-3.498l1.568,0Z" style="fill:white;fill-rule:nonzero;"/>
    <path id="path1141" d="M87.526,350.942l0,4.706l-1.568,0l0,-4.706l-1.289,0l0,-1.329l4.146,0l0,1.329l-1.289,0Z" style="fill:white;fill-rule:nonzero;"/>
    <path id="path1146" d="M52.929,38.447c-0.571,0.152 -1.1,0.229 -1.587,0.229c-0.816,0 -1.461,-0.241 -1.934,-0.719c-0.474,-0.48 -0.711,-1.133 -0.711,-1.958c0,-0.835 0.244,-1.489 0.731,-1.961c0.488,-0.471 1.161,-0.707 2.021,-0.707c0.416,0 0.896,0.067 1.439,0.2l0,0.996c-0.566,-0.183 -1.018,-0.274 -1.355,-0.274c-0.413,0 -0.746,0.158 -0.997,0.474c-0.251,0.317 -0.377,0.737 -0.377,1.262c0,0.537 0.136,0.967 0.408,1.29c0.271,0.323 0.633,0.484 1.086,0.484c0.413,0 0.839,-0.09 1.276,-0.27l0,0.954Z" style="fill:white;fill-rule:nonzero;"/>
    <path id="path1148" d="M54.232,38.559l0,-5.112l1.323,0l0,0.964c0.403,-0.72 0.977,-1.08 1.723,-1.08c0.384,0 0.7,0.094 0.949,0.284c0.248,0.189 0.4,0.455 0.457,0.796c0.477,-0.72 1.055,-1.08 1.732,-1.08c0.934,0 1.4,0.516 1.4,1.546l0,3.682l-1.322,0l0,-3.231c0,-0.605 -0.201,-0.908 -0.605,-0.908c-0.412,0 -0.815,0.298 -1.205,0.894l0,3.245l-1.323,0l0,-3.231c0,-0.608 -0.203,-0.912 -0.61,-0.912c-0.406,0 -0.805,0.299 -1.196,0.898l0,3.245l-1.323,0Z" style="fill:white;fill-rule:nonzero;"/>
    <path id="path1150" d="M65.625,38.676c-0.797,0 -1.432,-0.242 -1.902,-0.725c-0.47,-0.482 -0.705,-1.131 -0.705,-1.948c0,-0.826 0.236,-1.477 0.71,-1.955c0.473,-0.478 1.117,-0.717 1.93,-0.717c0.816,0 1.461,0.239 1.934,0.717c0.473,0.478 0.709,1.126 0.709,1.946c0,0.838 -0.237,1.495 -0.712,1.969c-0.474,0.475 -1.13,0.713 -1.964,0.713Zm0.023,-0.862c0.791,0 1.187,-0.607 1.187,-1.82c0,-0.556 -0.105,-0.994 -0.314,-1.317c-0.21,-0.323 -0.497,-0.484 -0.863,-0.484c-0.363,0 -0.65,0.161 -0.86,0.484c-0.209,0.323 -0.313,0.764 -0.313,1.326c0,0.556 0.103,0.997 0.311,1.323c0.208,0.326 0.492,0.488 0.852,0.488Z" style="fill:white;fill-rule:nonzero;"/>
    <path id="path1152" d="M69.433,38.396l0,-1.01c0.683,0.286 1.267,0.428 1.75,0.428c0.566,0 0.847,-0.192 0.847,-0.577c0,-0.248 -0.233,-0.465 -0.697,-0.651l-0.466,-0.187c-0.506,-0.205 -0.867,-0.425 -1.084,-0.662c-0.218,-0.235 -0.326,-0.527 -0.326,-0.874c0,-0.485 0.184,-0.861 0.553,-1.13c0.37,-0.268 0.886,-0.402 1.55,-0.402c0.416,0 0.912,0.06 1.486,0.182l0,0.968c-0.553,-0.193 -1.01,-0.288 -1.373,-0.288c-0.572,0 -0.857,0.177 -0.857,0.53c0,0.233 0.211,0.43 0.633,0.591l0.4,0.153c0.6,0.227 1.016,0.457 1.25,0.69c0.235,0.233 0.351,0.532 0.351,0.899c0,0.48 -0.199,0.871 -0.598,1.171c-0.398,0.298 -0.918,0.449 -1.556,0.449c-0.616,0 -1.236,-0.094 -1.863,-0.28Z" style="fill:white;fill-rule:nonzero;"/>
    <path id="path1154" d="M78.245,38.559l0,-4.251l-0.703,0l0,-0.861l0.703,0l0,-0.353c0,-0.643 0.154,-1.137 0.46,-1.484c0.305,-0.345 0.74,-0.518 1.305,-0.518c0.348,0 0.717,0.063 1.108,0.19l0,0.941c-0.385,-0.171 -0.67,-0.256 -0.857,-0.256c-0.424,0 -0.637,0.388 -0.637,1.164l0,0.316l3.216,0l0,5.112l-1.377,0l0,-4.251l-1.839,0l0,4.251l-1.379,0Zm3.446,-5.972l0,-1.151l1.149,0l0,1.151l-1.149,0Z" style="fill:white;fill-rule:nonzero;"/>
    <rect id="rect1156" x="84.563" y="31.208" width="1.379" height="7.351" style="fill:white;"/>
    <path id="path1158" d="M90.298,38.532c-0.328,0.095 -0.587,0.144 -0.777,0.144c-1.194,0 -1.792,-0.559 -1.792,-1.676l0,-2.692l-0.573,0l0,-0.861l0.573,0l0,-0.86l1.378,-0.159l0,1.019l1.094,0l0,0.861l-1.094,0l0,2.509c0,0.628 0.257,0.942 0.768,0.942c0.119,0 0.259,-0.023 0.423,-0.066l0,0.839Z" style="fill:white;fill-rule:nonzero;"/>
    <path id="path1160" d="M95.69,38.387c-0.655,0.192 -1.276,0.289 -1.863,0.289c-0.853,0 -1.526,-0.243 -2.02,-0.727c-0.493,-0.484 -0.74,-1.145 -0.74,-1.983c0,-0.792 0.226,-1.428 0.678,-1.911c0.451,-0.483 1.048,-0.724 1.789,-0.724c0.749,0 1.295,0.236 1.639,0.707c0.345,0.472 0.517,1.219 0.517,2.239l-3.17,0c0.093,0.976 0.628,1.463 1.606,1.463c0.463,0 0.983,-0.107 1.564,-0.321l0,0.968Zm-3.189,-2.887l1.835,0c0,-0.872 -0.282,-1.307 -0.843,-1.307c-0.572,0 -0.902,0.435 -0.992,1.307Z" style="fill:white;fill-rule:nonzero;"/>
    <path id="path1162" d="M97.115,38.559l0,-5.112l1.377,0l0,0.964c0.357,-0.72 0.9,-1.08 1.63,-1.08c0.087,0 0.172,0.009 0.256,0.027l0,1.23c-0.196,-0.071 -0.377,-0.107 -0.544,-0.107c-0.55,0 -0.997,0.278 -1.342,0.833l0,3.245l-1.377,0Z" style="fill:white;fill-rule:nonzero;"/>
    <path id="path1167" d="M59.116,19.797l-2.968,0l0,1.585l2.705,0l0,2.089l-2.705,0l0,3.724l-2.466,0l0,-9.485l5.434,0l0,2.087Z" style="fill:rgb(172,181,188);fill-rule:nonzero;"/>
    <path id="path1169" d="M65.985,19.797l-2.93,0l0,1.585l2.766,0l0,2.089l-2.766,0l0,1.635l2.93,0l0,2.089l-5.397,0l0,-9.485l5.397,0l0,2.087Z" style="fill:rgb(172,181,188);fill-rule:nonzero;"/>
    <path id="path1171" d="M70.225,21.948l0.466,0c0.486,0 0.859,-0.099 1.119,-0.301c0.259,-0.201 0.39,-0.491 0.39,-0.868c0,-0.377 -0.131,-0.666 -0.39,-0.868c-0.26,-0.201 -0.633,-0.301 -1.119,-0.301l-0.466,0l0,2.338Zm5.422,5.247l-3.07,0l-2.352,-3.648l0,3.648l-2.466,0l0,-9.485l3.838,0c0.527,0 0.989,0.078 1.383,0.232c0.395,0.156 0.72,0.368 0.975,0.635c0.256,0.269 0.448,0.58 0.578,0.931c0.131,0.353 0.195,0.73 0.195,1.133c0,0.721 -0.173,1.306 -0.522,1.755c-0.348,0.449 -0.861,0.753 -1.541,0.912l2.982,3.887Z" style="fill:rgb(172,181,188);fill-rule:nonzero;"/>
    <path id="path1173" d="M78.653,22.452c0,0.378 0.072,0.726 0.215,1.044c0.142,0.318 0.335,0.596 0.578,0.831c0.243,0.235 0.526,0.417 0.849,0.546c0.323,0.131 0.665,0.196 1.026,0.196c0.36,0 0.702,-0.065 1.024,-0.196c0.324,-0.129 0.609,-0.311 0.857,-0.546c0.246,-0.235 0.442,-0.513 0.584,-0.831c0.143,-0.318 0.213,-0.666 0.213,-1.044c0,-0.377 -0.07,-0.725 -0.213,-1.044c-0.142,-0.319 -0.338,-0.596 -0.584,-0.83c-0.248,-0.234 -0.533,-0.417 -0.857,-0.547c-0.322,-0.13 -0.664,-0.195 -1.024,-0.195c-0.361,0 -0.703,0.065 -1.026,0.195c-0.323,0.13 -0.606,0.313 -0.849,0.547c-0.243,0.234 -0.436,0.511 -0.578,0.83c-0.143,0.319 -0.215,0.667 -0.215,1.044Zm-2.579,0c0,-0.705 0.131,-1.36 0.391,-1.969c0.259,-0.607 0.62,-1.138 1.081,-1.591c0.461,-0.453 1.013,-0.807 1.654,-1.063c0.642,-0.256 1.348,-0.384 2.121,-0.384c0.763,0 1.466,0.128 2.112,0.384c0.646,0.256 1.202,0.61 1.668,1.063c0.465,0.453 0.828,0.984 1.088,1.591c0.26,0.609 0.39,1.264 0.39,1.969c0,0.705 -0.13,1.361 -0.39,1.969c-0.26,0.608 -0.623,1.138 -1.088,1.591c-0.466,0.453 -1.022,0.807 -1.668,1.063c-0.646,0.256 -1.349,0.384 -2.112,0.384c-0.773,0 -1.479,-0.128 -2.121,-0.384c-0.641,-0.256 -1.193,-0.61 -1.654,-1.063c-0.461,-0.453 -0.822,-0.983 -1.081,-1.591c-0.26,-0.608 -0.391,-1.264 -0.391,-1.969Z" style="fill:rgb(172,181,188);fill-rule:nonzero;"/>
    <path id="path1175" d="M90.378,22.138l-2.957,-4.428l3.045,0l1.283,2.452l1.585,-2.452l3.044,0l-3.132,4.428l3.535,5.057l-3.007,0l-1.899,-3.094l-2.227,3.094l-2.981,0l3.711,-5.057Z" style="fill:rgb(172,181,188);fill-rule:nonzero;"/>
    <path id="path42" d="M62.952,363.5l2.673,0l2.49,8.317l2.574,-8.317l2.66,0l-3.46,10.397c-0.323,0.959 -0.903,1.438 -1.738,1.438c-0.847,0 -1.433,-0.484 -1.755,-1.453l-3.444,-10.382Z" style="fill:rgb(172,181,188);fill-rule:nonzero;"/>
    <path id="path44" d="M73.55,372.292l0,-8.792l2.507,0l0,8.709c0.044,0.312 0.334,0.468 0.869,0.468l1.705,0c0.513,0 0.797,-0.145 0.853,-0.435l0.017,-0.083l0,-8.659l2.507,0l0,8.776c0,0.769 -0.083,1.315 -0.251,1.638c-0.445,0.858 -1.231,1.287 -2.357,1.287l-3.243,0c-1.159,0 -1.95,-0.44 -2.373,-1.321c-0.156,-0.323 -0.234,-0.852 -0.234,-1.588Z" style="fill:rgb(172,181,188);fill-rule:nonzero;"/>
    <path id="path46" d="M83.161,372.343l0,-8.843l2.508,0l0,8.642c0,0.357 0.211,0.535 0.635,0.535l4.463,0l-0.016,2.524l-4.664,0c-0.167,0 -0.312,-0.005 -0.435,-0.017c-0.903,-0.077 -1.544,-0.342 -1.922,-0.794c-0.379,-0.451 -0.569,-1.134 -0.569,-2.047Z" style="fill:rgb(172,181,188);fill-rule:nonzero;"/>
    <path id="path48" d="M90.851,366.024l0,-2.524l7.522,0l0,2.524l-2.524,0l0,9.177l-2.508,0l0,-9.177l-2.49,0Z" style="fill:rgb(172,181,188);fill-rule:nonzero;"/>
    <path id="path4" d="M59.383,369.417c0,-4.509 -3.655,-8.164 -8.164,-8.164c-4.509,0 -8.165,3.655 -8.165,8.164c0,4.509 3.656,8.165 8.165,8.165c4.509,0 8.164,-3.656 8.164,-8.165Z" style="fill:rgb(117,117,117);fill-rule:nonzero;stroke:rgb(65,76,85);stroke-width:0.61px;stroke-linecap:butt;stroke-miterlimit:10;"/>
    <g id="g40">
      <path id="polygon6" d="M49.321,374.394l0.553,-0.891l-1.064,-2.393l-2.216,-2.284l0.46,3.101l0.597,1.28l0.833,1.264l0.837,-0.077Z" style="fill:rgb(43,43,43);fill-rule:nonzero;stroke:rgb(65,76,85);stroke-width:0.04px;stroke-linecap:butt;"/>
      <path id="polygon8" d="M53.048,374.401l-0.553,-0.89l1.064,-2.393l2.216,-2.285l-0.46,3.101l-0.597,1.281l-0.833,1.263l-0.837,-0.077Z" style="fill:rgb(38,38,38);fill-rule:nonzero;stroke:rgb(65,76,85);stroke-width:0.04px;stroke-linecap:butt;"/>
      <path id="polygon12" d="M48.636,363.359l2.584,-0.66l0,13.447l-1.349,-2.651l-1.061,-2.385l-1.022,-0.581l-2.052,-2.92l-0.057,-0.776l1.148,-2.067l1.809,-1.407Z" style="fill:rgb(66,66,66);fill-rule:nonzero;stroke:rgb(65,76,85);stroke-width:0.04px;stroke-linecap:butt;"/>
      <path id="polygon14" d="M53.801,363.364l-2.584,-0.661l0,13.448l1.35,-2.651l1.06,-2.385l1.023,-0.581l2.051,-2.921l0.058,-0.775l-1.149,-2.067l-1.809,-1.407Z" style="fill:rgb(51,51,51);fill-rule:nonzero;stroke:rgb(65,76,85);stroke-width:0.04px;stroke-linecap:butt;"/>
      <path id="polyline16" d="M49.496,369.237l1.723,-1.684l0,1.229l-1.723,1.718l0,-1.263" style="fill:rgb(76,76,76);fill-rule:nonzero;stroke:rgb(65,76,85);stroke-width:0.04px;stroke-linecap:butt;"/>
      <path id="polygon18" d="M51.22,368.781l-1.723,1.718l0.377,3.004l1.346,2.643l0,-7.365Z" style="fill:rgb(91,91,91);fill-rule:nonzero;stroke:rgb(65,76,85);stroke-width:0.04px;stroke-linecap:butt;"/>
      <path id="polygon20" d="M51.22,376.146l-1.346,-2.643l1.346,-0.635l0,3.278Z" style="fill:rgb(51,51,51);fill-rule:nonzero;stroke:rgb(65,76,85);stroke-width:0.04px;stroke-linecap:butt;"/>
      <path id="polygon22" d="M49.497,370.499l0,-1.263l-1.249,-1.58l-1.477,-1.19l-0.001,0.932l0.775,1.823l1.952,1.278Z" style="fill:white;fill-rule:nonzero;stroke:rgb(65,76,85);stroke-width:0.04px;stroke-linecap:butt;"/>
      <path id="polyline24" d="M52.942,369.238l-1.722,-1.685l0,1.23l1.722,1.718l0,-1.263" style="fill:rgb(45,45,45);fill-rule:nonzero;stroke:rgb(65,76,85);stroke-width:0.04px;stroke-linecap:butt;"/>
      <path id="polygon26" d="M51.218,368.781l1.722,1.718l-0.376,3.004l-1.347,2.643l0.001,-7.365Z" style="fill:rgb(53,53,53);fill-rule:nonzero;stroke:rgb(65,76,85);stroke-width:0.04px;stroke-linecap:butt;"/>
      <path id="polygon28" d="M51.217,376.146l1.347,-2.643l-1.346,-0.635l-0.001,3.278Z" style="fill:rgb(25,25,25);fill-rule:nonzero;stroke:rgb(65,76,85);stroke-width:0.04px;stroke-linecap:butt;"/>
      <path id="polygon30" d="M52.94,370.499l0,-1.263l1.249,-1.58l1.478,-1.19l0.001,0.932l-0.775,1.823l-1.953,1.278Z" style="fill:white;fill-rule:nonzero;stroke:rgb(65,76,85);stroke-width:0.04px;stroke-linecap:butt;"/>
      <path id="polyline32" d="M48.652,363.338l2.566,4.215l-0.005,-4.87" style="fill:rgb(56,56,56);fill-rule:nonzero;stroke:rgb(65,76,85);stroke-width:0.04px;stroke-linecap:butt;"/>
      <path id="polyline34" d="M53.785,363.338l-2.566,4.215l0.006,-4.869" style="fill:rgb(45,45,45);fill-rule:nonzero;stroke:rgb(65,76,85);stroke-width:0.04px;stroke-linecap:butt;"/>
      <path id="polygon36" d="M48.811,371.111l0.688,-0.611l0.375,3.006l-1.063,-2.395Z" style="fill:rgb(51,51,51);fill-rule:nonzero;stroke:rgb(65,76,85);stroke-width:0.04px;stroke-linecap:butt;"/>
      <path id="polygon38" d="M53.631,371.125l-0.688,-0.61l-0.375,3.006l1.063,-2.396Z" style="fill:rgb(28,28,28);fill-rule:nonzero;stroke:rgb(65,76,85);stroke-width:0.04px;stroke-linecap:butt;"/>
    </g>
    <path id="path1204" d="M74.99,246.071c0,-6.012 -4.882,-10.894 -10.892,-10.894l-50.827,0c-6.011,0 -10.892,4.882 -10.892,10.894l0,58.618c0,6.012 4.881,10.891 10.892,10.891l50.827,0c6.01,0 10.892,-4.879 10.892,-10.891l0,-58.618Z" style="stroke:rgb(65,76,85);stroke-width:1px;stroke-linecap:butt;"/>
    <path id="path1208" d="M52.317,269.448l0.344,0c0.396,0 0.676,-0.052 0.848,-0.152c0.173,-0.1 0.257,-0.264 0.257,-0.488c0,-0.224 -0.084,-0.388 -0.257,-0.488c-0.172,-0.1 -0.452,-0.152 -0.848,-0.152l-0.344,0l0,1.28Zm0,-2.449l0.288,0c0.492,0 0.736,-0.196 0.736,-0.584c0,-0.388 -0.244,-0.584 -0.736,-0.584l-0.288,0l0,1.168Zm-1.569,-2.369l2.337,0c0.557,0 0.977,0.132 1.265,0.4c0.288,0.269 0.432,0.653 0.432,1.153c0,0.304 -0.056,0.556 -0.164,0.756c-0.108,0.2 -0.276,0.368 -0.5,0.508c0.224,0.044 0.416,0.109 0.572,0.197c0.156,0.088 0.284,0.196 0.384,0.324c0.1,0.128 0.168,0.272 0.212,0.432c0.044,0.16 0.064,0.332 0.064,0.512c0,0.284 -0.048,0.532 -0.148,0.752c-0.1,0.22 -0.236,0.405 -0.416,0.553c-0.18,0.148 -0.396,0.26 -0.652,0.336c-0.256,0.076 -0.545,0.112 -0.865,0.112l-2.521,0l0,-6.035Z" style="fill:white;fill-rule:nonzero;"/>
    <path id="path1210" d="M57.855,267.399l0.52,0c0.577,0 0.865,-0.252 0.865,-0.752c0,-0.5 -0.288,-0.752 -0.865,-0.752l-0.52,0l0,1.504Zm0,3.266l-1.568,0l0,-6.035l2.497,0c0.676,0 1.196,0.176 1.556,0.529c0.36,0.352 0.541,0.848 0.541,1.488c0,0.64 -0.181,1.137 -0.541,1.489c-0.36,0.352 -0.88,0.528 -1.556,0.528l-0.929,0l0,2.001Z" style="fill:white;fill-rule:nonzero;"/>
    <path id="path1215" d="M20.137,264.63l0,4.706l1.881,0l0,1.329l-3.449,0l0,-6.035l1.568,0Z" style="fill:white;fill-rule:nonzero;"/>
    <path id="path1217" d="M24.395,267.399l0.52,0c0.577,0 0.865,-0.252 0.865,-0.752c0,-0.5 -0.288,-0.752 -0.865,-0.752l-0.52,0l0,1.504Zm0,3.266l-1.568,0l0,-6.035l2.497,0c0.676,0 1.196,0.176 1.556,0.529c0.36,0.352 0.54,0.848 0.54,1.488c0,0.64 -0.18,1.137 -0.54,1.489c-0.36,0.352 -0.88,0.528 -1.556,0.528l-0.929,0l0,2.001Z" style="fill:white;fill-rule:nonzero;"/>
    <path id="path1222" d="M40.143,311.925l0,-6.035l1.568,0l2.898,3.69l0,-3.69l1.56,0l0,6.035l-1.56,0l-2.898,-3.69l0,3.69l-1.568,0Z" style="fill:white;fill-rule:nonzero;"/>
    <path id="path1224" d="M48.874,308.908c0,0.24 0.044,0.46 0.136,0.664c0.092,0.204 0.212,0.38 0.368,0.528c0.157,0.148 0.337,0.264 0.541,0.348c0.204,0.084 0.424,0.124 0.652,0.124c0.228,0 0.448,-0.04 0.652,-0.124c0.204,-0.084 0.388,-0.2 0.544,-0.348c0.157,-0.148 0.281,-0.324 0.373,-0.528c0.092,-0.204 0.136,-0.424 0.136,-0.664c0,-0.241 -0.044,-0.461 -0.136,-0.665c-0.092,-0.204 -0.216,-0.38 -0.373,-0.528c-0.156,-0.148 -0.34,-0.264 -0.544,-0.348c-0.204,-0.084 -0.424,-0.124 -0.652,-0.124c-0.228,0 -0.448,0.04 -0.652,0.124c-0.204,0.084 -0.384,0.2 -0.541,0.348c-0.156,0.148 -0.276,0.324 -0.368,0.528c-0.092,0.204 -0.136,0.424 -0.136,0.665Zm-1.64,0c0,-0.449 0.084,-0.865 0.248,-1.253c0.164,-0.388 0.396,-0.724 0.688,-1.012c0.292,-0.289 0.644,-0.513 1.052,-0.677c0.409,-0.164 0.857,-0.244 1.349,-0.244c0.484,0 0.932,0.08 1.345,0.244c0.412,0.164 0.764,0.388 1.06,0.677c0.296,0.288 0.528,0.624 0.692,1.012c0.164,0.388 0.248,0.804 0.248,1.253c0,0.448 -0.084,0.864 -0.248,1.252c-0.164,0.388 -0.396,0.724 -0.692,1.012c-0.296,0.289 -0.648,0.513 -1.06,0.677c-0.413,0.164 -0.861,0.244 -1.345,0.244c-0.492,0 -0.94,-0.08 -1.349,-0.244c-0.408,-0.164 -0.76,-0.388 -1.052,-0.677c-0.292,-0.288 -0.524,-0.624 -0.688,-1.012c-0.164,-0.388 -0.248,-0.804 -0.248,-1.252Z" style="fill:white;fill-rule:nonzero;"/>
    <path id="path1226" d="M57.134,307.219l0,4.706l-1.569,0l0,-4.706l-1.288,0l0,-1.329l4.145,0l0,1.329l-1.288,0Z" style="fill:white;fill-rule:nonzero;"/>
    <path id="path1228" d="M63.408,307.907c-0.364,-0.444 -0.812,-0.664 -1.344,-0.664c-0.236,0 -0.452,0.044 -0.653,0.128c-0.2,0.084 -0.372,0.2 -0.516,0.348c-0.144,0.148 -0.256,0.32 -0.34,0.524c-0.084,0.204 -0.124,0.42 -0.124,0.657c0,0.24 0.04,0.46 0.124,0.664c0.084,0.204 0.196,0.38 0.344,0.528c0.148,0.148 0.32,0.268 0.516,0.352c0.197,0.084 0.413,0.128 0.641,0.128c0.5,0 0.952,-0.212 1.352,-0.64l0,1.857l-0.16,0.056c-0.24,0.084 -0.464,0.148 -0.672,0.188c-0.208,0.04 -0.412,0.06 -0.616,0.06c-0.416,0 -0.817,-0.08 -1.197,-0.236c-0.38,-0.156 -0.716,-0.38 -1.008,-0.665c-0.292,-0.284 -0.524,-0.624 -0.7,-1.016c-0.177,-0.392 -0.265,-0.82 -0.265,-1.284c0,-0.465 0.088,-0.889 0.261,-1.277c0.172,-0.388 0.404,-0.72 0.696,-1c0.292,-0.281 0.628,-0.501 1.012,-0.657c0.384,-0.156 0.789,-0.236 1.209,-0.236c0.24,0 0.476,0.024 0.708,0.076c0.232,0.052 0.476,0.128 0.732,0.236l0,1.873Z" style="fill:white;fill-rule:nonzero;"/>
    <path id="path1230" d="M66.225,308.219l2.265,0l0,-2.329l1.569,0l0,6.035l-1.569,0l0,-2.489l-2.265,0l0,2.489l-1.568,0l0,-6.035l1.568,0l0,2.329Z" style="fill:white;fill-rule:nonzero;"/>
    <path id="path1235" d="M17.822,308.219l2.265,0l0,-2.329l1.569,0l0,6.035l-1.569,0l0,-2.489l-2.265,0l0,2.489l-1.569,0l0,-6.035l1.569,0l0,2.329Z" style="fill:white;fill-rule:nonzero;"/>
    <path id="path1237" d="M24.489,308.659l0.52,0c0.576,0 0.864,-0.252 0.864,-0.752c0,-0.5 -0.288,-0.752 -0.864,-0.752l-0.52,0l0,1.504Zm0,3.266l-1.569,0l0,-6.035l2.497,0c0.676,0 1.197,0.176 1.557,0.529c0.36,0.352 0.54,0.848 0.54,1.488c0,0.64 -0.18,1.137 -0.54,1.489c-0.36,0.352 -0.881,0.528 -1.557,0.528l-0.928,0l0,2.001Z" style="fill:white;fill-rule:nonzero;"/>
    <path id="path1242" d="M14.66,188.739l0.296,0c0.308,0 0.548,-0.064 0.712,-0.192c0.164,-0.128 0.248,-0.312 0.248,-0.552c0,-0.24 -0.084,-0.424 -0.248,-0.552c-0.164,-0.128 -0.404,-0.192 -0.712,-0.192l-0.296,0l0,1.488Zm3.449,3.338l-1.953,0l-1.496,-2.321l0,2.321l-1.569,0l0,-6.035l2.441,0c0.336,0 0.628,0.048 0.881,0.148c0.252,0.1 0.456,0.232 0.62,0.405c0.164,0.172 0.284,0.368 0.368,0.592c0.084,0.224 0.124,0.464 0.124,0.72c0,0.46 -0.112,0.832 -0.332,1.117c-0.22,0.284 -0.548,0.48 -0.981,0.58l1.897,2.473Z" style="fill:white;fill-rule:nonzero;"/>
    <path id="path1244" d="M22.199,187.371l-1.865,0l0,1.008l1.761,0l0,1.329l-1.761,0l0,1.04l1.865,0l0,1.329l-3.433,0l0,-6.035l3.433,0l0,1.329Z" style="fill:white;fill-rule:nonzero;"/>
    <path id="path1246" d="M26.641,187.587c-0.172,-0.14 -0.34,-0.24 -0.512,-0.308c-0.173,-0.068 -0.337,-0.1 -0.497,-0.1c-0.204,0 -0.368,0.048 -0.496,0.144c-0.128,0.096 -0.192,0.22 -0.192,0.376c0,0.108 0.032,0.196 0.096,0.264c0.064,0.068 0.148,0.128 0.252,0.18c0.104,0.052 0.22,0.096 0.352,0.132c0.132,0.036 0.26,0.076 0.389,0.12c0.512,0.172 0.888,0.4 1.124,0.685c0.236,0.284 0.356,0.656 0.356,1.116c0,0.308 -0.052,0.588 -0.156,0.84c-0.104,0.252 -0.256,0.465 -0.456,0.645c-0.2,0.18 -0.444,0.316 -0.736,0.416c-0.293,0.1 -0.621,0.148 -0.989,0.148c-0.764,0 -1.468,-0.228 -2.121,-0.68l0.673,-1.265c0.236,0.208 0.468,0.364 0.696,0.464c0.228,0.1 0.456,0.152 0.68,0.152c0.256,0 0.448,-0.06 0.572,-0.176c0.124,-0.116 0.188,-0.252 0.188,-0.4c0,-0.092 -0.016,-0.168 -0.048,-0.236c-0.032,-0.068 -0.084,-0.128 -0.16,-0.184c-0.076,-0.056 -0.172,-0.108 -0.292,-0.156c-0.12,-0.048 -0.264,-0.1 -0.436,-0.16c-0.204,-0.064 -0.4,-0.136 -0.596,-0.212c-0.196,-0.076 -0.368,-0.18 -0.52,-0.308c-0.152,-0.128 -0.277,-0.289 -0.369,-0.485c-0.092,-0.196 -0.14,-0.44 -0.14,-0.74c0,-0.3 0.048,-0.568 0.148,-0.812c0.101,-0.244 0.237,-0.452 0.417,-0.625c0.18,-0.172 0.396,-0.308 0.656,-0.404c0.26,-0.096 0.548,-0.144 0.868,-0.144c0.3,0 0.613,0.04 0.937,0.124c0.324,0.084 0.636,0.204 0.936,0.364l-0.624,1.225Z" style="fill:white;fill-rule:nonzero;"/>
    <path id="path1248" d="M29.866,189.06c0,0.24 0.044,0.46 0.136,0.664c0.092,0.204 0.212,0.38 0.368,0.528c0.156,0.148 0.336,0.264 0.541,0.348c0.204,0.084 0.424,0.124 0.652,0.124c0.228,0 0.448,-0.04 0.652,-0.124c0.204,-0.084 0.388,-0.2 0.544,-0.348c0.156,-0.148 0.28,-0.324 0.372,-0.528c0.093,-0.204 0.137,-0.424 0.137,-0.664c0,-0.241 -0.044,-0.461 -0.137,-0.665c-0.092,-0.204 -0.216,-0.38 -0.372,-0.528c-0.156,-0.148 -0.34,-0.264 -0.544,-0.348c-0.204,-0.084 -0.424,-0.124 -0.652,-0.124c-0.228,0 -0.448,0.04 -0.652,0.124c-0.205,0.084 -0.385,0.2 -0.541,0.348c-0.156,0.148 -0.276,0.324 -0.368,0.528c-0.092,0.204 -0.136,0.424 -0.136,0.665Zm-1.641,0c0,-0.449 0.084,-0.865 0.249,-1.253c0.164,-0.388 0.396,-0.724 0.688,-1.012c0.292,-0.289 0.644,-0.513 1.052,-0.677c0.408,-0.164 0.857,-0.244 1.349,-0.244c0.484,0 0.932,0.08 1.344,0.244c0.413,0.164 0.765,0.388 1.061,0.677c0.296,0.288 0.528,0.624 0.692,1.012c0.164,0.388 0.248,0.804 0.248,1.253c0,0.448 -0.084,0.864 -0.248,1.252c-0.164,0.388 -0.396,0.724 -0.692,1.012c-0.296,0.289 -0.648,0.513 -1.061,0.677c-0.412,0.164 -0.86,0.244 -1.344,0.244c-0.492,0 -0.941,-0.08 -1.349,-0.244c-0.408,-0.164 -0.76,-0.388 -1.052,-0.677c-0.292,-0.288 -0.524,-0.624 -0.688,-1.012c-0.165,-0.388 -0.249,-0.804 -0.249,-1.252Z" style="fill:white;fill-rule:nonzero;"/>
    <path id="path1250" d="M35.901,192.077l0,-6.035l1.568,0l2.897,3.69l0,-3.69l1.561,0l0,6.035l-1.561,0l-2.897,-3.69l0,3.69l-1.568,0Z" style="fill:white;fill-rule:nonzero;"/>
    <path id="path1252" d="M46.489,189.836l-0.704,-2.009l-0.705,2.009l1.409,0Zm0.416,1.192l-2.241,0l-0.36,1.049l-1.673,0l2.297,-6.035l1.713,0l2.297,6.035l-1.673,0l-0.36,-1.049Z" style="fill:white;fill-rule:nonzero;"/>
    <path id="path1254" d="M49.626,192.077l0,-6.035l1.569,0l2.897,3.69l0,-3.69l1.561,0l0,6.035l-1.561,0l-2.897,-3.69l0,3.69l-1.569,0Z" style="fill:white;fill-rule:nonzero;"/>
    <path id="path1256" d="M61.343,188.059c-0.364,-0.444 -0.812,-0.664 -1.344,-0.664c-0.236,0 -0.453,0.044 -0.653,0.128c-0.2,0.084 -0.372,0.2 -0.516,0.348c-0.144,0.148 -0.256,0.32 -0.34,0.524c-0.084,0.204 -0.124,0.42 -0.124,0.657c0,0.24 0.04,0.46 0.124,0.664c0.084,0.204 0.196,0.38 0.344,0.528c0.148,0.148 0.32,0.268 0.516,0.352c0.196,0.084 0.413,0.128 0.641,0.128c0.5,0 0.952,-0.212 1.352,-0.64l0,1.857l-0.16,0.056c-0.24,0.084 -0.464,0.148 -0.672,0.188c-0.208,0.04 -0.412,0.06 -0.616,0.06c-0.417,0 -0.817,-0.08 -1.197,-0.236c-0.38,-0.156 -0.716,-0.38 -1.008,-0.665c-0.292,-0.284 -0.525,-0.624 -0.701,-1.016c-0.176,-0.392 -0.264,-0.82 -0.264,-1.284c0,-0.465 0.088,-0.889 0.26,-1.277c0.172,-0.388 0.405,-0.72 0.697,-1c0.292,-0.281 0.628,-0.501 1.012,-0.657c0.384,-0.156 0.788,-0.236 1.209,-0.236c0.24,0 0.476,0.024 0.708,0.076c0.232,0.052 0.476,0.128 0.732,0.236l0,1.873Z" style="fill:white;fill-rule:nonzero;"/>
    <path id="path1258" d="M65.769,187.371l-1.865,0l0,1.008l1.761,0l0,1.329l-1.761,0l0,1.04l1.865,0l0,1.329l-3.433,0l0,-6.035l3.433,0l0,1.329Z" style="fill:white;fill-rule:nonzero;"/>
    <path id="path1263" d="M59.383,170.241c5.878,-10.184 3.577,-23.245 -5.431,-30.804c-9.007,-7.556 -22.273,-7.556 -31.281,0c-9.007,7.559 -11.308,20.62 -5.43,30.804" style="fill:none;stroke:rgb(204,204,204);stroke-width:1.5px;"/>
    <circle id="circle1266" cx="20.173" cy="179.509" r="3.706" style="fill:none;stroke:rgb(204,204,204);stroke-width:1px;stroke-linecap:butt;"/>
    <circle id="circle1269" cx="57.952" cy="178.997" r="3.706" style="fill:rgb(204,204,204);stroke:rgb(204,204,204);stroke-width:1px;stroke-linecap:butt;"/>
    <path id="path1274" d="M132.383,170.241c5.878,-10.184 3.577,-23.245 -5.431,-30.804c-9.007,-7.556 -22.273,-7.556 -31.281,0c-9.007,7.559 -11.308,20.62 -5.43,30.804" style="fill:none;stroke:rgb(204,204,204);stroke-width:1.5px;"/>
    <circle id="circle1277" cx="93.173" cy="179.509" r="3.706" style="fill:none;stroke:rgb(204,204,204);stroke-width:1px;stroke-linecap:butt;"/>
    <circle id="circle1280" cx="130.952" cy="178.997" r="3.706" style="fill:rgb(204,204,204);stroke:rgb(204,204,204);stroke-width:1px;stroke-linecap:butt;"/>
    <path id="path1285" d="M100.66,190.748l0.36,0c0.272,0 0.516,-0.044 0.728,-0.128c0.212,-0.084 0.392,-0.204 0.54,-0.352c0.149,-0.148 0.261,-0.328 0.337,-0.532c0.076,-0.204 0.116,-0.432 0.116,-0.676c0,-0.241 -0.04,-0.465 -0.12,-0.673c-0.08,-0.208 -0.192,-0.388 -0.341,-0.536c-0.148,-0.148 -0.328,-0.268 -0.54,-0.352c-0.212,-0.084 -0.452,-0.128 -0.72,-0.128l-0.36,0l0,3.377Zm-1.569,-4.706l2.321,0c0.412,0 0.796,0.084 1.157,0.248c0.36,0.164 0.676,0.385 0.944,0.661c0.268,0.276 0.48,0.596 0.636,0.96c0.156,0.364 0.232,0.748 0.232,1.149c0,0.396 -0.076,0.776 -0.228,1.14c-0.152,0.364 -0.364,0.688 -0.632,0.964c-0.268,0.277 -0.584,0.501 -0.944,0.665c-0.361,0.164 -0.749,0.248 -1.165,0.248l-2.321,0l0,-6.035Z" style="fill:white;fill-rule:nonzero;"/>
    <path id="path1287" d="M106.95,188.739l0.297,0c0.308,0 0.548,-0.064 0.712,-0.192c0.164,-0.128 0.248,-0.312 0.248,-0.552c0,-0.24 -0.084,-0.424 -0.248,-0.552c-0.164,-0.128 -0.404,-0.192 -0.712,-0.192l-0.297,0l0,1.488Zm3.45,3.338l-1.953,0l-1.497,-2.321l0,2.321l-1.568,0l0,-6.035l2.441,0c0.336,0 0.628,0.048 0.88,0.148c0.252,0.1 0.456,0.232 0.62,0.405c0.164,0.172 0.285,0.368 0.369,0.592c0.084,0.224 0.124,0.464 0.124,0.72c0,0.46 -0.112,0.832 -0.333,1.117c-0.22,0.284 -0.548,0.48 -0.98,0.58l1.897,2.473Z" style="fill:white;fill-rule:nonzero;"/>
    <rect id="rect1289" x="111.056" y="186.042" width="1.569" height="6.035" style="fill:white;"/>
    <path id="path1291" d="M114.962,186.042l1.456,3.674l1.465,-3.674l1.705,0l-2.545,6.035l-1.249,0l-2.537,-6.035l1.705,0Z" style="fill:white;fill-rule:nonzero;"/>
    <path id="path1293" d="M123.653,187.371l-1.864,0l0,1.008l1.76,0l0,1.329l-1.76,0l0,1.04l1.864,0l0,1.329l-3.433,0l0,-6.035l3.433,0l0,1.329Z" style="fill:white;fill-rule:nonzero;"/>
    <path id="path1298" d="M64.531,215.859l0.024,4.41" style="fill:rgb(204,204,204);fill-rule:nonzero;stroke:rgb(204,204,204);stroke-width:1px;"/>
    <path id="path1301" d="M66.748,218.032l-4.41,0.02" style="fill:rgb(204,204,204);fill-rule:nonzero;stroke:rgb(204,204,204);stroke-width:1px;"/>
    <path id="path1304" d="M48.429,217.908l-4.414,0.02" style="fill:rgb(204,204,204);fill-rule:nonzero;stroke:rgb(204,204,204);stroke-width:1px;"/>
    <path id="path1307" d="M64.904,214.662c2.737,-4.742 1.664,-10.824 -2.533,-14.346c-4.194,-3.521 -10.373,-3.521 -14.567,0c-4.197,3.522 -5.27,9.604 -2.533,14.346l9.816,-5.666l9.817,5.666Z" style="fill:none;stroke:rgb(204,204,204);stroke-width:1px;"/>
    <path id="path1310" d="M55.087,209l-0.024,-13.31" style="fill:none;stroke:rgb(204,204,204);stroke-width:1px;"/>
    <path id="path1315" d="M105.904,214.662c2.737,-4.742 1.664,-10.824 -2.534,-14.346c-4.193,-3.521 -10.372,-3.521 -14.566,0c-4.197,3.522 -5.27,9.604 -2.533,14.346l9.816,-5.666l9.817,5.666Z" style="fill:none;stroke:rgb(204,204,204);stroke-width:1px;"/>
    <path id="path1318" d="M96.087,209l-0.024,-13.31" style="fill:none;stroke:rgb(204,204,204);stroke-width:1px;"/>
    <path id="path1321" d="M106.044,216.064l0.024,4.41" style="fill:rgb(204,204,204);fill-rule:nonzero;stroke:rgb(204,204,204);stroke-width:1px;"/>
    <path id="path1324" d="M108.261,218.237l-4.41,0.02" style="fill:rgb(204,204,204);fill-rule:nonzero;stroke:rgb(204,204,204);stroke-width:1px;"/>
    <path id="path1327" d="M89.942,218.113l-4.414,0.02" style="fill:rgb(204,204,204);fill-rule:nonzero;stroke:rgb(204,204,204);stroke-width:1px;"/>
    <path id="path1332" d="M137.904,74.662c2.737,-4.742 1.664,-10.824 -2.534,-14.346c-4.193,-3.521 -10.372,-3.521 -14.566,0c-4.197,3.522 -5.27,9.604 -2.533,14.346l9.816,-5.666l9.817,5.666Z" style="fill:none;stroke:rgb(204,204,204);stroke-width:1px;"/>
    <path id="path1335" d="M128.087,69l-0.024,-13.309" style="fill:none;stroke:rgb(204,204,204);stroke-width:1px;"/>
    <path id="path1338" d="M138.044,76.064l0.024,4.41" style="fill:rgb(204,204,204);fill-rule:nonzero;stroke:rgb(204,204,204);stroke-width:1px;"/>
    <path id="path1341" d="M140.261,78.237l-4.41,0.02" style="fill:rgb(204,204,204);fill-rule:nonzero;stroke:rgb(204,204,204);stroke-width:1px;"/>
    <path id="path1344" d="M121.942,78.113l-4.414,0.02" style="fill:rgb(204,204,204);fill-rule:nonzero;stroke:rgb(204,204,204);stroke-width:1px;"/>
    <path id="path1349" d="M132.383,267.241c5.878,-10.184 3.577,-23.245 -5.431,-30.804c-9.007,-7.556 -22.273,-7.556 -31.281,0c-9.007,7.559 -11.308,20.62 -5.43,30.804" style="fill:none;stroke:rgb(204,204,204);stroke-width:1.5px;"/>
    <circle id="circle1352" cx="93.173" cy="276.509" r="3.706" style="fill:none;stroke:rgb(204,204,204);stroke-width:1px;stroke-linecap:butt;"/>
    <circle id="circle1355" cx="130.952" cy="275.997" r="3.706" style="fill:rgb(204,204,204);stroke:rgb(204,204,204);stroke-width:1px;stroke-linecap:butt;"/>
    <path id="path1360" d="M104.66,287.86l0.344,0c0.396,0 0.676,-0.052 0.848,-0.152c0.172,-0.1 0.256,-0.264 0.256,-0.488c0,-0.224 -0.084,-0.388 -0.256,-0.488c-0.172,-0.1 -0.452,-0.152 -0.848,-0.152l-0.344,0l0,1.28Zm0,-2.449l0.288,0c0.492,0 0.736,-0.196 0.736,-0.584c0,-0.388 -0.244,-0.584 -0.736,-0.584l-0.288,0l0,1.168Zm-1.569,-2.369l2.337,0c0.556,0 0.977,0.132 1.265,0.4c0.288,0.269 0.432,0.653 0.432,1.153c0,0.304 -0.056,0.556 -0.164,0.756c-0.108,0.2 -0.276,0.368 -0.5,0.508c0.224,0.044 0.416,0.109 0.572,0.197c0.156,0.088 0.284,0.196 0.384,0.324c0.1,0.128 0.168,0.272 0.212,0.432c0.044,0.16 0.064,0.332 0.064,0.512c0,0.284 -0.048,0.532 -0.148,0.752c-0.1,0.22 -0.236,0.405 -0.416,0.553c-0.18,0.148 -0.396,0.26 -0.652,0.336c-0.257,0.076 -0.545,0.112 -0.865,0.112l-2.521,0l0,-6.035Z" style="fill:white;fill-rule:nonzero;"/>
    <rect id="rect1362" x="108.629" y="283.042" width="1.569" height="6.035" style="fill:white;"/>
    <path id="path1364" d="M113.752,284.371l0,4.706l-1.569,0l0,-4.706l-1.289,0l0,-1.329l4.146,0l0,1.329l-1.288,0Z" style="fill:white;fill-rule:nonzero;"/>
    <path id="path1366" d="M119.17,284.371l-1.865,0l0,1.008l1.761,0l0,1.329l-1.761,0l0,1.04l1.865,0l0,1.329l-3.434,0l0,-6.035l3.434,0l0,1.329Z" style="fill:white;fill-rule:nonzero;"/>
    <path id="path1371" d="M105.904,311.662c2.737,-4.742 1.664,-10.824 -2.534,-14.346c-4.193,-3.521 -10.372,-3.521 -14.566,0c-4.197,3.522 -5.27,9.604 -2.533,14.346l9.816,-5.666l9.817,5.666Z" style="fill:none;stroke:rgb(204,204,204);stroke-width:1px;"/>
    <path id="path1374" d="M96.087,306l-0.024,-13.31" style="fill:none;stroke:rgb(204,204,204);stroke-width:1px;"/>
    <path id="path1377" d="M106.044,313.064l0.024,4.409" style="fill:rgb(204,204,204);fill-rule:nonzero;stroke:rgb(204,204,204);stroke-width:1px;"/>
    <path id="path1380" d="M108.261,315.237l-4.41,0.02" style="fill:rgb(204,204,204);fill-rule:nonzero;stroke:rgb(204,204,204);stroke-width:1px;"/>
    <path id="path1383" d="M89.942,315.113l-4.414,0.02" style="fill:rgb(204,204,204);fill-rule:nonzero;stroke:rgb(204,204,204);stroke-width:1px;"/>
  </g>
</svg>