<svg width="150px" height="380px" version="1.1" xmlns="http://www.w3.org/2000/svg" xmlns:xlink="http://www.w3.org/1999/xlink" xml:space="preserve" xmlns:serif="http://www.serif.com/" style="fill-rule:evenodd;clip-rule:evenodd;stroke-linecap:round;">
  <defs>
    <linearGradient id="_Linear1" x1="0" y1="0" x2="1" y2="0" gradientUnits="userSpaceOnUse" gradientTransform="matrix(150,-379.998,379.998,150,0.0435799,379.998)">
      <stop offset="0" style="stop-color:rgb(9,13,17);stop-opacity:1"/>
      <stop offset="1" style="stop-color:rgb(24,35,46);stop-opacity:1"/>
    </linearGradient>
  </defs>
  <g id="Panel">
    <rect id="rect9931" x="0" y="0" width="150" height="380" style="fill:rgb(26,26,26);"/>
    <rect id="rect2024" x="0.044" y="0" width="150" height="379.998" style="fill:url(#_Linear1);"/>
    <path id="path2027" d="M36.663,38.01c-0.46,0.443 -0.951,0.666 -1.476,0.666c-0.447,0 -0.81,-0.137 -1.09,-0.41c-0.279,-0.273 -0.418,-0.627 -0.418,-1.062c0,-0.564 0.226,-1 0.677,-1.306c0.452,-0.306 1.098,-0.458 1.939,-0.458l0.368,0l0,-0.466c0,-0.53 -0.303,-0.796 -0.908,-0.796c-0.536,0 -1.079,0.152 -1.629,0.456l0,-0.949c0.624,-0.237 1.241,-0.354 1.853,-0.354c1.337,0 2.006,0.532 2.006,1.597l0,2.262c0,0.4 0.129,0.6 0.387,0.6c0.046,0 0.107,-0.005 0.181,-0.018l0.033,0.773c-0.292,0.087 -0.55,0.131 -0.773,0.131c-0.565,0 -0.928,-0.223 -1.09,-0.666l-0.06,0Zm0,-0.74l0,-1.039l-0.326,0c-0.891,0 -1.336,0.279 -1.336,0.838c0,0.19 0.064,0.349 0.193,0.478c0.128,0.128 0.288,0.193 0.478,0.193c0.322,0 0.653,-0.157 0.991,-0.47Z" style="fill:white;fill-rule:nonzero;"/>
    <path id="path2029" d="M39.764,38.559l0,-5.112l1.377,0l0,0.964c0.45,-0.72 1.031,-1.08 1.742,-1.08c0.455,0 0.816,0.144 1.08,0.433c0.264,0.289 0.395,0.683 0.395,1.183l0,3.612l-1.377,0l0,-3.273c0,-0.58 -0.193,-0.87 -0.578,-0.87c-0.438,0 -0.858,0.308 -1.262,0.927l0,3.216l-1.377,0Z" style="fill:white;fill-rule:nonzero;"/>
    <path id="path2031" d="M48.53,38.01c-0.46,0.443 -0.951,0.666 -1.476,0.666c-0.447,0 -0.81,-0.137 -1.09,-0.41c-0.278,-0.273 -0.418,-0.627 -0.418,-1.062c0,-0.564 0.225,-1 0.676,-1.306c0.453,-0.306 1.098,-0.458 1.94,-0.458l0.368,0l0,-0.466c0,-0.53 -0.303,-0.796 -0.908,-0.796c-0.537,0 -1.08,0.152 -1.629,0.456l0,-0.949c0.623,-0.237 1.241,-0.354 1.853,-0.354c1.337,0 2.006,0.532 2.006,1.597l0,2.262c0,0.4 0.129,0.6 0.386,0.6c0.047,0 0.107,-0.005 0.181,-0.018l0.033,0.773c-0.291,0.087 -0.549,0.131 -0.773,0.131c-0.564,0 -0.927,-0.223 -1.089,-0.666l-0.06,0Zm0,-0.74l0,-1.039l-0.327,0c-0.89,0 -1.336,0.279 -1.336,0.838c0,0.19 0.065,0.349 0.194,0.478c0.129,0.128 0.288,0.193 0.478,0.193c0.322,0 0.653,-0.157 0.991,-0.47Z" style="fill:white;fill-rule:nonzero;"/>
    <rect id="rect2033" x="51.631" y="31.208" width="1.379" height="7.351" style="fill:white;"/>
    <path id="path2035" d="M56.877,38.676c-0.797,0 -1.432,-0.242 -1.902,-0.725c-0.47,-0.482 -0.705,-1.131 -0.705,-1.948c0,-0.826 0.236,-1.477 0.71,-1.955c0.473,-0.478 1.117,-0.717 1.93,-0.717c0.816,0 1.461,0.239 1.934,0.717c0.473,0.478 0.71,1.126 0.71,1.946c0,0.838 -0.238,1.495 -0.712,1.969c-0.475,0.475 -1.13,0.713 -1.965,0.713Zm0.023,-0.862c0.792,0 1.187,-0.607 1.187,-1.82c0,-0.556 -0.105,-0.994 -0.313,-1.317c-0.21,-0.323 -0.498,-0.484 -0.864,-0.484c-0.363,0 -0.649,0.161 -0.859,0.484c-0.21,0.323 -0.314,0.764 -0.314,1.326c0,0.556 0.103,0.997 0.312,1.323c0.207,0.326 0.491,0.488 0.851,0.488Z" style="fill:white;fill-rule:nonzero;"/>
    <path id="path2037" d="M60.858,40.146l0.111,-1c0.569,0.26 1.11,0.39 1.625,0.39c0.509,0 0.877,-0.108 1.103,-0.325c0.227,-0.218 0.34,-0.569 0.34,-1.057l0,-0.698c-0.335,0.736 -0.889,1.103 -1.662,1.103c-0.608,0 -1.09,-0.228 -1.447,-0.682c-0.357,-0.455 -0.536,-1.07 -0.536,-1.846c0,-0.817 0.2,-1.47 0.6,-1.962c0.401,-0.492 0.933,-0.738 1.597,-0.738c0.522,0 1.005,0.211 1.448,0.633l0.144,-0.517l1.239,0l0,3.902c0,0.779 -0.048,1.34 -0.142,1.685c-0.095,0.345 -0.278,0.638 -0.551,0.88c-0.46,0.397 -1.107,0.595 -1.942,0.595c-0.593,0 -1.236,-0.12 -1.927,-0.363Zm3.179,-3.491l0,-1.885c-0.332,-0.376 -0.679,-0.564 -1.043,-0.564c-0.347,0 -0.623,0.158 -0.829,0.475c-0.204,0.316 -0.307,0.742 -0.307,1.276c0,0.999 0.321,1.499 0.964,1.499c0.443,0 0.849,-0.267 1.215,-0.801Z" style="fill:white;fill-rule:nonzero;"/>
    <path id="path2039" d="M73.469,38.559l0,-0.963c-0.354,0.72 -0.911,1.08 -1.671,1.08c-0.615,0 -1.097,-0.226 -1.448,-0.676c-0.351,-0.45 -0.526,-1.069 -0.526,-1.857c0,-0.857 0.197,-1.539 0.593,-2.049c0.396,-0.509 0.928,-0.763 1.595,-0.763c0.534,0 1.02,0.211 1.457,0.633l0,-2.756l1.383,0l0,7.351l-1.383,0Zm0,-3.775c-0.332,-0.373 -0.687,-0.56 -1.066,-0.56c-0.338,0 -0.608,0.164 -0.81,0.49c-0.201,0.326 -0.302,0.763 -0.302,1.313c0,1.046 0.335,1.569 1.005,1.569c0.409,0 0.801,-0.263 1.173,-0.787l0,-2.025Z" style="fill:white;fill-rule:nonzero;"/>
    <path id="path2041" d="M76.57,38.559l0,-5.112l1.377,0l0,5.112l-1.377,0Zm0,-5.972l0,-1.151l1.377,0l0,1.151l-1.377,0Z" style="fill:white;fill-rule:nonzero;"/>
    <path id="path2043" d="M79.536,38.396l0,-1.01c0.683,0.286 1.266,0.428 1.75,0.428c0.565,0 0.847,-0.192 0.847,-0.577c0,-0.248 -0.233,-0.465 -0.698,-0.651l-0.466,-0.187c-0.506,-0.205 -0.867,-0.425 -1.084,-0.662c-0.218,-0.235 -0.326,-0.527 -0.326,-0.874c0,-0.485 0.184,-0.861 0.554,-1.13c0.369,-0.268 0.886,-0.402 1.55,-0.402c0.416,0 0.911,0.06 1.485,0.182l0,0.968c-0.553,-0.193 -1.01,-0.288 -1.373,-0.288c-0.572,0 -0.857,0.177 -0.857,0.53c0,0.233 0.211,0.43 0.634,0.591l0.4,0.153c0.599,0.227 1.015,0.457 1.249,0.69c0.235,0.233 0.352,0.532 0.352,0.899c0,0.48 -0.199,0.871 -0.599,1.171c-0.398,0.298 -0.918,0.449 -1.556,0.449c-0.615,0 -1.236,-0.094 -1.862,-0.28Z" style="fill:white;fill-rule:nonzero;"/>
    <path id="path2045" d="M87.697,38.532c-0.33,0.095 -0.589,0.144 -0.778,0.144c-1.195,0 -1.792,-0.559 -1.792,-1.676l0,-2.692l-0.573,0l0,-0.861l0.573,0l0,-0.86l1.377,-0.159l0,1.019l1.095,0l0,0.861l-1.095,0l0,2.509c0,0.628 0.257,0.942 0.769,0.942c0.118,0 0.258,-0.023 0.424,-0.066l0,0.839Z" style="fill:white;fill-rule:nonzero;"/>
    <path id="path2047" d="M91.072,38.676c-0.798,0 -1.431,-0.242 -1.902,-0.725c-0.471,-0.482 -0.706,-1.131 -0.706,-1.948c0,-0.826 0.237,-1.477 0.711,-1.955c0.473,-0.478 1.116,-0.717 1.929,-0.717c0.816,0 1.461,0.239 1.934,0.717c0.474,0.478 0.711,1.126 0.711,1.946c0,0.838 -0.238,1.495 -0.713,1.969c-0.474,0.475 -1.13,0.713 -1.964,0.713Zm0.023,-0.862c0.791,0 1.187,-0.607 1.187,-1.82c0,-0.556 -0.105,-0.994 -0.314,-1.317c-0.21,-0.323 -0.498,-0.484 -0.864,-0.484c-0.362,0 -0.649,0.161 -0.859,0.484c-0.21,0.323 -0.314,0.764 -0.314,1.326c0,0.556 0.104,0.997 0.312,1.323c0.207,0.326 0.492,0.488 0.852,0.488Z" style="fill:white;fill-rule:nonzero;"/>
    <path id="path2049" d="M95.015,38.559l0,-5.112l1.378,0l0,0.964c0.357,-0.72 0.9,-1.08 1.63,-1.08c0.087,0 0.171,0.009 0.255,0.027l0,1.23c-0.195,-0.071 -0.377,-0.107 -0.544,-0.107c-0.55,0 -0.997,0.278 -1.341,0.833l0,3.245l-1.378,0Z" style="fill:white;fill-rule:nonzero;"/>
    <path id="path2051" d="M101.984,38.532c-0.329,0.095 -0.588,0.144 -0.777,0.144c-1.195,0 -1.793,-0.559 -1.793,-1.676l0,-2.692l-0.573,0l0,-0.861l0.573,0l0,-0.86l1.379,-0.159l0,1.019l1.093,0l0,0.861l-1.093,0l0,2.509c0,0.628 0.256,0.942 0.767,0.942c0.119,0 0.26,-0.023 0.424,-0.066l0,0.839Z" style="fill:white;fill-rule:nonzero;"/>
    <path id="path2053" d="M103.213,38.559l0,-5.112l1.378,0l0,5.112l-1.378,0Zm0,-5.972l0,-1.151l1.378,0l0,1.151l-1.378,0Z" style="fill:white;fill-rule:nonzero;"/>
    <path id="path2055" d="M108.46,38.676c-0.798,0 -1.431,-0.242 -1.901,-0.725c-0.472,-0.482 -0.707,-1.131 -0.707,-1.948c0,-0.826 0.238,-1.477 0.711,-1.955c0.473,-0.478 1.117,-0.717 1.93,-0.717c0.816,0 1.461,0.239 1.934,0.717c0.474,0.478 0.71,1.126 0.71,1.946c0,0.838 -0.237,1.495 -0.713,1.969c-0.474,0.475 -1.13,0.713 -1.964,0.713Zm0.023,-0.862c0.791,0 1.187,-0.607 1.187,-1.82c0,-0.556 -0.105,-0.994 -0.314,-1.317c-0.21,-0.323 -0.498,-0.484 -0.863,-0.484c-0.363,0 -0.65,0.161 -0.86,0.484c-0.209,0.323 -0.313,0.764 -0.313,1.326c0,0.556 0.104,0.997 0.311,1.323c0.209,0.326 0.492,0.488 0.852,0.488Z" style="fill:white;fill-rule:nonzero;"/>
    <path id="path2057" d="M112.403,38.559l0,-5.112l1.379,0l0,0.964c0.449,-0.72 1.03,-1.08 1.74,-1.08c0.456,0 0.816,0.144 1.08,0.433c0.264,0.289 0.396,0.683 0.396,1.183l0,3.612l-1.377,0l0,-3.273c0,-0.58 -0.193,-0.87 -0.578,-0.87c-0.438,0 -0.858,0.308 -1.261,0.927l0,3.216l-1.379,0Z" style="fill:white;fill-rule:nonzero;"/>
    <path id="path2062" d="M60.116,19.797l-2.968,0l0,1.585l2.705,0l0,2.089l-2.705,0l0,3.724l-2.466,0l0,-9.485l5.434,0l0,2.087Z" style="fill:rgb(172,181,188);fill-rule:nonzero;"/>
    <path id="path2064" d="M64.055,17.71l0,7.396l2.955,0l0,2.089l-5.422,0l0,-9.485l2.467,0Z" style="fill:rgb(172,181,188);fill-rule:nonzero;"/>
    <path id="path2066" d="M73.829,23.672l-1.107,-3.157l-1.107,3.157l2.214,0Zm0.654,1.875l-3.522,0l-0.566,1.648l-2.629,0l3.611,-9.485l2.691,0l3.61,9.485l-2.629,0l-0.566,-1.648Z" style="fill:rgb(172,181,188);fill-rule:nonzero;"/>
    <path id="path2068" d="M78.333,27.195l1.61,-9.485l2.441,0l1.899,5.056l1.887,-5.056l2.44,0l1.611,9.485l-2.454,0l-0.818,-5.46l-2.239,5.46l-0.981,0l-2.126,-5.46l-0.818,5.46l-2.452,0Z" style="fill:rgb(172,181,188);fill-rule:nonzero;"/>
    <path id="path2070" d="M97.177,19.797l-2.931,0l0,1.585l2.767,0l0,2.089l-2.767,0l0,1.635l2.931,0l0,2.089l-5.397,0l0,-9.485l5.397,0l0,2.087Z" style="fill:rgb(172,181,188);fill-rule:nonzero;"/>
    <path id="path2075" d="M122.904,76.662c2.737,-4.742 1.664,-10.824 -2.534,-14.346c-4.193,-3.521 -10.372,-3.521 -14.566,0c-4.197,3.522 -5.27,9.604 -2.533,14.346l9.816,-5.666l9.817,5.666Z" style="fill:none;stroke:rgb(204,204,204);stroke-width:1px;"/>
    <path id="path2078" d="M122.531,77.859l0.024,4.409" style="fill:rgb(204,204,204);fill-rule:nonzero;stroke:rgb(204,204,204);stroke-width:1px;"/>
    <path id="path2081" d="M124.748,80.032l-4.41,0.02" style="fill:rgb(204,204,204);fill-rule:nonzero;stroke:rgb(204,204,204);stroke-width:1px;"/>
    <path id="path2084" d="M106.429,79.908l-4.414,0.02" style="fill:rgb(204,204,204);fill-rule:nonzero;stroke:rgb(204,204,204);stroke-width:1px;"/>
    <path id="path2087" d="M113.087,71l-0.024,-13.31" style="fill:none;stroke:rgb(204,204,204);stroke-width:1px;"/>
    <path id="path2090" d="M122.904,76.662c2.737,-4.742 1.664,-10.824 -2.534,-14.346c-4.193,-3.521 -10.372,-3.521 -14.566,0c-4.197,3.522 -5.27,9.604 -2.533,14.346l9.816,-5.666l9.817,5.666Z" style="fill:none;stroke:rgb(204,204,204);stroke-width:1px;"/>
    <path id="path2093" d="M122.531,77.859l0.024,4.409" style="fill:rgb(204,204,204);fill-rule:nonzero;stroke:rgb(204,204,204);stroke-width:1px;"/>
    <path id="path2096" d="M124.748,80.032l-4.41,0.02" style="fill:rgb(204,204,204);fill-rule:nonzero;stroke:rgb(204,204,204);stroke-width:1px;"/>
    <path id="path2099" d="M106.429,79.908l-4.414,0.02" style="fill:rgb(204,204,204);fill-rule:nonzero;stroke:rgb(204,204,204);stroke-width:1px;"/>
    <path id="path2102" d="M113.087,71l-0.024,-13.31" style="fill:none;stroke:rgb(204,204,204);stroke-width:1px;"/>
    <g>
      <path id="path2105" d="M122.904,146.329c2.737,-4.742 1.664,-10.824 -2.534,-14.346c-4.193,-3.521 -10.372,-3.521 -14.566,0c-4.197,3.522 -5.27,9.604 -2.533,14.346l9.816,-5.666l9.817,5.666Z" style="fill:none;stroke:rgb(204,204,204);stroke-width:1px;"/>
      <path id="path2108" d="M122.531,147.526l0.024,4.409" style="fill:rgb(204,204,204);fill-rule:nonzero;stroke:rgb(204,204,204);stroke-width:1px;"/>
      <path id="path2111" d="M124.748,149.699l-4.41,0.02" style="fill:rgb(204,204,204);fill-rule:nonzero;stroke:rgb(204,204,204);stroke-width:1px;"/>
      <path id="path2114" d="M106.429,149.575l-4.414,0.02" style="fill:rgb(204,204,204);fill-rule:nonzero;stroke:rgb(204,204,204);stroke-width:1px;"/>
      <path id="path2117" d="M113.087,140.667l-0.024,-13.31" style="fill:none;stroke:rgb(204,204,204);stroke-width:1px;"/>
    </g>
    <path id="path2120" d="M40.38,181.038l0,4.706l-1.569,0l0,-4.706l-1.288,0l0,-1.329l4.146,0l0,1.329l-1.289,0Z" style="fill:white;fill-rule:nonzero;"/>
    <path id="path2122" d="M43.677,182.727c0,0.24 0.044,0.46 0.137,0.664c0.092,0.204 0.212,0.38 0.368,0.528c0.156,0.148 0.336,0.264 0.54,0.348c0.204,0.084 0.424,0.124 0.652,0.124c0.228,0 0.448,-0.04 0.652,-0.124c0.205,-0.084 0.389,-0.2 0.545,-0.348c0.156,-0.148 0.28,-0.324 0.372,-0.528c0.092,-0.204 0.136,-0.424 0.136,-0.664c0,-0.241 -0.044,-0.461 -0.136,-0.665c-0.092,-0.204 -0.216,-0.38 -0.372,-0.528c-0.156,-0.148 -0.34,-0.264 -0.545,-0.348c-0.204,-0.084 -0.424,-0.124 -0.652,-0.124c-0.228,0 -0.448,0.04 -0.652,0.124c-0.204,0.084 -0.384,0.2 -0.54,0.348c-0.156,0.148 -0.276,0.324 -0.368,0.528c-0.093,0.204 -0.137,0.424 -0.137,0.665Zm-1.64,0c0,-0.449 0.084,-0.865 0.248,-1.253c0.164,-0.388 0.396,-0.724 0.688,-1.012c0.292,-0.289 0.644,-0.513 1.053,-0.677c0.408,-0.164 0.856,-0.244 1.348,-0.244c0.484,0 0.933,0.08 1.345,0.244c0.412,0.164 0.764,0.388 1.06,0.677c0.296,0.288 0.528,0.624 0.692,1.012c0.165,0.388 0.249,0.804 0.249,1.253c0,0.448 -0.084,0.864 -0.249,1.252c-0.164,0.388 -0.396,0.724 -0.692,1.012c-0.296,0.289 -0.648,0.513 -1.06,0.677c-0.412,0.164 -0.861,0.244 -1.345,0.244c-0.492,0 -0.94,-0.08 -1.348,-0.244c-0.409,-0.164 -0.761,-0.388 -1.053,-0.677c-0.292,-0.288 -0.524,-0.624 -0.688,-1.012c-0.164,-0.388 -0.248,-0.804 -0.248,-1.252Z" style="fill:white;fill-rule:nonzero;"/>
    <path id="path2124" d="M49.712,185.744l0,-6.035l1.569,0l2.897,3.69l0,-3.69l1.56,0l0,6.035l-1.56,0l-2.897,-3.69l0,3.69l-1.569,0Z" style="fill:white;fill-rule:nonzero;"/>
    <path id="path2126" d="M60.436,181.038l-1.864,0l0,1.008l1.76,0l0,1.329l-1.76,0l0,1.04l1.864,0l0,1.329l-3.433,0l0,-6.035l3.433,0l0,1.329Z" style="fill:white;fill-rule:nonzero;"/>
    <path id="path2146" d="M71.383,163.907c5.878,-10.184 3.577,-23.245 -5.431,-30.804c-9.007,-7.556 -22.273,-7.556 -31.281,0c-9.007,7.559 -11.308,20.62 -5.43,30.804" style="fill:none;stroke:rgb(204,204,204);stroke-width:1.5px;"/>
    <circle id="circle2149" cx="32.173" cy="173.175" r="3.706" style="fill:none;stroke:rgb(204,204,204);stroke-width:1px;stroke-linecap:butt;"/>
    <circle id="circle2152" cx="69.952" cy="172.663" r="3.706" style="fill:rgb(204,204,204);stroke:rgb(204,204,204);stroke-width:1px;stroke-linecap:butt;"/>
    <path id="path2155" d="M122.904,209.995c2.737,-4.742 1.664,-10.824 -2.534,-14.346c-4.193,-3.521 -10.372,-3.521 -14.566,0c-4.197,3.522 -5.27,9.604 -2.533,14.346l9.816,-5.666l9.817,5.666Z" style="fill:none;stroke:rgb(204,204,204);stroke-width:1px;"/>
    <path id="path2158" d="M122.531,211.192l0.024,4.409" style="fill:rgb(204,204,204);fill-rule:nonzero;stroke:rgb(204,204,204);stroke-width:1px;"/>
    <path id="path2161" d="M124.748,213.365l-4.41,0.02" style="fill:rgb(204,204,204);fill-rule:nonzero;stroke:rgb(204,204,204);stroke-width:1px;"/>
    <path id="path2164" d="M106.429,213.241l-4.414,0.02" style="fill:rgb(204,204,204);fill-rule:nonzero;stroke:rgb(204,204,204);stroke-width:1px;"/>
    <path id="path2167" d="M113.087,204.333l-0.024,-13.31" style="fill:none;stroke:rgb(204,204,204);stroke-width:1px;"/>
    <path id="path2170" d="M37.66,248.193l0.344,0c0.396,0 0.676,-0.052 0.848,-0.152c0.172,-0.1 0.256,-0.264 0.256,-0.488c0,-0.224 -0.084,-0.388 -0.256,-0.488c-0.172,-0.1 -0.452,-0.152 -0.848,-0.152l-0.344,0l0,1.28Zm0,-2.449l0.288,0c0.492,0 0.736,-0.196 0.736,-0.584c0,-0.388 -0.244,-0.584 -0.736,-0.584l-0.288,0l0,1.168Zm-1.569,-2.369l2.337,0c0.556,0 0.977,0.132 1.265,0.4c0.288,0.269 0.432,0.653 0.432,1.153c0,0.304 -0.056,0.556 -0.164,0.756c-0.108,0.2 -0.276,0.368 -0.5,0.508c0.224,0.044 0.416,0.109 0.572,0.197c0.156,0.088 0.284,0.196 0.384,0.324c0.1,0.128 0.168,0.272 0.212,0.432c0.044,0.16 0.064,0.332 0.064,0.512c0,0.284 -0.048,0.532 -0.148,0.752c-0.1,0.22 -0.236,0.405 -0.416,0.553c-0.18,0.148 -0.396,0.26 -0.652,0.336c-0.257,0.076 -0.545,0.112 -0.865,0.112l-2.521,0l0,-6.035Z" style="fill:white;fill-rule:nonzero;"/>
    <path id="path2172" d="M43.198,243.375l0,4.706l1.881,0l0,1.329l-3.45,0l0,-6.035l1.569,0Z" style="fill:white;fill-rule:nonzero;"/>
    <path id="path2174" d="M49.321,244.704l-1.865,0l0,1.008l1.761,0l0,1.329l-1.761,0l0,1.04l1.865,0l0,1.329l-3.434,0l0,-6.035l3.434,0l0,1.329Z" style="fill:white;fill-rule:nonzero;"/>
    <path id="path2176" d="M50.449,249.41l0,-6.035l1.569,0l2.897,3.69l0,-3.69l1.561,0l0,6.035l-1.561,0l-2.897,-3.69l0,3.69l-1.569,0Z" style="fill:white;fill-rule:nonzero;"/>
    <path id="path2178" d="M59.309,248.081l0.36,0c0.272,0 0.516,-0.044 0.728,-0.128c0.212,-0.084 0.392,-0.204 0.54,-0.352c0.149,-0.148 0.261,-0.328 0.337,-0.532c0.076,-0.204 0.116,-0.432 0.116,-0.676c0,-0.241 -0.04,-0.465 -0.12,-0.673c-0.08,-0.208 -0.192,-0.388 -0.341,-0.536c-0.148,-0.148 -0.328,-0.268 -0.54,-0.352c-0.212,-0.084 -0.452,-0.128 -0.72,-0.128l-0.36,0l0,3.377Zm-1.569,-4.706l2.321,0c0.412,0 0.796,0.084 1.157,0.248c0.36,0.164 0.676,0.385 0.944,0.661c0.268,0.276 0.48,0.596 0.636,0.96c0.156,0.364 0.232,0.748 0.232,1.149c0,0.396 -0.076,0.776 -0.228,1.14c-0.152,0.364 -0.364,0.688 -0.632,0.964c-0.268,0.277 -0.584,0.501 -0.944,0.665c-0.361,0.164 -0.749,0.248 -1.165,0.248l-2.321,0l0,-6.035Z" style="fill:white;fill-rule:nonzero;"/>
    <path id="path2183" d="M122.904,209.995c2.737,-4.742 1.664,-10.824 -2.534,-14.346c-4.193,-3.521 -10.372,-3.521 -14.566,0c-4.197,3.522 -5.27,9.604 -2.533,14.346l9.816,-5.666l9.817,5.666Z" style="fill:none;stroke:rgb(204,204,204);stroke-width:1px;"/>
    <path id="path2186" d="M122.531,211.192l0.024,4.409" style="fill:rgb(204,204,204);fill-rule:nonzero;stroke:rgb(204,204,204);stroke-width:1px;"/>
    <path id="path2189" d="M124.748,213.365l-4.41,0.02" style="fill:rgb(204,204,204);fill-rule:nonzero;stroke:rgb(204,204,204);stroke-width:1px;"/>
    <path id="path2192" d="M106.429,213.241l-4.414,0.02" style="fill:rgb(204,204,204);fill-rule:nonzero;stroke:rgb(204,204,204);stroke-width:1px;"/>
    <path id="path2195" d="M113.087,204.333l-0.024,-13.31" style="fill:none;stroke:rgb(204,204,204);stroke-width:1px;"/>
    <path id="path2198" d="M71.383,227.574c5.878,-10.184 3.577,-23.245 -5.431,-30.804c-9.007,-7.556 -22.273,-7.556 -31.281,0c-9.007,7.559 -11.308,20.62 -5.43,30.804" style="fill:none;stroke:rgb(204,204,204);stroke-width:1.5px;"/>
    <circle id="circle2201" cx="32.173" cy="236.842" r="3.706" style="fill:none;stroke:rgb(204,204,204);stroke-width:1px;stroke-linecap:butt;"/>
    <circle id="circle2204" cx="69.952" cy="236.33" r="3.706" style="fill:rgb(204,204,204);stroke:rgb(204,204,204);stroke-width:1px;stroke-linecap:butt;"/>
    <path id="path42" d="M62.952,363.5l2.673,0l2.49,8.317l2.574,-8.317l2.66,0l-3.46,10.397c-0.323,0.959 -0.903,1.438 -1.738,1.438c-0.847,0 -1.433,-0.484 -1.755,-1.453l-3.444,-10.382Z" style="fill:rgb(172,181,188);fill-rule:nonzero;"/>
    <path id="path44" d="M73.55,372.292l0,-8.792l2.507,0l0,8.709c0.044,0.312 0.334,0.468 0.869,0.468l1.705,0c0.513,0 0.797,-0.145 0.853,-0.435l0.017,-0.083l0,-8.659l2.507,0l0,8.776c0,0.769 -0.083,1.315 -0.251,1.638c-0.445,0.858 -1.231,1.287 -2.357,1.287l-3.243,0c-1.159,0 -1.95,-0.44 -2.373,-1.321c-0.156,-0.323 -0.234,-0.852 -0.234,-1.588Z" style="fill:rgb(172,181,188);fill-rule:nonzero;"/>
    <path id="path46" d="M83.161,372.343l0,-8.843l2.508,0l0,8.642c0,0.357 0.211,0.535 0.635,0.535l4.463,0l-0.016,2.524l-4.664,0c-0.167,0 -0.312,-0.005 -0.435,-0.017c-0.903,-0.077 -1.544,-0.342 -1.922,-0.794c-0.379,-0.451 -0.569,-1.134 -0.569,-2.047Z" style="fill:rgb(172,181,188);fill-rule:nonzero;"/>
    <path id="path48" d="M90.851,366.024l0,-2.524l7.522,0l0,2.524l-2.524,0l0,9.177l-2.508,0l0,-9.177l-2.49,0Z" style="fill:rgb(172,181,188);fill-rule:nonzero;"/>
    <path id="path2212" d="M143.249,319.323c0,-3.321 -2.697,-6.018 -6.018,-6.018l-47.146,0c-3.321,0 -6.018,2.697 -6.018,6.018l0,31.59c0,3.322 2.697,6.018 6.018,6.018l47.146,0c3.321,0 6.018,-2.696 6.018,-6.018l0,-31.59Z" style="stroke:rgb(65,76,85);stroke-width:1.06px;stroke-linecap:butt;"/>
    <path id="path4" d="M59.383,369.417c0,-4.509 -3.655,-8.164 -8.164,-8.164c-4.509,0 -8.165,3.655 -8.165,8.164c0,4.509 3.656,8.165 8.165,8.165c4.509,0 8.164,-3.656 8.164,-8.165Z" style="fill:rgb(117,117,117);fill-rule:nonzero;stroke:rgb(65,76,85);stroke-width:0.61px;stroke-linecap:butt;stroke-miterlimit:10;"/>
    <g id="g40">
      <path id="polygon6" d="M49.321,374.394l0.553,-0.891l-1.064,-2.393l-2.216,-2.284l0.46,3.101l0.597,1.28l0.833,1.264l0.837,-0.077Z" style="fill:rgb(43,43,43);fill-rule:nonzero;stroke:rgb(65,76,85);stroke-width:0.04px;stroke-linecap:butt;"/>
      <path id="polygon8" d="M53.048,374.401l-0.553,-0.89l1.064,-2.393l2.216,-2.285l-0.46,3.101l-0.597,1.281l-0.833,1.263l-0.837,-0.077Z" style="fill:rgb(38,38,38);fill-rule:nonzero;stroke:rgb(65,76,85);stroke-width:0.04px;stroke-linecap:butt;"/>
      <path id="polygon12" d="M48.636,363.359l2.584,-0.66l0,13.447l-1.349,-2.651l-1.061,-2.385l-1.022,-0.581l-2.052,-2.92l-0.057,-0.776l1.148,-2.067l1.809,-1.407Z" style="fill:rgb(66,66,66);fill-rule:nonzero;stroke:rgb(65,76,85);stroke-width:0.04px;stroke-linecap:butt;"/>
      <path id="polygon14" d="M53.801,363.364l-2.584,-0.661l0,13.448l1.35,-2.651l1.06,-2.385l1.023,-0.581l2.051,-2.921l0.058,-0.775l-1.149,-2.067l-1.809,-1.407Z" style="fill:rgb(51,51,51);fill-rule:nonzero;stroke:rgb(65,76,85);stroke-width:0.04px;stroke-linecap:butt;"/>
      <path id="polyline16" d="M49.496,369.237l1.723,-1.684l0,1.229l-1.723,1.718l0,-1.263" style="fill:rgb(76,76,76);fill-rule:nonzero;stroke:rgb(65,76,85);stroke-width:0.04px;stroke-linecap:butt;"/>
      <path id="polygon18" d="M51.22,368.781l-1.723,1.718l0.377,3.004l1.346,2.643l0,-7.365Z" style="fill:rgb(91,91,91);fill-rule:nonzero;stroke:rgb(65,76,85);stroke-width:0.04px;stroke-linecap:butt;"/>
      <path id="polygon20" d="M51.22,376.146l-1.346,-2.643l1.346,-0.635l0,3.278Z" style="fill:rgb(51,51,51);fill-rule:nonzero;stroke:rgb(65,76,85);stroke-width:0.04px;stroke-linecap:butt;"/>
      <path id="polygon22" d="M49.497,370.499l0,-1.263l-1.249,-1.58l-1.477,-1.19l-0.001,0.932l0.775,1.823l1.952,1.278Z" style="fill:white;fill-rule:nonzero;stroke:rgb(65,76,85);stroke-width:0.04px;stroke-linecap:butt;"/>
      <path id="polyline24" d="M52.942,369.238l-1.722,-1.685l0,1.23l1.722,1.718l0,-1.263" style="fill:rgb(45,45,45);fill-rule:nonzero;stroke:rgb(65,76,85);stroke-width:0.04px;stroke-linecap:butt;"/>
      <path id="polygon26" d="M51.218,368.781l1.722,1.718l-0.376,3.004l-1.347,2.643l0.001,-7.365Z" style="fill:rgb(53,53,53);fill-rule:nonzero;stroke:rgb(65,76,85);stroke-width:0.04px;stroke-linecap:butt;"/>
      <path id="polygon28" d="M51.217,376.146l1.347,-2.643l-1.346,-0.635l-0.001,3.278Z" style="fill:rgb(25,25,25);fill-rule:nonzero;stroke:rgb(65,76,85);stroke-width:0.04px;stroke-linecap:butt;"/>
      <path id="polygon30" d="M52.94,370.499l0,-1.263l1.249,-1.58l1.478,-1.19l0.001,0.932l-0.775,1.823l-1.953,1.278Z" style="fill:white;fill-rule:nonzero;stroke:rgb(65,76,85);stroke-width:0.04px;stroke-linecap:butt;"/>
      <path id="polyline32" d="M48.652,363.338l2.566,4.215l-0.005,-4.87" style="fill:rgb(56,56,56);fill-rule:nonzero;stroke:rgb(65,76,85);stroke-width:0.04px;stroke-linecap:butt;"/>
      <path id="polyline34" d="M53.785,363.338l-2.566,4.215l0.006,-4.869" style="fill:rgb(45,45,45);fill-rule:nonzero;stroke:rgb(65,76,85);stroke-width:0.04px;stroke-linecap:butt;"/>
      <path id="polygon36" d="M48.811,371.111l0.688,-0.611l0.375,3.006l-1.063,-2.395Z" style="fill:rgb(51,51,51);fill-rule:nonzero;stroke:rgb(65,76,85);stroke-width:0.04px;stroke-linecap:butt;"/>
      <path id="polygon38" d="M53.631,371.125l-0.688,-0.61l-0.375,3.006l1.063,-2.396Z" style="fill:rgb(28,28,28);fill-rule:nonzero;stroke:rgb(65,76,85);stroke-width:0.04px;stroke-linecap:butt;"/>
    </g>
    <rect id="rect2235" x="25.395" y="349.575" width="1.569" height="6.035" style="fill:white;"/>
    <path id="path2237" d="M28.228,355.61l0,-6.035l1.568,0l2.898,3.69l0,-3.69l1.56,0l0,6.035l-1.56,0l-2.898,-3.69l0,3.69l-1.568,0Z" style="fill:white;fill-rule:nonzero;"/>
    <path id="path2239" d="M37.087,352.344l0.521,0c0.576,0 0.864,-0.252 0.864,-0.752c0,-0.5 -0.288,-0.752 -0.864,-0.752l-0.521,0l0,1.504Zm0,3.266l-1.568,0l0,-6.035l2.497,0c0.676,0 1.196,0.176 1.556,0.529c0.361,0.352 0.541,0.848 0.541,1.488c0,0.64 -0.18,1.137 -0.541,1.489c-0.36,0.352 -0.88,0.528 -1.556,0.528l-0.929,0l0,2.001Z" style="fill:white;fill-rule:nonzero;"/>
    <path id="path2241" d="M42.514,349.575l0,3.282c0,0.176 0.008,0.356 0.02,0.54c0.012,0.184 0.052,0.352 0.12,0.5c0.068,0.148 0.172,0.272 0.316,0.364c0.144,0.092 0.348,0.14 0.608,0.14c0.26,0 0.464,-0.048 0.604,-0.14c0.14,-0.092 0.248,-0.216 0.316,-0.364c0.069,-0.148 0.113,-0.316 0.125,-0.5c0.012,-0.184 0.02,-0.364 0.02,-0.54l0,-3.282l1.56,0l0,3.498c0,0.94 -0.216,1.624 -0.644,2.057c-0.428,0.432 -1.089,0.648 -1.981,0.648c-0.892,0 -1.553,-0.216 -1.985,-0.648c-0.432,-0.433 -0.648,-1.117 -0.648,-2.057l0,-3.498l1.569,0Z" style="fill:white;fill-rule:nonzero;"/>
    <path id="path2243" d="M49.757,350.904l0,4.706l-1.569,0l0,-4.706l-1.289,0l0,-1.329l4.146,0l0,1.329l-1.288,0Z" style="fill:white;fill-rule:nonzero;"/>
    <path id="path2248" d="M98.235,352.593c0,0.24 0.044,0.464 0.136,0.664c0.088,0.204 0.212,0.38 0.368,0.528c0.152,0.152 0.332,0.264 0.54,0.348c0.204,0.084 0.42,0.124 0.653,0.124c0.228,0 0.444,-0.04 0.652,-0.124c0.204,-0.084 0.384,-0.196 0.54,-0.348c0.16,-0.148 0.284,-0.324 0.372,-0.528c0.092,-0.2 0.136,-0.424 0.136,-0.664c0,-0.241 -0.044,-0.461 -0.136,-0.665c-0.088,-0.2 -0.212,-0.376 -0.372,-0.528c-0.156,-0.148 -0.336,-0.264 -0.54,-0.348c-0.208,-0.08 -0.424,-0.124 -0.652,-0.124c-0.233,0 -0.449,0.044 -0.653,0.124c-0.208,0.084 -0.388,0.2 -0.54,0.348c-0.156,0.152 -0.28,0.328 -0.368,0.528c-0.092,0.204 -0.136,0.424 -0.136,0.665Zm-1.641,0c0,-0.449 0.084,-0.865 0.248,-1.253c0.164,-0.384 0.396,-0.72 0.689,-1.008c0.292,-0.289 0.644,-0.517 1.052,-0.677c0.408,-0.164 0.856,-0.244 1.349,-0.244c0.484,0 0.932,0.08 1.34,0.244c0.412,0.16 0.764,0.388 1.061,0.677c0.296,0.288 0.528,0.624 0.692,1.008c0.168,0.388 0.248,0.804 0.248,1.253c0,0.448 -0.08,0.868 -0.248,1.252c-0.164,0.388 -0.396,0.724 -0.692,1.012c-0.297,0.289 -0.649,0.513 -1.061,0.677c-0.408,0.164 -0.856,0.244 -1.34,0.244c-0.493,0 -0.941,-0.08 -1.349,-0.244c-0.408,-0.164 -0.76,-0.388 -1.052,-0.677c-0.293,-0.288 -0.525,-0.624 -0.689,-1.012c-0.164,-0.384 -0.248,-0.804 -0.248,-1.252Z" style="fill:white;fill-rule:nonzero;"/>
    <path id="path2250" d="M105.834,349.579l0,3.278c0,0.176 0.008,0.356 0.02,0.54c0.012,0.184 0.052,0.352 0.12,0.5c0.068,0.148 0.172,0.272 0.316,0.364c0.144,0.092 0.348,0.14 0.608,0.14c0.261,0 0.465,-0.048 0.605,-0.14c0.14,-0.092 0.244,-0.216 0.316,-0.364c0.068,-0.148 0.108,-0.316 0.124,-0.5c0.012,-0.184 0.02,-0.364 0.02,-0.54l0,-3.278l1.561,0l0,3.494c0,0.94 -0.217,1.624 -0.645,2.057c-0.432,0.432 -1.092,0.648 -1.981,0.648c-0.892,0 -1.552,-0.216 -1.984,-0.648c-0.433,-0.433 -0.649,-1.117 -0.649,-2.057l0,-3.494l1.569,0Z" style="fill:white;fill-rule:nonzero;"/>
    <path id="path2252" d="M113.073,350.904l0,4.706l-1.569,0l0,-4.706l-1.284,0l0,-1.325l4.142,0l0,1.325l-1.289,0Z" style="fill:white;fill-rule:nonzero;"/>
    <path id="path2254" d="M116.626,352.344l0.521,0c0.576,0 0.864,-0.248 0.864,-0.752c0,-0.5 -0.288,-0.752 -0.864,-0.752l-0.521,0l0,1.504Zm0,3.266l-1.568,0l0,-6.031l2.497,0c0.676,0 1.196,0.176 1.556,0.529c0.361,0.352 0.541,0.844 0.541,1.484c0,0.64 -0.18,1.137 -0.541,1.489c-0.36,0.352 -0.88,0.528 -1.556,0.528l-0.929,0l0,2.001Z" style="fill:white;fill-rule:nonzero;"/>
    <path id="path2256" d="M122.049,349.579l0,3.278c0,0.176 0.008,0.356 0.02,0.54c0.016,0.184 0.056,0.352 0.12,0.5c0.068,0.148 0.172,0.272 0.316,0.364c0.144,0.092 0.348,0.14 0.608,0.14c0.264,0 0.464,-0.048 0.604,-0.14c0.14,-0.092 0.249,-0.216 0.317,-0.364c0.068,-0.148 0.112,-0.316 0.124,-0.5c0.012,-0.184 0.02,-0.364 0.02,-0.54l0,-3.278l1.56,0l0,3.494c0,0.94 -0.216,1.624 -0.644,2.057c-0.428,0.432 -1.088,0.648 -1.981,0.648c-0.888,0 -1.552,-0.216 -1.985,-0.648c-0.432,-0.433 -0.648,-1.117 -0.648,-2.057l0,-3.494l1.569,0Z" style="fill:white;fill-rule:nonzero;"/>
    <path id="path2258" d="M129.292,350.904l0,4.706l-1.569,0l0,-4.706l-1.288,0l0,-1.325l4.141,0l0,1.325l-1.284,0Z" style="fill:white;fill-rule:nonzero;"/>
    <path id="path2315" d="M22.714,315.474l0,3.529l1.412,0l0,0.997l-2.589,0l0,-4.526l1.177,0Z" style="fill:rgb(140,140,140);fill-rule:nonzero;"/>
    <path id="path2319" d="M51.714,317.499l0.224,0c0.232,0 0.408,-0.048 0.532,-0.144c0.124,-0.096 0.188,-0.236 0.188,-0.416c0,-0.181 -0.064,-0.317 -0.188,-0.413c-0.124,-0.096 -0.3,-0.144 -0.532,-0.144l-0.224,0l0,1.117Zm2.589,2.501l-1.465,0l-1.124,-1.741l0,1.741l-1.177,0l0,-4.526l1.833,0c0.252,0 0.472,0.04 0.66,0.112c0.188,0.076 0.34,0.176 0.464,0.304c0.12,0.128 0.213,0.276 0.277,0.444c0.06,0.168 0.092,0.348 0.092,0.541c0,0.344 -0.084,0.624 -0.249,0.836c-0.168,0.212 -0.412,0.36 -0.736,0.436l1.425,1.853Z" style="fill:rgb(140,140,140);fill-rule:nonzero;"/>
    <path id="path2323" d="M99.714,315.474l0,3.529l1.412,0l0,0.997l-2.589,0l0,-4.526l1.177,0Z" style="fill:rgb(140,140,140);fill-rule:nonzero;"/>
    <path id="path2327" d="M125.714,317.499l0.224,0c0.232,0 0.408,-0.048 0.532,-0.144c0.124,-0.096 0.188,-0.236 0.188,-0.416c0,-0.181 -0.064,-0.317 -0.188,-0.413c-0.124,-0.096 -0.3,-0.144 -0.532,-0.144l-0.224,0l0,1.117Zm2.589,2.501l-1.465,0l-1.124,-1.741l0,1.741l-1.177,0l0,-4.526l1.833,0c0.252,0 0.472,0.04 0.66,0.112c0.188,0.076 0.34,0.176 0.464,0.304c0.12,0.128 0.213,0.276 0.277,0.444c0.06,0.168 0.092,0.348 0.092,0.541c0,0.344 -0.084,0.624 -0.249,0.836c-0.168,0.212 -0.412,0.36 -0.736,0.436l1.425,1.853Z" style="fill:rgb(140,140,140);fill-rule:nonzero;"/>
    <path id="path2371" d="M43.794,115.475l-1.888,0l0,1.008l1.72,0l0,1.329l-1.72,0l0,2.369l-1.569,0l0,-6.035l3.457,0l0,1.329Z" style="fill:white;fill-rule:nonzero;"/>
    <path id="path2373" d="M46.3,114.146l0,3.282c0,0.176 0.008,0.356 0.02,0.54c0.012,0.184 0.052,0.352 0.12,0.5c0.068,0.148 0.172,0.272 0.316,0.364c0.144,0.092 0.348,0.14 0.608,0.14c0.26,0 0.464,-0.048 0.604,-0.14c0.14,-0.092 0.248,-0.216 0.316,-0.364c0.068,-0.148 0.112,-0.316 0.124,-0.5c0.012,-0.184 0.02,-0.364 0.02,-0.54l0,-3.282l1.561,0l0,3.498c0,0.94 -0.216,1.624 -0.644,2.057c-0.428,0.432 -1.089,0.648 -1.981,0.648c-0.892,0 -1.553,-0.216 -1.985,-0.648c-0.432,-0.433 -0.648,-1.117 -0.648,-2.057l0,-3.498l1.569,0Z" style="fill:white;fill-rule:nonzero;"/>
    <path id="path2375" d="M54.687,115.475l-1.865,0l0,1.008l1.761,0l0,1.329l-1.761,0l0,1.04l1.865,0l0,1.329l-3.433,0l0,-6.035l3.433,0l0,1.329Z" style="fill:white;fill-rule:nonzero;"/>
    <path id="path2377" d="M57.384,114.146l0,4.706l1.881,0l0,1.329l-3.45,0l0,-6.035l1.569,0Z" style="fill:white;fill-rule:nonzero;"/>
    <path id="path2382" d="M79.739,97.173c8.221,-14.243 5.003,-32.509 -7.595,-43.081c-12.597,-10.566 -31.149,-10.566 -43.747,0c-12.597,10.572 -15.815,28.838 -7.594,43.081" style="fill:none;stroke:rgb(204,204,204);stroke-width:1.5px;"/>
    <circle id="circle2385" cx="21.173" cy="106.44" r="3.706" style="fill:none;stroke:rgb(204,204,204);stroke-width:1px;stroke-linecap:butt;"/>
    <circle id="circle2388" cx="79.952" cy="105.928" r="3.706" style="fill:rgb(204,204,204);stroke:rgb(204,204,204);stroke-width:1px;stroke-linecap:butt;"/>
    <path d="M22.765,305.944l0.768,-4.524l1.164,0l0.906,2.412l0.9,-2.412l1.164,0l0.768,4.524l-1.17,0l-0.39,-2.604l-1.068,2.604l-0.468,0l-1.014,-2.604l-0.39,2.604l-1.17,0Z" style="fill:white;fill-rule:nonzero;"/>
    <path d="M30.205,303.682c0,0.18 0.034,0.346 0.102,0.498c0.068,0.152 0.16,0.284 0.276,0.396c0.116,0.112 0.251,0.199 0.405,0.261c0.154,0.062 0.317,0.093 0.489,0.093c0.172,0 0.335,-0.031 0.489,-0.093c0.154,-0.062 0.29,-0.149 0.408,-0.261c0.118,-0.112 0.211,-0.244 0.279,-0.396c0.068,-0.152 0.102,-0.318 0.102,-0.498c0,-0.18 -0.034,-0.346 -0.102,-0.498c-0.068,-0.152 -0.161,-0.284 -0.279,-0.396c-0.118,-0.112 -0.254,-0.199 -0.408,-0.261c-0.154,-0.062 -0.317,-0.093 -0.489,-0.093c-0.172,0 -0.335,0.031 -0.489,0.093c-0.154,0.062 -0.289,0.149 -0.405,0.261c-0.116,0.112 -0.208,0.244 -0.276,0.396c-0.068,0.152 -0.102,0.318 -0.102,0.498Zm-1.23,0c0,-0.336 0.062,-0.649 0.186,-0.939c0.124,-0.29 0.296,-0.543 0.516,-0.759c0.22,-0.216 0.483,-0.385 0.789,-0.507c0.306,-0.122 0.643,-0.183 1.011,-0.183c0.364,0 0.7,0.061 1.008,0.183c0.308,0.122 0.573,0.291 0.795,0.507c0.222,0.216 0.395,0.469 0.519,0.759c0.124,0.29 0.186,0.603 0.186,0.939c0,0.336 -0.062,0.649 -0.186,0.939c-0.124,0.29 -0.297,0.543 -0.519,0.759c-0.222,0.216 -0.487,0.385 -0.795,0.507c-0.308,0.122 -0.644,0.183 -1.008,0.183c-0.368,0 -0.705,-0.061 -1.011,-0.183c-0.306,-0.122 -0.569,-0.291 -0.789,-0.507c-0.22,-0.216 -0.392,-0.469 -0.516,-0.759c-0.124,-0.29 -0.186,-0.603 -0.186,-0.939Z" style="fill:white;fill-rule:nonzero;"/>
    <path d="M35.905,304.948l0.27,0c0.204,0 0.386,-0.032 0.546,-0.096c0.16,-0.064 0.295,-0.152 0.405,-0.264c0.11,-0.112 0.194,-0.245 0.252,-0.399c0.058,-0.154 0.087,-0.323 0.087,-0.507c0,-0.18 -0.03,-0.348 -0.09,-0.504c-0.06,-0.156 -0.145,-0.29 -0.255,-0.402c-0.11,-0.112 -0.245,-0.2 -0.405,-0.264c-0.16,-0.064 -0.34,-0.096 -0.54,-0.096l-0.27,0l0,2.532Zm-1.176,-3.528l1.74,0c0.308,0 0.597,0.062 0.867,0.186c0.27,0.124 0.506,0.289 0.708,0.495c0.202,0.206 0.361,0.446 0.477,0.72c0.116,0.274 0.174,0.561 0.174,0.861c0,0.296 -0.057,0.581 -0.171,0.855c-0.114,0.274 -0.272,0.515 -0.474,0.723c-0.202,0.208 -0.438,0.374 -0.708,0.498c-0.27,0.124 -0.561,0.186 -0.873,0.186l-1.74,0l0,-4.524Z" style="fill:white;fill-rule:nonzero;"/>
    <path d="M42.019,302.416l-1.398,0l0,0.756l1.32,0l0,0.996l-1.32,0l0,0.78l1.398,0l0,0.996l-2.574,0l0,-4.524l2.574,0l0,0.996Z" style="fill:white;fill-rule:nonzero;"/>
    <path d="M44.041,301.42l0,3.528l1.41,0l0,0.996l-2.586,0l0,-4.524l1.176,0Z" style="fill:white;fill-rule:nonzero;"/>
    <path d="M68.597,302.416l0,3.528l-1.176,0l0,-3.528l-0.966,0l0,-0.996l3.108,0l0,0.996l-0.966,0Z" style="fill:white;fill-rule:nonzero;"/>
    <path d="M71.069,303.682c0,0.18 0.034,0.346 0.102,0.498c0.068,0.152 0.16,0.284 0.276,0.396c0.116,0.112 0.251,0.199 0.405,0.261c0.154,0.062 0.317,0.093 0.489,0.093c0.172,0 0.335,-0.031 0.489,-0.093c0.154,-0.062 0.29,-0.149 0.408,-0.261c0.118,-0.112 0.211,-0.244 0.279,-0.396c0.068,-0.152 0.102,-0.318 0.102,-0.498c0,-0.18 -0.034,-0.346 -0.102,-0.498c-0.068,-0.152 -0.161,-0.284 -0.279,-0.396c-0.118,-0.112 -0.254,-0.199 -0.408,-0.261c-0.154,-0.062 -0.317,-0.093 -0.489,-0.093c-0.172,0 -0.335,0.031 -0.489,0.093c-0.154,0.062 -0.289,0.149 -0.405,0.261c-0.116,0.112 -0.208,0.244 -0.276,0.396c-0.068,0.152 -0.102,0.318 -0.102,0.498Zm-1.23,0c0,-0.336 0.062,-0.649 0.186,-0.939c0.124,-0.29 0.296,-0.543 0.516,-0.759c0.22,-0.216 0.483,-0.385 0.789,-0.507c0.306,-0.122 0.643,-0.183 1.011,-0.183c0.364,0 0.7,0.061 1.008,0.183c0.308,0.122 0.573,0.291 0.795,0.507c0.222,0.216 0.395,0.469 0.519,0.759c0.124,0.29 0.186,0.603 0.186,0.939c0,0.336 -0.062,0.649 -0.186,0.939c-0.124,0.29 -0.297,0.543 -0.519,0.759c-0.222,0.216 -0.487,0.385 -0.795,0.507c-0.308,0.122 -0.644,0.183 -1.008,0.183c-0.368,0 -0.705,-0.061 -1.011,-0.183c-0.306,-0.122 -0.569,-0.291 -0.789,-0.507c-0.22,-0.216 -0.392,-0.469 -0.516,-0.759c-0.124,-0.29 -0.186,-0.603 -0.186,-0.939Z" style="fill:white;fill-rule:nonzero;"/>
    <path d="M75.593,305.944l0,-4.524l1.176,0l2.172,2.766l0,-2.766l1.17,0l0,4.524l-1.17,0l-2.172,-2.766l0,2.766l-1.176,0Z" style="fill:white;fill-rule:nonzero;"/>
    <path d="M83.633,302.416l-1.398,0l0,0.756l1.32,0l0,0.996l-1.32,0l0,0.78l1.398,0l0,0.996l-2.574,0l0,-4.524l2.574,0l0,0.996Z" style="fill:white;fill-rule:nonzero;"/>
    <path d="M110.083,303.412l2.334,0c0,0.24 -0.01,0.458 -0.03,0.654c-0.02,0.196 -0.06,0.378 -0.12,0.546c-0.084,0.236 -0.198,0.445 -0.342,0.627c-0.144,0.182 -0.313,0.334 -0.507,0.456c-0.194,0.122 -0.407,0.215 -0.639,0.279c-0.232,0.064 -0.476,0.096 -0.732,0.096c-0.352,0 -0.673,-0.058 -0.963,-0.174c-0.29,-0.116 -0.539,-0.279 -0.747,-0.489c-0.208,-0.21 -0.37,-0.462 -0.486,-0.756c-0.116,-0.294 -0.174,-0.619 -0.174,-0.975c0,-0.352 0.057,-0.675 0.171,-0.969c0.114,-0.294 0.276,-0.545 0.486,-0.753c0.21,-0.208 0.463,-0.37 0.759,-0.486c0.296,-0.116 0.626,-0.174 0.99,-0.174c0.472,0 0.886,0.102 1.242,0.306c0.356,0.204 0.638,0.52 0.846,0.948l-1.116,0.462c-0.104,-0.248 -0.239,-0.426 -0.405,-0.534c-0.166,-0.108 -0.355,-0.162 -0.567,-0.162c-0.176,0 -0.336,0.033 -0.48,0.099c-0.144,0.066 -0.267,0.16 -0.369,0.282c-0.102,0.122 -0.182,0.269 -0.24,0.441c-0.058,0.172 -0.087,0.364 -0.087,0.576c0,0.192 0.025,0.37 0.075,0.534c0.05,0.164 0.125,0.306 0.225,0.426c0.1,0.12 0.224,0.213 0.372,0.279c0.148,0.066 0.32,0.099 0.516,0.099c0.116,0 0.228,-0.013 0.336,-0.039c0.108,-0.026 0.205,-0.068 0.291,-0.126c0.086,-0.058 0.157,-0.133 0.213,-0.225c0.056,-0.092 0.094,-0.204 0.114,-0.336l-0.966,0l0,-0.912Z" style="fill:white;fill-rule:nonzero;"/>
    <path d="M115.453,304.264l-0.528,-1.506l-0.528,1.506l1.056,0Zm0.312,0.894l-1.68,0l-0.27,0.786l-1.254,0l1.722,-4.524l1.284,0l1.722,4.524l-1.254,0l-0.27,-0.786Z" style="fill:white;fill-rule:nonzero;"/>
    <rect x="117.805" y="301.42" width="1.176" height="4.524" style="fill:white;fill-rule:nonzero;"/>
    <path d="M119.929,305.944l0,-4.524l1.176,0l2.172,2.766l0,-2.766l1.17,0l0,4.524l-1.17,0l-2.172,-2.766l0,2.766l-1.176,0Z" style="fill:white;fill-rule:nonzero;"/>
    <path id="path7759" d="M134.026,255.453c0,-1.354 -1.099,-2.452 -2.451,-2.452l-113.098,0c-1.353,0 -2.451,1.098 -2.451,2.452l0,25.095c0,1.354 1.098,2.452 2.451,2.452l113.098,0c1.352,0 2.451,-1.098 2.451,-2.452l0,-25.095Z" style="stroke:rgb(13,13,13);stroke-width:0.99px;stroke-linejoin:round;stroke-miterlimit:1.5;"/>
    <path id="path7767" d="M17.533,281.812l115.293,0" style="fill:none;stroke:rgb(64,64,64);stroke-opacity:0.466667;stroke-width:0.5px;stroke-linejoin:round;stroke-miterlimit:1.5;"/>
    <path id="path7771" d="M133.516,256.318c0,-1.28 -1.039,-2.318 -2.318,-2.318l-111.88,0c-1.278,0 -2.318,1.038 -2.318,2.318l0,23.726c0,1.28 1.04,2.318 2.318,2.318l111.88,0c1.279,0 2.318,-1.038 2.318,-2.318l0,-23.726Z" style="fill:none;stroke:rgb(128,128,128);stroke-width:0.99px;stroke-linejoin:round;stroke-miterlimit:1.5;"/>
    <path id="path7853" d="M98.462,258.044l0,21.387" style="fill:none;stroke:rgb(89,89,89);stroke-width:1px;stroke-linejoin:round;stroke-miterlimit:1.5;"/>
  </g>
</svg>