<svg width="150px" height="380px" version="1.1" xmlns="http://www.w3.org/2000/svg" xmlns:xlink="http://www.w3.org/1999/xlink" xml:space="preserve" xmlns:serif="http://www.serif.com/" style="fill-rule:evenodd;clip-rule:evenodd;">
  <defs>
    <linearGradient id="_Linear1" x1="0" y1="0" x2="1" y2="0" gradientUnits="userSpaceOnUse" gradientTransform="matrix(150,-379.998,379.998,150,0.000328145,379.998)">
      <stop offset="0" style="stop-color:rgb(9,13,17);stop-opacity:1"/>
      <stop offset="1" style="stop-color:rgb(24,35,46);stop-opacity:1"/>
    </linearGradient>
  </defs>
  <g id="Panel">
    <rect id="rect9931" x="0" y="0" width="150" height="380" style="fill:rgb(26,26,26);"/>
    <rect id="rect7406" x="0" y="0" width="150" height="379.998" style="fill:url(#_Linear1);"/>
    <path id="path7409" d="M10.814,58c-4.589,0 -8.314,3.725 -8.314,8.314l0,45.254c0,4.59 3.725,8.317 8.314,8.317l16.372,0c4.589,0 8.314,-3.727 8.314,-8.317l0,-20.361c0.1,0.025 0.205,0.041 0.313,0.041l78.687,0l0,20.32c0,4.59 3.725,8.317 8.314,8.317l16.372,0c4.589,0 8.314,-3.727 8.314,-8.317l0,-45.254c0,-4.589 -3.725,-8.314 -8.314,-8.314l-16.372,0c-4.589,0 -8.314,3.725 -8.314,8.314l0,19.727l-78.687,0c-0.108,0 -0.213,0.016 -0.313,0.041l0,-19.768c0,-4.589 -3.725,-8.314 -8.314,-8.314l-16.372,0Z" style="fill:rgb(89,55,37);stroke:rgb(141,87,59);stroke-width:1px;"/>
    <path id="path7423" d="M33.76,170.439c-0.696,0 -1.26,0.565 -1.26,1.26l0,20.545l-23.115,0c-4.076,0 -7.385,3.31 -7.385,7.385l0,14.767c0,4.076 3.309,7.385 7.385,7.385l53.23,0c4.076,0 7.385,-3.309 7.385,-7.385l0,-14.767c0,-4.075 -3.309,-7.385 -7.385,-7.385l-25.115,0l0,-20.545c0,-0.695 -0.564,-1.26 -1.26,-1.26l-2.48,0Z" style="fill:rgb(37,52,89);stroke:rgb(59,83,141);stroke-width:1px;"/>
    <path id="path7433" d="M111.76,170.439c-0.696,0 -1.26,0.565 -1.26,1.26l0,20.545l-23.115,0c-4.076,0 -7.385,3.31 -7.385,7.385l0,14.767c0,4.076 3.309,7.385 7.385,7.385l53.23,0c4.076,0 7.385,-3.309 7.385,-7.385l0,-14.767c0,-4.075 -3.309,-7.385 -7.385,-7.385l-25.115,0l0,-20.545c0,-0.695 -0.564,-1.26 -1.26,-1.26l-2.48,0Z" style="fill:rgb(37,89,57);stroke:rgb(59,141,90);stroke-width:1px;"/>
    <path id="path7443" d="M64.683,120.163c-0.364,-0.444 -0.812,-0.664 -1.345,-0.664c-0.236,0 -0.452,0.044 -0.652,0.128c-0.2,0.084 -0.372,0.2 -0.516,0.348c-0.144,0.148 -0.256,0.32 -0.34,0.524c-0.084,0.204 -0.124,0.42 -0.124,0.657c0,0.24 0.04,0.46 0.124,0.664c0.084,0.204 0.196,0.38 0.344,0.528c0.148,0.148 0.32,0.268 0.516,0.352c0.196,0.084 0.412,0.128 0.64,0.128c0.501,0 0.953,-0.212 1.353,-0.64l0,1.857l-0.16,0.056c-0.24,0.084 -0.464,0.148 -0.672,0.188c-0.209,0.04 -0.413,0.06 -0.617,0.06c-0.416,0 -0.816,-0.08 -1.196,-0.236c-0.38,-0.156 -0.717,-0.38 -1.009,-0.665c-0.292,-0.284 -0.524,-0.624 -0.7,-1.016c-0.176,-0.392 -0.264,-0.82 -0.264,-1.284c0,-0.465 0.088,-0.889 0.26,-1.277c0.172,-0.388 0.404,-0.72 0.696,-1c0.292,-0.281 0.629,-0.501 1.013,-0.657c0.384,-0.156 0.788,-0.236 1.208,-0.236c0.24,0 0.476,0.024 0.709,0.076c0.232,0.052 0.476,0.128 0.732,0.236l0,1.873Z" style="fill:white;fill-rule:nonzero;"/>
    <path id="path7445" d="M67.244,118.146l0,3.282c0,0.176 0.008,0.356 0.02,0.54c0.012,0.184 0.052,0.352 0.12,0.5c0.068,0.148 0.172,0.272 0.316,0.364c0.144,0.092 0.348,0.14 0.608,0.14c0.26,0 0.465,-0.048 0.605,-0.14c0.14,-0.092 0.248,-0.216 0.316,-0.364c0.068,-0.148 0.112,-0.316 0.124,-0.5c0.012,-0.184 0.02,-0.364 0.02,-0.54l0,-3.282l1.56,0l0,3.498c0,0.94 -0.216,1.624 -0.644,2.057c-0.428,0.432 -1.088,0.648 -1.981,0.648c-0.892,0 -1.552,-0.216 -1.984,-0.648c-0.433,-0.433 -0.649,-1.117 -0.649,-2.057l0,-3.498l1.569,0Z" style="fill:white;fill-rule:nonzero;"/>
    <path id="path7447" d="M74.487,119.475l0,4.706l-1.569,0l0,-4.706l-1.288,0l0,-1.329l4.145,0l0,1.329l-1.288,0Z" style="fill:white;fill-rule:nonzero;"/>
    <path id="path7449" d="M77.784,121.164c0,0.24 0.044,0.46 0.136,0.664c0.092,0.204 0.212,0.38 0.369,0.528c0.156,0.148 0.336,0.264 0.54,0.348c0.204,0.084 0.424,0.124 0.652,0.124c0.228,0 0.448,-0.04 0.652,-0.124c0.204,-0.084 0.388,-0.2 0.545,-0.348c0.156,-0.148 0.28,-0.324 0.372,-0.528c0.092,-0.204 0.136,-0.424 0.136,-0.664c0,-0.241 -0.044,-0.461 -0.136,-0.665c-0.092,-0.204 -0.216,-0.38 -0.372,-0.528c-0.157,-0.148 -0.341,-0.264 -0.545,-0.348c-0.204,-0.084 -0.424,-0.124 -0.652,-0.124c-0.228,0 -0.448,0.04 -0.652,0.124c-0.204,0.084 -0.384,0.2 -0.54,0.348c-0.157,0.148 -0.277,0.324 -0.369,0.528c-0.092,0.204 -0.136,0.424 -0.136,0.665Zm-1.64,0c0,-0.449 0.084,-0.865 0.248,-1.253c0.164,-0.388 0.396,-0.724 0.688,-1.012c0.292,-0.289 0.644,-0.513 1.052,-0.677c0.409,-0.164 0.857,-0.244 1.349,-0.244c0.484,0 0.932,0.08 1.345,0.244c0.412,0.164 0.764,0.388 1.06,0.677c0.296,0.288 0.528,0.624 0.692,1.012c0.164,0.388 0.248,0.804 0.248,1.253c0,0.448 -0.084,0.864 -0.248,1.252c-0.164,0.388 -0.396,0.724 -0.692,1.012c-0.296,0.289 -0.648,0.513 -1.06,0.677c-0.413,0.164 -0.861,0.244 -1.345,0.244c-0.492,0 -0.94,-0.08 -1.349,-0.244c-0.408,-0.164 -0.76,-0.388 -1.052,-0.677c-0.292,-0.288 -0.524,-0.624 -0.688,-1.012c-0.164,-0.388 -0.248,-0.804 -0.248,-1.252Z" style="fill:white;fill-rule:nonzero;"/>
    <path id="path7451" d="M87.276,119.475l-1.889,0l0,1.008l1.721,0l0,1.329l-1.721,0l0,2.369l-1.568,0l0,-6.035l3.457,0l0,1.329Z" style="fill:white;fill-rule:nonzero;"/>
    <path id="path7453" d="M91.67,119.475l-1.889,0l0,1.008l1.721,0l0,1.329l-1.721,0l0,2.369l-1.568,0l0,-6.035l3.457,0l0,1.329Z" style="fill:white;fill-rule:nonzero;"/>
    <path id="path7458" d="M104.739,101.173c8.221,-14.243 5.003,-32.509 -7.595,-43.081c-12.597,-10.566 -31.149,-10.566 -43.747,0c-12.597,10.572 -15.815,28.838 -7.594,43.081" style="fill:none;stroke:rgb(204,204,204);stroke-width:1.5px;stroke-linecap:round;"/>
    <circle id="circle7461" cx="46.173" cy="110.44" r="3.706" style="fill:none;stroke:rgb(204,204,204);stroke-width:1px;"/>
    <circle id="circle7464" cx="104.952" cy="109.928" r="3.706" style="fill:rgb(204,204,204);stroke:rgb(204,204,204);stroke-width:1px;"/>
    <path id="path7467" d="M10.66,186.739l0.296,0c0.308,0 0.548,-0.064 0.712,-0.192c0.164,-0.128 0.248,-0.312 0.248,-0.552c0,-0.24 -0.084,-0.424 -0.248,-0.552c-0.164,-0.128 -0.404,-0.192 -0.712,-0.192l-0.296,0l0,1.488Zm3.449,3.338l-1.953,0l-1.496,-2.321l0,2.321l-1.569,0l0,-6.035l2.441,0c0.336,0 0.628,0.048 0.881,0.148c0.252,0.1 0.456,0.232 0.62,0.405c0.164,0.172 0.284,0.368 0.368,0.592c0.084,0.224 0.124,0.464 0.124,0.72c0,0.46 -0.112,0.832 -0.332,1.117c-0.22,0.284 -0.548,0.48 -0.981,0.58l1.897,2.473Z" style="fill:white;fill-rule:nonzero;"/>
    <path id="path7469" d="M18.199,185.371l-1.865,0l0,1.008l1.761,0l0,1.329l-1.761,0l0,1.04l1.865,0l0,1.329l-3.433,0l0,-6.035l3.433,0l0,1.329Z" style="fill:white;fill-rule:nonzero;"/>
    <path id="path7471" d="M22.641,185.587c-0.172,-0.14 -0.34,-0.24 -0.512,-0.308c-0.173,-0.068 -0.337,-0.1 -0.497,-0.1c-0.204,0 -0.368,0.048 -0.496,0.144c-0.128,0.096 -0.192,0.22 -0.192,0.376c0,0.108 0.032,0.196 0.096,0.264c0.064,0.068 0.148,0.128 0.252,0.18c0.104,0.052 0.22,0.096 0.352,0.132c0.132,0.036 0.26,0.076 0.389,0.12c0.512,0.172 0.888,0.4 1.124,0.685c0.236,0.284 0.356,0.656 0.356,1.116c0,0.308 -0.052,0.588 -0.156,0.84c-0.104,0.252 -0.256,0.465 -0.456,0.645c-0.2,0.18 -0.444,0.316 -0.736,0.416c-0.293,0.1 -0.621,0.148 -0.989,0.148c-0.764,0 -1.468,-0.228 -2.121,-0.68l0.673,-1.265c0.236,0.208 0.468,0.364 0.696,0.464c0.228,0.1 0.456,0.152 0.68,0.152c0.256,0 0.448,-0.06 0.572,-0.176c0.124,-0.116 0.188,-0.252 0.188,-0.4c0,-0.092 -0.016,-0.168 -0.048,-0.236c-0.032,-0.068 -0.084,-0.128 -0.16,-0.184c-0.076,-0.056 -0.172,-0.108 -0.292,-0.156c-0.12,-0.048 -0.264,-0.1 -0.436,-0.16c-0.204,-0.064 -0.4,-0.136 -0.596,-0.212c-0.196,-0.076 -0.368,-0.18 -0.52,-0.308c-0.152,-0.128 -0.277,-0.289 -0.369,-0.485c-0.092,-0.196 -0.14,-0.44 -0.14,-0.74c0,-0.3 0.048,-0.568 0.148,-0.812c0.101,-0.244 0.237,-0.452 0.417,-0.625c0.18,-0.172 0.396,-0.308 0.656,-0.404c0.26,-0.096 0.548,-0.144 0.868,-0.144c0.3,0 0.613,0.04 0.937,0.124c0.324,0.084 0.636,0.204 0.936,0.364l-0.624,1.225Z" style="fill:white;fill-rule:nonzero;"/>
    <path id="path7473" d="M25.866,187.06c0,0.24 0.044,0.46 0.136,0.664c0.092,0.204 0.212,0.38 0.368,0.528c0.156,0.148 0.336,0.264 0.541,0.348c0.204,0.084 0.424,0.124 0.652,0.124c0.228,0 0.448,-0.04 0.652,-0.124c0.204,-0.084 0.388,-0.2 0.544,-0.348c0.156,-0.148 0.28,-0.324 0.372,-0.528c0.093,-0.204 0.137,-0.424 0.137,-0.664c0,-0.241 -0.044,-0.461 -0.137,-0.665c-0.092,-0.204 -0.216,-0.38 -0.372,-0.528c-0.156,-0.148 -0.34,-0.264 -0.544,-0.348c-0.204,-0.084 -0.424,-0.124 -0.652,-0.124c-0.228,0 -0.448,0.04 -0.652,0.124c-0.205,0.084 -0.385,0.2 -0.541,0.348c-0.156,0.148 -0.276,0.324 -0.368,0.528c-0.092,0.204 -0.136,0.424 -0.136,0.665Zm-1.641,0c0,-0.449 0.084,-0.865 0.249,-1.253c0.164,-0.388 0.396,-0.724 0.688,-1.012c0.292,-0.289 0.644,-0.513 1.052,-0.677c0.408,-0.164 0.857,-0.244 1.349,-0.244c0.484,0 0.932,0.08 1.344,0.244c0.413,0.164 0.765,0.388 1.061,0.677c0.296,0.288 0.528,0.624 0.692,1.012c0.164,0.388 0.248,0.804 0.248,1.253c0,0.448 -0.084,0.864 -0.248,1.252c-0.164,0.388 -0.396,0.724 -0.692,1.012c-0.296,0.289 -0.648,0.513 -1.061,0.677c-0.412,0.164 -0.86,0.244 -1.344,0.244c-0.492,0 -0.941,-0.08 -1.349,-0.244c-0.408,-0.164 -0.76,-0.388 -1.052,-0.677c-0.292,-0.288 -0.524,-0.624 -0.688,-1.012c-0.165,-0.388 -0.249,-0.804 -0.249,-1.252Z" style="fill:white;fill-rule:nonzero;"/>
    <path id="path7475" d="M31.901,190.077l0,-6.035l1.568,0l2.897,3.69l0,-3.69l1.561,0l0,6.035l-1.561,0l-2.897,-3.69l0,3.69l-1.568,0Z" style="fill:white;fill-rule:nonzero;"/>
    <path id="path7477" d="M42.489,187.836l-0.704,-2.009l-0.705,2.009l1.409,0Zm0.416,1.192l-2.241,0l-0.36,1.049l-1.673,0l2.297,-6.035l1.713,0l2.297,6.035l-1.673,0l-0.36,-1.049Z" style="fill:white;fill-rule:nonzero;"/>
    <path id="path7479" d="M45.626,190.077l0,-6.035l1.569,0l2.897,3.69l0,-3.69l1.561,0l0,6.035l-1.561,0l-2.897,-3.69l0,3.69l-1.569,0Z" style="fill:white;fill-rule:nonzero;"/>
    <path id="path7481" d="M57.343,186.059c-0.364,-0.444 -0.812,-0.664 -1.344,-0.664c-0.236,0 -0.453,0.044 -0.653,0.128c-0.2,0.084 -0.372,0.2 -0.516,0.348c-0.144,0.148 -0.256,0.32 -0.34,0.524c-0.084,0.204 -0.124,0.42 -0.124,0.657c0,0.24 0.04,0.46 0.124,0.664c0.084,0.204 0.196,0.38 0.344,0.528c0.148,0.148 0.32,0.268 0.516,0.352c0.196,0.084 0.413,0.128 0.641,0.128c0.5,0 0.952,-0.212 1.352,-0.64l0,1.857l-0.16,0.056c-0.24,0.084 -0.464,0.148 -0.672,0.188c-0.208,0.04 -0.412,0.06 -0.616,0.06c-0.417,0 -0.817,-0.08 -1.197,-0.236c-0.38,-0.156 -0.716,-0.38 -1.008,-0.665c-0.292,-0.284 -0.525,-0.624 -0.701,-1.016c-0.176,-0.392 -0.264,-0.82 -0.264,-1.284c0,-0.465 0.088,-0.889 0.26,-1.277c0.172,-0.388 0.405,-0.72 0.697,-1c0.292,-0.281 0.628,-0.501 1.012,-0.657c0.384,-0.156 0.788,-0.236 1.209,-0.236c0.24,0 0.476,0.024 0.708,0.076c0.232,0.052 0.476,0.128 0.732,0.236l0,1.873Z" style="fill:white;fill-rule:nonzero;"/>
    <path id="path7483" d="M61.769,185.371l-1.865,0l0,1.008l1.761,0l0,1.329l-1.761,0l0,1.04l1.865,0l0,1.329l-3.433,0l0,-6.035l3.433,0l0,1.329Z" style="fill:white;fill-rule:nonzero;"/>
    <g>
      <path id="path7488" d="M56.383,169.241c5.878,-10.184 3.577,-23.245 -5.431,-30.804c-9.007,-7.556 -22.273,-7.556 -31.281,0c-9.007,7.559 -11.308,20.62 -5.43,30.804" style="fill:none;stroke:rgb(204,204,204);stroke-width:1.5px;stroke-linecap:round;"/>
      <circle id="circle7491" cx="17.173" cy="178.509" r="3.706" style="fill:none;stroke:rgb(204,204,204);stroke-width:1px;"/>
      <circle id="circle7494" cx="54.952" cy="177.997" r="3.706" style="fill:rgb(204,204,204);stroke:rgb(204,204,204);stroke-width:1px;"/>
    </g>
    <g>
      <path id="path7499" d="M134.383,169.241c5.878,-10.184 3.577,-23.245 -5.431,-30.804c-9.007,-7.556 -22.273,-7.556 -31.281,0c-9.007,7.559 -11.308,20.62 -5.43,30.804" style="fill:none;stroke:rgb(204,204,204);stroke-width:1.5px;stroke-linecap:round;"/>
      <circle id="circle7502" cx="95.173" cy="178.509" r="3.706" style="fill:none;stroke:rgb(204,204,204);stroke-width:1px;"/>
      <circle id="circle7505" cx="132.952" cy="177.997" r="3.706" style="fill:rgb(204,204,204);stroke:rgb(204,204,204);stroke-width:1px;"/>
    </g>
    <path id="path7510" d="M40.158,38.559l0,-5.112l1.322,0l0,0.964c0.404,-0.72 0.978,-1.08 1.723,-1.08c0.385,0 0.702,0.094 0.95,0.284c0.248,0.189 0.4,0.455 0.456,0.796c0.477,-0.72 1.055,-1.08 1.732,-1.08c0.934,0 1.401,0.516 1.401,1.546l0,3.682l-1.322,0l0,-3.231c0,-0.605 -0.202,-0.908 -0.605,-0.908c-0.413,0 -0.815,0.298 -1.206,0.894l0,3.245l-1.323,0l0,-3.231c0,-0.608 -0.203,-0.912 -0.609,-0.912c-0.407,0 -0.805,0.299 -1.197,0.898l0,3.245l-1.322,0Z" style="fill:white;fill-rule:nonzero;"/>
    <path id="path7512" d="M51.909,38.01c-0.459,0.443 -0.952,0.666 -1.476,0.666c-0.447,0 -0.81,-0.137 -1.089,-0.41c-0.28,-0.273 -0.42,-0.627 -0.42,-1.062c0,-0.564 0.226,-1 0.678,-1.306c0.451,-0.306 1.098,-0.458 1.939,-0.458l0.368,0l0,-0.466c0,-0.53 -0.303,-0.796 -0.908,-0.796c-0.537,0 -1.08,0.152 -1.63,0.456l0,-0.949c0.624,-0.237 1.242,-0.354 1.853,-0.354c1.338,0 2.006,0.532 2.006,1.597l0,2.262c0,0.4 0.13,0.6 0.387,0.6c0.046,0 0.108,-0.005 0.182,-0.018l0.033,0.773c-0.292,0.087 -0.55,0.131 -0.773,0.131c-0.565,0 -0.929,-0.223 -1.09,-0.666l-0.06,0Zm0,-0.74l0,-1.039l-0.326,0c-0.89,0 -1.336,0.279 -1.336,0.838c0,0.19 0.064,0.349 0.192,0.478c0.13,0.128 0.288,0.193 0.478,0.193c0.323,0 0.653,-0.157 0.992,-0.47Z" style="fill:white;fill-rule:nonzero;"/>
    <path id="path7514" d="M55.009,38.559l0,-5.112l1.379,0l0,0.964c0.45,-0.72 1.03,-1.08 1.74,-1.08c0.457,0 0.817,0.144 1.08,0.433c0.264,0.289 0.396,0.683 0.396,1.183l0,3.612l-1.377,0l0,-3.273c0,-0.58 -0.193,-0.87 -0.578,-0.87c-0.438,0 -0.858,0.308 -1.261,0.927l0,3.216l-1.379,0Z" style="fill:white;fill-rule:nonzero;"/>
    <path id="path7516" d="M61.271,38.559l0,-5.112l1.378,0l0,5.112l-1.378,0Zm0,-5.972l0,-1.151l1.378,0l0,1.151l-1.378,0Z" style="fill:white;fill-rule:nonzero;"/>
    <path id="path7518" d="M64.516,38.559l0,-4.251l-0.703,0l0,-0.861l0.703,0l0,-0.367c0,-1.326 0.629,-1.988 1.886,-1.988c0.406,0 0.825,0.059 1.256,0.176l0,0.932c-0.39,-0.165 -0.742,-0.247 -1.052,-0.247c-0.474,0 -0.713,0.358 -0.713,1.075l0,0.419l1.295,0l0,0.861l-1.295,0l0,4.251l-1.377,0Z" style="fill:white;fill-rule:nonzero;"/>
    <path id="path7520" d="M70.47,38.676c-0.798,0 -1.431,-0.242 -1.901,-0.725c-0.47,-0.482 -0.706,-1.131 -0.706,-1.948c0,-0.826 0.237,-1.477 0.71,-1.955c0.473,-0.478 1.117,-0.717 1.93,-0.717c0.816,0 1.461,0.239 1.935,0.717c0.473,0.478 0.709,1.126 0.709,1.946c0,0.838 -0.237,1.495 -0.713,1.969c-0.474,0.475 -1.129,0.713 -1.964,0.713Zm0.024,-0.862c0.791,0 1.187,-0.607 1.187,-1.82c0,-0.556 -0.105,-0.994 -0.315,-1.317c-0.21,-0.323 -0.496,-0.484 -0.863,-0.484c-0.363,0 -0.65,0.161 -0.86,0.484c-0.209,0.323 -0.313,0.764 -0.313,1.326c0,0.556 0.104,0.997 0.311,1.323c0.209,0.326 0.493,0.488 0.853,0.488Z" style="fill:white;fill-rule:nonzero;"/>
    <rect id="rect7522" x="74.413" y="31.208" width="1.379" height="7.351" style="fill:white;"/>
    <path id="path7524" d="M80.731,38.559l0,-0.963c-0.354,0.72 -0.911,1.08 -1.672,1.08c-0.614,0 -1.097,-0.226 -1.447,-0.676c-0.351,-0.45 -0.526,-1.069 -0.526,-1.857c0,-0.857 0.198,-1.539 0.594,-2.049c0.394,-0.509 0.926,-0.763 1.594,-0.763c0.534,0 1.02,0.211 1.457,0.633l0,-2.756l1.383,0l0,7.351l-1.383,0Zm0,-3.775c-0.333,-0.373 -0.687,-0.56 -1.066,-0.56c-0.338,0 -0.609,0.164 -0.81,0.49c-0.202,0.326 -0.303,0.763 -0.303,1.313c0,1.046 0.336,1.569 1.006,1.569c0.41,0 0.8,-0.263 1.173,-0.787l0,-2.025Z" style="fill:white;fill-rule:nonzero;"/>
    <path id="path7526" d="M87.118,38.559l0,-4.251l-0.703,0l0,-0.861l0.703,0l0,-0.353c0,-0.643 0.153,-1.137 0.459,-1.484c0.306,-0.345 0.741,-0.518 1.305,-0.518c0.349,0 0.717,0.063 1.109,0.19l0,0.941c-0.385,-0.171 -0.67,-0.256 -0.857,-0.256c-0.425,0 -0.638,0.388 -0.638,1.164l0,0.316l3.218,0l0,5.112l-1.379,0l0,-4.251l-1.839,0l0,4.251l-1.378,0Zm3.446,-5.972l0,-1.151l1.15,0l0,1.151l-1.15,0Z" style="fill:white;fill-rule:nonzero;"/>
    <rect id="rect7528" x="93.436" y="31.208" width="1.379" height="7.351" style="fill:white;"/>
    <path id="path7530" d="M99.172,38.532c-0.33,0.095 -0.589,0.144 -0.779,0.144c-1.194,0 -1.791,-0.559 -1.791,-1.676l0,-2.692l-0.573,0l0,-0.861l0.573,0l0,-0.86l1.377,-0.159l0,1.019l1.094,0l0,0.861l-1.094,0l0,2.509c0,0.628 0.257,0.942 0.769,0.942c0.118,0 0.258,-0.023 0.424,-0.066l0,0.839Z" style="fill:white;fill-rule:nonzero;"/>
    <path id="path7532" d="M104.563,38.387c-0.656,0.192 -1.276,0.289 -1.863,0.289c-0.853,0 -1.526,-0.243 -2.021,-0.727c-0.493,-0.484 -0.74,-1.145 -0.74,-1.983c0,-0.792 0.227,-1.428 0.678,-1.911c0.452,-0.483 1.048,-0.724 1.79,-0.724c0.748,0 1.294,0.236 1.639,0.707c0.344,0.472 0.517,1.219 0.517,2.239l-3.171,0c0.093,0.976 0.629,1.463 1.606,1.463c0.463,0 0.983,-0.107 1.565,-0.321l0,0.968Zm-3.189,-2.887l1.834,0c0,-0.872 -0.281,-1.307 -0.843,-1.307c-0.571,0 -0.901,0.435 -0.991,1.307Z" style="fill:white;fill-rule:nonzero;"/>
    <path id="path7534" d="M105.987,38.559l0,-5.112l1.378,0l0,0.964c0.357,-0.72 0.9,-1.08 1.63,-1.08c0.087,0 0.171,0.009 0.255,0.027l0,1.23c-0.195,-0.071 -0.377,-0.107 -0.544,-0.107c-0.55,0 -0.997,0.278 -1.341,0.833l0,3.245l-1.378,0Z" style="fill:white;fill-rule:nonzero;"/>
    <path id="path7539" d="M60.116,19.797l-2.968,0l0,1.585l2.705,0l0,2.089l-2.705,0l0,3.724l-2.466,0l0,-9.485l5.434,0l0,2.087Z" style="fill:rgb(173,181,187);fill-rule:nonzero;"/>
    <path id="path7541" d="M64.055,21.948l0.465,0c0.486,0 0.859,-0.099 1.12,-0.301c0.26,-0.201 0.389,-0.491 0.389,-0.868c0,-0.377 -0.129,-0.666 -0.389,-0.868c-0.261,-0.201 -0.634,-0.301 -1.12,-0.301l-0.465,0l0,2.338Zm5.421,5.247l-3.069,0l-2.352,-3.648l0,3.648l-2.467,0l0,-9.485l3.838,0c0.528,0 0.989,0.078 1.383,0.232c0.395,0.156 0.72,0.368 0.975,0.635c0.256,0.269 0.449,0.58 0.578,0.931c0.131,0.353 0.196,0.73 0.196,1.133c0,0.721 -0.174,1.306 -0.522,1.755c-0.348,0.449 -0.862,0.753 -1.541,0.912l2.981,3.887Z" style="fill:rgb(173,181,187);fill-rule:nonzero;"/>
    <path id="path7543" d="M75.905,19.797l-2.931,0l-0.001,1.585l2.768,0l0,2.089l-2.767,0l-0.001,1.635l2.932,0l0,2.089l-5.397,0l0,-9.485l5.397,0l0,2.087Z" style="fill:rgb(173,181,187);fill-rule:nonzero;"/>
    <path id="path7545" d="M82.836,23.672l-1.106,-3.157l-1.107,3.157l2.213,0Zm0.654,1.875l-3.523,0l-0.566,1.648l-2.629,0l3.611,-9.485l2.692,0l3.611,9.485l-2.63,0l-0.566,-1.648Z" style="fill:rgb(173,181,187);fill-rule:nonzero;"/>
    <path id="path7547" d="M90.233,21.622l3.007,-3.912l3.043,0l-3.761,4.49l4.114,4.995l-3.195,0l-3.208,-4.113l0,4.113l-2.466,0l0,-9.485l2.466,0l0,3.912Z" style="fill:rgb(173,181,187);fill-rule:nonzero;"/>
    <path id="path42" d="M62.952,363.5l2.673,0l2.49,8.317l2.574,-8.317l2.66,0l-3.46,10.397c-0.323,0.959 -0.903,1.438 -1.738,1.438c-0.847,0 -1.433,-0.484 -1.755,-1.453l-3.444,-10.382Z" style="fill:rgb(173,181,187);fill-rule:nonzero;"/>
    <path id="path44" d="M73.55,372.292l0,-8.792l2.507,0l0,8.709c0.044,0.312 0.334,0.468 0.869,0.468l1.705,0c0.513,0 0.797,-0.145 0.853,-0.435l0.017,-0.083l0,-8.659l2.507,0l0,8.776c0,0.769 -0.083,1.315 -0.251,1.638c-0.445,0.858 -1.231,1.287 -2.357,1.287l-3.243,0c-1.159,0 -1.95,-0.44 -2.373,-1.321c-0.156,-0.323 -0.234,-0.852 -0.234,-1.588Z" style="fill:rgb(173,181,187);fill-rule:nonzero;"/>
    <path id="path46" d="M83.161,372.343l0,-8.843l2.508,0l0,8.642c0,0.357 0.211,0.535 0.635,0.535l4.463,0l-0.016,2.524l-4.664,0c-0.167,0 -0.312,-0.005 -0.435,-0.017c-0.903,-0.077 -1.544,-0.342 -1.922,-0.794c-0.379,-0.451 -0.569,-1.134 -0.569,-2.047Z" style="fill:rgb(173,181,187);fill-rule:nonzero;"/>
    <path id="path48" d="M90.851,366.024l0,-2.524l7.522,0l0,2.524l-2.524,0l0,9.177l-2.508,0l0,-9.177l-2.49,0Z" style="fill:rgb(173,181,187);fill-rule:nonzero;"/>
    <path id="path4" d="M59.383,369.417c0,-4.509 -3.655,-8.164 -8.164,-8.164c-4.509,0 -8.165,3.655 -8.165,8.164c0,4.509 3.656,8.165 8.165,8.165c4.509,0 8.164,-3.656 8.164,-8.165Z" style="fill:rgb(117,117,117);fill-rule:nonzero;stroke:rgb(65,76,85);stroke-width:0.61px;stroke-miterlimit:10;"/>
    <g id="g40">
      <path id="polygon6" d="M49.321,374.394l0.553,-0.891l-1.064,-2.393l-2.216,-2.284l0.46,3.101l0.597,1.28l0.833,1.264l0.837,-0.077Z" style="fill:rgb(43,43,43);fill-rule:nonzero;stroke:rgb(65,76,85);stroke-width:0.04px;"/>
      <path id="polygon8" d="M53.048,374.401l-0.553,-0.89l1.064,-2.393l2.216,-2.285l-0.46,3.101l-0.597,1.281l-0.833,1.263l-0.837,-0.077Z" style="fill:rgb(38,38,38);fill-rule:nonzero;stroke:rgb(65,76,85);stroke-width:0.04px;"/>
      <path id="polygon12" d="M48.636,363.359l2.584,-0.66l0,13.447l-1.349,-2.651l-1.061,-2.385l-1.022,-0.581l-2.052,-2.92l-0.057,-0.776l1.148,-2.067l1.809,-1.407Z" style="fill:rgb(66,66,66);fill-rule:nonzero;stroke:rgb(65,76,85);stroke-width:0.04px;"/>
      <path id="polygon14" d="M53.801,363.364l-2.584,-0.661l0,13.448l1.35,-2.651l1.06,-2.385l1.023,-0.581l2.051,-2.921l0.058,-0.775l-1.149,-2.067l-1.809,-1.407Z" style="fill:rgb(51,51,51);fill-rule:nonzero;stroke:rgb(65,76,85);stroke-width:0.04px;"/>
      <path id="polyline16" d="M49.496,369.237l1.723,-1.684l0,1.229l-1.723,1.718l0,-1.263" style="fill:rgb(76,76,76);fill-rule:nonzero;stroke:rgb(65,76,85);stroke-width:0.04px;"/>
      <path id="polygon18" d="M51.22,368.781l-1.723,1.718l0.377,3.004l1.346,2.643l0,-7.365Z" style="fill:rgb(91,91,91);fill-rule:nonzero;stroke:rgb(65,76,85);stroke-width:0.04px;"/>
      <path id="polygon20" d="M51.22,376.146l-1.346,-2.643l1.346,-0.635l0,3.278Z" style="fill:rgb(51,51,51);fill-rule:nonzero;stroke:rgb(65,76,85);stroke-width:0.04px;"/>
      <path id="polygon22" d="M49.497,370.499l0,-1.263l-1.249,-1.58l-1.477,-1.19l-0.001,0.932l0.775,1.823l1.952,1.278Z" style="fill:white;fill-rule:nonzero;stroke:rgb(65,76,85);stroke-width:0.04px;"/>
      <path id="polyline24" d="M52.942,369.238l-1.722,-1.685l0,1.23l1.722,1.718l0,-1.263" style="fill:rgb(45,45,45);fill-rule:nonzero;stroke:rgb(65,76,85);stroke-width:0.04px;"/>
      <path id="polygon26" d="M51.218,368.781l1.722,1.718l-0.376,3.004l-1.347,2.643l0.001,-7.365Z" style="fill:rgb(53,53,53);fill-rule:nonzero;stroke:rgb(65,76,85);stroke-width:0.04px;"/>
      <path id="polygon28" d="M51.217,376.146l1.347,-2.643l-1.346,-0.635l-0.001,3.278Z" style="fill:rgb(25,25,25);fill-rule:nonzero;stroke:rgb(65,76,85);stroke-width:0.04px;"/>
      <path id="polygon30" d="M52.94,370.499l0,-1.263l1.249,-1.58l1.478,-1.19l0.001,0.932l-0.775,1.823l-1.953,1.278Z" style="fill:white;fill-rule:nonzero;stroke:rgb(65,76,85);stroke-width:0.04px;"/>
      <path id="polyline32" d="M48.652,363.338l2.566,4.215l-0.005,-4.87" style="fill:rgb(56,56,56);fill-rule:nonzero;stroke:rgb(65,76,85);stroke-width:0.04px;"/>
      <path id="polyline34" d="M53.785,363.338l-2.566,4.215l0.006,-4.869" style="fill:rgb(45,45,45);fill-rule:nonzero;stroke:rgb(65,76,85);stroke-width:0.04px;"/>
      <path id="polygon36" d="M48.811,371.111l0.688,-0.611l0.375,3.006l-1.063,-2.395Z" style="fill:rgb(51,51,51);fill-rule:nonzero;stroke:rgb(65,76,85);stroke-width:0.04px;"/>
      <path id="polygon38" d="M53.631,371.125l-0.688,-0.61l-0.375,3.006l1.063,-2.396Z" style="fill:rgb(28,28,28);fill-rule:nonzero;stroke:rgb(65,76,85);stroke-width:0.04px;"/>
    </g>
    <path id="path7576" d="M101.66,188.748l0.36,0c0.272,0 0.516,-0.044 0.728,-0.128c0.212,-0.084 0.392,-0.204 0.54,-0.352c0.149,-0.148 0.261,-0.328 0.337,-0.532c0.076,-0.204 0.116,-0.432 0.116,-0.676c0,-0.241 -0.04,-0.465 -0.12,-0.673c-0.08,-0.208 -0.192,-0.388 -0.341,-0.536c-0.148,-0.148 -0.328,-0.268 -0.54,-0.352c-0.212,-0.084 -0.452,-0.128 -0.72,-0.128l-0.36,0l0,3.377Zm-1.569,-4.706l2.321,0c0.412,0 0.796,0.084 1.157,0.248c0.36,0.164 0.676,0.385 0.944,0.661c0.268,0.276 0.48,0.596 0.636,0.96c0.156,0.364 0.232,0.748 0.232,1.149c0,0.396 -0.076,0.776 -0.228,1.14c-0.152,0.364 -0.364,0.688 -0.632,0.964c-0.268,0.277 -0.584,0.501 -0.944,0.665c-0.361,0.164 -0.749,0.248 -1.165,0.248l-2.321,0l0,-6.035Z" style="fill:white;fill-rule:nonzero;"/>
    <path id="path7578" d="M107.95,186.739l0.297,0c0.308,0 0.548,-0.064 0.712,-0.192c0.164,-0.128 0.248,-0.312 0.248,-0.552c0,-0.24 -0.084,-0.424 -0.248,-0.552c-0.164,-0.128 -0.404,-0.192 -0.712,-0.192l-0.297,0l0,1.488Zm3.45,3.338l-1.953,0l-1.497,-2.321l0,2.321l-1.568,0l0,-6.035l2.441,0c0.336,0 0.628,0.048 0.88,0.148c0.252,0.1 0.456,0.232 0.62,0.405c0.164,0.172 0.285,0.368 0.369,0.592c0.084,0.224 0.124,0.464 0.124,0.72c0,0.46 -0.112,0.832 -0.333,1.117c-0.22,0.284 -0.548,0.48 -0.98,0.58l1.897,2.473Z" style="fill:white;fill-rule:nonzero;"/>
    <rect id="rect7580" x="112.056" y="184.042" width="1.569" height="6.035" style="fill:white;"/>
    <path id="path7582" d="M115.962,184.042l1.456,3.674l1.465,-3.674l1.705,0l-2.545,6.035l-1.249,0l-2.537,-6.035l1.705,0Z" style="fill:white;fill-rule:nonzero;"/>
    <path id="path7584" d="M124.653,185.371l-1.864,0l0,1.008l1.76,0l0,1.329l-1.76,0l0,1.04l1.864,0l0,1.329l-3.433,0l0,-6.035l3.433,0l0,1.329Z" style="fill:white;fill-rule:nonzero;"/>
    <path id="path7589" d="M110.998,305.65l0.768,-4.526l1.165,0l0.908,2.413l0.901,-2.413l1.16,0l0.768,4.526l-1.168,0l-0.388,-2.605l-1.069,2.605l-0.468,0l-1.016,-2.605l-0.388,2.605l-1.173,0Z" style="fill:white;fill-rule:nonzero;"/>
    <path id="path7591" d="M118.441,303.389c0,0.18 0.032,0.344 0.1,0.496c0.068,0.152 0.16,0.284 0.276,0.396c0.116,0.112 0.252,0.2 0.405,0.26c0.156,0.064 0.32,0.096 0.492,0.096c0.172,0 0.332,-0.032 0.488,-0.096c0.152,-0.06 0.288,-0.148 0.408,-0.26c0.116,-0.112 0.208,-0.244 0.276,-0.396c0.068,-0.152 0.104,-0.316 0.104,-0.496c0,-0.18 -0.036,-0.348 -0.104,-0.5c-0.068,-0.152 -0.16,-0.284 -0.276,-0.397c-0.12,-0.112 -0.256,-0.196 -0.408,-0.26c-0.156,-0.06 -0.316,-0.092 -0.488,-0.092c-0.172,0 -0.336,0.032 -0.492,0.092c-0.153,0.064 -0.289,0.148 -0.405,0.26c-0.116,0.113 -0.208,0.245 -0.276,0.397c-0.068,0.152 -0.1,0.32 -0.1,0.5Zm-1.232,0c0,-0.336 0.064,-0.648 0.188,-0.941c0.124,-0.288 0.296,-0.544 0.516,-0.76c0.22,-0.216 0.48,-0.384 0.788,-0.504c0.304,-0.124 0.645,-0.184 1.013,-0.184c0.364,0 0.696,0.06 1.004,0.184c0.308,0.12 0.576,0.288 0.796,0.504c0.225,0.216 0.397,0.472 0.521,0.76c0.124,0.293 0.184,0.605 0.184,0.941c0,0.336 -0.06,0.648 -0.184,0.936c-0.124,0.292 -0.296,0.544 -0.521,0.761c-0.22,0.216 -0.488,0.384 -0.796,0.508c-0.308,0.12 -0.64,0.18 -1.004,0.18c-0.368,0 -0.709,-0.06 -1.013,-0.18c-0.308,-0.124 -0.568,-0.292 -0.788,-0.508c-0.22,-0.217 -0.392,-0.469 -0.516,-0.761c-0.124,-0.288 -0.188,-0.6 -0.188,-0.936Z" style="fill:white;fill-rule:nonzero;"/>
    <path id="path7593" d="M124.14,304.653l0.272,0c0.204,0 0.384,-0.032 0.544,-0.096c0.16,-0.064 0.296,-0.152 0.404,-0.264c0.112,-0.112 0.196,-0.244 0.252,-0.4c0.06,-0.152 0.088,-0.32 0.088,-0.504c0,-0.18 -0.032,-0.348 -0.092,-0.504c-0.06,-0.156 -0.144,-0.292 -0.252,-0.405c-0.112,-0.112 -0.244,-0.2 -0.404,-0.264c-0.16,-0.064 -0.34,-0.096 -0.54,-0.096l-0.272,0l0,2.533Zm-1.177,-3.529l1.741,0c0.308,0 0.596,0.064 0.868,0.188c0.268,0.124 0.504,0.288 0.708,0.496c0.201,0.204 0.361,0.444 0.477,0.721c0.116,0.272 0.172,0.56 0.172,0.86c0,0.296 -0.056,0.58 -0.168,0.852c-0.116,0.276 -0.272,0.516 -0.477,0.725c-0.2,0.208 -0.436,0.376 -0.708,0.5c-0.268,0.124 -0.56,0.184 -0.872,0.184l-1.741,0l0,-4.526Z" style="fill:white;fill-rule:nonzero;"/>
    <path id="path7595" d="M130.254,302.12l-1.396,0l0,0.757l1.316,0l0,0.996l-1.316,0l0,0.78l1.396,0l0,0.997l-2.573,0l0,-4.526l2.573,0l0,0.996Z" style="fill:white;fill-rule:nonzero;"/>
    <path id="path7599" d="M84.864,302.081l-1.416,0l0,0.757l1.292,0l0,0.996l-1.292,0l0,1.777l-1.177,0l0,-4.526l2.593,0l0,0.996Z" style="fill:white;fill-rule:nonzero;"/>
    <rect id="rect7601" x="85.568" y="301.085" width="1.176" height="4.526" style="fill:white;"/>
    <path id="path7603" d="M88.866,301.085l0,3.529l1.412,0l0,0.997l-2.589,0l0,-4.526l1.177,0Z" style="fill:white;fill-rule:nonzero;"/>
    <path id="path7605" d="M92.359,302.081l0,3.53l-1.176,0l0,-3.53l-0.965,0l0,-0.996l3.106,0l0,0.996l-0.965,0Z" style="fill:white;fill-rule:nonzero;"/>
    <path id="path7607" d="M96.421,302.081l-1.397,0l0,0.757l1.317,0l0,0.996l-1.317,0l0,0.78l1.397,0l0,0.997l-2.573,0l0,-4.526l2.573,0l0,0.996Z" style="fill:white;fill-rule:nonzero;"/>
    <path id="path7609" d="M98.442,303.11l0.224,0c0.232,0 0.408,-0.048 0.532,-0.144c0.124,-0.096 0.188,-0.236 0.188,-0.416c0,-0.181 -0.064,-0.317 -0.188,-0.413c-0.124,-0.096 -0.3,-0.144 -0.532,-0.144l-0.224,0l0,1.117Zm2.589,2.501l-1.465,0l-1.124,-1.741l0,1.741l-1.177,0l0,-4.526l1.833,0c0.252,0 0.472,0.04 0.66,0.112c0.188,0.076 0.34,0.176 0.465,0.304c0.12,0.128 0.212,0.276 0.276,0.444c0.06,0.168 0.092,0.348 0.092,0.541c0,0.344 -0.084,0.624 -0.248,0.836c-0.168,0.212 -0.413,0.36 -0.737,0.436l1.425,1.853Z" style="fill:white;fill-rule:nonzero;"/>
    <path id="path7613" d="M35.203,276.686c-0.272,-0.333 -0.609,-0.497 -1.009,-0.497c-0.176,0 -0.34,0.032 -0.488,0.096c-0.152,0.064 -0.28,0.152 -0.388,0.26c-0.108,0.113 -0.192,0.241 -0.256,0.393c-0.06,0.152 -0.092,0.316 -0.092,0.492c0,0.18 0.032,0.348 0.092,0.5c0.064,0.152 0.148,0.284 0.26,0.396c0.108,0.112 0.236,0.2 0.384,0.264c0.148,0.064 0.308,0.096 0.48,0.096c0.376,0 0.717,-0.16 1.017,-0.48l0,1.393l-0.12,0.04c-0.18,0.064 -0.349,0.112 -0.505,0.14c-0.156,0.032 -0.312,0.044 -0.464,0.044c-0.312,0 -0.608,-0.056 -0.896,-0.176c-0.284,-0.116 -0.536,-0.284 -0.756,-0.496c-0.217,-0.217 -0.393,-0.469 -0.525,-0.765c-0.132,-0.292 -0.2,-0.612 -0.2,-0.96c0,-0.348 0.068,-0.668 0.196,-0.957c0.132,-0.292 0.304,-0.54 0.525,-0.752c0.216,-0.208 0.468,-0.372 0.756,-0.492c0.288,-0.116 0.592,-0.176 0.908,-0.176c0.18,0 0.356,0.02 0.528,0.056c0.176,0.04 0.361,0.096 0.553,0.176l0,1.405Z" style="fill:white;fill-rule:nonzero;"/>
    <path id="path7615" d="M37.035,277.438c0,0.18 0.036,0.344 0.104,0.496c0.068,0.152 0.161,0.284 0.277,0.396c0.116,0.112 0.252,0.2 0.404,0.26c0.156,0.064 0.316,0.096 0.488,0.096c0.172,0 0.336,-0.032 0.488,-0.096c0.156,-0.06 0.292,-0.148 0.408,-0.26c0.12,-0.112 0.212,-0.244 0.28,-0.396c0.068,-0.152 0.104,-0.316 0.104,-0.496c0,-0.18 -0.036,-0.348 -0.104,-0.5c-0.068,-0.152 -0.16,-0.284 -0.28,-0.397c-0.116,-0.112 -0.252,-0.196 -0.408,-0.26c-0.152,-0.06 -0.316,-0.092 -0.488,-0.092c-0.172,0 -0.332,0.032 -0.488,0.092c-0.152,0.064 -0.288,0.148 -0.404,0.26c-0.116,0.113 -0.209,0.245 -0.277,0.397c-0.068,0.152 -0.104,0.32 -0.104,0.5Zm-1.228,0c0,-0.336 0.064,-0.648 0.188,-0.941c0.124,-0.288 0.292,-0.544 0.512,-0.76c0.22,-0.216 0.484,-0.384 0.793,-0.504c0.304,-0.124 0.64,-0.184 1.008,-0.184c0.364,0 0.7,0.06 1.008,0.184c0.308,0.12 0.573,0.288 0.797,0.504c0.22,0.216 0.396,0.472 0.52,0.76c0.124,0.293 0.184,0.605 0.184,0.941c0,0.336 -0.06,0.648 -0.184,0.936c-0.124,0.292 -0.3,0.544 -0.52,0.761c-0.224,0.216 -0.489,0.384 -0.797,0.508c-0.308,0.12 -0.644,0.18 -1.008,0.18c-0.368,0 -0.704,-0.06 -1.008,-0.18c-0.309,-0.124 -0.573,-0.292 -0.793,-0.508c-0.22,-0.217 -0.388,-0.469 -0.512,-0.761c-0.124,-0.288 -0.188,-0.6 -0.188,-0.936Z" style="fill:white;fill-rule:nonzero;"/>
    <path id="path7617" d="M41.357,279.699l0.769,-4.526l1.164,0l0.904,2.413l0.901,-2.413l1.164,0l0.769,4.526l-1.169,0l-0.392,-2.605l-1.069,2.605l-0.468,0l-1.012,-2.605l-0.392,2.605l-1.169,0Z" style="fill:white;fill-rule:nonzero;"/>
    <path id="path7619" d="M48.948,278.786l0.256,0c0.297,0 0.509,-0.036 0.637,-0.112c0.128,-0.076 0.192,-0.2 0.192,-0.368c0,-0.168 -0.064,-0.288 -0.192,-0.364c-0.128,-0.076 -0.34,-0.116 -0.637,-0.116l-0.256,0l0,0.96Zm0,-1.836l0.216,0c0.369,0 0.553,-0.144 0.553,-0.437c0,-0.292 -0.184,-0.44 -0.553,-0.44l-0.216,0l0,0.877Zm-1.176,-1.777l1.753,0c0.416,0 0.732,0.1 0.948,0.3c0.216,0.2 0.32,0.488 0.32,0.864c0,0.229 -0.04,0.421 -0.12,0.569c-0.084,0.152 -0.208,0.276 -0.376,0.38c0.168,0.032 0.312,0.08 0.428,0.148c0.12,0.064 0.216,0.148 0.288,0.244c0.076,0.096 0.128,0.204 0.16,0.324c0.032,0.12 0.048,0.248 0.048,0.384c0,0.212 -0.036,0.4 -0.112,0.564c-0.072,0.165 -0.176,0.301 -0.312,0.413c-0.132,0.112 -0.296,0.196 -0.488,0.252c-0.192,0.056 -0.408,0.084 -0.648,0.084l-1.889,0l0,-4.526Z" style="fill:white;fill-rule:nonzero;"/>
    <rect id="rect7621" x="51.922" y="275.173" width="1.176" height="4.526" style="fill:white;"/>
    <path id="path7623" d="M54.046,279.699l0,-4.526l1.177,0l2.173,2.769l0,-2.769l1.168,0l0,4.526l-1.168,0l-2.173,-2.765l0,2.765l-1.177,0Z" style="fill:white;fill-rule:nonzero;"/>
    <path id="path7625" d="M62.086,276.169l-1.397,0l0,0.757l1.321,0l0,0.996l-1.321,0l0,0.78l1.397,0l0,0.997l-2.573,0l0,-4.526l2.573,0l0,0.996Z" style="fill:white;fill-rule:nonzero;"/>
    <path id="path7627" d="M64.111,278.702l0.268,0c0.204,0 0.388,-0.032 0.548,-0.096c0.16,-0.064 0.292,-0.152 0.404,-0.264c0.108,-0.112 0.192,-0.244 0.252,-0.4c0.056,-0.152 0.084,-0.32 0.084,-0.504c0,-0.18 -0.028,-0.348 -0.088,-0.504c-0.06,-0.156 -0.144,-0.292 -0.256,-0.405c-0.108,-0.112 -0.244,-0.2 -0.404,-0.264c-0.16,-0.064 -0.34,-0.096 -0.54,-0.096l-0.268,0l0,2.533Zm-1.177,-3.529l1.741,0c0.308,0 0.596,0.064 0.864,0.188c0.272,0.124 0.508,0.288 0.709,0.496c0.204,0.204 0.36,0.444 0.476,0.721c0.116,0.272 0.176,0.56 0.176,0.86c0,0.296 -0.056,0.58 -0.172,0.852c-0.112,0.276 -0.272,0.516 -0.472,0.725c-0.205,0.208 -0.441,0.376 -0.709,0.5c-0.272,0.124 -0.56,0.184 -0.872,0.184l-1.741,0l0,-4.526Z" style="fill:white;fill-rule:nonzero;"/>
    <path id="path7631" d="M17.013,265.825l0.768,-4.526l1.165,0l0.908,2.413l0.901,-2.413l1.16,0l0.768,4.526l-1.168,0l-0.388,-2.605l-1.069,2.605l-0.468,0l-1.016,-2.605l-0.389,2.605l-1.172,0Z" style="fill:rgb(140,140,140);fill-rule:nonzero;"/>
    <path id="path7633" d="M24.456,263.564c0,0.18 0.032,0.344 0.1,0.496c0.068,0.152 0.16,0.284 0.276,0.396c0.116,0.112 0.252,0.2 0.404,0.26c0.156,0.064 0.321,0.096 0.493,0.096c0.172,0 0.332,-0.032 0.488,-0.096c0.152,-0.06 0.288,-0.148 0.408,-0.26c0.116,-0.112 0.208,-0.244 0.276,-0.396c0.068,-0.152 0.104,-0.316 0.104,-0.496c0,-0.18 -0.036,-0.348 -0.104,-0.5c-0.068,-0.152 -0.16,-0.284 -0.276,-0.397c-0.12,-0.112 -0.256,-0.196 -0.408,-0.26c-0.156,-0.06 -0.316,-0.092 -0.488,-0.092c-0.172,0 -0.337,0.032 -0.493,0.092c-0.152,0.064 -0.288,0.148 -0.404,0.26c-0.116,0.113 -0.208,0.245 -0.276,0.397c-0.068,0.152 -0.1,0.32 -0.1,0.5Zm-1.232,0c0,-0.336 0.064,-0.648 0.188,-0.941c0.124,-0.288 0.296,-0.544 0.516,-0.76c0.22,-0.216 0.48,-0.384 0.788,-0.504c0.304,-0.124 0.644,-0.184 1.013,-0.184c0.364,0 0.696,0.06 1.004,0.184c0.308,0.12 0.576,0.288 0.796,0.504c0.224,0.216 0.397,0.472 0.521,0.76c0.124,0.293 0.184,0.605 0.184,0.941c0,0.336 -0.06,0.648 -0.184,0.936c-0.124,0.292 -0.297,0.544 -0.521,0.761c-0.22,0.216 -0.488,0.384 -0.796,0.508c-0.308,0.12 -0.64,0.18 -1.004,0.18c-0.369,0 -0.709,-0.06 -1.013,-0.18c-0.308,-0.124 -0.568,-0.292 -0.788,-0.508c-0.22,-0.217 -0.392,-0.469 -0.516,-0.761c-0.124,-0.288 -0.188,-0.6 -0.188,-0.936Z" style="fill:rgb(140,140,140);fill-rule:nonzero;"/>
    <path id="path7635" d="M30.154,264.828l0.273,0c0.204,0 0.384,-0.032 0.544,-0.096c0.16,-0.064 0.296,-0.152 0.404,-0.264c0.112,-0.112 0.196,-0.244 0.252,-0.4c0.06,-0.152 0.088,-0.32 0.088,-0.504c0,-0.18 -0.032,-0.348 -0.092,-0.504c-0.06,-0.156 -0.144,-0.292 -0.252,-0.405c-0.112,-0.112 -0.244,-0.2 -0.404,-0.264c-0.16,-0.064 -0.34,-0.096 -0.54,-0.096l-0.273,0l0,2.533Zm-1.176,-3.529l1.741,0c0.308,0 0.596,0.064 0.868,0.188c0.268,0.124 0.504,0.288 0.708,0.496c0.2,0.204 0.361,0.444 0.477,0.721c0.116,0.272 0.172,0.56 0.172,0.86c0,0.296 -0.056,0.58 -0.168,0.852c-0.116,0.276 -0.273,0.516 -0.477,0.725c-0.2,0.208 -0.436,0.376 -0.708,0.5c-0.268,0.124 -0.56,0.184 -0.872,0.184l-1.741,0l0,-4.526Z" style="fill:rgb(140,140,140);fill-rule:nonzero;"/>
    <path id="path7637" d="M36.909,263.324l0.224,0c0.232,0 0.409,-0.048 0.533,-0.144c0.124,-0.096 0.188,-0.236 0.188,-0.416c0,-0.181 -0.064,-0.317 -0.188,-0.413c-0.124,-0.096 -0.301,-0.144 -0.533,-0.144l-0.224,0l0,1.117Zm2.589,2.501l-1.464,0l-1.125,-1.741l0,1.741l-1.172,0l0,-4.526l1.829,0c0.252,0 0.472,0.04 0.66,0.112c0.188,0.076 0.34,0.176 0.464,0.304c0.12,0.128 0.212,0.276 0.276,0.444c0.06,0.168 0.092,0.348 0.092,0.541c0,0.344 -0.084,0.624 -0.248,0.836c-0.168,0.212 -0.412,0.36 -0.736,0.436l1.424,1.853Z" style="fill:rgb(140,140,140);fill-rule:nonzero;"/>
    <path id="path7639" d="M40.931,263.564c0,0.18 0.032,0.344 0.1,0.496c0.068,0.152 0.16,0.284 0.276,0.396c0.116,0.112 0.252,0.2 0.408,0.26c0.152,0.064 0.316,0.096 0.488,0.096c0.173,0 0.337,-0.032 0.489,-0.096c0.156,-0.06 0.292,-0.148 0.408,-0.26c0.12,-0.112 0.212,-0.244 0.28,-0.396c0.068,-0.152 0.1,-0.316 0.1,-0.496c0,-0.18 -0.032,-0.348 -0.1,-0.5c-0.068,-0.152 -0.16,-0.284 -0.28,-0.397c-0.116,-0.112 -0.252,-0.196 -0.408,-0.26c-0.152,-0.06 -0.316,-0.092 -0.489,-0.092c-0.172,0 -0.336,0.032 -0.488,0.092c-0.156,0.064 -0.292,0.148 -0.408,0.26c-0.116,0.113 -0.208,0.245 -0.276,0.397c-0.068,0.152 -0.1,0.32 -0.1,0.5Zm-1.229,0c0,-0.336 0.06,-0.648 0.184,-0.941c0.125,-0.288 0.297,-0.544 0.517,-0.76c0.22,-0.216 0.484,-0.384 0.788,-0.504c0.308,-0.124 0.644,-0.184 1.012,-0.184c0.365,0 0.701,0.06 1.009,0.184c0.308,0.12 0.572,0.288 0.792,0.504c0.224,0.216 0.396,0.472 0.52,0.76c0.124,0.293 0.189,0.605 0.189,0.941c0,0.336 -0.065,0.648 -0.189,0.936c-0.124,0.292 -0.296,0.544 -0.52,0.761c-0.22,0.216 -0.484,0.384 -0.792,0.508c-0.308,0.12 -0.644,0.18 -1.009,0.18c-0.368,0 -0.704,-0.06 -1.012,-0.18c-0.304,-0.124 -0.568,-0.292 -0.788,-0.508c-0.22,-0.217 -0.392,-0.469 -0.517,-0.761c-0.124,-0.288 -0.184,-0.6 -0.184,-0.936Z" style="fill:rgb(140,140,140);fill-rule:nonzero;"/>
    <path id="path7641" d="M46.629,261.299l0,2.461c0,0.132 0.008,0.268 0.016,0.404c0.012,0.14 0.04,0.264 0.092,0.376c0.048,0.112 0.128,0.204 0.236,0.272c0.108,0.072 0.261,0.108 0.457,0.108c0.196,0 0.348,-0.036 0.452,-0.108c0.108,-0.068 0.184,-0.16 0.236,-0.272c0.052,-0.112 0.084,-0.236 0.092,-0.376c0.012,-0.136 0.016,-0.272 0.016,-0.404l0,-2.461l1.172,0l0,2.625c0,0.704 -0.164,1.217 -0.484,1.541c-0.324,0.324 -0.816,0.484 -1.484,0.484c-0.669,0 -1.165,-0.16 -1.489,-0.484c-0.324,-0.324 -0.484,-0.837 -0.484,-1.541l0,-2.625l1.172,0Z" style="fill:rgb(140,140,140);fill-rule:nonzero;"/>
    <path id="path7643" d="M52.06,262.295l0,3.53l-1.177,0l0,-3.53l-0.964,0l0,-0.996l3.109,0l0,0.996l-0.968,0Z" style="fill:rgb(140,140,140);fill-rule:nonzero;"/>
    <path id="path7645" d="M56.121,262.295l-1.396,0l0,0.757l1.32,0l0,0.996l-1.32,0l0,0.78l1.396,0l0,0.997l-2.573,0l0,-4.526l2.573,0l0,0.996Z" style="fill:rgb(140,140,140);fill-rule:nonzero;"/>
    <path id="path7649" d="M83.41,265.635l0.768,-4.526l1.165,0l0.908,2.413l0.901,-2.413l1.16,0l0.768,4.526l-1.168,0l-0.388,-2.605l-1.069,2.605l-0.468,0l-1.016,-2.605l-0.389,2.605l-1.172,0Z" style="fill:rgb(140,140,140);fill-rule:nonzero;"/>
    <path id="path7651" d="M90.853,263.374c0,0.18 0.032,0.344 0.1,0.496c0.068,0.152 0.16,0.284 0.276,0.396c0.116,0.112 0.252,0.2 0.404,0.26c0.156,0.064 0.321,0.096 0.493,0.096c0.172,0 0.332,-0.032 0.488,-0.096c0.152,-0.06 0.288,-0.148 0.408,-0.26c0.116,-0.112 0.208,-0.244 0.276,-0.396c0.068,-0.152 0.104,-0.316 0.104,-0.496c0,-0.18 -0.036,-0.348 -0.104,-0.5c-0.068,-0.152 -0.16,-0.284 -0.276,-0.397c-0.12,-0.112 -0.256,-0.196 -0.408,-0.26c-0.156,-0.06 -0.316,-0.092 -0.488,-0.092c-0.172,0 -0.337,0.032 -0.493,0.092c-0.152,0.064 -0.288,0.148 -0.404,0.26c-0.116,0.113 -0.208,0.245 -0.276,0.397c-0.068,0.152 -0.1,0.32 -0.1,0.5Zm-1.232,0c0,-0.336 0.064,-0.648 0.188,-0.941c0.124,-0.288 0.296,-0.544 0.516,-0.76c0.22,-0.216 0.48,-0.384 0.788,-0.504c0.304,-0.124 0.644,-0.184 1.013,-0.184c0.364,0 0.696,0.06 1.004,0.184c0.308,0.12 0.576,0.288 0.796,0.504c0.224,0.216 0.397,0.472 0.521,0.76c0.124,0.293 0.184,0.605 0.184,0.941c0,0.336 -0.06,0.648 -0.184,0.936c-0.124,0.292 -0.297,0.544 -0.521,0.761c-0.22,0.216 -0.488,0.384 -0.796,0.508c-0.308,0.12 -0.64,0.18 -1.004,0.18c-0.369,0 -0.709,-0.06 -1.013,-0.18c-0.308,-0.124 -0.568,-0.292 -0.788,-0.508c-0.22,-0.217 -0.392,-0.469 -0.516,-0.761c-0.124,-0.288 -0.188,-0.6 -0.188,-0.936Z" style="fill:rgb(140,140,140);fill-rule:nonzero;"/>
    <path id="path7653" d="M96.551,264.638l0.273,0c0.204,0 0.384,-0.032 0.544,-0.096c0.16,-0.064 0.296,-0.152 0.404,-0.264c0.112,-0.112 0.196,-0.244 0.252,-0.4c0.06,-0.152 0.088,-0.32 0.088,-0.504c0,-0.18 -0.032,-0.348 -0.092,-0.504c-0.06,-0.156 -0.144,-0.292 -0.252,-0.405c-0.112,-0.112 -0.244,-0.2 -0.404,-0.264c-0.16,-0.064 -0.34,-0.096 -0.54,-0.096l-0.273,0l0,2.533Zm-1.176,-3.529l1.741,0c0.308,0 0.596,0.064 0.868,0.188c0.268,0.124 0.504,0.288 0.708,0.496c0.2,0.204 0.361,0.444 0.477,0.721c0.116,0.272 0.172,0.56 0.172,0.86c0,0.296 -0.056,0.58 -0.168,0.852c-0.116,0.276 -0.273,0.516 -0.477,0.725c-0.2,0.208 -0.436,0.376 -0.708,0.5c-0.268,0.124 -0.56,0.184 -0.872,0.184l-1.741,0l0,-4.526Z" style="fill:rgb(140,140,140);fill-rule:nonzero;"/>
    <path id="path7655" d="M102.666,262.105l-1.397,0l0,0.757l1.317,0l0,0.996l-1.317,0l0,0.78l1.397,0l0,0.997l-2.573,0l0,-4.526l2.573,0l0,0.996Z" style="fill:rgb(140,140,140);fill-rule:nonzero;"/>
    <path id="path7657" d="M104.687,261.109l0,3.529l1.412,0l0,0.997l-2.589,0l0,-4.526l1.177,0Z" style="fill:rgb(140,140,140);fill-rule:nonzero;"/>
    <path id="path7659" d="M111.23,262.269c-0.129,-0.104 -0.257,-0.18 -0.385,-0.232c-0.128,-0.048 -0.252,-0.076 -0.372,-0.076c-0.152,0 -0.276,0.036 -0.372,0.108c-0.096,0.072 -0.144,0.168 -0.144,0.284c0,0.08 0.024,0.144 0.072,0.197c0.048,0.052 0.108,0.1 0.188,0.136c0.076,0.04 0.164,0.072 0.264,0.1c0.096,0.028 0.196,0.056 0.292,0.088c0.385,0.128 0.665,0.3 0.841,0.512c0.18,0.216 0.268,0.496 0.268,0.84c0,0.232 -0.04,0.44 -0.116,0.628c-0.08,0.189 -0.192,0.349 -0.344,0.485c-0.148,0.132 -0.333,0.236 -0.553,0.312c-0.216,0.072 -0.464,0.108 -0.74,0.108c-0.572,0 -1.1,-0.168 -1.589,-0.508l0.505,-0.949c0.176,0.156 0.348,0.272 0.52,0.348c0.172,0.076 0.344,0.116 0.512,0.116c0.192,0 0.332,-0.044 0.428,-0.132c0.092,-0.088 0.14,-0.188 0.14,-0.3c0,-0.068 -0.012,-0.128 -0.036,-0.18c-0.024,-0.048 -0.064,-0.096 -0.12,-0.136c-0.056,-0.044 -0.128,-0.08 -0.22,-0.116c-0.088,-0.036 -0.196,-0.076 -0.324,-0.12c-0.152,-0.048 -0.3,-0.104 -0.448,-0.16c-0.144,-0.06 -0.276,-0.136 -0.388,-0.232c-0.116,-0.096 -0.208,-0.216 -0.276,-0.36c-0.072,-0.148 -0.108,-0.332 -0.108,-0.557c0,-0.224 0.04,-0.428 0.112,-0.608c0.076,-0.184 0.18,-0.34 0.312,-0.468c0.136,-0.132 0.3,-0.232 0.492,-0.304c0.192,-0.072 0.412,-0.108 0.652,-0.108c0.224,0 0.456,0.032 0.7,0.092c0.245,0.064 0.481,0.152 0.705,0.272l-0.468,0.92Z" style="fill:rgb(140,140,140);fill-rule:nonzero;"/>
    <path id="path7661" d="M115.195,262.105l-1.4,0l0,0.757l1.32,0l0,0.996l-1.32,0l0,0.78l1.4,0l0,0.997l-2.577,0l0,-4.526l2.577,0l0,0.996Z" style="fill:rgb(140,140,140);fill-rule:nonzero;"/>
    <path id="path7663" d="M117.216,261.109l0,3.529l1.409,0l0,0.997l-2.585,0l0,-4.526l1.176,0Z" style="fill:rgb(140,140,140);fill-rule:nonzero;"/>
    <path id="path7665" d="M121.806,262.105l-1.397,0l0,0.757l1.317,0l0,0.996l-1.317,0l0,0.78l1.397,0l0,0.997l-2.573,0l0,-4.526l2.573,0l0,0.996Z" style="fill:rgb(140,140,140);fill-rule:nonzero;"/>
    <path id="path7667" d="M125.912,262.622c-0.272,-0.333 -0.609,-0.497 -1.009,-0.497c-0.176,0 -0.34,0.032 -0.492,0.096c-0.148,0.064 -0.276,0.152 -0.384,0.26c-0.108,0.113 -0.192,0.241 -0.256,0.393c-0.06,0.152 -0.092,0.316 -0.092,0.492c0,0.18 0.032,0.348 0.092,0.5c0.064,0.152 0.148,0.284 0.26,0.396c0.108,0.112 0.236,0.2 0.384,0.264c0.148,0.064 0.308,0.096 0.48,0.096c0.376,0 0.717,-0.16 1.017,-0.48l0,1.393l-0.12,0.04c-0.18,0.064 -0.349,0.112 -0.505,0.14c-0.156,0.032 -0.312,0.044 -0.464,0.044c-0.312,0 -0.612,-0.056 -0.896,-0.176c-0.284,-0.116 -0.536,-0.284 -0.756,-0.496c-0.217,-0.217 -0.393,-0.469 -0.525,-0.765c-0.132,-0.292 -0.2,-0.612 -0.2,-0.96c0,-0.348 0.068,-0.668 0.196,-0.957c0.132,-0.292 0.304,-0.54 0.525,-0.752c0.216,-0.208 0.468,-0.372 0.756,-0.492c0.288,-0.116 0.592,-0.176 0.908,-0.176c0.18,0 0.356,0.02 0.528,0.056c0.176,0.04 0.361,0.096 0.553,0.176l0,1.405Z" style="fill:rgb(140,140,140);fill-rule:nonzero;"/>
    <path id="path7669" d="M128.369,262.105l0,3.53l-1.177,0l0,-3.53l-0.964,0l0,-0.996l3.109,0l0,0.996l-0.968,0Z" style="fill:rgb(140,140,140);fill-rule:nonzero;"/>
    <rect id="rect7673" x="31.941" y="285.203" width="1.176" height="4.526" style="fill:white;"/>
    <path id="path7675" d="M34.066,289.729l0,-4.526l1.177,0l2.173,2.769l0,-2.769l1.168,0l0,4.526l-1.168,0l-2.173,-2.765l0,2.765l-1.177,0Z" style="fill:white;fill-rule:nonzero;"/>
    <path id="path7677" d="M40.709,288.732l0.272,0c0.2,0 0.384,-0.032 0.544,-0.096c0.16,-0.064 0.296,-0.152 0.404,-0.264c0.112,-0.112 0.197,-0.244 0.253,-0.4c0.06,-0.152 0.088,-0.32 0.088,-0.504c0,-0.18 -0.032,-0.348 -0.092,-0.504c-0.06,-0.156 -0.145,-0.292 -0.253,-0.405c-0.112,-0.112 -0.248,-0.2 -0.408,-0.264c-0.16,-0.064 -0.34,-0.096 -0.536,-0.096l-0.272,0l0,2.533Zm-1.177,-3.529l1.741,0c0.308,0 0.596,0.064 0.869,0.188c0.268,0.124 0.504,0.288 0.708,0.496c0.2,0.204 0.36,0.444 0.476,0.721c0.116,0.272 0.172,0.56 0.172,0.86c0,0.296 -0.056,0.58 -0.168,0.852c-0.116,0.276 -0.272,0.516 -0.476,0.725c-0.2,0.208 -0.436,0.376 -0.708,0.5c-0.269,0.124 -0.561,0.184 -0.873,0.184l-1.741,0l0,-4.526Z" style="fill:white;fill-rule:nonzero;"/>
    <rect id="rect7679" x="44.25" y="285.203" width="1.176" height="4.526" style="fill:white;"/>
    <path id="path7681" d="M47.176,285.203l1.092,2.757l1.101,-2.757l1.276,0l-1.909,4.526l-0.936,0l-1.901,-4.526l1.277,0Z" style="fill:white;fill-rule:nonzero;"/>
    <rect id="rect7683" x="51.117" y="285.203" width="1.176" height="4.526" style="fill:white;"/>
    <path id="path7685" d="M54.419,288.732l0.272,0c0.204,0 0.384,-0.032 0.544,-0.096c0.16,-0.064 0.296,-0.152 0.404,-0.264c0.112,-0.112 0.196,-0.244 0.252,-0.4c0.06,-0.152 0.088,-0.32 0.088,-0.504c0,-0.18 -0.032,-0.348 -0.092,-0.504c-0.06,-0.156 -0.144,-0.292 -0.252,-0.405c-0.112,-0.112 -0.244,-0.2 -0.404,-0.264c-0.16,-0.064 -0.34,-0.096 -0.54,-0.096l-0.272,0l0,2.533Zm-1.177,-3.529l1.741,0c0.308,0 0.596,0.064 0.868,0.188c0.268,0.124 0.504,0.288 0.709,0.496c0.2,0.204 0.36,0.444 0.476,0.721c0.116,0.272 0.172,0.56 0.172,0.86c0,0.296 -0.056,0.58 -0.168,0.852c-0.116,0.276 -0.272,0.516 -0.476,0.725c-0.201,0.208 -0.437,0.376 -0.709,0.5c-0.268,0.124 -0.56,0.184 -0.872,0.184l-1.741,0l0,-4.526Z" style="fill:white;fill-rule:nonzero;"/>
    <path id="path7687" d="M59.137,285.203l0,2.461c0,0.132 0.004,0.268 0.012,0.404c0.012,0.14 0.04,0.264 0.092,0.376c0.048,0.112 0.128,0.204 0.236,0.272c0.108,0.072 0.26,0.108 0.456,0.108c0.196,0 0.348,-0.036 0.452,-0.108c0.108,-0.068 0.184,-0.16 0.236,-0.272c0.052,-0.112 0.084,-0.236 0.096,-0.376c0.008,-0.136 0.012,-0.272 0.012,-0.404l0,-2.461l1.173,0l0,2.625c0,0.704 -0.16,1.217 -0.484,1.541c-0.321,0.324 -0.817,0.484 -1.485,0.484c-0.668,0 -1.165,-0.16 -1.489,-0.484c-0.324,-0.324 -0.484,-0.837 -0.484,-1.541l0,-2.625l1.177,0Z" style="fill:white;fill-rule:nonzero;"/>
    <path id="path7689" d="M65.159,288.048l-0.528,-1.505l-0.528,1.505l1.056,0Zm0.312,0.896l-1.68,0l-0.269,0.785l-1.256,0l1.725,-4.526l1.28,0l1.725,4.526l-1.257,0l-0.268,-0.785Z" style="fill:white;fill-rule:nonzero;"/>
    <path id="path7691" d="M68.689,285.203l0,3.529l1.408,0l0,0.997l-2.585,0l0,-4.526l1.177,0Z" style="fill:white;fill-rule:nonzero;"/>
    <rect id="rect7695" x="31.995" y="296.383" width="1.176" height="4.526" style="fill:white;"/>
    <path id="path7697" d="M34.12,300.909l0,-4.526l1.177,0l2.173,2.769l0,-2.769l1.168,0l0,4.526l-1.168,0l-2.173,-2.765l0,2.765l-1.177,0Z" style="fill:white;fill-rule:nonzero;"/>
    <path id="path7699" d="M40.391,296.383l1.092,2.757l1.097,-2.757l1.28,0l-1.908,4.526l-0.937,0l-1.901,-4.526l1.277,0Z" style="fill:white;fill-rule:nonzero;"/>
    <path id="path7701" d="M46.906,297.379l-1.397,0l0,0.757l1.321,0l0,0.996l-1.321,0l0,0.78l1.397,0l0,0.997l-2.573,0l0,-4.526l2.573,0l0,0.996Z" style="fill:white;fill-rule:nonzero;"/>
    <path id="path7703" d="M48.93,298.408l0.221,0c0.232,0 0.412,-0.048 0.536,-0.144c0.124,-0.096 0.184,-0.236 0.184,-0.416c0,-0.181 -0.06,-0.317 -0.184,-0.413c-0.124,-0.096 -0.304,-0.144 -0.536,-0.144l-0.221,0l0,1.117Zm2.585,2.501l-1.464,0l-1.121,-1.741l0,1.741l-1.176,0l0,-4.526l1.829,0c0.252,0 0.472,0.04 0.66,0.112c0.188,0.076 0.344,0.176 0.464,0.304c0.124,0.128 0.216,0.276 0.276,0.444c0.064,0.168 0.092,0.348 0.092,0.541c0,0.344 -0.08,0.624 -0.248,0.836c-0.164,0.212 -0.408,0.36 -0.732,0.436l1.42,1.853Z" style="fill:white;fill-rule:nonzero;"/>
    <path id="path7705" d="M54.493,297.543c-0.128,-0.104 -0.256,-0.18 -0.384,-0.232c-0.128,-0.048 -0.253,-0.076 -0.373,-0.076c-0.152,0 -0.276,0.036 -0.372,0.108c-0.096,0.072 -0.144,0.168 -0.144,0.284c0,0.08 0.024,0.144 0.072,0.197c0.048,0.052 0.108,0.1 0.188,0.136c0.076,0.04 0.164,0.072 0.264,0.1c0.096,0.028 0.196,0.056 0.293,0.088c0.384,0.128 0.664,0.3 0.84,0.512c0.18,0.216 0.268,0.496 0.268,0.84c0,0.232 -0.04,0.44 -0.116,0.628c-0.08,0.189 -0.192,0.349 -0.344,0.485c-0.148,0.132 -0.332,0.236 -0.552,0.312c-0.217,0.072 -0.465,0.108 -0.741,0.108c-0.572,0 -1.1,-0.168 -1.588,-0.508l0.504,-0.949c0.176,0.156 0.348,0.272 0.52,0.348c0.172,0.076 0.344,0.116 0.512,0.116c0.192,0 0.332,-0.044 0.428,-0.132c0.092,-0.088 0.14,-0.188 0.14,-0.3c0,-0.068 -0.012,-0.128 -0.036,-0.18c-0.024,-0.048 -0.064,-0.096 -0.12,-0.136c-0.056,-0.044 -0.128,-0.08 -0.22,-0.116c-0.088,-0.036 -0.196,-0.076 -0.324,-0.12c-0.152,-0.048 -0.3,-0.104 -0.448,-0.16c-0.144,-0.06 -0.276,-0.136 -0.388,-0.232c-0.116,-0.096 -0.208,-0.216 -0.276,-0.36c-0.072,-0.148 -0.108,-0.332 -0.108,-0.557c0,-0.224 0.04,-0.428 0.112,-0.608c0.076,-0.184 0.18,-0.34 0.312,-0.468c0.136,-0.132 0.3,-0.232 0.492,-0.304c0.196,-0.072 0.412,-0.108 0.652,-0.108c0.224,0 0.457,0.032 0.701,0.092c0.244,0.064 0.48,0.152 0.704,0.272l-0.468,0.92Z" style="fill:white;fill-rule:nonzero;"/>
    <path id="path7707" d="M58.458,297.379l-1.4,0l0,0.757l1.32,0l0,0.996l-1.32,0l0,0.78l1.4,0l0,0.997l-2.577,0l0,-4.526l2.577,0l0,0.996Z" style="fill:white;fill-rule:nonzero;"/>
    <path id="path7711" d="M143.249,319.674c0,-3.321 -2.697,-6.018 -6.018,-6.018l-47.146,0c-3.321,0 -6.018,2.697 -6.018,6.018l0,31.59c0,3.322 2.697,6.019 6.018,6.019l47.146,0c3.321,0 6.018,-2.697 6.018,-6.019l0,-31.59Z" style="stroke:rgb(65,76,85);stroke-width:1px;stroke-miterlimit:1.41421;"/>
    <rect id="rect7715" x="25.395" y="349.575" width="1.569" height="6.035" style="fill:white;"/>
    <path id="path7717" d="M28.228,355.61l0,-6.035l1.568,0l2.898,3.69l0,-3.69l1.56,0l0,6.035l-1.56,0l-2.898,-3.69l0,3.69l-1.568,0Z" style="fill:white;fill-rule:nonzero;"/>
    <path id="path7719" d="M37.087,352.344l0.521,0c0.576,0 0.864,-0.252 0.864,-0.752c0,-0.5 -0.288,-0.752 -0.864,-0.752l-0.521,0l0,1.504Zm0,3.266l-1.568,0l0,-6.035l2.497,0c0.676,0 1.196,0.176 1.556,0.529c0.361,0.352 0.541,0.848 0.541,1.488c0,0.64 -0.18,1.137 -0.541,1.489c-0.36,0.352 -0.88,0.528 -1.556,0.528l-0.929,0l0,2.001Z" style="fill:white;fill-rule:nonzero;"/>
    <path id="path7721" d="M42.514,349.575l0,3.282c0,0.176 0.008,0.356 0.02,0.54c0.012,0.184 0.052,0.352 0.12,0.5c0.068,0.148 0.172,0.272 0.316,0.364c0.144,0.092 0.348,0.14 0.608,0.14c0.26,0 0.464,-0.048 0.604,-0.14c0.14,-0.092 0.248,-0.216 0.316,-0.364c0.069,-0.148 0.113,-0.316 0.125,-0.5c0.012,-0.184 0.02,-0.364 0.02,-0.54l0,-3.282l1.56,0l0,3.498c0,0.94 -0.216,1.624 -0.644,2.057c-0.428,0.432 -1.089,0.648 -1.981,0.648c-0.892,0 -1.553,-0.216 -1.985,-0.648c-0.432,-0.433 -0.648,-1.117 -0.648,-2.057l0,-3.498l1.569,0Z" style="fill:white;fill-rule:nonzero;"/>
    <path id="path7723" d="M49.757,350.904l0,4.706l-1.569,0l0,-4.706l-1.289,0l0,-1.329l4.146,0l0,1.329l-1.288,0Z" style="fill:white;fill-rule:nonzero;"/>
    <path id="path7728" d="M98.235,352.593c0,0.24 0.044,0.464 0.136,0.664c0.088,0.204 0.212,0.38 0.368,0.528c0.152,0.152 0.332,0.264 0.54,0.348c0.204,0.084 0.42,0.124 0.653,0.124c0.228,0 0.444,-0.04 0.652,-0.124c0.204,-0.084 0.384,-0.196 0.54,-0.348c0.16,-0.148 0.284,-0.324 0.372,-0.528c0.092,-0.2 0.136,-0.424 0.136,-0.664c0,-0.241 -0.044,-0.461 -0.136,-0.665c-0.088,-0.2 -0.212,-0.376 -0.372,-0.528c-0.156,-0.148 -0.336,-0.264 -0.54,-0.348c-0.208,-0.08 -0.424,-0.124 -0.652,-0.124c-0.233,0 -0.449,0.044 -0.653,0.124c-0.208,0.084 -0.388,0.2 -0.54,0.348c-0.156,0.152 -0.28,0.328 -0.368,0.528c-0.092,0.204 -0.136,0.424 -0.136,0.665Zm-1.641,0c0,-0.449 0.084,-0.865 0.248,-1.253c0.164,-0.384 0.396,-0.72 0.689,-1.008c0.292,-0.289 0.644,-0.517 1.052,-0.677c0.408,-0.164 0.856,-0.244 1.349,-0.244c0.484,0 0.932,0.08 1.34,0.244c0.412,0.16 0.764,0.388 1.061,0.677c0.296,0.288 0.528,0.624 0.692,1.008c0.168,0.388 0.248,0.804 0.248,1.253c0,0.448 -0.08,0.868 -0.248,1.252c-0.164,0.388 -0.396,0.724 -0.692,1.012c-0.297,0.289 -0.649,0.513 -1.061,0.677c-0.408,0.164 -0.856,0.244 -1.34,0.244c-0.493,0 -0.941,-0.08 -1.349,-0.244c-0.408,-0.164 -0.76,-0.388 -1.052,-0.677c-0.293,-0.288 -0.525,-0.624 -0.689,-1.012c-0.164,-0.384 -0.248,-0.804 -0.248,-1.252Z" style="fill:white;fill-rule:nonzero;"/>
    <path id="path7730" d="M105.834,349.579l0,3.278c0,0.176 0.008,0.356 0.02,0.54c0.012,0.184 0.052,0.352 0.12,0.5c0.068,0.148 0.172,0.272 0.316,0.364c0.144,0.092 0.348,0.14 0.608,0.14c0.261,0 0.465,-0.048 0.605,-0.14c0.14,-0.092 0.244,-0.216 0.316,-0.364c0.068,-0.148 0.108,-0.316 0.124,-0.5c0.012,-0.184 0.02,-0.364 0.02,-0.54l0,-3.278l1.561,0l0,3.494c0,0.94 -0.217,1.624 -0.645,2.057c-0.432,0.432 -1.092,0.648 -1.981,0.648c-0.892,0 -1.552,-0.216 -1.984,-0.648c-0.433,-0.433 -0.649,-1.117 -0.649,-2.057l0,-3.494l1.569,0Z" style="fill:white;fill-rule:nonzero;"/>
    <path id="path7732" d="M113.073,350.904l0,4.706l-1.569,0l0,-4.706l-1.284,0l0,-1.325l4.142,0l0,1.325l-1.289,0Z" style="fill:white;fill-rule:nonzero;"/>
    <path id="path7734" d="M116.626,352.344l0.521,0c0.576,0 0.864,-0.248 0.864,-0.752c0,-0.5 -0.288,-0.752 -0.864,-0.752l-0.521,0l0,1.504Zm0,3.266l-1.568,0l0,-6.031l2.497,0c0.676,0 1.196,0.176 1.556,0.529c0.361,0.352 0.541,0.844 0.541,1.484c0,0.64 -0.18,1.137 -0.541,1.489c-0.36,0.352 -0.88,0.528 -1.556,0.528l-0.929,0l0,2.001Z" style="fill:white;fill-rule:nonzero;"/>
    <path id="path7736" d="M122.049,349.579l0,3.278c0,0.176 0.008,0.356 0.02,0.54c0.016,0.184 0.056,0.352 0.12,0.5c0.068,0.148 0.172,0.272 0.316,0.364c0.144,0.092 0.348,0.14 0.608,0.14c0.264,0 0.464,-0.048 0.604,-0.14c0.14,-0.092 0.249,-0.216 0.317,-0.364c0.068,-0.148 0.112,-0.316 0.124,-0.5c0.012,-0.184 0.02,-0.364 0.02,-0.54l0,-3.278l1.56,0l0,3.494c0,0.94 -0.216,1.624 -0.644,2.057c-0.428,0.432 -1.088,0.648 -1.981,0.648c-0.888,0 -1.552,-0.216 -1.985,-0.648c-0.432,-0.433 -0.648,-1.117 -0.648,-2.057l0,-3.494l1.569,0Z" style="fill:white;fill-rule:nonzero;"/>
    <path id="path7738" d="M129.292,350.904l0,4.706l-1.569,0l0,-4.706l-1.288,0l0,-1.325l4.141,0l0,1.325l-1.284,0Z" style="fill:white;fill-rule:nonzero;"/>
    <path id="path7743" d="M22.714,315.474l0,3.529l1.412,0l0,0.997l-2.589,0l0,-4.526l1.177,0Z" style="fill:rgb(140,140,140);fill-rule:nonzero;"/>
    <path id="path7747" d="M51.714,317.499l0.224,0c0.232,0 0.408,-0.048 0.532,-0.144c0.124,-0.096 0.188,-0.236 0.188,-0.416c0,-0.181 -0.064,-0.317 -0.188,-0.413c-0.124,-0.096 -0.3,-0.144 -0.532,-0.144l-0.224,0l0,1.117Zm2.589,2.501l-1.465,0l-1.124,-1.741l0,1.741l-1.177,0l0,-4.526l1.833,0c0.252,0 0.472,0.04 0.66,0.112c0.188,0.076 0.34,0.176 0.464,0.304c0.12,0.128 0.213,0.276 0.277,0.444c0.06,0.168 0.092,0.348 0.092,0.541c0,0.344 -0.084,0.624 -0.249,0.836c-0.168,0.212 -0.412,0.36 -0.736,0.436l1.425,1.853Z" style="fill:rgb(140,140,140);fill-rule:nonzero;"/>
    <path id="path7751" d="M99.714,315.474l0,3.529l1.412,0l0,0.997l-2.589,0l0,-4.526l1.177,0Z" style="fill:rgb(140,140,140);fill-rule:nonzero;"/>
    <path id="path7755" d="M125.714,317.499l0.224,0c0.232,0 0.408,-0.048 0.532,-0.144c0.124,-0.096 0.188,-0.236 0.188,-0.416c0,-0.181 -0.064,-0.317 -0.188,-0.413c-0.124,-0.096 -0.3,-0.144 -0.532,-0.144l-0.224,0l0,1.117Zm2.589,2.501l-1.465,0l-1.124,-1.741l0,1.741l-1.177,0l0,-4.526l1.833,0c0.252,0 0.472,0.04 0.66,0.112c0.188,0.076 0.34,0.176 0.464,0.304c0.12,0.128 0.213,0.276 0.277,0.444c0.06,0.168 0.092,0.348 0.092,0.541c0,0.344 -0.084,0.624 -0.249,0.836c-0.168,0.212 -0.412,0.36 -0.736,0.436l1.425,1.853Z" style="fill:rgb(140,140,140);fill-rule:nonzero;"/>
    <path id="path7759" d="M134.026,230.453c0,-1.354 -1.099,-2.452 -2.451,-2.452l-113.098,0c-1.353,0 -2.451,1.098 -2.451,2.452l0,25.095c0,1.354 1.098,2.452 2.451,2.452l113.098,0c1.352,0 2.451,-1.098 2.451,-2.452l0,-25.095Z" style="stroke:rgb(13,13,13);stroke-width:0.99px;stroke-linecap:round;stroke-linejoin:round;stroke-miterlimit:1.5;"/>
    <path id="path7763" d="M17.533,229.188l115.293,0" style="fill:none;stroke:rgb(64,64,64);stroke-opacity:0.466667;stroke-width:0.5px;stroke-linecap:round;stroke-linejoin:round;stroke-miterlimit:1.5;"/>
    <path id="path7767" d="M17.533,256.812l115.293,0" style="fill:none;stroke:rgb(64,64,64);stroke-opacity:0.466667;stroke-width:0.5px;stroke-linecap:round;stroke-linejoin:round;stroke-miterlimit:1.5;"/>
    <path id="path7771" d="M133.302,231.126c0,-1.28 -1.04,-2.318 -2.319,-2.318l-111.879,0c-1.279,0 -2.319,1.038 -2.319,2.318l0,23.726c0,1.28 1.04,2.318 2.319,2.318l111.879,0c1.279,0 2.319,-1.038 2.319,-2.318l0,-23.726Z" style="fill:none;stroke:rgb(128,128,128);stroke-width:0.99px;stroke-linecap:round;stroke-linejoin:round;stroke-miterlimit:1.5;"/>
    <path id="path7777" d="M140.904,78.662c2.737,-4.742 1.664,-10.824 -2.534,-14.346c-4.193,-3.521 -10.372,-3.521 -14.566,0c-4.197,3.522 -5.27,9.604 -2.533,14.346l9.816,-5.666l9.817,5.666Z" style="fill:none;stroke:rgb(204,204,204);stroke-width:1px;stroke-linecap:round;"/>
    <path id="path7780" d="M140.531,79.859l0.024,4.409" style="fill:rgb(204,204,204);fill-rule:nonzero;stroke:rgb(204,204,204);stroke-width:1px;stroke-linecap:round;"/>
    <path id="path7783" d="M142.748,82.032l-4.41,0.02" style="fill:rgb(204,204,204);fill-rule:nonzero;stroke:rgb(204,204,204);stroke-width:1px;stroke-linecap:round;"/>
    <path id="path7786" d="M124.429,81.908l-4.414,0.02" style="fill:rgb(204,204,204);fill-rule:nonzero;stroke:rgb(204,204,204);stroke-width:1px;stroke-linecap:round;"/>
    <path id="path7789" d="M131.087,73l-0.024,-13.31" style="fill:none;stroke:rgb(204,204,204);stroke-width:1px;stroke-linecap:round;"/>
    <path id="path7794" d="M28.903,78.662c2.737,-4.742 1.665,-10.824 -2.533,-14.346c-4.194,-3.521 -10.372,-3.521 -14.566,0c-4.198,3.522 -5.27,9.604 -2.533,14.346l9.816,-5.666l9.816,5.666Z" style="fill:none;stroke:rgb(204,204,204);stroke-width:1px;stroke-linecap:round;"/>
    <path id="path7797" d="M28.531,79.859l0.024,4.409" style="fill:rgb(204,204,204);fill-rule:nonzero;stroke:rgb(204,204,204);stroke-width:1px;stroke-linecap:round;"/>
    <path id="path7800" d="M30.748,82.032l-4.41,0.02" style="fill:rgb(204,204,204);fill-rule:nonzero;stroke:rgb(204,204,204);stroke-width:1px;stroke-linecap:round;"/>
    <path id="path7803" d="M12.428,81.908l-4.414,0.02" style="fill:rgb(204,204,204);fill-rule:nonzero;stroke:rgb(204,204,204);stroke-width:1px;stroke-linecap:round;"/>
    <path id="path7806" d="M19.087,73l-0.024,-13.31" style="fill:none;stroke:rgb(204,204,204);stroke-width:1px;stroke-linecap:round;"/>
    <g>
      <g>
        <path id="path7809" d="M61.531,213.859l0.024,4.41" style="fill:rgb(204,204,204);fill-rule:nonzero;stroke:rgb(204,204,204);stroke-width:1px;stroke-linecap:round;"/>
        <path id="path7812" d="M63.748,216.032l-4.41,0.02" style="fill:rgb(204,204,204);fill-rule:nonzero;stroke:rgb(204,204,204);stroke-width:1px;stroke-linecap:round;"/>
        <path id="path7815" d="M45.429,215.908l-4.414,0.02" style="fill:rgb(204,204,204);fill-rule:nonzero;stroke:rgb(204,204,204);stroke-width:1px;stroke-linecap:round;"/>
        <path id="path7818" d="M61.904,212.662c2.737,-4.742 1.664,-10.824 -2.533,-14.346c-4.194,-3.521 -10.373,-3.521 -14.567,0c-4.197,3.522 -5.27,9.604 -2.533,14.346l9.816,-5.666l9.817,5.666Z" style="fill:none;stroke:rgb(204,204,204);stroke-width:1px;stroke-linecap:round;"/>
      </g>
      <path id="path7821" d="M52.087,207l-0.024,-13.31" style="fill:none;stroke:rgb(204,204,204);stroke-width:1px;stroke-linecap:round;"/>
    </g>
    <g>
      <g>
        <path id="path7826" d="M107.904,212.662c2.737,-4.742 1.664,-10.824 -2.534,-14.346c-4.193,-3.521 -10.372,-3.521 -14.566,0c-4.197,3.522 -5.27,9.604 -2.533,14.346l9.816,-5.666l9.817,5.666Z" style="fill:none;stroke:rgb(204,204,204);stroke-width:1px;stroke-linecap:round;"/>
        <path id="path7832" d="M108.044,214.064l0.024,4.41" style="fill:rgb(204,204,204);fill-rule:nonzero;stroke:rgb(204,204,204);stroke-width:1px;stroke-linecap:round;"/>
        <path id="path7835" d="M110.261,216.237l-4.41,0.02" style="fill:rgb(204,204,204);fill-rule:nonzero;stroke:rgb(204,204,204);stroke-width:1px;stroke-linecap:round;"/>
        <path id="path7838" d="M91.942,216.113l-4.414,0.02" style="fill:rgb(204,204,204);fill-rule:nonzero;stroke:rgb(204,204,204);stroke-width:1px;stroke-linecap:round;"/>
      </g>
      <path id="path7829" d="M98.087,207l-0.024,-13.31" style="fill:none;stroke:rgb(204,204,204);stroke-width:1px;stroke-linecap:round;"/>
    </g>
    <path id="path7843" d="M19.546,116.177l-0.616,-1.757l-0.612,1.757l1.228,0Zm0.364,1.044l-1.957,0l-0.316,0.917l-1.464,0l2.009,-5.278l1.5,0l2.009,5.278l-1.465,0l-0.316,-0.917Z" style="fill:white;fill-rule:nonzero;"/>
    <path id="path7848" d="M130.894,117.21l0.3,0c0.348,0 0.592,-0.044 0.744,-0.132c0.148,-0.088 0.224,-0.232 0.224,-0.428c0,-0.196 -0.076,-0.336 -0.224,-0.428c-0.152,-0.088 -0.396,-0.132 -0.744,-0.132l-0.3,0l0,1.12Zm0,-2.141l0.252,0c0.428,0 0.644,-0.172 0.644,-0.512c0,-0.34 -0.216,-0.512 -0.644,-0.512l-0.252,0l0,1.024Zm-1.373,-2.072l2.045,0c0.484,0 0.852,0.116 1.105,0.352c0.252,0.232 0.38,0.568 0.38,1.004c0,0.268 -0.048,0.488 -0.144,0.664c-0.096,0.173 -0.24,0.321 -0.437,0.445c0.197,0.036 0.361,0.092 0.501,0.172c0.136,0.076 0.248,0.172 0.336,0.28c0.084,0.112 0.148,0.24 0.184,0.38c0.036,0.14 0.056,0.288 0.056,0.448c0,0.248 -0.044,0.468 -0.128,0.656c-0.088,0.193 -0.208,0.353 -0.364,0.485c-0.156,0.132 -0.348,0.228 -0.573,0.296c-0.224,0.064 -0.476,0.096 -0.756,0.096l-2.205,0l0,-5.278Z" style="fill:white;fill-rule:nonzero;"/>
    <path id="path7853" d="M55.462,232.044l0,21.387" style="fill:none;stroke:rgb(89,89,89);stroke-width:1px;stroke-linecap:round;stroke-linejoin:round;stroke-miterlimit:1.5;"/>
  </g>
</svg>