<?xml version="1.0" encoding="UTF-8" standalone="no"?>
<!DOCTYPE svg PUBLIC "-//W3C//DTD SVG 1.1//EN" "http://www.w3.org/Graphics/SVG/1.1/DTD/svg11.dtd">
<svg width="150px" height="380px" version="1.1" xmlns="http://www.w3.org/2000/svg" xmlns:xlink="http://www.w3.org/1999/xlink" xml:space="preserve" xmlns:serif="http://www.serif.com/" style="fill-rule:evenodd;clip-rule:evenodd;">
    <g id="Panel" transform="matrix(1,0,0,1,55.1709,-56.7292)">
        <g id="rect9931" transform="matrix(3.78941,0,0,3.78266,-55.3752,-686.609)">
            <rect x="0.054" y="196.512" width="39.584" height="100.458" style="fill:rgb(26,26,26);"/>
        </g>
        <g transform="matrix(1,0,0,1.06059,7.10543e-15,-8.01229)">
            <g transform="matrix(0.227586,0,0,0.696549,-53.8088,83.6879)">
                <path d="M150,57.256c0,-6.212 -16.371,-11.256 -36.537,-11.256l-71.926,0c-20.166,0 -36.537,5.044 -36.537,11.256l0,61.257c0,6.213 16.371,11.256 36.537,11.256l71.926,0c20.166,0 36.537,-5.043 36.537,-11.256l0,-61.257Z" style="fill:rgb(89,55,37);"/>
            </g>
            <g transform="matrix(0.227586,0,0,0.696549,58.1912,83.6879)">
                <path d="M150,57.256c0,-6.212 -16.371,-11.256 -36.537,-11.256l-71.926,0c-20.166,0 -36.537,5.044 -36.537,11.256l0,61.257c0,6.213 16.371,11.256 36.537,11.256l71.926,0c20.166,0 36.537,-5.043 36.537,-11.256l0,-61.257Z" style="fill:rgb(89,55,37);"/>
            </g>
            <g transform="matrix(0.565517,0,0,0.0586123,-23.4985,139.472)">
                <path d="M150,67.108c0,-11.65 -1.04,-21.108 -2.32,-21.108l-140.36,0c-1.28,0 -2.32,9.458 -2.32,21.108l0,41.553c0,11.65 1.04,21.108 2.32,21.108l140.36,0c1.28,0 2.32,-9.458 2.32,-21.108l0,-41.553Z" style="fill:rgb(89,55,37);"/>
            </g>
        </g>
        <g transform="matrix(1,0,0,1,0,-3)">
            <g transform="matrix(0.0344828,0,0,0.284179,-19.8433,217.096)">
                <path d="M150,50.433c0,-2.446 -16.371,-4.433 -36.537,-4.433l-71.926,0c-20.166,0 -36.537,1.987 -36.537,4.433l0,74.903c0,2.447 16.371,4.433 36.537,4.433l71.926,0c20.166,0 36.537,-1.986 36.537,-4.433l0,-74.903Z" style="fill:rgb(37,52,89);"/>
            </g>
            <g transform="matrix(0.468966,0,0,0.352599,-52.5157,235.754)">
                <path d="M150,66.942c0,-11.558 -7.055,-20.942 -15.746,-20.942l-113.508,0c-8.691,0 -15.746,9.384 -15.746,20.942l0,41.885c0,11.558 7.055,20.942 15.746,20.942l113.508,0c8.691,0 15.746,-9.384 15.746,-20.942l0,-41.885Z" style="fill:rgb(37,52,89);"/>
            </g>
        </g>
        <g transform="matrix(1,0,0,1,73,-3)">
            <g transform="matrix(0.0344828,0,0,0.284179,-19.8433,217.096)">
                <path d="M150,50.433c0,-2.446 -16.371,-4.433 -36.537,-4.433l-71.926,0c-20.166,0 -36.537,1.987 -36.537,4.433l0,74.903c0,2.447 16.371,4.433 36.537,4.433l71.926,0c20.166,0 36.537,-1.986 36.537,-4.433l0,-74.903Z" style="fill:rgb(37,89,57);"/>
            </g>
            <g transform="matrix(0.468966,0,0,0.352599,-52.5157,235.754)">
                <path d="M150,66.942c0,-11.558 -7.055,-20.942 -15.746,-20.942l-113.508,0c-8.691,0 -15.746,9.384 -15.746,20.942l0,41.885c0,11.558 7.055,20.942 15.746,20.942l113.508,0c8.691,0 15.746,-9.384 15.746,-20.942l0,-41.885Z" style="fill:rgb(37,89,57);"/>
            </g>
        </g>
        <g transform="matrix(4.00166,0,0,4.00166,4.53391,180.91)">
            <g id="text9293-4">
                <path d="M1.244,-1.004c-0.091,-0.111 -0.203,-0.166 -0.336,-0.166c-0.059,0 -0.113,0.011 -0.163,0.032c-0.05,0.021 -0.093,0.05 -0.129,0.087c-0.036,0.037 -0.064,0.08 -0.085,0.131c-0.021,0.051 -0.031,0.105 -0.031,0.164c0,0.06 0.01,0.115 0.031,0.166c0.021,0.051 0.049,0.095 0.086,0.132c0.037,0.037 0.08,0.067 0.129,0.088c0.049,0.021 0.103,0.032 0.16,0.032c0.125,0 0.238,-0.053 0.338,-0.16l0,0.464l-0.04,0.014c-0.06,0.021 -0.116,0.037 -0.168,0.047c-0.052,0.01 -0.103,0.015 -0.154,0.015c-0.104,0 -0.204,-0.02 -0.299,-0.059c-0.095,-0.039 -0.179,-0.095 -0.252,-0.166c-0.073,-0.071 -0.131,-0.156 -0.175,-0.254c-0.044,-0.098 -0.066,-0.205 -0.066,-0.321c0,-0.116 0.022,-0.222 0.065,-0.319c0.043,-0.097 0.101,-0.18 0.174,-0.25c0.073,-0.07 0.157,-0.125 0.253,-0.164c0.096,-0.039 0.197,-0.059 0.302,-0.059c0.06,0 0.119,0.006 0.177,0.019c0.058,0.013 0.119,0.032 0.183,0.059l0,0.468Z" style="fill:white;fill-rule:nonzero;"/>
                <path d="M1.884,-1.508l0,0.82c0,0.044 0.002,0.089 0.005,0.135c0.003,0.046 0.013,0.088 0.03,0.125c0.017,0.037 0.043,0.068 0.079,0.091c0.036,0.023 0.087,0.035 0.152,0.035c0.065,0 0.116,-0.012 0.151,-0.035c0.035,-0.023 0.062,-0.054 0.079,-0.091c0.017,-0.037 0.028,-0.079 0.031,-0.125c0.003,-0.046 0.005,-0.091 0.005,-0.135l0,-0.82l0.39,0l0,0.874c0,0.235 -0.054,0.406 -0.161,0.514c-0.107,0.108 -0.272,0.162 -0.495,0.162c-0.223,0 -0.388,-0.054 -0.496,-0.162c-0.108,-0.108 -0.162,-0.279 -0.162,-0.514l0,-0.874l0.392,0Z" style="fill:white;fill-rule:nonzero;"/>
                <path d="M3.694,-1.176l0,1.176l-0.392,0l0,-1.176l-0.322,0l0,-0.332l1.036,0l0,0.332l-0.322,0Z" style="fill:white;fill-rule:nonzero;"/>
                <path d="M4.518,-0.754c0,0.06 0.011,0.115 0.034,0.166c0.023,0.051 0.053,0.095 0.092,0.132c0.039,0.037 0.084,0.066 0.135,0.087c0.051,0.021 0.106,0.031 0.163,0.031c0.057,0 0.112,-0.01 0.163,-0.031c0.051,-0.021 0.097,-0.05 0.136,-0.087c0.039,-0.037 0.07,-0.081 0.093,-0.132c0.023,-0.051 0.034,-0.106 0.034,-0.166c0,-0.06 -0.011,-0.115 -0.034,-0.166c-0.023,-0.051 -0.054,-0.095 -0.093,-0.132c-0.039,-0.037 -0.085,-0.066 -0.136,-0.087c-0.051,-0.021 -0.106,-0.031 -0.163,-0.031c-0.057,0 -0.112,0.01 -0.163,0.031c-0.051,0.021 -0.096,0.05 -0.135,0.087c-0.039,0.037 -0.069,0.081 -0.092,0.132c-0.023,0.051 -0.034,0.106 -0.034,0.166Zm-0.41,0c0,-0.112 0.021,-0.216 0.062,-0.313c0.041,-0.097 0.099,-0.181 0.172,-0.253c0.073,-0.072 0.161,-0.128 0.263,-0.169c0.102,-0.041 0.214,-0.061 0.337,-0.061c0.121,0 0.233,0.02 0.336,0.061c0.103,0.041 0.191,0.097 0.265,0.169c0.074,0.072 0.132,0.156 0.173,0.253c0.041,0.097 0.062,0.201 0.062,0.313c0,0.112 -0.021,0.216 -0.062,0.313c-0.041,0.097 -0.099,0.181 -0.173,0.253c-0.074,0.072 -0.162,0.128 -0.265,0.169c-0.103,0.041 -0.215,0.061 -0.336,0.061c-0.123,0 -0.235,-0.02 -0.337,-0.061c-0.102,-0.041 -0.19,-0.097 -0.263,-0.169c-0.073,-0.072 -0.131,-0.156 -0.172,-0.253c-0.041,-0.097 -0.062,-0.201 -0.062,-0.313Z" style="fill:white;fill-rule:nonzero;"/>
                <path d="M6.89,-1.176l-0.472,0l0,0.252l0.43,0l0,0.332l-0.43,0l0,0.592l-0.392,0l0,-1.508l0.864,0l0,0.332Z" style="fill:white;fill-rule:nonzero;"/>
                <path d="M7.988,-1.176l-0.472,0l0,0.252l0.43,0l0,0.332l-0.43,0l0,0.592l-0.392,0l0,-1.508l0.864,0l0,0.332Z" style="fill:white;fill-rule:nonzero;"/>
            </g>
        </g>
        <g id="path8216-1" transform="matrix(5.5964,0,0,-5.5964,-52.4377,-1256.61)">
            <path d="M18.227,-252.754c1.469,2.545 0.894,5.809 -1.357,7.698c-2.251,1.888 -5.566,1.888 -7.817,0c-2.251,-1.889 -2.826,-5.153 -1.357,-7.698" style="fill:none;stroke:rgb(204,204,204);stroke-width:0.36px;"/>
        </g>
        <g id="path9488-2-9" transform="matrix(4.00166,0,0,4.00166,-42.4562,-853.534)">
            <circle cx="8.361" cy="255.07" r="0.926" style="fill:none;stroke:rgb(204,204,204);stroke-width:0.53px;"/>
        </g>
        <g id="path9488-2-6-0" transform="matrix(4.00166,0,0,4.00166,-21.4562,-853.534)">
            <circle cx="17.802" cy="254.942" r="0.926" style="fill:rgb(204,204,204);stroke:rgb(204,204,204);stroke-width:0.53px;"/>
        </g>
        <g transform="matrix(4.00166,0,0,4.00166,-42.712,246.806)">
            <g id="text9293-41" serif:id="text9293-4">
                <path d="M0.55,-0.834l0.074,0c0.077,0 0.137,-0.016 0.178,-0.048c0.041,-0.032 0.062,-0.078 0.062,-0.138c0,-0.06 -0.021,-0.106 -0.062,-0.138c-0.041,-0.032 -0.101,-0.048 -0.178,-0.048l-0.074,0l0,0.372Zm0.862,0.834l-0.488,0l-0.374,-0.58l0,0.58l-0.392,0l0,-1.508l0.61,0c0.084,0 0.157,0.012 0.22,0.037c0.063,0.025 0.114,0.058 0.155,0.101c0.041,0.043 0.071,0.092 0.092,0.148c0.021,0.056 0.031,0.116 0.031,0.18c0,0.115 -0.028,0.208 -0.083,0.279c-0.055,0.071 -0.137,0.12 -0.245,0.145l0.474,0.618Z" style="fill:white;fill-rule:nonzero;"/>
                <path d="M2.434,-1.176l-0.466,0l0,0.252l0.44,0l0,0.332l-0.44,0l0,0.26l0.466,0l0,0.332l-0.858,0l0,-1.508l0.858,0l0,0.332Z" style="fill:white;fill-rule:nonzero;"/>
                <path d="M3.544,-1.122c-0.043,-0.035 -0.085,-0.06 -0.128,-0.077c-0.043,-0.017 -0.084,-0.025 -0.124,-0.025c-0.051,0 -0.092,0.012 -0.124,0.036c-0.032,0.024 -0.048,0.055 -0.048,0.094c0,0.027 0.008,0.049 0.024,0.066c0.016,0.017 0.037,0.032 0.063,0.045c0.026,0.013 0.055,0.024 0.088,0.033c0.033,0.009 0.065,0.019 0.097,0.03c0.128,0.043 0.222,0.1 0.281,0.171c0.059,0.071 0.089,0.164 0.089,0.279c0,0.077 -0.013,0.147 -0.039,0.21c-0.026,0.063 -0.064,0.116 -0.114,0.161c-0.05,0.045 -0.111,0.079 -0.184,0.104c-0.073,0.025 -0.155,0.037 -0.247,0.037c-0.191,0 -0.367,-0.057 -0.53,-0.17l0.168,-0.316c0.059,0.052 0.117,0.091 0.174,0.116c0.057,0.025 0.114,0.038 0.17,0.038c0.064,0 0.112,-0.015 0.143,-0.044c0.031,-0.029 0.047,-0.063 0.047,-0.1c0,-0.023 -0.004,-0.042 -0.012,-0.059c-0.008,-0.017 -0.021,-0.032 -0.04,-0.046c-0.019,-0.014 -0.043,-0.027 -0.073,-0.039c-0.03,-0.012 -0.066,-0.025 -0.109,-0.04c-0.051,-0.016 -0.1,-0.034 -0.149,-0.053c-0.049,-0.019 -0.092,-0.045 -0.13,-0.077c-0.038,-0.032 -0.069,-0.072 -0.092,-0.121c-0.023,-0.049 -0.035,-0.11 -0.035,-0.185c0,-0.075 0.012,-0.142 0.037,-0.203c0.025,-0.061 0.059,-0.113 0.104,-0.156c0.045,-0.043 0.099,-0.077 0.164,-0.101c0.065,-0.024 0.137,-0.036 0.217,-0.036c0.075,0 0.153,0.01 0.234,0.031c0.081,0.021 0.159,0.051 0.234,0.091l-0.156,0.306Z" style="fill:white;fill-rule:nonzero;"/>
                <path d="M4.35,-0.754c0,0.06 0.011,0.115 0.034,0.166c0.023,0.051 0.053,0.095 0.092,0.132c0.039,0.037 0.084,0.066 0.135,0.087c0.051,0.021 0.106,0.031 0.163,0.031c0.057,0 0.112,-0.01 0.163,-0.031c0.051,-0.021 0.097,-0.05 0.136,-0.087c0.039,-0.037 0.07,-0.081 0.093,-0.132c0.023,-0.051 0.034,-0.106 0.034,-0.166c0,-0.06 -0.011,-0.115 -0.034,-0.166c-0.023,-0.051 -0.054,-0.095 -0.093,-0.132c-0.039,-0.037 -0.085,-0.066 -0.136,-0.087c-0.051,-0.021 -0.106,-0.031 -0.163,-0.031c-0.057,0 -0.112,0.01 -0.163,0.031c-0.051,0.021 -0.096,0.05 -0.135,0.087c-0.039,0.037 -0.069,0.081 -0.092,0.132c-0.023,0.051 -0.034,0.106 -0.034,0.166Zm-0.41,0c0,-0.112 0.021,-0.216 0.062,-0.313c0.041,-0.097 0.099,-0.181 0.172,-0.253c0.073,-0.072 0.161,-0.128 0.263,-0.169c0.102,-0.041 0.214,-0.061 0.337,-0.061c0.121,0 0.233,0.02 0.336,0.061c0.103,0.041 0.191,0.097 0.265,0.169c0.074,0.072 0.132,0.156 0.173,0.253c0.041,0.097 0.062,0.201 0.062,0.313c0,0.112 -0.021,0.216 -0.062,0.313c-0.041,0.097 -0.099,0.181 -0.173,0.253c-0.074,0.072 -0.162,0.128 -0.265,0.169c-0.103,0.041 -0.215,0.061 -0.336,0.061c-0.123,0 -0.235,-0.02 -0.337,-0.061c-0.102,-0.041 -0.19,-0.097 -0.263,-0.169c-0.073,-0.072 -0.131,-0.156 -0.172,-0.253c-0.041,-0.097 -0.062,-0.201 -0.062,-0.313Z" style="fill:white;fill-rule:nonzero;"/>
                <path d="M5.858,0l0,-1.508l0.392,0l0.724,0.922l0,-0.922l0.39,0l0,1.508l-0.39,0l-0.724,-0.922l0,0.922l-0.392,0Z" style="fill:white;fill-rule:nonzero;"/>
                <path d="M8.504,-0.56l-0.176,-0.502l-0.176,0.502l0.352,0Zm0.104,0.298l-0.56,0l-0.09,0.262l-0.418,0l0.574,-1.508l0.428,0l0.574,1.508l-0.418,0l-0.09,-0.262Z" style="fill:white;fill-rule:nonzero;"/>
                <path d="M9.288,0l0,-1.508l0.392,0l0.724,0.922l0,-0.922l0.39,0l0,1.508l-0.39,0l-0.724,-0.922l0,0.922l-0.392,0Z" style="fill:white;fill-rule:nonzero;"/>
                <path d="M12.216,-1.004c-0.091,-0.111 -0.203,-0.166 -0.336,-0.166c-0.059,0 -0.113,0.011 -0.163,0.032c-0.05,0.021 -0.093,0.05 -0.129,0.087c-0.036,0.037 -0.064,0.08 -0.085,0.131c-0.021,0.051 -0.031,0.105 -0.031,0.164c0,0.06 0.01,0.115 0.031,0.166c0.021,0.051 0.049,0.095 0.086,0.132c0.037,0.037 0.08,0.067 0.129,0.088c0.049,0.021 0.103,0.032 0.16,0.032c0.125,0 0.238,-0.053 0.338,-0.16l0,0.464l-0.04,0.014c-0.06,0.021 -0.116,0.037 -0.168,0.047c-0.052,0.01 -0.103,0.015 -0.154,0.015c-0.104,0 -0.204,-0.02 -0.299,-0.059c-0.095,-0.039 -0.179,-0.095 -0.252,-0.166c-0.073,-0.071 -0.131,-0.156 -0.175,-0.254c-0.044,-0.098 -0.066,-0.205 -0.066,-0.321c0,-0.116 0.022,-0.222 0.065,-0.319c0.043,-0.097 0.101,-0.18 0.174,-0.25c0.073,-0.07 0.157,-0.125 0.253,-0.164c0.096,-0.039 0.197,-0.059 0.302,-0.059c0.06,0 0.119,0.006 0.177,0.019c0.058,0.013 0.119,0.032 0.183,0.059l0,0.468Z" style="fill:white;fill-rule:nonzero;"/>
                <path d="M13.322,-1.176l-0.466,0l0,0.252l0.44,0l0,0.332l-0.44,0l0,0.26l0.466,0l0,0.332l-0.858,0l0,-1.508l0.858,0l0,0.332Z" style="fill:white;fill-rule:nonzero;"/>
            </g>
        </g>
        <g transform="matrix(1,0,0,1,-16,-5)">
            <g id="path8216-11" serif:id="path8216-1" transform="matrix(4.00166,0,0,-4.00166,-52.7265,-781.465)">
                <path d="M18.227,-252.754c1.469,2.545 0.894,5.809 -1.357,7.698c-2.251,1.888 -5.566,1.888 -7.817,0c-2.251,-1.889 -2.826,-5.153 -1.357,-7.698" style="fill:none;stroke:rgb(204,204,204);stroke-width:0.5px;"/>
            </g>
            <g id="path9488-2-91" serif:id="path9488-2-9" transform="matrix(4.00166,0,0,4.00166,-52.4562,-781.465)">
                <circle cx="8.361" cy="255.07" r="0.926" style="fill:none;stroke:rgb(204,204,204);stroke-width:0.53px;"/>
            </g>
            <g id="path9488-2-6-01" serif:id="path9488-2-6-0" transform="matrix(4.00166,0,0,4.00166,-52.4562,-781.465)">
                <circle cx="17.802" cy="254.942" r="0.926" style="fill:rgb(204,204,204);stroke:rgb(204,204,204);stroke-width:0.53px;"/>
            </g>
        </g>
        <g transform="matrix(1,0,0,1,57,-5)">
            <g id="path8216-12" serif:id="path8216-1" transform="matrix(4.00166,0,0,-4.00166,-52.7265,-781.465)">
                <path d="M18.227,-252.754c1.469,2.545 0.894,5.809 -1.357,7.698c-2.251,1.888 -5.566,1.888 -7.817,0c-2.251,-1.889 -2.826,-5.153 -1.357,-7.698" style="fill:none;stroke:rgb(204,204,204);stroke-width:0.5px;"/>
            </g>
            <g id="path9488-2-92" serif:id="path9488-2-9" transform="matrix(4.00166,0,0,4.00166,-52.4562,-781.465)">
                <circle cx="8.361" cy="255.07" r="0.926" style="fill:none;stroke:rgb(204,204,204);stroke-width:0.53px;"/>
            </g>
            <g id="path9488-2-6-02" serif:id="path9488-2-6-0" transform="matrix(4.00166,0,0,4.00166,-52.4562,-781.465)">
                <circle cx="17.802" cy="254.942" r="0.926" style="fill:rgb(204,204,204);stroke:rgb(204,204,204);stroke-width:0.53px;"/>
            </g>
        </g>
        <g transform="matrix(1.05877,0,0,1.05877,-15.8739,95.2883)">
            <g id="text7967-9-5">
                <path d="M0.813,0l0,-4.828l1.249,0l0,0.91c0.381,-0.68 0.924,-1.02 1.627,-1.02c0.364,0 0.663,0.089 0.897,0.268c0.235,0.179 0.378,0.43 0.431,0.752c0.451,-0.68 0.997,-1.02 1.636,-1.02c0.882,0 1.323,0.487 1.323,1.46l0,3.478l-1.248,0l0,-3.052c0,-0.571 -0.191,-0.857 -0.572,-0.857c-0.39,0 -0.77,0.281 -1.139,0.844l0,3.065l-1.249,0l0,-3.052c0,-0.574 -0.192,-0.861 -0.576,-0.861c-0.384,0 -0.76,0.282 -1.13,0.848l0,3.065l-1.249,0Z" style="fill:white;fill-rule:nonzero;"/>
                <path d="M11.912,-0.519c-0.434,0.419 -0.899,0.629 -1.394,0.629c-0.422,0 -0.765,-0.129 -1.029,-0.387c-0.264,-0.258 -0.396,-0.592 -0.396,-1.003c0,-0.533 0.213,-0.944 0.64,-1.233c0.426,-0.289 1.037,-0.433 1.831,-0.433l0.348,0l0,-0.44c0,-0.501 -0.286,-0.752 -0.858,-0.752c-0.507,0 -1.02,0.144 -1.539,0.431l0,-0.897c0.589,-0.223 1.173,-0.334 1.75,-0.334c1.264,0 1.895,0.503 1.895,1.508l0,2.137c0,0.378 0.122,0.567 0.365,0.567c0.044,0 0.102,-0.005 0.172,-0.017l0.031,0.73c-0.276,0.082 -0.519,0.123 -0.73,0.123c-0.534,0 -0.877,-0.21 -1.029,-0.629l-0.057,0Zm0,-0.699l0,-0.981l-0.308,0c-0.841,0 -1.262,0.264 -1.262,0.792c0,0.179 0.061,0.329 0.182,0.451c0.122,0.121 0.272,0.182 0.451,0.182c0.305,0 0.617,-0.148 0.937,-0.444Z" style="fill:white;fill-rule:nonzero;"/>
                <path d="M14.84,0l0,-4.828l1.302,0l0,0.91c0.425,-0.68 0.973,-1.02 1.644,-1.02c0.431,0 0.771,0.136 1.02,0.409c0.249,0.273 0.374,0.645 0.374,1.117l0,3.412l-1.301,0l0,-3.091c0,-0.548 -0.182,-0.822 -0.546,-0.822c-0.413,0 -0.81,0.291 -1.191,0.875l0,3.038l-1.302,0Z" style="fill:white;fill-rule:nonzero;"/>
                <path d="M20.754,0l0,-4.828l1.302,0l0,4.828l-1.302,0Zm0,-5.641l0,-1.087l1.302,0l0,1.087l-1.302,0Z" style="fill:white;fill-rule:nonzero;"/>
                <path d="M23.819,0l0,-4.015l-0.664,0l0,-0.813l0.664,0l0,-0.347c0,-1.252 0.594,-1.878 1.781,-1.878c0.384,0 0.78,0.056 1.187,0.167l0,0.88c-0.369,-0.156 -0.701,-0.233 -0.994,-0.233c-0.448,0 -0.673,0.338 -0.673,1.015l0,0.396l1.223,0l0,0.813l-1.223,0l0,4.015l-1.301,0Z" style="fill:white;fill-rule:nonzero;"/>
                <path d="M29.443,0.11c-0.754,0 -1.352,-0.228 -1.796,-0.684c-0.444,-0.456 -0.667,-1.069 -0.667,-1.84c0,-0.78 0.224,-1.395 0.671,-1.847c0.447,-0.451 1.055,-0.677 1.823,-0.677c0.771,0 1.38,0.226 1.827,0.677c0.447,0.452 0.67,1.064 0.67,1.838c0,0.792 -0.224,1.412 -0.673,1.86c-0.448,0.449 -1.067,0.673 -1.855,0.673Zm0.022,-0.814c0.747,0 1.121,-0.573 1.121,-1.719c0,-0.525 -0.099,-0.939 -0.297,-1.244c-0.198,-0.305 -0.469,-0.457 -0.815,-0.457c-0.343,0 -0.614,0.152 -0.812,0.457c-0.198,0.305 -0.296,0.722 -0.296,1.253c0,0.525 0.098,0.941 0.294,1.249c0.197,0.308 0.465,0.461 0.805,0.461Z" style="fill:white;fill-rule:nonzero;"/>
                <rect x="33.167" y="-6.943" width="1.302" height="6.943" style="fill:white;fill-rule:nonzero;"/>
                <path d="M39.134,0l0,-0.91c-0.334,0.68 -0.86,1.02 -1.579,1.02c-0.58,0 -1.036,-0.213 -1.367,-0.638c-0.331,-0.425 -0.497,-1.01 -0.497,-1.754c0,-0.809 0.187,-1.454 0.561,-1.935c0.373,-0.481 0.875,-0.721 1.506,-0.721c0.504,0 0.963,0.199 1.376,0.598l0,-2.603l1.306,0l0,6.943l-1.306,0Zm0,-3.566c-0.314,-0.352 -0.649,-0.528 -1.007,-0.528c-0.319,0 -0.575,0.154 -0.765,0.462c-0.191,0.308 -0.286,0.721 -0.286,1.24c0,0.988 0.317,1.482 0.95,1.482c0.387,0 0.756,-0.248 1.108,-0.743l0,-1.913Z" style="fill:white;fill-rule:nonzero;"/>
                <path d="M45.167,0l0,-4.015l-0.664,0l0,-0.813l0.664,0l0,-0.334c0,-0.607 0.144,-1.074 0.433,-1.401c0.289,-0.326 0.7,-0.49 1.233,-0.49c0.329,0 0.677,0.06 1.047,0.18l0,0.889c-0.364,-0.162 -0.633,-0.242 -0.809,-0.242c-0.402,0 -0.603,0.366 -0.603,1.099l0,0.299l3.039,0l0,4.828l-1.302,0l0,-4.015l-1.737,0l0,4.015l-1.301,0Zm3.254,-5.641l0,-1.087l1.086,0l0,1.087l-1.086,0Zm-0.73,0.813" style="fill:white;fill-rule:nonzero;"/>
                <rect x="51.134" y="-6.943" width="1.302" height="6.943" style="fill:white;fill-rule:nonzero;"/>
                <path d="M56.551,-0.026c-0.311,0.09 -0.556,0.136 -0.735,0.136c-1.128,0 -1.692,-0.528 -1.692,-1.583l0,-2.542l-0.541,0l0,-0.813l0.541,0l0,-0.813l1.301,-0.15l0,0.963l1.033,0l0,0.813l-1.033,0l0,2.37c0,0.593 0.242,0.889 0.726,0.889c0.111,0 0.244,-0.021 0.4,-0.062l0,0.792Z" style="fill:white;fill-rule:nonzero;"/>
                <path d="M61.643,-0.163c-0.619,0.182 -1.205,0.273 -1.759,0.273c-0.806,0 -1.442,-0.229 -1.909,-0.686c-0.466,-0.457 -0.699,-1.082 -0.699,-1.873c0,-0.748 0.214,-1.349 0.64,-1.805c0.427,-0.456 0.99,-0.684 1.691,-0.684c0.706,0 1.222,0.223 1.548,0.668c0.325,0.446 0.488,1.151 0.488,2.115l-2.995,0c0.088,0.921 0.594,1.381 1.517,1.381c0.437,0 0.929,-0.101 1.478,-0.303l0,0.914Zm-3.012,-2.726l1.732,0c0,-0.824 -0.265,-1.235 -0.796,-1.235c-0.539,0 -0.851,0.411 -0.936,1.235Z" style="fill:white;fill-rule:nonzero;"/>
                <path d="M62.988,0l0,-4.828l1.302,0l0,0.91c0.337,-0.68 0.85,-1.02 1.539,-1.02c0.082,0 0.162,0.009 0.241,0.026l0,1.161c-0.184,-0.067 -0.356,-0.101 -0.514,-0.101c-0.519,0 -0.941,0.263 -1.266,0.787l0,3.065l-1.302,0Z" style="fill:white;fill-rule:nonzero;"/>
            </g>
        </g>
        <g transform="matrix(1.33192,0,0,1.33192,-1.48227,83.9241)">
            <g id="text7967">
                <path d="M4.826,-5.554l-2.229,0l0,1.19l2.031,0l0,1.568l-2.031,0l0,2.796l-1.851,0l0,-7.121l4.08,0l0,1.567Z" style="fill:rgb(102,102,102);fill-rule:nonzero;"/>
                <path d="M7.783,-3.939l0.349,0c0.365,0 0.645,-0.075 0.841,-0.226c0.195,-0.151 0.292,-0.369 0.292,-0.652c0,-0.283 -0.097,-0.5 -0.292,-0.652c-0.196,-0.151 -0.476,-0.226 -0.841,-0.226l-0.349,0l0,1.756Zm4.07,3.939l-2.304,0l-1.766,-2.739l0,2.739l-1.852,0l0,-7.121l2.881,0c0.397,0 0.743,0.058 1.039,0.174c0.296,0.117 0.54,0.276 0.732,0.477c0.192,0.202 0.337,0.435 0.434,0.699c0.098,0.265 0.147,0.548 0.147,0.85c0,0.542 -0.131,0.981 -0.392,1.318c-0.261,0.337 -0.647,0.565 -1.157,0.685l2.238,2.918Z" style="fill:rgb(102,102,102);fill-rule:nonzero;"/>
                <path d="M16.68,-5.554l-2.201,0l0,1.19l2.078,0l0,1.568l-2.078,0l0,1.228l2.201,0l0,1.568l-4.052,0l0,-7.121l4.052,0l0,1.567Z" style="fill:rgb(102,102,102);fill-rule:nonzero;"/>
                <path d="M21.884,-2.645l-0.831,-2.37l-0.831,2.37l1.662,0Zm0.491,1.408l-2.645,0l-0.425,1.237l-1.974,0l2.711,-7.121l2.021,0l2.711,7.121l-1.974,0l-0.425,-1.237Z" style="fill:rgb(102,102,102);fill-rule:nonzero;"/>
                <path d="M27.437,-4.184l2.258,-2.937l2.285,0l-2.824,3.371l3.089,3.75l-2.399,0l-2.409,-3.088l0,3.088l-1.851,0l0,-7.121l1.851,0l0,2.937Z" style="fill:rgb(102,102,102);fill-rule:nonzero;"/>
            </g>
        </g>
        <g id="g50" transform="matrix(0.0956609,0,0,0.0956609,-13.7139,337.089)">
            <path id="path42" d="M224.699,869.111l27.948,0l26.026,86.945l26.911,-86.945l27.806,0l-36.174,108.69c-3.38,10.021 -9.436,15.027 -18.173,15.027c-8.854,0 -14.971,-5.059 -18.345,-15.181l-35.999,-108.536Z" style="fill:rgb(102,102,102);fill-rule:nonzero;"/>
            <path id="path44" d="M335.484,961.026l0,-91.915l26.211,0l0,91.041c0.464,3.263 3.495,4.893 9.087,4.893l17.824,0c5.357,0 8.328,-1.512 8.912,-4.543l0.175,-0.874l0,-90.517l26.211,0l0,91.74c0,8.038 -0.873,13.747 -2.621,17.125c-4.66,8.972 -12.873,13.455 -24.639,13.455l-33.9,0c-12.118,0 -20.388,-4.601 -24.814,-13.805c-1.632,-3.377 -2.446,-8.911 -2.446,-16.6l0,0Z" style="fill:rgb(102,102,102);fill-rule:nonzero;"/>
            <path id="path46" d="M435.961,961.551l0,-92.439l26.212,0l0,90.342c0,3.73 2.211,5.592 6.64,5.592l46.657,0l-0.175,26.387l-48.754,0c-1.747,0 -3.263,-0.058 -4.543,-0.175c-9.437,-0.813 -16.137,-3.582 -20.096,-8.3c-3.962,-4.72 -5.941,-11.854 -5.941,-21.407l0,0Z" style="fill:rgb(102,102,102);fill-rule:nonzero;"/>
            <path id="path48" d="M516.341,895.497l0,-26.386l78.635,0l0,26.386l-26.386,0l0,95.935l-26.212,0l0,-95.935l-26.037,0Z" style="fill:rgb(102,102,102);fill-rule:nonzero;"/>
        </g>
        <g id="g8091" transform="matrix(0.0359254,0,0,0.0359254,-3.34188,423.313)">
            <path id="path4" d="M210.282,78.87c0,-125.517 -101.752,-227.268 -227.271,-227.268c-125.514,0 -227.267,101.751 -227.267,227.268c0,125.516 101.752,227.268 227.267,227.268c125.519,0 227.271,-101.752 227.271,-227.268l0,0Z" style="fill:rgb(117,117,117);fill-rule:nonzero;stroke:rgb(53,53,53);stroke-width:17px;stroke-miterlimit:10;"/>
            <g id="g40" transform="matrix(1,0,0,1,-426.825,-542.575)">
                <path id="polygon6" d="M357.002,759.965l15.391,-24.781l-29.594,-66.614l-61.688,-63.583l12.788,86.322l16.629,35.632l23.179,35.166l23.295,-2.142Z" style="fill:rgb(43,43,43);fill-rule:nonzero;"/>
                <path id="polygon8" d="M460.762,760.17l-15.392,-24.783l29.597,-66.612l61.685,-63.582l-12.787,86.321l-16.63,35.631l-23.175,35.168l-23.298,-2.143Z" style="fill:rgb(38,38,38);fill-rule:nonzero;"/>
                <path id="polygon12" d="M337.948,452.81l71.936,-18.383l0,374.323l-37.568,-73.799l-29.517,-66.381l-28.471,-16.175l-57.105,-81.295l-1.598,-21.58l31.971,-57.547l50.352,-39.163Z" style="fill:rgb(66,66,66);fill-rule:nonzero;"/>
                <path id="polygon14" d="M481.727,452.944l-71.932,-18.382l0,374.325l37.564,-73.801l29.518,-66.379l28.473,-16.178l57.101,-81.295l1.599,-21.579l-31.969,-57.547l-50.354,-39.164Z" style="fill:rgb(51,51,51);fill-rule:nonzero;"/>
                <path id="polyline16" d="M361.886,616.429l47.96,-46.887l0,34.229l-47.96,47.827l0,-35.169" style="fill:rgb(76,76,76);fill-rule:nonzero;"/>
                <path id="polygon18" d="M409.881,603.732l-47.957,47.827l10.469,83.625l37.491,73.566l-0.003,-205.018Z" style="fill:rgb(91,91,91);fill-rule:nonzero;"/>
                <path id="polygon20" d="M409.884,808.75l-37.491,-73.566l37.485,-17.672l0.006,91.238Z" style="fill:rgb(51,51,51);fill-rule:nonzero;"/>
                <path id="polygon22" d="M361.924,651.559l0,-35.169l-34.766,-43.958l-41.119,-33.129l-0.043,25.934l21.582,50.752l54.346,35.57Z" style="fill:white;fill-rule:nonzero;"/>
                <path id="polyline24" d="M457.816,616.448l-47.957,-46.887l0,34.229l47.957,47.826l0,-35.168" style="fill:rgb(45,45,45);fill-rule:nonzero;"/>
                <path id="polygon26" d="M409.804,603.732l47.954,47.827l-10.469,83.625l-37.488,73.566l0.003,-205.018Z" style="fill:rgb(53,53,53);fill-rule:nonzero;"/>
                <path id="polygon28" d="M409.801,808.75l37.488,-73.566l-37.482,-17.672l-0.006,91.238Z" style="fill:rgb(25,25,25);fill-rule:nonzero;"/>
                <path id="polygon30" d="M457.758,651.559l0,-35.168l34.765,-43.958l41.122,-33.13l0.041,25.935l-21.578,50.753l-54.35,35.568Z" style="fill:white;fill-rule:nonzero;"/>
                <path id="polyline32" d="M338.399,452.22l71.425,117.329l-0.154,-135.546" style="fill:rgb(56,56,56);fill-rule:nonzero;"/>
                <path id="polyline34" d="M481.271,452.232l-71.425,117.329l0.154,-135.545" style="fill:rgb(45,45,45);fill-rule:nonzero;"/>
                <path id="polygon36" d="M342.815,668.578l19.143,-16.982l10.448,83.674l-29.591,-66.692Z" style="fill:rgb(51,51,51);fill-rule:nonzero;"/>
                <path id="polygon38" d="M476.975,668.989l-19.144,-16.982l-10.448,83.675l29.592,-66.693Z" style="fill:rgb(28,28,28);fill-rule:nonzero;"/>
            </g>
        </g>
        <g transform="matrix(4.00166,0,0,4.00166,43.288,246.806)">
            <g id="text9293-42" serif:id="text9293-4">
                <path d="M0.55,-0.332l0.09,0c0.068,0 0.129,-0.011 0.182,-0.032c0.053,-0.021 0.098,-0.051 0.135,-0.088c0.037,-0.037 0.065,-0.082 0.084,-0.133c0.019,-0.051 0.029,-0.108 0.029,-0.169c0,-0.06 -0.01,-0.116 -0.03,-0.168c-0.02,-0.052 -0.048,-0.097 -0.085,-0.134c-0.037,-0.037 -0.082,-0.067 -0.135,-0.088c-0.053,-0.021 -0.113,-0.032 -0.18,-0.032l-0.09,0l0,0.844Zm-0.392,-1.176l0.58,0c0.103,0 0.199,0.021 0.289,0.062c0.09,0.041 0.169,0.096 0.236,0.165c0.067,0.069 0.12,0.149 0.159,0.24c0.039,0.091 0.058,0.187 0.058,0.287c0,0.099 -0.019,0.194 -0.057,0.285c-0.038,0.091 -0.091,0.172 -0.158,0.241c-0.067,0.069 -0.146,0.125 -0.236,0.166c-0.09,0.041 -0.187,0.062 -0.291,0.062l-0.58,0l0,-1.508Z" style="fill:white;fill-rule:nonzero;"/>
                <path d="M2.122,-0.834l0.074,0c0.077,0 0.137,-0.016 0.178,-0.048c0.041,-0.032 0.062,-0.078 0.062,-0.138c0,-0.06 -0.021,-0.106 -0.062,-0.138c-0.041,-0.032 -0.101,-0.048 -0.178,-0.048l-0.074,0l0,0.372Zm0.862,0.834l-0.488,0l-0.374,-0.58l0,0.58l-0.392,0l0,-1.508l0.61,0c0.084,0 0.157,0.012 0.22,0.037c0.063,0.025 0.114,0.058 0.155,0.101c0.041,0.043 0.071,0.092 0.092,0.148c0.021,0.056 0.031,0.116 0.031,0.18c0,0.115 -0.028,0.208 -0.083,0.279c-0.055,0.071 -0.137,0.12 -0.245,0.145l0.474,0.618Z" style="fill:white;fill-rule:nonzero;"/>
                <rect x="3.148" y="-1.508" width="0.392" height="1.508" style="fill:white;fill-rule:nonzero;"/>
                <path d="M4.124,-1.508l0.364,0.918l0.366,-0.918l0.426,0l-0.636,1.508l-0.312,0l-0.634,-1.508l0.426,0Z" style="fill:white;fill-rule:nonzero;"/>
                <path d="M6.296,-1.176l-0.466,0l0,0.252l0.44,0l0,0.332l-0.44,0l0,0.26l0.466,0l0,0.332l-0.858,0l0,-1.508l0.858,0l0,0.332Z" style="fill:white;fill-rule:nonzero;"/>
            </g>
        </g>
        <g transform="matrix(4.00166,0,0,4.00166,55.5591,362.379)">
            <path d="M0.067,0l0.192,-1.131l0.291,0l0.227,0.603l0.225,-0.603l0.29,0l0.192,1.131l-0.292,0l-0.097,-0.651l-0.267,0.651l-0.117,0l-0.254,-0.651l-0.097,0.651l-0.293,0Z" style="fill:white;fill-rule:nonzero;"/>
            <path d="M1.927,-0.565c0,0.045 0.008,0.086 0.025,0.124c0.017,0.038 0.04,0.071 0.069,0.099c0.029,0.028 0.063,0.05 0.101,0.065c0.039,0.016 0.08,0.024 0.123,0.024c0.043,0 0.083,-0.008 0.122,-0.024c0.038,-0.015 0.072,-0.037 0.102,-0.065c0.029,-0.028 0.052,-0.061 0.069,-0.099c0.017,-0.038 0.026,-0.079 0.026,-0.124c0,-0.045 -0.009,-0.087 -0.026,-0.125c-0.017,-0.038 -0.04,-0.071 -0.069,-0.099c-0.03,-0.028 -0.064,-0.049 -0.102,-0.065c-0.039,-0.015 -0.079,-0.023 -0.122,-0.023c-0.043,0 -0.084,0.008 -0.123,0.023c-0.038,0.016 -0.072,0.037 -0.101,0.065c-0.029,0.028 -0.052,0.061 -0.069,0.099c-0.017,0.038 -0.025,0.08 -0.025,0.125Zm-0.308,0c0,-0.084 0.016,-0.162 0.047,-0.235c0.031,-0.072 0.074,-0.136 0.129,-0.19c0.055,-0.054 0.12,-0.096 0.197,-0.126c0.076,-0.031 0.161,-0.046 0.253,-0.046c0.091,0 0.174,0.015 0.251,0.046c0.077,0.03 0.144,0.072 0.199,0.126c0.056,0.054 0.099,0.118 0.13,0.19c0.031,0.073 0.046,0.151 0.046,0.235c0,0.084 -0.015,0.162 -0.046,0.234c-0.031,0.073 -0.074,0.136 -0.13,0.19c-0.055,0.054 -0.122,0.096 -0.199,0.127c-0.077,0.03 -0.16,0.045 -0.251,0.045c-0.092,0 -0.177,-0.015 -0.253,-0.045c-0.077,-0.031 -0.142,-0.073 -0.197,-0.127c-0.055,-0.054 -0.098,-0.117 -0.129,-0.19c-0.031,-0.072 -0.047,-0.15 -0.047,-0.234Z" style="fill:white;fill-rule:nonzero;"/>
            <path d="M3.351,-0.249l0.068,0c0.051,0 0.096,-0.008 0.136,-0.024c0.04,-0.016 0.074,-0.038 0.101,-0.066c0.028,-0.028 0.049,-0.061 0.063,-0.1c0.015,-0.038 0.022,-0.08 0.022,-0.126c0,-0.045 -0.008,-0.087 -0.023,-0.126c-0.015,-0.039 -0.036,-0.073 -0.063,-0.101c-0.028,-0.028 -0.061,-0.05 -0.101,-0.066c-0.04,-0.016 -0.085,-0.024 -0.135,-0.024l-0.068,0l0,0.633Zm-0.294,-0.882l0.435,0c0.077,0 0.149,0.016 0.217,0.047c0.067,0.031 0.126,0.072 0.177,0.124c0.05,0.051 0.09,0.111 0.119,0.18c0.029,0.068 0.043,0.14 0.043,0.215c0,0.074 -0.014,0.145 -0.042,0.213c-0.029,0.069 -0.068,0.129 -0.119,0.181c-0.05,0.052 -0.109,0.094 -0.177,0.125c-0.067,0.031 -0.14,0.046 -0.218,0.046l-0.435,0l0,-1.131Z" style="fill:white;fill-rule:nonzero;"/>
            <path d="M4.879,-0.882l-0.349,0l0,0.189l0.329,0l0,0.249l-0.329,0l0,0.195l0.349,0l0,0.249l-0.643,0l0,-1.131l0.643,0l0,0.249Z" style="fill:white;fill-rule:nonzero;"/>
        </g>
        <g transform="matrix(4.00166,0,0,4.00166,26.628,362.34)">
            <path d="M0.766,-0.882l-0.354,0l0,0.189l0.323,0l0,0.249l-0.323,0l0,0.444l-0.294,0l0,-1.131l0.648,0l0,0.249Z" style="fill:white;fill-rule:nonzero;"/>
            <rect x="0.942" y="-1.131" width="0.294" height="1.131" style="fill:white;fill-rule:nonzero;"/>
            <path d="M1.766,-1.131l0,0.882l0.353,0l0,0.249l-0.647,0l0,-1.131l0.294,0Z" style="fill:white;fill-rule:nonzero;"/>
            <path d="M2.639,-0.882l0,0.882l-0.294,0l0,-0.882l-0.241,0l0,-0.249l0.776,0l0,0.249l-0.241,0Z" style="fill:white;fill-rule:nonzero;"/>
            <path d="M3.654,-0.882l-0.349,0l0,0.189l0.329,0l0,0.249l-0.329,0l0,0.195l0.349,0l0,0.249l-0.643,0l0,-1.131l0.643,0l0,0.249Z" style="fill:white;fill-rule:nonzero;"/>
            <path d="M4.159,-0.625l0.056,0c0.058,0 0.102,-0.012 0.133,-0.036c0.031,-0.024 0.047,-0.059 0.047,-0.104c0,-0.045 -0.016,-0.079 -0.047,-0.103c-0.031,-0.024 -0.075,-0.036 -0.133,-0.036l-0.056,0l0,0.279Zm0.647,0.625l-0.366,0l-0.281,-0.435l0,0.435l-0.294,0l0,-1.131l0.458,0c0.063,0 0.118,0.01 0.165,0.028c0.047,0.019 0.085,0.044 0.116,0.076c0.03,0.032 0.053,0.069 0.069,0.111c0.015,0.042 0.023,0.087 0.023,0.135c0,0.086 -0.021,0.156 -0.062,0.209c-0.042,0.053 -0.103,0.09 -0.184,0.109l0.356,0.463Z" style="fill:white;fill-rule:nonzero;"/>
        </g>
        <g transform="matrix(4.00166,0,0,4.00166,-23.7018,336.428)">
            <path d="M0.933,-0.753c-0.068,-0.083 -0.152,-0.124 -0.252,-0.124c-0.044,0 -0.085,0.008 -0.122,0.024c-0.038,0.016 -0.07,0.038 -0.097,0.065c-0.027,0.028 -0.048,0.06 -0.064,0.098c-0.015,0.038 -0.023,0.079 -0.023,0.123c0,0.045 0.008,0.087 0.023,0.125c0.016,0.038 0.037,0.071 0.065,0.099c0.027,0.028 0.059,0.05 0.096,0.066c0.037,0.016 0.077,0.024 0.12,0.024c0.094,0 0.179,-0.04 0.254,-0.12l0,0.348l-0.03,0.01c-0.045,0.016 -0.087,0.028 -0.126,0.035c-0.039,0.008 -0.078,0.011 -0.116,0.011c-0.078,0 -0.152,-0.014 -0.224,-0.044c-0.071,-0.029 -0.134,-0.071 -0.189,-0.124c-0.054,-0.054 -0.098,-0.117 -0.131,-0.191c-0.033,-0.073 -0.05,-0.153 -0.05,-0.24c0,-0.087 0.017,-0.167 0.049,-0.239c0.033,-0.073 0.076,-0.135 0.131,-0.188c0.054,-0.052 0.117,-0.093 0.189,-0.123c0.072,-0.029 0.148,-0.044 0.227,-0.044c0.045,0 0.089,0.005 0.132,0.014c0.044,0.01 0.09,0.024 0.138,0.044l0,0.351Z" style="fill:white;fill-rule:nonzero;"/>
            <path d="M1.391,-0.565c0,0.045 0.009,0.086 0.026,0.124c0.017,0.038 0.04,0.071 0.069,0.099c0.029,0.028 0.063,0.05 0.101,0.065c0.039,0.016 0.079,0.024 0.122,0.024c0.043,0 0.084,-0.008 0.122,-0.024c0.039,-0.015 0.073,-0.037 0.102,-0.065c0.03,-0.028 0.053,-0.061 0.07,-0.099c0.017,-0.038 0.026,-0.079 0.026,-0.124c0,-0.045 -0.009,-0.087 -0.026,-0.125c-0.017,-0.038 -0.04,-0.071 -0.07,-0.099c-0.029,-0.028 -0.063,-0.049 -0.102,-0.065c-0.038,-0.015 -0.079,-0.023 -0.122,-0.023c-0.043,0 -0.083,0.008 -0.122,0.023c-0.038,0.016 -0.072,0.037 -0.101,0.065c-0.029,0.028 -0.052,0.061 -0.069,0.099c-0.017,0.038 -0.026,0.08 -0.026,0.125Zm-0.307,0c0,-0.084 0.016,-0.162 0.047,-0.235c0.031,-0.072 0.073,-0.136 0.128,-0.19c0.055,-0.054 0.121,-0.096 0.198,-0.126c0.076,-0.031 0.16,-0.046 0.252,-0.046c0.091,0 0.175,0.015 0.252,0.046c0.077,0.03 0.143,0.072 0.199,0.126c0.055,0.054 0.099,0.118 0.13,0.19c0.031,0.073 0.046,0.151 0.046,0.235c0,0.084 -0.015,0.162 -0.046,0.234c-0.031,0.073 -0.075,0.136 -0.13,0.19c-0.056,0.054 -0.122,0.096 -0.199,0.127c-0.077,0.03 -0.161,0.045 -0.252,0.045c-0.092,0 -0.176,-0.015 -0.252,-0.045c-0.077,-0.031 -0.143,-0.073 -0.198,-0.127c-0.055,-0.054 -0.097,-0.117 -0.128,-0.19c-0.031,-0.072 -0.047,-0.15 -0.047,-0.234Z" style="fill:white;fill-rule:nonzero;"/>
            <path d="M2.471,0l0.192,-1.131l0.291,0l0.226,0.603l0.225,-0.603l0.291,0l0.192,1.131l-0.292,0l-0.098,-0.651l-0.267,0.651l-0.117,0l-0.253,-0.651l-0.098,0.651l-0.292,0Z" style="fill:white;fill-rule:nonzero;"/>
            <path d="M4.368,-0.228l0.064,0c0.074,0 0.127,-0.009 0.159,-0.028c0.032,-0.019 0.048,-0.05 0.048,-0.092c0,-0.042 -0.016,-0.072 -0.048,-0.091c-0.032,-0.019 -0.085,-0.029 -0.159,-0.029l-0.064,0l0,0.24Zm0,-0.459l0.054,0c0.092,0 0.138,-0.036 0.138,-0.109c0,-0.073 -0.046,-0.11 -0.138,-0.11l-0.054,0l0,0.219Zm-0.294,-0.444l0.438,0c0.104,0 0.183,0.025 0.237,0.075c0.054,0.05 0.08,0.122 0.08,0.216c0,0.057 -0.01,0.105 -0.03,0.142c-0.021,0.038 -0.052,0.069 -0.094,0.095c0.042,0.008 0.078,0.02 0.107,0.037c0.03,0.016 0.054,0.037 0.072,0.061c0.019,0.024 0.032,0.051 0.04,0.081c0.008,0.03 0.012,0.062 0.012,0.096c0,0.053 -0.009,0.1 -0.028,0.141c-0.018,0.041 -0.044,0.075 -0.078,0.103c-0.033,0.028 -0.074,0.049 -0.122,0.063c-0.048,0.014 -0.102,0.021 -0.162,0.021l-0.472,0l0,-1.131Z" style="fill:white;fill-rule:nonzero;"/>
            <rect x="5.111" y="-1.131" width="0.294" height="1.131" style="fill:white;fill-rule:nonzero;"/>
            <path d="M5.642,0l0,-1.131l0.294,0l0.543,0.692l0,-0.692l0.292,0l0,1.131l-0.292,0l-0.543,-0.691l0,0.691l-0.294,0Z" style="fill:white;fill-rule:nonzero;"/>
            <path d="M7.651,-0.882l-0.349,0l0,0.189l0.33,0l0,0.249l-0.33,0l0,0.195l0.349,0l0,0.249l-0.643,0l0,-1.131l0.643,0l0,0.249Z" style="fill:white;fill-rule:nonzero;"/>
            <path d="M8.157,-0.249l0.067,0c0.051,0 0.097,-0.008 0.137,-0.024c0.04,-0.016 0.073,-0.038 0.101,-0.066c0.027,-0.028 0.048,-0.061 0.063,-0.1c0.014,-0.038 0.021,-0.08 0.021,-0.126c0,-0.045 -0.007,-0.087 -0.022,-0.126c-0.015,-0.039 -0.036,-0.073 -0.064,-0.101c-0.027,-0.028 -0.061,-0.05 -0.101,-0.066c-0.04,-0.016 -0.085,-0.024 -0.135,-0.024l-0.067,0l0,0.633Zm-0.294,-0.882l0.435,0c0.077,0 0.149,0.016 0.216,0.047c0.068,0.031 0.127,0.072 0.177,0.124c0.051,0.051 0.09,0.111 0.119,0.18c0.029,0.068 0.044,0.14 0.044,0.215c0,0.074 -0.014,0.145 -0.043,0.213c-0.028,0.069 -0.068,0.129 -0.118,0.181c-0.051,0.052 -0.11,0.094 -0.177,0.125c-0.068,0.031 -0.14,0.046 -0.218,0.046l-0.435,0l0,-1.131Z" style="fill:white;fill-rule:nonzero;"/>
        </g>
        <g transform="matrix(4.00166,0,0,4.00166,-38.426,322.554)">
            <path d="M0.067,0l0.192,-1.131l0.291,0l0.227,0.603l0.225,-0.603l0.29,0l0.192,1.131l-0.292,0l-0.097,-0.651l-0.267,0.651l-0.117,0l-0.254,-0.651l-0.097,0.651l-0.293,0Z" style="fill:rgb(140,140,140);fill-rule:nonzero;"/>
            <path d="M1.927,-0.565c0,0.045 0.008,0.086 0.025,0.124c0.017,0.038 0.04,0.071 0.069,0.099c0.029,0.028 0.063,0.05 0.101,0.065c0.039,0.016 0.08,0.024 0.123,0.024c0.043,0 0.083,-0.008 0.122,-0.024c0.038,-0.015 0.072,-0.037 0.102,-0.065c0.029,-0.028 0.052,-0.061 0.069,-0.099c0.017,-0.038 0.026,-0.079 0.026,-0.124c0,-0.045 -0.009,-0.087 -0.026,-0.125c-0.017,-0.038 -0.04,-0.071 -0.069,-0.099c-0.03,-0.028 -0.064,-0.049 -0.102,-0.065c-0.039,-0.015 -0.079,-0.023 -0.122,-0.023c-0.043,0 -0.084,0.008 -0.123,0.023c-0.038,0.016 -0.072,0.037 -0.101,0.065c-0.029,0.028 -0.052,0.061 -0.069,0.099c-0.017,0.038 -0.025,0.08 -0.025,0.125Zm-0.308,0c0,-0.084 0.016,-0.162 0.047,-0.235c0.031,-0.072 0.074,-0.136 0.129,-0.19c0.055,-0.054 0.12,-0.096 0.197,-0.126c0.076,-0.031 0.161,-0.046 0.253,-0.046c0.091,0 0.174,0.015 0.251,0.046c0.077,0.03 0.144,0.072 0.199,0.126c0.056,0.054 0.099,0.118 0.13,0.19c0.031,0.073 0.046,0.151 0.046,0.235c0,0.084 -0.015,0.162 -0.046,0.234c-0.031,0.073 -0.074,0.136 -0.13,0.19c-0.055,0.054 -0.122,0.096 -0.199,0.127c-0.077,0.03 -0.16,0.045 -0.251,0.045c-0.092,0 -0.177,-0.015 -0.253,-0.045c-0.077,-0.031 -0.142,-0.073 -0.197,-0.127c-0.055,-0.054 -0.098,-0.117 -0.129,-0.19c-0.031,-0.072 -0.047,-0.15 -0.047,-0.234Z" style="fill:rgb(140,140,140);fill-rule:nonzero;"/>
            <path d="M3.351,-0.249l0.068,0c0.051,0 0.096,-0.008 0.136,-0.024c0.04,-0.016 0.074,-0.038 0.101,-0.066c0.028,-0.028 0.049,-0.061 0.063,-0.1c0.015,-0.038 0.022,-0.08 0.022,-0.126c0,-0.045 -0.008,-0.087 -0.023,-0.126c-0.015,-0.039 -0.036,-0.073 -0.063,-0.101c-0.028,-0.028 -0.061,-0.05 -0.101,-0.066c-0.04,-0.016 -0.085,-0.024 -0.135,-0.024l-0.068,0l0,0.633Zm-0.294,-0.882l0.435,0c0.077,0 0.149,0.016 0.217,0.047c0.067,0.031 0.126,0.072 0.177,0.124c0.05,0.051 0.09,0.111 0.119,0.18c0.029,0.068 0.043,0.14 0.043,0.215c0,0.074 -0.014,0.145 -0.042,0.213c-0.029,0.069 -0.068,0.129 -0.119,0.181c-0.05,0.052 -0.109,0.094 -0.177,0.125c-0.067,0.031 -0.14,0.046 -0.218,0.046l-0.435,0l0,-1.131Z" style="fill:rgb(140,140,140);fill-rule:nonzero;"/>
            <path d="M5.039,-0.625l0.056,0c0.058,0 0.102,-0.012 0.133,-0.036c0.031,-0.024 0.047,-0.059 0.047,-0.104c0,-0.045 -0.016,-0.079 -0.047,-0.103c-0.031,-0.024 -0.075,-0.036 -0.133,-0.036l-0.056,0l0,0.279Zm0.647,0.625l-0.366,0l-0.281,-0.435l0,0.435l-0.293,0l0,-1.131l0.457,0c0.063,0 0.118,0.01 0.165,0.028c0.047,0.019 0.085,0.044 0.116,0.076c0.03,0.032 0.053,0.069 0.069,0.111c0.015,0.042 0.023,0.087 0.023,0.135c0,0.086 -0.021,0.156 -0.062,0.209c-0.042,0.053 -0.103,0.09 -0.184,0.109l0.356,0.463Z" style="fill:rgb(140,140,140);fill-rule:nonzero;"/>
            <path d="M6.044,-0.565c0,0.045 0.008,0.086 0.025,0.124c0.017,0.038 0.04,0.071 0.069,0.099c0.029,0.028 0.063,0.05 0.102,0.065c0.038,0.016 0.079,0.024 0.122,0.024c0.043,0 0.084,-0.008 0.122,-0.024c0.039,-0.015 0.073,-0.037 0.102,-0.065c0.03,-0.028 0.053,-0.061 0.07,-0.099c0.017,-0.038 0.025,-0.079 0.025,-0.124c0,-0.045 -0.008,-0.087 -0.025,-0.125c-0.017,-0.038 -0.04,-0.071 -0.07,-0.099c-0.029,-0.028 -0.063,-0.049 -0.102,-0.065c-0.038,-0.015 -0.079,-0.023 -0.122,-0.023c-0.043,0 -0.084,0.008 -0.122,0.023c-0.039,0.016 -0.073,0.037 -0.102,0.065c-0.029,0.028 -0.052,0.061 -0.069,0.099c-0.017,0.038 -0.025,0.08 -0.025,0.125Zm-0.307,0c0,-0.084 0.015,-0.162 0.046,-0.235c0.031,-0.072 0.074,-0.136 0.129,-0.19c0.055,-0.054 0.121,-0.096 0.197,-0.126c0.077,-0.031 0.161,-0.046 0.253,-0.046c0.091,0 0.175,0.015 0.252,0.046c0.077,0.03 0.143,0.072 0.198,0.126c0.056,0.054 0.099,0.118 0.13,0.19c0.031,0.073 0.047,0.151 0.047,0.235c0,0.084 -0.016,0.162 -0.047,0.234c-0.031,0.073 -0.074,0.136 -0.13,0.19c-0.055,0.054 -0.121,0.096 -0.198,0.127c-0.077,0.03 -0.161,0.045 -0.252,0.045c-0.092,0 -0.176,-0.015 -0.253,-0.045c-0.076,-0.031 -0.142,-0.073 -0.197,-0.127c-0.055,-0.054 -0.098,-0.117 -0.129,-0.19c-0.031,-0.072 -0.046,-0.15 -0.046,-0.234Z" style="fill:rgb(140,140,140);fill-rule:nonzero;"/>
            <path d="M7.468,-1.131l0,0.615c0,0.033 0.002,0.067 0.004,0.101c0.003,0.035 0.01,0.066 0.023,0.094c0.012,0.028 0.032,0.051 0.059,0.068c0.027,0.018 0.065,0.027 0.114,0.027c0.049,0 0.087,-0.009 0.113,-0.027c0.027,-0.017 0.046,-0.04 0.059,-0.068c0.013,-0.028 0.021,-0.059 0.023,-0.094c0.003,-0.034 0.004,-0.068 0.004,-0.101l0,-0.615l0.293,0l0,0.656c0,0.176 -0.041,0.304 -0.121,0.385c-0.081,0.081 -0.204,0.121 -0.371,0.121c-0.167,0 -0.291,-0.04 -0.372,-0.121c-0.081,-0.081 -0.121,-0.209 -0.121,-0.385l0,-0.656l0.293,0Z" style="fill:rgb(140,140,140);fill-rule:nonzero;"/>
            <path d="M8.825,-0.882l0,0.882l-0.294,0l0,-0.882l-0.241,0l0,-0.249l0.777,0l0,0.249l-0.242,0Z" style="fill:rgb(140,140,140);fill-rule:nonzero;"/>
            <path d="M9.84,-0.882l-0.349,0l0,0.189l0.33,0l0,0.249l-0.33,0l0,0.195l0.349,0l0,0.249l-0.643,0l0,-1.131l0.643,0l0,0.249Z" style="fill:rgb(140,140,140);fill-rule:nonzero;"/>
        </g>
        <g transform="matrix(4.00166,0,0,4.00166,27.971,322.364)">
            <path d="M0.067,0l0.192,-1.131l0.291,0l0.227,0.603l0.225,-0.603l0.29,0l0.192,1.131l-0.292,0l-0.097,-0.651l-0.267,0.651l-0.117,0l-0.254,-0.651l-0.097,0.651l-0.293,0Z" style="fill:rgb(140,140,140);fill-rule:nonzero;"/>
            <path d="M1.927,-0.565c0,0.045 0.008,0.086 0.025,0.124c0.017,0.038 0.04,0.071 0.069,0.099c0.029,0.028 0.063,0.05 0.101,0.065c0.039,0.016 0.08,0.024 0.123,0.024c0.043,0 0.083,-0.008 0.122,-0.024c0.038,-0.015 0.072,-0.037 0.102,-0.065c0.029,-0.028 0.052,-0.061 0.069,-0.099c0.017,-0.038 0.026,-0.079 0.026,-0.124c0,-0.045 -0.009,-0.087 -0.026,-0.125c-0.017,-0.038 -0.04,-0.071 -0.069,-0.099c-0.03,-0.028 -0.064,-0.049 -0.102,-0.065c-0.039,-0.015 -0.079,-0.023 -0.122,-0.023c-0.043,0 -0.084,0.008 -0.123,0.023c-0.038,0.016 -0.072,0.037 -0.101,0.065c-0.029,0.028 -0.052,0.061 -0.069,0.099c-0.017,0.038 -0.025,0.08 -0.025,0.125Zm-0.308,0c0,-0.084 0.016,-0.162 0.047,-0.235c0.031,-0.072 0.074,-0.136 0.129,-0.19c0.055,-0.054 0.12,-0.096 0.197,-0.126c0.076,-0.031 0.161,-0.046 0.253,-0.046c0.091,0 0.174,0.015 0.251,0.046c0.077,0.03 0.144,0.072 0.199,0.126c0.056,0.054 0.099,0.118 0.13,0.19c0.031,0.073 0.046,0.151 0.046,0.235c0,0.084 -0.015,0.162 -0.046,0.234c-0.031,0.073 -0.074,0.136 -0.13,0.19c-0.055,0.054 -0.122,0.096 -0.199,0.127c-0.077,0.03 -0.16,0.045 -0.251,0.045c-0.092,0 -0.177,-0.015 -0.253,-0.045c-0.077,-0.031 -0.142,-0.073 -0.197,-0.127c-0.055,-0.054 -0.098,-0.117 -0.129,-0.19c-0.031,-0.072 -0.047,-0.15 -0.047,-0.234Z" style="fill:rgb(140,140,140);fill-rule:nonzero;"/>
            <path d="M3.351,-0.249l0.068,0c0.051,0 0.096,-0.008 0.136,-0.024c0.04,-0.016 0.074,-0.038 0.101,-0.066c0.028,-0.028 0.049,-0.061 0.063,-0.1c0.015,-0.038 0.022,-0.08 0.022,-0.126c0,-0.045 -0.008,-0.087 -0.023,-0.126c-0.015,-0.039 -0.036,-0.073 -0.063,-0.101c-0.028,-0.028 -0.061,-0.05 -0.101,-0.066c-0.04,-0.016 -0.085,-0.024 -0.135,-0.024l-0.068,0l0,0.633Zm-0.294,-0.882l0.435,0c0.077,0 0.149,0.016 0.217,0.047c0.067,0.031 0.126,0.072 0.177,0.124c0.05,0.051 0.09,0.111 0.119,0.18c0.029,0.068 0.043,0.14 0.043,0.215c0,0.074 -0.014,0.145 -0.042,0.213c-0.029,0.069 -0.068,0.129 -0.119,0.181c-0.05,0.052 -0.109,0.094 -0.177,0.125c-0.067,0.031 -0.14,0.046 -0.218,0.046l-0.435,0l0,-1.131Z" style="fill:rgb(140,140,140);fill-rule:nonzero;"/>
            <path d="M4.879,-0.882l-0.349,0l0,0.189l0.329,0l0,0.249l-0.329,0l0,0.195l0.349,0l0,0.249l-0.643,0l0,-1.131l0.643,0l0,0.249Z" style="fill:rgb(140,140,140);fill-rule:nonzero;"/>
            <path d="M5.384,-1.131l0,0.882l0.353,0l0,0.249l-0.647,0l0,-1.131l0.294,0Z" style="fill:rgb(140,140,140);fill-rule:nonzero;"/>
            <path d="M7.019,-0.841c-0.032,-0.026 -0.064,-0.045 -0.096,-0.058c-0.032,-0.012 -0.063,-0.019 -0.093,-0.019c-0.038,0 -0.069,0.009 -0.093,0.027c-0.024,0.018 -0.036,0.042 -0.036,0.071c0,0.02 0.006,0.036 0.018,0.049c0.012,0.013 0.027,0.025 0.047,0.034c0.019,0.01 0.041,0.018 0.066,0.025c0.024,0.007 0.049,0.014 0.073,0.022c0.096,0.032 0.166,0.075 0.21,0.128c0.045,0.054 0.067,0.124 0.067,0.21c0,0.058 -0.01,0.11 -0.029,0.157c-0.02,0.047 -0.048,0.087 -0.086,0.121c-0.037,0.033 -0.083,0.059 -0.138,0.078c-0.054,0.018 -0.116,0.027 -0.185,0.027c-0.143,0 -0.275,-0.042 -0.397,-0.127l0.126,-0.237c0.044,0.039 0.087,0.068 0.13,0.087c0.043,0.019 0.086,0.029 0.128,0.029c0.048,0 0.083,-0.011 0.107,-0.033c0.023,-0.022 0.035,-0.047 0.035,-0.075c0,-0.017 -0.003,-0.032 -0.009,-0.045c-0.006,-0.012 -0.016,-0.024 -0.03,-0.034c-0.014,-0.011 -0.032,-0.02 -0.055,-0.029c-0.022,-0.009 -0.049,-0.019 -0.081,-0.03c-0.038,-0.012 -0.075,-0.026 -0.112,-0.04c-0.036,-0.015 -0.069,-0.034 -0.097,-0.058c-0.029,-0.024 -0.052,-0.054 -0.069,-0.09c-0.018,-0.037 -0.027,-0.083 -0.027,-0.139c0,-0.056 0.01,-0.107 0.028,-0.152c0.019,-0.046 0.045,-0.085 0.078,-0.117c0.034,-0.033 0.075,-0.058 0.123,-0.076c0.048,-0.018 0.103,-0.027 0.163,-0.027c0.056,0 0.114,0.008 0.175,0.023c0.061,0.016 0.12,0.038 0.176,0.068l-0.117,0.23Z" style="fill:rgb(140,140,140);fill-rule:nonzero;"/>
            <path d="M8.01,-0.882l-0.35,0l0,0.189l0.33,0l0,0.249l-0.33,0l0,0.195l0.35,0l0,0.249l-0.644,0l0,-1.131l0.644,0l0,0.249Z" style="fill:rgb(140,140,140);fill-rule:nonzero;"/>
            <path d="M8.515,-1.131l0,0.882l0.352,0l0,0.249l-0.646,0l0,-1.131l0.294,0Z" style="fill:rgb(140,140,140);fill-rule:nonzero;"/>
            <path d="M9.662,-0.882l-0.349,0l0,0.189l0.329,0l0,0.249l-0.329,0l0,0.195l0.349,0l0,0.249l-0.643,0l0,-1.131l0.643,0l0,0.249Z" style="fill:rgb(140,140,140);fill-rule:nonzero;"/>
            <path d="M10.688,-0.753c-0.068,-0.083 -0.152,-0.124 -0.252,-0.124c-0.044,0 -0.085,0.008 -0.123,0.024c-0.037,0.016 -0.069,0.038 -0.096,0.065c-0.027,0.028 -0.048,0.06 -0.064,0.098c-0.015,0.038 -0.023,0.079 -0.023,0.123c0,0.045 0.008,0.087 0.023,0.125c0.016,0.038 0.037,0.071 0.065,0.099c0.027,0.028 0.059,0.05 0.096,0.066c0.037,0.016 0.077,0.024 0.12,0.024c0.094,0 0.179,-0.04 0.254,-0.12l0,0.348l-0.03,0.01c-0.045,0.016 -0.087,0.028 -0.126,0.035c-0.039,0.008 -0.078,0.011 -0.116,0.011c-0.078,0 -0.153,-0.014 -0.224,-0.044c-0.071,-0.029 -0.134,-0.071 -0.189,-0.124c-0.054,-0.054 -0.098,-0.117 -0.131,-0.191c-0.033,-0.073 -0.05,-0.153 -0.05,-0.24c0,-0.087 0.017,-0.167 0.049,-0.239c0.033,-0.073 0.076,-0.135 0.131,-0.188c0.054,-0.052 0.117,-0.093 0.189,-0.123c0.072,-0.029 0.148,-0.044 0.227,-0.044c0.045,0 0.089,0.005 0.132,0.014c0.044,0.01 0.09,0.024 0.138,0.044l0,0.351Z" style="fill:rgb(140,140,140);fill-rule:nonzero;"/>
            <path d="M11.302,-0.882l0,0.882l-0.294,0l0,-0.882l-0.241,0l0,-0.249l0.777,0l0,0.249l-0.242,0Z" style="fill:rgb(140,140,140);fill-rule:nonzero;"/>
        </g>
        <g transform="matrix(4.00166,0,0,4.00166,-23.7018,346.458)">
            <rect x="0.118" y="-1.131" width="0.294" height="1.131" style="fill:white;fill-rule:nonzero;"/>
            <path d="M0.649,0l0,-1.131l0.294,0l0.543,0.692l0,-0.692l0.292,0l0,1.131l-0.292,0l-0.543,-0.691l0,0.691l-0.294,0Z" style="fill:white;fill-rule:nonzero;"/>
            <path d="M2.309,-0.249l0.068,0c0.05,0 0.096,-0.008 0.136,-0.024c0.04,-0.016 0.074,-0.038 0.101,-0.066c0.028,-0.028 0.049,-0.061 0.063,-0.1c0.015,-0.038 0.022,-0.08 0.022,-0.126c0,-0.045 -0.008,-0.087 -0.023,-0.126c-0.015,-0.039 -0.036,-0.073 -0.063,-0.101c-0.028,-0.028 -0.062,-0.05 -0.102,-0.066c-0.04,-0.016 -0.085,-0.024 -0.134,-0.024l-0.068,0l0,0.633Zm-0.294,-0.882l0.435,0c0.077,0 0.149,0.016 0.217,0.047c0.067,0.031 0.126,0.072 0.177,0.124c0.05,0.051 0.09,0.111 0.119,0.18c0.029,0.068 0.043,0.14 0.043,0.215c0,0.074 -0.014,0.145 -0.042,0.213c-0.029,0.069 -0.068,0.129 -0.119,0.181c-0.05,0.052 -0.109,0.094 -0.177,0.125c-0.067,0.031 -0.14,0.046 -0.218,0.046l-0.435,0l0,-1.131Z" style="fill:white;fill-rule:nonzero;"/>
            <rect x="3.194" y="-1.131" width="0.294" height="1.131" style="fill:white;fill-rule:nonzero;"/>
            <path d="M3.925,-1.131l0.273,0.689l0.275,-0.689l0.319,0l-0.477,1.131l-0.234,0l-0.475,-1.131l0.319,0Z" style="fill:white;fill-rule:nonzero;"/>
            <rect x="4.91" y="-1.131" width="0.294" height="1.131" style="fill:white;fill-rule:nonzero;"/>
            <path d="M5.735,-0.249l0.068,0c0.051,0 0.096,-0.008 0.136,-0.024c0.04,-0.016 0.074,-0.038 0.101,-0.066c0.028,-0.028 0.049,-0.061 0.063,-0.1c0.015,-0.038 0.022,-0.08 0.022,-0.126c0,-0.045 -0.008,-0.087 -0.023,-0.126c-0.015,-0.039 -0.036,-0.073 -0.063,-0.101c-0.028,-0.028 -0.061,-0.05 -0.101,-0.066c-0.04,-0.016 -0.085,-0.024 -0.135,-0.024l-0.068,0l0,0.633Zm-0.294,-0.882l0.435,0c0.077,0 0.149,0.016 0.217,0.047c0.067,0.031 0.126,0.072 0.177,0.124c0.05,0.051 0.09,0.111 0.119,0.18c0.029,0.068 0.043,0.14 0.043,0.215c0,0.074 -0.014,0.145 -0.042,0.213c-0.029,0.069 -0.068,0.129 -0.119,0.181c-0.05,0.052 -0.109,0.094 -0.177,0.125c-0.067,0.031 -0.14,0.046 -0.218,0.046l-0.435,0l0,-1.131Z" style="fill:white;fill-rule:nonzero;"/>
            <path d="M6.914,-1.131l0,0.615c0,0.033 0.001,0.067 0.003,0.101c0.003,0.035 0.01,0.066 0.023,0.094c0.012,0.028 0.032,0.051 0.059,0.068c0.027,0.018 0.065,0.027 0.114,0.027c0.049,0 0.087,-0.009 0.113,-0.027c0.027,-0.017 0.046,-0.04 0.059,-0.068c0.013,-0.028 0.021,-0.059 0.024,-0.094c0.002,-0.034 0.003,-0.068 0.003,-0.101l0,-0.615l0.293,0l0,0.656c0,0.176 -0.04,0.304 -0.121,0.385c-0.08,0.081 -0.204,0.121 -0.371,0.121c-0.167,0 -0.291,-0.04 -0.372,-0.121c-0.081,-0.081 -0.121,-0.209 -0.121,-0.385l0,-0.656l0.294,0Z" style="fill:white;fill-rule:nonzero;"/>
            <path d="M8.419,-0.42l-0.132,-0.376l-0.132,0.376l0.264,0Zm0.078,0.224l-0.42,0l-0.067,0.196l-0.314,0l0.431,-1.131l0.32,0l0.431,1.131l-0.314,0l-0.067,-0.196Z" style="fill:white;fill-rule:nonzero;"/>
            <path d="M9.301,-1.131l0,0.882l0.352,0l0,0.249l-0.646,0l0,-1.131l0.294,0Z" style="fill:white;fill-rule:nonzero;"/>
        </g>
        <g transform="matrix(4.00166,0,0,4.00166,-23.6477,357.638)">
            <rect x="0.118" y="-1.131" width="0.294" height="1.131" style="fill:white;fill-rule:nonzero;"/>
            <path d="M0.649,0l0,-1.131l0.294,0l0.543,0.692l0,-0.692l0.292,0l0,1.131l-0.292,0l-0.543,-0.691l0,0.691l-0.294,0Z" style="fill:white;fill-rule:nonzero;"/>
            <path d="M2.216,-1.131l0.273,0.689l0.274,-0.689l0.32,0l-0.477,1.131l-0.234,0l-0.475,-1.131l0.319,0Z" style="fill:white;fill-rule:nonzero;"/>
            <path d="M3.844,-0.882l-0.349,0l0,0.189l0.33,0l0,0.249l-0.33,0l0,0.195l0.349,0l0,0.249l-0.643,0l0,-1.131l0.643,0l0,0.249Z" style="fill:white;fill-rule:nonzero;"/>
            <path d="M4.35,-0.625l0.055,0c0.058,0 0.103,-0.012 0.134,-0.036c0.031,-0.024 0.046,-0.059 0.046,-0.104c0,-0.045 -0.015,-0.079 -0.046,-0.103c-0.031,-0.024 -0.076,-0.036 -0.134,-0.036l-0.055,0l0,0.279Zm0.646,0.625l-0.366,0l-0.28,-0.435l0,0.435l-0.294,0l0,-1.131l0.457,0c0.063,0 0.118,0.01 0.165,0.028c0.047,0.019 0.086,0.044 0.116,0.076c0.031,0.032 0.054,0.069 0.069,0.111c0.016,0.042 0.023,0.087 0.023,0.135c0,0.086 -0.02,0.156 -0.062,0.209c-0.041,0.053 -0.102,0.09 -0.183,0.109l0.355,0.463Z" style="fill:white;fill-rule:nonzero;"/>
            <path d="M5.74,-0.841c-0.032,-0.026 -0.064,-0.045 -0.096,-0.058c-0.032,-0.012 -0.063,-0.019 -0.093,-0.019c-0.038,0 -0.069,0.009 -0.093,0.027c-0.024,0.018 -0.036,0.042 -0.036,0.071c0,0.02 0.006,0.036 0.018,0.049c0.012,0.013 0.027,0.025 0.047,0.034c0.019,0.01 0.041,0.018 0.066,0.025c0.024,0.007 0.049,0.014 0.073,0.022c0.096,0.032 0.166,0.075 0.21,0.128c0.045,0.054 0.067,0.124 0.067,0.21c0,0.058 -0.01,0.11 -0.029,0.157c-0.02,0.047 -0.048,0.087 -0.086,0.121c-0.037,0.033 -0.083,0.059 -0.138,0.078c-0.054,0.018 -0.116,0.027 -0.185,0.027c-0.143,0 -0.275,-0.042 -0.397,-0.127l0.126,-0.237c0.044,0.039 0.087,0.068 0.13,0.087c0.043,0.019 0.086,0.029 0.128,0.029c0.048,0 0.083,-0.011 0.107,-0.033c0.023,-0.022 0.035,-0.047 0.035,-0.075c0,-0.017 -0.003,-0.032 -0.009,-0.045c-0.006,-0.012 -0.016,-0.024 -0.03,-0.034c-0.014,-0.011 -0.032,-0.02 -0.055,-0.029c-0.022,-0.009 -0.049,-0.019 -0.081,-0.03c-0.038,-0.012 -0.075,-0.026 -0.112,-0.04c-0.036,-0.015 -0.069,-0.034 -0.097,-0.058c-0.029,-0.024 -0.052,-0.054 -0.069,-0.09c-0.018,-0.037 -0.027,-0.083 -0.027,-0.139c0,-0.056 0.01,-0.107 0.028,-0.152c0.019,-0.046 0.045,-0.085 0.078,-0.117c0.034,-0.033 0.075,-0.058 0.123,-0.076c0.049,-0.018 0.103,-0.027 0.163,-0.027c0.056,0 0.114,0.008 0.175,0.023c0.061,0.016 0.12,0.038 0.176,0.068l-0.117,0.23Z" style="fill:white;fill-rule:nonzero;"/>
            <path d="M6.731,-0.882l-0.35,0l0,0.189l0.33,0l0,0.249l-0.33,0l0,0.195l0.35,0l0,0.249l-0.644,0l0,-1.131l0.644,0l0,0.249Z" style="fill:white;fill-rule:nonzero;"/>
        </g>
        <g transform="matrix(2.05402,0,0,1.26436,-448.212,-61.2245)">
            <path d="M261.093,346.126c0,-2.627 -1.313,-4.76 -2.93,-4.76l-22.953,0c-1.617,0 -2.93,2.133 -2.93,4.76l0,24.985c0,2.627 1.313,4.76 2.93,4.76l22.953,0c1.617,0 2.93,-2.133 2.93,-4.76l0,-24.985Z"/>
        </g>
        <g transform="matrix(4.00166,0,0,4.00166,-30.4086,412.339)">
            <g id="text9293-43" serif:id="text9293-4">
                <rect x="0.158" y="-1.508" width="0.392" height="1.508" style="fill:white;fill-rule:nonzero;"/>
                <path d="M0.866,0l0,-1.508l0.392,0l0.724,0.922l0,-0.922l0.39,0l0,1.508l-0.39,0l-0.724,-0.922l0,0.922l-0.392,0Z" style="fill:white;fill-rule:nonzero;"/>
                <path d="M3.08,-0.816l0.13,0c0.144,0 0.216,-0.063 0.216,-0.188c0,-0.125 -0.072,-0.188 -0.216,-0.188l-0.13,0l0,0.376Zm0,0.816l-0.392,0l0,-1.508l0.624,0c0.169,0 0.299,0.044 0.389,0.132c0.09,0.088 0.135,0.212 0.135,0.372c0,0.16 -0.045,0.284 -0.135,0.372c-0.09,0.088 -0.22,0.132 -0.389,0.132l-0.232,0l0,0.5Z" style="fill:white;fill-rule:nonzero;"/>
                <path d="M4.436,-1.508l0,0.82c0,0.044 0.002,0.089 0.005,0.135c0.003,0.046 0.013,0.088 0.03,0.125c0.017,0.037 0.043,0.068 0.079,0.091c0.036,0.023 0.087,0.035 0.152,0.035c0.065,0 0.116,-0.012 0.151,-0.035c0.035,-0.023 0.062,-0.054 0.079,-0.091c0.017,-0.037 0.028,-0.079 0.031,-0.125c0.003,-0.046 0.005,-0.091 0.005,-0.135l0,-0.82l0.39,0l0,0.874c0,0.235 -0.054,0.406 -0.161,0.514c-0.107,0.108 -0.272,0.162 -0.495,0.162c-0.223,0 -0.388,-0.054 -0.496,-0.162c-0.108,-0.108 -0.162,-0.279 -0.162,-0.514l0,-0.874l0.392,0Z" style="fill:white;fill-rule:nonzero;"/>
                <path d="M6.246,-1.176l0,1.176l-0.392,0l0,-1.176l-0.322,0l0,-0.332l1.036,0l0,0.332l-0.322,0Z" style="fill:white;fill-rule:nonzero;"/>
            </g>
        </g>
        <g transform="matrix(4.00166,0,0,4.00166,41.0631,412.339)">
            <g id="text9293-44" serif:id="text9293-4">
                <path d="M0.5,-0.754c0,0.06 0.011,0.116 0.034,0.166c0.022,0.051 0.053,0.095 0.092,0.132c0.038,0.038 0.083,0.066 0.135,0.087c0.051,0.021 0.105,0.031 0.163,0.031c0.057,0 0.111,-0.01 0.163,-0.031c0.051,-0.021 0.096,-0.049 0.135,-0.087c0.04,-0.037 0.071,-0.081 0.093,-0.132c0.023,-0.05 0.034,-0.106 0.034,-0.166c0,-0.06 -0.011,-0.115 -0.034,-0.166c-0.022,-0.05 -0.053,-0.094 -0.093,-0.132c-0.039,-0.037 -0.084,-0.066 -0.135,-0.087c-0.052,-0.02 -0.106,-0.031 -0.163,-0.031c-0.058,0 -0.112,0.011 -0.163,0.031c-0.052,0.021 -0.097,0.05 -0.135,0.087c-0.039,0.038 -0.07,0.082 -0.092,0.132c-0.023,0.051 -0.034,0.106 -0.034,0.166Zm-0.41,0c0,-0.112 0.021,-0.216 0.062,-0.313c0.041,-0.096 0.099,-0.18 0.172,-0.252c0.073,-0.072 0.161,-0.129 0.263,-0.169c0.102,-0.041 0.214,-0.061 0.337,-0.061c0.121,0 0.233,0.02 0.335,0.061c0.103,0.04 0.191,0.097 0.265,0.169c0.074,0.072 0.132,0.156 0.173,0.252c0.042,0.097 0.062,0.201 0.062,0.313c0,0.112 -0.02,0.217 -0.062,0.313c-0.041,0.097 -0.099,0.181 -0.173,0.253c-0.074,0.072 -0.162,0.128 -0.265,0.169c-0.102,0.041 -0.214,0.061 -0.335,0.061c-0.123,0 -0.235,-0.02 -0.337,-0.061c-0.102,-0.041 -0.19,-0.097 -0.263,-0.169c-0.073,-0.072 -0.131,-0.156 -0.172,-0.253c-0.041,-0.096 -0.062,-0.201 -0.062,-0.313Z" style="fill:white;fill-rule:nonzero;"/>
                <path d="M2.399,-1.507l0,0.819c0,0.044 0.002,0.089 0.005,0.135c0.003,0.046 0.013,0.088 0.03,0.125c0.017,0.037 0.043,0.068 0.079,0.091c0.036,0.023 0.087,0.035 0.152,0.035c0.065,0 0.116,-0.012 0.151,-0.035c0.035,-0.023 0.061,-0.054 0.079,-0.091c0.017,-0.037 0.027,-0.079 0.031,-0.125c0.003,-0.046 0.005,-0.091 0.005,-0.135l0,-0.819l0.39,0l0,0.873c0,0.235 -0.054,0.406 -0.161,0.514c-0.108,0.108 -0.273,0.162 -0.495,0.162c-0.223,0 -0.388,-0.054 -0.496,-0.162c-0.108,-0.108 -0.162,-0.279 -0.162,-0.514l0,-0.873l0.392,0Z" style="fill:white;fill-rule:nonzero;"/>
                <path d="M4.208,-1.176l0,1.176l-0.392,0l0,-1.176l-0.321,0l0,-0.331l1.035,0l0,0.331l-0.322,0Z" style="fill:white;fill-rule:nonzero;"/>
                <path d="M5.096,-0.816l0.13,0c0.144,0 0.216,-0.062 0.216,-0.188c0,-0.125 -0.072,-0.188 -0.216,-0.188l-0.13,0l0,0.376Zm0,0.816l-0.392,0l0,-1.507l0.624,0c0.169,0 0.299,0.044 0.389,0.132c0.09,0.088 0.135,0.211 0.135,0.371c0,0.16 -0.045,0.284 -0.135,0.372c-0.09,0.088 -0.22,0.132 -0.389,0.132l-0.232,0l0,0.5Z" style="fill:white;fill-rule:nonzero;"/>
                <path d="M6.451,-1.507l0,0.819c0,0.044 0.002,0.089 0.005,0.135c0.004,0.046 0.014,0.088 0.03,0.125c0.017,0.037 0.043,0.068 0.079,0.091c0.036,0.023 0.087,0.035 0.152,0.035c0.066,0 0.116,-0.012 0.151,-0.035c0.035,-0.023 0.062,-0.054 0.079,-0.091c0.017,-0.037 0.028,-0.079 0.031,-0.125c0.003,-0.046 0.005,-0.091 0.005,-0.135l0,-0.819l0.39,0l0,0.873c0,0.235 -0.054,0.406 -0.161,0.514c-0.107,0.108 -0.272,0.162 -0.495,0.162c-0.222,0 -0.388,-0.054 -0.496,-0.162c-0.108,-0.108 -0.162,-0.279 -0.162,-0.514l0,-0.873l0.392,0Z" style="fill:white;fill-rule:nonzero;"/>
                <path d="M8.261,-1.176l0,1.176l-0.392,0l0,-1.176l-0.322,0l0,-0.331l1.035,0l0,0.331l-0.321,0Z" style="fill:white;fill-rule:nonzero;"/>
            </g>
        </g>
        <g transform="matrix(4.00166,0,0,4.00166,-34.1059,376.729)">
            <path d="M0.412,-1.131l0,0.882l0.353,0l0,0.249l-0.647,0l0,-1.131l0.294,0Z" style="fill:rgb(140,140,140);fill-rule:nonzero;"/>
        </g>
        <g transform="matrix(4.00166,0,0,4.00166,-5.1059,376.729)">
            <path d="M0.412,-0.625l0.056,0c0.058,0 0.102,-0.012 0.133,-0.036c0.031,-0.024 0.047,-0.059 0.047,-0.104c0,-0.045 -0.016,-0.079 -0.047,-0.103c-0.031,-0.024 -0.075,-0.036 -0.133,-0.036l-0.056,0l0,0.279Zm0.647,0.625l-0.366,0l-0.281,-0.435l0,0.435l-0.294,0l0,-1.131l0.458,0c0.063,0 0.118,0.01 0.165,0.028c0.047,0.019 0.085,0.044 0.116,0.076c0.03,0.032 0.053,0.069 0.069,0.111c0.015,0.042 0.023,0.087 0.023,0.135c0,0.086 -0.021,0.156 -0.062,0.209c-0.042,0.053 -0.103,0.09 -0.184,0.109l0.356,0.463Z" style="fill:rgb(140,140,140);fill-rule:nonzero;"/>
        </g>
        <g transform="matrix(4.00166,0,0,4.00166,42.8941,376.729)">
            <path d="M0.412,-1.131l0,0.882l0.353,0l0,0.249l-0.647,0l0,-1.131l0.294,0Z" style="fill:rgb(140,140,140);fill-rule:nonzero;"/>
        </g>
        <g transform="matrix(4.00166,0,0,4.00166,68.8941,376.729)">
            <path d="M0.412,-0.625l0.056,0c0.058,0 0.102,-0.012 0.133,-0.036c0.031,-0.024 0.047,-0.059 0.047,-0.104c0,-0.045 -0.016,-0.079 -0.047,-0.103c-0.031,-0.024 -0.075,-0.036 -0.133,-0.036l-0.056,0l0,0.279Zm0.647,0.625l-0.366,0l-0.281,-0.435l0,0.435l-0.294,0l0,-1.131l0.458,0c0.063,0 0.118,0.01 0.165,0.028c0.047,0.019 0.085,0.044 0.116,0.076c0.03,0.032 0.053,0.069 0.069,0.111c0.015,0.042 0.023,0.087 0.023,0.135c0,0.086 -0.021,0.156 -0.062,0.209c-0.042,0.053 -0.103,0.09 -0.184,0.109l0.356,0.463Z" style="fill:rgb(140,140,140);fill-rule:nonzero;"/>
        </g>
        <g transform="matrix(1.00075,0,0,1,-59.8403,53.3305)">
            <g transform="matrix(3.02337,0,0,1.40418,-287.704,-129.58)">
                <path d="M141,258.821c0,-0.964 -0.363,-1.746 -0.81,-1.746l-37.38,0c-0.447,0 -0.81,0.782 -0.81,1.746l0,17.872c0,0.964 0.363,1.746 0.81,1.746l37.38,0c0.447,0 0.81,-0.782 0.81,-1.746l0,-17.872Z" style="stroke:rgb(13,13,13);stroke-width:0.42px;stroke-linecap:round;stroke-linejoin:round;stroke-miterlimit:1.5;"/>
            </g>
            <g transform="matrix(3.03173,0,0,1.4,-290.082,-138.413)">
                <path d="M103,265l38,0" style="fill:none;stroke:rgb(64,64,64);stroke-opacity:0.470588;stroke-width:0.21px;stroke-linecap:round;stroke-linejoin:round;stroke-miterlimit:1.5;"/>
            </g>
            <g transform="matrix(3.03173,0,0,1.4,-290.082,-110.789)">
                <path d="M103,265l38,0" style="fill:none;stroke:rgb(64,64,64);stroke-opacity:0.470588;stroke-width:0.21px;stroke-linecap:round;stroke-linejoin:round;stroke-miterlimit:1.5;"/>
            </g>
            <g transform="matrix(2.98536,0,0,1.32756,-283.068,-109.076)">
                <path d="M141,258.821c0,-0.964 -0.348,-1.746 -0.776,-1.746l-37.448,0c-0.428,0 -0.776,0.782 -0.776,1.746l0,17.872c0,0.964 0.348,1.746 0.776,1.746l37.448,0c0.428,0 0.776,-0.782 0.776,-1.746l0,-17.872Z" style="fill:none;stroke:rgb(128,128,128);stroke-width:0.43px;stroke-linecap:round;stroke-linejoin:round;stroke-miterlimit:1.5;"/>
            </g>
        </g>
        <g transform="matrix(1,0,0,1,0,-6)">
            <g id="path8216-1-5-0-2" transform="matrix(4.00166,0,0,-4.00166,-39.9875,-833.405)">
                <path d="M31.417,-243.598c0.684,1.185 0.416,2.705 -0.633,3.585c-1.048,0.88 -2.592,0.88 -3.64,0c-1.049,-0.88 -1.317,-2.4 -0.633,-3.585l2.453,1.416l2.453,-1.416Z" style="fill:none;stroke:rgb(204,204,204);stroke-width:0.26px;"/>
            </g>
            <g id="path9630-2-6-1" transform="matrix(4.00166,0,0,4.00166,-39.9875,-833.405)">
                <path d="M31.324,243.897l0.006,1.102" style="fill:rgb(204,204,204);fill-rule:nonzero;stroke:rgb(204,204,204);stroke-width:0.26px;"/>
            </g>
            <g id="path9630-1-1-4-7" transform="matrix(4.00166,0,0,4.00166,-39.9875,-833.405)">
                <path d="M31.878,244.44l-1.102,0.005" style="fill:rgb(204,204,204);fill-rule:nonzero;stroke:rgb(204,204,204);stroke-width:0.26px;"/>
            </g>
            <g id="path9630-1-6-9-9-2" transform="matrix(4.00166,0,0,4.00166,-39.9875,-833.405)">
                <path d="M27.3,244.409l-1.103,0.005" style="fill:rgb(204,204,204);fill-rule:nonzero;stroke:rgb(204,204,204);stroke-width:0.26px;"/>
            </g>
            <g id="path9948-9-9-4" transform="matrix(4.00166,0,0,4.00166,-39.9875,-833.405)">
                <path d="M28.964,242.183l-0.006,-3.326" style="fill:none;stroke:rgb(204,204,204);stroke-width:0.29px;"/>
            </g>
        </g>
        <g id="path8216-1-5-0-21" serif:id="path8216-1-5-0-2" transform="matrix(4.00166,0,0,-4.00166,-151.988,-839.405)">
            <path d="M31.417,-243.598c0.684,1.185 0.416,2.705 -0.633,3.585c-1.048,0.88 -2.592,0.88 -3.64,0c-1.049,-0.88 -1.317,-2.4 -0.633,-3.585l2.453,1.416l2.453,-1.416Z" style="fill:none;stroke:rgb(204,204,204);stroke-width:0.26px;"/>
        </g>
        <g id="path9630-2-6-11" serif:id="path9630-2-6-1" transform="matrix(4.00166,0,0,4.00166,-151.988,-839.405)">
            <path d="M31.324,243.897l0.006,1.102" style="fill:rgb(204,204,204);fill-rule:nonzero;stroke:rgb(204,204,204);stroke-width:0.26px;"/>
        </g>
        <g id="path9630-1-1-4-71" serif:id="path9630-1-1-4-7" transform="matrix(4.00166,0,0,4.00166,-151.988,-839.405)">
            <path d="M31.878,244.44l-1.102,0.005" style="fill:rgb(204,204,204);fill-rule:nonzero;stroke:rgb(204,204,204);stroke-width:0.26px;"/>
        </g>
        <g id="path9630-1-6-9-9-21" serif:id="path9630-1-6-9-9-2" transform="matrix(4.00166,0,0,4.00166,-151.988,-839.405)">
            <path d="M27.3,244.409l-1.103,0.005" style="fill:rgb(204,204,204);fill-rule:nonzero;stroke:rgb(204,204,204);stroke-width:0.26px;"/>
        </g>
        <g id="path9948-9-9-41" serif:id="path9948-9-9-4" transform="matrix(4.00166,0,0,4.00166,-151.988,-839.405)">
            <path d="M28.964,242.183l-0.006,-3.326" style="fill:none;stroke:rgb(204,204,204);stroke-width:0.29px;"/>
        </g>
        <g transform="matrix(1,0,0,1,-27.4544,46.7292)">
            <g id="path9630-2-6-12" serif:id="path9630-2-6-1" transform="matrix(4.00166,0,0,4.00166,-88.5331,-752.134)">
                <path d="M31.324,243.897l0.006,1.102" style="fill:rgb(204,204,204);fill-rule:nonzero;stroke:rgb(204,204,204);stroke-width:0.26px;"/>
            </g>
            <g id="path9630-1-1-4-72" serif:id="path9630-1-1-4-7" transform="matrix(4.00166,0,0,4.00166,-88.5331,-752.134)">
                <path d="M31.878,244.44l-1.102,0.005" style="fill:rgb(204,204,204);fill-rule:nonzero;stroke:rgb(204,204,204);stroke-width:0.26px;"/>
            </g>
            <g id="path9630-1-6-9-9-22" serif:id="path9630-1-6-9-9-2" transform="matrix(4.00166,0,0,4.00166,-88.5331,-752.134)">
                <path d="M27.3,244.409l-1.103,0.005" style="fill:rgb(204,204,204);fill-rule:nonzero;stroke:rgb(204,204,204);stroke-width:0.26px;"/>
            </g>
            <g id="path8216-1-5-0-22" serif:id="path8216-1-5-0-2" transform="matrix(4.00166,0,0,-4.00166,-88.5331,-752.134)">
                <path d="M31.417,-243.598c0.684,1.185 0.416,2.705 -0.633,3.585c-1.048,0.88 -2.592,0.88 -3.64,0c-1.049,-0.88 -1.317,-2.4 -0.633,-3.585l2.453,1.416l2.453,-1.416Z" style="fill:none;stroke:rgb(204,204,204);stroke-width:0.26px;"/>
            </g>
            <g id="path9948-9-9-42" serif:id="path9948-9-9-4" transform="matrix(4.00166,0,0,4.00166,-88.5331,-752.134)">
                <path d="M28.964,242.183l-0.006,-3.326" style="fill:none;stroke:rgb(204,204,204);stroke-width:0.29px;"/>
            </g>
        </g>
        <g transform="matrix(1,0,0,1,-59.4544,46.7292)">
            <g id="path8216-1-5-0-23" serif:id="path8216-1-5-0-2" transform="matrix(4.00166,0,0,-4.00166,-15.5331,-752.134)">
                <path d="M31.417,-243.598c0.684,1.185 0.416,2.705 -0.633,3.585c-1.048,0.88 -2.592,0.88 -3.64,0c-1.049,-0.88 -1.317,-2.4 -0.633,-3.585l2.453,1.416l2.453,-1.416Z" style="fill:none;stroke:rgb(204,204,204);stroke-width:0.26px;"/>
            </g>
            <g id="path9948-9-9-43" serif:id="path9948-9-9-4" transform="matrix(4.00166,0,0,4.00166,-15.5331,-752.134)">
                <path d="M28.964,242.183l-0.006,-3.326" style="fill:none;stroke:rgb(204,204,204);stroke-width:0.29px;"/>
            </g>
            <g id="path9630-2-6-13" serif:id="path9630-2-6-1" transform="matrix(4.00166,0,0,4.00166,-15.0202,-751.929)">
                <path d="M31.324,243.897l0.006,1.102" style="fill:rgb(204,204,204);fill-rule:nonzero;stroke:rgb(204,204,204);stroke-width:0.26px;"/>
            </g>
            <g id="path9630-1-1-4-73" serif:id="path9630-1-1-4-7" transform="matrix(4.00166,0,0,4.00166,-15.0202,-751.929)">
                <path d="M31.878,244.44l-1.102,0.005" style="fill:rgb(204,204,204);fill-rule:nonzero;stroke:rgb(204,204,204);stroke-width:0.26px;"/>
            </g>
            <g id="path9630-1-6-9-9-23" serif:id="path9630-1-6-9-9-2" transform="matrix(4.00166,0,0,4.00166,-15.0202,-751.929)">
                <path d="M27.3,244.409l-1.103,0.005" style="fill:rgb(204,204,204);fill-rule:nonzero;stroke:rgb(204,204,204);stroke-width:0.26px;"/>
            </g>
        </g>
        <g transform="matrix(4.00166,0,0,4.00166,-39.0462,174.867)">
            <g id="text9293-45" serif:id="text9293-4">
                <path d="M0.855,-0.49l-0.154,-0.439l-0.153,0.439l0.307,0Zm0.091,0.261l-0.489,0l-0.079,0.229l-0.366,0l0.502,-1.319l0.375,0l0.502,1.319l-0.366,0l-0.079,-0.229Z" style="fill:white;fill-rule:nonzero;"/>
            </g>
        </g>
        <g transform="matrix(4.00166,0,0,4.00166,73.7981,175.004)">
            <g id="text9293-46" serif:id="text9293-4">
                <path d="M0.481,-0.266l0.075,0c0.087,0 0.148,-0.011 0.186,-0.033c0.037,-0.022 0.056,-0.058 0.056,-0.107c0,-0.049 -0.019,-0.084 -0.056,-0.107c-0.038,-0.022 -0.099,-0.033 -0.186,-0.033l-0.075,0l0,0.28Zm0,-0.535l0.063,0c0.107,0 0.161,-0.043 0.161,-0.128c0,-0.085 -0.054,-0.128 -0.161,-0.128l-0.063,0l0,0.256Zm-0.343,-0.518l0.511,0c0.121,0 0.213,0.029 0.276,0.088c0.063,0.058 0.095,0.142 0.095,0.251c0,0.067 -0.012,0.122 -0.036,0.166c-0.024,0.043 -0.06,0.08 -0.109,0.111c0.049,0.009 0.09,0.023 0.125,0.043c0.034,0.019 0.062,0.043 0.084,0.07c0.021,0.028 0.037,0.06 0.046,0.095c0.009,0.035 0.014,0.072 0.014,0.112c0,0.062 -0.011,0.117 -0.032,0.164c-0.022,0.048 -0.052,0.088 -0.091,0.121c-0.039,0.033 -0.087,0.057 -0.143,0.074c-0.056,0.016 -0.119,0.024 -0.189,0.024l-0.551,0l0,-1.319Z" style="fill:white;fill-rule:nonzero;"/>
            </g>
        </g>
        <g transform="matrix(1,0,0,0.972465,-57.1709,62.4266)">
            <path d="M57.462,232.756l0,21.992" style="fill:none;stroke:rgb(89,89,89);stroke-width:1.01px;stroke-linecap:round;stroke-linejoin:round;stroke-miterlimit:1.5;"/>
        </g>
    </g>
</svg>
