<svg width="45px" height="380px" version="1.1" xmlns="http://www.w3.org/2000/svg" xmlns:xlink="http://www.w3.org/1999/xlink" xml:space="preserve" xmlns:serif="http://www.serif.com/" style="fill-rule:evenodd;clip-rule:evenodd;stroke-linecap:round;stroke-linejoin:round;stroke-miterlimit:10;">
  <defs>
    <linearGradient id="_Linear1" x1="0" y1="0" x2="1" y2="0" gradientUnits="userSpaceOnUse" gradientTransform="matrix(44.9999,-379.998,379.998,44.9999,8.50126e-05,379.999)">
      <stop offset="0" style="stop-color:rgb(9,13,17);stop-opacity:1"/>
      <stop offset="1" style="stop-color:rgb(24,35,46);stop-opacity:1"/>
    </linearGradient>
  </defs>
  <g id="Background">
    <rect id="rect9931" x="0" y="0" width="45" height="379.998" style="fill:url(#_Linear1);"/>
    <path id="rect23814" d="M7.642,162.308l29.978,0c2.372,0 4.281,1.909 4.281,4.28l0,158.326c0,2.371 -1.909,4.281 -4.281,4.281l-29.978,0c-2.372,0 -4.281,-1.91 -4.281,-4.281l0,-158.326c0,-2.371 1.909,-4.28 4.281,-4.28Z" style="stroke:rgb(65,76,85);stroke-width:1.01px;"/>
    <path id="path8377" d="M14.513,113.724l0,-3.56l-3.66,0l0,-2.466l9.485,0l0,2.466l-3.912,0l0,3.56l3.912,0l0,2.465l-9.485,0l0,-2.465l3.66,0Z" style="fill:rgb(172,181,188);fill-rule:nonzero;"/>
    <path id="path8379" d="M15.784,103.42l-4.931,3.461l0,-2.944l2.591,-1.762l-2.591,-1.749l0,-2.943l4.931,3.472l4.554,0l0,2.465l-4.554,0Z" style="fill:rgb(172,181,188);fill-rule:nonzero;"/>
    <path id="path8381" d="M15.204,94.149l0,-0.818c0,-0.906 -0.393,-1.359 -1.181,-1.359c-0.789,0 -1.183,0.453 -1.183,1.359l0,0.818l2.364,0Zm5.134,0l0,2.466l-9.485,0l0,-3.925c0,-1.065 0.276,-1.88 0.83,-2.446c0.553,-0.566 1.333,-0.85 2.34,-0.85c1.006,0 1.786,0.284 2.339,0.85c0.554,0.566 0.831,1.381 0.831,2.446l0,1.459l3.145,0Z" style="fill:rgb(172,181,188);fill-rule:nonzero;"/>
    <path id="path8383" d="M12.94,82.689l0,2.931l1.585,0l0,-2.767l2.089,0l0,2.767l1.635,0l0,-2.931l2.089,0l0,5.397l-9.485,0l0,-5.397l2.087,0Z" style="fill:rgb(172,181,188);fill-rule:nonzero;"/>
    <path id="path8385" d="M15.091,78.449l0,-0.464c0,-0.488 -0.1,-0.861 -0.301,-1.121c-0.201,-0.259 -0.491,-0.39 -0.868,-0.39c-0.377,0 -0.666,0.131 -0.869,0.39c-0.201,0.26 -0.301,0.633 -0.301,1.121l0,0.464l2.339,0Zm5.247,-5.422l0,3.07l-3.649,2.352l3.649,0l0,2.466l-9.485,0l0,-3.836c0,-0.529 0.077,-0.99 0.232,-1.384c0.156,-0.394 0.367,-0.719 0.635,-0.975c0.269,-0.256 0.579,-0.449 0.931,-0.579c0.353,-0.13 0.73,-0.195 1.132,-0.195c0.722,0 1.307,0.175 1.756,0.522c0.449,0.348 0.752,0.862 0.912,1.541l3.887,-2.982Z" style="fill:rgb(172,181,188);fill-rule:nonzero;"/>
    <path id="path8387" d="M15.204,69.531l0,-0.818c0,-0.906 -0.393,-1.358 -1.181,-1.358c-0.789,0 -1.183,0.452 -1.183,1.358l0,0.818l2.364,0Zm5.134,0l0,2.465l-9.485,0l0,-3.925c0,-1.065 0.276,-1.881 0.83,-2.447c0.553,-0.566 1.333,-0.848 2.34,-0.848c1.006,0 1.786,0.282 2.339,0.848c0.554,0.566 0.831,1.382 0.831,2.447l0,1.46l3.145,0Z" style="fill:rgb(172,181,188);fill-rule:nonzero;"/>
    <path id="path8389" d="M15.595,61.316c0.378,0 0.726,-0.071 1.044,-0.213c0.318,-0.143 0.595,-0.336 0.831,-0.58c0.234,-0.242 0.417,-0.526 0.546,-0.848c0.131,-0.324 0.196,-0.665 0.196,-1.026c0,-0.361 -0.065,-0.702 -0.196,-1.025c-0.129,-0.323 -0.312,-0.608 -0.546,-0.856c-0.236,-0.247 -0.513,-0.442 -0.831,-0.584c-0.318,-0.143 -0.666,-0.215 -1.044,-0.215c-0.377,0 -0.725,0.072 -1.045,0.215c-0.318,0.142 -0.595,0.337 -0.829,0.584c-0.235,0.248 -0.417,0.533 -0.548,0.856c-0.129,0.323 -0.194,0.664 -0.194,1.025c0,0.361 0.065,0.702 0.194,1.026c0.131,0.322 0.313,0.606 0.548,0.848c0.234,0.244 0.511,0.437 0.829,0.58c0.32,0.142 0.668,0.213 1.045,0.213Zm0,2.578c-0.705,0 -1.36,-0.129 -1.969,-0.389c-0.607,-0.261 -1.139,-0.62 -1.592,-1.083c-0.452,-0.46 -0.807,-1.012 -1.062,-1.654c-0.256,-0.64 -0.384,-1.348 -0.384,-2.119c0,-0.763 0.128,-1.468 0.384,-2.114c0.255,-0.646 0.61,-1.201 1.062,-1.666c0.453,-0.466 0.985,-0.828 1.592,-1.088c0.609,-0.26 1.264,-0.39 1.969,-0.39c0.704,0 1.361,0.13 1.968,0.39c0.609,0.26 1.139,0.622 1.592,1.088c0.453,0.465 0.807,1.02 1.063,1.666c0.255,0.646 0.383,1.351 0.383,2.114c0,0.771 -0.128,1.479 -0.383,2.119c-0.256,0.642 -0.61,1.194 -1.063,1.654c-0.453,0.463 -0.983,0.822 -1.592,1.083c-0.607,0.26 -1.264,0.389 -1.968,0.389Z" style="fill:rgb(172,181,188);fill-rule:nonzero;"/>
    <path id="path8391" d="M10.853,50.397l6.126,-1.636l-6.126,-2.013l0,-1.962l6.126,-2.013l-6.126,-1.635l0,-2.58l9.485,2.831l0,2.516l-5.497,1.862l5.497,1.862l0,2.516l-9.485,2.83l0,-2.578Z" style="fill:rgb(172,181,188);fill-rule:nonzero;"/>
    <path id="path8393" d="M12.94,32.168l0,2.931l1.585,0l0,-2.767l2.089,0l0,2.767l1.635,0l0,-2.931l2.089,0l0,5.397l-9.485,0l0,-5.397l2.087,0Z" style="fill:rgb(172,181,188);fill-rule:nonzero;"/>
    <path id="path8395" d="M15.091,27.928l0,-0.464c0,-0.487 -0.1,-0.86 -0.301,-1.121c-0.201,-0.259 -0.491,-0.389 -0.868,-0.389c-0.377,0 -0.666,0.13 -0.869,0.389c-0.201,0.261 -0.301,0.634 -0.301,1.121l0,0.464l2.339,0Zm5.247,-5.421l0,3.069l-3.649,2.352l3.649,0l0,2.467l-9.485,0l0,-3.837c0,-0.529 0.077,-0.99 0.232,-1.384c0.156,-0.394 0.367,-0.719 0.635,-0.975c0.269,-0.256 0.579,-0.449 0.931,-0.578c0.353,-0.131 0.73,-0.196 1.132,-0.196c0.722,0 1.307,0.175 1.756,0.522c0.449,0.348 0.752,0.862 0.912,1.541l3.887,-2.981Z" style="fill:rgb(172,181,188);fill-rule:nonzero;"/>
    <path id="path4" d="M30.543,350.293c0,-4.509 -3.655,-8.164 -8.164,-8.164c-4.51,0 -8.165,3.655 -8.165,8.164c0,4.51 3.655,8.165 8.165,8.165c4.509,0 8.164,-3.655 8.164,-8.165Z" style="fill:rgb(117,117,117);fill-rule:nonzero;stroke:rgb(65,76,85);stroke-width:0.61px;stroke-linecap:butt;stroke-linejoin:miter;"/>
    <g id="g40">
      <path id="polygon6" d="M20.48,355.27l0.553,-0.89l-1.063,-2.394l-2.216,-2.284l0.459,3.101l0.598,1.28l0.833,1.264l0.836,-0.077Z" style="fill:rgb(43,43,43);fill-rule:nonzero;stroke:rgb(65,76,85);stroke-width:0.04px;stroke-linecap:butt;stroke-linejoin:miter;"/>
      <path id="polygon8" d="M24.208,355.277l-0.553,-0.89l1.063,-2.393l2.216,-2.284l-0.459,3.101l-0.597,1.28l-0.833,1.263l-0.837,-0.077Z" style="fill:rgb(38,38,38);fill-rule:nonzero;stroke:rgb(65,76,85);stroke-width:0.04px;stroke-linecap:butt;stroke-linejoin:miter;"/>
      <path id="polygon12" d="M19.796,344.235l2.584,-0.66l0,13.447l-1.349,-2.651l-1.061,-2.385l-1.023,-0.581l-2.051,-2.92l-0.058,-0.775l1.149,-2.068l1.809,-1.407Z" style="fill:rgb(66,66,66);fill-rule:nonzero;stroke:rgb(65,76,85);stroke-width:0.04px;stroke-linecap:butt;stroke-linejoin:miter;"/>
      <path id="polygon14" d="M24.961,344.24l-2.584,-0.66l0,13.447l1.35,-2.651l1.06,-2.385l1.023,-0.581l2.051,-2.92l0.058,-0.776l-1.149,-2.067l-1.809,-1.407Z" style="fill:rgb(51,51,51);fill-rule:nonzero;stroke:rgb(65,76,85);stroke-width:0.04px;stroke-linecap:butt;stroke-linejoin:miter;"/>
      <path id="polyline16" d="M20.656,350.113l1.723,-1.684l0,1.229l-1.723,1.719l0,-1.264" style="fill:rgb(76,76,76);fill-rule:nonzero;stroke:rgb(65,76,85);stroke-width:0.04px;stroke-linecap:butt;stroke-linejoin:miter;"/>
      <path id="polygon18" d="M22.38,349.657l-1.723,1.718l0.376,3.005l1.347,2.642l0,-7.365Z" style="fill:rgb(91,91,91);fill-rule:nonzero;stroke:rgb(65,76,85);stroke-width:0.04px;stroke-linecap:butt;stroke-linejoin:miter;"/>
      <path id="polygon20" d="M22.38,357.022l-1.347,-2.642l1.347,-0.635l0,3.277Z" style="fill:rgb(51,51,51);fill-rule:nonzero;stroke:rgb(65,76,85);stroke-width:0.04px;stroke-linecap:butt;stroke-linejoin:miter;"/>
      <path id="polygon22" d="M20.657,351.375l0,-1.263l-1.249,-1.579l-1.477,-1.191l-0.001,0.932l0.775,1.823l1.952,1.278Z" style="fill:white;fill-rule:nonzero;stroke:rgb(65,76,85);stroke-width:0.04px;stroke-linecap:butt;stroke-linejoin:miter;"/>
      <path id="polyline24" d="M24.102,350.114l-1.723,-1.685l0,1.23l1.723,1.718l0,-1.263" style="fill:rgb(45,45,45);fill-rule:nonzero;stroke:rgb(65,76,85);stroke-width:0.04px;stroke-linecap:butt;stroke-linejoin:miter;"/>
      <path id="polygon26" d="M22.377,349.657l1.723,1.718l-0.376,3.005l-1.347,2.642l0,-7.365Z" style="fill:rgb(53,53,53);fill-rule:nonzero;stroke:rgb(65,76,85);stroke-width:0.04px;stroke-linecap:butt;stroke-linejoin:miter;"/>
      <path id="polygon28" d="M22.377,357.022l1.347,-2.642l-1.347,-0.635l0,3.277Z" style="fill:rgb(25,25,25);fill-rule:nonzero;stroke:rgb(65,76,85);stroke-width:0.04px;stroke-linecap:butt;stroke-linejoin:miter;"/>
      <path id="polygon30" d="M24.1,351.375l0,-1.263l1.249,-1.579l1.477,-1.191l0.002,0.932l-0.775,1.823l-1.953,1.278Z" style="fill:white;fill-rule:nonzero;stroke:rgb(65,76,85);stroke-width:0.04px;stroke-linecap:butt;stroke-linejoin:miter;"/>
      <path id="polyline32" d="M19.812,344.214l2.566,4.215l-0.005,-4.869" style="fill:rgb(56,56,56);fill-rule:nonzero;stroke:rgb(65,76,85);stroke-width:0.04px;stroke-linecap:butt;stroke-linejoin:miter;"/>
      <path id="polyline34" d="M24.945,344.214l-2.566,4.215l0.005,-4.869" style="fill:rgb(45,45,45);fill-rule:nonzero;stroke:rgb(65,76,85);stroke-width:0.04px;stroke-linecap:butt;stroke-linejoin:miter;"/>
      <path id="polygon36" d="M19.971,351.987l0.687,-0.61l0.376,3.006l-1.063,-2.396Z" style="fill:rgb(51,51,51);fill-rule:nonzero;stroke:rgb(65,76,85);stroke-width:0.04px;stroke-linecap:butt;stroke-linejoin:miter;"/>
      <path id="polygon38" d="M24.791,352.001l-0.688,-0.61l-0.376,3.006l1.064,-2.396Z" style="fill:rgb(28,28,28);fill-rule:nonzero;stroke:rgb(65,76,85);stroke-width:0.04px;stroke-linecap:butt;stroke-linejoin:miter;"/>
    </g>
    <path id="path42" d="M10.895,331.095l1.751,0l1.632,5.45l1.687,-5.45l1.743,0l-2.268,6.813c-0.212,0.628 -0.591,0.942 -1.139,0.942c-0.555,0 -0.938,-0.317 -1.15,-0.952l-2.256,-6.803Z" style="fill:rgb(172,181,188);fill-rule:nonzero;"/>
    <path id="path44" d="M17.839,336.856l0,-5.761l1.643,0l0,5.707c0.029,0.204 0.219,0.306 0.57,0.306l1.117,0c0.336,0 0.522,-0.094 0.559,-0.284l0.011,-0.055l0,-5.674l1.643,0l0,5.75c0,0.504 -0.055,0.862 -0.164,1.074c-0.293,0.562 -0.807,0.843 -1.545,0.843l-2.125,0c-0.76,0 -1.278,-0.288 -1.556,-0.865c-0.102,-0.212 -0.153,-0.559 -0.153,-1.041Z" style="fill:rgb(172,181,188);fill-rule:nonzero;"/>
    <path id="path46" d="M24.138,336.889l0,-5.794l1.643,0l0,5.663c0,0.234 0.138,0.35 0.416,0.35l2.925,0l-0.011,1.654l-3.056,0c-0.11,0 -0.205,-0.003 -0.285,-0.01c-0.592,-0.051 -1.012,-0.225 -1.26,-0.521c-0.248,-0.296 -0.372,-0.743 -0.372,-1.342Z" style="fill:rgb(172,181,188);fill-rule:nonzero;"/>
    <path id="path48" d="M29.176,332.749l0,-1.654l4.93,0l0,1.654l-1.654,0l0,6.013l-1.644,0l0,-6.013l-1.632,0Z" style="fill:rgb(172,181,188);fill-rule:nonzero;"/>
    <path id="path8424" d="M33.432,121.071l-5.111,0l0,-1.378l5.111,0l0,1.378Zm-5.972,0l-1.151,0l0,-1.378l1.151,0l0,1.378Z" style="fill:white;fill-rule:nonzero;"/>
    <path id="path8426" d="M33.432,117.97l-5.111,0l0,-1.377l0.963,0c-0.72,-0.45 -1.08,-1.032 -1.08,-1.742c0,-0.456 0.144,-0.816 0.433,-1.08c0.289,-0.264 0.683,-0.396 1.183,-0.396l3.612,0l0,1.379l-3.272,0c-0.58,0 -0.871,0.191 -0.871,0.577c0,0.437 0.309,0.857 0.927,1.262l3.216,0l0,1.377Z" style="fill:white;fill-rule:nonzero;"/>
    <path id="path8428" d="M33.432,111.565l-4.251,0l0,0.703l-0.86,0l0,-0.703l-0.354,0c-0.643,0 -1.137,-0.154 -1.483,-0.459c-0.345,-0.306 -0.519,-0.741 -0.519,-1.306c0,-0.348 0.063,-0.717 0.191,-1.108l0.941,0c-0.172,0.384 -0.256,0.67 -0.256,0.857c0,0.424 0.387,0.637 1.163,0.637l0.317,0l0,-3.217l5.111,0l0,1.378l-4.251,0l0,1.839l4.251,0l0,1.379Zm-5.972,-3.446l-1.151,0l0,-1.15l1.151,0l0,1.15Z" style="fill:white;fill-rule:nonzero;"/>
    <path id="path8430" d="M33.432,105.247l-5.111,0l0,-1.379l0.963,0c-0.72,-0.45 -1.08,-1.03 -1.08,-1.74c0,-0.457 0.144,-0.817 0.433,-1.08c0.289,-0.264 0.683,-0.396 1.183,-0.396l3.612,0l0,1.377l-3.272,0c-0.58,0 -0.871,0.193 -0.871,0.578c0,0.438 0.309,0.858 0.927,1.261l3.216,0l0,1.379Z" style="fill:white;fill-rule:nonzero;"/>
    <path id="path8432" d="M33.432,98.985l-5.111,0l0,-1.378l5.111,0l0,1.378Zm-5.972,0l-1.151,0l0,-1.378l1.151,0l0,1.378Z" style="fill:white;fill-rule:nonzero;"/>
    <path id="path8434" d="M33.405,93.25c0.095,0.328 0.144,0.588 0.144,0.777c0,1.195 -0.559,1.793 -1.676,1.793l-2.692,0l0,0.572l-0.86,0l0,-0.572l-0.861,0l-0.159,-1.379l1.02,0l0,-1.094l0.86,0l0,1.094l2.51,0c0.628,0 0.941,-0.256 0.941,-0.768c0,-0.118 -0.022,-0.259 -0.066,-0.423l0.839,0Z" style="fill:white;fill-rule:nonzero;"/>
    <path id="path8436" d="M33.26,87.859c0.193,0.654 0.289,1.275 0.289,1.862c0,0.853 -0.243,1.527 -0.726,2.02c-0.484,0.494 -1.146,0.74 -1.983,0.74c-0.792,0 -1.429,-0.225 -1.912,-0.677c-0.482,-0.451 -0.724,-1.049 -0.724,-1.79c0,-0.748 0.236,-1.295 0.707,-1.639c0.473,-0.345 1.219,-0.516 2.24,-0.516l0,3.17c0.975,-0.094 1.462,-0.628 1.462,-1.607c0,-0.462 -0.107,-0.983 -0.321,-1.563l0.968,0Zm-2.886,3.189l0,-1.835c-0.873,0 -1.308,0.281 -1.308,0.843c0,0.571 0.435,0.902 1.308,0.992Z" style="fill:white;fill-rule:nonzero;"/>
    <path id="path8438" d="M35.272,83.291l-6.951,0l0,-1.377l0.963,0c-0.72,-0.354 -1.08,-0.912 -1.08,-1.672c0,-0.614 0.226,-1.098 0.676,-1.451c0.45,-0.351 1.069,-0.528 1.857,-0.528c0.856,0 1.539,0.199 2.049,0.596c0.509,0.397 0.763,0.93 0.763,1.597c0,0.538 -0.211,1.023 -0.633,1.458l2.356,0l0,1.377Zm-3.176,-1.377c0.373,-0.336 0.559,-0.693 0.559,-1.072c0,-0.338 -0.164,-0.608 -0.491,-0.81c-0.327,-0.201 -0.764,-0.302 -1.311,-0.302c-1.046,0 -1.569,0.337 -1.569,1.011c0,0.406 0.263,0.797 0.787,1.173l2.025,0Z" style="fill:white;fill-rule:nonzero;"/>
    <path id="path8440" d="M33.549,74.827c0,0.799 -0.241,1.432 -0.724,1.903c-0.483,0.47 -1.132,0.705 -1.948,0.705c-0.826,0 -1.477,-0.237 -1.956,-0.71c-0.477,-0.474 -0.717,-1.116 -0.717,-1.929c0,-0.817 0.24,-1.462 0.717,-1.935c0.479,-0.473 1.127,-0.71 1.946,-0.71c0.839,0 1.495,0.237 1.969,0.712c0.476,0.475 0.713,1.13 0.713,1.964Zm-0.862,-0.023c0,-0.791 -0.607,-1.187 -1.82,-1.187c-0.556,0 -0.994,0.105 -1.317,0.315c-0.323,0.209 -0.484,0.497 -0.484,0.864c0,0.363 0.161,0.649 0.484,0.858c0.323,0.21 0.764,0.315 1.327,0.315c0.555,0 0.996,-0.105 1.322,-0.313c0.326,-0.207 0.488,-0.492 0.488,-0.852Z" style="fill:white;fill-rule:nonzero;"/>
    <path id="path8442" d="M33.432,69.981l-5.111,1.42l0,-1.28l3.579,-1.006l-3.579,-1.07l0,-1.192l3.598,-0.964l-3.598,-1.085l0,-0.958l5.111,1.517l0,1.322l-3.505,0.931l3.505,1.043l0,1.322Z" style="fill:white;fill-rule:nonzero;"/>
    <path id="path8444" d="M33.26,58.496c0.193,0.655 0.289,1.276 0.289,1.862c0,0.854 -0.243,1.528 -0.726,2.021c-0.484,0.494 -1.146,0.74 -1.983,0.74c-0.792,0 -1.429,-0.226 -1.912,-0.677c-0.482,-0.452 -0.724,-1.048 -0.724,-1.791c0,-0.747 0.236,-1.293 0.707,-1.637c0.473,-0.346 1.219,-0.518 2.24,-0.518l0,3.171c0.975,-0.093 1.462,-0.629 1.462,-1.606c0,-0.463 -0.107,-0.984 -0.321,-1.565l0.968,0Zm-2.886,3.189l0,-1.834c-0.873,0 -1.308,0.281 -1.308,0.843c0,0.57 0.435,0.901 1.308,0.991Z" style="fill:white;fill-rule:nonzero;"/>
    <path id="path8446" d="M33.432,57.072l-5.111,0l0,-1.379l0.963,0c-0.72,-0.357 -1.08,-0.9 -1.08,-1.629c0,-0.087 0.01,-0.172 0.028,-0.255l1.229,0c-0.071,0.194 -0.107,0.377 -0.107,0.544c0,0.549 0.279,0.996 0.833,1.34l3.245,0l0,1.379Z" style="fill:white;fill-rule:nonzero;"/>
    <path id="path8448" d="M33.269,49.73l-1.01,0c0.286,-0.683 0.428,-1.266 0.428,-1.751c0,-0.564 -0.192,-0.847 -0.577,-0.847c-0.248,0 -0.465,0.233 -0.651,0.699l-0.186,0.465c-0.206,0.506 -0.426,0.868 -0.662,1.085c-0.235,0.217 -0.527,0.326 -0.875,0.326c-0.485,0 -0.861,-0.185 -1.129,-0.554c-0.268,-0.369 -0.403,-0.886 -0.403,-1.551c0,-0.416 0.061,-0.91 0.182,-1.484l0.968,0c-0.193,0.551 -0.288,1.01 -0.288,1.373c0,0.571 0.177,0.856 0.531,0.856c0.232,0 0.429,-0.211 0.59,-0.633l0.154,-0.4c0.226,-0.599 0.456,-1.016 0.689,-1.25c0.233,-0.234 0.533,-0.352 0.899,-0.352c0.481,0 0.871,0.199 1.171,0.598c0.299,0.4 0.449,0.918 0.449,1.558c0,0.614 -0.093,1.235 -0.28,1.862Z" style="fill:white;fill-rule:nonzero;"/>
    <path id="path8450" d="M33.432,41.043l-0.963,0c0.72,0.447 1.08,1.027 1.08,1.741c0,0.456 -0.144,0.816 -0.433,1.08c-0.289,0.264 -0.683,0.396 -1.183,0.396l-3.612,0l0,-1.378l3.272,0c0.581,0 0.871,-0.195 0.871,-0.582c0,-0.434 -0.308,-0.854 -0.927,-1.257l-3.216,0l0,-1.378l5.111,0l0,1.378Z" style="fill:white;fill-rule:nonzero;"/>
    <path id="path8452" d="M35.272,37.942l-6.951,0l0,-1.378l0.963,0c-0.72,-0.353 -1.08,-0.911 -1.08,-1.671c0,-0.614 0.226,-1.098 0.676,-1.45c0.45,-0.352 1.069,-0.529 1.857,-0.529c0.856,0 1.539,0.199 2.049,0.596c0.509,0.398 0.763,0.929 0.763,1.598c0,0.536 -0.211,1.021 -0.633,1.456l2.356,0l0,1.378Zm-3.176,-1.378c0.373,-0.335 0.559,-0.692 0.559,-1.071c0,-0.338 -0.164,-0.608 -0.491,-0.81c-0.327,-0.201 -0.764,-0.302 -1.311,-0.302c-1.046,0 -1.569,0.337 -1.569,1.01c0,0.407 0.263,0.798 0.787,1.173l2.025,0Z" style="fill:white;fill-rule:nonzero;"/>
    <path id="path8454" d="M35.272,31.625l-6.951,0l0,-1.378l0.963,0c-0.72,-0.354 -1.08,-0.911 -1.08,-1.672c0,-0.614 0.226,-1.098 0.676,-1.45c0.45,-0.352 1.069,-0.528 1.857,-0.528c0.856,0 1.539,0.198 2.049,0.595c0.509,0.398 0.763,0.93 0.763,1.598c0,0.537 -0.211,1.023 -0.633,1.457l2.356,0l0,1.378Zm-3.176,-1.378c0.373,-0.336 0.559,-0.693 0.559,-1.071c0,-0.338 -0.164,-0.608 -0.491,-0.81c-0.327,-0.202 -0.764,-0.302 -1.311,-0.302c-1.046,0 -1.569,0.336 -1.569,1.01c0,0.406 0.263,0.797 0.787,1.173l2.025,0Z" style="fill:white;fill-rule:nonzero;"/>
    <path id="rect8456" d="M26.081,23.929l0,1.379l7.351,0l0,-1.379l-7.351,0Z" style="fill:white;"/>
    <path id="path8458" d="M35.272,22.188l-1.84,-1.159l-5.111,1.894l0,-1.48l3.416,-1.266l-3.416,-1.504l0,-1.048l6.951,3.157l0,1.406Z" style="fill:white;fill-rule:nonzero;"/>
    <rect id="rect8463" x="15.605" y="323.723" width="1.721" height="0.904" style="fill:white;"/>
    <path id="path8465" d="M18.918,322.251l-0.66,0l0,-0.997l1.837,0l0,4.526l-1.177,0l0,-3.529Z" style="fill:white;fill-rule:nonzero;"/>
    <path id="path8467" d="M24.809,325.78l-3.642,0l1.121,-1.164c0.296,-0.309 0.528,-0.569 0.696,-0.785c0.168,-0.212 0.292,-0.392 0.376,-0.54c0.08,-0.148 0.132,-0.268 0.152,-0.36c0.02,-0.092 0.032,-0.172 0.032,-0.236c0,-0.068 -0.012,-0.132 -0.036,-0.196c-0.02,-0.064 -0.052,-0.12 -0.096,-0.172c-0.044,-0.048 -0.1,-0.088 -0.16,-0.12c-0.064,-0.028 -0.136,-0.045 -0.22,-0.045c-0.16,0 -0.284,0.053 -0.372,0.157c-0.092,0.104 -0.136,0.232 -0.136,0.388c0,0.044 0.004,0.108 0.016,0.192l-1.285,0c0,-0.264 0.044,-0.504 0.132,-0.72c0.084,-0.217 0.204,-0.401 0.361,-0.557c0.156,-0.156 0.344,-0.276 0.556,-0.36c0.216,-0.084 0.448,-0.128 0.704,-0.128c0.252,0 0.484,0.04 0.7,0.12c0.212,0.08 0.401,0.192 0.557,0.336c0.156,0.144 0.276,0.316 0.364,0.516c0.088,0.197 0.132,0.413 0.132,0.645c0,0.248 -0.052,0.476 -0.16,0.684c-0.104,0.212 -0.272,0.428 -0.504,0.648l-0.753,0.701l1.465,0l0,0.996Z" style="fill:white;fill-rule:nonzero;"/>
    <path id="path8469" d="M26.357,321.254l1.093,2.757l1.096,-2.757l1.281,0l-1.909,4.526l-0.936,0l-1.901,-4.526l1.276,0Z" style="fill:white;fill-rule:nonzero;"/>
    <path id="path8473" d="M15.037,256.135l1.225,0l0,-1.225l0.768,0l0,1.225l1.216,0l0,0.768l-1.216,0l0,1.225l-0.768,0l0,-1.225l-1.225,0l0,-0.768Z" style="fill:white;fill-rule:nonzero;"/>
    <path id="path8475" d="M20.275,255.251l-0.66,0l0,-0.997l1.837,0l0,4.526l-1.177,0l0,-3.529Z" style="fill:white;fill-rule:nonzero;"/>
    <path id="path8477" d="M26.166,258.78l-3.642,0l1.125,-1.164c0.296,-0.309 0.528,-0.569 0.692,-0.785c0.168,-0.212 0.296,-0.392 0.376,-0.54c0.084,-0.148 0.132,-0.268 0.152,-0.36c0.02,-0.092 0.032,-0.172 0.032,-0.236c0,-0.068 -0.012,-0.132 -0.032,-0.196c-0.024,-0.064 -0.056,-0.12 -0.1,-0.172c-0.044,-0.048 -0.096,-0.088 -0.16,-0.12c-0.06,-0.028 -0.136,-0.045 -0.22,-0.045c-0.156,0 -0.284,0.053 -0.372,0.157c-0.092,0.104 -0.136,0.232 -0.136,0.388c0,0.044 0.008,0.108 0.02,0.192l-1.285,0c0,-0.264 0.04,-0.504 0.128,-0.72c0.084,-0.217 0.208,-0.401 0.364,-0.557c0.157,-0.156 0.341,-0.276 0.553,-0.36c0.216,-0.084 0.452,-0.128 0.704,-0.128c0.252,0 0.488,0.04 0.7,0.12c0.216,0.08 0.4,0.192 0.557,0.336c0.156,0.144 0.276,0.316 0.364,0.516c0.088,0.197 0.132,0.413 0.132,0.645c0,0.248 -0.052,0.476 -0.156,0.684c-0.108,0.212 -0.276,0.428 -0.509,0.648l-0.752,0.701l1.465,0l0,0.996Z" style="fill:white;fill-rule:nonzero;"/>
    <path id="path8479" d="M27.714,254.254l1.093,2.757l1.096,-2.757l1.281,0l-1.909,4.526l-0.936,0l-1.901,-4.526l1.276,0Z" style="fill:white;fill-rule:nonzero;"/>
    <path id="path8483" d="M16.677,222.135l1.225,0l0,-1.225l0.768,0l0,1.225l1.217,0l0,0.768l-1.217,0l0,1.225l-0.768,0l0,-1.225l-1.225,0l0,-0.768Z" style="fill:white;fill-rule:nonzero;"/>
    <path id="path8485" d="M23.684,221.251l-1.565,0l-0.08,0.5c0.072,-0.008 0.14,-0.016 0.2,-0.02c0.061,-0.008 0.121,-0.012 0.185,-0.012c0.228,0 0.44,0.04 0.636,0.12c0.196,0.08 0.364,0.192 0.504,0.332c0.14,0.14 0.252,0.308 0.332,0.504c0.08,0.196 0.12,0.408 0.12,0.64c0,0.244 -0.048,0.465 -0.136,0.661c-0.092,0.196 -0.216,0.364 -0.38,0.5c-0.164,0.14 -0.364,0.244 -0.6,0.32c-0.236,0.072 -0.5,0.108 -0.789,0.108c-0.272,0 -0.528,-0.032 -0.776,-0.096c-0.244,-0.068 -0.476,-0.168 -0.692,-0.304l0.176,-1.105c0.2,0.172 0.4,0.305 0.608,0.393c0.208,0.092 0.408,0.136 0.596,0.136c0.24,0 0.429,-0.064 0.569,-0.196c0.14,-0.128 0.212,-0.289 0.212,-0.481c0,-0.224 -0.096,-0.408 -0.284,-0.544c-0.188,-0.14 -0.433,-0.208 -0.737,-0.208c-0.136,0 -0.276,0.016 -0.42,0.044c-0.144,0.032 -0.288,0.08 -0.424,0.144l0.376,-2.433l2.369,0l0,0.997Z" style="fill:white;fill-rule:nonzero;"/>
    <path id="path8487" d="M25.685,220.254l1.088,2.757l1.101,-2.757l1.276,0l-1.908,4.526l-0.937,0l-1.901,-4.526l1.281,0Z" style="fill:white;fill-rule:nonzero;"/>
    <path id="path8491" d="M17.411,188.369l1.093,2.757l1.1,-2.757l1.277,0l-1.909,4.526l-0.936,0l-1.901,-4.526l1.276,0Z" style="fill:white;fill-rule:nonzero;"/>
    <path id="path8493" d="M23.454,191.214l-0.528,-1.504l-0.528,1.504l1.056,0Zm0.312,0.897l-1.681,0l-0.268,0.784l-1.252,0l1.72,-4.526l1.285,0l1.721,4.526l-1.253,0l-0.272,-0.784Z" style="fill:white;fill-rule:nonzero;"/>
    <path id="path8495" d="M26.983,190.394l0.221,0c0.232,0 0.412,-0.048 0.536,-0.144c0.124,-0.096 0.184,-0.236 0.184,-0.416c0,-0.18 -0.06,-0.316 -0.184,-0.412c-0.124,-0.096 -0.304,-0.145 -0.536,-0.145l-0.221,0l0,1.117Zm2.586,2.501l-1.465,0l-1.121,-1.741l0,1.741l-1.176,0l0,-4.526l1.829,0c0.252,0 0.472,0.04 0.66,0.112c0.188,0.076 0.344,0.176 0.464,0.304c0.124,0.128 0.216,0.276 0.276,0.444c0.064,0.169 0.096,0.349 0.096,0.541c0,0.344 -0.084,0.624 -0.252,0.836c-0.164,0.212 -0.408,0.36 -0.732,0.436l1.421,1.853Z" style="fill:white;fill-rule:nonzero;"/>
    <path id="path8499" d="M17.677,290.247l2.333,0c0,0.24 -0.012,0.46 -0.032,0.656c-0.02,0.196 -0.06,0.376 -0.12,0.544c-0.08,0.237 -0.196,0.445 -0.34,0.629c-0.144,0.18 -0.312,0.332 -0.508,0.456c-0.192,0.12 -0.405,0.216 -0.637,0.276c-0.232,0.064 -0.476,0.096 -0.732,0.096c-0.352,0 -0.672,-0.056 -0.964,-0.172c-0.288,-0.116 -0.541,-0.28 -0.749,-0.488c-0.208,-0.212 -0.368,-0.464 -0.484,-0.757c-0.116,-0.296 -0.176,-0.62 -0.176,-0.976c0,-0.352 0.06,-0.672 0.172,-0.968c0.116,-0.292 0.276,-0.545 0.488,-0.753c0.208,-0.208 0.461,-0.372 0.757,-0.488c0.296,-0.116 0.628,-0.172 0.992,-0.172c0.472,0 0.884,0.1 1.241,0.304c0.356,0.204 0.64,0.52 0.848,0.949l-1.116,0.464c-0.105,-0.248 -0.241,-0.428 -0.409,-0.536c-0.164,-0.108 -0.352,-0.161 -0.564,-0.161c-0.176,0 -0.336,0.033 -0.48,0.101c-0.144,0.064 -0.268,0.16 -0.368,0.28c-0.104,0.124 -0.184,0.268 -0.24,0.44c-0.06,0.172 -0.088,0.364 -0.088,0.576c0,0.192 0.024,0.372 0.076,0.536c0.048,0.164 0.124,0.304 0.224,0.424c0.1,0.121 0.224,0.213 0.372,0.281c0.148,0.064 0.32,0.1 0.516,0.1c0.116,0 0.228,-0.016 0.336,-0.04c0.108,-0.028 0.204,-0.068 0.288,-0.128c0.088,-0.056 0.16,-0.132 0.216,-0.225c0.056,-0.092 0.092,-0.204 0.113,-0.336l-0.965,0l0,-0.912Z" style="fill:white;fill-rule:nonzero;"/>
    <path id="path8501" d="M20.754,292.78l0,-4.526l1.177,0l2.173,2.769l0,-2.769l1.168,0l0,4.526l-1.168,0l-2.173,-2.765l0,2.765l-1.177,0Z" style="fill:white;fill-rule:nonzero;"/>
    <path id="path8503" d="M27.397,291.784l0.268,0c0.204,0 0.388,-0.032 0.548,-0.096c0.161,-0.064 0.293,-0.153 0.405,-0.265c0.108,-0.112 0.192,-0.244 0.252,-0.4c0.056,-0.152 0.088,-0.32 0.088,-0.504c0,-0.18 -0.032,-0.348 -0.092,-0.504c-0.06,-0.156 -0.144,-0.292 -0.256,-0.404c-0.108,-0.112 -0.244,-0.2 -0.405,-0.264c-0.16,-0.064 -0.34,-0.096 -0.54,-0.096l-0.268,0l0,2.533Zm-1.176,-3.53l1.74,0c0.308,0 0.597,0.064 0.865,0.188c0.272,0.124 0.508,0.288 0.708,0.496c0.204,0.204 0.36,0.445 0.476,0.721c0.116,0.272 0.176,0.56 0.176,0.86c0,0.296 -0.056,0.58 -0.172,0.852c-0.112,0.277 -0.272,0.517 -0.472,0.725c-0.204,0.208 -0.44,0.376 -0.708,0.5c-0.272,0.124 -0.561,0.184 -0.873,0.184l-1.74,0l0,-4.526Z" style="fill:white;fill-rule:nonzero;"/>
    <path id="path8507" d="M37.188,152.65c4.17,-7.223 2.538,-16.487 -3.854,-21.848c-6.388,-5.361 -15.794,-5.361 -22.183,0c-6.388,5.361 -8.023,14.625 -3.851,21.848" style="fill:none;stroke:rgb(204,204,204);stroke-width:1px;stroke-linejoin:miter;stroke-miterlimit:4;"/>
    <path id="path8510" d="M36.624,154.467l0.037,6.72" style="fill:rgb(204,204,204);stroke:rgb(204,204,204);stroke-width:1px;stroke-linejoin:miter;stroke-miterlimit:4;"/>
    <path id="path8513" d="M40.001,157.779l-6.718,0.031" style="fill:rgb(204,204,204);stroke:rgb(204,204,204);stroke-width:1px;stroke-linejoin:miter;stroke-miterlimit:4;"/>
    <path id="path8516" d="M12.102,157.589l-6.718,0.031" style="fill:rgb(204,204,204);stroke:rgb(204,204,204);stroke-width:1px;stroke-linejoin:miter;stroke-miterlimit:4;"/>
    <path id="path8519" d="M22.243,144.025l-0.034,-19.211" style="fill:none;stroke:rgb(204,204,204);stroke-width:1px;stroke-linejoin:miter;stroke-miterlimit:4;"/>
  </g>
</svg>