<?xml version="1.0" encoding="UTF-8" standalone="no"?>
<!DOCTYPE svg PUBLIC "-//W3C//DTD SVG 1.1//EN" "http://www.w3.org/Graphics/SVG/1.1/DTD/svg11.dtd">
<svg width="45px" height="380px" version="1.1" xmlns="http://www.w3.org/2000/svg" xmlns:xlink="http://www.w3.org/1999/xlink" xml:space="preserve" xmlns:serif="http://www.serif.com/" style="fill-rule:evenodd;clip-rule:evenodd;stroke-miterlimit:10;">
    <g id="Background" transform="matrix(0.15,0,0,1,1.20792e-14,0)">
        <g transform="matrix(7.57881,0,0,3.78266,-0.408689,-743.338)">
            <g id="text9293-4">
                <rect id="rect9931" x="0.054" y="196.512" width="39.584" height="100.458" style="fill:rgb(26,26,26);"/>
            </g>
        </g>
        <g transform="matrix(8.77263,0,0,4.81813,-2014.09,-1482.29)">
            <path d="M261.093,342.452c0,-0.599 -1.781,-1.086 -3.975,-1.086l-20.863,0c-2.194,0 -3.975,0.487 -3.975,1.086l0,32.334c0,0.599 1.781,1.085 3.975,1.085l20.863,0c2.194,0 3.975,-0.486 3.975,-1.085l0,-32.334Z"/>
        </g>
        <g transform="matrix(5.23715e-16,-1.33192,8.87945,8.31783e-17,135.584,117.183)">
            <g id="text7967">
                <path d="M2.597,-4.373l2.673,0l0,-2.748l1.851,0l0,7.121l-1.851,0l0,-2.937l-2.673,0l0,2.937l-1.851,0l0,-7.121l1.851,0l0,2.748Z" style="fill:rgb(102,102,102);fill-rule:nonzero;"/>
                <path d="M10.333,-3.419l-2.598,-3.702l2.21,0l1.323,1.945l1.313,-1.945l2.21,0l-2.607,3.702l0,3.419l-1.851,0l0,-3.419Z" style="fill:rgb(102,102,102);fill-rule:nonzero;"/>
                <path d="M17.294,-3.854l0.614,0c0.68,0 1.02,-0.295 1.02,-0.887c0,-0.592 -0.34,-0.888 -1.02,-0.888l-0.614,0l0,1.775Zm0,3.854l-1.852,0l0,-7.121l2.947,0c0.8,0 1.412,0.207 1.837,0.623c0.425,0.415 0.638,1.001 0.638,1.757c0,0.755 -0.213,1.341 -0.638,1.756c-0.425,0.416 -1.037,0.624 -1.837,0.624l-1.095,0l0,2.361Z" style="fill:rgb(102,102,102);fill-rule:nonzero;"/>
                <path d="M25.898,-5.554l-2.201,0l0,1.19l2.078,0l0,1.568l-2.078,0l0,1.228l2.201,0l0,1.568l-4.052,0l0,-7.121l4.052,0l0,1.567Z" style="fill:rgb(102,102,102);fill-rule:nonzero;"/>
                <path d="M29.081,-3.939l0.349,0c0.366,0 0.646,-0.075 0.841,-0.226c0.195,-0.151 0.293,-0.369 0.293,-0.652c0,-0.283 -0.098,-0.5 -0.293,-0.652c-0.195,-0.151 -0.475,-0.226 -0.841,-0.226l-0.349,0l0,1.756Zm4.071,3.939l-2.305,0l-1.766,-2.739l0,2.739l-1.851,0l0,-7.121l2.88,0c0.397,0 0.743,0.058 1.039,0.174c0.296,0.117 0.54,0.276 0.732,0.477c0.192,0.202 0.337,0.435 0.435,0.699c0.097,0.265 0.146,0.548 0.146,0.85c0,0.542 -0.131,0.981 -0.392,1.318c-0.261,0.337 -0.647,0.565 -1.157,0.685l2.239,2.918Z" style="fill:rgb(102,102,102);fill-rule:nonzero;"/>
                <path d="M35.777,-3.854l0.614,0c0.68,0 1.02,-0.295 1.02,-0.887c0,-0.592 -0.34,-0.888 -1.02,-0.888l-0.614,0l0,1.775Zm0,3.854l-1.851,0l0,-7.121l2.947,0c0.8,0 1.412,0.207 1.837,0.623c0.425,0.415 0.637,1.001 0.637,1.757c0,0.755 -0.212,1.341 -0.637,1.756c-0.425,0.416 -1.037,0.624 -1.837,0.624l-1.096,0l0,2.361Z" style="fill:rgb(102,102,102);fill-rule:nonzero;"/>
                <path d="M41.945,-3.561c0,0.284 0.053,0.545 0.16,0.784c0.107,0.239 0.252,0.447 0.435,0.624c0.182,0.176 0.395,0.313 0.637,0.41c0.243,0.098 0.499,0.147 0.77,0.147c0.271,0 0.527,-0.049 0.77,-0.147c0.242,-0.097 0.456,-0.234 0.642,-0.41c0.186,-0.177 0.332,-0.385 0.439,-0.624c0.107,-0.239 0.161,-0.5 0.161,-0.784c0,-0.283 -0.054,-0.544 -0.161,-0.784c-0.107,-0.239 -0.253,-0.447 -0.439,-0.623c-0.186,-0.176 -0.4,-0.313 -0.642,-0.411c-0.243,-0.097 -0.499,-0.146 -0.77,-0.146c-0.271,0 -0.527,0.049 -0.77,0.146c-0.242,0.098 -0.455,0.235 -0.637,0.411c-0.183,0.176 -0.328,0.384 -0.435,0.623c-0.107,0.24 -0.16,0.501 -0.16,0.784Zm-1.936,0c0,-0.529 0.097,-1.021 0.292,-1.478c0.196,-0.456 0.466,-0.855 0.813,-1.195c0.346,-0.34 0.76,-0.606 1.242,-0.798c0.481,-0.192 1.012,-0.288 1.591,-0.288c0.573,0 1.102,0.096 1.587,0.288c0.485,0.192 0.902,0.458 1.251,0.798c0.35,0.34 0.622,0.739 0.817,1.195c0.195,0.457 0.293,0.949 0.293,1.478c0,0.529 -0.098,1.022 -0.293,1.478c-0.195,0.457 -0.467,0.855 -0.817,1.195c-0.349,0.34 -0.766,0.606 -1.251,0.798c-0.485,0.192 -1.014,0.288 -1.587,0.288c-0.579,0 -1.11,-0.096 -1.591,-0.288c-0.482,-0.192 -0.896,-0.458 -1.242,-0.798c-0.347,-0.34 -0.617,-0.738 -0.813,-1.195c-0.195,-0.456 -0.292,-0.949 -0.292,-1.478Z" style="fill:rgb(102,102,102);fill-rule:nonzero;"/>
                <path d="M50.143,-7.121l1.228,4.599l1.511,-4.599l1.473,0l1.512,4.599l1.227,-4.599l1.937,0l-2.125,7.121l-1.889,0l-1.398,-4.127l-1.398,4.127l-1.889,0l-2.125,-7.121l1.936,0Z" style="fill:rgb(102,102,102);fill-rule:nonzero;"/>
                <path d="M63.829,-5.554l-2.201,0l0,1.19l2.078,0l0,1.568l-2.078,0l0,1.228l2.201,0l0,1.568l-4.052,0l0,-7.121l4.052,0l0,1.567Z" style="fill:rgb(102,102,102);fill-rule:nonzero;"/>
                <path d="M67.012,-3.939l0.349,0c0.365,0 0.645,-0.075 0.841,-0.226c0.195,-0.151 0.292,-0.369 0.292,-0.652c0,-0.283 -0.097,-0.5 -0.292,-0.652c-0.196,-0.151 -0.476,-0.226 -0.841,-0.226l-0.349,0l0,1.756Zm4.07,3.939l-2.304,0l-1.766,-2.739l0,2.739l-1.852,0l0,-7.121l2.881,0c0.397,0 0.743,0.058 1.039,0.174c0.296,0.117 0.54,0.276 0.732,0.477c0.192,0.202 0.337,0.435 0.434,0.699c0.098,0.265 0.147,0.548 0.147,0.85c0,0.542 -0.131,0.981 -0.392,1.318c-0.261,0.337 -0.647,0.565 -1.157,0.685l2.238,2.918Z" style="fill:rgb(102,102,102);fill-rule:nonzero;"/>
            </g>
        </g>
        <g id="g8091" transform="matrix(0.239503,0,0,0.0359254,153.259,347.46)">
            <path id="path4" d="M210.282,78.87c0,-125.517 -101.752,-227.268 -227.271,-227.268c-125.514,0 -227.267,101.751 -227.267,227.268c0,125.516 101.752,227.268 227.267,227.268c125.519,0 227.271,-101.752 227.271,-227.268l0,0Z" style="fill:rgb(117,117,117);fill-rule:nonzero;stroke:rgb(53,53,53);stroke-width:17px;"/>
            <g id="g40" transform="matrix(1,0,0,1,-426.825,-542.575)">
                <path id="polygon6" d="M357.002,759.965l15.391,-24.781l-29.594,-66.614l-61.688,-63.583l12.788,86.322l16.629,35.632l23.179,35.166l23.295,-2.142Z" style="fill:rgb(43,43,43);fill-rule:nonzero;"/>
                <path id="polygon8" d="M460.762,760.17l-15.392,-24.783l29.597,-66.612l61.685,-63.582l-12.787,86.321l-16.63,35.631l-23.175,35.168l-23.298,-2.143Z" style="fill:rgb(38,38,38);fill-rule:nonzero;"/>
                <path id="polygon12" d="M337.948,452.81l71.936,-18.383l0,374.323l-37.568,-73.799l-29.517,-66.381l-28.471,-16.175l-57.105,-81.295l-1.598,-21.58l31.971,-57.547l50.352,-39.163Z" style="fill:rgb(66,66,66);fill-rule:nonzero;"/>
                <path id="polygon14" d="M481.727,452.944l-71.932,-18.382l0,374.325l37.564,-73.801l29.518,-66.379l28.473,-16.178l57.101,-81.295l1.599,-21.579l-31.969,-57.547l-50.354,-39.164Z" style="fill:rgb(51,51,51);fill-rule:nonzero;"/>
                <path id="polyline16" d="M361.886,616.429l47.96,-46.887l0,34.229l-47.96,47.827l0,-35.169" style="fill:rgb(76,76,76);fill-rule:nonzero;"/>
                <path id="polygon18" d="M409.881,603.732l-47.957,47.827l10.469,83.625l37.491,73.566l-0.003,-205.018Z" style="fill:rgb(91,91,91);fill-rule:nonzero;"/>
                <path id="polygon20" d="M409.884,808.75l-37.491,-73.566l37.485,-17.672l0.006,91.238Z" style="fill:rgb(51,51,51);fill-rule:nonzero;"/>
                <path id="polygon22" d="M361.924,651.559l0,-35.169l-34.766,-43.958l-41.119,-33.129l-0.043,25.934l21.582,50.752l54.346,35.57Z" style="fill:white;fill-rule:nonzero;"/>
                <path id="polyline24" d="M457.816,616.448l-47.957,-46.887l0,34.229l47.957,47.826l0,-35.168" style="fill:rgb(45,45,45);fill-rule:nonzero;"/>
                <path id="polygon26" d="M409.804,603.732l47.954,47.827l-10.469,83.625l-37.488,73.566l0.003,-205.018Z" style="fill:rgb(53,53,53);fill-rule:nonzero;"/>
                <path id="polygon28" d="M409.801,808.75l37.488,-73.566l-37.482,-17.672l-0.006,91.238Z" style="fill:rgb(25,25,25);fill-rule:nonzero;"/>
                <path id="polygon30" d="M457.758,651.559l0,-35.168l34.765,-43.958l41.122,-33.13l0.041,25.935l-21.578,50.753l-54.35,35.568Z" style="fill:white;fill-rule:nonzero;"/>
                <path id="polyline32" d="M338.399,452.22l71.425,117.329l-0.154,-135.546" style="fill:rgb(56,56,56);fill-rule:nonzero;"/>
                <path id="polyline34" d="M481.271,452.232l-71.425,117.329l0.154,-135.545" style="fill:rgb(45,45,45);fill-rule:nonzero;"/>
                <path id="polygon36" d="M342.815,668.578l19.143,-16.982l10.448,83.674l-29.591,-66.692Z" style="fill:rgb(51,51,51);fill-rule:nonzero;"/>
                <path id="polygon38" d="M476.975,668.989l-19.144,-16.982l-10.448,83.675l29.592,-66.693Z" style="fill:rgb(28,28,28);fill-rule:nonzero;"/>
            </g>
        </g>
        <g id="g50" transform="matrix(0.417904,0,0,0.0626855,-21.2725,276.614)">
            <path id="path42" d="M224.699,869.111l27.948,0l26.026,86.945l26.911,-86.945l27.806,0l-36.174,108.69c-3.38,10.021 -9.436,15.027 -18.173,15.027c-8.854,0 -14.971,-5.059 -18.345,-15.181l-35.999,-108.536Z" style="fill:rgb(102,102,102);fill-rule:nonzero;"/>
            <path id="path44" d="M335.484,961.026l0,-91.915l26.211,0l0,91.041c0.464,3.263 3.495,4.893 9.087,4.893l17.824,0c5.357,0 8.328,-1.512 8.912,-4.543l0.175,-0.874l0,-90.517l26.211,0l0,91.74c0,8.038 -0.873,13.747 -2.621,17.125c-4.66,8.972 -12.873,13.455 -24.639,13.455l-33.9,0c-12.118,0 -20.388,-4.601 -24.814,-13.805c-1.632,-3.377 -2.446,-8.911 -2.446,-16.6l0,0Z" style="fill:rgb(102,102,102);fill-rule:nonzero;"/>
            <path id="path46" d="M435.961,961.551l0,-92.439l26.212,0l0,90.342c0,3.73 2.211,5.592 6.64,5.592l46.657,0l-0.175,26.387l-48.754,0c-1.747,0 -3.263,-0.058 -4.543,-0.175c-9.437,-0.813 -16.137,-3.582 -20.096,-8.3c-3.962,-4.72 -5.941,-11.854 -5.941,-21.407l0,0Z" style="fill:rgb(102,102,102);fill-rule:nonzero;"/>
            <path id="path48" d="M516.341,895.497l0,-26.386l78.635,0l0,26.386l-26.386,0l0,95.935l-26.212,0l0,-95.935l-26.037,0Z" style="fill:rgb(102,102,102);fill-rule:nonzero;"/>
        </g>
        <g transform="matrix(4.32208e-16,-1.05877,7.05848,6.48311e-17,222.883,121.932)">
            <g id="text7967-9-5">
                <path d="M0.813,0l0,-4.828l1.302,0l0,4.828l-1.302,0Zm0,-5.641l0,-1.087l1.302,0l0,1.087l-1.302,0Z" style="fill:white;fill-rule:nonzero;"/>
                <path d="M3.742,0l0,-4.828l1.301,0l0,0.91c0.425,-0.68 0.974,-1.02 1.645,-1.02c0.431,0 0.771,0.136 1.02,0.409c0.249,0.273 0.374,0.645 0.374,1.117l0,3.412l-1.302,0l0,-3.091c0,-0.548 -0.181,-0.822 -0.545,-0.822c-0.413,0 -0.81,0.291 -1.192,0.875l0,3.038l-1.301,0Z" style="fill:white;fill-rule:nonzero;"/>
                <path d="M9.792,0l0,-4.015l-0.664,0l0,-0.813l0.664,0l0,-0.334c0,-0.607 0.145,-1.074 0.433,-1.401c0.289,-0.326 0.7,-0.49 1.234,-0.49c0.328,0 0.677,0.06 1.046,0.18l0,0.889c-0.363,-0.162 -0.633,-0.242 -0.809,-0.242c-0.401,0 -0.602,0.366 -0.602,1.099l0,0.299l3.038,0l0,4.828l-1.301,0l0,-4.015l-1.737,0l0,4.015l-1.302,0Zm3.254,-5.641l0,-1.087l1.086,0l0,1.087l-1.086,0Zm-0.73,0.813" style="fill:white;fill-rule:nonzero;"/>
                <path d="M15.759,0l0,-4.828l1.302,0l0,0.91c0.425,-0.68 0.973,-1.02 1.644,-1.02c0.431,0 0.771,0.136 1.02,0.409c0.249,0.273 0.374,0.645 0.374,1.117l0,3.412l-1.301,0l0,-3.091c0,-0.548 -0.182,-0.822 -0.546,-0.822c-0.413,0 -0.81,0.291 -1.191,0.875l0,3.038l-1.302,0Z" style="fill:white;fill-rule:nonzero;"/>
                <path d="M21.673,0l0,-4.828l1.302,0l0,4.828l-1.302,0Zm0,-5.641l0,-1.087l1.302,0l0,1.087l-1.302,0Z" style="fill:white;fill-rule:nonzero;"/>
                <path d="M27.09,-0.026c-0.31,0.09 -0.555,0.136 -0.734,0.136c-1.129,0 -1.693,-0.528 -1.693,-1.583l0,-2.542l-0.541,0l0,-0.813l0.541,0l0,-0.813l1.302,-0.15l0,0.963l1.033,0l0,0.813l-1.033,0l0,2.37c0,0.593 0.242,0.889 0.725,0.889c0.112,0 0.245,-0.021 0.4,-0.062l0,0.792Z" style="fill:white;fill-rule:nonzero;"/>
                <path d="M32.182,-0.163c-0.618,0.182 -1.205,0.273 -1.759,0.273c-0.806,0 -1.442,-0.229 -1.908,-0.686c-0.466,-0.457 -0.699,-1.082 -0.699,-1.873c0,-0.748 0.213,-1.349 0.64,-1.805c0.426,-0.456 0.99,-0.684 1.69,-0.684c0.707,0 1.223,0.223 1.548,0.668c0.326,0.446 0.488,1.151 0.488,2.115l-2.994,0c0.088,0.921 0.593,1.381 1.517,1.381c0.437,0 0.929,-0.101 1.477,-0.303l0,0.914Zm-3.012,-2.726l1.733,0c0,-0.824 -0.266,-1.235 -0.796,-1.235c-0.54,0 -0.852,0.411 -0.937,1.235Z" style="fill:white;fill-rule:nonzero;"/>
                <path d="M36.496,1.737l0,-6.565l1.301,0l0,0.91c0.334,-0.68 0.861,-1.02 1.579,-1.02c0.58,0 1.037,0.213 1.37,0.638c0.332,0.425 0.499,1.01 0.499,1.754c0,0.809 -0.188,1.454 -0.563,1.935c-0.375,0.481 -0.878,0.721 -1.508,0.721c-0.508,0 -0.966,-0.199 -1.377,-0.598l0,2.225l-1.301,0Zm1.301,-2.999c0.317,0.352 0.654,0.528 1.012,0.528c0.319,0 0.574,-0.155 0.765,-0.464c0.19,-0.309 0.285,-0.722 0.285,-1.238c0,-0.988 -0.318,-1.482 -0.954,-1.482c-0.384,0 -0.753,0.248 -1.108,0.743l0,1.913Z" style="fill:white;fill-rule:nonzero;"/>
                <path d="M44.49,0.11c-0.754,0 -1.352,-0.228 -1.797,-0.684c-0.444,-0.456 -0.666,-1.069 -0.666,-1.84c0,-0.78 0.224,-1.395 0.671,-1.847c0.447,-0.451 1.054,-0.677 1.822,-0.677c0.771,0 1.38,0.226 1.827,0.677c0.447,0.452 0.671,1.064 0.671,1.838c0,0.792 -0.224,1.412 -0.673,1.86c-0.448,0.449 -1.067,0.673 -1.855,0.673Zm0.022,-0.814c0.747,0 1.121,-0.573 1.121,-1.719c0,-0.525 -0.099,-0.939 -0.297,-1.244c-0.198,-0.305 -0.47,-0.457 -0.816,-0.457c-0.343,0 -0.613,0.152 -0.811,0.457c-0.198,0.305 -0.297,0.722 -0.297,1.253c0,0.525 0.099,0.941 0.295,1.249c0.196,0.308 0.465,0.461 0.805,0.461Z" style="fill:white;fill-rule:nonzero;"/>
                <path d="M49.067,0l-1.341,-4.828l1.209,0l0.95,3.381l1.011,-3.381l1.126,0l0.91,3.399l1.025,-3.399l0.905,0l-1.433,4.828l-1.249,0l-0.879,-3.311l-0.985,3.311l-1.249,0Z" style="fill:white;fill-rule:nonzero;"/>
                <path d="M59.915,-0.163c-0.619,0.182 -1.205,0.273 -1.759,0.273c-0.806,0 -1.443,-0.229 -1.909,-0.686c-0.466,-0.457 -0.699,-1.082 -0.699,-1.873c0,-0.748 0.214,-1.349 0.64,-1.805c0.427,-0.456 0.99,-0.684 1.691,-0.684c0.706,0 1.222,0.223 1.547,0.668c0.326,0.446 0.489,1.151 0.489,2.115l-2.995,0c0.088,0.921 0.594,1.381 1.517,1.381c0.437,0 0.929,-0.101 1.478,-0.303l0,0.914Zm-3.012,-2.726l1.732,0c0,-0.824 -0.265,-1.235 -0.796,-1.235c-0.539,0 -0.851,0.411 -0.936,1.235Z" style="fill:white;fill-rule:nonzero;"/>
                <path d="M61.26,0l0,-4.828l1.302,0l0,0.91c0.337,-0.68 0.85,-1.02 1.539,-1.02c0.082,0 0.162,0.009 0.241,0.026l0,1.161c-0.184,-0.067 -0.356,-0.101 -0.514,-0.101c-0.519,0 -0.941,0.263 -1.266,0.787l0,3.065l-1.302,0Z" style="fill:white;fill-rule:nonzero;"/>
                <path d="M68.194,-0.154l0,-0.954c0.645,0.27 1.196,0.404 1.654,0.404c0.533,0 0.8,-0.181 0.8,-0.545c0,-0.234 -0.22,-0.439 -0.66,-0.615l-0.439,-0.176c-0.478,-0.194 -0.82,-0.402 -1.025,-0.625c-0.205,-0.222 -0.308,-0.498 -0.308,-0.826c0,-0.458 0.175,-0.813 0.523,-1.067c0.349,-0.253 0.837,-0.38 1.465,-0.38c0.393,0 0.86,0.057 1.402,0.172l0,0.914c-0.521,-0.182 -0.954,-0.272 -1.297,-0.272c-0.539,0 -0.809,0.167 -0.809,0.501c0,0.22 0.2,0.406 0.598,0.558l0.378,0.145c0.566,0.214 0.96,0.431 1.181,0.651c0.221,0.22 0.332,0.503 0.332,0.849c0,0.454 -0.188,0.823 -0.565,1.106c-0.377,0.282 -0.867,0.424 -1.471,0.424c-0.58,0 -1.167,-0.088 -1.759,-0.264Z" style="fill:white;fill-rule:nonzero;"/>
                <path d="M76.399,0l0,-0.91c-0.422,0.68 -0.97,1.02 -1.644,1.02c-0.431,0 -0.771,-0.136 -1.02,-0.409c-0.25,-0.273 -0.374,-0.645 -0.374,-1.117l0,-3.412l1.301,0l0,3.091c0,0.548 0.184,0.822 0.55,0.822c0.41,0 0.806,-0.291 1.187,-0.875l0,-3.038l1.302,0l0,4.828l-1.302,0Z" style="fill:white;fill-rule:nonzero;"/>
                <path d="M79.328,1.737l0,-6.565l1.301,0l0,0.91c0.334,-0.68 0.861,-1.02 1.579,-1.02c0.58,0 1.037,0.213 1.369,0.638c0.333,0.425 0.5,1.01 0.5,1.754c0,0.809 -0.188,1.454 -0.563,1.935c-0.376,0.481 -0.878,0.721 -1.509,0.721c-0.507,0 -0.965,-0.199 -1.376,-0.598l0,2.225l-1.301,0Zm1.301,-2.999c0.317,0.352 0.654,0.528 1.012,0.528c0.319,0 0.574,-0.155 0.765,-0.464c0.19,-0.309 0.285,-0.722 0.285,-1.238c0,-0.988 -0.318,-1.482 -0.954,-1.482c-0.384,0 -0.753,0.248 -1.108,0.743l0,1.913Z" style="fill:white;fill-rule:nonzero;"/>
                <path d="M85.294,1.737l0,-6.565l1.302,0l0,0.91c0.334,-0.68 0.86,-1.02 1.579,-1.02c0.58,0 1.037,0.213 1.369,0.638c0.333,0.425 0.499,1.01 0.499,1.754c0,0.809 -0.187,1.454 -0.562,1.935c-0.376,0.481 -0.878,0.721 -1.509,0.721c-0.507,0 -0.966,-0.199 -1.376,-0.598l0,2.225l-1.302,0Zm1.302,-2.999c0.317,0.352 0.654,0.528 1.011,0.528c0.32,0 0.575,-0.155 0.765,-0.464c0.191,-0.309 0.286,-0.722 0.286,-1.238c0,-0.988 -0.318,-1.482 -0.954,-1.482c-0.384,0 -0.753,0.248 -1.108,0.743l0,1.913Z" style="fill:white;fill-rule:nonzero;"/>
                <rect x="91.261" y="-6.943" width="1.302" height="6.943" style="fill:white;fill-rule:nonzero;"/>
                <path d="M94.207,1.737l1.095,-1.737l-1.789,-4.828l1.398,0l1.196,3.227l1.42,-3.227l0.99,0l-2.982,6.565l-1.328,0Z" style="fill:white;fill-rule:nonzero;"/>
            </g>
        </g>
        <g transform="matrix(26.6777,0,0,4.00166,190.7,324.78)">
            <rect x="0" y="-0.514" width="0.43" height="0.226" style="fill:white;fill-rule:nonzero;"/>
            <path d="M0.828,-0.882l-0.165,0l0,-0.249l0.459,0l0,1.131l-0.294,0l0,-0.882Z" style="fill:white;fill-rule:nonzero;"/>
            <path d="M2.3,0l-0.91,0l0.28,-0.291c0.074,-0.077 0.132,-0.142 0.174,-0.196c0.042,-0.053 0.073,-0.098 0.094,-0.135c0.02,-0.037 0.033,-0.067 0.038,-0.09c0.005,-0.023 0.008,-0.043 0.008,-0.059c0,-0.017 -0.003,-0.033 -0.009,-0.049c-0.005,-0.016 -0.013,-0.03 -0.024,-0.043c-0.011,-0.012 -0.025,-0.022 -0.04,-0.03c-0.016,-0.007 -0.034,-0.011 -0.055,-0.011c-0.04,0 -0.071,0.013 -0.093,0.039c-0.023,0.026 -0.034,0.058 -0.034,0.097c0,0.011 0.001,0.027 0.004,0.048l-0.321,0c0,-0.066 0.011,-0.126 0.033,-0.18c0.021,-0.054 0.051,-0.1 0.09,-0.139c0.039,-0.039 0.086,-0.069 0.139,-0.09c0.054,-0.021 0.112,-0.032 0.176,-0.032c0.063,0 0.121,0.01 0.175,0.03c0.053,0.02 0.1,0.048 0.139,0.084c0.039,0.036 0.069,0.079 0.091,0.129c0.022,0.049 0.033,0.103 0.033,0.161c0,0.062 -0.013,0.119 -0.04,0.171c-0.026,0.053 -0.068,0.107 -0.126,0.162l-0.188,0.175l0.366,0l0,0.249Z" style="fill:white;fill-rule:nonzero;"/>
            <path d="M2.687,-1.131l0.273,0.689l0.274,-0.689l0.32,0l-0.477,1.131l-0.234,0l-0.475,-1.131l0.319,0Z" style="fill:white;fill-rule:nonzero;"/>
        </g>
        <g transform="matrix(26.6777,0,0,4.00166,184.033,257.78)">
            <path d="M0.108,-0.661l0.306,0l0,-0.306l0.192,0l0,0.306l0.304,0l0,0.192l-0.304,0l0,0.306l-0.192,0l0,-0.306l-0.306,0l0,-0.192Z" style="fill:white;fill-rule:nonzero;"/>
            <path d="M1.417,-0.882l-0.165,0l0,-0.249l0.459,0l0,1.131l-0.294,0l0,-0.882Z" style="fill:white;fill-rule:nonzero;"/>
            <path d="M2.889,0l-0.91,0l0.281,-0.291c0.074,-0.077 0.132,-0.142 0.173,-0.196c0.042,-0.053 0.074,-0.098 0.094,-0.135c0.021,-0.037 0.033,-0.067 0.038,-0.09c0.005,-0.023 0.008,-0.043 0.008,-0.059c0,-0.017 -0.003,-0.033 -0.008,-0.049c-0.006,-0.016 -0.014,-0.03 -0.025,-0.043c-0.011,-0.012 -0.024,-0.022 -0.04,-0.03c-0.015,-0.007 -0.034,-0.011 -0.055,-0.011c-0.039,0 -0.071,0.013 -0.093,0.039c-0.023,0.026 -0.034,0.058 -0.034,0.097c0,0.011 0.002,0.027 0.005,0.048l-0.321,0c0,-0.066 0.01,-0.126 0.032,-0.18c0.021,-0.054 0.052,-0.1 0.091,-0.139c0.039,-0.039 0.085,-0.069 0.138,-0.09c0.054,-0.021 0.113,-0.032 0.176,-0.032c0.063,0 0.122,0.01 0.175,0.03c0.054,0.02 0.1,0.048 0.139,0.084c0.039,0.036 0.069,0.079 0.091,0.129c0.022,0.049 0.033,0.103 0.033,0.161c0,0.062 -0.013,0.119 -0.039,0.171c-0.027,0.053 -0.069,0.107 -0.127,0.162l-0.188,0.175l0.366,0l0,0.249Z" style="fill:white;fill-rule:nonzero;"/>
            <path d="M3.276,-1.131l0.273,0.689l0.274,-0.689l0.32,0l-0.477,1.131l-0.234,0l-0.475,-1.131l0.319,0Z" style="fill:white;fill-rule:nonzero;"/>
        </g>
        <g transform="matrix(26.6777,0,0,4.00166,188.3,223.78)">
            <path d="M0.108,-0.661l0.306,0l0,-0.306l0.192,0l0,0.306l0.304,0l0,0.192l-0.304,0l0,0.306l-0.192,0l0,-0.306l-0.306,0l0,-0.192Z" style="fill:white;fill-rule:nonzero;"/>
            <path d="M1.859,-0.882l-0.391,0l-0.02,0.125c0.018,-0.002 0.035,-0.004 0.05,-0.005c0.015,-0.002 0.03,-0.003 0.046,-0.003c0.057,0 0.11,0.01 0.159,0.03c0.049,0.02 0.091,0.048 0.126,0.083c0.035,0.035 0.063,0.077 0.083,0.126c0.02,0.049 0.03,0.102 0.03,0.16c0,0.061 -0.012,0.116 -0.034,0.165c-0.023,0.049 -0.054,0.091 -0.095,0.125c-0.041,0.035 -0.091,0.061 -0.15,0.08c-0.059,0.018 -0.125,0.027 -0.197,0.027c-0.068,0 -0.132,-0.008 -0.194,-0.024c-0.061,-0.017 -0.119,-0.042 -0.173,-0.076l0.044,-0.276c0.05,0.043 0.1,0.076 0.152,0.098c0.052,0.023 0.102,0.034 0.149,0.034c0.06,0 0.107,-0.016 0.142,-0.049c0.035,-0.032 0.053,-0.072 0.053,-0.12c0,-0.056 -0.024,-0.102 -0.071,-0.136c-0.047,-0.035 -0.108,-0.052 -0.184,-0.052c-0.034,0 -0.069,0.004 -0.105,0.011c-0.036,0.008 -0.072,0.02 -0.106,0.036l0.094,-0.608l0.592,0l0,0.249Z" style="fill:white;fill-rule:nonzero;"/>
            <path d="M2.359,-1.131l0.272,0.689l0.275,-0.689l0.319,0l-0.477,1.131l-0.234,0l-0.475,-1.131l0.32,0Z" style="fill:white;fill-rule:nonzero;"/>
        </g>
        <g transform="matrix(26.6777,0,0,4.00166,194.233,190.895)">
            <path d="M0.319,-1.131l0.273,0.689l0.275,-0.689l0.319,0l-0.477,1.131l-0.234,0l-0.475,-1.131l0.319,0Z" style="fill:white;fill-rule:nonzero;"/>
            <path d="M1.829,-0.42l-0.132,-0.376l-0.132,0.376l0.264,0Zm0.078,0.224l-0.42,0l-0.067,0.196l-0.313,0l0.43,-1.131l0.321,0l0.43,1.131l-0.313,0l-0.068,-0.196Z" style="fill:white;fill-rule:nonzero;"/>
            <path d="M2.711,-0.625l0.055,0c0.058,0 0.103,-0.012 0.134,-0.036c0.031,-0.024 0.046,-0.059 0.046,-0.104c0,-0.045 -0.015,-0.079 -0.046,-0.103c-0.031,-0.024 -0.076,-0.036 -0.134,-0.036l-0.055,0l0,0.279Zm0.646,0.625l-0.366,0l-0.28,-0.435l0,0.435l-0.294,0l0,-1.131l0.457,0c0.063,0 0.118,0.01 0.165,0.028c0.047,0.019 0.086,0.044 0.116,0.076c0.031,0.032 0.054,0.069 0.069,0.111c0.016,0.042 0.024,0.087 0.024,0.135c0,0.086 -0.021,0.156 -0.063,0.209c-0.041,0.053 -0.102,0.09 -0.183,0.109l0.355,0.463Z" style="fill:white;fill-rule:nonzero;"/>
        </g>
        <g transform="matrix(26.6777,0,0,4.00166,200,290.78)">
            <path d="M0.669,-0.633l0.583,0c0,0.06 -0.003,0.115 -0.008,0.164c-0.005,0.049 -0.015,0.094 -0.03,0.136c-0.02,0.059 -0.049,0.111 -0.085,0.157c-0.036,0.045 -0.078,0.083 -0.127,0.114c-0.048,0.03 -0.101,0.054 -0.159,0.069c-0.058,0.016 -0.119,0.024 -0.183,0.024c-0.088,0 -0.168,-0.014 -0.241,-0.043c-0.072,-0.029 -0.135,-0.07 -0.187,-0.122c-0.052,-0.053 -0.092,-0.116 -0.121,-0.189c-0.029,-0.074 -0.044,-0.155 -0.044,-0.244c0,-0.088 0.015,-0.168 0.043,-0.242c0.029,-0.073 0.069,-0.136 0.122,-0.188c0.052,-0.052 0.115,-0.093 0.189,-0.122c0.074,-0.029 0.157,-0.043 0.248,-0.043c0.118,0 0.221,0.025 0.31,0.076c0.089,0.051 0.16,0.13 0.212,0.237l-0.279,0.116c-0.026,-0.062 -0.06,-0.107 -0.102,-0.134c-0.041,-0.027 -0.088,-0.04 -0.141,-0.04c-0.044,0 -0.084,0.008 -0.12,0.025c-0.036,0.016 -0.067,0.04 -0.092,0.07c-0.026,0.031 -0.046,0.067 -0.06,0.11c-0.015,0.043 -0.022,0.091 -0.022,0.144c0,0.048 0.006,0.093 0.019,0.134c0.012,0.041 0.031,0.076 0.056,0.106c0.025,0.03 0.056,0.053 0.093,0.07c0.037,0.016 0.08,0.025 0.129,0.025c0.029,0 0.057,-0.004 0.084,-0.01c0.027,-0.007 0.051,-0.017 0.072,-0.032c0.022,-0.014 0.04,-0.033 0.054,-0.056c0.014,-0.023 0.023,-0.051 0.028,-0.084l-0.241,0l0,-0.228Z" style="fill:white;fill-rule:nonzero;"/>
            <path d="M1.438,0l0,-1.131l0.294,0l0.543,0.692l0,-0.692l0.292,0l0,1.131l-0.292,0l-0.543,-0.691l0,0.691l-0.294,0Z" style="fill:white;fill-rule:nonzero;"/>
            <path d="M3.098,-0.249l0.067,0c0.051,0 0.097,-0.008 0.137,-0.024c0.04,-0.016 0.073,-0.038 0.101,-0.066c0.027,-0.028 0.048,-0.061 0.063,-0.1c0.014,-0.038 0.022,-0.08 0.022,-0.126c0,-0.045 -0.008,-0.087 -0.023,-0.126c-0.015,-0.039 -0.036,-0.073 -0.064,-0.101c-0.027,-0.028 -0.061,-0.05 -0.101,-0.066c-0.04,-0.016 -0.085,-0.024 -0.135,-0.024l-0.067,0l0,0.633Zm-0.294,-0.882l0.435,0c0.077,0 0.149,0.016 0.216,0.047c0.068,0.031 0.127,0.072 0.177,0.124c0.051,0.051 0.09,0.111 0.119,0.18c0.029,0.068 0.044,0.14 0.044,0.215c0,0.074 -0.014,0.145 -0.043,0.213c-0.028,0.069 -0.068,0.129 -0.118,0.181c-0.051,0.052 -0.11,0.094 -0.177,0.125c-0.068,0.031 -0.14,0.046 -0.218,0.046l-0.435,0l0,-1.131Z" style="fill:white;fill-rule:nonzero;"/>
        </g>
        <g transform="matrix(6.66667,0,0,1,-1621.33,49.4617)">
            <g id="path8216-1" transform="matrix(2.83815,0,0,-2.83815,228.989,-597.809)">
                <path d="M18.11,-246.991c1.469,2.545 0.894,5.809 -1.358,7.698c-2.251,1.889 -5.565,1.889 -7.816,0c-2.251,-1.889 -2.827,-5.153 -1.357,-7.698" style="fill:none;stroke:rgb(204,204,204);stroke-width:0.7px;stroke-miterlimit:4;"/>
            </g>
            <g id="path9630" transform="matrix(2.83815,0,0,2.83815,228.989,-597.809)">
                <path d="M17.911,247.631l0.013,2.368" style="fill:rgb(204,204,204);stroke:rgb(204,204,204);stroke-width:0.7px;stroke-miterlimit:4;"/>
            </g>
            <g id="path9630-1" transform="matrix(2.83815,0,0,2.83815,228.989,-597.809)">
                <path d="M19.101,248.798l-2.367,0.011" style="fill:rgb(204,204,204);stroke:rgb(204,204,204);stroke-width:0.7px;stroke-miterlimit:4;"/>
            </g>
            <g id="path9630-1-6" transform="matrix(2.83815,0,0,2.83815,228.989,-597.809)">
                <path d="M9.271,248.731l-2.367,0.011" style="fill:rgb(204,204,204);stroke:rgb(204,204,204);stroke-width:0.7px;stroke-miterlimit:4;"/>
            </g>
            <g id="path9948" transform="matrix(2.83815,0,0,2.83815,228.989,-597.809)">
                <path d="M12.844,243.952l-0.012,-6.769" style="fill:none;stroke:rgb(204,204,204);stroke-width:0.7px;stroke-miterlimit:4;"/>
            </g>
        </g>
    </g>
</svg>
