<?xml version="1.0" encoding="UTF-8" standalone="no"?>
<!DOCTYPE svg PUBLIC "-//W3C//DTD SVG 1.1//EN" "http://www.w3.org/Graphics/SVG/1.1/DTD/svg11.dtd">
<svg width="26px" height="24px" version="1.1" xmlns="http://www.w3.org/2000/svg" xmlns:xlink="http://www.w3.org/1999/xlink" xml:space="preserve" xmlns:serif="http://www.serif.com/" style="fill-rule:evenodd;clip-rule:evenodd;stroke-miterlimit:8.5;">
    <g id="path6413" transform="matrix(0.81175,5.16153e-32,-2.56722e-32,-0.807489,-444.938,1510.69)">
        <path d="M557.25,1841.31c-0.446,0 -0.968,0.305 -1.187,0.692l-7.145,12.646c-0.219,0.388 -0.219,0.994 0,1.382l7.145,12.644c0.219,0.389 0.741,0.694 1.187,0.694l14.272,0c0.446,0 0.968,-0.305 1.187,-0.694l7.145,-12.644c0.219,-0.388 0.219,-0.994 0,-1.382l-7.145,-12.646c-0.219,-0.387 -0.741,-0.692 -1.187,-0.692l-14.272,0Z" style="fill:rgb(146,146,146);fill-rule:nonzero;stroke:rgb(26,26,26);stroke-width:1px;"/>
    </g>
    <g id="path64131" serif:id="path6413" transform="matrix(0.799629,5.08446e-32,-2.54223e-32,-0.799629,-438.345,1495.59)">
        <path d="M557.25,1841.31c-0.446,0 -0.968,0.305 -1.187,0.692l-7.145,12.646c-0.219,0.388 -0.219,0.994 0,1.382l7.145,12.644c0.219,0.389 0.741,0.694 1.187,0.694l14.272,0c0.446,0 0.968,-0.305 1.187,-0.694l7.145,-12.644c0.219,-0.388 0.219,-0.994 0,-1.382l-7.145,-12.646c-0.219,-0.387 -0.741,-0.692 -1.187,-0.692l-14.272,0Z" style="fill:rgb(146,146,146);fill-rule:nonzero;stroke:rgb(48,48,48);stroke-width:1px;"/>
    </g>
    <g id="path64132" serif:id="path6413" transform="matrix(0.760881,4.83807e-32,-2.38667e-32,-0.7507,-416.536,1404.84)">
        <path d="M557.25,1841.31c-0.446,0 -0.968,0.305 -1.187,0.692l-7.145,12.646c-0.219,0.388 -0.219,0.994 0,1.382l7.145,12.644c0.219,0.389 0.741,0.694 1.187,0.694l14.272,0c0.446,0 0.968,-0.305 1.187,-0.694l7.145,-12.644c0.219,-0.388 0.219,-0.994 0,-1.382l-7.145,-12.646c-0.219,-0.387 -0.741,-0.692 -1.187,-0.692l-14.272,0Z" style="fill:rgb(146,146,146);fill-rule:nonzero;stroke:rgb(183,181,181);stroke-width:1px;"/>
    </g>
    <g id="path64133" serif:id="path6413" transform="matrix(0.748783,4.76115e-32,-2.35547e-32,-0.740887,-409.519,1386.78)">
        <path d="M557.25,1841.31c-0.446,0 -0.968,0.305 -1.187,0.692l-7.145,12.646c-0.219,0.388 -0.219,0.994 0,1.382l7.145,12.644c0.219,0.389 0.741,0.694 1.187,0.694l14.272,0c0.446,0 0.968,-0.305 1.187,-0.694l7.145,-12.644c0.219,-0.388 0.219,-0.994 0,-1.382l-7.145,-12.646c-0.219,-0.387 -0.741,-0.692 -1.187,-0.692l-14.272,0Z" style="fill:rgb(146,146,146);fill-rule:nonzero;stroke:rgb(115,115,115);stroke-width:1px;"/>
    </g>
    <g transform="matrix(4.4977,0,0,4.40732,-0.501921,-1.13966)">
        <circle cx="3" cy="3" r="1.976" style="fill:rgb(92,92,92);stroke:rgb(153,153,153);stroke-width:0.22px;stroke-linejoin:round;stroke-miterlimit:1.41421;"/>
    </g>
    <g transform="matrix(4.04457,0,0,4.02159,0.857478,0.0175477)">
        <circle cx="3" cy="3" r="1.976" style="fill:rgb(92,92,92);stroke:rgb(116,116,116);stroke-width:0.25px;stroke-linejoin:round;stroke-miterlimit:1.41421;"/>
    </g>
    <g id="path6435" transform="matrix(0.821424,0,0,-0.824796,-450.609,1542.36)">
        <path d="M556.106,1855.34c0.023,-4.599 3.69,-8.268 8.289,-8.288c4.575,0.013 8.276,3.708 8.271,8.288c-0.003,4.572 -3.705,8.259 -8.271,8.271c-4.59,-0.02 -8.256,-3.68 -8.289,-8.271Z" style="fill:none;stroke:rgb(38,38,38);stroke-width:1px;"/>
    </g>
    <g transform="matrix(2.78288,0,0,2.78288,4.64254,3.73367)">
        <circle cx="3" cy="3" r="1.976"/>
    </g>
</svg>
