<svg width="150px" height="380px" version="1.1" xmlns="http://www.w3.org/2000/svg" xmlns:xlink="http://www.w3.org/1999/xlink" xml:space="preserve" xmlns:serif="http://www.serif.com/" style="fill-rule:evenodd;clip-rule:evenodd;">
  <defs>
    <linearGradient id="_Linear1" x1="0" y1="0" x2="1" y2="0" gradientUnits="userSpaceOnUse" gradientTransform="matrix(150,-379.998,379.998,150,0.000328145,379.998)">
      <stop offset="0" style="stop-color:rgb(9,13,17);stop-opacity:1"/>
      <stop offset="1" style="stop-color:rgb(24,35,46);stop-opacity:1"/>
    </linearGradient>
  </defs>
  <g id="Panel">
    <rect id="rect9931" x="0" y="0" width="150" height="380" style="fill:rgb(26,26,26);"/>
    <rect id="rect9010" x="0" y="0" width="150" height="379.998" style="fill:url(#_Linear1);"/>
    <path id="path9013" d="M143.354,326.966c0,-3.359 -2.728,-6.088 -6.087,-6.088l-28.569,0c-3.36,0 -6.087,2.729 -6.087,6.088l0,28.41c0,3.361 2.727,6.088 6.087,6.088l28.569,0c3.359,0 6.087,-2.727 6.087,-6.088l0,-28.41Z" style="stroke:rgb(65,76,85);stroke-width:1px;"/>
    <path id="path9017" d="M126.904,62.593c2.737,-4.742 1.664,-10.824 -2.534,-14.346c-4.193,-3.521 -10.372,-3.521 -14.566,0c-4.197,3.522 -5.27,9.604 -2.533,14.346l9.816,-5.666l9.817,5.666Z" style="fill:none;stroke:rgb(204,204,204);stroke-width:1px;stroke-linecap:round;"/>
    <path id="path9020" d="M126.531,63.79l0.024,4.409" style="fill:rgb(204,204,204);fill-rule:nonzero;stroke:rgb(204,204,204);stroke-width:1px;stroke-linecap:round;"/>
    <path id="path9023" d="M128.748,65.963l-4.41,0.02" style="fill:rgb(204,204,204);fill-rule:nonzero;stroke:rgb(204,204,204);stroke-width:1px;stroke-linecap:round;"/>
    <path id="path9026" d="M110.429,65.839l-4.414,0.02" style="fill:rgb(204,204,204);fill-rule:nonzero;stroke:rgb(204,204,204);stroke-width:1px;stroke-linecap:round;"/>
    <path id="path9029" d="M117.087,56.931l-0.024,-13.31" style="fill:none;stroke:rgb(204,204,204);stroke-width:1px;stroke-linecap:round;"/>
    <path id="path9032" d="M40.906,96.843l0.296,0c0.308,0 0.548,-0.064 0.712,-0.192c0.164,-0.128 0.248,-0.312 0.248,-0.552c0,-0.24 -0.084,-0.424 -0.248,-0.552c-0.164,-0.128 -0.404,-0.192 -0.712,-0.192l-0.296,0l0,1.488Zm3.449,3.338l-1.953,0l-1.496,-2.321l0,2.321l-1.569,0l0,-6.035l2.441,0c0.336,0 0.628,0.048 0.88,0.148c0.253,0.1 0.457,0.232 0.621,0.405c0.164,0.172 0.284,0.368 0.368,0.592c0.084,0.224 0.124,0.464 0.124,0.72c0,0.46 -0.112,0.832 -0.332,1.117c-0.22,0.284 -0.548,0.48 -0.981,0.58l1.897,2.473Z" style="fill:white;fill-rule:nonzero;"/>
    <path id="path9034" d="M48.293,97.94l-0.705,-2.009l-0.704,2.009l1.409,0Zm0.416,1.192l-2.241,0l-0.36,1.049l-1.673,0l2.297,-6.035l1.713,0l2.297,6.035l-1.673,0l-0.36,-1.049Z" style="fill:white;fill-rule:nonzero;"/>
    <path id="path9036" d="M51.43,100.181l0,-6.035l1.569,0l2.897,3.69l0,-3.69l1.561,0l0,6.035l-1.561,0l-2.897,-3.69l0,3.69l-1.569,0Z" style="fill:white;fill-rule:nonzero;"/>
    <path id="path9038" d="M61.77,96.803l3.114,0c0,0.321 -0.012,0.613 -0.04,0.873c-0.028,0.26 -0.08,0.504 -0.16,0.728c-0.112,0.316 -0.265,0.592 -0.457,0.836c-0.192,0.245 -0.416,0.445 -0.676,0.609c-0.26,0.164 -0.544,0.288 -0.852,0.372c-0.308,0.084 -0.637,0.128 -0.977,0.128c-0.468,0 -0.896,-0.076 -1.284,-0.232c-0.388,-0.156 -0.72,-0.372 -0.997,-0.652c-0.276,-0.281 -0.492,-0.617 -0.648,-1.009c-0.156,-0.392 -0.232,-0.824 -0.232,-1.3c0,-0.469 0.076,-0.901 0.228,-1.293c0.152,-0.392 0.368,-0.728 0.648,-1.004c0.281,-0.277 0.617,-0.493 1.013,-0.649c0.396,-0.156 0.836,-0.232 1.32,-0.232c0.629,0 1.181,0.136 1.657,0.408c0.476,0.273 0.852,0.693 1.129,1.265l-1.489,0.616c-0.14,-0.332 -0.32,-0.568 -0.54,-0.712c-0.22,-0.144 -0.473,-0.216 -0.757,-0.216c-0.236,0 -0.448,0.044 -0.64,0.132c-0.192,0.088 -0.356,0.212 -0.492,0.376c-0.136,0.164 -0.244,0.36 -0.32,0.588c-0.076,0.228 -0.116,0.484 -0.116,0.769c0,0.256 0.032,0.492 0.1,0.712c0.068,0.22 0.168,0.408 0.3,0.568c0.132,0.16 0.3,0.284 0.496,0.372c0.196,0.088 0.428,0.132 0.688,0.132c0.156,0 0.305,-0.016 0.449,-0.052c0.144,-0.036 0.272,-0.092 0.388,-0.168c0.116,-0.076 0.208,-0.176 0.284,-0.3c0.076,-0.124 0.124,-0.272 0.152,-0.448l-1.289,0l0,-1.217Z" style="fill:white;fill-rule:nonzero;"/>
    <path id="path9040" d="M69.309,95.475l-1.864,0l0,1.008l1.76,0l0,1.329l-1.76,0l0,1.04l1.864,0l0,1.329l-3.433,0l0,-6.035l3.433,0l0,1.329Z" style="fill:white;fill-rule:nonzero;"/>
    <path id="path9045" d="M126.904,62.593c2.737,-4.742 1.664,-10.824 -2.534,-14.346c-4.193,-3.521 -10.372,-3.521 -14.566,0c-4.197,3.522 -5.27,9.604 -2.533,14.346l9.816,-5.666l9.817,5.666Z" style="fill:none;stroke:rgb(204,204,204);stroke-width:1px;stroke-linecap:round;"/>
    <path id="path9048" d="M126.531,63.79l0.024,4.409" style="fill:rgb(204,204,204);fill-rule:nonzero;stroke:rgb(204,204,204);stroke-width:1px;stroke-linecap:round;"/>
    <path id="path9051" d="M128.748,65.963l-4.41,0.02" style="fill:rgb(204,204,204);fill-rule:nonzero;stroke:rgb(204,204,204);stroke-width:1px;stroke-linecap:round;"/>
    <path id="path9054" d="M110.429,65.839l-4.414,0.02" style="fill:rgb(204,204,204);fill-rule:nonzero;stroke:rgb(204,204,204);stroke-width:1px;stroke-linecap:round;"/>
    <path id="path9057" d="M117.087,56.931l-0.024,-13.31" style="fill:none;stroke:rgb(204,204,204);stroke-width:1px;stroke-linecap:round;"/>
    <path id="path9060" d="M126.904,184.662c2.737,-4.742 1.664,-10.824 -2.534,-14.346c-4.193,-3.521 -10.372,-3.521 -14.566,0c-4.197,3.522 -5.27,9.604 -2.533,14.346l9.816,-5.666l9.817,5.666Z" style="fill:none;stroke:rgb(204,204,204);stroke-width:1px;stroke-linecap:round;"/>
    <path id="path9063" d="M126.531,185.859l0.024,4.409" style="fill:rgb(204,204,204);fill-rule:nonzero;stroke:rgb(204,204,204);stroke-width:1px;stroke-linecap:round;"/>
    <path id="path9066" d="M128.748,188.032l-4.41,0.02" style="fill:rgb(204,204,204);fill-rule:nonzero;stroke:rgb(204,204,204);stroke-width:1px;stroke-linecap:round;"/>
    <path id="path9069" d="M110.429,187.908l-4.414,0.02" style="fill:rgb(204,204,204);fill-rule:nonzero;stroke:rgb(204,204,204);stroke-width:1px;stroke-linecap:round;"/>
    <path id="path9072" d="M117.087,179l-0.024,-13.31" style="fill:none;stroke:rgb(204,204,204);stroke-width:1px;stroke-linecap:round;"/>
    <path id="path9075" d="M29.94,220.476l0.296,0c0.308,0 0.548,-0.064 0.712,-0.192c0.164,-0.128 0.249,-0.312 0.249,-0.552c0,-0.24 -0.085,-0.424 -0.249,-0.552c-0.164,-0.128 -0.404,-0.192 -0.712,-0.192l-0.296,0l0,1.488Zm3.449,3.338l-1.952,0l-1.497,-2.321l0,2.321l-1.569,0l0,-6.035l2.441,0c0.337,0 0.629,0.048 0.881,0.148c0.252,0.1 0.456,0.232 0.62,0.405c0.164,0.172 0.284,0.368 0.368,0.592c0.084,0.224 0.124,0.464 0.124,0.72c0,0.46 -0.112,0.832 -0.332,1.117c-0.22,0.284 -0.548,0.48 -0.98,0.58l1.896,2.473Z" style="fill:white;fill-rule:nonzero;"/>
    <path id="path9077" d="M37.479,219.108l-1.865,0l0,1.008l1.761,0l0,1.329l-1.761,0l0,1.04l1.865,0l0,1.329l-3.433,0l0,-6.035l3.433,0l0,1.329Z" style="fill:white;fill-rule:nonzero;"/>
    <path id="path9079" d="M41.921,219.324c-0.172,-0.14 -0.34,-0.24 -0.512,-0.308c-0.172,-0.068 -0.336,-0.1 -0.496,-0.1c-0.205,0 -0.369,0.048 -0.497,0.144c-0.128,0.096 -0.192,0.22 -0.192,0.376c0,0.108 0.032,0.196 0.096,0.264c0.064,0.068 0.148,0.128 0.252,0.18c0.104,0.052 0.221,0.096 0.353,0.132c0.132,0.036 0.26,0.076 0.388,0.12c0.512,0.172 0.888,0.4 1.124,0.685c0.236,0.284 0.356,0.656 0.356,1.116c0,0.308 -0.052,0.588 -0.156,0.84c-0.104,0.252 -0.256,0.465 -0.456,0.645c-0.2,0.18 -0.444,0.316 -0.736,0.416c-0.292,0.1 -0.62,0.148 -0.989,0.148c-0.764,0 -1.468,-0.228 -2.121,-0.68l0.673,-1.265c0.236,0.208 0.468,0.364 0.696,0.464c0.228,0.1 0.456,0.152 0.68,0.152c0.256,0 0.449,-0.06 0.573,-0.176c0.124,-0.116 0.188,-0.252 0.188,-0.4c0,-0.092 -0.016,-0.168 -0.048,-0.236c-0.032,-0.068 -0.084,-0.128 -0.16,-0.184c-0.076,-0.056 -0.172,-0.108 -0.293,-0.156c-0.12,-0.048 -0.264,-0.1 -0.436,-0.16c-0.204,-0.064 -0.4,-0.136 -0.596,-0.212c-0.196,-0.076 -0.368,-0.18 -0.52,-0.308c-0.152,-0.128 -0.276,-0.289 -0.368,-0.485c-0.092,-0.196 -0.14,-0.44 -0.14,-0.74c0,-0.3 0.048,-0.568 0.148,-0.812c0.1,-0.244 0.236,-0.452 0.416,-0.625c0.18,-0.172 0.396,-0.308 0.656,-0.404c0.26,-0.096 0.548,-0.144 0.868,-0.144c0.301,0 0.613,0.04 0.937,0.124c0.324,0.084 0.636,0.204 0.936,0.364l-0.624,1.225Z" style="fill:white;fill-rule:nonzero;"/>
    <path id="path9081" d="M45.146,220.797c0,0.24 0.044,0.46 0.136,0.664c0.092,0.204 0.212,0.38 0.369,0.528c0.156,0.148 0.336,0.264 0.54,0.348c0.204,0.084 0.424,0.124 0.652,0.124c0.228,0 0.448,-0.04 0.652,-0.124c0.204,-0.084 0.388,-0.2 0.545,-0.348c0.156,-0.148 0.28,-0.324 0.372,-0.528c0.092,-0.204 0.136,-0.424 0.136,-0.664c0,-0.241 -0.044,-0.461 -0.136,-0.665c-0.092,-0.204 -0.216,-0.38 -0.372,-0.528c-0.157,-0.148 -0.341,-0.264 -0.545,-0.348c-0.204,-0.084 -0.424,-0.124 -0.652,-0.124c-0.228,0 -0.448,0.04 -0.652,0.124c-0.204,0.084 -0.384,0.2 -0.54,0.348c-0.157,0.148 -0.277,0.324 -0.369,0.528c-0.092,0.204 -0.136,0.424 -0.136,0.665Zm-1.64,0c0,-0.449 0.084,-0.865 0.248,-1.253c0.164,-0.388 0.396,-0.724 0.688,-1.012c0.292,-0.289 0.644,-0.513 1.052,-0.677c0.409,-0.164 0.857,-0.244 1.349,-0.244c0.484,0 0.932,0.08 1.345,0.244c0.412,0.164 0.764,0.388 1.06,0.677c0.296,0.288 0.528,0.624 0.692,1.012c0.164,0.388 0.248,0.804 0.248,1.253c0,0.448 -0.084,0.864 -0.248,1.252c-0.164,0.388 -0.396,0.724 -0.692,1.012c-0.296,0.289 -0.648,0.513 -1.06,0.677c-0.413,0.164 -0.861,0.244 -1.345,0.244c-0.492,0 -0.94,-0.08 -1.349,-0.244c-0.408,-0.164 -0.76,-0.388 -1.052,-0.677c-0.292,-0.288 -0.524,-0.624 -0.688,-1.012c-0.164,-0.388 -0.248,-0.804 -0.248,-1.252Z" style="fill:white;fill-rule:nonzero;"/>
    <path id="path9083" d="M51.181,223.814l0,-6.035l1.568,0l2.898,3.69l0,-3.69l1.56,0l0,6.035l-1.56,0l-2.898,-3.69l0,3.69l-1.568,0Z" style="fill:white;fill-rule:nonzero;"/>
    <path id="path9085" d="M61.769,221.573l-0.704,-2.009l-0.704,2.009l1.408,0Zm0.416,1.192l-2.241,0l-0.36,1.049l-1.672,0l2.297,-6.035l1.712,0l2.297,6.035l-1.672,0l-0.361,-1.049Z" style="fill:white;fill-rule:nonzero;"/>
    <path id="path9087" d="M64.907,223.814l0,-6.035l1.568,0l2.897,3.69l0,-3.69l1.561,0l0,6.035l-1.561,0l-2.897,-3.69l0,3.69l-1.568,0Z" style="fill:white;fill-rule:nonzero;"/>
    <path id="path9089" d="M76.623,219.796c-0.364,-0.444 -0.812,-0.664 -1.344,-0.664c-0.236,0 -0.452,0.044 -0.652,0.128c-0.201,0.084 -0.373,0.2 -0.517,0.348c-0.144,0.148 -0.256,0.32 -0.34,0.524c-0.084,0.204 -0.124,0.42 -0.124,0.657c0,0.24 0.04,0.46 0.124,0.664c0.084,0.204 0.196,0.38 0.344,0.528c0.148,0.148 0.32,0.268 0.517,0.352c0.196,0.084 0.412,0.128 0.64,0.128c0.5,0 0.952,-0.212 1.352,-0.64l0,1.857l-0.16,0.056c-0.24,0.084 -0.464,0.148 -0.672,0.188c-0.208,0.04 -0.412,0.06 -0.616,0.06c-0.416,0 -0.817,-0.08 -1.197,-0.236c-0.38,-0.156 -0.716,-0.38 -1.008,-0.665c-0.292,-0.284 -0.524,-0.624 -0.7,-1.016c-0.177,-0.392 -0.265,-0.82 -0.265,-1.284c0,-0.465 0.088,-0.889 0.261,-1.277c0.172,-0.388 0.404,-0.72 0.696,-1c0.292,-0.281 0.628,-0.501 1.012,-0.657c0.384,-0.156 0.789,-0.236 1.209,-0.236c0.24,0 0.476,0.024 0.708,0.076c0.232,0.052 0.476,0.128 0.732,0.236l0,1.873Z" style="fill:white;fill-rule:nonzero;"/>
    <path id="path9091" d="M81.049,219.108l-1.865,0l0,1.008l1.761,0l0,1.329l-1.761,0l0,1.04l1.865,0l0,1.329l-3.433,0l0,-6.035l3.433,0l0,1.329Z" style="fill:white;fill-rule:nonzero;"/>
    <path id="path9096" d="M126.904,184.662c2.737,-4.742 1.664,-10.824 -2.534,-14.346c-4.193,-3.521 -10.372,-3.521 -14.566,0c-4.197,3.522 -5.27,9.604 -2.533,14.346l9.816,-5.666l9.817,5.666Z" style="fill:none;stroke:rgb(204,204,204);stroke-width:1px;stroke-linecap:round;"/>
    <path id="path9099" d="M126.531,185.859l0.024,4.409" style="fill:rgb(204,204,204);fill-rule:nonzero;stroke:rgb(204,204,204);stroke-width:1px;stroke-linecap:round;"/>
    <path id="path9102" d="M128.748,188.032l-4.41,0.02" style="fill:rgb(204,204,204);fill-rule:nonzero;stroke:rgb(204,204,204);stroke-width:1px;stroke-linecap:round;"/>
    <path id="path9105" d="M110.429,187.908l-4.414,0.02" style="fill:rgb(204,204,204);fill-rule:nonzero;stroke:rgb(204,204,204);stroke-width:1px;stroke-linecap:round;"/>
    <path id="path9108" d="M117.087,179l-0.024,-13.31" style="fill:none;stroke:rgb(204,204,204);stroke-width:1px;stroke-linecap:round;"/>
    <path id="path9111" d="M75.087,202.846c5.878,-10.184 3.577,-23.245 -5.431,-30.805c-9.007,-7.555 -22.273,-7.555 -31.281,0c-9.007,7.56 -11.308,20.621 -5.43,30.805" style="fill:none;stroke:rgb(204,204,204);stroke-width:1.5px;stroke-linecap:round;"/>
    <circle id="circle9114" cx="35.877" cy="211.603" r="3.706" style="fill:none;stroke:rgb(204,204,204);stroke-width:1px;"/>
    <circle id="circle9117" cx="73.656" cy="211.602" r="3.706" style="fill:rgb(204,204,204);stroke:rgb(204,204,204);stroke-width:1px;"/>
    <path id="path9122" d="M75.383,263.846c5.878,-10.184 3.577,-23.245 -5.431,-30.804c-9.007,-7.556 -22.273,-7.556 -31.281,0c-9.007,7.559 -11.308,20.62 -5.43,30.804" style="fill:none;stroke:rgb(204,204,204);stroke-width:1.5px;stroke-linecap:round;"/>
    <circle id="circle9125" cx="36.173" cy="272.603" r="3.706" style="fill:none;stroke:rgb(204,204,204);stroke-width:1px;"/>
    <circle id="circle9128" cx="73.952" cy="272.602" r="3.706" style="fill:rgb(204,204,204);stroke:rgb(204,204,204);stroke-width:1px;"/>
    <rect id="rect9133" x="63.164" y="353.613" width="1.569" height="6.035" style="fill:white;"/>
    <path id="path9135" d="M65.997,359.648l0,-6.035l1.569,0l2.897,3.69l0,-3.69l1.561,0l0,6.035l-1.561,0l-2.897,-3.69l0,3.69l-1.569,0Z" style="fill:white;fill-rule:nonzero;"/>
    <path id="path9137" d="M74.857,356.382l0.52,0c0.577,0 0.865,-0.252 0.865,-0.752c0,-0.5 -0.288,-0.752 -0.865,-0.752l-0.52,0l0,1.504Zm0,3.266l-1.569,0l0,-6.035l2.497,0c0.677,0 1.197,0.176 1.557,0.529c0.36,0.352 0.54,0.848 0.54,1.488c0,0.64 -0.18,1.137 -0.54,1.489c-0.36,0.352 -0.88,0.528 -1.557,0.528l-0.928,0l0,2.001Z" style="fill:white;fill-rule:nonzero;"/>
    <path id="path9139" d="M80.283,353.613l0,3.282c0,0.176 0.008,0.356 0.02,0.54c0.012,0.184 0.052,0.352 0.12,0.5c0.068,0.148 0.172,0.272 0.317,0.364c0.144,0.092 0.348,0.14 0.608,0.14c0.26,0 0.464,-0.048 0.604,-0.14c0.14,-0.092 0.248,-0.216 0.316,-0.364c0.068,-0.148 0.112,-0.316 0.124,-0.5c0.012,-0.184 0.02,-0.364 0.02,-0.54l0,-3.282l1.561,0l0,3.498c0,0.94 -0.216,1.624 -0.644,2.057c-0.429,0.432 -1.089,0.648 -1.981,0.648c-0.893,0 -1.553,-0.216 -1.985,-0.648c-0.432,-0.433 -0.648,-1.117 -0.648,-2.057l0,-3.498l1.568,0Z" style="fill:white;fill-rule:nonzero;"/>
    <path id="path9141" d="M87.526,354.942l0,4.706l-1.568,0l0,-4.706l-1.289,0l0,-1.329l4.146,0l0,1.329l-1.289,0Z" style="fill:white;fill-rule:nonzero;"/>
    <path id="path9146" d="M107.533,356.631c0,0.24 0.044,0.46 0.136,0.664c0.092,0.204 0.212,0.38 0.368,0.528c0.156,0.148 0.336,0.264 0.54,0.348c0.204,0.084 0.424,0.124 0.653,0.124c0.228,0 0.448,-0.04 0.652,-0.124c0.204,-0.084 0.388,-0.2 0.544,-0.348c0.156,-0.148 0.28,-0.324 0.372,-0.528c0.092,-0.204 0.136,-0.424 0.136,-0.664c0,-0.241 -0.044,-0.461 -0.136,-0.665c-0.092,-0.204 -0.216,-0.38 -0.372,-0.528c-0.156,-0.148 -0.34,-0.264 -0.544,-0.348c-0.204,-0.084 -0.424,-0.124 -0.652,-0.124c-0.229,0 -0.449,0.04 -0.653,0.124c-0.204,0.084 -0.384,0.2 -0.54,0.348c-0.156,0.148 -0.276,0.324 -0.368,0.528c-0.092,0.204 -0.136,0.424 -0.136,0.665Zm-1.641,0c0,-0.449 0.084,-0.865 0.248,-1.253c0.164,-0.388 0.396,-0.724 0.689,-1.012c0.292,-0.289 0.644,-0.513 1.052,-0.677c0.408,-0.164 0.856,-0.244 1.349,-0.244c0.484,0 0.932,0.08 1.344,0.244c0.412,0.164 0.764,0.388 1.061,0.677c0.296,0.288 0.528,0.624 0.692,1.012c0.164,0.388 0.248,0.804 0.248,1.253c0,0.448 -0.084,0.864 -0.248,1.252c-0.164,0.388 -0.396,0.724 -0.692,1.012c-0.297,0.289 -0.649,0.513 -1.061,0.677c-0.412,0.164 -0.86,0.244 -1.344,0.244c-0.493,0 -0.941,-0.08 -1.349,-0.244c-0.408,-0.164 -0.76,-0.388 -1.052,-0.677c-0.293,-0.288 -0.525,-0.624 -0.689,-1.012c-0.164,-0.388 -0.248,-0.804 -0.248,-1.252Z" style="fill:white;fill-rule:nonzero;"/>
    <path id="path9148" d="M115.136,353.613l0,3.282c0,0.176 0.008,0.356 0.02,0.54c0.012,0.184 0.052,0.352 0.12,0.5c0.068,0.148 0.172,0.272 0.316,0.364c0.144,0.092 0.348,0.14 0.608,0.14c0.261,0 0.465,-0.048 0.605,-0.14c0.14,-0.092 0.248,-0.216 0.316,-0.364c0.068,-0.148 0.112,-0.316 0.124,-0.5c0.012,-0.184 0.02,-0.364 0.02,-0.54l0,-3.282l1.561,0l0,3.498c0,0.94 -0.217,1.624 -0.645,2.057c-0.428,0.432 -1.088,0.648 -1.981,0.648c-0.892,0 -1.552,-0.216 -1.984,-0.648c-0.433,-0.433 -0.649,-1.117 -0.649,-2.057l0,-3.498l1.569,0Z" style="fill:white;fill-rule:nonzero;"/>
    <path id="path9150" d="M122.379,354.942l0,4.706l-1.569,0l0,-4.706l-1.288,0l0,-1.329l4.146,0l0,1.329l-1.289,0Z" style="fill:white;fill-rule:nonzero;"/>
    <path id="path9152" d="M125.932,356.382l0.521,0c0.576,0 0.864,-0.252 0.864,-0.752c0,-0.5 -0.288,-0.752 -0.864,-0.752l-0.521,0l0,1.504Zm0,3.266l-1.568,0l0,-6.035l2.497,0c0.676,0 1.196,0.176 1.556,0.529c0.361,0.352 0.541,0.848 0.541,1.488c0,0.64 -0.18,1.137 -0.541,1.489c-0.36,0.352 -0.88,0.528 -1.556,0.528l-0.929,0l0,2.001Z" style="fill:white;fill-rule:nonzero;"/>
    <path id="path9154" d="M131.359,353.613l0,3.282c0,0.176 0.008,0.356 0.02,0.54c0.012,0.184 0.052,0.352 0.12,0.5c0.068,0.148 0.172,0.272 0.316,0.364c0.144,0.092 0.348,0.14 0.608,0.14c0.26,0 0.464,-0.048 0.604,-0.14c0.14,-0.092 0.249,-0.216 0.317,-0.364c0.068,-0.148 0.112,-0.316 0.124,-0.5c0.012,-0.184 0.02,-0.364 0.02,-0.54l0,-3.282l1.56,0l0,3.498c0,0.94 -0.216,1.624 -0.644,2.057c-0.428,0.432 -1.088,0.648 -1.981,0.648c-0.892,0 -1.552,-0.216 -1.985,-0.648c-0.432,-0.433 -0.648,-1.117 -0.648,-2.057l0,-3.498l1.569,0Z" style="fill:white;fill-rule:nonzero;"/>
    <path id="path9156" d="M138.602,354.942l0,4.706l-1.569,0l0,-4.706l-1.288,0l0,-1.329l4.145,0l0,1.329l-1.288,0Z" style="fill:white;fill-rule:nonzero;"/>
    <path id="path9161" d="M19.101,356.27l3.114,0c0,0.321 -0.012,0.613 -0.04,0.873c-0.028,0.26 -0.08,0.504 -0.16,0.728c-0.112,0.316 -0.264,0.592 -0.457,0.836c-0.192,0.245 -0.416,0.445 -0.676,0.609c-0.26,0.164 -0.544,0.288 -0.852,0.372c-0.308,0.084 -0.636,0.128 -0.977,0.128c-0.468,0 -0.896,-0.076 -1.284,-0.232c-0.388,-0.156 -0.72,-0.372 -0.996,-0.652c-0.277,-0.281 -0.493,-0.617 -0.649,-1.009c-0.156,-0.392 -0.232,-0.824 -0.232,-1.3c0,-0.469 0.076,-0.901 0.228,-1.293c0.152,-0.392 0.368,-0.728 0.649,-1.004c0.28,-0.277 0.616,-0.493 1.012,-0.649c0.396,-0.156 0.836,-0.232 1.32,-0.232c0.629,0 1.181,0.136 1.657,0.408c0.476,0.273 0.853,0.693 1.129,1.265l-1.489,0.616c-0.14,-0.332 -0.32,-0.568 -0.54,-0.712c-0.22,-0.144 -0.472,-0.216 -0.757,-0.216c-0.236,0 -0.448,0.044 -0.64,0.132c-0.192,0.088 -0.356,0.212 -0.492,0.376c-0.136,0.164 -0.244,0.36 -0.32,0.588c-0.076,0.228 -0.116,0.484 -0.116,0.769c0,0.256 0.032,0.492 0.1,0.712c0.068,0.22 0.168,0.408 0.3,0.568c0.132,0.16 0.3,0.284 0.496,0.372c0.196,0.088 0.428,0.132 0.688,0.132c0.157,0 0.305,-0.016 0.449,-0.052c0.144,-0.036 0.272,-0.092 0.388,-0.168c0.116,-0.076 0.208,-0.176 0.284,-0.3c0.076,-0.124 0.124,-0.272 0.152,-0.448l-1.289,0l0,-1.217Z" style="fill:white;fill-rule:nonzero;"/>
    <path id="path9163" d="M26.264,357.407l-0.704,-2.009l-0.704,2.009l1.408,0Zm0.417,1.192l-2.241,0l-0.36,1.049l-1.673,0l2.297,-6.035l1.713,0l2.296,6.035l-1.672,0l-0.36,-1.049Z" style="fill:white;fill-rule:nonzero;"/>
    <path id="path9165" d="M31.427,354.942l0,4.706l-1.569,0l0,-4.706l-1.289,0l0,-1.329l4.146,0l0,1.329l-1.288,0Z" style="fill:white;fill-rule:nonzero;"/>
    <path id="path9167" d="M36.845,354.942l-1.865,0l0,1.008l1.761,0l0,1.329l-1.761,0l0,1.04l1.865,0l0,1.329l-3.434,0l0,-6.035l3.434,0l0,1.329Z" style="fill:white;fill-rule:nonzero;"/>
    <path id="path9197" d="M58.349,17.71l0,6.579c0,0.277 -0.014,0.532 -0.044,0.767c-0.029,0.236 -0.077,0.437 -0.144,0.605c-0.109,0.267 -0.258,0.512 -0.447,0.735c-0.188,0.222 -0.409,0.411 -0.661,0.566c-0.251,0.156 -0.53,0.277 -0.836,0.365c-0.306,0.088 -0.626,0.132 -0.962,0.132c-1.015,0 -1.84,-0.465 -2.478,-1.396l1.61,-1.648c0.042,0.285 0.134,0.512 0.277,0.679c0.142,0.168 0.318,0.252 0.529,0.252c0.46,0 0.691,-0.365 0.691,-1.095l0,-6.541l2.465,0Z" style="fill:rgb(172,181,188);fill-rule:nonzero;"/>
    <path id="path9199" d="M62.815,17.71l0,5.157c0,0.278 0.011,0.56 0.032,0.849c0.02,0.29 0.084,0.551 0.188,0.787c0.105,0.235 0.27,0.425 0.498,0.573c0.227,0.146 0.545,0.22 0.955,0.22c0.412,0 0.729,-0.074 0.95,-0.22c0.222,-0.148 0.389,-0.338 0.497,-0.573c0.109,-0.236 0.174,-0.497 0.195,-0.787c0.022,-0.289 0.031,-0.571 0.031,-0.849l0,-5.157l2.453,0l0,5.497c0,1.476 -0.337,2.553 -1.012,3.233c-0.675,0.679 -1.713,1.019 -3.114,1.019c-1.4,0 -2.44,-0.34 -3.119,-1.019c-0.68,-0.68 -1.019,-1.757 -1.019,-3.233l0,-5.497l2.465,0Z" style="fill:rgb(172,181,188);fill-rule:nonzero;"/>
    <path id="path9201" d="M73.068,17.71l0,7.396l2.956,0l0,2.089l-5.421,0l0,-9.485l2.465,0Z" style="fill:rgb(172,181,188);fill-rule:nonzero;"/>
    <path id="path9203" d="M82.654,20.137c-0.269,-0.217 -0.537,-0.38 -0.806,-0.483c-0.267,-0.106 -0.527,-0.158 -0.779,-0.158c-0.319,0 -0.579,0.075 -0.78,0.227c-0.201,0.15 -0.303,0.347 -0.303,0.591c0,0.168 0.051,0.305 0.152,0.414c0.1,0.11 0.232,0.204 0.396,0.284c0.164,0.08 0.349,0.149 0.554,0.208c0.205,0.059 0.409,0.121 0.61,0.188c0.804,0.269 1.394,0.627 1.767,1.076c0.373,0.449 0.56,1.033 0.56,1.754c0,0.488 -0.082,0.927 -0.245,1.321c-0.164,0.395 -0.403,0.733 -0.717,1.013c-0.314,0.281 -0.701,0.499 -1.157,0.655c-0.457,0.154 -0.975,0.232 -1.555,0.232c-1.198,0 -2.309,-0.356 -3.334,-1.069l1.058,-1.988c0.369,0.328 0.734,0.57 1.095,0.73c0.359,0.16 0.716,0.238 1.068,0.238c0.404,0 0.703,-0.092 0.9,-0.276c0.198,-0.185 0.296,-0.394 0.296,-0.63c0,-0.142 -0.025,-0.265 -0.076,-0.37c-0.05,-0.105 -0.134,-0.201 -0.252,-0.289c-0.117,-0.089 -0.27,-0.17 -0.459,-0.246c-0.188,-0.075 -0.417,-0.159 -0.685,-0.251c-0.319,-0.101 -0.631,-0.211 -0.937,-0.334c-0.307,-0.121 -0.58,-0.282 -0.818,-0.483c-0.239,-0.203 -0.432,-0.456 -0.578,-0.762c-0.148,-0.307 -0.221,-0.694 -0.221,-1.163c0,-0.47 0.077,-0.896 0.233,-1.277c0.154,-0.383 0.373,-0.709 0.654,-0.982c0.281,-0.272 0.624,-0.483 1.032,-0.635c0.406,-0.151 0.862,-0.227 1.364,-0.227c0.47,0 0.96,0.066 1.472,0.196c0.511,0.129 1.003,0.32 1.471,0.571l-0.98,1.925Z" style="fill:rgb(172,181,188);fill-rule:nonzero;"/>
    <path id="path9205" d="M89.233,19.797l0,7.398l-2.466,0l0,-7.398l-2.024,0l0,-2.087l6.515,0l0,2.087l-2.025,0Z" style="fill:rgb(172,181,188);fill-rule:nonzero;"/>
    <path id="path9207" d="M97.75,19.797l-2.931,0l0,1.585l2.767,0l0,2.089l-2.767,0l0,1.635l2.931,0l0,2.089l-5.397,0l0,-9.485l5.397,0l0,2.087Z" style="fill:rgb(172,181,188);fill-rule:nonzero;"/>
    <path id="path42" d="M62.952,363.5l2.673,0l2.49,8.317l2.574,-8.317l2.66,0l-3.46,10.397c-0.323,0.959 -0.903,1.438 -1.738,1.438c-0.847,0 -1.433,-0.484 -1.755,-1.453l-3.444,-10.382Z" style="fill:rgb(173,181,187);fill-rule:nonzero;"/>
    <path id="path44" d="M73.55,372.292l0,-8.792l2.507,0l0,8.709c0.044,0.312 0.334,0.468 0.869,0.468l1.705,0c0.513,0 0.797,-0.145 0.853,-0.435l0.017,-0.083l0,-8.659l2.507,0l0,8.776c0,0.769 -0.083,1.315 -0.251,1.638c-0.445,0.858 -1.231,1.287 -2.357,1.287l-3.243,0c-1.159,0 -1.95,-0.44 -2.373,-1.321c-0.156,-0.323 -0.234,-0.852 -0.234,-1.588l0,0Z" style="fill:rgb(173,181,187);fill-rule:nonzero;"/>
    <path id="path46" d="M83.161,372.343l0,-8.843l2.508,0l0,8.642c0,0.357 0.211,0.535 0.635,0.535l4.463,0l-0.016,2.524l-4.664,0c-0.167,0 -0.312,-0.006 -0.435,-0.017c-0.903,-0.077 -1.544,-0.342 -1.922,-0.794c-0.379,-0.451 -0.569,-1.133 -0.569,-2.047l0,0Z" style="fill:rgb(173,181,187);fill-rule:nonzero;"/>
    <path id="path48" d="M90.851,366.024l0,-2.524l7.522,0l0,2.524l-2.524,0l0,9.177l-2.508,0l0,-9.177l-2.49,0Z" style="fill:rgb(173,181,187);fill-rule:nonzero;"/>
    <path id="path4" d="M59.383,369.417c0,-4.509 -3.655,-8.164 -8.164,-8.164c-4.509,0 -8.165,3.655 -8.165,8.164c0,4.509 3.656,8.165 8.165,8.165c4.509,0 8.164,-3.656 8.164,-8.165Z" style="fill:rgb(117,117,117);fill-rule:nonzero;stroke:rgb(65,76,85);stroke-width:0.61px;stroke-miterlimit:10;"/>
    <path id="polygon6" d="M49.321,374.394l0.553,-0.891l-1.064,-2.393l-2.216,-2.284l0.46,3.101l0.597,1.28l0.833,1.264l0.837,-0.077Z" style="fill:rgb(43,43,43);fill-rule:nonzero;"/>
    <path id="polygon8" d="M53.048,374.401l-0.553,-0.89l1.064,-2.393l2.216,-2.285l-0.46,3.101l-0.597,1.281l-0.833,1.263l-0.837,-0.077Z" style="fill:rgb(38,38,38);fill-rule:nonzero;"/>
    <path id="polygon12" d="M48.636,363.359l2.584,-0.66l0,13.447l-1.349,-2.651l-1.061,-2.385l-1.022,-0.581l-2.052,-2.92l-0.057,-0.776l1.148,-2.067l1.809,-1.407Z" style="fill:rgb(66,66,66);fill-rule:nonzero;"/>
    <path id="polygon14" d="M53.801,363.364l-2.584,-0.661l0,13.448l1.35,-2.651l1.06,-2.385l1.023,-0.581l2.051,-2.921l0.058,-0.775l-1.149,-2.067l-1.809,-1.407Z" style="fill:rgb(51,51,51);fill-rule:nonzero;"/>
    <path id="polyline16" d="M49.496,369.237l1.723,-1.684l0,1.229l-1.723,1.718l0,-1.263" style="fill:rgb(76,76,76);fill-rule:nonzero;"/>
    <path id="polygon18" d="M51.22,368.781l-1.723,1.718l0.377,3.004l1.346,2.643l0,-7.365Z" style="fill:rgb(91,91,91);fill-rule:nonzero;"/>
    <path id="polygon20" d="M51.22,376.146l-1.346,-2.643l1.346,-0.635l0,3.278Z" style="fill:rgb(51,51,51);fill-rule:nonzero;"/>
    <path id="polygon22" d="M49.497,370.499l0,-1.263l-1.249,-1.58l-1.477,-1.19l-0.001,0.932l0.775,1.823l1.952,1.278Z" style="fill:white;fill-rule:nonzero;"/>
    <path id="polyline24" d="M52.942,369.238l-1.722,-1.685l0,1.23l1.722,1.718l0,-1.263" style="fill:rgb(45,45,45);fill-rule:nonzero;"/>
    <path id="polygon26" d="M51.218,368.781l1.722,1.718l-0.376,3.004l-1.347,2.643l0.001,-7.365Z" style="fill:rgb(53,53,53);fill-rule:nonzero;"/>
    <path id="polygon28" d="M51.217,376.146l1.347,-2.643l-1.346,-0.635l-0.001,3.278Z" style="fill:rgb(25,25,25);fill-rule:nonzero;"/>
    <path id="polygon30" d="M52.94,370.499l0,-1.263l1.249,-1.58l1.478,-1.19l0.001,0.932l-0.775,1.823l-1.953,1.278Z" style="fill:white;fill-rule:nonzero;"/>
    <path id="polyline32" d="M48.652,363.338l2.566,4.215l-0.005,-4.87" style="fill:rgb(56,56,56);fill-rule:nonzero;"/>
    <path id="polyline34" d="M53.785,363.338l-2.566,4.215l0.006,-4.869" style="fill:rgb(45,45,45);fill-rule:nonzero;"/>
    <path id="polygon36" d="M48.811,371.111l0.688,-0.611l0.375,3.006l-1.063,-2.395Z" style="fill:rgb(51,51,51);fill-rule:nonzero;"/>
    <path id="polygon38" d="M53.631,371.125l-0.688,-0.61l-0.375,3.006l1.063,-2.396Z" style="fill:rgb(28,28,28);fill-rule:nonzero;"/>
    <path id="path9236" d="M32.822,280.355c-0.172,-0.14 -0.34,-0.24 -0.512,-0.308c-0.172,-0.068 -0.336,-0.1 -0.496,-0.1c-0.204,0 -0.368,0.048 -0.496,0.144c-0.129,0.096 -0.193,0.22 -0.193,0.376c0,0.108 0.032,0.196 0.096,0.264c0.064,0.068 0.149,0.128 0.253,0.18c0.104,0.052 0.22,0.096 0.352,0.132c0.132,0.036 0.26,0.076 0.388,0.12c0.512,0.172 0.888,0.4 1.124,0.685c0.236,0.284 0.356,0.656 0.356,1.116c0,0.308 -0.052,0.588 -0.156,0.84c-0.104,0.252 -0.256,0.465 -0.456,0.645c-0.2,0.18 -0.444,0.316 -0.736,0.416c-0.292,0.1 -0.62,0.148 -0.988,0.148c-0.765,0 -1.469,-0.228 -2.121,-0.68l0.672,-1.265c0.236,0.208 0.468,0.364 0.696,0.464c0.228,0.1 0.456,0.152 0.68,0.152c0.257,0 0.449,-0.06 0.573,-0.176c0.124,-0.116 0.188,-0.252 0.188,-0.4c0,-0.092 -0.016,-0.168 -0.048,-0.236c-0.032,-0.068 -0.084,-0.128 -0.16,-0.184c-0.076,-0.056 -0.172,-0.108 -0.292,-0.156c-0.12,-0.048 -0.265,-0.1 -0.437,-0.16c-0.204,-0.064 -0.4,-0.136 -0.596,-0.212c-0.196,-0.076 -0.368,-0.18 -0.52,-0.308c-0.152,-0.128 -0.276,-0.289 -0.368,-0.485c-0.092,-0.196 -0.14,-0.44 -0.14,-0.74c0,-0.3 0.048,-0.568 0.148,-0.812c0.1,-0.244 0.236,-0.452 0.416,-0.625c0.18,-0.172 0.396,-0.308 0.656,-0.404c0.26,-0.096 0.548,-0.144 0.869,-0.144c0.3,0 0.612,0.04 0.936,0.124c0.324,0.084 0.636,0.204 0.936,0.364l-0.624,1.225Z" style="fill:white;fill-rule:nonzero;"/>
    <path id="path9238" d="M36.248,281.139l2.264,0l0,-2.329l1.569,0l0,6.035l-1.569,0l0,-2.489l-2.264,0l0,2.489l-1.569,0l0,-6.035l1.569,0l0,2.329Z" style="fill:white;fill-rule:nonzero;"/>
    <path id="path9240" d="M44.627,282.604l-0.704,-2.009l-0.705,2.009l1.409,0Zm0.416,1.192l-2.241,0l-0.36,1.049l-1.673,0l2.297,-6.035l1.713,0l2.297,6.035l-1.673,0l-0.36,-1.049Z" style="fill:white;fill-rule:nonzero;"/>
    <path id="path9242" d="M49.333,281.507l0.296,0c0.308,0 0.548,-0.064 0.712,-0.192c0.164,-0.128 0.249,-0.312 0.249,-0.552c0,-0.24 -0.085,-0.424 -0.249,-0.552c-0.164,-0.128 -0.404,-0.192 -0.712,-0.192l-0.296,0l0,1.488Zm3.449,3.338l-1.952,0l-1.497,-2.321l0,2.321l-1.569,0l0,-6.035l2.441,0c0.336,0 0.629,0.048 0.881,0.148c0.252,0.1 0.456,0.232 0.62,0.405c0.164,0.172 0.284,0.368 0.368,0.592c0.084,0.224 0.124,0.464 0.124,0.72c0,0.46 -0.112,0.832 -0.332,1.117c-0.22,0.284 -0.548,0.48 -0.98,0.58l1.896,2.473Z" style="fill:white;fill-rule:nonzero;"/>
    <path id="path9244" d="M55.007,281.579l0.521,0c0.576,0 0.864,-0.252 0.864,-0.752c0,-0.5 -0.288,-0.752 -0.864,-0.752l-0.521,0l0,1.504Zm0,3.266l-1.568,0l0,-6.035l2.497,0c0.676,0 1.196,0.176 1.556,0.529c0.361,0.352 0.541,0.848 0.541,1.488c0,0.64 -0.18,1.137 -0.541,1.489c-0.36,0.352 -0.88,0.528 -1.556,0.528l-0.929,0l0,2.001Z" style="fill:white;fill-rule:nonzero;"/>
    <path id="path9246" d="M58.865,284.845l0,-6.035l1.569,0l2.897,3.69l0,-3.69l1.56,0l0,6.035l-1.56,0l-2.897,-3.69l0,3.69l-1.569,0Z" style="fill:white;fill-rule:nonzero;"/>
    <path id="path9248" d="M69.589,280.139l-1.864,0l0,1.008l1.76,0l0,1.329l-1.76,0l0,1.04l1.864,0l0,1.329l-3.433,0l0,-6.035l3.433,0l0,1.329Z" style="fill:white;fill-rule:nonzero;"/>
    <path id="path9250" d="M74.031,280.355c-0.172,-0.14 -0.34,-0.24 -0.512,-0.308c-0.172,-0.068 -0.336,-0.1 -0.496,-0.1c-0.204,0 -0.368,0.048 -0.496,0.144c-0.128,0.096 -0.192,0.22 -0.192,0.376c0,0.108 0.032,0.196 0.096,0.264c0.064,0.068 0.148,0.128 0.252,0.18c0.104,0.052 0.22,0.096 0.352,0.132c0.132,0.036 0.26,0.076 0.388,0.12c0.512,0.172 0.888,0.4 1.124,0.685c0.237,0.284 0.357,0.656 0.357,1.116c0,0.308 -0.052,0.588 -0.156,0.84c-0.105,0.252 -0.257,0.465 -0.457,0.645c-0.2,0.18 -0.444,0.316 -0.736,0.416c-0.292,0.1 -0.62,0.148 -0.988,0.148c-0.765,0 -1.469,-0.228 -2.121,-0.68l0.672,-1.265c0.236,0.208 0.468,0.364 0.696,0.464c0.228,0.1 0.457,0.152 0.681,0.152c0.256,0 0.448,-0.06 0.572,-0.176c0.124,-0.116 0.188,-0.252 0.188,-0.4c0,-0.092 -0.016,-0.168 -0.048,-0.236c-0.032,-0.068 -0.084,-0.128 -0.16,-0.184c-0.076,-0.056 -0.172,-0.108 -0.292,-0.156c-0.12,-0.048 -0.264,-0.1 -0.436,-0.16c-0.205,-0.064 -0.401,-0.136 -0.597,-0.212c-0.196,-0.076 -0.368,-0.18 -0.52,-0.308c-0.152,-0.128 -0.276,-0.289 -0.368,-0.485c-0.092,-0.196 -0.14,-0.44 -0.14,-0.74c0,-0.3 0.048,-0.568 0.148,-0.812c0.1,-0.244 0.236,-0.452 0.416,-0.625c0.18,-0.172 0.396,-0.308 0.656,-0.404c0.26,-0.096 0.549,-0.144 0.869,-0.144c0.3,0 0.612,0.04 0.936,0.124c0.324,0.084 0.636,0.204 0.936,0.364l-0.624,1.225Z" style="fill:white;fill-rule:nonzero;"/>
    <path id="path9252" d="M79.201,280.355c-0.172,-0.14 -0.34,-0.24 -0.512,-0.308c-0.172,-0.068 -0.336,-0.1 -0.496,-0.1c-0.204,0 -0.368,0.048 -0.496,0.144c-0.128,0.096 -0.192,0.22 -0.192,0.376c0,0.108 0.032,0.196 0.096,0.264c0.064,0.068 0.148,0.128 0.252,0.18c0.104,0.052 0.22,0.096 0.352,0.132c0.132,0.036 0.26,0.076 0.388,0.12c0.512,0.172 0.888,0.4 1.125,0.685c0.236,0.284 0.356,0.656 0.356,1.116c0,0.308 -0.052,0.588 -0.156,0.84c-0.104,0.252 -0.256,0.465 -0.457,0.645c-0.2,0.18 -0.444,0.316 -0.736,0.416c-0.292,0.1 -0.62,0.148 -0.988,0.148c-0.765,0 -1.469,-0.228 -2.121,-0.68l0.672,-1.265c0.236,0.208 0.468,0.364 0.696,0.464c0.229,0.1 0.457,0.152 0.681,0.152c0.256,0 0.448,-0.06 0.572,-0.176c0.124,-0.116 0.188,-0.252 0.188,-0.4c0,-0.092 -0.016,-0.168 -0.048,-0.236c-0.032,-0.068 -0.084,-0.128 -0.16,-0.184c-0.076,-0.056 -0.172,-0.108 -0.292,-0.156c-0.12,-0.048 -0.264,-0.1 -0.436,-0.16c-0.204,-0.064 -0.401,-0.136 -0.597,-0.212c-0.196,-0.076 -0.368,-0.18 -0.52,-0.308c-0.152,-0.128 -0.276,-0.289 -0.368,-0.485c-0.092,-0.196 -0.14,-0.44 -0.14,-0.74c0,-0.3 0.048,-0.568 0.148,-0.812c0.1,-0.244 0.236,-0.452 0.416,-0.625c0.18,-0.172 0.396,-0.308 0.656,-0.404c0.261,-0.096 0.549,-0.144 0.869,-0.144c0.3,0 0.612,0.04 0.936,0.124c0.324,0.084 0.637,0.204 0.937,0.364l-0.625,1.225Z" style="fill:white;fill-rule:nonzero;"/>
    <path id="path9257" d="M126.904,247.662c2.737,-4.742 1.664,-10.824 -2.534,-14.346c-4.193,-3.521 -10.372,-3.521 -14.566,0c-4.197,3.522 -5.27,9.604 -2.533,14.346l9.816,-5.666l9.817,5.666Z" style="fill:none;stroke:rgb(204,204,204);stroke-width:1px;stroke-linecap:round;"/>
    <path id="path9260" d="M126.531,248.859l0.024,4.409" style="fill:rgb(204,204,204);fill-rule:nonzero;stroke:rgb(204,204,204);stroke-width:1px;stroke-linecap:round;"/>
    <path id="path9263" d="M128.748,251.032l-4.41,0.02" style="fill:rgb(204,204,204);fill-rule:nonzero;stroke:rgb(204,204,204);stroke-width:1px;stroke-linecap:round;"/>
    <path id="path9266" d="M126.531,248.859l0.024,4.409" style="fill:rgb(204,204,204);fill-rule:nonzero;stroke:rgb(204,204,204);stroke-width:1px;stroke-linecap:round;"/>
    <path id="path9269" d="M128.748,251.032l-4.41,0.02" style="fill:rgb(204,204,204);fill-rule:nonzero;stroke:rgb(204,204,204);stroke-width:1px;stroke-linecap:round;"/>
    <path id="path9272" d="M110.429,250.908l-4.414,0.02" style="fill:rgb(204,204,204);fill-rule:nonzero;stroke:rgb(204,204,204);stroke-width:1px;stroke-linecap:round;"/>
    <path id="path9275" d="M117.087,242l-0.024,-13.31" style="fill:none;stroke:rgb(204,204,204);stroke-width:1px;stroke-linecap:round;"/>
    <path id="path9278" d="M63.926,297.886l1.093,2.757l1.1,-2.757l1.277,0l-1.909,4.526l-0.936,0l-1.901,-4.526l1.276,0Z" style="fill:white;fill-rule:nonzero;"/>
    <path id="path9280" d="M70.913,299.399c-0.272,-0.333 -0.608,-0.497 -1.008,-0.497c-0.176,0 -0.34,0.032 -0.488,0.096c-0.152,0.064 -0.28,0.152 -0.389,0.26c-0.108,0.113 -0.192,0.241 -0.256,0.393c-0.06,0.152 -0.092,0.316 -0.092,0.492c0,0.18 0.032,0.348 0.092,0.5c0.064,0.152 0.148,0.284 0.26,0.396c0.109,0.112 0.237,0.2 0.385,0.264c0.148,0.064 0.308,0.096 0.48,0.096c0.376,0 0.716,-0.16 1.016,-0.48l0,1.393l-0.12,0.04c-0.18,0.064 -0.348,0.112 -0.504,0.14c-0.156,0.032 -0.312,0.044 -0.464,0.044c-0.312,0 -0.608,-0.056 -0.897,-0.176c-0.284,-0.116 -0.536,-0.284 -0.756,-0.497c-0.216,-0.216 -0.392,-0.468 -0.524,-0.764c-0.132,-0.292 -0.196,-0.612 -0.196,-0.96c0,-0.348 0.064,-0.669 0.192,-0.957c0.132,-0.292 0.304,-0.54 0.524,-0.752c0.216,-0.208 0.468,-0.372 0.756,-0.492c0.289,-0.116 0.593,-0.176 0.909,-0.176c0.18,0 0.356,0.02 0.528,0.056c0.176,0.04 0.36,0.096 0.552,0.176l0,1.405Z" style="fill:white;fill-rule:nonzero;"/>
    <path id="path9282" d="M74.223,300.731l-0.529,-1.505l-0.528,1.505l1.057,0Zm0.312,0.896l-1.681,0l-0.268,0.785l-1.253,0l1.721,-4.526l1.285,0l1.72,4.526l-1.252,0l-0.272,-0.785Z" style="fill:white;fill-rule:nonzero;"/>
    <path id="path9286" d="M64.299,308.886l0,3.529l1.412,0l0,0.997l-2.589,0l0,-4.526l1.177,0Z" style="fill:white;fill-rule:nonzero;"/>
    <path id="path9288" d="M67.252,311.151c0,0.18 0.036,0.344 0.104,0.496c0.068,0.152 0.156,0.284 0.272,0.396c0.116,0.112 0.252,0.2 0.408,0.26c0.152,0.064 0.316,0.096 0.488,0.096c0.172,0 0.336,-0.032 0.488,-0.096c0.157,-0.06 0.293,-0.148 0.409,-0.26c0.12,-0.112 0.212,-0.244 0.28,-0.396c0.068,-0.152 0.1,-0.316 0.1,-0.496c0,-0.18 -0.032,-0.348 -0.1,-0.5c-0.068,-0.152 -0.16,-0.284 -0.28,-0.397c-0.116,-0.112 -0.252,-0.196 -0.409,-0.26c-0.152,-0.06 -0.316,-0.092 -0.488,-0.092c-0.172,0 -0.336,0.032 -0.488,0.092c-0.156,0.064 -0.292,0.148 -0.408,0.26c-0.116,0.113 -0.204,0.245 -0.272,0.397c-0.068,0.152 -0.104,0.32 -0.104,0.5Zm-1.229,0c0,-0.336 0.06,-0.648 0.184,-0.941c0.124,-0.288 0.296,-0.544 0.517,-0.76c0.22,-0.216 0.484,-0.384 0.788,-0.504c0.308,-0.124 0.644,-0.184 1.012,-0.184c0.364,0 0.701,0.06 1.009,0.184c0.308,0.12 0.572,0.288 0.792,0.504c0.224,0.216 0.396,0.472 0.52,0.76c0.124,0.293 0.188,0.605 0.188,0.941c0,0.336 -0.064,0.648 -0.188,0.936c-0.124,0.292 -0.296,0.544 -0.52,0.761c-0.22,0.216 -0.484,0.384 -0.792,0.508c-0.308,0.12 -0.645,0.18 -1.009,0.18c-0.368,0 -0.704,-0.06 -1.012,-0.18c-0.304,-0.124 -0.568,-0.292 -0.788,-0.508c-0.221,-0.217 -0.393,-0.469 -0.517,-0.761c-0.124,-0.288 -0.184,-0.6 -0.184,-0.936Z" style="fill:white;fill-rule:nonzero;"/>
    <path id="path9290" d="M72.458,308.886l0.78,2.925l0.961,-2.925l0.936,0l0.96,2.925l0.781,-2.925l1.228,0l-1.348,4.526l-1.201,0l-0.888,-2.621l-0.889,2.621l-1.2,0l-1.349,-4.526l1.229,0Z" style="fill:white;fill-rule:nonzero;"/>
    <path id="path9292" d="M79.757,310.963l0.388,0c0.432,0 0.648,-0.188 0.648,-0.564c0,-0.377 -0.216,-0.565 -0.648,-0.565l-0.388,0l0,1.129Zm0,2.449l-1.177,0l0,-4.526l1.873,0c0.508,0 0.897,0.132 1.165,0.396c0.272,0.264 0.404,0.636 0.404,1.117c0,0.48 -0.132,0.852 -0.404,1.116c-0.268,0.264 -0.657,0.396 -1.165,0.396l-0.696,0l0,1.501Z" style="fill:white;fill-rule:nonzero;"/>
    <path id="path9294" d="M84.855,311.731l-0.528,-1.505l-0.528,1.505l1.056,0Zm0.312,0.896l-1.681,0l-0.268,0.785l-1.256,0l1.725,-4.526l1.284,0l1.721,4.526l-1.253,0l-0.272,-0.785Z" style="fill:white;fill-rule:nonzero;"/>
    <path id="path9296" d="M89.693,310.046c-0.128,-0.104 -0.256,-0.18 -0.384,-0.232c-0.128,-0.048 -0.252,-0.076 -0.372,-0.076c-0.152,0 -0.276,0.036 -0.372,0.108c-0.096,0.072 -0.144,0.168 -0.144,0.284c0,0.08 0.024,0.145 0.072,0.197c0.048,0.052 0.112,0.1 0.188,0.136c0.08,0.04 0.168,0.072 0.264,0.1c0.1,0.028 0.196,0.056 0.292,0.088c0.384,0.128 0.664,0.3 0.84,0.512c0.18,0.216 0.268,0.496 0.268,0.84c0,0.232 -0.04,0.44 -0.116,0.628c-0.08,0.189 -0.192,0.349 -0.344,0.485c-0.148,0.132 -0.332,0.236 -0.552,0.312c-0.216,0.072 -0.464,0.108 -0.74,0.108c-0.573,0 -1.101,-0.168 -1.589,-0.508l0.504,-0.949c0.176,0.156 0.348,0.272 0.52,0.348c0.172,0.076 0.345,0.116 0.513,0.116c0.192,0 0.336,-0.044 0.428,-0.132c0.096,-0.088 0.14,-0.188 0.14,-0.3c0,-0.068 -0.012,-0.128 -0.036,-0.18c-0.024,-0.048 -0.064,-0.096 -0.12,-0.136c-0.056,-0.044 -0.128,-0.08 -0.216,-0.116c-0.092,-0.036 -0.2,-0.076 -0.328,-0.12c-0.153,-0.048 -0.301,-0.104 -0.449,-0.16c-0.144,-0.06 -0.276,-0.136 -0.388,-0.232c-0.116,-0.096 -0.208,-0.216 -0.276,-0.36c-0.072,-0.148 -0.108,-0.332 -0.108,-0.557c0,-0.224 0.04,-0.428 0.112,-0.608c0.076,-0.184 0.18,-0.34 0.312,-0.468c0.136,-0.132 0.3,-0.232 0.492,-0.304c0.196,-0.072 0.413,-0.108 0.653,-0.108c0.224,0 0.456,0.032 0.7,0.092c0.244,0.064 0.48,0.152 0.704,0.272l-0.468,0.92Z" style="fill:white;fill-rule:nonzero;"/>
    <path id="path9298" d="M93.567,310.046c-0.128,-0.104 -0.256,-0.18 -0.385,-0.232c-0.128,-0.048 -0.252,-0.076 -0.372,-0.076c-0.152,0 -0.276,0.036 -0.372,0.108c-0.096,0.072 -0.144,0.168 -0.144,0.284c0,0.08 0.024,0.145 0.072,0.197c0.048,0.052 0.112,0.1 0.192,0.136c0.076,0.04 0.164,0.072 0.264,0.1c0.096,0.028 0.192,0.056 0.288,0.088c0.385,0.128 0.669,0.3 0.845,0.512c0.176,0.216 0.268,0.496 0.268,0.84c0,0.232 -0.04,0.44 -0.12,0.628c-0.076,0.189 -0.188,0.349 -0.34,0.485c-0.148,0.132 -0.332,0.236 -0.552,0.312c-0.217,0.072 -0.465,0.108 -0.741,0.108c-0.572,0 -1.1,-0.168 -1.588,-0.508l0.504,-0.949c0.176,0.156 0.348,0.272 0.52,0.348c0.172,0.076 0.34,0.116 0.508,0.116c0.192,0 0.336,-0.044 0.432,-0.132c0.092,-0.088 0.14,-0.188 0.14,-0.3c0,-0.068 -0.012,-0.128 -0.036,-0.18c-0.024,-0.048 -0.064,-0.096 -0.12,-0.136c-0.056,-0.044 -0.128,-0.08 -0.22,-0.116c-0.088,-0.036 -0.2,-0.076 -0.328,-0.12c-0.152,-0.048 -0.3,-0.104 -0.444,-0.16c-0.148,-0.06 -0.276,-0.136 -0.392,-0.232c-0.112,-0.096 -0.204,-0.216 -0.276,-0.36c-0.068,-0.148 -0.104,-0.332 -0.104,-0.557c0,-0.224 0.036,-0.428 0.112,-0.608c0.072,-0.184 0.176,-0.34 0.312,-0.468c0.132,-0.132 0.296,-0.232 0.492,-0.304c0.192,-0.072 0.408,-0.108 0.648,-0.108c0.224,0 0.46,0.032 0.705,0.092c0.244,0.064 0.476,0.152 0.7,0.272l-0.468,0.92Z" style="fill:white;fill-rule:nonzero;"/>
    <path id="path9302" d="M74.643,80.169c5.718,-9.906 3.48,-22.611 -5.286,-29.963c-8.761,-7.353 -21.66,-7.353 -30.422,0c-8.762,7.352 -11.004,20.057 -5.282,29.963" style="fill:none;stroke:rgb(204,204,204);stroke-width:1.5px;stroke-linecap:round;"/>
    <path id="path9630" d="M73.869,82.66l0.05,9.217" style="fill:rgb(204,204,204);fill-rule:nonzero;stroke:rgb(204,204,204);stroke-width:1.5px;stroke-linecap:round;"/>
    <path id="path9630-1" d="M78.5,87.202l-9.213,0.043" style="fill:rgb(204,204,204);fill-rule:nonzero;stroke:rgb(204,204,204);stroke-width:1.5px;stroke-linecap:round;"/>
    <path id="path9630-1-6" d="M40.239,86.941l-9.213,0.043" style="fill:rgb(204,204,204);fill-rule:nonzero;stroke:rgb(204,204,204);stroke-width:1.5px;stroke-linecap:round;"/>
    <path id="path9948" d="M54.146,68.34l-0.047,-26.347" style="fill:none;stroke:rgb(204,204,204);stroke-width:1.5px;stroke-linecap:round;"/>
    <path id="path9311" d="M40.706,159.164c0,0.24 0.044,0.46 0.136,0.664c0.092,0.204 0.212,0.38 0.368,0.528c0.156,0.148 0.336,0.264 0.54,0.348c0.204,0.084 0.424,0.124 0.652,0.124c0.228,0 0.449,-0.04 0.653,-0.124c0.204,-0.084 0.388,-0.2 0.544,-0.348c0.156,-0.148 0.28,-0.324 0.372,-0.528c0.092,-0.204 0.136,-0.424 0.136,-0.664c0,-0.241 -0.044,-0.461 -0.136,-0.665c-0.092,-0.204 -0.216,-0.38 -0.372,-0.528c-0.156,-0.148 -0.34,-0.264 -0.544,-0.348c-0.204,-0.084 -0.425,-0.124 -0.653,-0.124c-0.228,0 -0.448,0.04 -0.652,0.124c-0.204,0.084 -0.384,0.2 -0.54,0.348c-0.156,0.148 -0.276,0.324 -0.368,0.528c-0.092,0.204 -0.136,0.424 -0.136,0.665Zm-1.641,0c0,-0.449 0.084,-0.865 0.248,-1.253c0.164,-0.388 0.396,-0.724 0.688,-1.012c0.292,-0.289 0.645,-0.513 1.053,-0.677c0.408,-0.164 0.856,-0.244 1.348,-0.244c0.485,0 0.933,0.08 1.345,0.244c0.412,0.164 0.764,0.388 1.06,0.677c0.296,0.288 0.529,0.624 0.693,1.012c0.164,0.388 0.248,0.804 0.248,1.253c0,0.448 -0.084,0.864 -0.248,1.252c-0.164,0.388 -0.397,0.724 -0.693,1.012c-0.296,0.289 -0.648,0.513 -1.06,0.677c-0.412,0.164 -0.86,0.244 -1.345,0.244c-0.492,0 -0.94,-0.08 -1.348,-0.244c-0.408,-0.164 -0.761,-0.388 -1.053,-0.677c-0.292,-0.288 -0.524,-0.624 -0.688,-1.012c-0.164,-0.388 -0.248,-0.804 -0.248,-1.252Z" style="fill:white;fill-rule:nonzero;"/>
    <path id="path9313" d="M50.198,157.475l-1.889,0l0,1.008l1.72,0l0,1.329l-1.72,0l0,2.369l-1.569,0l0,-6.035l3.458,0l0,1.329Z" style="fill:white;fill-rule:nonzero;"/>
    <path id="path9315" d="M54.591,157.475l-1.888,0l0,1.008l1.72,0l0,1.329l-1.72,0l0,2.369l-1.569,0l0,-6.035l3.457,0l0,1.329Z" style="fill:white;fill-rule:nonzero;"/>
    <path id="path9317" d="M58.841,157.691c-0.172,-0.14 -0.34,-0.24 -0.512,-0.308c-0.172,-0.068 -0.336,-0.1 -0.496,-0.1c-0.204,0 -0.368,0.048 -0.496,0.144c-0.129,0.096 -0.193,0.22 -0.193,0.376c0,0.108 0.032,0.196 0.096,0.264c0.065,0.068 0.149,0.128 0.253,0.18c0.104,0.052 0.22,0.096 0.352,0.132c0.132,0.036 0.26,0.076 0.388,0.12c0.512,0.172 0.888,0.4 1.124,0.685c0.236,0.284 0.357,0.656 0.357,1.116c0,0.308 -0.053,0.588 -0.157,0.84c-0.104,0.252 -0.256,0.465 -0.456,0.645c-0.2,0.18 -0.444,0.316 -0.736,0.416c-0.292,0.1 -0.62,0.148 -0.988,0.148c-0.765,0 -1.469,-0.228 -2.121,-0.68l0.672,-1.265c0.236,0.208 0.468,0.364 0.696,0.464c0.228,0.1 0.456,0.152 0.681,0.152c0.256,0 0.448,-0.06 0.572,-0.176c0.124,-0.116 0.188,-0.252 0.188,-0.4c0,-0.092 -0.016,-0.168 -0.048,-0.236c-0.032,-0.068 -0.084,-0.128 -0.16,-0.184c-0.076,-0.056 -0.172,-0.108 -0.292,-0.156c-0.12,-0.048 -0.264,-0.1 -0.437,-0.16c-0.204,-0.064 -0.4,-0.136 -0.596,-0.212c-0.196,-0.076 -0.368,-0.18 -0.52,-0.308c-0.152,-0.128 -0.276,-0.289 -0.368,-0.485c-0.092,-0.196 -0.14,-0.44 -0.14,-0.74c0,-0.3 0.048,-0.568 0.148,-0.812c0.1,-0.244 0.236,-0.452 0.416,-0.625c0.18,-0.172 0.396,-0.308 0.656,-0.404c0.26,-0.096 0.549,-0.144 0.869,-0.144c0.3,0 0.612,0.04 0.936,0.124c0.324,0.084 0.636,0.204 0.936,0.364l-0.624,1.225Z" style="fill:white;fill-rule:nonzero;"/>
    <path id="path9319" d="M64.131,157.475l-1.864,0l0,1.008l1.76,0l0,1.329l-1.76,0l0,1.04l1.864,0l0,1.329l-3.433,0l0,-6.035l3.433,0l0,1.329Z" style="fill:white;fill-rule:nonzero;"/>
    <path id="path9321" d="M67.549,157.475l0,4.706l-1.569,0l0,-4.706l-1.288,0l0,-1.329l4.145,0l0,1.329l-1.288,0Z" style="fill:white;fill-rule:nonzero;"/>
    <path id="path9326" d="M126.904,124.593c2.737,-4.742 1.664,-10.824 -2.534,-14.346c-4.193,-3.521 -10.372,-3.521 -14.566,0c-4.197,3.522 -5.27,9.604 -2.533,14.346l9.816,-5.666l9.817,5.666Z" style="fill:none;stroke:rgb(204,204,204);stroke-width:1px;stroke-linecap:round;"/>
    <path id="path9329" d="M126.531,125.79l0.024,4.409" style="fill:rgb(204,204,204);fill-rule:nonzero;stroke:rgb(204,204,204);stroke-width:1px;stroke-linecap:round;"/>
    <path id="path9332" d="M128.748,127.963l-4.41,0.02" style="fill:rgb(204,204,204);fill-rule:nonzero;stroke:rgb(204,204,204);stroke-width:1px;stroke-linecap:round;"/>
    <path id="path9335" d="M110.429,127.839l-4.414,0.02" style="fill:rgb(204,204,204);fill-rule:nonzero;stroke:rgb(204,204,204);stroke-width:1px;stroke-linecap:round;"/>
    <path id="path9338" d="M117.087,118.931l-0.024,-13.31" style="fill:none;stroke:rgb(204,204,204);stroke-width:1px;stroke-linecap:round;"/>
    <path id="path9341" d="M74.643,142.169c5.718,-9.906 3.48,-22.611 -5.286,-29.963c-8.761,-7.353 -21.66,-7.353 -30.422,0c-8.762,7.352 -11.004,20.057 -5.282,29.963" style="fill:none;stroke:rgb(204,204,204);stroke-width:1.5px;stroke-linecap:round;"/>
    <path id="path96301" serif:id="path9630" d="M73.869,144.66l0.05,9.217" style="fill:rgb(204,204,204);fill-rule:nonzero;stroke:rgb(204,204,204);stroke-width:2.06px;"/>
    <path id="path9630-11" serif:id="path9630-1" d="M78.5,149.202l-9.213,0.043" style="fill:rgb(204,204,204);fill-rule:nonzero;stroke:rgb(204,204,204);stroke-width:1.5px;stroke-linecap:round;"/>
    <path id="path9630-1-61" serif:id="path9630-1-6" d="M40.239,148.941l-9.213,0.043" style="fill:rgb(204,204,204);fill-rule:nonzero;stroke:rgb(204,204,204);stroke-width:1.5px;stroke-linecap:round;"/>
    <path id="path99481" serif:id="path9948" d="M54.146,130.34l-0.047,-26.347" style="fill:none;stroke:rgb(204,204,204);stroke-width:1.5px;stroke-linecap:round;"/>
    <g id="text7967-9-5">
      <g transform="matrix(1.05877,0,0,1.05877,22.3716,37.7142)">
        <path d="M0.686,-0.154l0,-0.954c0.645,0.27 1.196,0.404 1.653,0.404c0.534,0 0.801,-0.181 0.801,-0.545c0,-0.234 -0.22,-0.439 -0.66,-0.615l-0.44,-0.176c-0.478,-0.194 -0.819,-0.402 -1.024,-0.625c-0.205,-0.222 -0.308,-0.498 -0.308,-0.826c0,-0.458 0.174,-0.813 0.523,-1.067c0.349,-0.253 0.837,-0.38 1.464,-0.38c0.393,0 0.861,0.057 1.403,0.172l0,0.914c-0.522,-0.182 -0.954,-0.272 -1.297,-0.272c-0.539,0 -0.809,0.167 -0.809,0.501c0,0.22 0.199,0.406 0.598,0.558l0.378,0.145c0.566,0.214 0.959,0.431 1.181,0.651c0.221,0.22 0.332,0.503 0.332,0.849c0,0.454 -0.189,0.823 -0.565,1.106c-0.377,0.282 -0.867,0.424 -1.471,0.424c-0.581,0 -1.167,-0.088 -1.759,-0.264Z" style="fill:white;fill-rule:nonzero;"/>
        <path d="M5.905,0l0,-4.828l1.302,0l0,4.828l-1.302,0Zm0,-5.641l0,-1.087l1.302,0l0,1.087l-1.302,0Z" style="fill:white;fill-rule:nonzero;"/>
        <path d="M8.834,0l0,-4.828l1.248,0l0,0.91c0.382,-0.68 0.924,-1.02 1.627,-1.02c0.364,0 0.663,0.089 0.897,0.268c0.235,0.179 0.379,0.43 0.431,0.752c0.452,-0.68 0.997,-1.02 1.636,-1.02c0.882,0 1.324,0.487 1.324,1.46l0,3.478l-1.249,0l0,-3.052c0,-0.571 -0.191,-0.857 -0.572,-0.857c-0.39,0 -0.769,0.281 -1.139,0.844l0,3.065l-1.248,0l0,-3.052c0,-0.574 -0.192,-0.861 -0.576,-0.861c-0.384,0 -0.761,0.282 -1.131,0.848l0,3.065l-1.248,0Z" style="fill:white;fill-rule:nonzero;"/>
        <path d="M17.566,1.737l0,-6.565l1.302,0l0,0.91c0.334,-0.68 0.86,-1.02 1.578,-1.02c0.581,0 1.037,0.213 1.37,0.638c0.333,0.425 0.499,1.01 0.499,1.754c0,0.809 -0.187,1.454 -0.563,1.935c-0.375,0.481 -0.878,0.721 -1.508,0.721c-0.507,0 -0.966,-0.199 -1.376,-0.598l0,2.225l-1.302,0Zm1.302,-2.999c0.316,0.352 0.654,0.528 1.011,0.528c0.32,0 0.575,-0.155 0.765,-0.464c0.191,-0.309 0.286,-0.722 0.286,-1.238c0,-0.988 -0.318,-1.482 -0.954,-1.482c-0.384,0 -0.753,0.248 -1.108,0.743l0,1.913Z" style="fill:white;fill-rule:nonzero;"/>
        <rect x="23.533" y="-6.943" width="1.302" height="6.943" style="fill:white;fill-rule:nonzero;"/>
        <path d="M30.393,-0.163c-0.619,0.182 -1.205,0.273 -1.759,0.273c-0.806,0 -1.442,-0.229 -1.909,-0.686c-0.466,-0.457 -0.699,-1.082 -0.699,-1.873c0,-0.748 0.214,-1.349 0.64,-1.805c0.427,-0.456 0.99,-0.684 1.691,-0.684c0.706,0 1.222,0.223 1.548,0.668c0.325,0.446 0.488,1.151 0.488,2.115l-2.995,0c0.088,0.921 0.594,1.381 1.517,1.381c0.437,0 0.929,-0.101 1.478,-0.303l0,0.914Zm-3.012,-2.726l1.732,0c0,-0.824 -0.265,-1.235 -0.796,-1.235c-0.539,0 -0.851,0.411 -0.936,1.235Z" style="fill:white;fill-rule:nonzero;"/>
        <rect x="34.706" y="-6.943" width="1.302" height="6.943" style="fill:white;fill-rule:nonzero;"/>
        <path d="M40.112,0.11c-0.753,0 -1.352,-0.228 -1.796,-0.684c-0.444,-0.456 -0.666,-1.069 -0.666,-1.84c0,-0.78 0.223,-1.395 0.67,-1.847c0.447,-0.451 1.055,-0.677 1.823,-0.677c0.771,0 1.38,0.226 1.827,0.677c0.447,0.452 0.67,1.064 0.67,1.838c0,0.792 -0.224,1.412 -0.673,1.86c-0.448,0.449 -1.067,0.673 -1.855,0.673Zm0.022,-0.814c0.747,0 1.121,-0.573 1.121,-1.719c0,-0.525 -0.099,-0.939 -0.297,-1.244c-0.198,-0.305 -0.469,-0.457 -0.815,-0.457c-0.343,0 -0.614,0.152 -0.812,0.457c-0.197,0.305 -0.296,0.722 -0.296,1.253c0,0.525 0.098,0.941 0.294,1.249c0.197,0.308 0.465,0.461 0.805,0.461Z" style="fill:white;fill-rule:nonzero;"/>
        <path d="M44.689,0l-1.341,-4.828l1.209,0l0.95,3.381l1.011,-3.381l1.126,0l0.91,3.399l1.025,-3.399l0.906,0l-1.434,4.828l-1.249,0l-0.879,-3.311l-0.985,3.311l-1.249,0Z" style="fill:white;fill-rule:nonzero;"/>
        <path d="M54.844,1.737l0,-6.565l1.302,0l0,0.91c0.334,-0.68 0.86,-1.02 1.578,-1.02c0.581,0 1.037,0.213 1.37,0.638c0.333,0.425 0.499,1.01 0.499,1.754c0,0.809 -0.188,1.454 -0.563,1.935c-0.375,0.481 -0.878,0.721 -1.508,0.721c-0.507,0 -0.966,-0.199 -1.376,-0.598l0,2.225l-1.302,0Zm1.302,-2.999c0.316,0.352 0.653,0.528 1.011,0.528c0.319,0 0.574,-0.155 0.765,-0.464c0.191,-0.309 0.286,-0.722 0.286,-1.238c0,-0.988 -0.318,-1.482 -0.954,-1.482c-0.384,0 -0.754,0.248 -1.108,0.743l0,1.913Z" style="fill:white;fill-rule:nonzero;"/>
        <path d="M63.176,-0.519c-0.433,0.419 -0.898,0.629 -1.393,0.629c-0.423,0 -0.765,-0.129 -1.029,-0.387c-0.264,-0.258 -0.396,-0.592 -0.396,-1.003c0,-0.533 0.213,-0.944 0.64,-1.233c0.426,-0.289 1.037,-0.433 1.831,-0.433l0.347,0l0,-0.44c0,-0.501 -0.285,-0.752 -0.857,-0.752c-0.507,0 -1.02,0.144 -1.539,0.431l0,-0.897c0.589,-0.223 1.173,-0.334 1.75,-0.334c1.264,0 1.895,0.503 1.895,1.508l0,2.137c0,0.378 0.122,0.567 0.365,0.567c0.044,0 0.101,-0.005 0.172,-0.017l0.03,0.73c-0.275,0.082 -0.518,0.123 -0.729,0.123c-0.534,0 -0.877,-0.21 -1.029,-0.629l-0.058,0Zm0,-0.699l0,-0.981l-0.307,0c-0.842,0 -1.262,0.264 -1.262,0.792c0,0.179 0.061,0.329 0.182,0.451c0.122,0.121 0.272,0.182 0.451,0.182c0.305,0 0.617,-0.148 0.936,-0.444Z" style="fill:white;fill-rule:nonzero;"/>
        <path d="M65.977,-0.154l0,-0.954c0.645,0.27 1.196,0.404 1.654,0.404c0.533,0 0.8,-0.181 0.8,-0.545c0,-0.234 -0.22,-0.439 -0.66,-0.615l-0.439,-0.176c-0.478,-0.194 -0.82,-0.402 -1.025,-0.625c-0.205,-0.222 -0.308,-0.498 -0.308,-0.826c0,-0.458 0.175,-0.813 0.524,-1.067c0.349,-0.253 0.837,-0.38 1.464,-0.38c0.393,0 0.86,0.057 1.403,0.172l0,0.914c-0.522,-0.182 -0.955,-0.272 -1.298,-0.272c-0.539,0 -0.809,0.167 -0.809,0.501c0,0.22 0.2,0.406 0.598,0.558l0.379,0.145c0.565,0.214 0.959,0.431 1.18,0.651c0.221,0.22 0.332,0.503 0.332,0.849c0,0.454 -0.188,0.823 -0.565,1.106c-0.377,0.282 -0.867,0.424 -1.471,0.424c-0.58,0 -1.166,-0.088 -1.759,-0.264Z" style="fill:white;fill-rule:nonzero;"/>
        <path d="M71.069,-0.154l0,-0.954c0.645,0.27 1.196,0.404 1.654,0.404c0.533,0 0.8,-0.181 0.8,-0.545c0,-0.234 -0.22,-0.439 -0.66,-0.615l-0.439,-0.176c-0.478,-0.194 -0.82,-0.402 -1.025,-0.625c-0.205,-0.222 -0.308,-0.498 -0.308,-0.826c0,-0.458 0.175,-0.813 0.523,-1.067c0.349,-0.253 0.837,-0.38 1.465,-0.38c0.393,0 0.86,0.057 1.402,0.172l0,0.914c-0.521,-0.182 -0.954,-0.272 -1.297,-0.272c-0.539,0 -0.809,0.167 -0.809,0.501c0,0.22 0.2,0.406 0.598,0.558l0.378,0.145c0.566,0.214 0.96,0.431 1.181,0.651c0.221,0.22 0.332,0.503 0.332,0.849c0,0.454 -0.188,0.823 -0.565,1.106c-0.377,0.282 -0.867,0.424 -1.471,0.424c-0.58,0 -1.167,-0.088 -1.759,-0.264Z" style="fill:white;fill-rule:nonzero;"/>
        <path d="M79.292,1.499l0.105,-0.945c0.537,0.246 1.048,0.369 1.535,0.369c0.481,0 0.828,-0.102 1.042,-0.307c0.214,-0.206 0.321,-0.538 0.321,-0.999l0,-0.659c-0.317,0.695 -0.84,1.042 -1.57,1.042c-0.574,0 -1.03,-0.215 -1.367,-0.644c-0.337,-0.43 -0.506,-1.011 -0.506,-1.744c0,-0.771 0.189,-1.388 0.567,-1.853c0.378,-0.465 0.881,-0.697 1.508,-0.697c0.493,0 0.949,0.199 1.368,0.598l0.136,-0.488l1.17,0l0,3.685c0,0.736 -0.045,1.266 -0.134,1.592c-0.09,0.325 -0.263,0.602 -0.521,0.831c-0.434,0.375 -1.045,0.562 -1.834,0.562c-0.56,0 -1.167,-0.114 -1.82,-0.343Zm3.003,-3.297l0,-1.781c-0.314,-0.355 -0.642,-0.532 -0.985,-0.532c-0.328,0 -0.589,0.149 -0.783,0.448c-0.193,0.299 -0.29,0.701 -0.29,1.205c0,0.944 0.304,1.416 0.91,1.416c0.42,0 0.802,-0.252 1.148,-0.756Z" style="fill:white;fill-rule:nonzero;"/>
        <path d="M87.563,-0.519c-0.434,0.419 -0.899,0.629 -1.394,0.629c-0.422,0 -0.765,-0.129 -1.029,-0.387c-0.264,-0.258 -0.396,-0.592 -0.396,-1.003c0,-0.533 0.213,-0.944 0.64,-1.233c0.426,-0.289 1.037,-0.433 1.831,-0.433l0.348,0l0,-0.44c0,-0.501 -0.286,-0.752 -0.858,-0.752c-0.507,0 -1.02,0.144 -1.539,0.431l0,-0.897c0.589,-0.223 1.173,-0.334 1.75,-0.334c1.264,0 1.895,0.503 1.895,1.508l0,2.137c0,0.378 0.122,0.567 0.365,0.567c0.044,0 0.102,-0.005 0.172,-0.017l0.031,0.73c-0.276,0.082 -0.519,0.123 -0.73,0.123c-0.534,0 -0.877,-0.21 -1.029,-0.629l-0.057,0Zm0,-0.699l0,-0.981l-0.308,0c-0.841,0 -1.262,0.264 -1.262,0.792c0,0.179 0.061,0.329 0.182,0.451c0.122,0.121 0.272,0.182 0.451,0.182c0.305,0 0.617,-0.148 0.937,-0.444Z" style="fill:white;fill-rule:nonzero;"/>
        <path d="M92.98,-0.026c-0.311,0.09 -0.556,0.136 -0.734,0.136c-1.129,0 -1.693,-0.528 -1.693,-1.583l0,-2.542l-0.541,0l0,-0.813l0.541,0l0,-0.813l1.301,-0.15l0,0.963l1.034,0l0,0.813l-1.034,0l0,2.37c0,0.593 0.242,0.889 0.726,0.889c0.111,0 0.245,-0.021 0.4,-0.062l0,0.792Z" style="fill:white;fill-rule:nonzero;"/>
        <path d="M98.072,-0.163c-0.619,0.182 -1.205,0.273 -1.759,0.273c-0.806,0 -1.442,-0.229 -1.908,-0.686c-0.467,-0.457 -0.7,-1.082 -0.7,-1.873c0,-0.748 0.214,-1.349 0.64,-1.805c0.427,-0.456 0.99,-0.684 1.691,-0.684c0.706,0 1.222,0.223 1.548,0.668c0.325,0.446 0.488,1.151 0.488,2.115l-2.995,0c0.088,0.921 0.594,1.381 1.517,1.381c0.437,0 0.93,-0.101 1.478,-0.303l0,0.914Zm-3.012,-2.726l1.732,0c0,-0.824 -0.265,-1.235 -0.796,-1.235c-0.539,0 -0.851,0.411 -0.936,1.235Z" style="fill:white;fill-rule:nonzero;"/>
      </g>
    </g>
  </g>
</svg>