<?xml version="1.0" encoding="UTF-8" standalone="no"?>
<!DOCTYPE svg PUBLIC "-//W3C//DTD SVG 1.1//EN" "http://www.w3.org/Graphics/SVG/1.1/DTD/svg11.dtd">
<svg width="150px" height="380px" version="1.1" xmlns="http://www.w3.org/2000/svg" xmlns:xlink="http://www.w3.org/1999/xlink" xml:space="preserve" xmlns:serif="http://www.serif.com/" style="fill-rule:evenodd;clip-rule:evenodd;">
    <g id="Panel" transform="matrix(1,0,0,1,55.1709,-56.7292)">
        <g id="rect9931" transform="matrix(3.78941,0,0,3.78266,-55.3752,-686.609)">
            <rect x="0.054" y="196.512" width="39.584" height="100.458" style="fill:rgb(26,26,26);"/>
        </g>
        <g transform="matrix(1.41406,0,0,1.17625,-281.018,-23.9248)">
            <path d="M261.093,346.542c0,-2.856 -1.929,-5.176 -4.305,-5.176l-20.203,0c-2.376,0 -4.305,2.32 -4.305,5.176l0,24.153c0,2.857 1.929,5.176 4.305,5.176l20.203,0c2.376,0 4.305,-2.319 4.305,-5.176l0,-24.153Z"/>
        </g>
        <g id="path8216-1-5-0-2" transform="matrix(4.00166,0,0,-4.00166,-53.9875,-855.474)">
            <path d="M31.417,-243.598c0.684,1.185 0.416,2.705 -0.633,3.585c-1.048,0.88 -2.592,0.88 -3.64,0c-1.049,-0.88 -1.317,-2.4 -0.633,-3.585l2.453,1.416l2.453,-1.416Z" style="fill:none;stroke:rgb(204,204,204);stroke-width:0.26px;"/>
        </g>
        <g id="path9630-2-6-1" transform="matrix(4.00166,0,0,4.00166,-53.9875,-855.474)">
            <path d="M31.324,243.897l0.006,1.102" style="fill:rgb(204,204,204);fill-rule:nonzero;stroke:rgb(204,204,204);stroke-width:0.26px;"/>
        </g>
        <g id="path9630-1-1-4-7" transform="matrix(4.00166,0,0,4.00166,-53.9875,-855.474)">
            <path d="M31.878,244.44l-1.102,0.005" style="fill:rgb(204,204,204);fill-rule:nonzero;stroke:rgb(204,204,204);stroke-width:0.26px;"/>
        </g>
        <g id="path9630-1-6-9-9-2" transform="matrix(4.00166,0,0,4.00166,-53.9875,-855.474)">
            <path d="M27.3,244.409l-1.103,0.005" style="fill:rgb(204,204,204);fill-rule:nonzero;stroke:rgb(204,204,204);stroke-width:0.26px;"/>
        </g>
        <g id="path9948-9-9-4" transform="matrix(4.00166,0,0,4.00166,-53.9875,-855.474)">
            <path d="M28.964,242.183l-0.006,-3.326" style="fill:none;stroke:rgb(204,204,204);stroke-width:0.29px;"/>
        </g>
        <g transform="matrix(4.00166,0,0,4.00166,-16.4661,156.91)">
            <g id="text9293-4">
                <path d="M0.55,-0.834l0.074,0c0.077,0 0.137,-0.016 0.178,-0.048c0.041,-0.032 0.062,-0.078 0.062,-0.138c0,-0.06 -0.021,-0.106 -0.062,-0.138c-0.041,-0.032 -0.101,-0.048 -0.178,-0.048l-0.074,0l0,0.372Zm0.862,0.834l-0.488,0l-0.374,-0.58l0,0.58l-0.392,0l0,-1.508l0.61,0c0.084,0 0.157,0.012 0.22,0.037c0.063,0.025 0.114,0.058 0.155,0.101c0.041,0.043 0.071,0.092 0.092,0.148c0.021,0.056 0.031,0.116 0.031,0.18c0,0.115 -0.028,0.208 -0.083,0.279c-0.055,0.071 -0.137,0.12 -0.245,0.145l0.474,0.618Z" style="fill:white;fill-rule:nonzero;"/>
                <path d="M2.396,-0.56l-0.176,-0.502l-0.176,0.502l0.352,0Zm0.104,0.298l-0.56,0l-0.09,0.262l-0.418,0l0.574,-1.508l0.428,0l0.574,1.508l-0.418,0l-0.09,-0.262Z" style="fill:white;fill-rule:nonzero;"/>
                <path d="M3.18,0l0,-1.508l0.392,0l0.724,0.922l0,-0.922l0.39,0l0,1.508l-0.39,0l-0.724,-0.922l0,0.922l-0.392,0Z" style="fill:white;fill-rule:nonzero;"/>
                <path d="M5.764,-0.844l0.778,0c0,0.08 -0.003,0.153 -0.01,0.218c-0.007,0.065 -0.02,0.126 -0.04,0.182c-0.028,0.079 -0.066,0.148 -0.114,0.209c-0.048,0.061 -0.104,0.111 -0.169,0.152c-0.065,0.041 -0.136,0.072 -0.213,0.093c-0.077,0.021 -0.159,0.032 -0.244,0.032c-0.117,0 -0.224,-0.019 -0.321,-0.058c-0.097,-0.039 -0.18,-0.093 -0.249,-0.163c-0.069,-0.07 -0.123,-0.154 -0.162,-0.252c-0.039,-0.098 -0.058,-0.206 -0.058,-0.325c0,-0.117 0.019,-0.225 0.057,-0.323c0.038,-0.098 0.092,-0.182 0.162,-0.251c0.07,-0.069 0.154,-0.123 0.253,-0.162c0.099,-0.039 0.209,-0.058 0.33,-0.058c0.157,0 0.295,0.034 0.414,0.102c0.119,0.068 0.213,0.173 0.282,0.316l-0.372,0.154c-0.035,-0.083 -0.08,-0.142 -0.135,-0.178c-0.055,-0.036 -0.118,-0.054 -0.189,-0.054c-0.059,0 -0.112,0.011 -0.16,0.033c-0.048,0.022 -0.089,0.053 -0.123,0.094c-0.034,0.041 -0.061,0.09 -0.08,0.147c-0.019,0.057 -0.029,0.121 -0.029,0.192c0,0.064 0.008,0.123 0.025,0.178c0.017,0.055 0.042,0.102 0.075,0.142c0.033,0.04 0.075,0.071 0.124,0.093c0.049,0.022 0.107,0.033 0.172,0.033c0.039,0 0.076,-0.004 0.112,-0.013c0.036,-0.009 0.068,-0.023 0.097,-0.042c0.029,-0.019 0.052,-0.044 0.071,-0.075c0.019,-0.031 0.031,-0.068 0.038,-0.112l-0.322,0l0,-0.304Z" style="fill:white;fill-rule:nonzero;"/>
                <path d="M7.648,-1.176l-0.466,0l0,0.252l0.44,0l0,0.332l-0.44,0l0,0.26l0.466,0l0,0.332l-0.858,0l0,-1.508l0.858,0l0,0.332Z" style="fill:white;fill-rule:nonzero;"/>
            </g>
        </g>
        <g id="path8216-1-5-0-21" serif:id="path8216-1-5-0-2" transform="matrix(4.00166,0,0,-4.00166,-53.9875,-855.474)">
            <path d="M31.417,-243.598c0.684,1.185 0.416,2.705 -0.633,3.585c-1.048,0.88 -2.592,0.88 -3.64,0c-1.049,-0.88 -1.317,-2.4 -0.633,-3.585l2.453,1.416l2.453,-1.416Z" style="fill:none;stroke:rgb(204,204,204);stroke-width:0.26px;"/>
        </g>
        <g id="path9630-2-6-11" serif:id="path9630-2-6-1" transform="matrix(4.00166,0,0,4.00166,-53.9875,-855.474)">
            <path d="M31.324,243.897l0.006,1.102" style="fill:rgb(204,204,204);fill-rule:nonzero;stroke:rgb(204,204,204);stroke-width:0.26px;"/>
        </g>
        <g id="path9630-1-1-4-71" serif:id="path9630-1-1-4-7" transform="matrix(4.00166,0,0,4.00166,-53.9875,-855.474)">
            <path d="M31.878,244.44l-1.102,0.005" style="fill:rgb(204,204,204);fill-rule:nonzero;stroke:rgb(204,204,204);stroke-width:0.26px;"/>
        </g>
        <g id="path9630-1-6-9-9-21" serif:id="path9630-1-6-9-9-2" transform="matrix(4.00166,0,0,4.00166,-53.9875,-855.474)">
            <path d="M27.3,244.409l-1.103,0.005" style="fill:rgb(204,204,204);fill-rule:nonzero;stroke:rgb(204,204,204);stroke-width:0.26px;"/>
        </g>
        <g id="path9948-9-9-41" serif:id="path9948-9-9-4" transform="matrix(4.00166,0,0,4.00166,-53.9875,-855.474)">
            <path d="M28.964,242.183l-0.006,-3.326" style="fill:none;stroke:rgb(204,204,204);stroke-width:0.29px;"/>
        </g>
        <g id="path8216-1-5-0-22" serif:id="path8216-1-5-0-2" transform="matrix(4.00166,0,0,-4.00166,-53.9875,-733.405)">
            <path d="M31.417,-243.598c0.684,1.185 0.416,2.705 -0.633,3.585c-1.048,0.88 -2.592,0.88 -3.64,0c-1.049,-0.88 -1.317,-2.4 -0.633,-3.585l2.453,1.416l2.453,-1.416Z" style="fill:none;stroke:rgb(204,204,204);stroke-width:0.26px;"/>
        </g>
        <g id="path9630-2-6-12" serif:id="path9630-2-6-1" transform="matrix(4.00166,0,0,4.00166,-53.9875,-733.405)">
            <path d="M31.324,243.897l0.006,1.102" style="fill:rgb(204,204,204);fill-rule:nonzero;stroke:rgb(204,204,204);stroke-width:0.26px;"/>
        </g>
        <g id="path9630-1-1-4-72" serif:id="path9630-1-1-4-7" transform="matrix(4.00166,0,0,4.00166,-53.9875,-733.405)">
            <path d="M31.878,244.44l-1.102,0.005" style="fill:rgb(204,204,204);fill-rule:nonzero;stroke:rgb(204,204,204);stroke-width:0.26px;"/>
        </g>
        <g id="path9630-1-6-9-9-22" serif:id="path9630-1-6-9-9-2" transform="matrix(4.00166,0,0,4.00166,-53.9875,-733.405)">
            <path d="M27.3,244.409l-1.103,0.005" style="fill:rgb(204,204,204);fill-rule:nonzero;stroke:rgb(204,204,204);stroke-width:0.26px;"/>
        </g>
        <g id="path9948-9-9-42" serif:id="path9948-9-9-4" transform="matrix(4.00166,0,0,4.00166,-53.9875,-733.405)">
            <path d="M28.964,242.183l-0.006,-3.326" style="fill:none;stroke:rgb(204,204,204);stroke-width:0.29px;"/>
        </g>
        <g transform="matrix(4.00166,0,0,4.00166,-27.4318,280.543)">
            <g id="text9293-41" serif:id="text9293-4">
                <path d="M0.55,-0.834l0.074,0c0.077,0 0.137,-0.016 0.178,-0.048c0.041,-0.032 0.062,-0.078 0.062,-0.138c0,-0.06 -0.021,-0.106 -0.062,-0.138c-0.041,-0.032 -0.101,-0.048 -0.178,-0.048l-0.074,0l0,0.372Zm0.862,0.834l-0.488,0l-0.374,-0.58l0,0.58l-0.392,0l0,-1.508l0.61,0c0.084,0 0.157,0.012 0.22,0.037c0.063,0.025 0.114,0.058 0.155,0.101c0.041,0.043 0.071,0.092 0.092,0.148c0.021,0.056 0.031,0.116 0.031,0.18c0,0.115 -0.028,0.208 -0.083,0.279c-0.055,0.071 -0.137,0.12 -0.245,0.145l0.474,0.618Z" style="fill:white;fill-rule:nonzero;"/>
                <path d="M2.434,-1.176l-0.466,0l0,0.252l0.44,0l0,0.332l-0.44,0l0,0.26l0.466,0l0,0.332l-0.858,0l0,-1.508l0.858,0l0,0.332Z" style="fill:white;fill-rule:nonzero;"/>
                <path d="M3.544,-1.122c-0.043,-0.035 -0.085,-0.06 -0.128,-0.077c-0.043,-0.017 -0.084,-0.025 -0.124,-0.025c-0.051,0 -0.092,0.012 -0.124,0.036c-0.032,0.024 -0.048,0.055 -0.048,0.094c0,0.027 0.008,0.049 0.024,0.066c0.016,0.017 0.037,0.032 0.063,0.045c0.026,0.013 0.055,0.024 0.088,0.033c0.033,0.009 0.065,0.019 0.097,0.03c0.128,0.043 0.222,0.1 0.281,0.171c0.059,0.071 0.089,0.164 0.089,0.279c0,0.077 -0.013,0.147 -0.039,0.21c-0.026,0.063 -0.064,0.116 -0.114,0.161c-0.05,0.045 -0.111,0.079 -0.184,0.104c-0.073,0.025 -0.155,0.037 -0.247,0.037c-0.191,0 -0.367,-0.057 -0.53,-0.17l0.168,-0.316c0.059,0.052 0.117,0.091 0.174,0.116c0.057,0.025 0.114,0.038 0.17,0.038c0.064,0 0.112,-0.015 0.143,-0.044c0.031,-0.029 0.047,-0.063 0.047,-0.1c0,-0.023 -0.004,-0.042 -0.012,-0.059c-0.008,-0.017 -0.021,-0.032 -0.04,-0.046c-0.019,-0.014 -0.043,-0.027 -0.073,-0.039c-0.03,-0.012 -0.066,-0.025 -0.109,-0.04c-0.051,-0.016 -0.1,-0.034 -0.149,-0.053c-0.049,-0.019 -0.092,-0.045 -0.13,-0.077c-0.038,-0.032 -0.069,-0.072 -0.092,-0.121c-0.023,-0.049 -0.035,-0.11 -0.035,-0.185c0,-0.075 0.012,-0.142 0.037,-0.203c0.025,-0.061 0.059,-0.113 0.104,-0.156c0.045,-0.043 0.099,-0.077 0.164,-0.101c0.065,-0.024 0.137,-0.036 0.217,-0.036c0.075,0 0.153,0.01 0.234,0.031c0.081,0.021 0.159,0.051 0.234,0.091l-0.156,0.306Z" style="fill:white;fill-rule:nonzero;"/>
                <path d="M4.35,-0.754c0,0.06 0.011,0.115 0.034,0.166c0.023,0.051 0.053,0.095 0.092,0.132c0.039,0.037 0.084,0.066 0.135,0.087c0.051,0.021 0.106,0.031 0.163,0.031c0.057,0 0.112,-0.01 0.163,-0.031c0.051,-0.021 0.097,-0.05 0.136,-0.087c0.039,-0.037 0.07,-0.081 0.093,-0.132c0.023,-0.051 0.034,-0.106 0.034,-0.166c0,-0.06 -0.011,-0.115 -0.034,-0.166c-0.023,-0.051 -0.054,-0.095 -0.093,-0.132c-0.039,-0.037 -0.085,-0.066 -0.136,-0.087c-0.051,-0.021 -0.106,-0.031 -0.163,-0.031c-0.057,0 -0.112,0.01 -0.163,0.031c-0.051,0.021 -0.096,0.05 -0.135,0.087c-0.039,0.037 -0.069,0.081 -0.092,0.132c-0.023,0.051 -0.034,0.106 -0.034,0.166Zm-0.41,0c0,-0.112 0.021,-0.216 0.062,-0.313c0.041,-0.097 0.099,-0.181 0.172,-0.253c0.073,-0.072 0.161,-0.128 0.263,-0.169c0.102,-0.041 0.214,-0.061 0.337,-0.061c0.121,0 0.233,0.02 0.336,0.061c0.103,0.041 0.191,0.097 0.265,0.169c0.074,0.072 0.132,0.156 0.173,0.253c0.041,0.097 0.062,0.201 0.062,0.313c0,0.112 -0.021,0.216 -0.062,0.313c-0.041,0.097 -0.099,0.181 -0.173,0.253c-0.074,0.072 -0.162,0.128 -0.265,0.169c-0.103,0.041 -0.215,0.061 -0.336,0.061c-0.123,0 -0.235,-0.02 -0.337,-0.061c-0.102,-0.041 -0.19,-0.097 -0.263,-0.169c-0.073,-0.072 -0.131,-0.156 -0.172,-0.253c-0.041,-0.097 -0.062,-0.201 -0.062,-0.313Z" style="fill:white;fill-rule:nonzero;"/>
                <path d="M5.858,0l0,-1.508l0.392,0l0.724,0.922l0,-0.922l0.39,0l0,1.508l-0.39,0l-0.724,-0.922l0,0.922l-0.392,0Z" style="fill:white;fill-rule:nonzero;"/>
                <path d="M8.504,-0.56l-0.176,-0.502l-0.176,0.502l0.352,0Zm0.104,0.298l-0.56,0l-0.09,0.262l-0.418,0l0.574,-1.508l0.428,0l0.574,1.508l-0.418,0l-0.09,-0.262Z" style="fill:white;fill-rule:nonzero;"/>
                <path d="M9.288,0l0,-1.508l0.392,0l0.724,0.922l0,-0.922l0.39,0l0,1.508l-0.39,0l-0.724,-0.922l0,0.922l-0.392,0Z" style="fill:white;fill-rule:nonzero;"/>
                <path d="M12.216,-1.004c-0.091,-0.111 -0.203,-0.166 -0.336,-0.166c-0.059,0 -0.113,0.011 -0.163,0.032c-0.05,0.021 -0.093,0.05 -0.129,0.087c-0.036,0.037 -0.064,0.08 -0.085,0.131c-0.021,0.051 -0.031,0.105 -0.031,0.164c0,0.06 0.01,0.115 0.031,0.166c0.021,0.051 0.049,0.095 0.086,0.132c0.037,0.037 0.08,0.067 0.129,0.088c0.049,0.021 0.103,0.032 0.16,0.032c0.125,0 0.238,-0.053 0.338,-0.16l0,0.464l-0.04,0.014c-0.06,0.021 -0.116,0.037 -0.168,0.047c-0.052,0.01 -0.103,0.015 -0.154,0.015c-0.104,0 -0.204,-0.02 -0.299,-0.059c-0.095,-0.039 -0.179,-0.095 -0.252,-0.166c-0.073,-0.071 -0.131,-0.156 -0.175,-0.254c-0.044,-0.098 -0.066,-0.205 -0.066,-0.321c0,-0.116 0.022,-0.222 0.065,-0.319c0.043,-0.097 0.101,-0.18 0.174,-0.25c0.073,-0.07 0.157,-0.125 0.253,-0.164c0.096,-0.039 0.197,-0.059 0.302,-0.059c0.06,0 0.119,0.006 0.177,0.019c0.058,0.013 0.119,0.032 0.183,0.059l0,0.468Z" style="fill:white;fill-rule:nonzero;"/>
                <path d="M13.322,-1.176l-0.466,0l0,0.252l0.44,0l0,0.332l-0.44,0l0,0.26l0.466,0l0,0.332l-0.858,0l0,-1.508l0.858,0l0,0.332Z" style="fill:white;fill-rule:nonzero;"/>
            </g>
        </g>
        <g id="path8216-1-5-0-23" serif:id="path8216-1-5-0-2" transform="matrix(4.00166,0,0,-4.00166,-53.9875,-733.405)">
            <path d="M31.417,-243.598c0.684,1.185 0.416,2.705 -0.633,3.585c-1.048,0.88 -2.592,0.88 -3.64,0c-1.049,-0.88 -1.317,-2.4 -0.633,-3.585l2.453,1.416l2.453,-1.416Z" style="fill:none;stroke:rgb(204,204,204);stroke-width:0.26px;"/>
        </g>
        <g id="path9630-2-6-13" serif:id="path9630-2-6-1" transform="matrix(4.00166,0,0,4.00166,-53.9875,-733.405)">
            <path d="M31.324,243.897l0.006,1.102" style="fill:rgb(204,204,204);fill-rule:nonzero;stroke:rgb(204,204,204);stroke-width:0.26px;"/>
        </g>
        <g id="path9630-1-1-4-73" serif:id="path9630-1-1-4-7" transform="matrix(4.00166,0,0,4.00166,-53.9875,-733.405)">
            <path d="M31.878,244.44l-1.102,0.005" style="fill:rgb(204,204,204);fill-rule:nonzero;stroke:rgb(204,204,204);stroke-width:0.26px;"/>
        </g>
        <g id="path9630-1-6-9-9-23" serif:id="path9630-1-6-9-9-2" transform="matrix(4.00166,0,0,4.00166,-53.9875,-733.405)">
            <path d="M27.3,244.409l-1.103,0.005" style="fill:rgb(204,204,204);fill-rule:nonzero;stroke:rgb(204,204,204);stroke-width:0.26px;"/>
        </g>
        <g id="path9948-9-9-43" serif:id="path9948-9-9-4" transform="matrix(4.00166,0,0,4.00166,-53.9875,-733.405)">
            <path d="M28.964,242.183l-0.006,-3.326" style="fill:none;stroke:rgb(204,204,204);stroke-width:0.29px;"/>
        </g>
        <g transform="matrix(1,0,0,1,-0.296065,36.6049)">
            <g id="path8216-1" transform="matrix(4.00166,0,0,-4.00166,-52.7265,-788.465)">
                <path d="M18.227,-252.754c1.469,2.545 0.894,5.809 -1.357,7.698c-2.251,1.888 -5.566,1.888 -7.817,0c-2.251,-1.889 -2.826,-5.153 -1.357,-7.698" style="fill:none;stroke:rgb(204,204,204);stroke-width:0.5px;"/>
            </g>
            <g id="path9488-2-9" transform="matrix(4.00166,0,0,4.00166,-52.4562,-788.976)">
                <circle cx="8.361" cy="255.07" r="0.926" style="fill:none;stroke:rgb(204,204,204);stroke-width:0.53px;"/>
            </g>
            <g id="path9488-2-6-0" transform="matrix(4.00166,0,0,4.00166,-52.4562,-788.465)">
                <circle cx="17.802" cy="254.942" r="0.926" style="fill:rgb(204,204,204);stroke:rgb(204,204,204);stroke-width:0.53px;"/>
            </g>
        </g>
        <g transform="matrix(1,0,0,1,0,97.605)">
            <g id="path8216-11" serif:id="path8216-1" transform="matrix(4.00166,0,0,-4.00166,-52.7265,-788.465)">
                <path d="M18.227,-252.754c1.469,2.545 0.894,5.809 -1.357,7.698c-2.251,1.888 -5.566,1.888 -7.817,0c-2.251,-1.889 -2.826,-5.153 -1.357,-7.698" style="fill:none;stroke:rgb(204,204,204);stroke-width:0.5px;"/>
            </g>
            <g id="path9488-2-91" serif:id="path9488-2-9" transform="matrix(4.00166,0,0,4.00166,-52.4562,-788.976)">
                <circle cx="8.361" cy="255.07" r="0.926" style="fill:none;stroke:rgb(204,204,204);stroke-width:0.53px;"/>
            </g>
            <g id="path9488-2-6-01" serif:id="path9488-2-6-0" transform="matrix(4.00166,0,0,4.00166,-52.4562,-788.465)">
                <circle cx="17.802" cy="254.942" r="0.926" style="fill:rgb(204,204,204);stroke:rgb(204,204,204);stroke-width:0.53px;"/>
            </g>
        </g>
        <g transform="matrix(4.00166,0,0,4.00166,7.36109,416.377)">
            <g id="text9293-42" serif:id="text9293-4">
                <rect x="0.158" y="-1.508" width="0.392" height="1.508" style="fill:white;fill-rule:nonzero;"/>
                <path d="M0.866,0l0,-1.508l0.392,0l0.724,0.922l0,-0.922l0.39,0l0,1.508l-0.39,0l-0.724,-0.922l0,0.922l-0.392,0Z" style="fill:white;fill-rule:nonzero;"/>
                <path d="M3.08,-0.816l0.13,0c0.144,0 0.216,-0.063 0.216,-0.188c0,-0.125 -0.072,-0.188 -0.216,-0.188l-0.13,0l0,0.376Zm0,0.816l-0.392,0l0,-1.508l0.624,0c0.169,0 0.299,0.044 0.389,0.132c0.09,0.088 0.135,0.212 0.135,0.372c0,0.16 -0.045,0.284 -0.135,0.372c-0.09,0.088 -0.22,0.132 -0.389,0.132l-0.232,0l0,0.5Z" style="fill:white;fill-rule:nonzero;"/>
                <path d="M4.436,-1.508l0,0.82c0,0.044 0.002,0.089 0.005,0.135c0.003,0.046 0.013,0.088 0.03,0.125c0.017,0.037 0.043,0.068 0.079,0.091c0.036,0.023 0.087,0.035 0.152,0.035c0.065,0 0.116,-0.012 0.151,-0.035c0.035,-0.023 0.062,-0.054 0.079,-0.091c0.017,-0.037 0.028,-0.079 0.031,-0.125c0.003,-0.046 0.005,-0.091 0.005,-0.135l0,-0.82l0.39,0l0,0.874c0,0.235 -0.054,0.406 -0.161,0.514c-0.107,0.108 -0.272,0.162 -0.495,0.162c-0.223,0 -0.388,-0.054 -0.496,-0.162c-0.108,-0.108 -0.162,-0.279 -0.162,-0.514l0,-0.874l0.392,0Z" style="fill:white;fill-rule:nonzero;"/>
                <path d="M6.246,-1.176l0,1.176l-0.392,0l0,-1.176l-0.322,0l0,-0.332l1.036,0l0,0.332l-0.322,0Z" style="fill:white;fill-rule:nonzero;"/>
            </g>
        </g>
        <g transform="matrix(4.00166,0,0,4.00166,50.3611,416.377)">
            <g id="text9293-43" serif:id="text9293-4">
                <path d="M0.5,-0.754c0,0.06 0.011,0.115 0.034,0.166c0.023,0.051 0.053,0.095 0.092,0.132c0.039,0.037 0.084,0.066 0.135,0.087c0.051,0.021 0.106,0.031 0.163,0.031c0.057,0 0.112,-0.01 0.163,-0.031c0.051,-0.021 0.097,-0.05 0.136,-0.087c0.039,-0.037 0.07,-0.081 0.093,-0.132c0.023,-0.051 0.034,-0.106 0.034,-0.166c0,-0.06 -0.011,-0.115 -0.034,-0.166c-0.023,-0.051 -0.054,-0.095 -0.093,-0.132c-0.039,-0.037 -0.085,-0.066 -0.136,-0.087c-0.051,-0.021 -0.106,-0.031 -0.163,-0.031c-0.057,0 -0.112,0.01 -0.163,0.031c-0.051,0.021 -0.096,0.05 -0.135,0.087c-0.039,0.037 -0.069,0.081 -0.092,0.132c-0.023,0.051 -0.034,0.106 -0.034,0.166Zm-0.41,0c0,-0.112 0.021,-0.216 0.062,-0.313c0.041,-0.097 0.099,-0.181 0.172,-0.253c0.073,-0.072 0.161,-0.128 0.263,-0.169c0.102,-0.041 0.214,-0.061 0.337,-0.061c0.121,0 0.233,0.02 0.336,0.061c0.103,0.041 0.191,0.097 0.265,0.169c0.074,0.072 0.132,0.156 0.173,0.253c0.041,0.097 0.062,0.201 0.062,0.313c0,0.112 -0.021,0.216 -0.062,0.313c-0.041,0.097 -0.099,0.181 -0.173,0.253c-0.074,0.072 -0.162,0.128 -0.265,0.169c-0.103,0.041 -0.215,0.061 -0.336,0.061c-0.123,0 -0.235,-0.02 -0.337,-0.061c-0.102,-0.041 -0.19,-0.097 -0.263,-0.169c-0.073,-0.072 -0.131,-0.156 -0.172,-0.253c-0.041,-0.097 -0.062,-0.201 -0.062,-0.313Z" style="fill:white;fill-rule:nonzero;"/>
                <path d="M2.4,-1.508l0,0.82c0,0.044 0.002,0.089 0.005,0.135c0.003,0.046 0.013,0.088 0.03,0.125c0.017,0.037 0.043,0.068 0.079,0.091c0.036,0.023 0.087,0.035 0.152,0.035c0.065,0 0.116,-0.012 0.151,-0.035c0.035,-0.023 0.062,-0.054 0.079,-0.091c0.017,-0.037 0.028,-0.079 0.031,-0.125c0.003,-0.046 0.005,-0.091 0.005,-0.135l0,-0.82l0.39,0l0,0.874c0,0.235 -0.054,0.406 -0.161,0.514c-0.107,0.108 -0.272,0.162 -0.495,0.162c-0.223,0 -0.388,-0.054 -0.496,-0.162c-0.108,-0.108 -0.162,-0.279 -0.162,-0.514l0,-0.874l0.392,0Z" style="fill:white;fill-rule:nonzero;"/>
                <path d="M4.21,-1.176l0,1.176l-0.392,0l0,-1.176l-0.322,0l0,-0.332l1.036,0l0,0.332l-0.322,0Z" style="fill:white;fill-rule:nonzero;"/>
                <path d="M5.098,-0.816l0.13,0c0.144,0 0.216,-0.063 0.216,-0.188c0,-0.125 -0.072,-0.188 -0.216,-0.188l-0.13,0l0,0.376Zm0,0.816l-0.392,0l0,-1.508l0.624,0c0.169,0 0.299,0.044 0.389,0.132c0.09,0.088 0.135,0.212 0.135,0.372c0,0.16 -0.045,0.284 -0.135,0.372c-0.09,0.088 -0.22,0.132 -0.389,0.132l-0.232,0l0,0.5Z" style="fill:white;fill-rule:nonzero;"/>
                <path d="M6.454,-1.508l0,0.82c0,0.044 0.002,0.089 0.005,0.135c0.003,0.046 0.013,0.088 0.03,0.125c0.017,0.037 0.043,0.068 0.079,0.091c0.036,0.023 0.087,0.035 0.152,0.035c0.065,0 0.116,-0.012 0.151,-0.035c0.035,-0.023 0.062,-0.054 0.079,-0.091c0.017,-0.037 0.028,-0.079 0.031,-0.125c0.003,-0.046 0.005,-0.091 0.005,-0.135l0,-0.82l0.39,0l0,0.874c0,0.235 -0.054,0.406 -0.161,0.514c-0.107,0.108 -0.272,0.162 -0.495,0.162c-0.223,0 -0.388,-0.054 -0.496,-0.162c-0.108,-0.108 -0.162,-0.279 -0.162,-0.514l0,-0.874l0.392,0Z" style="fill:white;fill-rule:nonzero;"/>
                <path d="M8.264,-1.176l0,1.176l-0.392,0l0,-1.176l-0.322,0l0,-0.332l1.036,0l0,0.332l-0.322,0Z" style="fill:white;fill-rule:nonzero;"/>
            </g>
        </g>
        <g transform="matrix(4.00166,0,0,4.00166,-39.6389,416.377)">
            <g id="text9293-44" serif:id="text9293-4">
                <path d="M0.892,-0.844l0.778,0c0,0.08 -0.003,0.153 -0.01,0.218c-0.007,0.065 -0.02,0.126 -0.04,0.182c-0.028,0.079 -0.066,0.148 -0.114,0.209c-0.048,0.061 -0.104,0.111 -0.169,0.152c-0.065,0.041 -0.136,0.072 -0.213,0.093c-0.077,0.021 -0.159,0.032 -0.244,0.032c-0.117,0 -0.224,-0.019 -0.321,-0.058c-0.097,-0.039 -0.18,-0.093 -0.249,-0.163c-0.069,-0.07 -0.123,-0.154 -0.162,-0.252c-0.039,-0.098 -0.058,-0.206 -0.058,-0.325c0,-0.117 0.019,-0.225 0.057,-0.323c0.038,-0.098 0.092,-0.182 0.162,-0.251c0.07,-0.069 0.154,-0.123 0.253,-0.162c0.099,-0.039 0.209,-0.058 0.33,-0.058c0.157,0 0.295,0.034 0.414,0.102c0.119,0.068 0.213,0.173 0.282,0.316l-0.372,0.154c-0.035,-0.083 -0.08,-0.142 -0.135,-0.178c-0.055,-0.036 -0.118,-0.054 -0.189,-0.054c-0.059,0 -0.112,0.011 -0.16,0.033c-0.048,0.022 -0.089,0.053 -0.123,0.094c-0.034,0.041 -0.061,0.09 -0.08,0.147c-0.019,0.057 -0.029,0.121 -0.029,0.192c0,0.064 0.008,0.123 0.025,0.178c0.017,0.055 0.042,0.102 0.075,0.142c0.033,0.04 0.075,0.071 0.124,0.093c0.049,0.022 0.107,0.033 0.172,0.033c0.039,0 0.076,-0.004 0.112,-0.013c0.036,-0.009 0.068,-0.023 0.097,-0.042c0.029,-0.019 0.052,-0.044 0.071,-0.075c0.019,-0.031 0.031,-0.068 0.038,-0.112l-0.322,0l0,-0.304Z" style="fill:white;fill-rule:nonzero;"/>
                <path d="M2.682,-0.56l-0.176,-0.502l-0.176,0.502l0.352,0Zm0.104,0.298l-0.56,0l-0.09,0.262l-0.418,0l0.574,-1.508l0.428,0l0.574,1.508l-0.418,0l-0.09,-0.262Z" style="fill:white;fill-rule:nonzero;"/>
                <path d="M3.972,-1.176l0,1.176l-0.392,0l0,-1.176l-0.322,0l0,-0.332l1.036,0l0,0.332l-0.322,0Z" style="fill:white;fill-rule:nonzero;"/>
                <path d="M5.326,-1.176l-0.466,0l0,0.252l0.44,0l0,0.332l-0.44,0l0,0.26l0.466,0l0,0.332l-0.858,0l0,-1.508l0.858,0l0,0.332Z" style="fill:white;fill-rule:nonzero;"/>
            </g>
        </g>
        <g transform="matrix(1.05877,0,0,1.05877,-13.8739,95.2883)">
            <g id="text7967-9-5">
                <rect x="0.813" y="-6.943" width="1.302" height="6.943" style="fill:white;fill-rule:nonzero;"/>
                <path d="M5.769,0.11c-0.753,0 -1.352,-0.228 -1.796,-0.684c-0.444,-0.456 -0.666,-1.069 -0.666,-1.84c0,-0.78 0.223,-1.395 0.67,-1.847c0.447,-0.451 1.055,-0.677 1.823,-0.677c0.771,0 1.38,0.226 1.827,0.677c0.447,0.452 0.67,1.064 0.67,1.838c0,0.792 -0.224,1.412 -0.672,1.86c-0.449,0.449 -1.067,0.673 -1.856,0.673Zm0.022,-0.814c0.747,0 1.121,-0.573 1.121,-1.719c0,-0.525 -0.099,-0.939 -0.297,-1.244c-0.197,-0.305 -0.469,-0.457 -0.815,-0.457c-0.343,0 -0.614,0.152 -0.812,0.457c-0.197,0.305 -0.296,0.722 -0.296,1.253c0,0.525 0.098,0.941 0.294,1.249c0.197,0.308 0.465,0.461 0.805,0.461Z" style="fill:white;fill-rule:nonzero;"/>
                <path d="M10.346,0l-1.341,-4.828l1.209,0l0.95,3.381l1.012,-3.381l1.125,0l0.91,3.399l1.025,-3.399l0.906,0l-1.434,4.828l-1.249,0l-0.879,-3.311l-0.985,3.311l-1.249,0Z" style="fill:white;fill-rule:nonzero;"/>
                <path d="M20.231,1.737l0,-6.565l1.301,0l0,0.91c0.335,-0.68 0.861,-1.02 1.579,-1.02c0.58,0 1.037,0.213 1.37,0.638c0.332,0.425 0.499,1.01 0.499,1.754c0,0.809 -0.188,1.454 -0.563,1.935c-0.375,0.481 -0.878,0.721 -1.508,0.721c-0.507,0 -0.966,-0.199 -1.377,-0.598l0,2.225l-1.301,0Zm1.301,-2.999c0.317,0.352 0.654,0.528 1.012,0.528c0.319,0 0.574,-0.155 0.765,-0.464c0.19,-0.309 0.286,-0.722 0.286,-1.238c0,-0.988 -0.318,-1.482 -0.954,-1.482c-0.384,0 -0.754,0.248 -1.109,0.743l0,1.913Z" style="fill:white;fill-rule:nonzero;"/>
                <path d="M28.563,-0.519c-0.433,0.419 -0.898,0.629 -1.393,0.629c-0.423,0 -0.766,-0.129 -1.029,-0.387c-0.264,-0.258 -0.396,-0.592 -0.396,-1.003c0,-0.533 0.213,-0.944 0.64,-1.233c0.426,-0.289 1.037,-0.433 1.831,-0.433l0.347,0l0,-0.44c0,-0.501 -0.285,-0.752 -0.857,-0.752c-0.507,0 -1.02,0.144 -1.539,0.431l0,-0.897c0.589,-0.223 1.173,-0.334 1.75,-0.334c1.263,0 1.895,0.503 1.895,1.508l0,2.137c0,0.378 0.122,0.567 0.365,0.567c0.044,0 0.101,-0.005 0.172,-0.017l0.03,0.73c-0.275,0.082 -0.518,0.123 -0.73,0.123c-0.533,0 -0.876,-0.21 -1.028,-0.629l-0.058,0Zm0,-0.699l0,-0.981l-0.307,0c-0.842,0 -1.262,0.264 -1.262,0.792c0,0.179 0.06,0.329 0.182,0.451c0.122,0.121 0.272,0.182 0.451,0.182c0.305,0 0.617,-0.148 0.936,-0.444Z" style="fill:white;fill-rule:nonzero;"/>
                <path d="M31.364,-0.154l0,-0.954c0.645,0.27 1.196,0.404 1.654,0.404c0.533,0 0.8,-0.181 0.8,-0.545c0,-0.234 -0.22,-0.439 -0.66,-0.615l-0.439,-0.176c-0.478,-0.194 -0.82,-0.402 -1.025,-0.625c-0.205,-0.222 -0.308,-0.498 -0.308,-0.826c0,-0.458 0.175,-0.813 0.524,-1.067c0.348,-0.253 0.836,-0.38 1.464,-0.38c0.393,0 0.86,0.057 1.402,0.172l0,0.914c-0.521,-0.182 -0.954,-0.272 -1.297,-0.272c-0.539,0 -0.809,0.167 -0.809,0.501c0,0.22 0.2,0.406 0.598,0.558l0.378,0.145c0.566,0.214 0.96,0.431 1.181,0.651c0.221,0.22 0.332,0.503 0.332,0.849c0,0.454 -0.188,0.823 -0.565,1.106c-0.377,0.282 -0.867,0.424 -1.471,0.424c-0.58,0 -1.167,-0.088 -1.759,-0.264Z" style="fill:white;fill-rule:nonzero;"/>
                <path d="M36.456,-0.154l0,-0.954c0.645,0.27 1.196,0.404 1.653,0.404c0.534,0 0.801,-0.181 0.801,-0.545c0,-0.234 -0.22,-0.439 -0.66,-0.615l-0.44,-0.176c-0.477,-0.194 -0.819,-0.402 -1.024,-0.625c-0.205,-0.222 -0.308,-0.498 -0.308,-0.826c0,-0.458 0.175,-0.813 0.523,-1.067c0.349,-0.253 0.837,-0.38 1.465,-0.38c0.392,0 0.86,0.057 1.402,0.172l0,0.914c-0.521,-0.182 -0.954,-0.272 -1.297,-0.272c-0.539,0 -0.809,0.167 -0.809,0.501c0,0.22 0.199,0.406 0.598,0.558l0.378,0.145c0.566,0.214 0.96,0.431 1.181,0.651c0.221,0.22 0.332,0.503 0.332,0.849c0,0.454 -0.189,0.823 -0.565,1.106c-0.377,0.282 -0.867,0.424 -1.471,0.424c-0.58,0 -1.167,-0.088 -1.759,-0.264Z" style="fill:white;fill-rule:nonzero;"/>
                <path d="M44.679,1.499l0.105,-0.945c0.537,0.246 1.048,0.369 1.535,0.369c0.481,0 0.828,-0.102 1.042,-0.307c0.214,-0.206 0.321,-0.538 0.321,-0.999l0,-0.659c-0.317,0.695 -0.84,1.042 -1.57,1.042c-0.574,0 -1.03,-0.215 -1.367,-0.644c-0.337,-0.43 -0.506,-1.011 -0.506,-1.744c0,-0.771 0.189,-1.388 0.567,-1.853c0.378,-0.465 0.881,-0.697 1.508,-0.697c0.493,0 0.949,0.199 1.368,0.598l0.136,-0.488l1.17,0l0,3.685c0,0.736 -0.045,1.266 -0.134,1.592c-0.09,0.325 -0.263,0.602 -0.521,0.831c-0.434,0.375 -1.045,0.562 -1.834,0.562c-0.56,0 -1.167,-0.114 -1.82,-0.343Zm3.003,-3.297l0,-1.781c-0.314,-0.355 -0.642,-0.532 -0.985,-0.532c-0.328,0 -0.589,0.149 -0.783,0.448c-0.193,0.299 -0.29,0.701 -0.29,1.205c0,0.944 0.303,1.416 0.91,1.416c0.419,0 0.802,-0.252 1.148,-0.756Z" style="fill:white;fill-rule:nonzero;"/>
                <path d="M52.95,-0.519c-0.434,0.419 -0.899,0.629 -1.394,0.629c-0.422,0 -0.765,-0.129 -1.029,-0.387c-0.264,-0.258 -0.396,-0.592 -0.396,-1.003c0,-0.533 0.213,-0.944 0.64,-1.233c0.426,-0.289 1.037,-0.433 1.831,-0.433l0.348,0l0,-0.44c0,-0.501 -0.286,-0.752 -0.858,-0.752c-0.507,0 -1.02,0.144 -1.539,0.431l0,-0.897c0.589,-0.223 1.173,-0.334 1.75,-0.334c1.264,0 1.895,0.503 1.895,1.508l0,2.137c0,0.378 0.122,0.567 0.365,0.567c0.044,0 0.101,-0.005 0.172,-0.017l0.031,0.73c-0.276,0.082 -0.519,0.123 -0.73,0.123c-0.534,0 -0.877,-0.21 -1.029,-0.629l-0.057,0Zm0,-0.699l0,-0.981l-0.308,0c-0.842,0 -1.262,0.264 -1.262,0.792c0,0.179 0.061,0.329 0.182,0.451c0.122,0.121 0.272,0.182 0.451,0.182c0.305,0 0.617,-0.148 0.937,-0.444Z" style="fill:white;fill-rule:nonzero;"/>
                <path d="M58.367,-0.026c-0.311,0.09 -0.556,0.136 -0.735,0.136c-1.128,0 -1.692,-0.528 -1.692,-1.583l0,-2.542l-0.541,0l0,-0.813l0.541,0l0,-0.813l1.301,-0.15l0,0.963l1.033,0l0,0.813l-1.033,0l0,2.37c0,0.593 0.242,0.889 0.726,0.889c0.111,0 0.244,-0.021 0.4,-0.062l0,0.792Z" style="fill:white;fill-rule:nonzero;"/>
                <path d="M63.459,-0.163c-0.619,0.182 -1.205,0.273 -1.759,0.273c-0.806,0 -1.442,-0.229 -1.909,-0.686c-0.466,-0.457 -0.699,-1.082 -0.699,-1.873c0,-0.748 0.214,-1.349 0.64,-1.805c0.427,-0.456 0.99,-0.684 1.691,-0.684c0.706,0 1.222,0.223 1.548,0.668c0.325,0.446 0.488,1.151 0.488,2.115l-2.995,0c0.088,0.921 0.594,1.381 1.517,1.381c0.437,0 0.929,-0.101 1.478,-0.303l0,0.914Zm-3.012,-2.726l1.732,0c0,-0.824 -0.265,-1.235 -0.796,-1.235c-0.539,0 -0.851,0.411 -0.936,1.235Z" style="fill:white;fill-rule:nonzero;"/>
            </g>
        </g>
        <g transform="matrix(1.33192,0,0,1.33192,-2.48227,83.9241)">
            <g id="text7967">
                <path d="M4.25,-7.121l0,4.939c0,0.208 -0.011,0.4 -0.033,0.576c-0.022,0.177 -0.058,0.328 -0.108,0.454c-0.082,0.201 -0.194,0.385 -0.336,0.552c-0.141,0.167 -0.307,0.309 -0.496,0.425c-0.189,0.117 -0.398,0.208 -0.628,0.274c-0.23,0.066 -0.47,0.099 -0.722,0.099c-0.762,0 -1.382,-0.349 -1.861,-1.048l1.209,-1.237c0.032,0.214 0.101,0.384 0.208,0.51c0.107,0.126 0.239,0.189 0.397,0.189c0.346,0 0.519,-0.274 0.519,-0.822l0,-4.911l1.851,0Z" style="fill:rgb(102,102,102);fill-rule:nonzero;"/>
                <path d="M7.603,-7.121l0,3.872c0,0.208 0.008,0.42 0.024,0.637c0.015,0.218 0.063,0.414 0.141,0.591c0.079,0.176 0.203,0.319 0.374,0.43c0.17,0.11 0.409,0.165 0.717,0.165c0.309,0 0.547,-0.055 0.713,-0.165c0.167,-0.111 0.292,-0.254 0.373,-0.43c0.082,-0.177 0.131,-0.373 0.147,-0.591c0.016,-0.217 0.023,-0.429 0.023,-0.637l0,-3.872l1.842,0l0,4.127c0,1.108 -0.253,1.917 -0.76,2.427c-0.507,0.51 -1.286,0.765 -2.338,0.765c-1.051,0 -1.832,-0.255 -2.342,-0.765c-0.51,-0.51 -0.765,-1.319 -0.765,-2.427l0,-4.127l1.851,0Z" style="fill:rgb(102,102,102);fill-rule:nonzero;"/>
                <path d="M15.301,-7.121l0,5.553l2.219,0l0,1.568l-4.07,0l0,-7.121l1.851,0Z" style="fill:rgb(102,102,102);fill-rule:nonzero;"/>
                <path d="M22.498,-5.299c-0.202,-0.163 -0.403,-0.285 -0.605,-0.363c-0.201,-0.079 -0.396,-0.118 -0.585,-0.118c-0.24,0 -0.435,0.056 -0.586,0.17c-0.151,0.113 -0.227,0.261 -0.227,0.444c0,0.126 0.038,0.229 0.114,0.311c0.075,0.082 0.174,0.153 0.297,0.213c0.123,0.06 0.262,0.112 0.416,0.156c0.154,0.044 0.307,0.091 0.458,0.141c0.604,0.202 1.047,0.471 1.327,0.808c0.28,0.337 0.42,0.776 0.42,1.317c0,0.366 -0.061,0.696 -0.184,0.992c-0.123,0.296 -0.302,0.55 -0.538,0.76c-0.236,0.211 -0.526,0.375 -0.869,0.492c-0.343,0.116 -0.732,0.174 -1.167,0.174c-0.9,0 -1.734,-0.267 -2.503,-0.802l0.794,-1.493c0.277,0.246 0.551,0.428 0.822,0.548c0.27,0.12 0.538,0.179 0.802,0.179c0.303,0 0.528,-0.069 0.676,-0.207c0.148,-0.139 0.222,-0.296 0.222,-0.473c0,-0.107 -0.019,-0.199 -0.057,-0.278c-0.038,-0.079 -0.101,-0.151 -0.189,-0.217c-0.088,-0.067 -0.203,-0.128 -0.345,-0.185c-0.141,-0.056 -0.313,-0.119 -0.514,-0.188c-0.24,-0.076 -0.474,-0.159 -0.704,-0.251c-0.23,-0.091 -0.435,-0.212 -0.614,-0.363c-0.179,-0.152 -0.324,-0.342 -0.434,-0.572c-0.111,-0.23 -0.166,-0.521 -0.166,-0.873c0,-0.353 0.058,-0.673 0.175,-0.959c0.116,-0.287 0.28,-0.532 0.491,-0.737c0.211,-0.204 0.469,-0.363 0.775,-0.477c0.305,-0.113 0.647,-0.17 1.024,-0.17c0.353,0 0.721,0.049 1.105,0.147c0.384,0.097 0.753,0.24 1.105,0.429l-0.736,1.445Z" style="fill:rgb(102,102,102);fill-rule:nonzero;"/>
                <path d="M27.437,-5.554l0,5.554l-1.851,0l0,-5.554l-1.52,0l0,-1.567l4.892,0l0,1.567l-1.521,0Z" style="fill:rgb(102,102,102);fill-rule:nonzero;"/>
                <path d="M33.832,-5.554l-2.201,0l0,1.19l2.078,0l0,1.568l-2.078,0l0,1.228l2.201,0l0,1.568l-4.052,0l0,-7.121l4.052,0l0,1.567Z" style="fill:rgb(102,102,102);fill-rule:nonzero;"/>
            </g>
        </g>
        <g id="g50" transform="matrix(0.0956609,0,0,0.0956609,-13.7139,337.089)">
            <path id="path42" d="M224.699,869.111l27.948,0l26.026,86.945l26.911,-86.945l27.806,0l-36.174,108.69c-3.38,10.021 -9.436,15.027 -18.173,15.027c-8.854,0 -14.971,-5.059 -18.345,-15.181l-35.999,-108.536Z" style="fill:rgb(102,102,102);fill-rule:nonzero;"/>
            <path id="path44" d="M335.484,961.026l0,-91.915l26.211,0l0,91.041c0.464,3.263 3.495,4.893 9.087,4.893l17.824,0c5.357,0 8.328,-1.512 8.912,-4.543l0.175,-0.874l0,-90.517l26.211,0l0,91.74c0,8.038 -0.873,13.747 -2.621,17.125c-4.66,8.972 -12.873,13.455 -24.639,13.455l-33.9,0c-12.118,0 -20.388,-4.601 -24.814,-13.805c-1.632,-3.377 -2.446,-8.911 -2.446,-16.6l0,0Z" style="fill:rgb(102,102,102);fill-rule:nonzero;"/>
            <path id="path46" d="M435.961,961.551l0,-92.439l26.212,0l0,90.342c0,3.73 2.211,5.592 6.64,5.592l46.657,0l-0.175,26.387l-48.754,0c-1.747,0 -3.263,-0.058 -4.543,-0.175c-9.437,-0.813 -16.137,-3.582 -20.096,-8.3c-3.962,-4.72 -5.941,-11.854 -5.941,-21.407l0,0Z" style="fill:rgb(102,102,102);fill-rule:nonzero;"/>
            <path id="path48" d="M516.341,895.497l0,-26.386l78.635,0l0,26.386l-26.386,0l0,95.935l-26.212,0l0,-95.935l-26.037,0Z" style="fill:rgb(102,102,102);fill-rule:nonzero;"/>
        </g>
        <g id="g8091" transform="matrix(0.0359254,0,0,0.0359254,-3.34188,423.313)">
            <path id="path4" d="M210.282,78.87c0,-125.517 -101.752,-227.268 -227.271,-227.268c-125.514,0 -227.267,101.751 -227.267,227.268c0,125.516 101.752,227.268 227.267,227.268c125.519,0 227.271,-101.752 227.271,-227.268l0,0Z" style="fill:rgb(117,117,117);fill-rule:nonzero;stroke:rgb(53,53,53);stroke-width:17px;stroke-miterlimit:10;"/>
            <g id="g40" transform="matrix(1,0,0,1,-426.825,-542.575)">
                <path id="polygon6" d="M357.002,759.965l15.391,-24.781l-29.594,-66.614l-61.688,-63.583l12.788,86.322l16.629,35.632l23.179,35.166l23.295,-2.142Z" style="fill:rgb(43,43,43);fill-rule:nonzero;"/>
                <path id="polygon8" d="M460.762,760.17l-15.392,-24.783l29.597,-66.612l61.685,-63.582l-12.787,86.321l-16.63,35.631l-23.175,35.168l-23.298,-2.143Z" style="fill:rgb(38,38,38);fill-rule:nonzero;"/>
                <path id="polygon12" d="M337.948,452.81l71.936,-18.383l0,374.323l-37.568,-73.799l-29.517,-66.381l-28.471,-16.175l-57.105,-81.295l-1.598,-21.58l31.971,-57.547l50.352,-39.163Z" style="fill:rgb(66,66,66);fill-rule:nonzero;"/>
                <path id="polygon14" d="M481.727,452.944l-71.932,-18.382l0,374.325l37.564,-73.801l29.518,-66.379l28.473,-16.178l57.101,-81.295l1.599,-21.579l-31.969,-57.547l-50.354,-39.164Z" style="fill:rgb(51,51,51);fill-rule:nonzero;"/>
                <path id="polyline16" d="M361.886,616.429l47.96,-46.887l0,34.229l-47.96,47.827l0,-35.169" style="fill:rgb(76,76,76);fill-rule:nonzero;"/>
                <path id="polygon18" d="M409.881,603.732l-47.957,47.827l10.469,83.625l37.491,73.566l-0.003,-205.018Z" style="fill:rgb(91,91,91);fill-rule:nonzero;"/>
                <path id="polygon20" d="M409.884,808.75l-37.491,-73.566l37.485,-17.672l0.006,91.238Z" style="fill:rgb(51,51,51);fill-rule:nonzero;"/>
                <path id="polygon22" d="M361.924,651.559l0,-35.169l-34.766,-43.958l-41.119,-33.129l-0.043,25.934l21.582,50.752l54.346,35.57Z" style="fill:white;fill-rule:nonzero;"/>
                <path id="polyline24" d="M457.816,616.448l-47.957,-46.887l0,34.229l47.957,47.826l0,-35.168" style="fill:rgb(45,45,45);fill-rule:nonzero;"/>
                <path id="polygon26" d="M409.804,603.732l47.954,47.827l-10.469,83.625l-37.488,73.566l0.003,-205.018Z" style="fill:rgb(53,53,53);fill-rule:nonzero;"/>
                <path id="polygon28" d="M409.801,808.75l37.488,-73.566l-37.482,-17.672l-0.006,91.238Z" style="fill:rgb(25,25,25);fill-rule:nonzero;"/>
                <path id="polygon30" d="M457.758,651.559l0,-35.168l34.765,-43.958l41.122,-33.13l0.041,25.935l-21.578,50.753l-54.35,35.568Z" style="fill:white;fill-rule:nonzero;"/>
                <path id="polyline32" d="M338.399,452.22l71.425,117.329l-0.154,-135.546" style="fill:rgb(56,56,56);fill-rule:nonzero;"/>
                <path id="polyline34" d="M481.271,452.232l-71.425,117.329l0.154,-135.545" style="fill:rgb(45,45,45);fill-rule:nonzero;"/>
                <path id="polygon36" d="M342.815,668.578l19.143,-16.982l10.448,83.674l-29.591,-66.692Z" style="fill:rgb(51,51,51);fill-rule:nonzero;"/>
                <path id="polygon38" d="M476.975,668.989l-19.144,-16.982l-10.448,83.675l29.592,-66.693Z" style="fill:rgb(28,28,28);fill-rule:nonzero;"/>
            </g>
        </g>
        <g transform="matrix(4.00166,0,0,4.00166,-26.2944,341.574)">
            <g id="text9293-45" serif:id="text9293-4">
                <path d="M0.986,-1.122c-0.043,-0.035 -0.085,-0.06 -0.128,-0.077c-0.043,-0.017 -0.084,-0.025 -0.124,-0.025c-0.051,0 -0.092,0.012 -0.124,0.036c-0.032,0.024 -0.048,0.055 -0.048,0.094c0,0.027 0.008,0.049 0.024,0.066c0.016,0.017 0.037,0.032 0.063,0.045c0.026,0.013 0.055,0.024 0.088,0.033c0.033,0.009 0.065,0.019 0.097,0.03c0.128,0.043 0.222,0.1 0.281,0.171c0.059,0.071 0.089,0.164 0.089,0.279c0,0.077 -0.013,0.147 -0.039,0.21c-0.026,0.063 -0.064,0.116 -0.114,0.161c-0.05,0.045 -0.111,0.079 -0.184,0.104c-0.073,0.025 -0.155,0.037 -0.247,0.037c-0.191,0 -0.367,-0.057 -0.53,-0.17l0.168,-0.316c0.059,0.052 0.117,0.091 0.174,0.116c0.057,0.025 0.114,0.038 0.17,0.038c0.064,0 0.112,-0.015 0.143,-0.044c0.031,-0.029 0.047,-0.063 0.047,-0.1c0,-0.023 -0.004,-0.042 -0.012,-0.059c-0.008,-0.017 -0.021,-0.032 -0.04,-0.046c-0.019,-0.014 -0.043,-0.027 -0.073,-0.039c-0.03,-0.012 -0.066,-0.025 -0.109,-0.04c-0.051,-0.016 -0.1,-0.034 -0.149,-0.053c-0.049,-0.019 -0.092,-0.045 -0.13,-0.077c-0.038,-0.032 -0.069,-0.072 -0.092,-0.121c-0.023,-0.049 -0.035,-0.11 -0.035,-0.185c0,-0.075 0.012,-0.142 0.037,-0.203c0.025,-0.061 0.059,-0.113 0.104,-0.156c0.045,-0.043 0.099,-0.077 0.164,-0.101c0.065,-0.024 0.137,-0.036 0.217,-0.036c0.075,0 0.153,0.01 0.234,0.031c0.081,0.021 0.159,0.051 0.234,0.091l-0.156,0.306Z" style="fill:white;fill-rule:nonzero;"/>
                <path d="M1.842,-0.926l0.566,0l0,-0.582l0.392,0l0,1.508l-0.392,0l0,-0.622l-0.566,0l0,0.622l-0.392,0l0,-1.508l0.392,0l0,0.582Z" style="fill:white;fill-rule:nonzero;"/>
                <path d="M3.936,-0.56l-0.176,-0.502l-0.176,0.502l0.352,0Zm0.104,0.298l-0.56,0l-0.09,0.262l-0.418,0l0.574,-1.508l0.428,0l0.574,1.508l-0.418,0l-0.09,-0.262Z" style="fill:white;fill-rule:nonzero;"/>
                <path d="M5.112,-0.834l0.074,0c0.077,0 0.137,-0.016 0.178,-0.048c0.041,-0.032 0.062,-0.078 0.062,-0.138c0,-0.06 -0.021,-0.106 -0.062,-0.138c-0.041,-0.032 -0.101,-0.048 -0.178,-0.048l-0.074,0l0,0.372Zm0.862,0.834l-0.488,0l-0.374,-0.58l0,0.58l-0.392,0l0,-1.508l0.61,0c0.084,0 0.157,0.012 0.22,0.037c0.063,0.025 0.114,0.058 0.155,0.101c0.041,0.043 0.071,0.092 0.092,0.148c0.021,0.056 0.031,0.116 0.031,0.18c0,0.115 -0.028,0.208 -0.083,0.279c-0.055,0.071 -0.137,0.12 -0.245,0.145l0.474,0.618Z" style="fill:white;fill-rule:nonzero;"/>
                <path d="M6.53,-0.816l0.13,0c0.144,0 0.216,-0.063 0.216,-0.188c0,-0.125 -0.072,-0.188 -0.216,-0.188l-0.13,0l0,0.376Zm0,0.816l-0.392,0l0,-1.508l0.624,0c0.169,0 0.299,0.044 0.389,0.132c0.09,0.088 0.135,0.212 0.135,0.372c0,0.16 -0.045,0.284 -0.135,0.372c-0.09,0.088 -0.22,0.132 -0.389,0.132l-0.232,0l0,0.5Z" style="fill:white;fill-rule:nonzero;"/>
                <path d="M7.494,0l0,-1.508l0.392,0l0.724,0.922l0,-0.922l0.39,0l0,1.508l-0.39,0l-0.724,-0.922l0,0.922l-0.392,0Z" style="fill:white;fill-rule:nonzero;"/>
                <path d="M10.174,-1.176l-0.466,0l0,0.252l0.44,0l0,0.332l-0.44,0l0,0.26l0.466,0l0,0.332l-0.858,0l0,-1.508l0.858,0l0,0.332Z" style="fill:white;fill-rule:nonzero;"/>
                <path d="M11.284,-1.122c-0.043,-0.035 -0.085,-0.06 -0.128,-0.077c-0.043,-0.017 -0.084,-0.025 -0.124,-0.025c-0.051,0 -0.092,0.012 -0.124,0.036c-0.032,0.024 -0.048,0.055 -0.048,0.094c0,0.027 0.008,0.049 0.024,0.066c0.016,0.017 0.037,0.032 0.063,0.045c0.026,0.013 0.055,0.024 0.088,0.033c0.033,0.009 0.065,0.019 0.097,0.03c0.128,0.043 0.222,0.1 0.281,0.171c0.059,0.071 0.089,0.164 0.089,0.279c0,0.077 -0.013,0.147 -0.039,0.21c-0.026,0.063 -0.064,0.116 -0.114,0.161c-0.05,0.045 -0.111,0.079 -0.184,0.104c-0.073,0.025 -0.155,0.037 -0.247,0.037c-0.191,0 -0.367,-0.057 -0.53,-0.17l0.168,-0.316c0.059,0.052 0.117,0.091 0.174,0.116c0.057,0.025 0.114,0.038 0.17,0.038c0.064,0 0.112,-0.015 0.143,-0.044c0.031,-0.029 0.047,-0.063 0.047,-0.1c0,-0.023 -0.004,-0.042 -0.012,-0.059c-0.008,-0.017 -0.021,-0.032 -0.04,-0.046c-0.019,-0.014 -0.043,-0.027 -0.073,-0.039c-0.03,-0.012 -0.066,-0.025 -0.109,-0.04c-0.051,-0.016 -0.1,-0.034 -0.149,-0.053c-0.049,-0.019 -0.092,-0.045 -0.13,-0.077c-0.038,-0.032 -0.069,-0.072 -0.092,-0.121c-0.023,-0.049 -0.035,-0.11 -0.035,-0.185c0,-0.075 0.012,-0.142 0.037,-0.203c0.025,-0.061 0.059,-0.113 0.104,-0.156c0.045,-0.043 0.099,-0.077 0.164,-0.101c0.065,-0.024 0.137,-0.036 0.217,-0.036c0.075,0 0.153,0.01 0.234,0.031c0.081,0.021 0.159,0.051 0.234,0.091l-0.156,0.306Z" style="fill:white;fill-rule:nonzero;"/>
                <path d="M12.576,-1.122c-0.043,-0.035 -0.085,-0.06 -0.128,-0.077c-0.043,-0.017 -0.084,-0.025 -0.124,-0.025c-0.051,0 -0.092,0.012 -0.124,0.036c-0.032,0.024 -0.048,0.055 -0.048,0.094c0,0.027 0.008,0.049 0.024,0.066c0.016,0.017 0.037,0.032 0.063,0.045c0.026,0.013 0.055,0.024 0.088,0.033c0.033,0.009 0.065,0.019 0.097,0.03c0.128,0.043 0.222,0.1 0.281,0.171c0.059,0.071 0.089,0.164 0.089,0.279c0,0.077 -0.013,0.147 -0.039,0.21c-0.026,0.063 -0.064,0.116 -0.114,0.161c-0.05,0.045 -0.111,0.079 -0.184,0.104c-0.073,0.025 -0.155,0.037 -0.247,0.037c-0.191,0 -0.367,-0.057 -0.53,-0.17l0.168,-0.316c0.059,0.052 0.117,0.091 0.174,0.116c0.057,0.025 0.114,0.038 0.17,0.038c0.064,0 0.112,-0.015 0.143,-0.044c0.031,-0.029 0.047,-0.063 0.047,-0.1c0,-0.023 -0.004,-0.042 -0.012,-0.059c-0.008,-0.017 -0.021,-0.032 -0.04,-0.046c-0.019,-0.014 -0.043,-0.027 -0.073,-0.039c-0.03,-0.012 -0.066,-0.025 -0.109,-0.04c-0.051,-0.016 -0.1,-0.034 -0.149,-0.053c-0.049,-0.019 -0.092,-0.045 -0.13,-0.077c-0.038,-0.032 -0.069,-0.072 -0.092,-0.121c-0.023,-0.049 -0.035,-0.11 -0.035,-0.185c0,-0.075 0.012,-0.142 0.037,-0.203c0.025,-0.061 0.059,-0.113 0.104,-0.156c0.045,-0.043 0.099,-0.077 0.164,-0.101c0.065,-0.024 0.137,-0.036 0.217,-0.036c0.075,0 0.153,0.01 0.234,0.031c0.081,0.021 0.159,0.051 0.234,0.091l-0.156,0.306Z" style="fill:white;fill-rule:nonzero;"/>
            </g>
        </g>
        <g id="path8216-1-5-0-24" serif:id="path8216-1-5-0-2" transform="matrix(4.00166,0,0,-4.00166,-53.9875,-670.405)">
            <path d="M31.417,-243.598c0.684,1.185 0.416,2.705 -0.633,3.585c-1.048,0.88 -2.592,0.88 -3.64,0c-1.049,-0.88 -1.317,-2.4 -0.633,-3.585l2.453,1.416l2.453,-1.416Z" style="fill:none;stroke:rgb(204,204,204);stroke-width:0.26px;"/>
        </g>
        <g id="path9630-2-6-14" serif:id="path9630-2-6-1" transform="matrix(4.00166,0,0,4.00166,-53.9875,-670.405)">
            <path d="M31.324,243.897l0.006,1.102" style="fill:rgb(204,204,204);fill-rule:nonzero;stroke:rgb(204,204,204);stroke-width:0.26px;"/>
        </g>
        <g id="path9630-1-1-4-74" serif:id="path9630-1-1-4-7" transform="matrix(4.00166,0,0,4.00166,-53.9875,-670.405)">
            <path d="M31.878,244.44l-1.102,0.005" style="fill:rgb(204,204,204);fill-rule:nonzero;stroke:rgb(204,204,204);stroke-width:0.26px;"/>
        </g>
        <g id="path9630-2-6-15" serif:id="path9630-2-6-1" transform="matrix(4.00166,0,0,4.00166,-53.9875,-670.405)">
            <path d="M31.324,243.897l0.006,1.102" style="fill:rgb(204,204,204);fill-rule:nonzero;stroke:rgb(204,204,204);stroke-width:0.26px;"/>
        </g>
        <g id="path9630-1-1-4-75" serif:id="path9630-1-1-4-7" transform="matrix(4.00166,0,0,4.00166,-53.9875,-670.405)">
            <path d="M31.878,244.44l-1.102,0.005" style="fill:rgb(204,204,204);fill-rule:nonzero;stroke:rgb(204,204,204);stroke-width:0.26px;"/>
        </g>
        <g id="path9630-1-6-9-9-24" serif:id="path9630-1-6-9-9-2" transform="matrix(4.00166,0,0,4.00166,-53.9875,-670.405)">
            <path d="M27.3,244.409l-1.103,0.005" style="fill:rgb(204,204,204);fill-rule:nonzero;stroke:rgb(204,204,204);stroke-width:0.26px;"/>
        </g>
        <g id="path9948-9-9-44" serif:id="path9948-9-9-4" transform="matrix(4.00166,0,0,4.00166,-53.9875,-670.405)">
            <path d="M28.964,242.183l-0.006,-3.326" style="fill:none;stroke:rgb(204,204,204);stroke-width:0.29px;"/>
        </g>
        <g transform="matrix(4.00166,0,0,4.00166,7.47893,359.141)">
            <path d="M0.319,-1.131l0.273,0.689l0.275,-0.689l0.319,0l-0.477,1.131l-0.234,0l-0.475,-1.131l0.319,0Z" style="fill:white;fill-rule:nonzero;"/>
            <path d="M2.065,-0.753c-0.068,-0.083 -0.152,-0.124 -0.252,-0.124c-0.044,0 -0.085,0.008 -0.122,0.024c-0.038,0.016 -0.07,0.038 -0.097,0.065c-0.027,0.028 -0.048,0.06 -0.064,0.098c-0.015,0.038 -0.023,0.079 -0.023,0.123c0,0.045 0.008,0.087 0.023,0.125c0.016,0.038 0.037,0.071 0.065,0.099c0.027,0.028 0.059,0.05 0.096,0.066c0.037,0.016 0.077,0.024 0.12,0.024c0.094,0 0.179,-0.04 0.254,-0.12l0,0.348l-0.03,0.01c-0.045,0.016 -0.087,0.028 -0.126,0.035c-0.039,0.008 -0.078,0.011 -0.116,0.011c-0.078,0 -0.152,-0.014 -0.224,-0.044c-0.071,-0.029 -0.134,-0.071 -0.189,-0.124c-0.054,-0.054 -0.098,-0.117 -0.131,-0.191c-0.033,-0.073 -0.049,-0.153 -0.049,-0.24c0,-0.087 0.016,-0.167 0.048,-0.239c0.033,-0.073 0.076,-0.135 0.131,-0.188c0.054,-0.052 0.117,-0.093 0.189,-0.123c0.072,-0.029 0.148,-0.044 0.227,-0.044c0.045,0 0.089,0.005 0.132,0.014c0.044,0.01 0.09,0.024 0.138,0.044l0,0.351Z" style="fill:white;fill-rule:nonzero;"/>
            <path d="M2.892,-0.42l-0.132,-0.376l-0.132,0.376l0.264,0Zm0.078,0.224l-0.42,0l-0.067,0.196l-0.313,0l0.43,-1.131l0.321,0l0.43,1.131l-0.313,0l-0.068,-0.196Z" style="fill:white;fill-rule:nonzero;"/>
        </g>
        <g transform="matrix(4.00166,0,0,4.00166,7.47893,370.141)">
            <path d="M0.412,-1.131l0,0.882l0.353,0l0,0.249l-0.647,0l0,-1.131l0.294,0Z" style="fill:white;fill-rule:nonzero;"/>
            <path d="M1.15,-0.565c0,0.045 0.009,0.086 0.026,0.124c0.017,0.038 0.039,0.071 0.068,0.099c0.029,0.028 0.063,0.05 0.102,0.065c0.038,0.016 0.079,0.024 0.122,0.024c0.043,0 0.084,-0.008 0.122,-0.024c0.039,-0.015 0.073,-0.037 0.102,-0.065c0.03,-0.028 0.053,-0.061 0.07,-0.099c0.017,-0.038 0.025,-0.079 0.025,-0.124c0,-0.045 -0.008,-0.087 -0.025,-0.125c-0.017,-0.038 -0.04,-0.071 -0.07,-0.099c-0.029,-0.028 -0.063,-0.049 -0.102,-0.065c-0.038,-0.015 -0.079,-0.023 -0.122,-0.023c-0.043,0 -0.084,0.008 -0.122,0.023c-0.039,0.016 -0.073,0.037 -0.102,0.065c-0.029,0.028 -0.051,0.061 -0.068,0.099c-0.017,0.038 -0.026,0.08 -0.026,0.125Zm-0.307,0c0,-0.084 0.015,-0.162 0.046,-0.235c0.031,-0.072 0.074,-0.136 0.129,-0.19c0.055,-0.054 0.121,-0.096 0.197,-0.126c0.077,-0.031 0.161,-0.046 0.253,-0.046c0.091,0 0.175,0.015 0.252,0.046c0.077,0.03 0.143,0.072 0.198,0.126c0.056,0.054 0.099,0.118 0.13,0.19c0.031,0.073 0.047,0.151 0.047,0.235c0,0.084 -0.016,0.162 -0.047,0.234c-0.031,0.073 -0.074,0.136 -0.13,0.19c-0.055,0.054 -0.121,0.096 -0.198,0.127c-0.077,0.03 -0.161,0.045 -0.252,0.045c-0.092,0 -0.176,-0.015 -0.253,-0.045c-0.076,-0.031 -0.142,-0.073 -0.197,-0.127c-0.055,-0.054 -0.098,-0.117 -0.129,-0.19c-0.031,-0.072 -0.046,-0.15 -0.046,-0.234Z" style="fill:white;fill-rule:nonzero;"/>
            <path d="M2.451,-1.131l0.195,0.731l0.24,-0.731l0.234,0l0.24,0.731l0.195,-0.731l0.307,0l-0.337,1.131l-0.3,0l-0.222,-0.655l-0.222,0.655l-0.3,0l-0.337,-1.131l0.307,0Z" style="fill:white;fill-rule:nonzero;"/>
            <path d="M4.275,-0.612l0.097,0c0.108,0 0.162,-0.047 0.162,-0.141c0,-0.094 -0.054,-0.141 -0.162,-0.141l-0.097,0l0,0.282Zm0,0.612l-0.294,0l0,-1.131l0.468,0c0.127,0 0.224,0.033 0.291,0.099c0.068,0.066 0.101,0.159 0.101,0.279c0,0.12 -0.033,0.213 -0.101,0.279c-0.067,0.066 -0.164,0.099 -0.291,0.099l-0.174,0l0,0.375Z" style="fill:white;fill-rule:nonzero;"/>
            <path d="M5.549,-0.42l-0.132,-0.376l-0.132,0.376l0.264,0Zm0.078,0.224l-0.42,0l-0.067,0.196l-0.314,0l0.431,-1.131l0.321,0l0.43,1.131l-0.313,0l-0.068,-0.196Z" style="fill:white;fill-rule:nonzero;"/>
            <path d="M6.758,-0.841c-0.032,-0.026 -0.064,-0.045 -0.096,-0.058c-0.032,-0.012 -0.063,-0.019 -0.093,-0.019c-0.038,0 -0.069,0.009 -0.093,0.027c-0.024,0.018 -0.036,0.042 -0.036,0.071c0,0.02 0.006,0.036 0.018,0.049c0.012,0.013 0.028,0.025 0.047,0.034c0.02,0.01 0.042,0.018 0.066,0.025c0.025,0.007 0.049,0.014 0.073,0.022c0.096,0.032 0.166,0.075 0.21,0.128c0.045,0.054 0.067,0.124 0.067,0.21c0,0.058 -0.01,0.11 -0.029,0.157c-0.02,0.047 -0.048,0.087 -0.086,0.121c-0.037,0.033 -0.083,0.059 -0.138,0.078c-0.054,0.018 -0.116,0.027 -0.185,0.027c-0.143,0 -0.275,-0.042 -0.397,-0.127l0.126,-0.237c0.044,0.039 0.087,0.068 0.13,0.087c0.043,0.019 0.086,0.029 0.128,0.029c0.048,0 0.084,-0.011 0.107,-0.033c0.024,-0.022 0.035,-0.047 0.035,-0.075c0,-0.017 -0.003,-0.032 -0.009,-0.045c-0.006,-0.012 -0.016,-0.024 -0.03,-0.034c-0.014,-0.011 -0.032,-0.02 -0.054,-0.029c-0.023,-0.009 -0.05,-0.019 -0.082,-0.03c-0.038,-0.012 -0.075,-0.026 -0.112,-0.04c-0.036,-0.015 -0.069,-0.034 -0.097,-0.058c-0.029,-0.024 -0.052,-0.054 -0.069,-0.09c-0.018,-0.037 -0.027,-0.083 -0.027,-0.139c0,-0.056 0.01,-0.107 0.028,-0.152c0.019,-0.046 0.045,-0.085 0.078,-0.117c0.034,-0.033 0.075,-0.058 0.123,-0.076c0.049,-0.018 0.103,-0.027 0.163,-0.027c0.056,0 0.114,0.008 0.175,0.023c0.061,0.016 0.12,0.038 0.176,0.068l-0.117,0.23Z" style="fill:white;fill-rule:nonzero;"/>
            <path d="M7.726,-0.841c-0.032,-0.026 -0.064,-0.045 -0.096,-0.058c-0.032,-0.012 -0.063,-0.019 -0.093,-0.019c-0.038,0 -0.069,0.009 -0.093,0.027c-0.024,0.018 -0.036,0.042 -0.036,0.071c0,0.02 0.006,0.036 0.018,0.049c0.012,0.013 0.028,0.025 0.048,0.034c0.019,0.01 0.041,0.018 0.066,0.025c0.024,0.007 0.048,0.014 0.072,0.022c0.096,0.032 0.167,0.075 0.211,0.128c0.044,0.054 0.067,0.124 0.067,0.21c0,0.058 -0.01,0.11 -0.03,0.157c-0.019,0.047 -0.047,0.087 -0.085,0.121c-0.037,0.033 -0.083,0.059 -0.138,0.078c-0.054,0.018 -0.116,0.027 -0.185,0.027c-0.143,0 -0.275,-0.042 -0.397,-0.127l0.126,-0.237c0.044,0.039 0.087,0.068 0.13,0.087c0.043,0.019 0.085,0.029 0.127,0.029c0.048,0 0.084,-0.011 0.108,-0.033c0.023,-0.022 0.035,-0.047 0.035,-0.075c0,-0.017 -0.003,-0.032 -0.009,-0.045c-0.006,-0.012 -0.016,-0.024 -0.03,-0.034c-0.014,-0.011 -0.032,-0.02 -0.055,-0.029c-0.022,-0.009 -0.05,-0.019 -0.082,-0.03c-0.038,-0.012 -0.075,-0.026 -0.111,-0.04c-0.037,-0.015 -0.069,-0.034 -0.098,-0.058c-0.028,-0.024 -0.051,-0.054 -0.069,-0.09c-0.017,-0.037 -0.026,-0.083 -0.026,-0.139c0,-0.056 0.009,-0.107 0.028,-0.152c0.018,-0.046 0.044,-0.085 0.078,-0.117c0.033,-0.033 0.074,-0.058 0.123,-0.076c0.048,-0.018 0.102,-0.027 0.162,-0.027c0.056,0 0.115,0.008 0.176,0.023c0.061,0.016 0.119,0.038 0.175,0.068l-0.117,0.23Z" style="fill:white;fill-rule:nonzero;"/>
        </g>
        <g transform="matrix(3.89232,0,0,3.89232,-51.0177,-824.47)">
            <g id="path8216-12" serif:id="path8216-1" transform="matrix(1,0,0,-1,0,0)">
                <path d="M18.11,-246.991c1.469,2.545 0.894,5.809 -1.358,7.698c-2.251,1.889 -5.565,1.889 -7.816,0c-2.251,-1.889 -2.827,-5.153 -1.357,-7.698" style="fill:none;stroke:rgb(204,204,204);stroke-width:0.53px;"/>
            </g>
            <path id="path9630" d="M17.911,247.631l0.013,2.368" style="fill:rgb(204,204,204);fill-rule:nonzero;stroke:rgb(204,204,204);stroke-width:0.53px;"/>
            <path id="path9630-1" d="M19.101,248.798l-2.367,0.011" style="fill:rgb(204,204,204);fill-rule:nonzero;stroke:rgb(204,204,204);stroke-width:0.53px;"/>
            <path id="path9630-1-6" d="M9.271,248.731l-2.367,0.011" style="fill:rgb(204,204,204);fill-rule:nonzero;stroke:rgb(204,204,204);stroke-width:0.53px;"/>
            <path id="path9948" d="M12.844,243.952l-0.012,-6.769" style="fill:none;stroke:rgb(204,204,204);stroke-width:0.56px;"/>
        </g>
        <g transform="matrix(4.00166,0,0,4.00166,-16.4661,218.91)">
            <g id="text9293-46" serif:id="text9293-4">
                <path d="M0.5,-0.754c0,0.06 0.011,0.115 0.034,0.166c0.023,0.051 0.053,0.095 0.092,0.132c0.039,0.037 0.084,0.066 0.135,0.087c0.051,0.021 0.106,0.031 0.163,0.031c0.057,0 0.112,-0.01 0.163,-0.031c0.051,-0.021 0.097,-0.05 0.136,-0.087c0.039,-0.037 0.07,-0.081 0.093,-0.132c0.023,-0.051 0.034,-0.106 0.034,-0.166c0,-0.06 -0.011,-0.115 -0.034,-0.166c-0.023,-0.051 -0.054,-0.095 -0.093,-0.132c-0.039,-0.037 -0.085,-0.066 -0.136,-0.087c-0.051,-0.021 -0.106,-0.031 -0.163,-0.031c-0.057,0 -0.112,0.01 -0.163,0.031c-0.051,0.021 -0.096,0.05 -0.135,0.087c-0.039,0.037 -0.069,0.081 -0.092,0.132c-0.023,0.051 -0.034,0.106 -0.034,0.166Zm-0.41,0c0,-0.112 0.021,-0.216 0.062,-0.313c0.041,-0.097 0.099,-0.181 0.172,-0.253c0.073,-0.072 0.161,-0.128 0.263,-0.169c0.102,-0.041 0.214,-0.061 0.337,-0.061c0.121,0 0.233,0.02 0.336,0.061c0.103,0.041 0.191,0.097 0.265,0.169c0.074,0.072 0.132,0.156 0.173,0.253c0.041,0.097 0.062,0.201 0.062,0.313c0,0.112 -0.021,0.216 -0.062,0.313c-0.041,0.097 -0.099,0.181 -0.173,0.253c-0.074,0.072 -0.162,0.128 -0.265,0.169c-0.103,0.041 -0.215,0.061 -0.336,0.061c-0.123,0 -0.235,-0.02 -0.337,-0.061c-0.102,-0.041 -0.19,-0.097 -0.263,-0.169c-0.073,-0.072 -0.131,-0.156 -0.172,-0.253c-0.041,-0.097 -0.062,-0.201 -0.062,-0.313Z" style="fill:white;fill-rule:nonzero;"/>
                <path d="M2.872,-1.176l-0.472,0l0,0.252l0.43,0l0,0.332l-0.43,0l0,0.592l-0.392,0l0,-1.508l0.864,0l0,0.332Z" style="fill:white;fill-rule:nonzero;"/>
                <path d="M3.97,-1.176l-0.472,0l0,0.252l0.43,0l0,0.332l-0.43,0l0,0.592l-0.392,0l0,-1.508l0.864,0l0,0.332Z" style="fill:white;fill-rule:nonzero;"/>
                <path d="M5.032,-1.122c-0.043,-0.035 -0.085,-0.06 -0.128,-0.077c-0.043,-0.017 -0.084,-0.025 -0.124,-0.025c-0.051,0 -0.092,0.012 -0.124,0.036c-0.032,0.024 -0.048,0.055 -0.048,0.094c0,0.027 0.008,0.049 0.024,0.066c0.016,0.017 0.037,0.032 0.063,0.045c0.026,0.013 0.055,0.024 0.088,0.033c0.033,0.009 0.065,0.019 0.097,0.03c0.128,0.043 0.222,0.1 0.281,0.171c0.059,0.071 0.089,0.164 0.089,0.279c0,0.077 -0.013,0.147 -0.039,0.21c-0.026,0.063 -0.064,0.116 -0.114,0.161c-0.05,0.045 -0.111,0.079 -0.184,0.104c-0.073,0.025 -0.155,0.037 -0.247,0.037c-0.191,0 -0.367,-0.057 -0.53,-0.17l0.168,-0.316c0.059,0.052 0.117,0.091 0.174,0.116c0.057,0.025 0.114,0.038 0.17,0.038c0.064,0 0.112,-0.015 0.143,-0.044c0.031,-0.029 0.047,-0.063 0.047,-0.1c0,-0.023 -0.004,-0.042 -0.012,-0.059c-0.008,-0.017 -0.021,-0.032 -0.04,-0.046c-0.019,-0.014 -0.043,-0.027 -0.073,-0.039c-0.03,-0.012 -0.066,-0.025 -0.109,-0.04c-0.051,-0.016 -0.1,-0.034 -0.149,-0.053c-0.049,-0.019 -0.092,-0.045 -0.13,-0.077c-0.038,-0.032 -0.069,-0.072 -0.092,-0.121c-0.023,-0.049 -0.035,-0.11 -0.035,-0.185c0,-0.075 0.012,-0.142 0.037,-0.203c0.025,-0.061 0.059,-0.113 0.104,-0.156c0.045,-0.043 0.099,-0.077 0.164,-0.101c0.065,-0.024 0.137,-0.036 0.217,-0.036c0.075,0 0.153,0.01 0.234,0.031c0.081,0.021 0.159,0.051 0.234,0.091l-0.156,0.306Z" style="fill:white;fill-rule:nonzero;"/>
                <path d="M6.354,-1.176l-0.466,0l0,0.252l0.44,0l0,0.332l-0.44,0l0,0.26l0.466,0l0,0.332l-0.858,0l0,-1.508l0.858,0l0,0.332Z" style="fill:white;fill-rule:nonzero;"/>
                <path d="M7.208,-1.176l0,1.176l-0.392,0l0,-1.176l-0.322,0l0,-0.332l1.036,0l0,0.332l-0.322,0Z" style="fill:white;fill-rule:nonzero;"/>
            </g>
        </g>
        <g id="path8216-1-5-0-25" serif:id="path8216-1-5-0-2" transform="matrix(4.00166,0,0,-4.00166,-53.9875,-793.474)">
            <path d="M31.417,-243.598c0.684,1.185 0.416,2.705 -0.633,3.585c-1.048,0.88 -2.592,0.88 -3.64,0c-1.049,-0.88 -1.317,-2.4 -0.633,-3.585l2.453,1.416l2.453,-1.416Z" style="fill:none;stroke:rgb(204,204,204);stroke-width:0.26px;"/>
        </g>
        <g id="path9630-2-6-16" serif:id="path9630-2-6-1" transform="matrix(4.00166,0,0,4.00166,-53.9875,-793.474)">
            <path d="M31.324,243.897l0.006,1.102" style="fill:rgb(204,204,204);fill-rule:nonzero;stroke:rgb(204,204,204);stroke-width:0.26px;"/>
        </g>
        <g id="path9630-1-1-4-76" serif:id="path9630-1-1-4-7" transform="matrix(4.00166,0,0,4.00166,-53.9875,-793.474)">
            <path d="M31.878,244.44l-1.102,0.005" style="fill:rgb(204,204,204);fill-rule:nonzero;stroke:rgb(204,204,204);stroke-width:0.26px;"/>
        </g>
        <g id="path9630-1-6-9-9-25" serif:id="path9630-1-6-9-9-2" transform="matrix(4.00166,0,0,4.00166,-53.9875,-793.474)">
            <path d="M27.3,244.409l-1.103,0.005" style="fill:rgb(204,204,204);fill-rule:nonzero;stroke:rgb(204,204,204);stroke-width:0.26px;"/>
        </g>
        <g id="path9948-9-9-45" serif:id="path9948-9-9-4" transform="matrix(4.00166,0,0,4.00166,-53.9875,-793.474)">
            <path d="M28.964,242.183l-0.006,-3.326" style="fill:none;stroke:rgb(204,204,204);stroke-width:0.29px;"/>
        </g>
        <g transform="matrix(3.89232,0,0,3.89232,-51.0177,-762.47)">
            <g id="path8216-13" serif:id="path8216-1" transform="matrix(1,0,0,-1,0,0)">
                <path d="M18.11,-246.991c1.469,2.545 0.894,5.809 -1.358,7.698c-2.251,1.889 -5.565,1.889 -7.816,0c-2.251,-1.889 -2.827,-5.153 -1.357,-7.698" style="fill:none;stroke:rgb(204,204,204);stroke-width:0.53px;"/>
            </g>
            <path id="path96301" serif:id="path9630" d="M17.911,247.631l0.013,2.368" style="fill:rgb(204,204,204);fill-rule:nonzero;stroke:rgb(204,204,204);stroke-width:0.53px;"/>
            <path id="path9630-11" serif:id="path9630-1" d="M19.101,248.798l-2.367,0.011" style="fill:rgb(204,204,204);fill-rule:nonzero;stroke:rgb(204,204,204);stroke-width:0.53px;"/>
            <path id="path9630-1-61" serif:id="path9630-1-6" d="M9.271,248.731l-2.367,0.011" style="fill:rgb(204,204,204);fill-rule:nonzero;stroke:rgb(204,204,204);stroke-width:0.53px;"/>
            <path id="path99481" serif:id="path9948" d="M12.844,243.952l-0.012,-6.769" style="fill:none;stroke:rgb(204,204,204);stroke-width:0.56px;"/>
        </g>
    </g>
</svg>
