<?xml version="1.0" encoding="UTF-8" standalone="no"?>
<!DOCTYPE svg PUBLIC "-//W3C//DTD SVG 1.1//EN" "http://www.w3.org/Graphics/SVG/1.1/DTD/svg11.dtd">
<svg width="30px" height="30px" version="1.1" xmlns="http://www.w3.org/2000/svg" xmlns:xlink="http://www.w3.org/1999/xlink" xml:space="preserve" xmlns:serif="http://www.serif.com/" style="fill-rule:evenodd;clip-rule:evenodd;stroke-linejoin:round;stroke-miterlimit:1.41421;">
    <g transform="matrix(3,0,0,3,0.175144,0)">
        <circle cx="4.942" cy="5" r="5" style="fill:rgb(106,105,105);"/>
    </g>
    <g transform="matrix(3.28191,0,0,3.33333,-1.48845,-1.58556)">
        <path d="M4.788,0.205c0.07,-0.003 0.141,-0.005 0.212,-0.005c0.071,0 0.142,0.002 0.212,0.005c0.941,0.864 2.141,1.443 3.403,1.639c0.094,0.107 0.183,0.218 0.267,0.333c-0.09,1.275 0.207,2.574 0.841,3.684c-0.025,0.14 -0.057,0.277 -0.094,0.412c-1.053,0.725 -1.885,1.768 -2.357,2.956c-0.124,0.066 -0.251,0.128 -0.382,0.184c-1.223,-0.372 -2.557,-0.372 -3.78,0c-0.131,-0.056 -0.258,-0.118 -0.382,-0.184c-0.472,-1.188 -1.304,-2.231 -2.357,-2.956c-0.037,-0.135 -0.069,-0.272 -0.094,-0.412c0.634,-1.11 0.931,-2.409 0.841,-3.684c0.084,-0.115 0.173,-0.226 0.267,-0.333c1.262,-0.196 2.462,-0.775 3.403,-1.639Z" style="fill:rgb(16,16,16);stroke:rgb(145,145,145);stroke-width:0.15px;"/>
    </g>
    <g transform="matrix(2.99115,-9.1958e-18,9.1958e-18,2.99115,0.04427,0.04427)">
        <circle cx="5" cy="5" r="3.728" style="fill:rgb(48,48,48);stroke:rgb(128,128,128);stroke-width:0.13px;stroke-linecap:round;stroke-miterlimit:1.5;"/>
    </g>
    <g transform="matrix(2.81677,-8.65973e-18,8.65973e-18,2.81677,0.916129,0.916129)">
        <circle cx="5" cy="5" r="3.728" style="fill:rgb(48,48,48);stroke:rgb(87,87,87);stroke-width:0.25px;stroke-linecap:round;stroke-miterlimit:1.5;"/>
    </g>
    <g transform="matrix(1.69375,0,0,1.7394,-0.992554,-1.93033)">
        <ellipse cx="9.442" cy="9.733" rx="5.314" ry="5.174" style="fill:rgb(51,51,51);"/>
    </g>
    <g transform="matrix(1.31736,0,0,1.35286,2.56135,1.83197)">
        <ellipse cx="9.442" cy="9.733" rx="5.314" ry="5.174" style="fill:rgb(55,55,55);"/>
    </g>
    <g transform="matrix(0.988022,0,0,1.01465,5.67101,5.12397)">
        <ellipse cx="9.442" cy="9.733" rx="5.314" ry="5.174" style="fill:rgb(59,59,59);"/>
    </g>
    <g transform="matrix(0.125,-3.84293e-19,5.65085e-19,0.183807,-1.875,-1.78712)">
        <path d="M145.832,21c1.749,0 3.168,1.419 3.168,3.168l-4.5,9.503l-0.442,45.282c0,4.29 -6.043,5.853 -9.058,5.849c-3.015,-0.005 -9.033,-1.585 -9.033,-5.876l-0.467,-45.255l-4.5,-9.503c0,-1.749 1.419,-3.168 3.168,-3.168c0,0 4.648,-1.487 10.832,-1.577c5.308,-0.077 10.832,1.577 10.832,1.577Z" style="fill:rgb(235,235,235);stroke:black;stroke-width:1.59px;"/>
    </g>
</svg>
