<?xml version="1.0" encoding="UTF-8" standalone="no"?>
<!DOCTYPE svg PUBLIC "-//W3C//DTD SVG 1.1//EN" "http://www.w3.org/Graphics/SVG/1.1/DTD/svg11.dtd">
<svg width="18px" height="18px" version="1.1" xmlns="http://www.w3.org/2000/svg" xmlns:xlink="http://www.w3.org/1999/xlink" xml:space="preserve" xmlns:serif="http://www.serif.com/" style="fill-rule:evenodd;clip-rule:evenodd;stroke-linejoin:round;stroke-miterlimit:1.41421;">
    <g transform="matrix(1.8,0,0,1.8,0.105086,7.77156e-16)">
        <circle cx="4.942" cy="5" r="5" style="fill:rgb(106,105,105);"/>
    </g>
    <g transform="matrix(1.90563,0,0,1.93548,-0.521679,-0.763509)">
        <path d="M4.788,0.205c0.07,-0.003 0.141,-0.005 0.212,-0.005c0.071,0 0.142,0.002 0.212,0.005c0.941,0.864 2.141,1.443 3.403,1.639c0.094,0.107 0.183,0.218 0.267,0.333c-0.09,1.275 0.207,2.574 0.841,3.684c-0.025,0.14 -0.057,0.277 -0.094,0.412c-1.053,0.725 -1.885,1.768 -2.357,2.956c-0.124,0.066 -0.251,0.128 -0.382,0.184c-1.223,-0.372 -2.557,-0.372 -3.78,0c-0.131,-0.056 -0.258,-0.118 -0.382,-0.184c-0.472,-1.188 -1.304,-2.231 -2.357,-2.956c-0.037,-0.135 -0.069,-0.272 -0.094,-0.412c0.634,-1.11 0.931,-2.409 0.841,-3.684c0.084,-0.115 0.173,-0.226 0.267,-0.333c1.262,-0.196 2.462,-0.775 3.403,-1.639Z" style="fill:rgb(16,16,16);stroke:rgb(145,145,145);stroke-width:0.26px;"/>
    </g>
    <g transform="matrix(1.12917,0,0,1.1596,-1.6617,-2.28689)">
        <ellipse cx="9.442" cy="9.733" rx="5.314" ry="5.174" style="fill:rgb(21,21,21);"/>
    </g>
    <g transform="matrix(0.940973,0,0,0.966332,0.115248,-0.405739)">
        <ellipse cx="9.442" cy="9.733" rx="5.314" ry="5.174" style="fill:rgb(26,26,26);"/>
    </g>
    <g transform="matrix(0.658681,0,0,0.676432,2.78067,2.41598)">
        <ellipse cx="9.442" cy="9.733" rx="5.314" ry="5.174" style="fill:rgb(31,31,31);"/>
    </g>
    <g transform="matrix(0.0892857,-2.78796e-19,3.60787e-19,0.119193,-3.05357,-1.37071)">
        <path d="M145.832,21c1.749,0 3.168,1.419 3.168,3.168l-4.5,9.503l0.352,41.722c0,4.291 -5.562,3.98 -9.852,3.98c0,0 -8.872,0.451 -8.872,-3.84l-0.628,-41.862l-4.5,-9.503c0,-1.749 1.419,-3.168 3.168,-3.168c0,0 4.648,-1.487 10.832,-1.577c5.308,-0.077 10.832,1.577 10.832,1.577Z" style="fill:rgb(235,235,235);"/>
    </g>
</svg>
