<svg width="40px" height="40px" version="1.1" xmlns="http://www.w3.org/2000/svg" xmlns:xlink="http://www.w3.org/1999/xlink" xml:space="preserve" xmlns:serif="http://www.serif.com/" style="fill-rule:evenodd;clip-rule:evenodd;stroke-linejoin:round;stroke-miterlimit:1.41421;">
  <g id="g1454">
    <ellipse id="circle866" cx="20.001" cy="20" rx="18.638" ry="18.552" style="fill:rgb(106,105,105);"/>
    <path id="path870" d="M19.122,0.133c0.29,-0.013 0.584,-0.021 0.878,-0.021c0.294,0 0.588,0.008 0.878,0.021c3.898,3.562 8.868,5.949 14.095,6.757c0.389,0.441 0.758,0.898 1.106,1.373c-0.373,5.256 0.857,10.611 3.483,15.187c-0.104,0.577 -0.236,1.142 -0.389,1.699c-4.362,2.989 -7.808,7.288 -9.763,12.186c-0.513,0.272 -1.039,0.528 -1.582,0.759c-5.065,-1.534 -10.591,-1.534 -15.656,0c-0.543,-0.231 -1.069,-0.487 -1.582,-0.759c-1.955,-4.898 -5.401,-9.197 -9.763,-12.186c-0.153,-0.557 -0.285,-1.122 -0.389,-1.699c2.626,-4.576 3.856,-9.931 3.483,-15.187c0.348,-0.475 0.717,-0.932 1.106,-1.373c5.227,-0.808 10.197,-3.195 14.095,-6.757Z" style="fill:rgb(16,16,16);stroke:rgb(140,140,140);stroke-width:0.8px;"/>
    <ellipse id="circle874" cx="20" cy="20" rx="14.083" ry="14.018" style="fill:rgb(20,20,20);stroke:rgb(128,128,128);stroke-width:0.5px;stroke-linecap:round;stroke-miterlimit:1.5;"/>
    <circle id="path1471" cx="20.001" cy="20" r="13.583" style="fill:rgb(34,49,66);"/>
    <circle id="path1473" cx="20.001" cy="20" r="11.512" style="fill:none;stroke:rgb(25,25,25);stroke-width:2.26px;stroke-linecap:round;stroke-miterlimit:1.5;"/>
    <path id="path894" d="M21.606,3.029c0.259,0 0.469,0.305 0.469,0.68l-0.667,2.038l0,9.938c0,0.921 -0.398,1.658 -1.408,1.668c-0.96,0.009 -1.408,-0.747 -1.408,-1.668l0,-9.938l-0.667,-2.038c0,-0.375 0.21,-0.68 0.469,-0.68c0,0 0.689,-1.724 1.606,-1.743c0.787,-0.017 1.606,1.743 1.606,1.743Z" style="fill:rgb(235,235,235);"/>
  </g>
</svg>