<svg width="60px" height="60px" version="1.1" xmlns="http://www.w3.org/2000/svg" xmlns:xlink="http://www.w3.org/1999/xlink" xml:space="preserve" xmlns:serif="http://www.serif.com/" style="fill-rule:evenodd;clip-rule:evenodd;stroke-linejoin:round;stroke-miterlimit:1.41421;">
  <ellipse id="circle866" cx="30" cy="30.202" rx="28.113" ry="27.982" style="fill:rgb(106,105,105);"/>
  <path id="path870" d="M28.673,0.236c0.438,-0.019 0.881,-0.031 1.325,-0.031c0.443,0 0.887,0.012 1.324,0.031c5.879,5.373 13.376,8.973 21.26,10.192c0.587,0.665 1.143,1.355 1.668,2.07c-0.562,7.929 1.293,16.006 5.254,22.908c-0.156,0.871 -0.356,1.723 -0.588,2.562c-6.578,4.509 -11.776,10.994 -14.724,18.382c-0.775,0.41 -1.568,0.796 -2.387,1.144c-7.64,-2.313 -15.974,-2.313 -23.615,0c-0.818,-0.348 -1.611,-0.734 -2.386,-1.144c-2.949,-7.388 -8.146,-13.873 -14.725,-18.382c-0.231,-0.839 -0.431,-1.691 -0.587,-2.562c3.961,-6.902 5.816,-14.979 5.254,-22.908c0.525,-0.715 1.081,-1.405 1.668,-2.07c7.884,-1.219 15.381,-4.819 21.259,-10.192Z" style="fill:rgb(16,16,16);stroke:rgb(140,140,140);stroke-width:0.8px;"/>
  <ellipse id="circle874" cx="29.998" cy="30.202" rx="21.243" ry="21.144" style="fill:rgb(20,20,20);stroke:rgb(128,128,128);stroke-width:0.5px;stroke-linecap:round;stroke-miterlimit:1.5;"/>
  <circle id="path1471" cx="30" cy="30.202" r="20.488" style="fill:rgb(35,49,65);"/>
  <circle id="path1473" cx="30" cy="30.202" r="18.401" style="fill:none;stroke:rgb(32,32,32);stroke-width:2.41px;stroke-linecap:round;stroke-miterlimit:1.5;"/>
  <path id="path894" d="M32.42,4.488c0.391,0 0.708,0.462 0.708,1.032l-1.006,3.096l0,15.095c0,1.398 -0.601,2.518 -2.124,2.533c-1.448,0.014 -2.124,-1.135 -2.124,-2.533l0,-15.095l-1.006,-3.096c0,-0.57 0.317,-1.032 0.708,-1.032c0,0 1.041,-2.186 2.424,-2.215c1.187,-0.025 2.42,2.215 2.42,2.215Z" style="fill:rgb(235,235,235);"/>
</svg>