<svg width="150px" height="380px" version="1.1" xmlns="http://www.w3.org/2000/svg" xmlns:xlink="http://www.w3.org/1999/xlink" xml:space="preserve" xmlns:serif="http://www.serif.com/" style="fill-rule:evenodd;clip-rule:evenodd;stroke-linecap:round;">
  <defs>
    <linearGradient id="_Linear1" x1="0" y1="0" x2="1" y2="0" gradientUnits="userSpaceOnUse" gradientTransform="matrix(150,-379.998,379.998,150,0.000328145,379.998)">
      <stop offset="0" style="stop-color:rgb(9,13,17);stop-opacity:1"/>
      <stop offset="1" style="stop-color:rgb(24,35,46);stop-opacity:1"/>
    </linearGradient>
  </defs>
  <g id="Panel">
    <rect id="rect9931" x="0" y="0" width="150" height="380" style="fill:rgb(26,26,26);"/>
    <rect id="rect10105" x="0" y="0" width="150" height="379.998" style="fill:url(#_Linear1);"/>
    <path id="path10108" d="M126.904,77.593c2.737,-4.742 1.664,-10.824 -2.534,-14.346c-4.193,-3.521 -10.372,-3.521 -14.566,0c-4.197,3.522 -5.27,9.604 -2.533,14.346l9.816,-5.666l9.817,5.666Z" style="fill:none;stroke:rgb(204,204,204);stroke-width:1px;"/>
    <path id="path10111" d="M126.531,78.79l0.024,4.409" style="fill:rgb(204,204,204);fill-rule:nonzero;stroke:rgb(204,204,204);stroke-width:1px;"/>
    <path id="path10114" d="M128.748,80.963l-4.41,0.02" style="fill:rgb(204,204,204);fill-rule:nonzero;stroke:rgb(204,204,204);stroke-width:1px;"/>
    <path id="path10117" d="M110.429,80.839l-4.414,0.02" style="fill:rgb(204,204,204);fill-rule:nonzero;stroke:rgb(204,204,204);stroke-width:1px;"/>
    <path id="path10120" d="M117.087,71.931l-0.024,-13.31" style="fill:none;stroke:rgb(204,204,204);stroke-width:1px;"/>
    <path id="path10123" d="M44.683,123.163c-0.364,-0.444 -0.812,-0.664 -1.345,-0.664c-0.236,0 -0.452,0.044 -0.652,0.128c-0.2,0.084 -0.372,0.2 -0.516,0.348c-0.144,0.148 -0.256,0.32 -0.34,0.524c-0.084,0.204 -0.124,0.42 -0.124,0.657c0,0.24 0.04,0.46 0.124,0.664c0.084,0.204 0.196,0.38 0.344,0.528c0.148,0.148 0.32,0.268 0.516,0.352c0.196,0.084 0.412,0.128 0.64,0.128c0.501,0 0.953,-0.212 1.353,-0.64l0,1.857l-0.16,0.056c-0.24,0.084 -0.464,0.148 -0.672,0.188c-0.209,0.04 -0.413,0.06 -0.617,0.06c-0.416,0 -0.816,-0.08 -1.196,-0.236c-0.38,-0.156 -0.717,-0.38 -1.009,-0.665c-0.292,-0.284 -0.524,-0.624 -0.7,-1.016c-0.176,-0.392 -0.264,-0.82 -0.264,-1.285c0,-0.464 0.088,-0.888 0.26,-1.276c0.172,-0.388 0.404,-0.72 0.696,-1c0.292,-0.281 0.629,-0.501 1.013,-0.657c0.384,-0.156 0.788,-0.236 1.208,-0.236c0.24,0 0.476,0.024 0.709,0.076c0.232,0.052 0.476,0.128 0.732,0.236l0,1.873Z" style="fill:white;fill-rule:nonzero;"/>
    <path id="path10125" d="M47.244,121.146l0,3.282c0,0.176 0.008,0.356 0.02,0.54c0.012,0.184 0.052,0.352 0.12,0.5c0.068,0.148 0.172,0.272 0.316,0.364c0.144,0.092 0.348,0.14 0.608,0.14c0.26,0 0.465,-0.048 0.605,-0.14c0.14,-0.092 0.248,-0.216 0.316,-0.364c0.068,-0.148 0.112,-0.316 0.124,-0.5c0.012,-0.184 0.02,-0.364 0.02,-0.54l0,-3.282l1.56,0l0,3.498c0,0.94 -0.216,1.624 -0.644,2.057c-0.428,0.432 -1.088,0.648 -1.981,0.648c-0.892,0 -1.552,-0.216 -1.984,-0.648c-0.433,-0.433 -0.649,-1.117 -0.649,-2.057l0,-3.498l1.569,0Z" style="fill:white;fill-rule:nonzero;"/>
    <path id="path10127" d="M54.487,122.475l0,4.706l-1.569,0l0,-4.706l-1.288,0l0,-1.329l4.145,0l0,1.329l-1.288,0Z" style="fill:white;fill-rule:nonzero;"/>
    <path id="path10129" d="M57.784,124.164c0,0.24 0.044,0.46 0.136,0.664c0.092,0.204 0.212,0.38 0.369,0.528c0.156,0.148 0.336,0.264 0.54,0.348c0.204,0.084 0.424,0.124 0.652,0.124c0.228,0 0.448,-0.04 0.652,-0.124c0.204,-0.084 0.388,-0.2 0.545,-0.348c0.156,-0.148 0.28,-0.324 0.372,-0.528c0.092,-0.204 0.136,-0.424 0.136,-0.664c0,-0.241 -0.044,-0.461 -0.136,-0.665c-0.092,-0.204 -0.216,-0.38 -0.372,-0.528c-0.157,-0.148 -0.341,-0.264 -0.545,-0.348c-0.204,-0.084 -0.424,-0.124 -0.652,-0.124c-0.228,0 -0.448,0.04 -0.652,0.124c-0.204,0.084 -0.384,0.2 -0.54,0.348c-0.157,0.148 -0.277,0.324 -0.369,0.528c-0.092,0.204 -0.136,0.424 -0.136,0.665Zm-1.64,0c0,-0.449 0.084,-0.865 0.248,-1.253c0.164,-0.388 0.396,-0.724 0.688,-1.012c0.292,-0.289 0.644,-0.513 1.052,-0.677c0.409,-0.164 0.857,-0.244 1.349,-0.244c0.484,0 0.932,0.08 1.345,0.244c0.412,0.164 0.764,0.388 1.06,0.677c0.296,0.288 0.528,0.624 0.692,1.012c0.164,0.388 0.248,0.804 0.248,1.253c0,0.448 -0.084,0.864 -0.248,1.252c-0.164,0.388 -0.396,0.724 -0.692,1.012c-0.296,0.289 -0.648,0.513 -1.06,0.677c-0.413,0.164 -0.861,0.244 -1.345,0.244c-0.492,0 -0.94,-0.08 -1.349,-0.244c-0.408,-0.164 -0.76,-0.388 -1.052,-0.677c-0.292,-0.288 -0.524,-0.624 -0.688,-1.012c-0.164,-0.388 -0.248,-0.804 -0.248,-1.252Z" style="fill:white;fill-rule:nonzero;"/>
    <path id="path10131" d="M67.276,122.475l-1.889,0l0,1.008l1.721,0l0,1.329l-1.721,0l0,2.369l-1.568,0l0,-6.035l3.457,0l0,1.329Z" style="fill:white;fill-rule:nonzero;"/>
    <path id="path10133" d="M71.67,122.475l-1.889,0l0,1.008l1.721,0l0,1.329l-1.721,0l0,2.369l-1.568,0l0,-6.035l3.457,0l0,1.329Z" style="fill:white;fill-rule:nonzero;"/>
    <path id="path10138" d="M126.904,77.593c2.737,-4.742 1.664,-10.824 -2.534,-14.346c-4.193,-3.521 -10.372,-3.521 -14.566,0c-4.197,3.522 -5.27,9.604 -2.533,14.346l9.816,-5.666l9.817,5.666Z" style="fill:none;stroke:rgb(204,204,204);stroke-width:1px;"/>
    <path id="path10141" d="M126.531,78.79l0.024,4.409" style="fill:rgb(204,204,204);fill-rule:nonzero;stroke:rgb(204,204,204);stroke-width:1px;"/>
    <path id="path10144" d="M128.748,80.963l-4.41,0.02" style="fill:rgb(204,204,204);fill-rule:nonzero;stroke:rgb(204,204,204);stroke-width:1px;"/>
    <path id="path10147" d="M110.429,80.839l-4.414,0.02" style="fill:rgb(204,204,204);fill-rule:nonzero;stroke:rgb(204,204,204);stroke-width:1px;"/>
    <path id="path10150" d="M117.087,71.931l-0.024,-13.31" style="fill:none;stroke:rgb(204,204,204);stroke-width:1px;"/>
    <path id="path10153" d="M84.739,103.173c8.221,-14.243 5.003,-32.509 -7.595,-43.081c-12.597,-10.566 -31.149,-10.566 -43.747,0c-12.597,10.572 -15.815,28.838 -7.594,43.081" style="fill:none;stroke:rgb(204,204,204);stroke-width:1.5px;"/>
    <circle id="circle10156" cx="26.173" cy="112.44" r="3.706" style="fill:none;stroke:rgb(204,204,204);stroke-width:1px;stroke-linecap:butt;"/>
    <circle id="circle10159" cx="84.952" cy="111.928" r="3.706" style="fill:rgb(204,204,204);stroke:rgb(204,204,204);stroke-width:1px;stroke-linecap:butt;"/>
    <path id="path10162" d="M126.904,155.662c2.737,-4.742 1.664,-10.824 -2.534,-14.346c-4.193,-3.521 -10.372,-3.521 -14.566,0c-4.197,3.522 -5.27,9.604 -2.533,14.346l9.816,-5.666l9.817,5.666Z" style="fill:none;stroke:rgb(204,204,204);stroke-width:1px;"/>
    <path id="path10165" d="M126.531,156.859l0.024,4.409" style="fill:rgb(204,204,204);fill-rule:nonzero;stroke:rgb(204,204,204);stroke-width:1px;"/>
    <path id="path10168" d="M128.748,159.032l-4.41,0.02" style="fill:rgb(204,204,204);fill-rule:nonzero;stroke:rgb(204,204,204);stroke-width:1px;"/>
    <path id="path10171" d="M110.429,158.908l-4.414,0.02" style="fill:rgb(204,204,204);fill-rule:nonzero;stroke:rgb(204,204,204);stroke-width:1px;"/>
    <path id="path10174" d="M117.087,150l-0.024,-13.31" style="fill:none;stroke:rgb(204,204,204);stroke-width:1px;"/>
    <path id="path10177" d="M30.66,191.739l0.296,0c0.308,0 0.548,-0.064 0.712,-0.192c0.164,-0.128 0.248,-0.312 0.248,-0.552c0,-0.24 -0.084,-0.424 -0.248,-0.552c-0.164,-0.128 -0.404,-0.192 -0.712,-0.192l-0.296,0l0,1.488Zm3.449,3.338l-1.953,0l-1.496,-2.321l0,2.321l-1.569,0l0,-6.035l2.441,0c0.336,0 0.628,0.048 0.881,0.148c0.252,0.1 0.456,0.232 0.62,0.405c0.164,0.172 0.284,0.368 0.368,0.592c0.084,0.224 0.124,0.464 0.124,0.72c0,0.46 -0.112,0.832 -0.332,1.117c-0.22,0.284 -0.548,0.48 -0.981,0.58l1.897,2.473Z" style="fill:white;fill-rule:nonzero;"/>
    <path id="path10179" d="M38.199,190.371l-1.865,0l0,1.008l1.761,0l0,1.329l-1.761,0l0,1.04l1.865,0l0,1.329l-3.433,0l0,-6.035l3.433,0l0,1.329Z" style="fill:white;fill-rule:nonzero;"/>
    <path id="path10181" d="M42.641,190.587c-0.172,-0.14 -0.34,-0.24 -0.512,-0.308c-0.173,-0.068 -0.337,-0.1 -0.497,-0.1c-0.204,0 -0.368,0.048 -0.496,0.144c-0.128,0.096 -0.192,0.22 -0.192,0.376c0,0.108 0.032,0.196 0.096,0.264c0.064,0.068 0.148,0.128 0.252,0.18c0.104,0.052 0.22,0.096 0.352,0.132c0.132,0.036 0.26,0.076 0.389,0.12c0.512,0.172 0.888,0.4 1.124,0.685c0.236,0.284 0.356,0.656 0.356,1.116c0,0.308 -0.052,0.588 -0.156,0.84c-0.104,0.252 -0.256,0.465 -0.456,0.645c-0.2,0.18 -0.444,0.316 -0.736,0.416c-0.293,0.1 -0.621,0.148 -0.989,0.148c-0.764,0 -1.468,-0.228 -2.121,-0.68l0.673,-1.265c0.236,0.208 0.468,0.364 0.696,0.464c0.228,0.1 0.456,0.152 0.68,0.152c0.256,0 0.448,-0.06 0.572,-0.176c0.124,-0.116 0.188,-0.252 0.188,-0.4c0,-0.092 -0.016,-0.168 -0.048,-0.236c-0.032,-0.068 -0.084,-0.128 -0.16,-0.184c-0.076,-0.056 -0.172,-0.108 -0.292,-0.156c-0.12,-0.048 -0.264,-0.1 -0.436,-0.16c-0.204,-0.064 -0.4,-0.136 -0.596,-0.212c-0.196,-0.076 -0.368,-0.18 -0.52,-0.308c-0.152,-0.128 -0.277,-0.289 -0.369,-0.485c-0.092,-0.196 -0.14,-0.44 -0.14,-0.74c0,-0.3 0.048,-0.568 0.148,-0.812c0.101,-0.244 0.237,-0.452 0.417,-0.625c0.18,-0.172 0.396,-0.308 0.656,-0.404c0.26,-0.096 0.548,-0.144 0.868,-0.144c0.3,0 0.613,0.04 0.937,0.124c0.324,0.084 0.636,0.204 0.936,0.364l-0.624,1.225Z" style="fill:white;fill-rule:nonzero;"/>
    <path id="path10183" d="M45.866,192.06c0,0.24 0.044,0.46 0.136,0.664c0.092,0.204 0.212,0.38 0.368,0.528c0.156,0.148 0.336,0.264 0.541,0.348c0.204,0.084 0.424,0.124 0.652,0.124c0.228,0 0.448,-0.04 0.652,-0.124c0.204,-0.084 0.388,-0.2 0.544,-0.348c0.156,-0.148 0.28,-0.324 0.372,-0.528c0.093,-0.204 0.137,-0.424 0.137,-0.664c0,-0.241 -0.044,-0.461 -0.137,-0.665c-0.092,-0.204 -0.216,-0.38 -0.372,-0.528c-0.156,-0.148 -0.34,-0.264 -0.544,-0.348c-0.204,-0.084 -0.424,-0.124 -0.652,-0.124c-0.228,0 -0.448,0.04 -0.652,0.124c-0.205,0.084 -0.385,0.2 -0.541,0.348c-0.156,0.148 -0.276,0.324 -0.368,0.528c-0.092,0.204 -0.136,0.424 -0.136,0.665Zm-1.641,0c0,-0.449 0.084,-0.865 0.249,-1.253c0.164,-0.388 0.396,-0.724 0.688,-1.012c0.292,-0.289 0.644,-0.513 1.052,-0.677c0.408,-0.164 0.857,-0.244 1.349,-0.244c0.484,0 0.932,0.08 1.344,0.244c0.413,0.164 0.765,0.388 1.061,0.677c0.296,0.288 0.528,0.624 0.692,1.012c0.164,0.388 0.248,0.804 0.248,1.253c0,0.448 -0.084,0.864 -0.248,1.252c-0.164,0.388 -0.396,0.724 -0.692,1.012c-0.296,0.289 -0.648,0.513 -1.061,0.677c-0.412,0.164 -0.86,0.244 -1.344,0.244c-0.492,0 -0.941,-0.08 -1.349,-0.244c-0.408,-0.164 -0.76,-0.388 -1.052,-0.677c-0.292,-0.288 -0.524,-0.624 -0.688,-1.012c-0.165,-0.388 -0.249,-0.804 -0.249,-1.252Z" style="fill:white;fill-rule:nonzero;"/>
    <path id="path10185" d="M51.901,195.077l0,-6.035l1.568,0l2.897,3.69l0,-3.69l1.561,0l0,6.035l-1.561,0l-2.897,-3.69l0,3.69l-1.568,0Z" style="fill:white;fill-rule:nonzero;"/>
    <path id="path10187" d="M62.489,192.836l-0.704,-2.009l-0.705,2.009l1.409,0Zm0.416,1.192l-2.241,0l-0.36,1.049l-1.673,0l2.297,-6.035l1.713,0l2.297,6.035l-1.673,0l-0.36,-1.049Z" style="fill:white;fill-rule:nonzero;"/>
    <path id="path10189" d="M65.626,195.077l0,-6.035l1.569,0l2.897,3.69l0,-3.69l1.561,0l0,6.035l-1.561,0l-2.897,-3.69l0,3.69l-1.569,0Z" style="fill:white;fill-rule:nonzero;"/>
    <path id="path10191" d="M77.343,191.059c-0.364,-0.444 -0.812,-0.664 -1.344,-0.664c-0.236,0 -0.453,0.044 -0.653,0.128c-0.2,0.084 -0.372,0.2 -0.516,0.348c-0.144,0.148 -0.256,0.32 -0.34,0.524c-0.084,0.204 -0.124,0.42 -0.124,0.657c0,0.24 0.04,0.46 0.124,0.664c0.084,0.204 0.196,0.38 0.344,0.528c0.148,0.148 0.32,0.268 0.516,0.352c0.196,0.084 0.413,0.128 0.641,0.128c0.5,0 0.952,-0.212 1.352,-0.64l0,1.857l-0.16,0.056c-0.24,0.084 -0.464,0.148 -0.672,0.188c-0.208,0.04 -0.412,0.06 -0.616,0.06c-0.417,0 -0.817,-0.08 -1.197,-0.236c-0.38,-0.156 -0.716,-0.38 -1.008,-0.665c-0.292,-0.284 -0.525,-0.624 -0.701,-1.016c-0.176,-0.392 -0.264,-0.82 -0.264,-1.285c0,-0.464 0.088,-0.888 0.26,-1.276c0.172,-0.388 0.405,-0.72 0.697,-1c0.292,-0.281 0.628,-0.501 1.012,-0.657c0.384,-0.156 0.788,-0.236 1.209,-0.236c0.24,0 0.476,0.024 0.708,0.076c0.232,0.052 0.476,0.128 0.732,0.236l0,1.873Z" style="fill:white;fill-rule:nonzero;"/>
    <path id="path10193" d="M81.769,190.371l-1.865,0l0,1.008l1.761,0l0,1.329l-1.761,0l0,1.04l1.865,0l0,1.329l-3.433,0l0,-6.035l3.433,0l0,1.329Z" style="fill:white;fill-rule:nonzero;"/>
    <path id="path10198" d="M126.904,155.662c2.737,-4.742 1.664,-10.824 -2.534,-14.346c-4.193,-3.521 -10.372,-3.521 -14.566,0c-4.197,3.522 -5.27,9.604 -2.533,14.346l9.816,-5.666l9.817,5.666Z" style="fill:none;stroke:rgb(204,204,204);stroke-width:1px;"/>
    <path id="path10201" d="M126.531,156.859l0.024,4.409" style="fill:rgb(204,204,204);fill-rule:nonzero;stroke:rgb(204,204,204);stroke-width:1px;"/>
    <path id="path10204" d="M128.748,159.032l-4.41,0.02" style="fill:rgb(204,204,204);fill-rule:nonzero;stroke:rgb(204,204,204);stroke-width:1px;"/>
    <path id="path10207" d="M110.429,158.908l-4.414,0.02" style="fill:rgb(204,204,204);fill-rule:nonzero;stroke:rgb(204,204,204);stroke-width:1px;"/>
    <path id="path10210" d="M117.087,150l-0.024,-13.31" style="fill:none;stroke:rgb(204,204,204);stroke-width:1px;"/>
    <path id="path10213" d="M75.383,173.241c5.878,-10.184 3.577,-23.245 -5.431,-30.804c-9.007,-7.556 -22.273,-7.556 -31.281,0c-9.007,7.559 -11.308,20.62 -5.43,30.804" style="fill:none;stroke:rgb(204,204,204);stroke-width:1.5px;"/>
    <circle id="circle10216" cx="36.173" cy="182.509" r="3.706" style="fill:none;stroke:rgb(204,204,204);stroke-width:1px;stroke-linecap:butt;"/>
    <circle id="circle10219" cx="73.952" cy="181.997" r="3.706" style="fill:rgb(204,204,204);stroke:rgb(204,204,204);stroke-width:1px;stroke-linecap:butt;"/>
    <path id="path10224" d="M75.383,242.241c5.878,-10.184 3.577,-23.245 -5.431,-30.804c-9.007,-7.556 -22.273,-7.556 -31.281,0c-9.007,7.559 -11.308,20.62 -5.43,30.804" style="fill:none;stroke:rgb(204,204,204);stroke-width:1.5px;"/>
    <circle id="circle10227" cx="36.173" cy="251.509" r="3.706" style="fill:none;stroke:rgb(204,204,204);stroke-width:1px;stroke-linecap:butt;"/>
    <circle id="circle10230" cx="73.952" cy="250.997" r="3.706" style="fill:rgb(204,204,204);stroke:rgb(204,204,204);stroke-width:1px;stroke-linecap:butt;"/>
    <rect id="rect10235" x="104.164" y="353.613" width="1.569" height="6.035" style="fill:white;"/>
    <path id="path10237" d="M106.997,359.648l0,-6.035l1.569,0l2.897,3.69l0,-3.69l1.561,0l0,6.035l-1.561,0l-2.897,-3.69l0,3.69l-1.569,0Z" style="fill:white;fill-rule:nonzero;"/>
    <path id="path10239" d="M115.857,356.382l0.52,0c0.577,0 0.865,-0.252 0.865,-0.752c0,-0.5 -0.288,-0.752 -0.865,-0.752l-0.52,0l0,1.504Zm0,3.266l-1.569,0l0,-6.035l2.498,0c0.676,0 1.196,0.176 1.556,0.529c0.36,0.352 0.54,0.848 0.54,1.488c0,0.64 -0.18,1.137 -0.54,1.489c-0.36,0.352 -0.88,0.528 -1.556,0.528l-0.929,0l0,2.001Z" style="fill:white;fill-rule:nonzero;"/>
    <path id="path10241" d="M121.283,353.613l0,3.282c0,0.176 0.008,0.356 0.02,0.54c0.012,0.184 0.052,0.352 0.12,0.5c0.068,0.148 0.172,0.272 0.317,0.364c0.144,0.092 0.348,0.14 0.608,0.14c0.26,0 0.464,-0.048 0.604,-0.14c0.14,-0.092 0.248,-0.216 0.316,-0.364c0.068,-0.148 0.112,-0.316 0.124,-0.5c0.012,-0.184 0.02,-0.364 0.02,-0.54l0,-3.282l1.561,0l0,3.498c0,0.94 -0.216,1.624 -0.644,2.057c-0.429,0.432 -1.089,0.648 -1.981,0.648c-0.893,0 -1.553,-0.216 -1.985,-0.648c-0.432,-0.433 -0.648,-1.117 -0.648,-2.057l0,-3.498l1.568,0Z" style="fill:white;fill-rule:nonzero;"/>
    <path id="path10243" d="M128.526,354.942l0,4.706l-1.568,0l0,-4.706l-1.289,0l0,-1.329l4.146,0l0,1.329l-1.289,0Z" style="fill:white;fill-rule:nonzero;"/>
    <path id="path10248" d="M61.642,268.557c0,0.24 0.044,0.46 0.136,0.664c0.092,0.204 0.212,0.38 0.368,0.528c0.156,0.148 0.336,0.264 0.54,0.348c0.204,0.084 0.424,0.124 0.652,0.124c0.228,0 0.449,-0.04 0.653,-0.124c0.204,-0.084 0.388,-0.2 0.544,-0.348c0.156,-0.148 0.28,-0.324 0.372,-0.528c0.092,-0.204 0.136,-0.424 0.136,-0.664c0,-0.241 -0.044,-0.461 -0.136,-0.665c-0.092,-0.204 -0.216,-0.38 -0.372,-0.528c-0.156,-0.148 -0.34,-0.264 -0.544,-0.348c-0.204,-0.084 -0.425,-0.124 -0.653,-0.124c-0.228,0 -0.448,0.04 -0.652,0.124c-0.204,0.084 -0.384,0.2 -0.54,0.348c-0.156,0.148 -0.276,0.324 -0.368,0.528c-0.092,0.204 -0.136,0.424 -0.136,0.665Zm-1.641,0c0,-0.449 0.084,-0.865 0.248,-1.253c0.164,-0.388 0.396,-0.724 0.688,-1.012c0.292,-0.289 0.645,-0.513 1.053,-0.677c0.408,-0.164 0.856,-0.244 1.348,-0.244c0.485,0 0.933,0.08 1.345,0.244c0.412,0.164 0.764,0.388 1.06,0.677c0.296,0.288 0.529,0.624 0.693,1.012c0.164,0.388 0.248,0.804 0.248,1.253c0,0.448 -0.084,0.864 -0.248,1.252c-0.164,0.388 -0.397,0.724 -0.693,1.012c-0.296,0.289 -0.648,0.513 -1.06,0.677c-0.412,0.164 -0.86,0.244 -1.345,0.244c-0.492,0 -0.94,-0.08 -1.348,-0.244c-0.408,-0.164 -0.761,-0.388 -1.053,-0.677c-0.292,-0.288 -0.524,-0.624 -0.688,-1.012c-0.164,-0.388 -0.248,-0.804 -0.248,-1.252Z" style="fill:rgb(140,140,140);fill-rule:nonzero;"/>
    <path id="path10250" d="M69.245,265.539l0,3.282c0,0.176 0.008,0.356 0.02,0.54c0.012,0.184 0.052,0.352 0.12,0.5c0.068,0.148 0.172,0.272 0.316,0.364c0.144,0.092 0.348,0.14 0.608,0.14c0.26,0 0.464,-0.048 0.604,-0.14c0.141,-0.092 0.249,-0.216 0.317,-0.364c0.068,-0.148 0.112,-0.316 0.124,-0.5c0.012,-0.184 0.02,-0.364 0.02,-0.54l0,-3.282l1.56,0l0,3.498c0,0.94 -0.216,1.624 -0.644,2.057c-0.428,0.432 -1.088,0.648 -1.981,0.648c-0.892,0 -1.552,-0.216 -1.985,-0.648c-0.432,-0.433 -0.648,-1.117 -0.648,-2.057l0,-3.498l1.569,0Z" style="fill:rgb(140,140,140);fill-rule:nonzero;"/>
    <path id="path10252" d="M76.488,266.868l0,4.706l-1.569,0l0,-4.706l-1.288,0l0,-1.329l4.145,0l0,1.329l-1.288,0Z" style="fill:rgb(140,140,140);fill-rule:nonzero;"/>
    <path id="path10254" d="M80.041,268.308l0.52,0c0.577,0 0.865,-0.252 0.865,-0.752c0,-0.5 -0.288,-0.752 -0.865,-0.752l-0.52,0l0,1.504Zm0,3.266l-1.568,0l0,-6.035l2.497,0c0.676,0 1.196,0.176 1.556,0.529c0.36,0.352 0.541,0.848 0.541,1.488c0,0.64 -0.181,1.137 -0.541,1.489c-0.36,0.352 -0.88,0.528 -1.556,0.528l-0.929,0l0,2.001Z" style="fill:rgb(140,140,140);fill-rule:nonzero;"/>
    <path id="path10256" d="M85.468,265.539l0,3.282c0,0.176 0.008,0.356 0.02,0.54c0.012,0.184 0.052,0.352 0.12,0.5c0.068,0.148 0.172,0.272 0.316,0.364c0.144,0.092 0.348,0.14 0.608,0.14c0.26,0 0.464,-0.048 0.604,-0.14c0.14,-0.092 0.248,-0.216 0.316,-0.364c0.068,-0.148 0.112,-0.316 0.124,-0.5c0.012,-0.184 0.02,-0.364 0.02,-0.54l0,-3.282l1.561,0l0,3.498c0,0.94 -0.216,1.624 -0.644,2.057c-0.428,0.432 -1.089,0.648 -1.981,0.648c-0.892,0 -1.553,-0.216 -1.985,-0.648c-0.432,-0.433 -0.648,-1.117 -0.648,-2.057l0,-3.498l1.569,0Z" style="fill:rgb(140,140,140);fill-rule:nonzero;"/>
    <path id="path10258" d="M92.711,266.868l0,4.706l-1.569,0l0,-4.706l-1.289,0l0,-1.329l4.146,0l0,1.329l-1.288,0Z" style="fill:rgb(140,140,140);fill-rule:nonzero;"/>
    <path id="path10263" d="M34.375,38.559l0,-0.963c-0.353,0.72 -0.911,1.08 -1.671,1.08c-0.615,0 -1.097,-0.226 -1.448,-0.676c-0.35,-0.45 -0.526,-1.069 -0.526,-1.857c0,-0.857 0.198,-1.539 0.594,-2.049c0.395,-0.509 0.926,-0.763 1.595,-0.763c0.533,0 1.019,0.211 1.456,0.633l0,-2.756l1.383,0l0,7.351l-1.383,0Zm0,-3.775c-0.332,-0.373 -0.687,-0.56 -1.066,-0.56c-0.339,0 -0.609,0.164 -0.81,0.49c-0.202,0.326 -0.303,0.763 -0.303,1.313c0,1.046 0.336,1.569 1.006,1.569c0.41,0 0.801,-0.263 1.173,-0.787l0,-2.025Z" style="fill:white;fill-rule:nonzero;"/>
    <path id="path10265" d="M37.475,38.559l0,-5.112l1.379,0l0,5.112l-1.379,0Zm0,-5.972l0,-1.151l1.379,0l0,1.151l-1.379,0Z" style="fill:white;fill-rule:nonzero;"/>
    <path id="path10267" d="M42.723,38.676c-0.799,0 -1.432,-0.242 -1.902,-0.725c-0.471,-0.482 -0.706,-1.131 -0.706,-1.948c0,-0.826 0.237,-1.477 0.71,-1.955c0.474,-0.478 1.117,-0.717 1.931,-0.717c0.816,0 1.461,0.239 1.934,0.717c0.473,0.478 0.709,1.126 0.709,1.946c0,0.838 -0.237,1.495 -0.712,1.969c-0.475,0.475 -1.13,0.713 -1.964,0.713Zm0.023,-0.862c0.791,0 1.187,-0.607 1.187,-1.82c0,-0.556 -0.105,-0.994 -0.315,-1.317c-0.209,-0.323 -0.497,-0.484 -0.862,-0.484c-0.364,0 -0.651,0.161 -0.86,0.484c-0.21,0.323 -0.314,0.764 -0.314,1.326c0,0.556 0.104,0.997 0.312,1.323c0.208,0.326 0.492,0.488 0.852,0.488Z" style="fill:white;fill-rule:nonzero;"/>
    <path id="path10269" d="M49.883,38.559l0,-0.963c-0.355,0.72 -0.911,1.08 -1.672,1.08c-0.614,0 -1.096,-0.226 -1.448,-0.676c-0.35,-0.45 -0.525,-1.069 -0.525,-1.857c0,-0.857 0.197,-1.539 0.593,-2.049c0.396,-0.509 0.927,-0.763 1.594,-0.763c0.534,0 1.02,0.211 1.458,0.633l0,-2.756l1.382,0l0,7.351l-1.382,0Zm0,-3.775c-0.332,-0.373 -0.688,-0.56 -1.066,-0.56c-0.339,0 -0.609,0.164 -0.811,0.49c-0.201,0.326 -0.302,0.763 -0.302,1.313c0,1.046 0.335,1.569 1.005,1.569c0.41,0 0.801,-0.263 1.174,-0.787l0,-2.025Z" style="fill:white;fill-rule:nonzero;"/>
    <path id="path10271" d="M57.145,38.387c-0.655,0.192 -1.276,0.289 -1.862,0.289c-0.853,0 -1.527,-0.243 -2.02,-0.727c-0.494,-0.484 -0.74,-1.145 -0.74,-1.983c0,-0.792 0.225,-1.428 0.676,-1.911c0.452,-0.483 1.048,-0.724 1.791,-0.724c0.748,0 1.293,0.236 1.639,0.707c0.344,0.472 0.516,1.219 0.516,2.239l-3.17,0c0.092,0.976 0.628,1.463 1.606,1.463c0.462,0 0.984,-0.107 1.564,-0.321l0,0.968Zm-3.189,-2.887l1.834,0c0,-0.872 -0.281,-1.307 -0.842,-1.307c-0.571,0 -0.902,0.435 -0.992,1.307Z" style="fill:white;fill-rule:nonzero;"/>
    <rect id="rect10273" x="61.712" y="31.208" width="1.379" height="7.351" style="fill:white;"/>
    <path id="path10275" d="M67.318,38.01c-0.46,0.443 -0.952,0.666 -1.476,0.666c-0.447,0 -0.81,-0.137 -1.089,-0.41c-0.28,-0.273 -0.42,-0.627 -0.42,-1.062c0,-0.564 0.226,-1 0.678,-1.306c0.451,-0.306 1.098,-0.458 1.939,-0.458l0.368,0l0,-0.466c0,-0.53 -0.303,-0.796 -0.908,-0.796c-0.537,0 -1.08,0.152 -1.63,0.456l0,-0.949c0.624,-0.237 1.242,-0.354 1.853,-0.354c1.338,0 2.006,0.532 2.006,1.597l0,2.262c0,0.4 0.129,0.6 0.387,0.6c0.046,0 0.107,-0.005 0.182,-0.018l0.033,0.773c-0.293,0.087 -0.55,0.131 -0.773,0.131c-0.566,0 -0.929,-0.223 -1.09,-0.666l-0.06,0Zm0,-0.74l0,-1.039l-0.326,0c-0.892,0 -1.336,0.279 -1.336,0.838c0,0.19 0.064,0.349 0.192,0.478c0.13,0.128 0.288,0.193 0.478,0.193c0.323,0 0.653,-0.157 0.992,-0.47Z" style="fill:white;fill-rule:nonzero;"/>
    <path id="path10277" d="M73.635,38.559l0,-0.963c-0.354,0.72 -0.911,1.08 -1.671,1.08c-0.615,0 -1.097,-0.226 -1.449,-0.676c-0.35,-0.45 -0.526,-1.069 -0.526,-1.857c0,-0.857 0.198,-1.539 0.594,-2.049c0.396,-0.509 0.928,-0.763 1.595,-0.763c0.533,0 1.019,0.211 1.457,0.633l0,-2.756l1.382,0l0,7.351l-1.382,0Zm0,-3.775c-0.332,-0.373 -0.688,-0.56 -1.067,-0.56c-0.337,0 -0.607,0.164 -0.81,0.49c-0.201,0.326 -0.301,0.763 -0.301,1.313c0,1.046 0.334,1.569 1.004,1.569c0.41,0 0.802,-0.263 1.174,-0.787l0,-2.025Z" style="fill:white;fill-rule:nonzero;"/>
    <path id="path10279" d="M79.952,38.559l0,-0.963c-0.353,0.72 -0.91,1.08 -1.67,1.08c-0.616,0 -1.098,-0.226 -1.449,-0.676c-0.35,-0.45 -0.526,-1.069 -0.526,-1.857c0,-0.857 0.198,-1.539 0.594,-2.049c0.396,-0.509 0.927,-0.763 1.594,-0.763c0.534,0 1.02,0.211 1.457,0.633l0,-2.756l1.383,0l0,7.351l-1.383,0Zm0,-3.775c-0.331,-0.373 -0.687,-0.56 -1.066,-0.56c-0.338,0 -0.608,0.164 -0.81,0.49c-0.201,0.326 -0.303,0.763 -0.303,1.313c0,1.046 0.336,1.569 1.006,1.569c0.41,0 0.801,-0.263 1.173,-0.787l0,-2.025Z" style="fill:white;fill-rule:nonzero;"/>
    <path id="path10281" d="M87.215,38.387c-0.655,0.192 -1.275,0.289 -1.862,0.289c-0.853,0 -1.527,-0.243 -2.021,-0.727c-0.494,-0.484 -0.74,-1.145 -0.74,-1.983c0,-0.792 0.226,-1.428 0.677,-1.911c0.452,-0.483 1.049,-0.724 1.791,-0.724c0.747,0 1.294,0.236 1.639,0.707c0.344,0.472 0.516,1.219 0.516,2.239l-3.171,0c0.094,0.976 0.629,1.463 1.607,1.463c0.462,0 0.983,-0.107 1.564,-0.321l0,0.968Zm-3.189,-2.887l1.834,0c0,-0.872 -0.28,-1.307 -0.843,-1.307c-0.57,0 -0.901,0.435 -0.991,1.307Z" style="fill:white;fill-rule:nonzero;"/>
    <path id="path10283" d="M88.639,38.559l0,-5.112l1.379,0l0,0.964c0.357,-0.72 0.9,-1.08 1.629,-1.08c0.087,0 0.172,0.009 0.257,0.027l0,1.23c-0.196,-0.071 -0.378,-0.107 -0.546,-0.107c-0.549,0 -0.996,0.278 -1.34,0.833l0,3.245l-1.379,0Z" style="fill:white;fill-rule:nonzero;"/>
    <path id="path10285" d="M96.26,38.559l0,-4.251l-0.703,0l0,-0.861l0.703,0l0,-0.353c0,-0.643 0.154,-1.137 0.459,-1.484c0.306,-0.345 0.741,-0.518 1.306,-0.518c0.348,0 0.717,0.063 1.108,0.19l0,0.941c-0.384,-0.171 -0.67,-0.256 -0.857,-0.256c-0.424,0 -0.637,0.388 -0.637,1.164l0,0.316l3.217,0l0,5.112l-1.378,0l0,-4.251l-1.839,0l0,4.251l-1.379,0Zm3.446,-5.972l0,-1.151l1.15,0l0,1.151l-1.15,0Z" style="fill:white;fill-rule:nonzero;"/>
    <rect id="rect10287" x="102.578" y="31.208" width="1.379" height="7.351" style="fill:white;"/>
    <path id="path10289" d="M108.314,38.532c-0.33,0.095 -0.588,0.144 -0.778,0.144c-1.195,0 -1.792,-0.559 -1.792,-1.676l0,-2.692l-0.573,0l0,-0.861l0.573,0l0,-0.86l1.378,-0.159l0,1.019l1.094,0l0,0.861l-1.094,0l0,2.509c0,0.628 0.256,0.942 0.768,0.942c0.118,0 0.259,-0.023 0.424,-0.066l0,0.839Z" style="fill:white;fill-rule:nonzero;"/>
    <path id="path10291" d="M113.705,38.387c-0.655,0.192 -1.276,0.289 -1.863,0.289c-0.853,0 -1.526,-0.243 -2.02,-0.727c-0.493,-0.484 -0.74,-1.145 -0.74,-1.983c0,-0.792 0.226,-1.428 0.678,-1.911c0.451,-0.483 1.048,-0.724 1.789,-0.724c0.749,0 1.295,0.236 1.639,0.707c0.344,0.472 0.517,1.219 0.517,2.239l-3.17,0c0.093,0.976 0.628,1.463 1.606,1.463c0.462,0 0.984,-0.107 1.564,-0.321l0,0.968Zm-3.189,-2.887l1.834,0c0,-0.872 -0.281,-1.307 -0.842,-1.307c-0.572,0 -0.902,0.435 -0.992,1.307Z" style="fill:white;fill-rule:nonzero;"/>
    <path id="path10293" d="M115.13,38.559l0,-5.112l1.377,0l0,0.964c0.357,-0.72 0.9,-1.08 1.63,-1.08c0.087,0 0.172,0.009 0.256,0.027l0,1.23c-0.196,-0.071 -0.377,-0.107 -0.545,-0.107c-0.549,0 -0.997,0.278 -1.341,0.833l0,3.245l-1.377,0Z" style="fill:white;fill-rule:nonzero;"/>
    <path id="path10298" d="M41.148,17.71l0,7.396l2.956,0l0,2.089l-5.422,0l0,-9.485l2.466,0Z" style="fill:rgb(172,181,188);fill-rule:nonzero;"/>
    <path id="path10300" d="M50.923,23.672l-1.107,-3.157l-1.107,3.157l2.214,0Zm0.654,1.875l-3.522,0l-0.566,1.648l-2.629,0l3.609,-9.485l2.692,0l3.611,9.485l-2.629,0l-0.566,-1.648Z" style="fill:rgb(172,181,188);fill-rule:nonzero;"/>
    <path id="path10302" d="M59.037,19.797l0,7.398l-2.466,0l0,-7.398l-2.026,0l0,-2.087l6.517,0l0,2.087l-2.025,0Z" style="fill:rgb(172,181,188);fill-rule:nonzero;"/>
    <path id="path10304" d="M67.553,19.797l-2.93,0l0,1.585l2.766,0l0,2.089l-2.766,0l0,1.635l2.93,0l0,2.089l-5.397,0l0,-9.485l5.397,0l0,2.087Z" style="fill:rgb(172,181,188);fill-rule:nonzero;"/>
    <path id="path10306" d="M71.792,21.948l0.467,0c0.486,0 0.859,-0.099 1.118,-0.301c0.26,-0.201 0.391,-0.491 0.391,-0.868c0,-0.377 -0.131,-0.666 -0.391,-0.868c-0.259,-0.201 -0.632,-0.301 -1.118,-0.301l-0.467,0l0,2.338Zm5.423,5.247l-3.07,0l-2.353,-3.648l0,3.648l-2.465,0l0,-9.485l3.837,0c0.528,0 0.99,0.078 1.384,0.232c0.393,0.156 0.718,0.368 0.975,0.635c0.256,0.269 0.448,0.58 0.578,0.931c0.131,0.353 0.195,0.73 0.195,1.133c0,0.721 -0.174,1.306 -0.522,1.755c-0.348,0.449 -0.862,0.753 -1.542,0.912l2.983,3.887Z" style="fill:rgb(172,181,188);fill-rule:nonzero;"/>
    <path id="path10308" d="M83.404,23.672l-1.107,-3.157l-1.108,3.157l2.215,0Zm0.654,1.875l-3.523,0l-0.566,1.648l-2.629,0l3.611,-9.485l2.692,0l3.61,9.485l-2.629,0l-0.566,-1.648Z" style="fill:rgb(172,181,188);fill-rule:nonzero;"/>
    <path id="path10310" d="M90.8,17.71l0,7.396l2.957,0l0,2.089l-5.422,0l0,-9.485l2.465,0Z" style="fill:rgb(172,181,188);fill-rule:nonzero;"/>
    <path id="path10312" d="M97.317,17.71l0,5.157c0,0.278 0.011,0.56 0.031,0.849c0.021,0.29 0.084,0.551 0.189,0.787c0.105,0.235 0.27,0.425 0.497,0.573c0.226,0.146 0.545,0.22 0.956,0.22c0.412,0 0.727,-0.074 0.95,-0.22c0.222,-0.148 0.387,-0.338 0.497,-0.573c0.109,-0.236 0.174,-0.497 0.195,-0.787c0.02,-0.289 0.031,-0.571 0.031,-0.849l0,-5.157l2.453,0l0,5.497c0,1.476 -0.338,2.553 -1.012,3.233c-0.675,0.679 -1.713,1.019 -3.114,1.019c-1.401,0 -2.44,-0.34 -3.119,-1.019c-0.679,-0.68 -1.019,-1.757 -1.019,-3.233l0,-5.497l2.465,0Z" style="fill:rgb(172,181,188);fill-rule:nonzero;"/>
    <path id="path10314" d="M110.312,20.137c-0.268,-0.217 -0.537,-0.38 -0.805,-0.483c-0.269,-0.106 -0.529,-0.158 -0.78,-0.158c-0.319,0 -0.579,0.075 -0.78,0.227c-0.201,0.15 -0.302,0.347 -0.302,0.591c0,0.168 0.051,0.305 0.151,0.414c0.101,0.11 0.233,0.204 0.396,0.284c0.164,0.08 0.348,0.149 0.555,0.208c0.205,0.059 0.407,0.121 0.61,0.188c0.804,0.269 1.393,0.627 1.767,1.076c0.373,0.449 0.559,1.033 0.559,1.754c0,0.488 -0.082,0.927 -0.245,1.321c-0.163,0.395 -0.403,0.733 -0.718,1.013c-0.314,0.281 -0.699,0.499 -1.157,0.655c-0.457,0.154 -0.975,0.232 -1.553,0.232c-1.199,0 -2.311,-0.356 -3.334,-1.069l1.056,-1.988c0.371,0.328 0.734,0.57 1.095,0.73c0.361,0.16 0.718,0.238 1.07,0.238c0.402,0 0.702,-0.092 0.899,-0.276c0.197,-0.185 0.296,-0.394 0.296,-0.63c0,-0.142 -0.026,-0.265 -0.075,-0.37c-0.051,-0.105 -0.135,-0.201 -0.252,-0.289c-0.117,-0.089 -0.27,-0.17 -0.459,-0.246c-0.189,-0.075 -0.417,-0.159 -0.686,-0.251c-0.319,-0.101 -0.632,-0.211 -0.937,-0.334c-0.306,-0.121 -0.579,-0.282 -0.817,-0.483c-0.24,-0.203 -0.433,-0.456 -0.58,-0.762c-0.146,-0.307 -0.22,-0.694 -0.22,-1.163c0,-0.47 0.078,-0.896 0.234,-1.277c0.154,-0.383 0.372,-0.709 0.653,-0.982c0.282,-0.272 0.625,-0.483 1.031,-0.635c0.408,-0.151 0.862,-0.227 1.366,-0.227c0.47,0 0.96,0.066 1.471,0.196c0.512,0.129 1.002,0.32 1.472,0.571l-0.981,1.925Z" style="fill:rgb(172,181,188);fill-rule:nonzero;"/>
    <path id="path42" d="M62.952,363.5l2.673,0l2.49,8.317l2.574,-8.317l2.66,0l-3.46,10.397c-0.323,0.959 -0.903,1.438 -1.738,1.438c-0.847,0 -1.433,-0.484 -1.755,-1.453l-3.444,-10.382Z" style="fill:rgb(173,181,187);fill-rule:nonzero;"/>
    <path id="path44" d="M73.55,372.292l0,-8.792l2.507,0l0,8.709c0.044,0.312 0.334,0.468 0.869,0.468l1.705,0c0.513,0 0.797,-0.145 0.853,-0.435l0.017,-0.083l0,-8.659l2.507,0l0,8.776c0,0.769 -0.083,1.315 -0.251,1.638c-0.445,0.858 -1.231,1.287 -2.357,1.287l-3.243,0c-1.159,0 -1.95,-0.44 -2.373,-1.321c-0.156,-0.323 -0.234,-0.852 -0.234,-1.588l0,0Z" style="fill:rgb(173,181,187);fill-rule:nonzero;"/>
    <path id="path46" d="M83.161,372.343l0,-8.843l2.508,0l0,8.642c0,0.357 0.211,0.535 0.635,0.535l4.463,0l-0.016,2.524l-4.664,0c-0.167,0 -0.312,-0.006 -0.435,-0.017c-0.903,-0.077 -1.544,-0.342 -1.922,-0.794c-0.379,-0.451 -0.569,-1.133 -0.569,-2.047l0,0Z" style="fill:rgb(173,181,187);fill-rule:nonzero;"/>
    <path id="path48" d="M90.851,366.024l0,-2.524l7.522,0l0,2.524l-2.524,0l0,9.177l-2.508,0l0,-9.177l-2.49,0Z" style="fill:rgb(173,181,187);fill-rule:nonzero;"/>
    <path id="path10324" d="M145.039,279.557c0,-3.206 -2.603,-5.811 -5.81,-5.811l-125.278,0c-3.207,0 -5.81,2.605 -5.81,5.811l0,27.117c0,3.208 2.603,5.811 5.81,5.811l125.278,0c3.207,0 5.81,-2.603 5.81,-5.811l0,-27.117Z" style="stroke:rgb(65,76,85);stroke-width:1px;stroke-linecap:butt;"/>
    <path id="path4" d="M59.383,369.417c0,-4.509 -3.655,-8.164 -8.164,-8.164c-4.509,0 -8.165,3.655 -8.165,8.164c0,4.509 3.656,8.165 8.165,8.165c4.509,0 8.164,-3.656 8.164,-8.165Z" style="fill:rgb(117,117,117);fill-rule:nonzero;stroke:rgb(65,76,85);stroke-width:0.61px;stroke-linecap:butt;stroke-miterlimit:10;"/>
    <path id="polygon6" d="M49.321,374.394l0.553,-0.891l-1.064,-2.393l-2.216,-2.284l0.46,3.101l0.597,1.28l0.833,1.264l0.837,-0.077Z" style="fill:rgb(43,43,43);fill-rule:nonzero;"/>
    <path id="polygon8" d="M53.048,374.401l-0.553,-0.89l1.064,-2.393l2.216,-2.285l-0.46,3.101l-0.597,1.281l-0.833,1.263l-0.837,-0.077Z" style="fill:rgb(38,38,38);fill-rule:nonzero;"/>
    <path id="polygon12" d="M48.636,363.359l2.584,-0.66l0,13.447l-1.349,-2.651l-1.061,-2.385l-1.022,-0.581l-2.052,-2.92l-0.057,-0.776l1.148,-2.067l1.809,-1.407Z" style="fill:rgb(66,66,66);fill-rule:nonzero;"/>
    <path id="polygon14" d="M53.801,363.364l-2.584,-0.661l0,13.448l1.35,-2.651l1.06,-2.385l1.023,-0.581l2.051,-2.921l0.058,-0.775l-1.149,-2.067l-1.809,-1.407Z" style="fill:rgb(51,51,51);fill-rule:nonzero;"/>
    <path id="polyline16" d="M49.496,369.237l1.723,-1.684l0,1.229l-1.723,1.719l0,-1.264" style="fill:rgb(76,76,76);fill-rule:nonzero;"/>
    <path id="polygon18" d="M51.22,368.781l-1.723,1.718l0.377,3.004l1.346,2.643l0,-7.365Z" style="fill:rgb(91,91,91);fill-rule:nonzero;"/>
    <path id="polygon20" d="M51.22,376.146l-1.346,-2.643l1.346,-0.635l0,3.278Z" style="fill:rgb(51,51,51);fill-rule:nonzero;"/>
    <path id="polygon22" d="M49.497,370.499l0,-1.263l-1.249,-1.58l-1.477,-1.19l-0.001,0.932l0.775,1.823l1.952,1.278Z" style="fill:white;fill-rule:nonzero;"/>
    <path id="polyline24" d="M52.942,369.238l-1.722,-1.685l0,1.23l1.722,1.718l0,-1.263" style="fill:rgb(45,45,45);fill-rule:nonzero;"/>
    <path id="polygon26" d="M51.218,368.781l1.722,1.718l-0.376,3.004l-1.347,2.643l0.001,-7.365Z" style="fill:rgb(53,53,53);fill-rule:nonzero;"/>
    <path id="polygon28" d="M51.217,376.146l1.347,-2.643l-1.346,-0.635l-0.001,3.278Z" style="fill:rgb(25,25,25);fill-rule:nonzero;"/>
    <path id="polygon30" d="M52.94,370.499l0,-1.263l1.249,-1.58l1.478,-1.19l0.001,0.932l-0.775,1.823l-1.953,1.278Z" style="fill:white;fill-rule:nonzero;"/>
    <path id="polyline32" d="M48.652,363.338l2.566,4.215l-0.005,-4.87" style="fill:rgb(56,56,56);fill-rule:nonzero;"/>
    <path id="polyline34" d="M53.785,363.338l-2.566,4.215l0.006,-4.869" style="fill:rgb(45,45,45);fill-rule:nonzero;"/>
    <path id="polygon36" d="M48.811,371.111l0.688,-0.611l0.375,3.006l-1.063,-2.395Z" style="fill:rgb(51,51,51);fill-rule:nonzero;"/>
    <path id="polygon38" d="M53.631,371.125l-0.688,-0.61l-0.375,3.006l1.063,-2.396Z" style="fill:rgb(28,28,28);fill-rule:nonzero;"/>
    <path id="path10347" d="M123.082,308.925l-4.858,0l1.497,-1.553c0.396,-0.412 0.704,-0.76 0.928,-1.044c0.224,-0.284 0.392,-0.529 0.5,-0.725c0.108,-0.196 0.176,-0.356 0.204,-0.48c0.028,-0.124 0.04,-0.228 0.04,-0.312c0,-0.092 -0.016,-0.18 -0.044,-0.264c-0.028,-0.084 -0.072,-0.16 -0.132,-0.228c-0.06,-0.068 -0.128,-0.12 -0.212,-0.16c-0.084,-0.04 -0.18,-0.06 -0.292,-0.06c-0.212,0 -0.38,0.068 -0.5,0.208c-0.12,0.14 -0.18,0.312 -0.18,0.52c0,0.06 0.008,0.144 0.024,0.256l-1.713,0c0,-0.352 0.056,-0.672 0.172,-0.96c0.116,-0.288 0.276,-0.536 0.484,-0.744c0.208,-0.209 0.457,-0.369 0.741,-0.481c0.284,-0.112 0.6,-0.168 0.94,-0.168c0.336,0 0.648,0.052 0.932,0.16c0.285,0.108 0.533,0.256 0.741,0.448c0.208,0.193 0.372,0.421 0.488,0.685c0.116,0.264 0.176,0.552 0.176,0.86c0,0.332 -0.072,0.636 -0.212,0.917c-0.14,0.28 -0.368,0.568 -0.676,0.86l-1.001,0.936l1.953,0l0,1.329Z" style="fill:white;fill-rule:nonzero;"/>
    <path id="path10349" d="M126.604,306.484l0,-2.377l-1.385,2.377l1.385,0Zm1.456,0l0.728,0l0,1.2l-0.728,0l0,1.241l-1.456,0l0,-1.241l-2.914,0l0,-1.008l2.305,-3.786l2.065,0l0,3.594Z" style="fill:white;fill-rule:nonzero;"/>
    <path id="path10351" d="M133.582,306.86c0,0.132 0.024,0.256 0.072,0.372c0.048,0.116 0.113,0.216 0.197,0.3c0.084,0.084 0.18,0.152 0.296,0.2c0.116,0.048 0.24,0.072 0.372,0.072c0.128,0 0.248,-0.024 0.364,-0.072c0.116,-0.048 0.212,-0.116 0.296,-0.2c0.084,-0.084 0.148,-0.184 0.2,-0.296c0.052,-0.112 0.076,-0.232 0.076,-0.36c0,-0.128 -0.024,-0.248 -0.076,-0.364c-0.052,-0.116 -0.116,-0.216 -0.2,-0.3c-0.084,-0.084 -0.18,-0.152 -0.296,-0.2c-0.116,-0.048 -0.236,-0.072 -0.364,-0.072c-0.128,0 -0.248,0.024 -0.364,0.072c-0.116,0.048 -0.212,0.116 -0.296,0.2c-0.084,0.084 -0.149,0.184 -0.201,0.292c-0.052,0.108 -0.076,0.228 -0.076,0.356l0,0Zm1.825,-4.578l1.457,0l0,6.643l-1.457,0l0,-0.456c-0.308,0.388 -0.728,0.584 -1.256,0.584c-0.3,0 -0.573,-0.056 -0.825,-0.168c-0.252,-0.112 -0.468,-0.268 -0.656,-0.464c-0.188,-0.196 -0.332,-0.429 -0.436,-0.697c-0.104,-0.268 -0.156,-0.556 -0.156,-0.864c0,-0.292 0.048,-0.572 0.148,-0.836c0.1,-0.265 0.24,-0.497 0.42,-0.693c0.18,-0.196 0.4,-0.352 0.652,-0.468c0.252,-0.116 0.533,-0.172 0.837,-0.172c0.512,0 0.936,0.18 1.272,0.536l0,-2.945Z" style="fill:white;fill-rule:nonzero;"/>
    <path id="path10353" d="M139.553,307.708l0.344,0c0.396,0 0.676,-0.052 0.848,-0.152c0.173,-0.1 0.257,-0.264 0.257,-0.488c0,-0.224 -0.084,-0.388 -0.257,-0.488c-0.172,-0.1 -0.452,-0.152 -0.848,-0.152l-0.344,0l0,1.28Zm0,-2.449l0.288,0c0.492,0 0.736,-0.196 0.736,-0.584c0,-0.388 -0.244,-0.584 -0.736,-0.584l-0.288,0l0,1.168Zm-1.569,-2.369l2.337,0c0.556,0 0.977,0.132 1.265,0.4c0.288,0.269 0.432,0.653 0.432,1.153c0,0.304 -0.056,0.556 -0.164,0.756c-0.108,0.2 -0.276,0.368 -0.5,0.508c0.224,0.044 0.416,0.109 0.572,0.197c0.156,0.088 0.284,0.196 0.384,0.324c0.1,0.128 0.168,0.272 0.212,0.432c0.044,0.16 0.064,0.332 0.064,0.512c0,0.284 -0.048,0.532 -0.148,0.752c-0.1,0.22 -0.236,0.405 -0.416,0.553c-0.18,0.148 -0.396,0.26 -0.652,0.336c-0.256,0.076 -0.545,0.112 -0.865,0.112l-2.521,0l0,-6.035Z" style="fill:white;fill-rule:nonzero;"/>
    <path id="path10358" d="M84.941,304.219l-0.88,0l0,-1.329l2.449,0l0,6.035l-1.569,0l0,-4.706Z" style="fill:white;fill-rule:nonzero;"/>
    <path id="path10360" d="M89.791,307.1c0,0.1 0.02,0.196 0.056,0.288c0.036,0.092 0.088,0.168 0.152,0.236c0.065,0.068 0.141,0.12 0.229,0.16c0.088,0.04 0.184,0.06 0.284,0.06c0.096,0 0.188,-0.02 0.276,-0.06c0.088,-0.04 0.164,-0.092 0.232,-0.16c0.068,-0.068 0.12,-0.144 0.156,-0.232c0.036,-0.088 0.056,-0.184 0.056,-0.284c0,-0.204 -0.072,-0.376 -0.212,-0.516c-0.14,-0.14 -0.312,-0.212 -0.508,-0.212c-0.204,0 -0.372,0.072 -0.513,0.212c-0.14,0.14 -0.208,0.312 -0.208,0.508l0,0Zm0.056,-2.673c0,0.188 0.064,0.344 0.192,0.476c0.129,0.132 0.285,0.196 0.473,0.196c0.096,0 0.184,-0.02 0.264,-0.056c0.08,-0.036 0.148,-0.088 0.208,-0.148c0.06,-0.06 0.104,-0.132 0.14,-0.212c0.036,-0.08 0.052,-0.164 0.052,-0.248c0,-0.18 -0.064,-0.336 -0.192,-0.468c-0.128,-0.132 -0.284,-0.196 -0.472,-0.196c-0.188,0 -0.344,0.064 -0.473,0.192c-0.128,0.128 -0.192,0.284 -0.192,0.464l0,0Zm-0.448,1.312c-0.628,-0.26 -0.944,-0.704 -0.944,-1.328c0,-0.256 0.052,-0.488 0.152,-0.692c0.1,-0.204 0.24,-0.385 0.42,-0.533c0.18,-0.148 0.396,-0.264 0.648,-0.344c0.252,-0.08 0.533,-0.12 0.837,-0.12c0.304,0 0.584,0.04 0.836,0.12c0.252,0.08 0.468,0.196 0.648,0.344c0.18,0.148 0.32,0.329 0.42,0.533c0.101,0.204 0.153,0.436 0.153,0.692c0,0.16 -0.016,0.304 -0.048,0.428c-0.032,0.124 -0.089,0.24 -0.165,0.344c-0.076,0.104 -0.18,0.2 -0.304,0.292c-0.124,0.092 -0.28,0.18 -0.468,0.264c0.82,0.321 1.233,0.837 1.233,1.553c0,0.256 -0.056,0.492 -0.172,0.712c-0.116,0.221 -0.277,0.409 -0.481,0.569c-0.204,0.16 -0.448,0.284 -0.728,0.376c-0.28,0.092 -0.588,0.136 -0.924,0.136c-0.324,0 -0.629,-0.044 -0.909,-0.132c-0.28,-0.088 -0.524,-0.212 -0.732,-0.372c-0.208,-0.16 -0.372,-0.348 -0.488,-0.569c-0.116,-0.22 -0.176,-0.46 -0.176,-0.72c0,-0.732 0.396,-1.248 1.192,-1.553Z" style="fill:white;fill-rule:nonzero;"/>
    <path id="path10362" d="M97.795,306.86c0,0.132 0.024,0.256 0.072,0.372c0.048,0.116 0.112,0.216 0.196,0.3c0.084,0.084 0.18,0.152 0.296,0.2c0.116,0.048 0.24,0.072 0.372,0.072c0.128,0 0.248,-0.024 0.364,-0.072c0.116,-0.048 0.212,-0.116 0.296,-0.2c0.084,-0.084 0.148,-0.184 0.2,-0.296c0.052,-0.112 0.076,-0.232 0.076,-0.36c0,-0.128 -0.024,-0.248 -0.076,-0.364c-0.052,-0.116 -0.116,-0.216 -0.2,-0.3c-0.084,-0.084 -0.18,-0.152 -0.296,-0.2c-0.116,-0.048 -0.236,-0.072 -0.364,-0.072c-0.128,0 -0.248,0.024 -0.364,0.072c-0.116,0.048 -0.212,0.116 -0.296,0.2c-0.084,0.084 -0.148,0.184 -0.2,0.292c-0.052,0.108 -0.076,0.228 -0.076,0.356l0,0Zm1.824,-4.578l1.457,0l0,6.643l-1.457,0l0,-0.456c-0.308,0.388 -0.728,0.584 -1.256,0.584c-0.3,0 -0.572,-0.056 -0.824,-0.168c-0.252,-0.112 -0.469,-0.268 -0.657,-0.464c-0.188,-0.196 -0.332,-0.429 -0.436,-0.697c-0.104,-0.268 -0.156,-0.556 -0.156,-0.864c0,-0.292 0.048,-0.572 0.148,-0.836c0.1,-0.265 0.24,-0.497 0.42,-0.693c0.18,-0.196 0.4,-0.352 0.653,-0.468c0.252,-0.116 0.532,-0.172 0.836,-0.172c0.512,0 0.936,0.18 1.272,0.536l0,-2.945Z" style="fill:white;fill-rule:nonzero;"/>
    <path id="path10364" d="M103.765,307.708l0.344,0c0.397,0 0.677,-0.052 0.849,-0.152c0.172,-0.1 0.256,-0.264 0.256,-0.488c0,-0.224 -0.084,-0.388 -0.256,-0.488c-0.172,-0.1 -0.453,-0.152 -0.849,-0.152l-0.344,0l0,1.28Zm0,-2.449l0.288,0c0.493,0 0.737,-0.196 0.737,-0.584c0,-0.388 -0.244,-0.584 -0.737,-0.584l-0.288,0l0,1.168Zm-1.568,-2.369l2.337,0c0.556,0 0.976,0.132 1.264,0.4c0.288,0.269 0.432,0.653 0.432,1.153c0,0.304 -0.056,0.556 -0.164,0.756c-0.108,0.2 -0.276,0.368 -0.5,0.508c0.224,0.044 0.416,0.109 0.572,0.197c0.156,0.088 0.284,0.196 0.384,0.324c0.1,0.128 0.168,0.272 0.212,0.432c0.044,0.16 0.064,0.332 0.064,0.512c0,0.284 -0.048,0.532 -0.148,0.752c-0.1,0.22 -0.236,0.405 -0.416,0.553c-0.18,0.148 -0.396,0.26 -0.652,0.336c-0.256,0.076 -0.544,0.112 -0.864,0.112l-2.521,0l0,-6.035Z" style="fill:white;fill-rule:nonzero;"/>
    <path id="path10369" d="M47.631,304.219l-0.88,0l0,-1.329l2.449,0l0,6.035l-1.569,0l0,-4.706Z" style="fill:white;fill-rule:nonzero;"/>
    <path id="path10371" d="M55.491,308.925l-4.858,0l1.496,-1.553c0.396,-0.412 0.704,-0.76 0.929,-1.044c0.224,-0.284 0.392,-0.529 0.5,-0.725c0.108,-0.196 0.176,-0.356 0.204,-0.48c0.028,-0.124 0.04,-0.228 0.04,-0.312c0,-0.092 -0.016,-0.18 -0.044,-0.264c-0.028,-0.084 -0.072,-0.16 -0.132,-0.228c-0.06,-0.068 -0.128,-0.12 -0.212,-0.16c-0.084,-0.04 -0.18,-0.06 -0.292,-0.06c-0.213,0 -0.381,0.068 -0.501,0.208c-0.12,0.14 -0.18,0.312 -0.18,0.52c0,0.06 0.008,0.144 0.024,0.256l-1.712,0c0,-0.352 0.056,-0.672 0.172,-0.96c0.116,-0.288 0.276,-0.536 0.484,-0.744c0.208,-0.209 0.456,-0.369 0.74,-0.481c0.284,-0.112 0.6,-0.168 0.941,-0.168c0.336,0 0.648,0.052 0.932,0.16c0.284,0.108 0.532,0.256 0.74,0.448c0.208,0.193 0.372,0.421 0.488,0.685c0.117,0.264 0.177,0.552 0.177,0.86c0,0.332 -0.073,0.636 -0.213,0.917c-0.14,0.28 -0.368,0.568 -0.676,0.86l-1,0.936l1.953,0l0,1.329Z" style="fill:white;fill-rule:nonzero;"/>
    <path id="path10373" d="M60.413,306.86c0,0.132 0.024,0.256 0.072,0.372c0.048,0.116 0.112,0.216 0.196,0.3c0.084,0.084 0.18,0.152 0.296,0.2c0.116,0.048 0.24,0.072 0.372,0.072c0.128,0 0.248,-0.024 0.364,-0.072c0.116,-0.048 0.212,-0.116 0.296,-0.2c0.084,-0.084 0.148,-0.184 0.2,-0.296c0.052,-0.112 0.076,-0.232 0.076,-0.36c0,-0.128 -0.024,-0.248 -0.076,-0.364c-0.052,-0.116 -0.116,-0.216 -0.2,-0.3c-0.084,-0.084 -0.18,-0.152 -0.296,-0.2c-0.116,-0.048 -0.236,-0.072 -0.364,-0.072c-0.128,0 -0.248,0.024 -0.364,0.072c-0.116,0.048 -0.212,0.116 -0.296,0.2c-0.084,0.084 -0.148,0.184 -0.2,0.292c-0.052,0.108 -0.076,0.228 -0.076,0.356l0,0Zm1.824,-4.578l1.457,0l0,6.643l-1.457,0l0,-0.456c-0.308,0.388 -0.728,0.584 -1.256,0.584c-0.3,0 -0.572,-0.056 -0.825,-0.168c-0.252,-0.112 -0.468,-0.268 -0.656,-0.464c-0.188,-0.196 -0.332,-0.429 -0.436,-0.697c-0.104,-0.268 -0.156,-0.556 -0.156,-0.864c0,-0.292 0.048,-0.572 0.148,-0.836c0.1,-0.265 0.24,-0.497 0.42,-0.693c0.18,-0.196 0.4,-0.352 0.652,-0.468c0.253,-0.116 0.533,-0.172 0.837,-0.172c0.512,0 0.936,0.18 1.272,0.536l0,-2.945Z" style="fill:white;fill-rule:nonzero;"/>
    <path id="path10375" d="M66.383,307.708l0.344,0c0.396,0 0.676,-0.052 0.849,-0.152c0.172,-0.1 0.256,-0.264 0.256,-0.488c0,-0.224 -0.084,-0.388 -0.256,-0.488c-0.173,-0.1 -0.453,-0.152 -0.849,-0.152l-0.344,0l0,1.28Zm0,-2.449l0.288,0c0.492,0 0.736,-0.196 0.736,-0.584c0,-0.388 -0.244,-0.584 -0.736,-0.584l-0.288,0l0,1.168Zm-1.569,-2.369l2.337,0c0.557,0 0.977,0.132 1.265,0.4c0.288,0.269 0.432,0.653 0.432,1.153c0,0.304 -0.056,0.556 -0.164,0.756c-0.108,0.2 -0.276,0.368 -0.5,0.508c0.224,0.044 0.416,0.109 0.572,0.197c0.156,0.088 0.284,0.196 0.384,0.324c0.1,0.128 0.168,0.272 0.212,0.432c0.044,0.16 0.064,0.332 0.064,0.512c0,0.284 -0.048,0.532 -0.148,0.752c-0.1,0.22 -0.236,0.405 -0.416,0.553c-0.18,0.148 -0.396,0.26 -0.652,0.336c-0.256,0.076 -0.544,0.112 -0.865,0.112l-2.521,0l0,-6.035Z" style="fill:white;fill-rule:nonzero;"/>
    <path id="path10380" d="M15.935,302.89l-1.713,1.969l0.032,0c0.148,-0.092 0.272,-0.144 0.368,-0.164c0.096,-0.02 0.18,-0.028 0.256,-0.028c0.292,0 0.565,0.056 0.809,0.168c0.244,0.112 0.46,0.264 0.64,0.46c0.18,0.196 0.324,0.424 0.424,0.685c0.1,0.26 0.152,0.54 0.152,0.84c0,0.32 -0.06,0.616 -0.176,0.892c-0.116,0.276 -0.288,0.517 -0.508,0.721c-0.22,0.204 -0.488,0.368 -0.804,0.484c-0.317,0.116 -0.669,0.176 -1.065,0.176c-0.4,0 -0.756,-0.06 -1.072,-0.176c-0.316,-0.116 -0.585,-0.276 -0.805,-0.48c-0.22,-0.204 -0.392,-0.441 -0.508,-0.709c-0.116,-0.268 -0.176,-0.556 -0.176,-0.86c0,-0.34 0.076,-0.712 0.228,-1.108c0.152,-0.397 0.384,-0.789 0.7,-1.173l1.401,-1.697l1.817,0Zm-2.593,3.962c0,0.14 0.028,0.268 0.08,0.388c0.052,0.12 0.124,0.224 0.216,0.316c0.092,0.092 0.196,0.164 0.316,0.216c0.12,0.052 0.248,0.08 0.388,0.08c0.14,0 0.268,-0.028 0.388,-0.08c0.12,-0.052 0.224,-0.124 0.316,-0.216c0.092,-0.092 0.164,-0.196 0.217,-0.316c0.052,-0.12 0.08,-0.248 0.08,-0.388c0,-0.14 -0.028,-0.268 -0.08,-0.388c-0.053,-0.12 -0.125,-0.224 -0.217,-0.316c-0.092,-0.092 -0.196,-0.164 -0.316,-0.216c-0.12,-0.052 -0.248,-0.08 -0.388,-0.08c-0.14,0 -0.268,0.028 -0.388,0.08c-0.12,0.052 -0.224,0.124 -0.316,0.216c-0.092,0.092 -0.164,0.196 -0.216,0.316c-0.052,0.12 -0.08,0.248 -0.08,0.388Z" style="fill:white;fill-rule:nonzero;"/>
    <path id="path10382" d="M21.625,306.86c0,0.132 0.024,0.256 0.072,0.372c0.048,0.116 0.112,0.216 0.196,0.3c0.084,0.084 0.18,0.152 0.296,0.2c0.116,0.048 0.24,0.072 0.373,0.072c0.128,0 0.248,-0.024 0.364,-0.072c0.116,-0.048 0.212,-0.116 0.296,-0.2c0.084,-0.084 0.148,-0.184 0.2,-0.296c0.052,-0.112 0.076,-0.232 0.076,-0.36c0,-0.128 -0.024,-0.248 -0.076,-0.364c-0.052,-0.116 -0.116,-0.216 -0.2,-0.3c-0.084,-0.084 -0.18,-0.152 -0.296,-0.2c-0.116,-0.048 -0.236,-0.072 -0.364,-0.072c-0.129,0 -0.249,0.024 -0.365,0.072c-0.116,0.048 -0.212,0.116 -0.296,0.2c-0.084,0.084 -0.148,0.184 -0.2,0.292c-0.052,0.108 -0.076,0.228 -0.076,0.356l0,0Zm1.825,-4.578l1.457,0l0,6.643l-1.457,0l0,-0.456c-0.308,0.388 -0.728,0.584 -1.257,0.584c-0.3,0 -0.572,-0.056 -0.824,-0.168c-0.252,-0.112 -0.468,-0.268 -0.656,-0.464c-0.188,-0.196 -0.332,-0.429 -0.436,-0.697c-0.104,-0.268 -0.156,-0.556 -0.156,-0.864c0,-0.292 0.048,-0.572 0.148,-0.836c0.1,-0.265 0.24,-0.497 0.42,-0.693c0.18,-0.196 0.4,-0.352 0.652,-0.468c0.252,-0.116 0.532,-0.172 0.836,-0.172c0.513,0 0.937,0.18 1.273,0.536l0,-2.945Z" style="fill:white;fill-rule:nonzero;"/>
    <path id="path10384" d="M27.596,307.708l0.344,0c0.396,0 0.676,-0.052 0.848,-0.152c0.172,-0.1 0.256,-0.264 0.256,-0.488c0,-0.224 -0.084,-0.388 -0.256,-0.488c-0.172,-0.1 -0.452,-0.152 -0.848,-0.152l-0.344,0l0,1.28Zm0,-2.449l0.288,0c0.492,0 0.736,-0.196 0.736,-0.584c0,-0.388 -0.244,-0.584 -0.736,-0.584l-0.288,0l0,1.168Zm-1.569,-2.369l2.337,0c0.556,0 0.976,0.132 1.264,0.4c0.289,0.269 0.433,0.653 0.433,1.153c0,0.304 -0.056,0.556 -0.164,0.756c-0.108,0.2 -0.277,0.368 -0.501,0.508c0.224,0.044 0.417,0.109 0.573,0.197c0.156,0.088 0.284,0.196 0.384,0.324c0.1,0.128 0.168,0.272 0.212,0.432c0.044,0.16 0.064,0.332 0.064,0.512c0,0.284 -0.048,0.532 -0.148,0.752c-0.1,0.22 -0.236,0.405 -0.416,0.553c-0.18,0.148 -0.397,0.26 -0.653,0.336c-0.256,0.076 -0.544,0.112 -0.864,0.112l-2.521,0l0,-6.035Z" style="fill:white;fill-rule:nonzero;"/>
    <path id="path10389" d="M43.66,262.748l0.36,0c0.272,0 0.516,-0.044 0.728,-0.128c0.212,-0.084 0.392,-0.204 0.54,-0.352c0.149,-0.148 0.261,-0.328 0.337,-0.532c0.076,-0.204 0.116,-0.432 0.116,-0.676c0,-0.241 -0.04,-0.465 -0.12,-0.673c-0.08,-0.208 -0.192,-0.388 -0.341,-0.536c-0.148,-0.148 -0.328,-0.268 -0.54,-0.352c-0.212,-0.084 -0.452,-0.128 -0.72,-0.128l-0.36,0l0,3.377Zm-1.569,-4.706l2.321,0c0.412,0 0.796,0.084 1.157,0.248c0.36,0.164 0.676,0.385 0.944,0.661c0.268,0.276 0.48,0.596 0.636,0.96c0.156,0.364 0.232,0.748 0.232,1.149c0,0.396 -0.076,0.776 -0.228,1.14c-0.152,0.364 -0.364,0.688 -0.632,0.964c-0.268,0.277 -0.584,0.501 -0.944,0.665c-0.361,0.164 -0.749,0.248 -1.165,0.248l-2.321,0l0,-6.035Z" style="fill:white;fill-rule:nonzero;"/>
    <path id="path10391" d="M49.95,260.739l0.297,0c0.308,0 0.548,-0.064 0.712,-0.192c0.164,-0.128 0.248,-0.312 0.248,-0.552c0,-0.24 -0.084,-0.424 -0.248,-0.552c-0.164,-0.128 -0.404,-0.192 -0.712,-0.192l-0.297,0l0,1.488Zm3.45,3.338l-1.953,0l-1.497,-2.321l0,2.321l-1.568,0l0,-6.035l2.441,0c0.336,0 0.628,0.048 0.88,0.148c0.252,0.1 0.456,0.232 0.62,0.405c0.164,0.172 0.285,0.368 0.369,0.592c0.084,0.224 0.124,0.464 0.124,0.72c0,0.46 -0.112,0.832 -0.333,1.117c-0.22,0.284 -0.548,0.48 -0.98,0.58l1.897,2.473Z" style="fill:white;fill-rule:nonzero;"/>
    <rect id="rect10393" x="54.056" y="258.042" width="1.569" height="6.035" style="fill:white;"/>
    <path id="path10395" d="M57.962,258.042l1.456,3.674l1.465,-3.674l1.705,0l-2.545,6.035l-1.249,0l-2.537,-6.035l1.705,0Z" style="fill:white;fill-rule:nonzero;"/>
    <path id="path10397" d="M66.653,259.371l-1.864,0l0,1.008l1.76,0l0,1.329l-1.76,0l0,1.04l1.864,0l0,1.329l-3.433,0l0,-6.035l3.433,0l0,1.329Z" style="fill:white;fill-rule:nonzero;"/>
    <path id="path10402" d="M126.904,224.662c2.737,-4.742 1.664,-10.824 -2.534,-14.346c-4.193,-3.521 -10.372,-3.521 -14.566,0c-4.197,3.522 -5.27,9.604 -2.533,14.346l9.816,-5.666l9.817,5.666Z" style="fill:none;stroke:rgb(204,204,204);stroke-width:1px;"/>
    <path id="path10405" d="M126.531,225.859l0.024,4.409" style="fill:rgb(204,204,204);fill-rule:nonzero;stroke:rgb(204,204,204);stroke-width:1px;"/>
    <path id="path10408" d="M128.748,228.032l-4.41,0.02" style="fill:rgb(204,204,204);fill-rule:nonzero;stroke:rgb(204,204,204);stroke-width:1px;"/>
    <path id="path10411" d="M110.429,227.908l-4.414,0.02" style="fill:rgb(204,204,204);fill-rule:nonzero;stroke:rgb(204,204,204);stroke-width:1px;"/>
    <path id="path10414" d="M117.087,219l-0.024,-13.31" style="fill:none;stroke:rgb(204,204,204);stroke-width:1px;"/>
    <path id="path10417" d="M53.132,343.738l0,3.53l-1.176,0l0,-3.53l-0.965,0l0,-0.996l3.11,0l0,0.996l-0.969,0Z" style="fill:white;fill-rule:nonzero;"/>
    <path id="path10419" d="M55.797,344.491l1.697,0l0,-1.749l1.177,0l0,4.526l-1.177,0l0,-1.865l-1.697,0l0,1.865l-1.176,0l0,-4.526l1.176,0l0,1.749Z" style="fill:white;fill-rule:nonzero;"/>
    <path id="path10423" d="M35.697,357.809l0.768,-4.526l1.165,0l0.908,2.413l0.9,-2.413l1.161,0l0.768,4.526l-1.168,0l-0.388,-2.605l-1.069,2.605l-0.468,0l-1.016,-2.605l-0.389,2.605l-1.172,0Z" style="fill:rgb(128,128,128);fill-rule:nonzero;"/>
    <path id="path10425" d="M43.14,355.548c0,0.18 0.032,0.344 0.1,0.496c0.068,0.152 0.16,0.284 0.276,0.396c0.116,0.112 0.252,0.2 0.404,0.26c0.156,0.064 0.32,0.096 0.493,0.096c0.172,0 0.332,-0.032 0.488,-0.096c0.152,-0.06 0.288,-0.148 0.408,-0.26c0.116,-0.112 0.208,-0.244 0.276,-0.396c0.068,-0.152 0.104,-0.316 0.104,-0.496c0,-0.18 -0.036,-0.348 -0.104,-0.5c-0.068,-0.152 -0.16,-0.284 -0.276,-0.397c-0.12,-0.112 -0.256,-0.196 -0.408,-0.26c-0.156,-0.06 -0.316,-0.092 -0.488,-0.092c-0.173,0 -0.337,0.032 -0.493,0.092c-0.152,0.064 -0.288,0.148 -0.404,0.26c-0.116,0.113 -0.208,0.245 -0.276,0.397c-0.068,0.152 -0.1,0.32 -0.1,0.5Zm-1.233,0c0,-0.336 0.065,-0.648 0.189,-0.941c0.124,-0.288 0.296,-0.544 0.516,-0.76c0.22,-0.216 0.48,-0.384 0.788,-0.504c0.304,-0.124 0.644,-0.184 1.013,-0.184c0.364,0 0.696,0.06 1.004,0.184c0.308,0.12 0.576,0.288 0.796,0.504c0.224,0.216 0.396,0.472 0.52,0.76c0.125,0.293 0.185,0.605 0.185,0.941c0,0.336 -0.06,0.648 -0.185,0.936c-0.124,0.292 -0.296,0.544 -0.52,0.761c-0.22,0.216 -0.488,0.384 -0.796,0.508c-0.308,0.12 -0.64,0.18 -1.004,0.18c-0.369,0 -0.709,-0.06 -1.013,-0.18c-0.308,-0.124 -0.568,-0.292 -0.788,-0.508c-0.22,-0.217 -0.392,-0.469 -0.516,-0.761c-0.124,-0.288 -0.189,-0.6 -0.189,-0.936Z" style="fill:rgb(128,128,128);fill-rule:nonzero;"/>
    <path id="path10427" d="M48.838,356.812l0.272,0c0.205,0 0.385,-0.032 0.545,-0.096c0.16,-0.064 0.296,-0.152 0.404,-0.264c0.112,-0.112 0.196,-0.244 0.252,-0.4c0.06,-0.152 0.088,-0.32 0.088,-0.504c0,-0.18 -0.032,-0.348 -0.092,-0.504c-0.06,-0.156 -0.144,-0.292 -0.252,-0.404c-0.112,-0.113 -0.244,-0.201 -0.404,-0.265c-0.16,-0.064 -0.34,-0.096 -0.541,-0.096l-0.272,0l0,2.533Zm-1.176,-3.529l1.741,0c0.308,0 0.596,0.064 0.868,0.188c0.268,0.124 0.504,0.288 0.708,0.496c0.2,0.204 0.36,0.444 0.476,0.721c0.116,0.272 0.173,0.56 0.173,0.86c0,0.296 -0.056,0.58 -0.169,0.852c-0.116,0.276 -0.272,0.516 -0.476,0.725c-0.2,0.208 -0.436,0.376 -0.708,0.5c-0.268,0.124 -0.56,0.184 -0.872,0.184l-1.741,0l0,-4.526Z" style="fill:rgb(128,128,128);fill-rule:nonzero;"/>
    <path id="path10429" d="M54.953,354.279l-1.397,0l0,0.757l1.317,0l0,0.996l-1.317,0l0,0.78l1.397,0l0,0.997l-2.573,0l0,-4.526l2.573,0l0,0.996Z" style="fill:rgb(128,128,128);fill-rule:nonzero;"/>
    <path id="path10431" d="M56.974,353.283l0,3.529l1.412,0l0,0.997l-2.589,0l0,-4.526l1.177,0Z" style="fill:rgb(128,128,128);fill-rule:nonzero;"/>
    <path id="path10435" d="M52.422,334.472l0.272,0c0.204,0 0.384,-0.032 0.544,-0.096c0.16,-0.064 0.296,-0.152 0.405,-0.264c0.112,-0.112 0.196,-0.244 0.252,-0.4c0.06,-0.152 0.088,-0.32 0.088,-0.504c0,-0.18 -0.028,-0.348 -0.088,-0.504c-0.06,-0.156 -0.148,-0.292 -0.256,-0.404c-0.113,-0.113 -0.245,-0.201 -0.405,-0.265c-0.16,-0.064 -0.34,-0.096 -0.54,-0.096l-0.272,0l0,2.533Zm-1.176,-3.529l1.74,0c0.308,0 0.597,0.064 0.869,0.188c0.268,0.124 0.504,0.288 0.708,0.496c0.2,0.204 0.36,0.444 0.476,0.721c0.116,0.272 0.176,0.56 0.176,0.86c0,0.296 -0.06,0.58 -0.172,0.852c-0.116,0.276 -0.272,0.516 -0.476,0.725c-0.2,0.208 -0.436,0.376 -0.708,0.5c-0.268,0.124 -0.561,0.184 -0.873,0.184l-1.74,0l0,-4.526Z" style="fill:white;fill-rule:nonzero;"/>
    <path id="path10437" d="M58.557,331.939l-1.417,0l0,0.757l1.289,0l0,0.996l-1.289,0l0,1.777l-1.177,0l0,-4.526l2.594,0l0,0.996Z" style="fill:white;fill-rule:nonzero;"/>
    <g>
      <path id="path1066" d="M35.674,350.339l2.32,-2.422l6.953,0l2.395,2.422l-11.668,0Z" style="fill:rgb(200,200,200);"/>
      <path id="path1060" d="M35.661,325.967l2.32,2.473l0.013,19.477l-2.32,2.422l-0.013,-24.372Z" style="fill:rgb(90,90,90);"/>
      <path id="path1064" d="M44.934,328.44l2.395,-2.473l0.013,24.372l-2.395,-2.422l-0.013,-19.477Z" style="fill:rgb(90,90,90);"/>
      <path id="path887" d="M46.019,328.985c0,-0.911 -0.74,-1.65 -1.65,-1.65l-5.7,0c-0.911,0 -1.65,0.739 -1.65,1.65l0,17.7c0,0.911 0.739,1.65 1.65,1.65l5.7,0c0.91,0 1.65,-0.739 1.65,-1.65l0,-17.7Z" style="fill:rgb(20,20,20);"/>
    </g>
  </g>
</svg>