<svg width="90px" height="380px" version="1.1" xmlns="http://www.w3.org/2000/svg" xmlns:xlink="http://www.w3.org/1999/xlink" xml:space="preserve" xmlns:serif="http://www.serif.com/" style="fill-rule:evenodd;clip-rule:evenodd;stroke-linecap:round;stroke-linejoin:round;stroke-miterlimit:10;">
  <defs>
    <linearGradient id="_Linear1" x1="0" y1="0" x2="1" y2="0" gradientUnits="userSpaceOnUse" gradientTransform="matrix(90,-379.998,227.999,150,0.000328145,379.998)">
      <stop offset="0" style="stop-color:rgb(9,13,17);stop-opacity:1"/>
      <stop offset="1" style="stop-color:rgb(24,35,46);stop-opacity:1"/>
    </linearGradient>
  </defs>
  <g id="Panel">
    <rect id="rect23233" x="0" y="0" width="90" height="379.998" style="fill:url(#_Linear1);"/>
    <path d="M5.437,236.479c0,0 52.716,-1.454 75.517,0c7.047,0.449 6.553,4.73 6.74,4.881c0.05,0.04 0,44.057 0,44.057c0,0 -0.808,2.157 -1.628,2.782c-0.819,0.625 -2.166,0.919 -2.166,0.919l-77.762,0c0,0 -1.29,0.045 -2.597,-0.919c-1.244,-0.916 -1.256,-1.842 -1.256,-1.842l0,-44.997c0,0 0.102,-1.954 0.628,-2.768c0.525,-0.813 2.524,-2.113 2.524,-2.113Z" style="fill:rgb(23,34,43);"/>
    <path d="M5.437,292.018c0,0 52.716,-0.417 75.517,0c7.047,0.129 6.553,1.357 6.74,1.4c0.05,0.012 0,12.639 0,12.639c0,0 -0.808,0.618 -1.628,0.798c-0.819,0.179 -2.166,0.263 -2.166,0.263l-77.762,0c0,0 -1.29,0.013 -2.597,-0.263c-1.244,-0.263 -1.256,-0.529 -1.256,-0.529l0,-12.908c0,0 0.102,-0.56 0.628,-0.794c0.525,-0.233 2.524,-0.606 2.524,-0.606Z" style="fill:rgb(23,34,43);"/>
    <path d="M5.385,166.696c0,0 19.811,-1.89 28.379,0c2.649,0.585 2.463,6.151 2.533,6.347c0.019,0.052 0,57.286 0,57.286c0,0 -0.303,2.805 -0.611,3.618c-0.308,0.812 -0.814,1.194 -0.814,1.194l-29.224,0c0,0 -0.485,0.058 -0.976,-1.194c-0.467,-1.192 -0.472,-2.395 -0.472,-2.395l0,-58.509c0,0 0.039,-2.541 0.236,-3.598c0.197,-1.058 0.949,-2.749 0.949,-2.749Z" style="fill:rgb(23,34,43);"/>
    <path d="M30.256,311.323c0,0 18.775,-1.017 26.895,0c2.51,0.314 2.334,3.309 2.401,3.414c0.018,0.028 0,30.816 0,30.816c0,0 -0.288,1.509 -0.58,1.946c-0.292,0.437 -0.771,0.643 -0.771,0.643l-27.695,0c0,0 -0.459,0.031 -0.925,-0.643c-0.443,-0.641 -0.447,-1.288 -0.447,-1.288l0,-31.474c0,0 0.036,-1.367 0.223,-1.936c0.187,-0.569 0.899,-1.478 0.899,-1.478Z" style="fill:rgb(23,34,43);"/>
    <path d="M54.185,166.696c0,0 19.811,-1.89 28.379,0c2.649,0.585 2.463,6.151 2.533,6.347c0.019,0.052 0,57.286 0,57.286c0,0 -0.303,2.805 -0.611,3.618c-0.308,0.812 -0.814,1.194 -0.814,1.194l-29.224,0c0,0 -0.485,0.058 -0.976,-1.194c-0.467,-1.192 -0.472,-2.395 -0.472,-2.395l0,-58.509c0,0 0.039,-2.541 0.236,-3.598c0.197,-1.058 0.949,-2.749 0.949,-2.749Z" style="fill:rgb(23,34,43);"/>
    <path id="path3999" d="M28.458,263.719l-1.401,0l0,0.757l1.321,0l0,0.996l-1.321,0l0,0.78l1.401,0l0,0.997l-2.577,0l0,-4.526l2.577,0l0,0.996Z" style="fill:white;fill-rule:nonzero;"/>
    <path id="path4001" d="M30.599,264.836l-1.409,-2.113l1.449,0l0.612,1.172l0.756,-1.172l1.453,0l-1.493,2.113l1.685,2.413l-1.433,0l-0.908,-1.477l-1.06,1.477l-1.421,0l1.769,-2.413Z" style="fill:white;fill-rule:nonzero;"/>
    <path id="path4003" d="M35.301,264.8l0.392,0c0.432,0 0.648,-0.188 0.648,-0.564c0,-0.377 -0.216,-0.565 -0.648,-0.565l-0.392,0l0,1.129Zm0,2.449l-1.173,0l0,-4.526l1.869,0c0.508,0 0.9,0.132 1.168,0.396c0.273,0.264 0.405,0.636 0.405,1.117c0,0.48 -0.132,0.852 -0.405,1.116c-0.268,0.264 -0.66,0.396 -1.168,0.396l-0.696,0l0,1.501Z" style="fill:white;fill-rule:nonzero;"/>
    <path id="path4007" d="M27.057,250.923l0,3.53l1.413,0l0,0.996l-2.589,0l0,-4.526l1.176,0Z" style="fill:white;fill-rule:nonzero;"/>
    <rect id="rect4009" x="29.074" y="250.923" width="1.176" height="4.526" style="fill:white;"/>
    <path id="path4011" d="M31.199,255.449l0,-4.526l1.176,0l2.173,2.769l0,-2.769l1.169,0l0,4.526l-1.169,0l-2.173,-2.765l0,2.765l-1.176,0Z" style="fill:white;fill-rule:nonzero;"/>
    <path id="path4087" d="M28.458,275.624l-1.401,0l0,0.756l1.321,0l0,0.997l-1.321,0l0,0.78l1.401,0l0,0.997l-2.577,0l0,-4.526l2.577,0l0,0.996Z" style="fill:white;fill-rule:nonzero;"/>
    <path id="path4089" d="M29.302,279.154l0,-4.526l1.177,0l2.173,2.769l0,-2.769l1.168,0l0,4.526l-1.168,0l-2.173,-2.766l0,2.766l-1.177,0Z" style="fill:white;fill-rule:nonzero;"/>
    <path id="path4091" d="M35.573,274.628l1.092,2.757l1.097,-2.757l1.28,0l-1.909,4.526l-0.936,0l-1.901,-4.526l1.277,0Z" style="fill:white;fill-rule:nonzero;"/>
    <path d="M14.778,27.561l0,-9.256l2.444,0l0,7.28l3.913,0l0,1.976l-6.357,0Z" style="fill:rgb(172,181,188);fill-rule:nonzero;"/>
    <path d="M22.305,27.561l0,-9.256l6.604,0l0,1.872l-4.225,0l0,1.742l3.952,0l0,1.872l-3.952,0l0,1.898l4.225,0l0,1.872l-6.604,0Z" style="fill:rgb(172,181,188);fill-rule:nonzero;"/>
    <path d="M37.099,27.561l-0.819,-1.911l-4.108,0l-0.819,1.911l-2.444,0l4.329,-9.256l1.924,0l4.342,9.256l-2.405,0Zm-4.134,-3.744l2.522,0l-1.261,-2.925l-1.261,2.925Z" style="fill:rgb(172,181,188);fill-rule:nonzero;"/>
    <path d="M49.085,27.561l-2.899,0l-3.705,-4.199l0,4.199l-2.444,0l0,-9.256l2.444,0l0,3.978l3.601,-3.978l2.86,0l-4.095,4.394l4.238,4.862Z" style="fill:rgb(172,181,188);fill-rule:nonzero;"/>
    <path d="M56.17,27.561l-0.819,-1.911l-4.108,0l-0.819,1.911l-2.444,0l4.329,-9.256l1.924,0l4.342,9.256l-2.405,0Zm-4.134,-3.744l2.522,0l-1.261,-2.925l-1.261,2.925Z" style="fill:rgb(172,181,188);fill-rule:nonzero;"/>
    <path d="M67.077,22.335l0,4.641c-0.494,0.225 -1.047,0.399 -1.658,0.52c-0.611,0.121 -1.237,0.182 -1.878,0.182c-1.006,0 -1.879,-0.191 -2.62,-0.572c-0.741,-0.381 -1.311,-0.929 -1.709,-1.644c-0.399,-0.715 -0.598,-1.563 -0.598,-2.542c0,-0.953 0.199,-1.787 0.598,-2.502c0.398,-0.715 0.962,-1.266 1.69,-1.651c0.728,-0.386 1.577,-0.579 2.548,-0.579c0.667,0 1.297,0.087 1.891,0.26c0.594,0.173 1.077,0.412 1.45,0.715l-0.767,1.729c-0.425,-0.277 -0.835,-0.479 -1.229,-0.604c-0.394,-0.126 -0.817,-0.189 -1.267,-0.189c-0.824,0 -1.437,0.232 -1.84,0.696c-0.403,0.463 -0.604,1.172 -0.604,2.125c0,0.988 0.21,1.72 0.63,2.197c0.42,0.477 1.068,0.715 1.944,0.715c0.407,0 0.814,-0.043 1.222,-0.13l0,-1.716l-1.612,0l0,-1.651l3.809,0Z" style="fill:rgb(172,181,188);fill-rule:nonzero;"/>
    <path d="M68.624,27.561l0,-9.256l6.604,0l0,1.872l-4.225,0l0,1.742l3.952,0l0,1.872l-3.952,0l0,1.898l4.225,0l0,1.872l-6.604,0Z" style="fill:rgb(172,181,188);fill-rule:nonzero;"/>
    <g id="text7967-9-5">
      <path d="M28.567,37.772l-1.951,-5.112l1.453,0l1.429,3.687l1.42,-3.687l0.996,0l-1.969,5.112l-1.378,0Z" style="fill:white;fill-rule:nonzero;"/>
      <path d="M35.108,37.888c-0.798,0 -1.432,-0.241 -1.902,-0.724c-0.47,-0.482 -0.705,-1.132 -0.705,-1.948c0,-0.826 0.236,-1.477 0.71,-1.955c0.473,-0.478 1.116,-0.717 1.929,-0.717c0.817,0 1.461,0.239 1.935,0.717c0.473,0.478 0.71,1.126 0.71,1.946c0,0.838 -0.238,1.494 -0.713,1.969c-0.475,0.475 -1.129,0.712 -1.964,0.712Zm0.023,-0.861c0.791,0 1.187,-0.607 1.187,-1.82c0,-0.556 -0.105,-0.995 -0.314,-1.318c-0.21,-0.323 -0.497,-0.484 -0.864,-0.484c-0.363,0 -0.649,0.161 -0.859,0.484c-0.209,0.323 -0.314,0.765 -0.314,1.327c0,0.555 0.104,0.996 0.312,1.322c0.208,0.326 0.492,0.489 0.852,0.489Z" style="fill:white;fill-rule:nonzero;"/>
      <rect x="39.051" y="30.421" width="1.378" height="7.351" style="fill:white;fill-rule:nonzero;"/>
      <path d="M44.786,37.744c-0.328,0.096 -0.588,0.144 -0.777,0.144c-1.195,0 -1.792,-0.558 -1.792,-1.676l0,-2.691l-0.573,0l0,-0.861l0.573,0l0,-0.861l1.378,-0.158l0,1.019l1.094,0l0,0.861l-1.094,0l0,2.51c0,0.627 0.256,0.94 0.768,0.94c0.118,0 0.259,-0.022 0.423,-0.065l0,0.838Z" style="fill:white;fill-rule:nonzero;"/>
      <path d="M48.52,37.222c-0.459,0.444 -0.951,0.666 -1.476,0.666c-0.447,0 -0.81,-0.136 -1.089,-0.409c-0.279,-0.274 -0.419,-0.627 -0.419,-1.062c0,-0.565 0.226,-1 0.677,-1.306c0.452,-0.306 1.098,-0.458 1.939,-0.458l0.368,0l0,-0.466c0,-0.531 -0.302,-0.796 -0.908,-0.796c-0.537,0 -1.08,0.152 -1.629,0.456l0,-0.949c0.624,-0.236 1.241,-0.354 1.853,-0.354c1.338,0 2.006,0.532 2.006,1.597l0,2.262c0,0.4 0.129,0.601 0.387,0.601c0.046,0 0.107,-0.007 0.181,-0.019l0.033,0.773c-0.292,0.087 -0.549,0.13 -0.773,0.13c-0.565,0 -0.928,-0.222 -1.089,-0.666l-0.061,0Zm0,-0.74l0,-1.038l-0.326,0c-0.89,0 -1.336,0.279 -1.336,0.838c0,0.189 0.065,0.348 0.193,0.477c0.129,0.129 0.288,0.193 0.478,0.193c0.322,0 0.653,-0.156 0.991,-0.47Z" style="fill:white;fill-rule:nonzero;"/>
      <path d="M51.658,39.359l0.112,-1.001c0.568,0.261 1.109,0.391 1.625,0.391c0.509,0 0.876,-0.108 1.103,-0.325c0.226,-0.218 0.34,-0.57 0.34,-1.057l0,-0.699c-0.335,0.736 -0.889,1.104 -1.662,1.104c-0.609,0 -1.091,-0.228 -1.448,-0.682c-0.357,-0.455 -0.536,-1.07 -0.536,-1.846c0,-0.816 0.201,-1.47 0.601,-1.962c0.4,-0.492 0.933,-0.738 1.597,-0.738c0.521,0 1.004,0.211 1.448,0.633l0.144,-0.517l1.238,0l0,3.901c0,0.779 -0.047,1.341 -0.142,1.686c-0.094,0.344 -0.278,0.637 -0.551,0.88c-0.46,0.397 -1.107,0.595 -1.942,0.595c-0.592,0 -1.235,-0.121 -1.927,-0.363Zm3.18,-3.491l0,-1.886c-0.332,-0.375 -0.68,-0.563 -1.043,-0.563c-0.348,0 -0.624,0.158 -0.829,0.475c-0.205,0.316 -0.307,0.742 -0.307,1.275c0,1 0.321,1.499 0.964,1.499c0.443,0 0.848,-0.266 1.215,-0.8Z" style="fill:white;fill-rule:nonzero;"/>
      <path d="M62.072,37.6c-0.654,0.192 -1.275,0.288 -1.862,0.288c-0.853,0 -1.527,-0.242 -2.02,-0.726c-0.494,-0.484 -0.741,-1.145 -0.741,-1.983c0,-0.792 0.226,-1.429 0.678,-1.911c0.451,-0.483 1.048,-0.724 1.79,-0.724c0.748,0 1.294,0.236 1.639,0.707c0.344,0.472 0.516,1.219 0.516,2.24l-3.17,0c0.093,0.974 0.628,1.461 1.606,1.461c0.463,0 0.984,-0.107 1.564,-0.321l0,0.969Zm-3.189,-2.887l1.835,0c0,-0.872 -0.281,-1.308 -0.843,-1.308c-0.571,0 -0.902,0.436 -0.992,1.308Z" style="fill:white;fill-rule:nonzero;"/>
    </g>
    <g id="text7967-9-51" serif:id="text7967-9-5">
      <g transform="matrix(1.05877,0,0,1.05877,20.474,47.7718)">
        <path d="M0.588,1.737l0,-6.565l1.302,0l0,0.91c0.334,-0.68 0.86,-1.02 1.578,-1.02c0.581,0 1.037,0.213 1.37,0.638c0.333,0.425 0.499,1.01 0.499,1.754c0,0.809 -0.187,1.454 -0.563,1.935c-0.375,0.481 -0.878,0.721 -1.508,0.721c-0.507,0 -0.966,-0.199 -1.376,-0.598l0,2.225l-1.302,0Zm1.302,-2.999c0.316,0.352 0.654,0.528 1.011,0.528c0.32,0 0.575,-0.155 0.765,-0.464c0.191,-0.309 0.286,-0.722 0.286,-1.238c0,-0.988 -0.318,-1.482 -0.954,-1.482c-0.384,0 -0.753,0.248 -1.108,0.743l0,1.913Z" style="fill:white;fill-rule:nonzero;"/>
        <path d="M6.555,0l0,-4.828l1.302,0l0,0.91c0.337,-0.68 0.85,-1.02 1.539,-1.02c0.082,0 0.162,0.009 0.242,0.026l0,1.161c-0.185,-0.067 -0.357,-0.101 -0.515,-0.101c-0.519,0 -0.941,0.263 -1.266,0.787l0,3.065l-1.302,0Z" style="fill:white;fill-rule:nonzero;"/>
        <path d="M12.676,0.11c-0.753,0 -1.352,-0.228 -1.796,-0.684c-0.444,-0.456 -0.666,-1.069 -0.666,-1.84c0,-0.78 0.223,-1.395 0.67,-1.847c0.447,-0.451 1.055,-0.677 1.823,-0.677c0.771,0 1.38,0.226 1.827,0.677c0.447,0.452 0.67,1.064 0.67,1.838c0,0.792 -0.224,1.412 -0.673,1.86c-0.448,0.449 -1.067,0.673 -1.855,0.673Zm0.022,-0.814c0.747,0 1.121,-0.573 1.121,-1.719c0,-0.525 -0.099,-0.939 -0.297,-1.244c-0.198,-0.305 -0.469,-0.457 -0.815,-0.457c-0.343,0 -0.614,0.152 -0.812,0.457c-0.197,0.305 -0.296,0.722 -0.296,1.253c0,0.525 0.098,0.941 0.294,1.249c0.197,0.308 0.465,0.461 0.805,0.461Z" style="fill:white;fill-rule:nonzero;"/>
        <path d="M19.962,-0.106c-0.54,0.144 -1.039,0.216 -1.5,0.216c-0.771,0 -1.38,-0.227 -1.827,-0.679c-0.447,-0.453 -0.67,-1.07 -0.67,-1.849c0,-0.789 0.23,-1.406 0.69,-1.852c0.46,-0.445 1.097,-0.668 1.909,-0.668c0.392,0 0.845,0.063 1.358,0.189l0,0.941c-0.533,-0.173 -0.96,-0.259 -1.279,-0.259c-0.39,0 -0.704,0.149 -0.941,0.448c-0.238,0.299 -0.356,0.696 -0.356,1.192c0,0.507 0.128,0.913 0.384,1.218c0.257,0.305 0.599,0.457 1.027,0.457c0.39,0 0.792,-0.085 1.205,-0.255l0,0.901Z" style="fill:white;fill-rule:nonzero;"/>
        <path d="M25.124,-0.163c-0.619,0.182 -1.205,0.273 -1.759,0.273c-0.806,0 -1.442,-0.229 -1.908,-0.686c-0.466,-0.457 -0.699,-1.082 -0.699,-1.873c0,-0.748 0.213,-1.349 0.639,-1.805c0.427,-0.456 0.991,-0.684 1.691,-0.684c0.707,0 1.223,0.223 1.548,0.668c0.325,0.446 0.488,1.151 0.488,2.115l-2.994,0c0.088,0.921 0.593,1.381 1.517,1.381c0.436,0 0.929,-0.101 1.477,-0.303l0,0.914Zm-3.012,-2.726l1.732,0c0,-0.824 -0.265,-1.235 -0.795,-1.235c-0.54,0 -0.852,0.411 -0.937,1.235Z" style="fill:white;fill-rule:nonzero;"/>
        <path d="M26.342,-0.154l0,-0.954c0.645,0.27 1.196,0.404 1.653,0.404c0.534,0 0.801,-0.181 0.801,-0.545c0,-0.234 -0.22,-0.439 -0.66,-0.615l-0.44,-0.176c-0.478,-0.194 -0.819,-0.402 -1.024,-0.625c-0.205,-0.222 -0.308,-0.498 -0.308,-0.826c0,-0.458 0.174,-0.813 0.523,-1.067c0.349,-0.253 0.837,-0.38 1.464,-0.38c0.393,0 0.861,0.057 1.403,0.172l0,0.914c-0.522,-0.182 -0.954,-0.272 -1.297,-0.272c-0.539,0 -0.809,0.167 -0.809,0.501c0,0.22 0.199,0.406 0.598,0.558l0.378,0.145c0.566,0.214 0.959,0.431 1.181,0.651c0.221,0.22 0.332,0.503 0.332,0.849c0,0.454 -0.189,0.823 -0.565,1.106c-0.377,0.282 -0.867,0.424 -1.471,0.424c-0.581,0 -1.167,-0.088 -1.759,-0.264Z" style="fill:white;fill-rule:nonzero;"/>
        <path d="M31.434,-0.154l0,-0.954c0.645,0.27 1.196,0.404 1.653,0.404c0.534,0 0.8,-0.181 0.8,-0.545c0,-0.234 -0.219,-0.439 -0.659,-0.615l-0.44,-0.176c-0.478,-0.194 -0.819,-0.402 -1.024,-0.625c-0.206,-0.222 -0.308,-0.498 -0.308,-0.826c0,-0.458 0.174,-0.813 0.523,-1.067c0.349,-0.253 0.837,-0.38 1.464,-0.38c0.393,0 0.861,0.057 1.403,0.172l0,0.914c-0.522,-0.182 -0.954,-0.272 -1.297,-0.272c-0.54,0 -0.809,0.167 -0.809,0.501c0,0.22 0.199,0.406 0.598,0.558l0.378,0.145c0.566,0.214 0.959,0.431 1.181,0.651c0.221,0.22 0.331,0.503 0.331,0.849c0,0.454 -0.188,0.823 -0.565,1.106c-0.376,0.282 -0.866,0.424 -1.47,0.424c-0.581,0 -1.167,-0.088 -1.759,-0.264Z" style="fill:white;fill-rule:nonzero;"/>
        <path d="M38.68,0.11c-0.753,0 -1.352,-0.228 -1.796,-0.684c-0.444,-0.456 -0.666,-1.069 -0.666,-1.84c0,-0.78 0.223,-1.395 0.67,-1.847c0.447,-0.451 1.055,-0.677 1.823,-0.677c0.771,0 1.38,0.226 1.827,0.677c0.447,0.452 0.671,1.064 0.671,1.838c0,0.792 -0.225,1.412 -0.673,1.86c-0.449,0.449 -1.067,0.673 -1.856,0.673Zm0.022,-0.814c0.748,0 1.121,-0.573 1.121,-1.719c0,-0.525 -0.098,-0.939 -0.296,-1.244c-0.198,-0.305 -0.47,-0.457 -0.816,-0.457c-0.343,0 -0.613,0.152 -0.811,0.457c-0.198,0.305 -0.297,0.722 -0.297,1.253c0,0.525 0.098,0.941 0.295,1.249c0.196,0.308 0.464,0.461 0.804,0.461Z" style="fill:white;fill-rule:nonzero;"/>
        <path d="M42.405,0l0,-4.828l1.301,0l0,0.91c0.337,-0.68 0.85,-1.02 1.539,-1.02c0.082,0 0.163,0.009 0.242,0.026l0,1.161c-0.185,-0.067 -0.356,-0.101 -0.515,-0.101c-0.518,0 -0.941,0.263 -1.266,0.787l0,3.065l-1.301,0Z" style="fill:white;fill-rule:nonzero;"/>
      </g>
    </g>
    <path d="M35.797,106.618l-1.661,0l-0.767,-1.978c-0.089,-0.222 -0.298,-0.334 -0.626,-0.334l-0.568,0l0,2.312l-1.544,0l0,-5.942l2.763,0c0.717,0 1.257,0.154 1.619,0.463c0.361,0.309 0.542,0.75 0.542,1.323c0,0.401 -0.107,0.747 -0.321,1.039c-0.214,0.292 -0.516,0.499 -0.906,0.622c0.167,0.033 0.318,0.111 0.451,0.233c0.134,0.123 0.239,0.287 0.317,0.493l0.701,1.769Zm-2.654,-3.48c0.334,0 0.576,-0.052 0.726,-0.154c0.151,-0.103 0.226,-0.263 0.226,-0.48c0,-0.228 -0.074,-0.393 -0.221,-0.493c-0.148,-0.1 -0.391,-0.15 -0.731,-0.15l-0.984,0l0,1.277l0.984,0Z" style="fill:white;fill-rule:nonzero;"/>
    <path d="M41.03,106.618l-0.526,-1.227l-2.637,0l-0.526,1.227l-1.569,0l2.779,-5.942l1.236,0l2.787,5.942l-1.544,0Zm-2.654,-2.403l1.619,0l-0.809,-1.878l-0.81,1.878Z" style="fill:white;fill-rule:nonzero;"/>
    <path d="M46.755,100.676l1.477,0l0,5.942l-1.16,0l-2.695,-3.372l0,3.372l-1.461,0l0,-5.942l1.144,0l2.695,3.355l0,-3.355Z" style="fill:white;fill-rule:nonzero;"/>
    <path d="M54.584,103.263l0,2.98c-0.317,0.144 -0.672,0.256 -1.064,0.333c-0.393,0.078 -0.795,0.117 -1.206,0.117c-0.646,0 -1.206,-0.122 -1.682,-0.367c-0.476,-0.245 -0.842,-0.597 -1.098,-1.056c-0.255,-0.459 -0.383,-1.003 -0.383,-1.631c0,-0.612 0.128,-1.148 0.383,-1.607c0.256,-0.459 0.618,-0.812 1.085,-1.06c0.468,-0.247 1.013,-0.371 1.636,-0.371c0.429,0 0.833,0.055 1.214,0.167c0.382,0.111 0.692,0.264 0.931,0.459l-0.492,1.11c-0.273,-0.178 -0.536,-0.308 -0.789,-0.388c-0.253,-0.081 -0.524,-0.121 -0.814,-0.121c-0.528,0 -0.922,0.148 -1.181,0.446c-0.258,0.298 -0.388,0.753 -0.388,1.365c0,0.634 0.135,1.104 0.405,1.41c0.27,0.306 0.686,0.459 1.248,0.459c0.261,0 0.523,-0.028 0.784,-0.083l0,-1.102l-1.035,0l0,-1.06l2.446,0Z" style="fill:white;fill-rule:nonzero;"/>
    <path d="M55.577,106.618l0,-5.942l4.239,0l0,1.202l-2.712,0l0,1.118l2.537,0l0,1.202l-2.537,0l0,1.218l2.712,0l0,1.202l-4.239,0Z" style="fill:white;fill-rule:nonzero;"/>
    <path d="M31.989,162.565c-0.606,0 -1.135,-0.123 -1.585,-0.371c-0.451,-0.247 -0.797,-0.602 -1.04,-1.064c-0.242,-0.462 -0.363,-1.001 -0.363,-1.619c0,-0.618 0.123,-1.155 0.368,-1.611c0.244,-0.456 0.591,-0.808 1.039,-1.056c0.448,-0.247 0.975,-0.371 1.581,-0.371c0.607,0 1.134,0.124 1.582,0.371c0.448,0.248 0.791,0.6 1.03,1.056c0.24,0.456 0.359,0.993 0.359,1.611c0,0.618 -0.119,1.157 -0.359,1.619c-0.239,0.462 -0.582,0.817 -1.03,1.064c-0.448,0.248 -0.975,0.371 -1.582,0.371Zm0,-1.193c0.445,0 0.794,-0.159 1.048,-0.476c0.253,-0.317 0.379,-0.779 0.379,-1.385c0,-0.601 -0.126,-1.059 -0.379,-1.373c-0.254,-0.314 -0.603,-0.471 -1.048,-0.471c-0.445,0 -0.793,0.155 -1.043,0.467c-0.25,0.311 -0.376,0.77 -0.376,1.377c0,0.612 0.126,1.075 0.376,1.389c0.25,0.315 0.598,0.472 1.043,0.472Z" style="fill:white;fill-rule:nonzero;"/>
    <path d="M35.878,162.49l0,-5.942l4.148,0l0,1.227l-2.604,0l0,1.085l2.437,0l0,1.218l-2.437,0l0,2.412l-1.544,0Z" style="fill:white;fill-rule:nonzero;"/>
    <path d="M40.752,162.49l0,-5.942l4.148,0l0,1.227l-2.604,0l0,1.085l2.437,0l0,1.218l-2.437,0l0,2.412l-1.544,0Z" style="fill:white;fill-rule:nonzero;"/>
    <path d="M47.671,162.565c-0.445,0 -0.885,-0.058 -1.319,-0.175c-0.434,-0.117 -0.787,-0.275 -1.06,-0.475l0.493,-1.11c0.289,0.183 0.597,0.324 0.922,0.421c0.326,0.097 0.652,0.146 0.981,0.146c0.334,0 0.589,-0.046 0.767,-0.138c0.179,-0.091 0.268,-0.221 0.268,-0.388c0,-0.15 -0.081,-0.274 -0.242,-0.371c-0.162,-0.098 -0.465,-0.193 -0.91,-0.288c-0.562,-0.111 -0.999,-0.249 -1.31,-0.413c-0.312,-0.164 -0.53,-0.358 -0.656,-0.58c-0.125,-0.223 -0.187,-0.493 -0.187,-0.81c0,-0.361 0.103,-0.688 0.308,-0.98c0.206,-0.292 0.496,-0.521 0.868,-0.685c0.373,-0.164 0.799,-0.246 1.277,-0.246c0.429,0 0.845,0.06 1.248,0.179c0.403,0.12 0.719,0.277 0.947,0.472l-0.484,1.11c-0.261,-0.184 -0.537,-0.324 -0.826,-0.421c-0.289,-0.098 -0.579,-0.146 -0.868,-0.146c-0.284,0 -0.512,0.054 -0.684,0.162c-0.173,0.109 -0.259,0.255 -0.259,0.438c0,0.101 0.03,0.184 0.092,0.251c0.061,0.067 0.175,0.132 0.342,0.196c0.167,0.064 0.417,0.132 0.751,0.204c0.54,0.117 0.964,0.258 1.273,0.422c0.309,0.164 0.527,0.356 0.655,0.576c0.128,0.219 0.192,0.482 0.192,0.788c0,0.579 -0.226,1.034 -0.676,1.365c-0.451,0.331 -1.085,0.496 -1.903,0.496Z" style="fill:white;fill-rule:nonzero;"/>
    <path d="M51.126,162.49l0,-5.942l4.24,0l0,1.202l-2.713,0l0,1.118l2.538,0l0,1.202l-2.538,0l0,1.219l2.713,0l0,1.201l-4.24,0Z" style="fill:white;fill-rule:nonzero;"/>
    <path d="M57.644,162.49l0,-4.673l-1.769,0l0,-1.269l5.124,0l0,1.269l-1.769,0l0,4.673l-1.586,0Z" style="fill:white;fill-rule:nonzero;"/>
    <path d="M11.535,232.853l-1.393,0l-0.644,-1.659c-0.075,-0.187 -0.25,-0.28 -0.525,-0.28l-0.476,0l0,1.939l-1.295,0l0,-4.984l2.317,0c0.602,0 1.054,0.129 1.358,0.388c0.303,0.259 0.455,0.629 0.455,1.11c0,0.336 -0.09,0.626 -0.27,0.871c-0.18,0.245 -0.433,0.419 -0.759,0.522c0.14,0.028 0.266,0.093 0.378,0.196c0.112,0.102 0.2,0.24 0.266,0.413l0.588,1.484Zm-2.226,-2.919c0.28,0 0.483,-0.044 0.609,-0.13c0.126,-0.086 0.189,-0.22 0.189,-0.402c0,-0.192 -0.062,-0.329 -0.186,-0.413c-0.124,-0.084 -0.328,-0.126 -0.612,-0.126l-0.826,0l0,1.071l0.826,0Z" style="fill:white;fill-rule:nonzero;"/>
    <path d="M15.924,232.853l-0.441,-1.029l-2.212,0l-0.441,1.029l-1.316,0l2.331,-4.984l1.036,0l2.338,4.984l-1.295,0Zm-2.226,-2.016l1.358,0l-0.679,-1.575l-0.679,1.575Z" style="fill:white;fill-rule:nonzero;"/>
    <path d="M20.726,227.869l1.239,0l0,4.984l-0.973,0l-2.261,-2.828l0,2.828l-1.225,0l0,-4.984l0.959,0l2.261,2.814l0,-2.814Z" style="fill:white;fill-rule:nonzero;"/>
    <path d="M27.292,230.039l0,2.499c-0.266,0.121 -0.564,0.214 -0.893,0.28c-0.329,0.065 -0.666,0.098 -1.011,0.098c-0.542,0 -1.012,-0.103 -1.411,-0.308c-0.399,-0.206 -0.706,-0.501 -0.92,-0.886c-0.215,-0.385 -0.322,-0.841 -0.322,-1.368c0,-0.514 0.107,-0.963 0.322,-1.348c0.214,-0.385 0.518,-0.681 0.91,-0.889c0.392,-0.208 0.849,-0.311 1.372,-0.311c0.359,0 0.698,0.046 1.018,0.14c0.32,0.093 0.58,0.221 0.781,0.385l-0.413,0.931c-0.229,-0.15 -0.45,-0.258 -0.662,-0.326c-0.212,-0.068 -0.44,-0.101 -0.682,-0.101c-0.444,0 -0.774,0.124 -0.991,0.374c-0.217,0.25 -0.325,0.631 -0.325,1.145c0,0.532 0.113,0.926 0.339,1.183c0.226,0.256 0.575,0.385 1.047,0.385c0.219,0 0.438,-0.024 0.658,-0.07l0,-0.924l-0.868,0l0,-0.889l2.051,0Z" style="fill:white;fill-rule:nonzero;"/>
    <path d="M28.125,232.853l0,-4.984l3.556,0l0,1.008l-2.275,0l0,0.938l2.128,0l0,1.008l-2.128,0l0,1.022l2.275,0l0,1.008l-3.556,0Z" style="fill:white;fill-rule:nonzero;"/>
    <path d="M58.575,232.916c-0.509,0 -0.952,-0.104 -1.33,-0.312c-0.378,-0.208 -0.669,-0.505 -0.872,-0.892c-0.203,-0.388 -0.304,-0.84 -0.304,-1.358c0,-0.518 0.102,-0.969 0.308,-1.351c0.205,-0.383 0.495,-0.678 0.871,-0.886c0.376,-0.208 0.818,-0.311 1.327,-0.311c0.508,0 0.95,0.103 1.326,0.311c0.376,0.208 0.664,0.503 0.865,0.886c0.2,0.382 0.301,0.833 0.301,1.351c0,0.518 -0.101,0.97 -0.301,1.358c-0.201,0.387 -0.489,0.684 -0.865,0.892c-0.376,0.208 -0.818,0.312 -1.326,0.312Zm0,-1.001c0.373,0 0.666,-0.133 0.878,-0.399c0.212,-0.266 0.319,-0.654 0.319,-1.162c0,-0.504 -0.107,-0.888 -0.319,-1.152c-0.212,-0.264 -0.505,-0.395 -0.878,-0.395c-0.374,0 -0.665,0.13 -0.875,0.392c-0.21,0.261 -0.315,0.646 -0.315,1.155c0,0.513 0.105,0.901 0.315,1.165c0.21,0.264 0.501,0.396 0.875,0.396Z" style="fill:white;fill-rule:nonzero;"/>
    <path d="M61.837,232.853l0,-4.984l3.479,0l0,1.029l-2.184,0l0,0.91l2.044,0l0,1.022l-2.044,0l0,2.023l-1.295,0Z" style="fill:white;fill-rule:nonzero;"/>
    <path d="M65.925,232.853l0,-4.984l3.479,0l0,1.029l-2.184,0l0,0.91l2.044,0l0,1.022l-2.044,0l0,2.023l-1.295,0Z" style="fill:white;fill-rule:nonzero;"/>
    <path d="M71.728,232.916c-0.374,0 -0.742,-0.049 -1.106,-0.147c-0.364,-0.098 -0.661,-0.231 -0.889,-0.399l0.413,-0.931c0.242,0.154 0.5,0.271 0.773,0.353c0.273,0.082 0.547,0.123 0.823,0.123c0.28,0 0.494,-0.039 0.644,-0.116c0.149,-0.077 0.224,-0.185 0.224,-0.325c0,-0.126 -0.068,-0.23 -0.203,-0.312c-0.136,-0.082 -0.39,-0.162 -0.763,-0.241c-0.472,-0.094 -0.838,-0.209 -1.099,-0.347c-0.262,-0.138 -0.445,-0.3 -0.55,-0.486c-0.105,-0.187 -0.157,-0.413 -0.157,-0.679c0,-0.304 0.086,-0.578 0.259,-0.823c0.172,-0.245 0.415,-0.436 0.728,-0.574c0.312,-0.138 0.669,-0.206 1.071,-0.206c0.359,0 0.708,0.05 1.046,0.15c0.338,0.1 0.603,0.232 0.795,0.396l-0.406,0.931c-0.22,-0.154 -0.451,-0.272 -0.693,-0.354c-0.243,-0.082 -0.486,-0.122 -0.728,-0.122c-0.238,0 -0.43,0.045 -0.574,0.136c-0.145,0.091 -0.217,0.214 -0.217,0.368c0,0.084 0.025,0.154 0.077,0.21c0.051,0.056 0.147,0.11 0.287,0.164c0.14,0.054 0.35,0.111 0.63,0.172c0.452,0.098 0.808,0.215 1.067,0.353c0.259,0.138 0.442,0.299 0.55,0.483c0.107,0.184 0.161,0.405 0.161,0.662c0,0.485 -0.189,0.866 -0.567,1.144c-0.378,0.278 -0.91,0.417 -1.596,0.417Z" style="fill:white;fill-rule:nonzero;"/>
    <path d="M74.626,232.853l0,-4.984l3.556,0l0,1.008l-2.275,0l0,0.938l2.128,0l0,1.008l-2.128,0l0,1.022l2.275,0l0,1.008l-3.556,0Z" style="fill:white;fill-rule:nonzero;"/>
    <path d="M80.093,232.853l0,-3.92l-1.484,0l0,-1.064l4.298,0l0,1.064l-1.484,0l0,3.92l-1.33,0Z" style="fill:white;fill-rule:nonzero;"/>
    <path d="M59.355,287.618l-1.661,0l-0.767,-1.978c-0.089,-0.222 -0.298,-0.334 -0.626,-0.334l-0.568,0l0,2.312l-1.544,0l0,-5.942l2.763,0c0.717,0 1.257,0.154 1.619,0.463c0.361,0.309 0.542,0.75 0.542,1.323c0,0.401 -0.107,0.747 -0.321,1.039c-0.214,0.292 -0.516,0.499 -0.906,0.622c0.167,0.033 0.318,0.111 0.451,0.233c0.134,0.123 0.239,0.287 0.317,0.493l0.701,1.769Zm-2.654,-3.48c0.334,0 0.576,-0.052 0.726,-0.154c0.151,-0.103 0.226,-0.263 0.226,-0.48c0,-0.228 -0.074,-0.393 -0.221,-0.493c-0.148,-0.1 -0.391,-0.15 -0.731,-0.15l-0.984,0l0,1.277l0.984,0Z" style="fill:white;fill-rule:nonzero;"/>
    <path d="M64.588,287.618l-0.526,-1.227l-2.637,0l-0.526,1.227l-1.569,0l2.779,-5.942l1.236,0l2.787,5.942l-1.544,0Zm-2.654,-2.403l1.619,0l-0.809,-1.878l-0.81,1.878Z" style="fill:white;fill-rule:nonzero;"/>
    <path d="M67.033,287.618l0,-4.674l-1.769,0l0,-1.268l5.124,0l0,1.268l-1.769,0l0,4.674l-1.586,0Z" style="fill:white;fill-rule:nonzero;"/>
    <path d="M71.023,287.618l0,-5.942l4.239,0l0,1.202l-2.712,0l0,1.118l2.537,0l0,1.202l-2.537,0l0,1.218l2.712,0l0,1.202l-4.239,0Z" style="fill:white;fill-rule:nonzero;"/>
    <rect x="10.833" y="340.676" width="1.569" height="5.942" style="fill:white;fill-rule:nonzero;"/>
    <path d="M17.309,340.676l1.477,0l0,5.942l-1.16,0l-2.695,-3.372l0,3.372l-1.461,0l0,-5.942l1.144,0l2.695,3.355l0,-3.355Z" style="fill:white;fill-rule:nonzero;"/>
    <path id="rect2122" d="M66.746,310.871l17.58,0c2.563,0 4.627,0.438 4.627,0.982l0,35.307c0,0.544 -2.064,0.982 -4.627,0.982l-17.58,0c-2.563,0 -4.626,-0.438 -4.626,-0.982l0,-35.307c0,-0.544 2.063,-0.982 4.626,-0.982Z" style="stroke:rgb(65,76,85);stroke-width:0.67px;"/>
    <g>
      <g>
        <path id="path7809" d="M31.298,196.943l0.029,5.238" style="fill:rgb(204,204,204);fill-rule:nonzero;stroke:rgb(204,204,204);stroke-width:1.2px;stroke-linejoin:miter;stroke-miterlimit:4;"/>
        <path id="path7812" d="M33.932,199.524l-5.239,0.024" style="fill:rgb(204,204,204);fill-rule:nonzero;stroke:rgb(204,204,204);stroke-width:1.2px;stroke-linejoin:miter;stroke-miterlimit:4;"/>
        <path id="path7815" d="M12.171,199.377l-5.243,0.024" style="fill:rgb(204,204,204);fill-rule:nonzero;stroke:rgb(204,204,204);stroke-width:1.2px;stroke-linejoin:miter;stroke-miterlimit:4;"/>
        <path id="path7818" d="M31.74,195.522c3.252,-5.633 1.978,-12.858 -3.008,-17.041c-4.982,-4.183 -12.321,-4.183 -17.303,0c-4.986,4.183 -6.26,11.408 -3.009,17.041l11.66,-6.731l11.66,6.731Z" style="fill:none;stroke:rgb(204,204,204);stroke-width:1.2px;stroke-linejoin:miter;stroke-miterlimit:4;"/>
      </g>
    </g>
    <path id="path23505" d="M20.087,187l-0.024,-13.31" style="fill:none;stroke:rgb(204,204,204);stroke-width:1px;stroke-linejoin:miter;stroke-miterlimit:4;"/>
    <path id="path235051" serif:id="path23505" d="M69.087,186l-0.024,-13.31" style="fill:none;stroke:rgb(204,204,204);stroke-width:1px;stroke-linejoin:miter;stroke-miterlimit:4;"/>
    <circle cx="19.8" cy="188.27" r="10" style="stroke:black;stroke-width:1px;stroke-miterlimit:1.5;"/>
    <path d="M69.662,346.693c-0.606,0 -1.135,-0.124 -1.586,-0.371c-0.45,-0.248 -0.797,-0.602 -1.039,-1.064c-0.242,-0.462 -0.363,-1.002 -0.363,-1.619c0,-0.618 0.123,-1.155 0.368,-1.611c0.244,-0.456 0.591,-0.808 1.039,-1.056c0.448,-0.247 0.975,-0.371 1.581,-0.371c0.607,0 1.134,0.124 1.582,0.371c0.448,0.248 0.791,0.6 1.03,1.056c0.24,0.456 0.359,0.993 0.359,1.611c0,0.617 -0.119,1.157 -0.359,1.619c-0.239,0.462 -0.582,0.816 -1.03,1.064c-0.448,0.247 -0.975,0.371 -1.582,0.371Zm0,-1.193c0.445,0 0.794,-0.159 1.048,-0.476c0.253,-0.317 0.379,-0.779 0.379,-1.385c0,-0.601 -0.126,-1.059 -0.379,-1.373c-0.254,-0.315 -0.603,-0.472 -1.048,-0.472c-0.445,0 -0.793,0.156 -1.043,0.468c-0.25,0.311 -0.376,0.77 -0.376,1.377c0,0.612 0.126,1.075 0.376,1.389c0.25,0.315 0.598,0.472 1.043,0.472Z" style="fill:white;fill-rule:nonzero;"/>
    <path d="M76.164,346.693c-0.868,0 -1.525,-0.218 -1.97,-0.655c-0.445,-0.437 -0.668,-1.078 -0.668,-1.924l0,-3.438l1.528,0l0,3.497c0,0.428 0.096,0.757 0.287,0.985c0.192,0.228 0.466,0.342 0.823,0.342c0.35,0 0.62,-0.116 0.809,-0.347c0.189,-0.23 0.284,-0.557 0.284,-0.98l0,-3.497l1.544,0l0,3.438c0,0.835 -0.227,1.473 -0.68,1.916c-0.454,0.442 -1.106,0.663 -1.957,0.663Z" style="fill:white;fill-rule:nonzero;"/>
    <path d="M81.163,346.618l0,-4.674l-1.77,0l0,-1.268l5.125,0l0,1.268l-1.77,0l0,4.674l-1.585,0Z" style="fill:white;fill-rule:nonzero;"/>
    <path d="M38.721,346.693c-0.618,0 -1.156,-0.126 -1.615,-0.379c-0.459,-0.254 -0.813,-0.611 -1.06,-1.073c-0.248,-0.462 -0.372,-0.996 -0.372,-1.602c0,-0.601 0.124,-1.131 0.372,-1.59c0.247,-0.459 0.601,-0.815 1.06,-1.068c0.459,-0.254 0.997,-0.38 1.615,-0.38c0.389,0 0.766,0.058 1.13,0.175c0.365,0.117 0.658,0.275 0.881,0.476l-0.476,1.11c-0.484,-0.351 -0.985,-0.526 -1.502,-0.526c-0.479,0 -0.846,0.152 -1.102,0.455c-0.256,0.303 -0.384,0.752 -0.384,1.348c0,0.601 0.128,1.054 0.384,1.36c0.256,0.306 0.623,0.459 1.102,0.459c0.517,0 1.018,-0.175 1.502,-0.526l0.476,1.11c-0.223,0.201 -0.516,0.359 -0.881,0.476c-0.364,0.117 -0.741,0.175 -1.13,0.175Z" style="fill:white;fill-rule:nonzero;"/>
    <path d="M41.55,346.618l0,-5.942l1.569,0l0,4.674l2.512,0l0,1.268l-4.081,0Z" style="fill:white;fill-rule:nonzero;"/>
    <path d="M52.191,346.618l-1.861,0l-2.379,-2.696l0,2.696l-1.569,0l0,-5.942l1.569,0l0,2.554l2.312,-2.554l1.836,0l-2.629,2.821l2.721,3.121Z" style="fill:white;fill-rule:nonzero;"/>
    <path d="M28.074,243.85l0,-4.272l2.982,0l0,0.882l-1.872,0l0,0.78l1.752,0l0,0.876l-1.752,0l0,1.734l-1.11,0Z" style="fill:rgb(140,140,140);fill-rule:nonzero;"/>
    <path d="M33.6,243.904c-0.436,0 -0.816,-0.089 -1.14,-0.267c-0.324,-0.178 -0.573,-0.433 -0.747,-0.765c-0.174,-0.332 -0.261,-0.72 -0.261,-1.164c0,-0.444 0.088,-0.83 0.264,-1.158c0.176,-0.328 0.425,-0.581 0.747,-0.759c0.322,-0.178 0.701,-0.267 1.137,-0.267c0.436,0 0.815,0.089 1.137,0.267c0.322,0.178 0.569,0.431 0.741,0.759c0.172,0.328 0.258,0.714 0.258,1.158c0,0.444 -0.086,0.832 -0.258,1.164c-0.172,0.332 -0.419,0.587 -0.741,0.765c-0.322,0.178 -0.701,0.267 -1.137,0.267Zm0,-0.858c0.32,0 0.571,-0.114 0.753,-0.342c0.182,-0.228 0.273,-0.56 0.273,-0.996c0,-0.432 -0.091,-0.761 -0.273,-0.987c-0.182,-0.226 -0.433,-0.339 -0.753,-0.339c-0.32,0 -0.57,0.112 -0.75,0.336c-0.18,0.224 -0.27,0.554 -0.27,0.99c0,0.44 0.09,0.773 0.27,0.999c0.18,0.226 0.43,0.339 0.75,0.339Z" style="fill:rgb(140,140,140);fill-rule:nonzero;"/>
    <path d="M36.396,243.85l0,-4.272l1.128,0l0,3.36l1.806,0l0,0.912l-2.934,0Z" style="fill:rgb(140,140,140);fill-rule:nonzero;"/>
    <path d="M39.87,243.85l0,-4.272l1.128,0l0,3.36l1.806,0l0,0.912l-2.934,0Z" style="fill:rgb(140,140,140);fill-rule:nonzero;"/>
    <path d="M45.126,243.904c-0.436,0 -0.816,-0.089 -1.14,-0.267c-0.324,-0.178 -0.573,-0.433 -0.747,-0.765c-0.174,-0.332 -0.261,-0.72 -0.261,-1.164c0,-0.444 0.088,-0.83 0.264,-1.158c0.176,-0.328 0.425,-0.581 0.747,-0.759c0.322,-0.178 0.701,-0.267 1.137,-0.267c0.436,0 0.815,0.089 1.137,0.267c0.322,0.178 0.569,0.431 0.741,0.759c0.172,0.328 0.258,0.714 0.258,1.158c0,0.444 -0.086,0.832 -0.258,1.164c-0.172,0.332 -0.419,0.587 -0.741,0.765c-0.322,0.178 -0.701,0.267 -1.137,0.267Zm0,-0.858c0.32,0 0.571,-0.114 0.753,-0.342c0.182,-0.228 0.273,-0.56 0.273,-0.996c0,-0.432 -0.091,-0.761 -0.273,-0.987c-0.182,-0.226 -0.433,-0.339 -0.753,-0.339c-0.32,0 -0.57,0.112 -0.75,0.336c-0.18,0.224 -0.27,0.554 -0.27,0.99c0,0.44 0.09,0.773 0.27,0.999c0.18,0.226 0.43,0.339 0.75,0.339Z" style="fill:rgb(140,140,140);fill-rule:nonzero;"/>
    <path d="M53.064,239.578l1.068,0l-1.53,4.272l-0.894,0l-0.894,-2.538l-0.912,2.538l-0.894,0l-1.524,-4.272l1.146,0l0.876,2.694l0.954,-2.694l0.768,0l0.918,2.742l0.918,-2.742Z" style="fill:rgb(140,140,140);fill-rule:nonzero;"/>
    <path d="M54.588,243.85l0,-4.272l3.048,0l0,0.864l-1.95,0l0,0.804l1.824,0l0,0.864l-1.824,0l0,0.876l1.95,0l0,0.864l-3.048,0Z" style="fill:rgb(140,140,140);fill-rule:nonzero;"/>
    <path d="M61.926,243.85l-1.194,0l-0.552,-1.422c-0.064,-0.16 -0.214,-0.24 -0.45,-0.24l-0.408,0l0,1.662l-1.11,0l0,-4.272l1.986,0c0.516,0 0.904,0.111 1.164,0.333c0.26,0.222 0.39,0.539 0.39,0.951c0,0.288 -0.077,0.537 -0.231,0.747c-0.154,0.21 -0.371,0.359 -0.651,0.447c0.12,0.024 0.228,0.08 0.324,0.168c0.096,0.088 0.172,0.206 0.228,0.354l0.504,1.272Zm-1.908,-2.502c0.24,0 0.414,-0.037 0.522,-0.111c0.108,-0.074 0.162,-0.189 0.162,-0.345c0,-0.164 -0.053,-0.282 -0.159,-0.354c-0.106,-0.072 -0.281,-0.108 -0.525,-0.108l-0.708,0l0,0.918l0.708,0Z" style="fill:rgb(140,140,140);fill-rule:nonzero;"/>
    <path d="M16.448,169.438l0,2.142c-0.228,0.104 -0.483,0.184 -0.765,0.24c-0.282,0.056 -0.571,0.084 -0.867,0.084c-0.464,0 -0.867,-0.088 -1.209,-0.264c-0.342,-0.176 -0.605,-0.429 -0.789,-0.759c-0.184,-0.33 -0.276,-0.721 -0.276,-1.173c0,-0.44 0.092,-0.825 0.276,-1.155c0.184,-0.33 0.444,-0.584 0.78,-0.762c0.336,-0.178 0.728,-0.267 1.176,-0.267c0.308,0 0.599,0.04 0.873,0.12c0.274,0.08 0.497,0.19 0.669,0.33l-0.354,0.798c-0.196,-0.128 -0.385,-0.221 -0.567,-0.279c-0.182,-0.058 -0.377,-0.087 -0.585,-0.087c-0.38,0 -0.663,0.107 -0.849,0.321c-0.186,0.214 -0.279,0.541 -0.279,0.981c0,0.456 0.097,0.794 0.291,1.014c0.194,0.22 0.493,0.33 0.897,0.33c0.188,0 0.376,-0.02 0.564,-0.06l0,-0.792l-0.744,0l0,-0.762l1.758,0Z" style="fill:rgb(140,140,140);fill-rule:nonzero;"/>
    <path d="M20.42,171.85l-0.378,-0.882l-1.896,0l-0.378,0.882l-1.128,0l1.998,-4.272l0.888,0l2.004,4.272l-1.11,0Zm-1.908,-1.728l1.164,0l-0.582,-1.35l-0.582,1.35Z" style="fill:rgb(140,140,140);fill-rule:nonzero;"/>
    <path d="M22.178,171.85l0,-3.36l-1.272,0l0,-0.912l3.684,0l0,0.912l-1.272,0l0,3.36l-1.14,0Z" style="fill:rgb(140,140,140);fill-rule:nonzero;"/>
    <path d="M25.046,171.85l0,-4.272l3.048,0l0,0.864l-1.95,0l0,0.804l1.824,0l0,0.864l-1.824,0l0,0.876l1.95,0l0,0.864l-3.048,0Z" style="fill:rgb(140,140,140);fill-rule:nonzero;"/>
    <path d="M65.5,167.578l1.746,0c0.472,0 0.879,0.085 1.221,0.255c0.342,0.17 0.604,0.415 0.786,0.735c0.182,0.32 0.273,0.7 0.273,1.14c0,0.444 -0.09,0.827 -0.27,1.149c-0.18,0.322 -0.441,0.568 -0.783,0.738c-0.342,0.17 -0.751,0.255 -1.227,0.255l-1.746,0l0,-4.272Zm1.668,3.372c0.416,0 0.727,-0.103 0.933,-0.309c0.206,-0.206 0.309,-0.517 0.309,-0.933c0,-0.82 -0.414,-1.23 -1.242,-1.23l-0.54,0l0,2.472l0.54,0Z" style="fill:rgb(140,140,140);fill-rule:nonzero;"/>
    <path d="M72.262,171.904c-0.444,0 -0.831,-0.091 -1.161,-0.273c-0.33,-0.182 -0.584,-0.439 -0.762,-0.771c-0.178,-0.332 -0.267,-0.716 -0.267,-1.152c0,-0.432 0.089,-0.813 0.267,-1.143c0.178,-0.33 0.432,-0.586 0.762,-0.768c0.33,-0.182 0.717,-0.273 1.161,-0.273c0.28,0 0.551,0.042 0.813,0.126c0.262,0.084 0.473,0.198 0.633,0.342l-0.342,0.798c-0.348,-0.252 -0.708,-0.378 -1.08,-0.378c-0.344,0 -0.608,0.109 -0.792,0.327c-0.184,0.218 -0.276,0.541 -0.276,0.969c0,0.432 0.092,0.758 0.276,0.978c0.184,0.22 0.448,0.33 0.792,0.33c0.372,0 0.732,-0.126 1.08,-0.378l0.342,0.798c-0.16,0.144 -0.371,0.258 -0.633,0.342c-0.262,0.084 -0.533,0.126 -0.813,0.126Z" style="fill:rgb(140,140,140);fill-rule:nonzero;"/>
    <g>
      <g>
        <path id="path78091" serif:id="path7809" d="M79.96,196.677l0.029,5.239" style="fill:rgb(204,204,204);fill-rule:nonzero;stroke:rgb(204,204,204);stroke-width:1.2px;stroke-linejoin:miter;stroke-miterlimit:4;"/>
        <path id="path78121" serif:id="path7812" d="M82.594,199.258l-5.238,0.024" style="fill:rgb(204,204,204);fill-rule:nonzero;stroke:rgb(204,204,204);stroke-width:1.2px;stroke-linejoin:miter;stroke-miterlimit:4;"/>
        <path id="path78151" serif:id="path7815" d="M60.833,199.111l-5.243,0.024" style="fill:rgb(204,204,204);fill-rule:nonzero;stroke:rgb(204,204,204);stroke-width:1.2px;stroke-linejoin:miter;stroke-miterlimit:4;"/>
        <path id="path78181" serif:id="path7818" d="M80.403,195.256c3.251,-5.633 1.977,-12.858 -3.009,-17.041c-4.982,-4.183 -12.321,-4.183 -17.303,0c-4.986,4.183 -6.26,11.408 -3.009,17.041l11.66,-6.731l11.661,6.731Z" style="fill:none;stroke:rgb(204,204,204);stroke-width:1.2px;stroke-linejoin:miter;stroke-miterlimit:4;"/>
      </g>
    </g>
    <g>
      <path id="path42" d="M33.394,369.094l1.752,0l1.632,5.451l1.687,-5.451l1.743,0l-2.268,6.814c-0.212,0.628 -0.591,0.942 -1.139,0.942c-0.555,0 -0.938,-0.317 -1.15,-0.952l-2.257,-6.804Z" style="fill:rgb(173,181,187);fill-rule:nonzero;"/>
      <path id="path44" d="M40.339,374.856l0,-5.762l1.643,0l0,5.707c0.029,0.205 0.219,0.307 0.57,0.307l1.117,0c0.336,0 0.522,-0.095 0.559,-0.285l0.011,-0.054l0,-5.675l1.643,0l0,5.751c0,0.504 -0.055,0.862 -0.165,1.074c-0.292,0.562 -0.806,0.843 -1.544,0.843l-2.125,0c-0.76,0 -1.278,-0.288 -1.556,-0.865c-0.102,-0.212 -0.153,-0.559 -0.153,-1.041l0,0Z" style="fill:rgb(173,181,187);fill-rule:nonzero;"/>
      <path id="path46" d="M46.638,374.889l0,-5.794l1.643,0l0,5.663c0,0.233 0.138,0.35 0.416,0.35l2.925,0l-0.011,1.654l-3.057,0c-0.109,0 -0.204,-0.004 -0.284,-0.011c-0.592,-0.051 -1.012,-0.224 -1.26,-0.52c-0.248,-0.296 -0.372,-0.743 -0.372,-1.342l0,0Z" style="fill:rgb(173,181,187);fill-rule:nonzero;"/>
      <path id="path48" d="M51.676,370.748l0,-1.654l4.929,0l0,1.654l-1.654,0l0,6.014l-1.643,0l0,-6.014l-1.632,0Z" style="fill:rgb(173,181,187);fill-rule:nonzero;"/>
      <path id="path4" d="M53.383,359.417c0,-4.509 -3.655,-8.164 -8.164,-8.164c-4.509,0 -8.165,3.655 -8.165,8.164c0,4.509 3.655,8.165 8.165,8.165c4.509,0 8.164,-3.656 8.164,-8.165Z" style="fill:rgb(117,117,117);fill-rule:nonzero;stroke:rgb(65,76,85);stroke-width:0.61px;stroke-linecap:butt;stroke-linejoin:miter;"/>
      <path id="polygon6" d="M43.321,364.394l0.553,-0.891l-1.064,-2.393l-2.216,-2.284l0.46,3.101l0.597,1.28l0.833,1.264l0.837,-0.077Z" style="fill:rgb(43,43,43);fill-rule:nonzero;"/>
      <path id="polygon8" d="M47.048,364.401l-0.553,-0.89l1.064,-2.393l2.216,-2.285l-0.46,3.101l-0.597,1.281l-0.833,1.263l-0.837,-0.077Z" style="fill:rgb(38,38,38);fill-rule:nonzero;"/>
      <path id="polygon12" d="M42.636,353.359l2.584,-0.66l0,13.447l-1.349,-2.651l-1.061,-2.385l-1.023,-0.581l-2.051,-2.92l-0.057,-0.776l1.148,-2.067l1.809,-1.407Z" style="fill:rgb(66,66,66);fill-rule:nonzero;"/>
      <path id="polygon14" d="M47.801,353.364l-2.584,-0.661l0,13.448l1.35,-2.651l1.06,-2.385l1.023,-0.581l2.051,-2.921l0.058,-0.775l-1.149,-2.067l-1.809,-1.407Z" style="fill:rgb(51,51,51);fill-rule:nonzero;"/>
      <path id="polyline16" d="M43.496,359.237l1.723,-1.684l0,1.229l-1.723,1.719l0,-1.264" style="fill:rgb(76,76,76);fill-rule:nonzero;"/>
      <path id="polygon18" d="M45.22,358.781l-1.723,1.718l0.377,3.004l1.346,2.643l0,-7.365Z" style="fill:rgb(91,91,91);fill-rule:nonzero;"/>
      <path id="polygon20" d="M45.22,366.146l-1.346,-2.643l1.346,-0.635l0,3.278Z" style="fill:rgb(51,51,51);fill-rule:nonzero;"/>
      <path id="polygon22" d="M43.497,360.499l0,-1.263l-1.249,-1.58l-1.477,-1.19l-0.001,0.932l0.775,1.823l1.952,1.278Z" style="fill:white;fill-rule:nonzero;"/>
      <path id="polyline24" d="M46.942,359.238l-1.723,-1.685l0,1.23l1.723,1.718l0,-1.263" style="fill:rgb(45,45,45);fill-rule:nonzero;"/>
      <path id="polygon26" d="M45.218,358.781l1.722,1.718l-0.376,3.004l-1.347,2.643l0.001,-7.365Z" style="fill:rgb(53,53,53);fill-rule:nonzero;"/>
      <path id="polygon28" d="M45.217,366.146l1.347,-2.643l-1.346,-0.635l-0.001,3.278Z" style="fill:rgb(25,25,25);fill-rule:nonzero;"/>
      <path id="polygon30" d="M46.94,360.499l0,-1.263l1.249,-1.58l1.478,-1.19l0.001,0.932l-0.775,1.823l-1.953,1.278Z" style="fill:white;fill-rule:nonzero;"/>
      <path id="polyline32" d="M42.652,353.338l2.566,4.215l-0.005,-4.87" style="fill:rgb(56,56,56);fill-rule:nonzero;"/>
      <path id="polyline34" d="M47.785,353.338l-2.566,4.215l0.006,-4.869" style="fill:rgb(45,45,45);fill-rule:nonzero;"/>
      <path id="polygon36" d="M42.811,361.111l0.688,-0.611l0.375,3.006l-1.063,-2.395Z" style="fill:rgb(51,51,51);fill-rule:nonzero;"/>
      <path id="polygon38" d="M47.631,361.125l-0.688,-0.61l-0.375,3.006l1.063,-2.396Z" style="fill:rgb(28,28,28);fill-rule:nonzero;"/>
    </g>
    <circle cx="68.624" cy="188.27" r="10" style="stroke:black;stroke-width:1px;stroke-miterlimit:1.5;"/>
    <path d="M22.119,297.076l1.115,0l0,4.484l-0.875,0l-2.034,-2.544l0,2.544l-1.102,0l0,-4.484l0.862,0l2.034,2.532l0,-2.532Z" style="fill:white;fill-rule:nonzero;"/>
    <path d="M26.181,301.616c-0.458,0 -0.857,-0.093 -1.197,-0.28c-0.34,-0.187 -0.601,-0.454 -0.784,-0.803c-0.182,-0.348 -0.274,-0.755 -0.274,-1.221c0,-0.466 0.093,-0.871 0.278,-1.216c0.184,-0.344 0.446,-0.609 0.784,-0.796c0.337,-0.187 0.735,-0.28 1.193,-0.28c0.457,0 0.855,0.093 1.193,0.28c0.338,0.187 0.597,0.452 0.778,0.796c0.18,0.345 0.271,0.75 0.271,1.216c0,0.466 -0.091,0.873 -0.271,1.221c-0.181,0.349 -0.44,0.616 -0.778,0.803c-0.338,0.187 -0.736,0.28 -1.193,0.28Zm0,-0.9c0.336,0 0.599,-0.12 0.79,-0.359c0.191,-0.239 0.287,-0.588 0.287,-1.045c0,-0.454 -0.096,-0.799 -0.287,-1.036c-0.191,-0.237 -0.454,-0.356 -0.79,-0.356c-0.336,0 -0.598,0.118 -0.787,0.353c-0.189,0.235 -0.284,0.581 -0.284,1.039c0,0.461 0.095,0.811 0.284,1.048c0.189,0.237 0.451,0.356 0.787,0.356Z" style="fill:white;fill-rule:nonzero;"/>
    <rect x="29.115" y="297.076" width="1.184" height="4.483" style="fill:white;fill-rule:nonzero;"/>
    <path d="M32.73,301.616c-0.336,0 -0.668,-0.044 -0.995,-0.132c-0.328,-0.088 -0.594,-0.208 -0.8,-0.359l0.372,-0.837c0.218,0.138 0.45,0.244 0.695,0.318c0.246,0.073 0.493,0.11 0.74,0.11c0.252,0 0.445,-0.035 0.58,-0.104c0.134,-0.069 0.201,-0.167 0.201,-0.293c0,-0.113 -0.061,-0.207 -0.183,-0.28c-0.121,-0.074 -0.35,-0.146 -0.686,-0.217c-0.424,-0.084 -0.753,-0.188 -0.989,-0.312c-0.235,-0.124 -0.399,-0.27 -0.494,-0.438c-0.094,-0.168 -0.142,-0.371 -0.142,-0.61c0,-0.273 0.078,-0.52 0.233,-0.74c0.156,-0.221 0.374,-0.393 0.655,-0.517c0.282,-0.124 0.603,-0.185 0.964,-0.185c0.323,0 0.637,0.045 0.941,0.135c0.304,0.09 0.543,0.209 0.715,0.356l-0.365,0.837c-0.198,-0.138 -0.405,-0.244 -0.624,-0.318c-0.218,-0.073 -0.436,-0.11 -0.655,-0.11c-0.214,0 -0.386,0.041 -0.516,0.123c-0.13,0.082 -0.195,0.192 -0.195,0.33c0,0.076 0.023,0.139 0.069,0.189c0.046,0.051 0.132,0.1 0.258,0.148c0.126,0.049 0.315,0.1 0.567,0.155c0.407,0.088 0.727,0.194 0.96,0.318c0.233,0.123 0.398,0.268 0.495,0.434c0.096,0.166 0.144,0.364 0.144,0.595c0,0.437 -0.17,0.78 -0.51,1.03c-0.34,0.249 -0.818,0.374 -1.435,0.374Z" style="fill:white;fill-rule:nonzero;"/>
    <path d="M35.337,301.56l0,-4.484l3.198,0l0,0.907l-2.046,0l0,0.844l1.914,0l0,0.907l-1.914,0l0,0.919l2.046,0l0,0.907l-3.198,0Z" style="fill:white;fill-rule:nonzero;"/>
    <path d="M61.847,301.459c-0.336,0 -0.667,-0.044 -0.995,-0.133c-0.327,-0.088 -0.594,-0.207 -0.799,-0.358l0.371,-0.838c0.218,0.139 0.45,0.245 0.696,0.318c0.246,0.074 0.492,0.11 0.74,0.11c0.252,0 0.445,-0.034 0.579,-0.104c0.135,-0.069 0.202,-0.167 0.202,-0.292c0,-0.114 -0.061,-0.207 -0.183,-0.281c-0.122,-0.073 -0.35,-0.146 -0.686,-0.217c-0.424,-0.084 -0.754,-0.188 -0.989,-0.312c-0.235,-0.123 -0.4,-0.269 -0.494,-0.437c-0.095,-0.168 -0.142,-0.372 -0.142,-0.611c0,-0.273 0.078,-0.52 0.233,-0.74c0.155,-0.22 0.374,-0.392 0.655,-0.516c0.281,-0.124 0.602,-0.186 0.963,-0.186c0.324,0 0.637,0.045 0.942,0.135c0.304,0.091 0.542,0.209 0.715,0.356l-0.366,0.838c-0.197,-0.139 -0.405,-0.245 -0.623,-0.318c-0.218,-0.074 -0.437,-0.111 -0.655,-0.111c-0.214,0 -0.386,0.041 -0.516,0.123c-0.13,0.082 -0.196,0.192 -0.196,0.331c0,0.075 0.024,0.138 0.07,0.189c0.046,0.05 0.132,0.099 0.258,0.148c0.126,0.048 0.315,0.099 0.567,0.154c0.407,0.088 0.727,0.194 0.96,0.318c0.233,0.124 0.398,0.269 0.494,0.434c0.097,0.166 0.145,0.365 0.145,0.595c0,0.437 -0.17,0.78 -0.51,1.03c-0.34,0.25 -0.819,0.375 -1.436,0.375Z" style="fill:white;fill-rule:nonzero;"/>
    <path d="M68.207,301.465c-0.399,-0.097 -0.737,-0.256 -1.014,-0.479c-0.403,0.311 -0.848,0.466 -1.335,0.466c-0.323,0 -0.61,-0.053 -0.862,-0.16c-0.252,-0.107 -0.448,-0.258 -0.589,-0.454c-0.141,-0.195 -0.211,-0.418 -0.211,-0.67c0,-0.26 0.066,-0.492 0.198,-0.696c0.133,-0.204 0.339,-0.387 0.621,-0.551c-0.261,-0.273 -0.391,-0.571 -0.391,-0.894c0,-0.227 0.058,-0.427 0.173,-0.601c0.116,-0.175 0.279,-0.31 0.488,-0.407c0.21,-0.096 0.45,-0.144 0.718,-0.144c0.382,0 0.687,0.096 0.913,0.289c0.227,0.193 0.34,0.449 0.34,0.768c0,0.462 -0.252,0.836 -0.755,1.121l0.642,0.592c0.151,-0.327 0.239,-0.669 0.264,-1.026l0.932,0c-0.016,0.306 -0.068,0.6 -0.154,0.881c-0.086,0.282 -0.202,0.54 -0.349,0.775c0.273,0.21 0.575,0.346 0.906,0.409l-0.535,0.781Zm-2.185,-3.854c-0.117,0 -0.213,0.036 -0.286,0.107c-0.074,0.072 -0.111,0.17 -0.111,0.296c0,0.076 0.02,0.147 0.06,0.214c0.04,0.068 0.117,0.158 0.23,0.271c0.16,-0.084 0.275,-0.166 0.346,-0.245c0.072,-0.08 0.107,-0.173 0.107,-0.277c0,-0.114 -0.032,-0.203 -0.097,-0.268c-0.065,-0.065 -0.148,-0.098 -0.249,-0.098Zm-0.718,2.475c0,0.155 0.053,0.279 0.158,0.372c0.105,0.092 0.247,0.138 0.428,0.138c0.222,0 0.441,-0.073 0.655,-0.22l-0.932,-0.888c-0.206,0.155 -0.309,0.354 -0.309,0.598Z" style="fill:white;fill-rule:nonzero;"/>
    <path d="M71.891,296.919l1.159,0l0,4.483l-1.159,0l0,-1.813l-1.814,0l0,1.813l-1.158,0l0,-4.483l1.158,0l0,1.744l1.814,0l0,-1.744Z" style="fill:white;fill-rule:nonzero;"/>
    <g>
      <path id="path23356" d="M81.086,273.313c4.467,-7.765 2.719,-17.725 -4.126,-23.489c-6.845,-5.76 -16.926,-5.76 -23.771,0c-6.845,5.764 -8.594,15.724 -4.127,23.489" style="fill:none;stroke:rgb(204,204,204);stroke-width:1.14px;stroke-linejoin:miter;stroke-miterlimit:4;"/>
      <circle id="circle23359" cx="49.982" cy="279.479" r="3.382" style="fill:none;stroke:rgb(204,204,204);stroke-width:0.91px;stroke-linecap:butt;stroke-linejoin:miter;stroke-miterlimit:4;"/>
      <circle id="circle23362" cx="80.811" cy="279.479" r="3.382" style="fill:rgb(204,204,204);stroke:rgb(204,204,204);stroke-width:0.91px;stroke-linecap:butt;stroke-linejoin:miter;stroke-miterlimit:4;"/>
    </g>
    <g>
      <path id="path4652" d="M65.026,89.856c5.549,-9.686 3.377,-22.108 -5.13,-29.297c-8.503,-7.189 -21.02,-7.189 -29.523,0c-8.503,7.189 -10.678,19.611 -5.126,29.297" style="fill:none;stroke:rgb(204,204,204);stroke-width:1.37px;stroke-linejoin:miter;stroke-miterlimit:4;"/>
      <path id="path4655" d="M64.274,92.291l0.049,9.012" style="fill:rgb(204,204,204);stroke:rgb(204,204,204);stroke-width:1.37px;stroke-linejoin:miter;stroke-miterlimit:4;"/>
      <path id="path4658" d="M68.769,96.733l-8.941,0.041" style="fill:rgb(204,204,204);stroke:rgb(204,204,204);stroke-width:1.37px;stroke-linejoin:miter;stroke-miterlimit:4;"/>
      <path id="path4661" d="M31.638,96.478l-8.941,0.041" style="fill:rgb(204,204,204);stroke:rgb(204,204,204);stroke-width:1.37px;stroke-linejoin:miter;stroke-miterlimit:4;"/>
      <path id="path4664" d="M45.135,78.29l-0.046,-25.761" style="fill:none;stroke:rgb(204,204,204);stroke-width:1.37px;stroke-linejoin:miter;stroke-miterlimit:4;"/>
    </g>
    <g>
      <path id="path46521" serif:id="path4652" d="M65.026,144.856c5.549,-9.686 3.377,-22.108 -5.13,-29.297c-8.503,-7.189 -21.02,-7.189 -29.523,0c-8.503,7.189 -10.678,19.611 -5.126,29.297" style="fill:none;stroke:rgb(204,204,204);stroke-width:1.37px;stroke-linejoin:miter;stroke-miterlimit:4;"/>
      <path id="path46551" serif:id="path4655" d="M64.274,147.291l0.049,9.012" style="fill:rgb(204,204,204);stroke:rgb(204,204,204);stroke-width:1.37px;stroke-linejoin:miter;stroke-miterlimit:4;"/>
      <path id="path46581" serif:id="path4658" d="M68.769,151.733l-8.941,0.041" style="fill:rgb(204,204,204);stroke:rgb(204,204,204);stroke-width:1.37px;stroke-linejoin:miter;stroke-miterlimit:4;"/>
      <path id="path46611" serif:id="path4661" d="M31.638,151.478l-8.941,0.041" style="fill:rgb(204,204,204);stroke:rgb(204,204,204);stroke-width:1.37px;stroke-linejoin:miter;stroke-miterlimit:4;"/>
      <path id="path46641" serif:id="path4664" d="M45.135,133.29l-0.046,-25.761" style="fill:none;stroke:rgb(204,204,204);stroke-width:1.37px;stroke-linejoin:miter;stroke-miterlimit:4;"/>
    </g>
  </g>
</svg>