<svg width="150px" height="380px" version="1.1" xmlns="http://www.w3.org/2000/svg" xmlns:xlink="http://www.w3.org/1999/xlink" xml:space="preserve" xmlns:serif="http://www.serif.com/" style="fill-rule:evenodd;clip-rule:evenodd;stroke-linejoin:round;stroke-miterlimit:1.5;">
  <defs>
    <linearGradient id="_Linear1" x1="0" y1="0" x2="1" y2="0" gradientUnits="userSpaceOnUse" gradientTransform="matrix(150,-379.998,379.998,150,6.96687e-15,380)">
      <stop offset="0" style="stop-color:rgb(9,13,17);stop-opacity:1"/>
      <stop offset="1" style="stop-color:rgb(24,35,46);stop-opacity:1"/>
    </linearGradient>
  </defs>
  <g id="Panel">
    <rect id="rect9931" x="0" y="0" width="150" height="380" style="fill:rgb(26,26,26);"/>
    <rect id="rect7406" x="0" y="0.002" width="150" height="379.998" style="fill:url(#_Linear1);"/>
    <path d="M18.591,219l-0.087,-26l16.713,-19.451l25.287,0" style="fill:none;stroke:rgb(148,89,0);stroke-width:2px;"/>
    <path d="M20.091,160.716l0,-27.238l16.626,-14.213l0,-33" style="fill:none;stroke:rgb(148,89,0);stroke-width:2px;"/>
    <path d="M130.717,160.716l0,-27.238l-16.626,-14.213l0,-33" style="fill:none;stroke:rgb(148,89,0);stroke-width:2px;"/>
    <path d="M130.913,219l0.087,-26l-16.713,-19.451l-25.287,0" style="fill:none;stroke:rgb(148,89,0);stroke-width:2px;"/>
    <path d="M75,251.226l0,-78.452" style="fill:none;stroke:rgb(148,89,0);stroke-width:2px;"/>
    <path id="path7458" d="M104.239,174.173c8.221,-14.243 5.003,-32.509 -7.595,-43.081c-12.597,-10.566 -31.149,-10.566 -43.747,0c-12.597,10.572 -15.815,28.838 -7.594,43.081" style="fill:none;stroke:rgb(204,204,204);stroke-width:1.5px;stroke-linecap:round;stroke-linejoin:miter;stroke-miterlimit:4;"/>
    <circle id="circle7461" cx="45.673" cy="183.44" r="3.706" style="fill:none;stroke:rgb(204,204,204);stroke-width:1px;stroke-linejoin:miter;stroke-miterlimit:4;"/>
    <circle id="circle7464" cx="104.452" cy="182.928" r="3.706" style="fill:rgb(204,204,204);stroke:rgb(204,204,204);stroke-width:1px;stroke-linejoin:miter;stroke-miterlimit:4;"/>
    <g>
      <path id="path7467" d="M12.29,111.238l0.296,0c0.308,0 0.548,-0.064 0.712,-0.192c0.164,-0.128 0.248,-0.313 0.248,-0.553c0,-0.24 -0.084,-0.424 -0.248,-0.552c-0.164,-0.128 -0.404,-0.192 -0.712,-0.192l-0.296,0l0,1.489Zm3.449,3.337l-1.952,0l-1.497,-2.321l0,2.321l-1.569,0l0,-6.034l2.441,0c0.336,0 0.629,0.048 0.881,0.148c0.252,0.1 0.456,0.232 0.62,0.404c0.164,0.172 0.284,0.368 0.368,0.592c0.084,0.224 0.124,0.464 0.124,0.72c0,0.461 -0.112,0.833 -0.332,1.117c-0.22,0.284 -0.548,0.48 -0.98,0.58l1.896,2.473Z" style="fill:white;fill-rule:nonzero;"/>
      <path id="path7469" d="M19.829,109.869l-1.865,0l0,1.009l1.761,0l0,1.328l-1.761,0l0,1.041l1.865,0l0,1.328l-3.433,0l0,-6.034l3.433,0l0,1.328Z" style="fill:white;fill-rule:nonzero;"/>
      <path id="path7471" d="M24.271,110.085c-0.172,-0.14 -0.34,-0.24 -0.512,-0.308c-0.172,-0.068 -0.336,-0.1 -0.496,-0.1c-0.205,0 -0.369,0.048 -0.497,0.144c-0.128,0.096 -0.192,0.22 -0.192,0.376c0,0.108 0.032,0.196 0.096,0.264c0.064,0.068 0.148,0.128 0.252,0.18c0.104,0.052 0.22,0.096 0.353,0.132c0.132,0.036 0.26,0.077 0.388,0.121c0.512,0.172 0.888,0.4 1.124,0.684c0.236,0.284 0.356,0.656 0.356,1.116c0,0.308 -0.052,0.589 -0.156,0.841c-0.104,0.252 -0.256,0.464 -0.456,0.644c-0.2,0.18 -0.444,0.316 -0.736,0.416c-0.292,0.1 -0.621,0.148 -0.989,0.148c-0.764,0 -1.468,-0.228 -2.121,-0.68l0.673,-1.265c0.236,0.208 0.468,0.364 0.696,0.465c0.228,0.1 0.456,0.152 0.68,0.152c0.256,0 0.448,-0.06 0.573,-0.176c0.124,-0.117 0.188,-0.253 0.188,-0.401c0,-0.092 -0.016,-0.168 -0.048,-0.236c-0.032,-0.068 -0.084,-0.128 -0.16,-0.184c-0.077,-0.056 -0.173,-0.108 -0.293,-0.156c-0.12,-0.048 -0.264,-0.1 -0.436,-0.16c-0.204,-0.064 -0.4,-0.136 -0.596,-0.212c-0.196,-0.076 -0.368,-0.18 -0.52,-0.308c-0.152,-0.128 -0.276,-0.288 -0.368,-0.484c-0.092,-0.196 -0.14,-0.441 -0.14,-0.741c0,-0.3 0.048,-0.568 0.148,-0.812c0.1,-0.244 0.236,-0.452 0.416,-0.624c0.18,-0.172 0.396,-0.308 0.656,-0.404c0.26,-0.096 0.548,-0.145 0.868,-0.145c0.301,0 0.613,0.04 0.937,0.125c0.324,0.084 0.636,0.204 0.936,0.364l-0.624,1.224Z" style="fill:white;fill-rule:nonzero;"/>
      <path id="path7473" d="M27.496,111.558c0,0.24 0.044,0.46 0.136,0.664c0.092,0.204 0.212,0.38 0.368,0.528c0.157,0.148 0.337,0.264 0.541,0.348c0.204,0.084 0.424,0.124 0.652,0.124c0.228,0 0.448,-0.04 0.652,-0.124c0.204,-0.084 0.388,-0.2 0.544,-0.348c0.157,-0.148 0.281,-0.324 0.373,-0.528c0.092,-0.204 0.136,-0.424 0.136,-0.664c0,-0.24 -0.044,-0.46 -0.136,-0.664c-0.092,-0.205 -0.216,-0.381 -0.373,-0.529c-0.156,-0.148 -0.34,-0.264 -0.544,-0.348c-0.204,-0.084 -0.424,-0.124 -0.652,-0.124c-0.228,0 -0.448,0.04 -0.652,0.124c-0.204,0.084 -0.384,0.2 -0.541,0.348c-0.156,0.148 -0.276,0.324 -0.368,0.529c-0.092,0.204 -0.136,0.424 -0.136,0.664Zm-1.64,0c0,-0.448 0.084,-0.865 0.248,-1.253c0.164,-0.388 0.396,-0.724 0.688,-1.012c0.292,-0.288 0.644,-0.512 1.052,-0.676c0.409,-0.164 0.857,-0.245 1.349,-0.245c0.484,0 0.932,0.081 1.345,0.245c0.412,0.164 0.764,0.388 1.06,0.676c0.296,0.288 0.528,0.624 0.692,1.012c0.164,0.388 0.248,0.805 0.248,1.253c0,0.448 -0.084,0.864 -0.248,1.252c-0.164,0.388 -0.396,0.725 -0.692,1.013c-0.296,0.288 -0.648,0.512 -1.06,0.676c-0.413,0.164 -0.861,0.244 -1.345,0.244c-0.492,0 -0.94,-0.08 -1.349,-0.244c-0.408,-0.164 -0.76,-0.388 -1.052,-0.676c-0.292,-0.288 -0.524,-0.625 -0.688,-1.013c-0.164,-0.388 -0.248,-0.804 -0.248,-1.252Z" style="fill:white;fill-rule:nonzero;"/>
      <path id="path7475" d="M33.531,114.575l0,-6.034l1.568,0l2.898,3.689l0,-3.689l1.56,0l0,6.034l-1.56,0l-2.898,-3.689l0,3.689l-1.568,0Z" style="fill:white;fill-rule:nonzero;"/>
      <path id="path7477" d="M44.119,112.334l-0.704,-2.009l-0.704,2.009l1.408,0Zm0.416,1.193l-2.241,0l-0.36,1.048l-1.672,0l2.297,-6.034l1.712,0l2.297,6.034l-1.673,0l-0.36,-1.048Z" style="fill:white;fill-rule:nonzero;"/>
      <path id="path7479" d="M47.256,114.575l0,-6.034l1.569,0l2.897,3.689l0,-3.689l1.561,0l0,6.034l-1.561,0l-2.897,-3.689l0,3.689l-1.569,0Z" style="fill:white;fill-rule:nonzero;"/>
      <path id="path7481" d="M58.973,110.557c-0.364,-0.444 -0.812,-0.664 -1.344,-0.664c-0.236,0 -0.452,0.044 -0.653,0.128c-0.2,0.084 -0.372,0.2 -0.516,0.348c-0.144,0.148 -0.256,0.32 -0.34,0.525c-0.084,0.204 -0.124,0.42 -0.124,0.656c0,0.24 0.04,0.46 0.124,0.664c0.084,0.204 0.196,0.38 0.344,0.528c0.148,0.148 0.32,0.268 0.516,0.352c0.197,0.084 0.413,0.128 0.641,0.128c0.5,0 0.952,-0.212 1.352,-0.64l0,1.857l-0.16,0.056c-0.24,0.084 -0.464,0.148 -0.672,0.188c-0.208,0.04 -0.412,0.06 -0.616,0.06c-0.416,0 -0.817,-0.08 -1.197,-0.236c-0.38,-0.156 -0.716,-0.38 -1.008,-0.664c-0.292,-0.284 -0.524,-0.625 -0.7,-1.017c-0.177,-0.392 -0.265,-0.82 -0.265,-1.284c0,-0.464 0.088,-0.889 0.261,-1.277c0.172,-0.388 0.404,-0.72 0.696,-1c0.292,-0.28 0.628,-0.5 1.012,-0.656c0.384,-0.156 0.789,-0.237 1.209,-0.237c0.24,0 0.476,0.024 0.708,0.077c0.232,0.052 0.476,0.128 0.732,0.236l0,1.872Z" style="fill:white;fill-rule:nonzero;"/>
      <path id="path7483" d="M63.399,109.869l-1.865,0l0,1.009l1.761,0l0,1.328l-1.761,0l0,1.041l1.865,0l0,1.328l-3.433,0l0,-6.034l3.433,0l0,1.328Z" style="fill:white;fill-rule:nonzero;"/>
    </g>
    <g>
      <path id="path7488" d="M56.76,95.027c5.878,-10.185 3.577,-23.246 -5.431,-30.805c-9.007,-7.555 -22.273,-7.555 -31.281,0c-9.007,7.559 -11.308,20.62 -5.43,30.805" style="fill:none;stroke:rgb(204,204,204);stroke-width:1.5px;stroke-linecap:round;stroke-linejoin:miter;stroke-miterlimit:4;"/>
      <circle id="circle7491" cx="17.549" cy="104.294" r="3.706" style="fill:none;stroke:rgb(204,204,204);stroke-width:1px;stroke-linejoin:miter;stroke-miterlimit:4;"/>
      <circle id="circle7494" cx="55.329" cy="103.782" r="3.706" style="fill:rgb(204,204,204);stroke:rgb(204,204,204);stroke-width:1px;stroke-linejoin:miter;stroke-miterlimit:4;"/>
    </g>
    <g>
      <path id="path7499" d="M134.76,94.749c5.878,-10.184 3.577,-23.246 -5.431,-30.805c-9.007,-7.555 -22.273,-7.555 -31.281,0c-9.007,7.559 -11.308,20.621 -5.43,30.805" style="fill:none;stroke:rgb(204,204,204);stroke-width:1.5px;stroke-linecap:round;stroke-linejoin:miter;stroke-miterlimit:4;"/>
      <circle id="circle7502" cx="95.549" cy="104.017" r="3.706" style="fill:none;stroke:rgb(204,204,204);stroke-width:1px;stroke-linejoin:miter;stroke-miterlimit:4;"/>
      <circle id="circle7505" cx="133.329" cy="103.504" r="3.706" style="fill:rgb(204,204,204);stroke:rgb(204,204,204);stroke-width:1px;stroke-linejoin:miter;stroke-miterlimit:4;"/>
    </g>
    <path id="path42" d="M62.952,363.5l2.673,0l2.49,8.317l2.574,-8.317l2.66,0l-3.46,10.397c-0.323,0.959 -0.903,1.438 -1.738,1.438c-0.847,0 -1.433,-0.484 -1.755,-1.453l-3.444,-10.382Z" style="fill:rgb(173,181,187);fill-rule:nonzero;"/>
    <path id="path44" d="M73.55,372.292l0,-8.792l2.507,0l0,8.709c0.044,0.312 0.334,0.468 0.869,0.468l1.705,0c0.513,0 0.797,-0.145 0.853,-0.435l0.017,-0.083l0,-8.659l2.507,0l0,8.776c0,0.769 -0.083,1.315 -0.251,1.638c-0.445,0.858 -1.231,1.287 -2.357,1.287l-3.243,0c-1.159,0 -1.95,-0.44 -2.373,-1.321c-0.156,-0.323 -0.234,-0.852 -0.234,-1.588Z" style="fill:rgb(173,181,187);fill-rule:nonzero;"/>
    <path id="path46" d="M83.161,372.343l0,-8.843l2.508,0l0,8.642c0,0.357 0.211,0.535 0.635,0.535l4.463,0l-0.016,2.524l-4.664,0c-0.167,0 -0.312,-0.005 -0.435,-0.017c-0.903,-0.077 -1.544,-0.342 -1.922,-0.794c-0.379,-0.451 -0.569,-1.134 -0.569,-2.047Z" style="fill:rgb(173,181,187);fill-rule:nonzero;"/>
    <path id="path48" d="M90.851,366.024l0,-2.524l7.522,0l0,2.524l-2.524,0l0,9.177l-2.508,0l0,-9.177l-2.49,0Z" style="fill:rgb(173,181,187);fill-rule:nonzero;"/>
    <path id="path4" d="M59.383,369.417c0,-4.509 -3.655,-8.164 -8.164,-8.164c-4.509,0 -8.165,3.655 -8.165,8.164c0,4.509 3.656,8.165 8.165,8.165c4.509,0 8.164,-3.656 8.164,-8.165Z" style="fill:rgb(117,117,117);fill-rule:nonzero;stroke:rgb(65,76,85);stroke-width:0.61px;stroke-linejoin:miter;stroke-miterlimit:10;"/>
    <g id="g40">
      <path id="polygon6" d="M49.321,374.394l0.553,-0.891l-1.064,-2.393l-2.216,-2.284l0.46,3.101l0.597,1.28l0.833,1.264l0.837,-0.077Z" style="fill:rgb(43,43,43);fill-rule:nonzero;stroke:rgb(65,76,85);stroke-width:0.04px;stroke-linejoin:miter;stroke-miterlimit:4;"/>
      <path id="polygon8" d="M53.048,374.401l-0.553,-0.89l1.064,-2.393l2.216,-2.285l-0.46,3.101l-0.597,1.281l-0.833,1.263l-0.837,-0.077Z" style="fill:rgb(38,38,38);fill-rule:nonzero;stroke:rgb(65,76,85);stroke-width:0.04px;stroke-linejoin:miter;stroke-miterlimit:4;"/>
      <path id="polygon12" d="M48.636,363.359l2.584,-0.66l0,13.447l-1.349,-2.651l-1.061,-2.385l-1.022,-0.581l-2.052,-2.92l-0.057,-0.776l1.148,-2.067l1.809,-1.407Z" style="fill:rgb(66,66,66);fill-rule:nonzero;stroke:rgb(65,76,85);stroke-width:0.04px;stroke-linejoin:miter;stroke-miterlimit:4;"/>
      <path id="polygon14" d="M53.801,363.364l-2.584,-0.661l0,13.448l1.35,-2.651l1.06,-2.385l1.023,-0.581l2.051,-2.921l0.058,-0.775l-1.149,-2.067l-1.809,-1.407Z" style="fill:rgb(51,51,51);fill-rule:nonzero;stroke:rgb(65,76,85);stroke-width:0.04px;stroke-linejoin:miter;stroke-miterlimit:4;"/>
      <path id="polyline16" d="M49.496,369.237l1.723,-1.684l0,1.229l-1.723,1.718l0,-1.263" style="fill:rgb(76,76,76);fill-rule:nonzero;stroke:rgb(65,76,85);stroke-width:0.04px;stroke-linejoin:miter;stroke-miterlimit:4;"/>
      <path id="polygon18" d="M51.22,368.781l-1.723,1.718l0.377,3.004l1.346,2.643l0,-7.365Z" style="fill:rgb(91,91,91);fill-rule:nonzero;stroke:rgb(65,76,85);stroke-width:0.04px;stroke-linejoin:miter;stroke-miterlimit:4;"/>
      <path id="polygon20" d="M51.22,376.146l-1.346,-2.643l1.346,-0.635l0,3.278Z" style="fill:rgb(51,51,51);fill-rule:nonzero;stroke:rgb(65,76,85);stroke-width:0.04px;stroke-linejoin:miter;stroke-miterlimit:4;"/>
      <path id="polygon22" d="M49.497,370.499l0,-1.263l-1.249,-1.58l-1.477,-1.19l-0.001,0.932l0.775,1.823l1.952,1.278Z" style="fill:white;fill-rule:nonzero;stroke:rgb(65,76,85);stroke-width:0.04px;stroke-linejoin:miter;stroke-miterlimit:4;"/>
      <path id="polyline24" d="M52.942,369.238l-1.722,-1.685l0,1.23l1.722,1.718l0,-1.263" style="fill:rgb(45,45,45);fill-rule:nonzero;stroke:rgb(65,76,85);stroke-width:0.04px;stroke-linejoin:miter;stroke-miterlimit:4;"/>
      <path id="polygon26" d="M51.218,368.781l1.722,1.718l-0.376,3.004l-1.347,2.643l0.001,-7.365Z" style="fill:rgb(53,53,53);fill-rule:nonzero;stroke:rgb(65,76,85);stroke-width:0.04px;stroke-linejoin:miter;stroke-miterlimit:4;"/>
      <path id="polygon28" d="M51.217,376.146l1.347,-2.643l-1.346,-0.635l-0.001,3.278Z" style="fill:rgb(25,25,25);fill-rule:nonzero;stroke:rgb(65,76,85);stroke-width:0.04px;stroke-linejoin:miter;stroke-miterlimit:4;"/>
      <path id="polygon30" d="M52.94,370.499l0,-1.263l1.249,-1.58l1.478,-1.19l0.001,0.932l-0.775,1.823l-1.953,1.278Z" style="fill:white;fill-rule:nonzero;stroke:rgb(65,76,85);stroke-width:0.04px;stroke-linejoin:miter;stroke-miterlimit:4;"/>
      <path id="polyline32" d="M48.652,363.338l2.566,4.215l-0.005,-4.87" style="fill:rgb(56,56,56);fill-rule:nonzero;stroke:rgb(65,76,85);stroke-width:0.04px;stroke-linejoin:miter;stroke-miterlimit:4;"/>
      <path id="polyline34" d="M53.785,363.338l-2.566,4.215l0.006,-4.869" style="fill:rgb(45,45,45);fill-rule:nonzero;stroke:rgb(65,76,85);stroke-width:0.04px;stroke-linejoin:miter;stroke-miterlimit:4;"/>
      <path id="polygon36" d="M48.811,371.111l0.688,-0.611l0.375,3.006l-1.063,-2.395Z" style="fill:rgb(51,51,51);fill-rule:nonzero;stroke:rgb(65,76,85);stroke-width:0.04px;stroke-linejoin:miter;stroke-miterlimit:4;"/>
      <path id="polygon38" d="M53.631,371.125l-0.688,-0.61l-0.375,3.006l1.063,-2.396Z" style="fill:rgb(28,28,28);fill-rule:nonzero;stroke:rgb(65,76,85);stroke-width:0.04px;stroke-linejoin:miter;stroke-miterlimit:4;"/>
    </g>
    <g>
      <path id="path7576" d="M102.66,113.415l0.36,0c0.272,0 0.516,-0.044 0.728,-0.128c0.212,-0.085 0.392,-0.205 0.54,-0.353c0.149,-0.148 0.261,-0.328 0.337,-0.532c0.076,-0.204 0.116,-0.432 0.116,-0.676c0,-0.24 -0.04,-0.464 -0.12,-0.672c-0.08,-0.208 -0.192,-0.389 -0.341,-0.537c-0.148,-0.148 -0.328,-0.268 -0.54,-0.352c-0.212,-0.084 -0.452,-0.128 -0.72,-0.128l-0.36,0l0,3.378Zm-1.569,-4.706l2.321,0c0.412,0 0.796,0.084 1.157,0.248c0.36,0.164 0.676,0.384 0.944,0.66c0.268,0.276 0.48,0.596 0.636,0.96c0.156,0.365 0.232,0.749 0.232,1.149c0,0.396 -0.076,0.776 -0.228,1.14c-0.152,0.364 -0.364,0.689 -0.632,0.965c-0.268,0.276 -0.584,0.5 -0.944,0.664c-0.361,0.164 -0.749,0.248 -1.165,0.248l-2.321,0l0,-6.034Z" style="fill:white;fill-rule:nonzero;"/>
      <path id="path7578" d="M108.95,111.406l0.297,0c0.308,0 0.548,-0.064 0.712,-0.192c0.164,-0.128 0.248,-0.312 0.248,-0.553c0,-0.24 -0.084,-0.424 -0.248,-0.552c-0.164,-0.128 -0.404,-0.192 -0.712,-0.192l-0.297,0l0,1.489Zm3.45,3.337l-1.953,0l-1.497,-2.321l0,2.321l-1.568,0l0,-6.034l2.441,0c0.336,0 0.628,0.048 0.88,0.148c0.252,0.1 0.456,0.232 0.62,0.404c0.164,0.172 0.285,0.368 0.369,0.592c0.084,0.224 0.124,0.464 0.124,0.72c0,0.461 -0.112,0.833 -0.333,1.117c-0.22,0.284 -0.548,0.48 -0.98,0.58l1.897,2.473Z" style="fill:white;fill-rule:nonzero;"/>
      <rect id="rect7580" x="113.056" y="108.709" width="1.569" height="6.035" style="fill:white;"/>
      <path id="path7582" d="M116.962,108.709l1.456,3.673l1.465,-3.673l1.705,0l-2.545,6.034l-1.249,0l-2.537,-6.034l1.705,0Z" style="fill:white;fill-rule:nonzero;"/>
      <path id="path7584" d="M125.653,110.037l-1.864,0l0,1.009l1.76,0l0,1.328l-1.76,0l0,1.041l1.864,0l0,1.328l-3.433,0l0,-6.034l3.433,0l0,1.328Z" style="fill:white;fill-rule:nonzero;"/>
    </g>
    <g>
      <path id="path7777" d="M140.699,229.972c2.737,-4.742 1.665,-10.825 -2.533,-14.346c-4.193,-3.522 -10.372,-3.522 -14.566,0c-4.197,3.521 -5.27,9.604 -2.533,14.346l9.816,-5.666l9.816,5.666Z" style="fill:none;stroke:rgb(204,204,204);stroke-width:1px;stroke-linecap:round;stroke-linejoin:miter;stroke-miterlimit:4;"/>
      <path id="path7780" d="M140.327,231.168l0.024,4.41" style="fill:rgb(204,204,204);fill-rule:nonzero;stroke:rgb(204,204,204);stroke-width:1px;stroke-linecap:round;stroke-linejoin:miter;stroke-miterlimit:4;"/>
      <path id="path7783" d="M142.544,233.341l-4.41,0.02" style="fill:rgb(204,204,204);fill-rule:nonzero;stroke:rgb(204,204,204);stroke-width:1px;stroke-linecap:round;stroke-linejoin:miter;stroke-miterlimit:4;"/>
      <path id="path7786" d="M124.225,233.217l-4.414,0.02" style="fill:rgb(204,204,204);fill-rule:nonzero;stroke:rgb(204,204,204);stroke-width:1px;stroke-linecap:round;stroke-linejoin:miter;stroke-miterlimit:4;"/>
      <path id="path7789" d="M130.883,224.31l-0.024,-13.31" style="fill:none;stroke:rgb(204,204,204);stroke-width:1px;stroke-linecap:round;stroke-linejoin:miter;stroke-miterlimit:4;"/>
    </g>
    <g>
      <path id="path7794" d="M28.652,229.683c2.737,-4.742 1.664,-10.825 -2.533,-14.346c-4.194,-3.522 -10.373,-3.522 -14.567,0c-4.197,3.521 -5.27,9.604 -2.533,14.346l9.817,-5.667l9.816,5.667Z" style="fill:none;stroke:rgb(204,204,204);stroke-width:1px;stroke-linecap:round;stroke-linejoin:miter;stroke-miterlimit:4;"/>
      <path id="path7797" d="M28.279,230.879l0.024,4.41" style="fill:rgb(204,204,204);fill-rule:nonzero;stroke:rgb(204,204,204);stroke-width:1px;stroke-linecap:round;stroke-linejoin:miter;stroke-miterlimit:4;"/>
      <path id="path7800" d="M30.496,233.052l-4.409,0.02" style="fill:rgb(204,204,204);fill-rule:nonzero;stroke:rgb(204,204,204);stroke-width:1px;stroke-linecap:round;stroke-linejoin:miter;stroke-miterlimit:4;"/>
      <path id="path7803" d="M12.177,232.928l-4.414,0.02" style="fill:rgb(204,204,204);fill-rule:nonzero;stroke:rgb(204,204,204);stroke-width:1px;stroke-linecap:round;stroke-linejoin:miter;stroke-miterlimit:4;"/>
      <path id="path7806" d="M18.836,224.02l-0.024,-13.309" style="fill:none;stroke:rgb(204,204,204);stroke-width:1px;stroke-linecap:round;stroke-linejoin:miter;stroke-miterlimit:4;"/>
    </g>
    <g>
      <g>
        <path id="path7809" d="M29.531,141.357l0.024,4.41" style="fill:rgb(204,204,204);fill-rule:nonzero;stroke:rgb(204,204,204);stroke-width:1px;stroke-linecap:round;stroke-linejoin:miter;stroke-miterlimit:4;"/>
        <path id="path7812" d="M31.748,143.53l-4.41,0.02" style="fill:rgb(204,204,204);fill-rule:nonzero;stroke:rgb(204,204,204);stroke-width:1px;stroke-linecap:round;stroke-linejoin:miter;stroke-miterlimit:4;"/>
        <path id="path7815" d="M13.429,143.406l-4.414,0.02" style="fill:rgb(204,204,204);fill-rule:nonzero;stroke:rgb(204,204,204);stroke-width:1px;stroke-linecap:round;stroke-linejoin:miter;stroke-miterlimit:4;"/>
        <path id="path7818" d="M29.904,140.161c2.737,-4.742 1.664,-10.825 -2.533,-14.346c-4.194,-3.522 -10.373,-3.522 -14.567,0c-4.197,3.521 -5.27,9.604 -2.533,14.346l9.816,-5.667l9.817,5.667Z" style="fill:none;stroke:rgb(204,204,204);stroke-width:1px;stroke-linecap:round;stroke-linejoin:miter;stroke-miterlimit:4;"/>
      </g>
      <path id="path7821" d="M20.087,134.498l-0.024,-13.309" style="fill:none;stroke:rgb(204,204,204);stroke-width:1px;stroke-linecap:round;stroke-linejoin:miter;stroke-miterlimit:4;"/>
    </g>
    <g id="text9293-4">
      <path d="M12.695,262.627l2.723,0c0,0.28 -0.011,0.534 -0.035,0.763c-0.023,0.228 -0.07,0.441 -0.14,0.637c-0.098,0.275 -0.231,0.519 -0.399,0.731c-0.168,0.212 -0.365,0.39 -0.591,0.532c-0.226,0.142 -0.475,0.251 -0.746,0.326c-0.27,0.074 -0.555,0.112 -0.854,0.112c-0.41,0 -0.785,-0.068 -1.123,-0.203c-0.338,-0.136 -0.629,-0.326 -0.872,-0.571c-0.242,-0.245 -0.431,-0.539 -0.567,-0.882c-0.135,-0.343 -0.203,-0.722 -0.203,-1.137c0,-0.411 0.067,-0.788 0.2,-1.131c0.133,-0.343 0.322,-0.636 0.567,-0.878c0.245,-0.243 0.54,-0.432 0.885,-0.567c0.346,-0.136 0.731,-0.203 1.155,-0.203c0.551,0 1.034,0.119 1.449,0.357c0.416,0.238 0.745,0.606 0.987,1.106l-1.302,0.539c-0.121,-0.29 -0.278,-0.497 -0.472,-0.623c-0.194,-0.126 -0.414,-0.189 -0.662,-0.189c-0.205,0 -0.392,0.038 -0.56,0.115c-0.168,0.077 -0.311,0.187 -0.43,0.329c-0.119,0.142 -0.212,0.314 -0.28,0.515c-0.068,0.2 -0.102,0.424 -0.102,0.672c0,0.224 0.03,0.431 0.088,0.623c0.058,0.191 0.146,0.357 0.262,0.497c0.117,0.14 0.262,0.248 0.434,0.325c0.173,0.077 0.374,0.116 0.602,0.116c0.136,0 0.266,-0.016 0.392,-0.046c0.126,-0.03 0.24,-0.079 0.34,-0.147c0.1,-0.068 0.183,-0.155 0.248,-0.262c0.066,-0.108 0.11,-0.238 0.133,-0.392l-1.127,0l0,-1.064Z" style="fill:white;fill-rule:nonzero;"/>
      <path d="M18.96,263.621l-0.616,-1.757l-0.616,1.757l1.232,0Zm0.364,1.043l-1.96,0l-0.315,0.917l-1.463,0l2.009,-5.278l1.498,0l2.009,5.278l-1.463,0l-0.315,-0.917Z" style="fill:white;fill-rule:nonzero;"/>
      <path d="M23.475,261.465l0,4.116l-1.372,0l0,-4.116l-1.127,0l0,-1.162l3.626,0l0,1.162l-1.127,0Z" style="fill:white;fill-rule:nonzero;"/>
      <path d="M28.214,261.465l-1.631,0l0,0.882l1.54,0l0,1.162l-1.54,0l0,0.91l1.631,0l0,1.162l-3.003,0l0,-5.278l3.003,0l0,1.162Z" style="fill:white;fill-rule:nonzero;"/>
    </g>
    <g id="text9293-41" serif:id="text9293-4">
      <path d="M124.695,262.627l2.723,0c0,0.28 -0.011,0.534 -0.035,0.763c-0.023,0.228 -0.07,0.441 -0.14,0.637c-0.098,0.275 -0.231,0.519 -0.399,0.731c-0.168,0.212 -0.365,0.39 -0.591,0.532c-0.226,0.142 -0.475,0.251 -0.746,0.326c-0.27,0.074 -0.555,0.112 -0.854,0.112c-0.41,0 -0.785,-0.068 -1.123,-0.203c-0.338,-0.136 -0.629,-0.326 -0.872,-0.571c-0.242,-0.245 -0.431,-0.539 -0.567,-0.882c-0.135,-0.343 -0.203,-0.722 -0.203,-1.137c0,-0.411 0.067,-0.788 0.2,-1.131c0.133,-0.343 0.322,-0.636 0.567,-0.878c0.245,-0.243 0.54,-0.432 0.885,-0.567c0.346,-0.136 0.731,-0.203 1.155,-0.203c0.551,0 1.034,0.119 1.449,0.357c0.416,0.238 0.745,0.606 0.987,1.106l-1.302,0.539c-0.121,-0.29 -0.278,-0.497 -0.472,-0.623c-0.194,-0.126 -0.414,-0.189 -0.662,-0.189c-0.205,0 -0.392,0.038 -0.56,0.115c-0.168,0.077 -0.311,0.187 -0.43,0.329c-0.119,0.142 -0.212,0.314 -0.28,0.515c-0.068,0.2 -0.102,0.424 -0.102,0.672c0,0.224 0.03,0.431 0.088,0.623c0.058,0.191 0.146,0.357 0.262,0.497c0.117,0.14 0.262,0.248 0.434,0.325c0.173,0.077 0.374,0.116 0.602,0.116c0.136,0 0.266,-0.016 0.392,-0.046c0.126,-0.03 0.24,-0.079 0.34,-0.147c0.1,-0.068 0.183,-0.155 0.248,-0.262c0.066,-0.108 0.11,-0.238 0.133,-0.392l-1.127,0l0,-1.064Z" style="fill:white;fill-rule:nonzero;"/>
      <path d="M130.96,263.621l-0.616,-1.757l-0.616,1.757l1.232,0Zm0.364,1.043l-1.96,0l-0.315,0.917l-1.463,0l2.009,-5.278l1.498,0l2.009,5.278l-1.463,0l-0.315,-0.917Z" style="fill:white;fill-rule:nonzero;"/>
      <path d="M135.475,261.465l0,4.116l-1.372,0l0,-4.116l-1.127,0l0,-1.162l3.626,0l0,1.162l-1.127,0Z" style="fill:white;fill-rule:nonzero;"/>
      <path d="M140.214,261.465l-1.631,0l0,0.882l1.54,0l0,1.162l-1.54,0l0,0.91l1.631,0l0,1.162l-3.003,0l0,-5.278l3.003,0l0,1.162Z" style="fill:white;fill-rule:nonzero;"/>
    </g>
    <g>
      <path d="M46.495,26.208l0,-9.485l2.465,0l4.554,5.799l0,-5.799l2.453,0l0,9.485l-2.453,0l-4.554,-5.799l0,5.799l-2.465,0Z" style="fill:rgb(173,182,189);fill-rule:nonzero;"/>
      <path d="M60.42,16.723l0,5.158c0,0.277 0.011,0.56 0.032,0.849c0.021,0.289 0.084,0.551 0.189,0.786c0.104,0.235 0.27,0.426 0.496,0.573c0.227,0.146 0.546,0.22 0.957,0.22c0.41,0 0.727,-0.074 0.949,-0.22c0.223,-0.147 0.388,-0.338 0.497,-0.573c0.109,-0.235 0.174,-0.497 0.195,-0.786c0.021,-0.289 0.032,-0.572 0.032,-0.849l0,-5.158l2.453,0l0,5.498c0,1.476 -0.338,2.553 -1.013,3.233c-0.675,0.679 -1.713,1.019 -3.113,1.019c-1.401,0 -2.441,-0.34 -3.12,-1.019c-0.68,-0.68 -1.019,-1.757 -1.019,-3.233l0,-5.498l2.465,0Z" style="fill:rgb(173,182,189);fill-rule:nonzero;"/>
      <path d="M70.673,20.963l0.465,0c0.487,0 0.86,-0.101 1.12,-0.302c0.26,-0.202 0.39,-0.491 0.39,-0.868c0,-0.378 -0.13,-0.667 -0.39,-0.868c-0.26,-0.202 -0.633,-0.302 -1.12,-0.302l-0.465,0l0,2.34Zm5.422,5.245l-3.07,0l-2.352,-3.648l0,3.648l-2.466,0l0,-9.485l3.837,0c0.528,0 0.99,0.078 1.384,0.233c0.394,0.155 0.719,0.367 0.975,0.635c0.256,0.269 0.449,0.579 0.579,0.931c0.13,0.352 0.195,0.73 0.195,1.132c0,0.722 -0.175,1.306 -0.523,1.755c-0.348,0.449 -0.861,0.753 -1.541,0.912l2.982,3.887Z" style="fill:rgb(173,182,189);fill-rule:nonzero;"/>
      <path d="M82.284,22.686l-1.107,-3.158l-1.107,3.158l2.214,0Zm0.654,1.874l-3.522,0l-0.566,1.648l-2.629,0l3.61,-9.485l2.692,0l3.611,9.485l-2.63,0l-0.566,-1.648Z" style="fill:rgb(173,182,189);fill-rule:nonzero;"/>
      <path d="M91.53,20.9l4.894,0c0,0.503 -0.021,0.96 -0.063,1.371c-0.042,0.411 -0.126,0.792 -0.252,1.145c-0.176,0.494 -0.415,0.933 -0.717,1.314c-0.302,0.382 -0.656,0.7 -1.063,0.956c-0.406,0.256 -0.853,0.451 -1.339,0.585c-0.487,0.134 -0.998,0.202 -1.535,0.202c-0.738,0 -1.411,-0.122 -2.019,-0.365c-0.608,-0.243 -1.13,-0.585 -1.566,-1.026c-0.437,-0.44 -0.776,-0.968 -1.019,-1.585c-0.244,-0.616 -0.365,-1.297 -0.365,-2.044c0,-0.738 0.119,-1.415 0.358,-2.031c0.239,-0.617 0.579,-1.143 1.019,-1.579c0.441,-0.436 0.971,-0.776 1.592,-1.019c0.62,-0.243 1.312,-0.365 2.075,-0.365c0.99,0 1.858,0.214 2.604,0.642c0.747,0.427 1.338,1.09 1.774,1.987l-2.34,0.969c-0.218,-0.52 -0.501,-0.893 -0.849,-1.12c-0.348,-0.226 -0.744,-0.339 -1.189,-0.339c-0.369,0 -0.704,0.069 -1.006,0.207c-0.302,0.139 -0.56,0.336 -0.774,0.591c-0.214,0.256 -0.381,0.564 -0.503,0.925c-0.122,0.361 -0.182,0.763 -0.182,1.208c0,0.402 0.052,0.775 0.157,1.119c0.105,0.344 0.262,0.642 0.472,0.893c0.209,0.252 0.469,0.447 0.78,0.585c0.31,0.139 0.671,0.208 1.081,0.208c0.244,0 0.478,-0.027 0.705,-0.082c0.226,-0.054 0.43,-0.142 0.61,-0.264c0.18,-0.122 0.329,-0.279 0.447,-0.472c0.117,-0.193 0.197,-0.427 0.239,-0.704l-2.026,0l0,-1.912Z" style="fill:rgb(173,182,189);fill-rule:nonzero;"/>
      <path d="M103.38,18.811l-2.931,0l0,1.585l2.768,0l0,2.089l-2.768,0l0,1.635l2.931,0l0,2.088l-5.396,0l0,-9.485l5.396,0l0,2.088Z" style="fill:rgb(173,182,189);fill-rule:nonzero;"/>
    </g>
    <g id="text7967-9-5">
      <g transform="matrix(1.05877,0,0,1.05877,15.3716,37.7142)">
        <path d="M3.852,0l0,-0.91c-0.334,0.68 -0.861,1.02 -1.579,1.02c-0.58,0 -1.036,-0.213 -1.367,-0.638c-0.331,-0.425 -0.497,-1.01 -0.497,-1.754c0,-0.809 0.187,-1.454 0.561,-1.935c0.373,-0.481 0.875,-0.721 1.506,-0.721c0.504,0 0.963,0.199 1.376,0.598l0,-2.603l1.306,0l0,6.943l-1.306,0Zm0,-3.566c-0.314,-0.352 -0.649,-0.528 -1.007,-0.528c-0.32,0 -0.575,0.154 -0.765,0.462c-0.191,0.308 -0.286,0.721 -0.286,1.24c0,0.988 0.317,1.482 0.95,1.482c0.387,0 0.756,-0.248 1.108,-0.743l0,-1.913Z" style="fill:white;fill-rule:nonzero;"/>
        <path d="M9.766,0l0,-0.91c-0.422,0.68 -0.97,1.02 -1.645,1.02c-0.431,0 -0.771,-0.136 -1.02,-0.409c-0.249,-0.273 -0.373,-0.645 -0.373,-1.117l0,-3.412l1.301,0l0,3.091c0,0.548 0.183,0.822 0.55,0.822c0.41,0 0.806,-0.291 1.187,-0.875l0,-3.038l1.301,0l0,4.828l-1.301,0Z" style="fill:white;fill-rule:nonzero;"/>
        <path d="M15.06,-0.519c-0.434,0.419 -0.898,0.629 -1.394,0.629c-0.422,0 -0.765,-0.129 -1.029,-0.387c-0.264,-0.258 -0.396,-0.592 -0.396,-1.003c0,-0.533 0.214,-0.944 0.64,-1.233c0.427,-0.289 1.037,-0.433 1.832,-0.433l0.347,0l0,-0.44c0,-0.501 -0.286,-0.752 -0.857,-0.752c-0.508,0 -1.021,0.144 -1.539,0.431l0,-0.897c0.589,-0.223 1.172,-0.334 1.75,-0.334c1.263,0 1.895,0.503 1.895,1.508l0,2.137c0,0.378 0.121,0.567 0.365,0.567c0.044,0 0.101,-0.005 0.171,-0.017l0.031,0.73c-0.276,0.082 -0.519,0.123 -0.73,0.123c-0.533,0 -0.876,-0.21 -1.029,-0.629l-0.057,0Zm0,-0.699l0,-0.981l-0.308,0c-0.841,0 -1.262,0.264 -1.262,0.792c0,0.179 0.061,0.329 0.183,0.451c0.121,0.121 0.272,0.182 0.45,0.182c0.305,0 0.617,-0.148 0.937,-0.444Z" style="fill:white;fill-rule:nonzero;"/>
        <rect x="17.988" y="-6.943" width="1.302" height="6.943" style="fill:white;fill-rule:nonzero;"/>
        <rect x="23.885" y="-6.943" width="1.302" height="6.943" style="fill:white;fill-rule:nonzero;"/>
        <path d="M29.291,0.11c-0.754,0 -1.352,-0.228 -1.797,-0.684c-0.444,-0.456 -0.666,-1.069 -0.666,-1.84c0,-0.78 0.224,-1.395 0.671,-1.847c0.447,-0.451 1.054,-0.677 1.822,-0.677c0.771,0 1.38,0.226 1.827,0.677c0.447,0.452 0.671,1.064 0.671,1.838c0,0.792 -0.224,1.412 -0.673,1.86c-0.448,0.449 -1.067,0.673 -1.855,0.673Zm0.022,-0.814c0.747,0 1.121,-0.573 1.121,-1.719c0,-0.525 -0.099,-0.939 -0.297,-1.244c-0.198,-0.305 -0.47,-0.457 -0.816,-0.457c-0.343,0 -0.613,0.152 -0.811,0.457c-0.198,0.305 -0.297,0.722 -0.297,1.253c0,0.525 0.099,0.941 0.295,1.249c0.196,0.308 0.465,0.461 0.805,0.461Z" style="fill:white;fill-rule:nonzero;"/>
        <path d="M33.868,0l-1.341,-4.828l1.209,0l0.95,3.381l1.011,-3.381l1.126,0l0.91,3.399l1.025,-3.399l0.905,0l-1.433,4.828l-1.249,0l-0.879,-3.311l-0.985,3.311l-1.249,0Z" style="fill:white;fill-rule:nonzero;"/>
        <path d="M44.023,1.737l0,-6.565l1.301,0l0,0.91c0.335,-0.68 0.861,-1.02 1.579,-1.02c0.58,0 1.037,0.213 1.37,0.638c0.332,0.425 0.499,1.01 0.499,1.754c0,0.809 -0.188,1.454 -0.563,1.935c-0.375,0.481 -0.878,0.721 -1.508,0.721c-0.507,0 -0.966,-0.199 -1.377,-0.598l0,2.225l-1.301,0Zm1.301,-2.999c0.317,0.352 0.654,0.528 1.012,0.528c0.319,0 0.574,-0.155 0.765,-0.464c0.19,-0.309 0.286,-0.722 0.286,-1.238c0,-0.988 -0.318,-1.482 -0.955,-1.482c-0.384,0 -0.753,0.248 -1.108,0.743l0,1.913Z" style="fill:white;fill-rule:nonzero;"/>
        <path d="M52.355,-0.519c-0.434,0.419 -0.898,0.629 -1.394,0.629c-0.422,0 -0.765,-0.129 -1.029,-0.387c-0.263,-0.258 -0.395,-0.592 -0.395,-1.003c0,-0.533 0.213,-0.944 0.64,-1.233c0.426,-0.289 1.037,-0.433 1.831,-0.433l0.347,0l0,-0.44c0,-0.501 -0.286,-0.752 -0.857,-0.752c-0.507,0 -1.02,0.144 -1.539,0.431l0,-0.897c0.589,-0.223 1.172,-0.334 1.75,-0.334c1.263,0 1.895,0.503 1.895,1.508l0,2.137c0,0.378 0.122,0.567 0.365,0.567c0.044,0 0.101,-0.005 0.172,-0.017l0.03,0.73c-0.275,0.082 -0.519,0.123 -0.73,0.123c-0.533,0 -0.876,-0.21 -1.029,-0.629l-0.057,0Zm0,-0.699l0,-0.981l-0.308,0c-0.841,0 -1.261,0.264 -1.261,0.792c0,0.179 0.06,0.329 0.182,0.451c0.122,0.121 0.272,0.182 0.451,0.182c0.305,0 0.617,-0.148 0.936,-0.444Z" style="fill:white;fill-rule:nonzero;"/>
        <path d="M55.156,-0.154l0,-0.954c0.645,0.27 1.196,0.404 1.654,0.404c0.533,0 0.8,-0.181 0.8,-0.545c0,-0.234 -0.22,-0.439 -0.66,-0.615l-0.439,-0.176c-0.478,-0.194 -0.82,-0.402 -1.025,-0.625c-0.205,-0.222 -0.308,-0.498 -0.308,-0.826c0,-0.458 0.175,-0.813 0.523,-1.067c0.349,-0.253 0.837,-0.38 1.465,-0.38c0.392,0 0.86,0.057 1.402,0.172l0,0.914c-0.521,-0.182 -0.954,-0.272 -1.297,-0.272c-0.539,0 -0.809,0.167 -0.809,0.501c0,0.22 0.199,0.406 0.598,0.558l0.378,0.145c0.566,0.214 0.96,0.431 1.181,0.651c0.221,0.22 0.332,0.503 0.332,0.849c0,0.454 -0.188,0.823 -0.565,1.106c-0.377,0.282 -0.867,0.424 -1.471,0.424c-0.58,0 -1.167,-0.088 -1.759,-0.264Z" style="fill:white;fill-rule:nonzero;"/>
        <path d="M60.248,-0.154l0,-0.954c0.645,0.27 1.196,0.404 1.653,0.404c0.534,0 0.801,-0.181 0.801,-0.545c0,-0.234 -0.22,-0.439 -0.66,-0.615l-0.44,-0.176c-0.477,-0.194 -0.819,-0.402 -1.024,-0.625c-0.205,-0.222 -0.308,-0.498 -0.308,-0.826c0,-0.458 0.174,-0.813 0.523,-1.067c0.349,-0.253 0.837,-0.38 1.465,-0.38c0.392,0 0.86,0.057 1.402,0.172l0,0.914c-0.522,-0.182 -0.954,-0.272 -1.297,-0.272c-0.539,0 -0.809,0.167 -0.809,0.501c0,0.22 0.199,0.406 0.598,0.558l0.378,0.145c0.566,0.214 0.959,0.431 1.181,0.651c0.221,0.22 0.332,0.503 0.332,0.849c0,0.454 -0.189,0.823 -0.565,1.106c-0.377,0.282 -0.867,0.424 -1.471,0.424c-0.581,0 -1.167,-0.088 -1.759,-0.264Z" style="fill:white;fill-rule:nonzero;"/>
        <path d="M68.471,1.499l0.105,-0.945c0.537,0.246 1.048,0.369 1.535,0.369c0.48,0 0.828,-0.102 1.042,-0.307c0.214,-0.206 0.321,-0.538 0.321,-0.999l0,-0.659c-0.317,0.695 -0.84,1.042 -1.57,1.042c-0.575,0 -1.03,-0.215 -1.367,-0.644c-0.338,-0.43 -0.506,-1.011 -0.506,-1.744c0,-0.771 0.189,-1.388 0.567,-1.853c0.378,-0.465 0.881,-0.697 1.508,-0.697c0.493,0 0.949,0.199 1.368,0.598l0.136,-0.488l1.17,0l0,3.685c0,0.736 -0.045,1.266 -0.134,1.592c-0.09,0.325 -0.263,0.602 -0.521,0.831c-0.434,0.375 -1.045,0.562 -1.834,0.562c-0.56,0 -1.167,-0.114 -1.82,-0.343Zm3.003,-3.297l0,-1.781c-0.314,-0.355 -0.642,-0.532 -0.985,-0.532c-0.328,0 -0.589,0.149 -0.783,0.448c-0.193,0.299 -0.29,0.701 -0.29,1.205c0,0.944 0.303,1.416 0.91,1.416c0.419,0 0.802,-0.252 1.148,-0.756Z" style="fill:white;fill-rule:nonzero;"/>
        <path d="M76.741,-0.519c-0.433,0.419 -0.898,0.629 -1.393,0.629c-0.423,0 -0.765,-0.129 -1.029,-0.387c-0.264,-0.258 -0.396,-0.592 -0.396,-1.003c0,-0.533 0.213,-0.944 0.64,-1.233c0.426,-0.289 1.037,-0.433 1.831,-0.433l0.347,0l0,-0.44c0,-0.501 -0.285,-0.752 -0.857,-0.752c-0.507,0 -1.02,0.144 -1.539,0.431l0,-0.897c0.589,-0.223 1.173,-0.334 1.75,-0.334c1.264,0 1.895,0.503 1.895,1.508l0,2.137c0,0.378 0.122,0.567 0.365,0.567c0.044,0 0.101,-0.005 0.172,-0.017l0.03,0.73c-0.275,0.082 -0.518,0.123 -0.729,0.123c-0.534,0 -0.877,-0.21 -1.029,-0.629l-0.058,0Zm0,-0.699l0,-0.981l-0.307,0c-0.842,0 -1.262,0.264 -1.262,0.792c0,0.179 0.061,0.329 0.182,0.451c0.122,0.121 0.272,0.182 0.451,0.182c0.305,0 0.617,-0.148 0.936,-0.444Z" style="fill:white;fill-rule:nonzero;"/>
        <path d="M82.159,-0.026c-0.311,0.09 -0.556,0.136 -0.735,0.136c-1.128,0 -1.693,-0.528 -1.693,-1.583l0,-2.542l-0.54,0l0,-0.813l0.54,0l0,-0.813l1.302,-0.15l0,0.963l1.033,0l0,0.813l-1.033,0l0,2.37c0,0.593 0.242,0.889 0.726,0.889c0.111,0 0.244,-0.021 0.4,-0.062l0,0.792Z" style="fill:white;fill-rule:nonzero;"/>
        <path d="M87.25,-0.163c-0.618,0.182 -1.204,0.273 -1.758,0.273c-0.806,0 -1.443,-0.229 -1.909,-0.686c-0.466,-0.457 -0.699,-1.082 -0.699,-1.873c0,-0.748 0.213,-1.349 0.64,-1.805c0.426,-0.456 0.99,-0.684 1.691,-0.684c0.706,0 1.222,0.223 1.547,0.668c0.326,0.446 0.488,1.151 0.488,2.115l-2.994,0c0.088,0.921 0.594,1.381 1.517,1.381c0.437,0 0.929,-0.101 1.477,-0.303l0,0.914Zm-3.012,-2.726l1.733,0c0,-0.824 -0.265,-1.235 -0.796,-1.235c-0.539,0 -0.852,0.411 -0.937,1.235Z" style="fill:white;fill-rule:nonzero;"/>
        <path d="M88.579,1.302l2.343,-7.81l0.792,0l-2.344,7.81l-0.791,0Z" style="fill:white;fill-rule:nonzero;"/>
        <path d="M93.644,0l0,-4.015l-0.664,0l0,-0.813l0.664,0l0,-0.334c0,-0.607 0.144,-1.074 0.433,-1.401c0.289,-0.326 0.7,-0.49 1.234,-0.49c0.328,0 0.677,0.06 1.046,0.18l0,0.889c-0.363,-0.162 -0.633,-0.242 -0.809,-0.242c-0.402,0 -0.602,0.366 -0.602,1.099l0,0.299l3.038,0l0,4.828l-1.302,0l0,-4.015l-1.736,0l0,4.015l-1.302,0Zm3.254,-5.641l0,-1.087l1.086,0l0,1.087l-1.086,0Zm-0.73,0.813" style="fill:white;fill-rule:nonzero;"/>
        <rect x="99.611" y="-6.943" width="1.302" height="6.943" style="fill:white;fill-rule:nonzero;"/>
        <path d="M105.028,-0.026c-0.311,0.09 -0.555,0.136 -0.734,0.136c-1.129,0 -1.693,-0.528 -1.693,-1.583l0,-2.542l-0.541,0l0,-0.813l0.541,0l0,-0.813l1.301,-0.15l0,0.963l1.034,0l0,0.813l-1.034,0l0,2.37c0,0.593 0.242,0.889 0.726,0.889c0.111,0 0.245,-0.021 0.4,-0.062l0,0.792Z" style="fill:white;fill-rule:nonzero;"/>
        <path d="M110.12,-0.163c-0.619,0.182 -1.205,0.273 -1.759,0.273c-0.806,0 -1.442,-0.229 -1.908,-0.686c-0.466,-0.457 -0.699,-1.082 -0.699,-1.873c0,-0.748 0.213,-1.349 0.639,-1.805c0.427,-0.456 0.99,-0.684 1.691,-0.684c0.706,0 1.222,0.223 1.548,0.668c0.325,0.446 0.488,1.151 0.488,2.115l-2.995,0c0.088,0.921 0.594,1.381 1.517,1.381c0.437,0 0.93,-0.101 1.478,-0.303l0,0.914Zm-3.012,-2.726l1.732,0c0,-0.824 -0.265,-1.235 -0.796,-1.235c-0.539,0 -0.851,0.411 -0.936,1.235Z" style="fill:white;fill-rule:nonzero;"/>
        <path d="M111.465,0l0,-4.828l1.302,0l0,0.91c0.337,-0.68 0.85,-1.02 1.539,-1.02c0.082,0 0.163,0.009 0.242,0.026l0,1.161c-0.185,-0.067 -0.356,-0.101 -0.515,-0.101c-0.519,0 -0.941,0.263 -1.266,0.787l0,3.065l-1.302,0Z" style="fill:white;fill-rule:nonzero;"/>
      </g>
    </g>
    <g id="text9293-42" serif:id="text9293-4">
      <path d="M63.522,193.206c-0.362,-0.443 -0.811,-0.665 -1.344,-0.665c-0.235,0 -0.452,0.043 -0.652,0.128c-0.201,0.086 -0.373,0.202 -0.517,0.349c-0.144,0.146 -0.257,0.321 -0.34,0.524c-0.083,0.203 -0.124,0.421 -0.124,0.656c0,0.24 0.041,0.462 0.124,0.664c0.083,0.203 0.198,0.379 0.344,0.529c0.147,0.149 0.319,0.266 0.517,0.352c0.197,0.085 0.41,0.128 0.64,0.128c0.501,0 0.952,-0.214 1.352,-0.64l0,1.856l-0.16,0.056c-0.24,0.086 -0.464,0.148 -0.672,0.188c-0.208,0.04 -0.414,0.06 -0.616,0.06c-0.416,0 -0.815,-0.078 -1.197,-0.236c-0.381,-0.157 -0.717,-0.378 -1.008,-0.664c-0.291,-0.285 -0.524,-0.624 -0.7,-1.016c-0.177,-0.393 -0.265,-0.821 -0.265,-1.285c0,-0.464 0.087,-0.89 0.261,-1.276c0.173,-0.387 0.405,-0.721 0.696,-1.001c0.291,-0.28 0.628,-0.499 1.012,-0.656c0.384,-0.158 0.787,-0.236 1.209,-0.236c0.24,0 0.476,0.025 0.708,0.076c0.232,0.051 0.476,0.129 0.732,0.236l0,1.873Z" style="fill:white;fill-rule:nonzero;"/>
      <path d="M66.083,191.189l0,3.281c0,0.176 0.007,0.356 0.02,0.54c0.014,0.185 0.054,0.351 0.12,0.501c0.067,0.149 0.173,0.27 0.317,0.364c0.144,0.093 0.346,0.14 0.608,0.14c0.261,0 0.463,-0.047 0.604,-0.14c0.141,-0.094 0.247,-0.215 0.316,-0.364c0.07,-0.15 0.111,-0.316 0.124,-0.501c0.014,-0.184 0.02,-0.364 0.02,-0.54l0,-3.281l1.561,0l0,3.497c0,0.939 -0.215,1.625 -0.644,2.057c-0.43,0.432 -1.09,0.648 -1.981,0.648c-0.891,0 -1.553,-0.216 -1.985,-0.648c-0.432,-0.432 -0.648,-1.118 -0.648,-2.057l0,-3.497l1.568,0Z" style="fill:white;fill-rule:nonzero;"/>
      <path d="M73.326,192.517l0,4.706l-1.568,0l0,-4.706l-1.289,0l0,-1.328l4.146,0l0,1.328l-1.289,0Z" style="fill:white;fill-rule:nonzero;"/>
      <path d="M76.624,194.206c0,0.24 0.045,0.462 0.136,0.664c0.091,0.203 0.213,0.379 0.368,0.529c0.155,0.149 0.335,0.265 0.54,0.348c0.206,0.082 0.423,0.124 0.652,0.124c0.23,0 0.447,-0.042 0.653,-0.124c0.205,-0.083 0.387,-0.199 0.544,-0.348c0.157,-0.15 0.281,-0.326 0.372,-0.529c0.091,-0.202 0.136,-0.424 0.136,-0.664c0,-0.24 -0.045,-0.461 -0.136,-0.664c-0.091,-0.203 -0.215,-0.379 -0.372,-0.528c-0.157,-0.15 -0.339,-0.266 -0.544,-0.349c-0.206,-0.082 -0.423,-0.124 -0.653,-0.124c-0.229,0 -0.446,0.042 -0.652,0.124c-0.205,0.083 -0.385,0.199 -0.54,0.349c-0.155,0.149 -0.277,0.325 -0.368,0.528c-0.091,0.203 -0.136,0.424 -0.136,0.664Zm-1.641,0c0,-0.448 0.083,-0.866 0.248,-1.252c0.166,-0.387 0.395,-0.725 0.688,-1.013c0.294,-0.288 0.645,-0.513 1.053,-0.676c0.408,-0.163 0.858,-0.244 1.348,-0.244c0.486,0 0.934,0.081 1.345,0.244c0.411,0.163 0.764,0.388 1.06,0.676c0.297,0.288 0.527,0.626 0.693,1.013c0.165,0.386 0.248,0.804 0.248,1.252c0,0.448 -0.083,0.866 -0.248,1.253c-0.166,0.386 -0.396,0.724 -0.693,1.012c-0.296,0.288 -0.649,0.514 -1.06,0.676c-0.411,0.163 -0.859,0.244 -1.345,0.244c-0.49,0 -0.94,-0.081 -1.348,-0.244c-0.408,-0.162 -0.759,-0.388 -1.053,-0.676c-0.293,-0.288 -0.522,-0.626 -0.688,-1.012c-0.165,-0.387 -0.248,-0.805 -0.248,-1.253Z" style="fill:white;fill-rule:nonzero;"/>
      <path d="M86.116,192.517l-1.889,0l0,1.009l1.721,0l0,1.328l-1.721,0l0,2.369l-1.569,0l0,-6.034l3.458,0l0,1.328Z" style="fill:white;fill-rule:nonzero;"/>
      <path d="M90.51,192.517l-1.889,0l0,1.009l1.72,0l0,1.328l-1.72,0l0,2.369l-1.569,0l0,-6.034l3.458,0l0,1.328Z" style="fill:white;fill-rule:nonzero;"/>
    </g>
    <path d="M27.718,281.2c0,0.18 0.034,0.346 0.102,0.498c0.068,0.152 0.16,0.284 0.276,0.396c0.116,0.112 0.251,0.199 0.405,0.261c0.154,0.062 0.317,0.093 0.489,0.093c0.172,0 0.335,-0.031 0.489,-0.093c0.154,-0.062 0.29,-0.149 0.408,-0.261c0.118,-0.112 0.211,-0.244 0.279,-0.396c0.068,-0.152 0.102,-0.318 0.102,-0.498c0,-0.18 -0.034,-0.346 -0.102,-0.498c-0.068,-0.152 -0.161,-0.284 -0.279,-0.396c-0.118,-0.112 -0.254,-0.199 -0.408,-0.261c-0.154,-0.062 -0.317,-0.093 -0.489,-0.093c-0.172,0 -0.335,0.031 -0.489,0.093c-0.154,0.062 -0.289,0.149 -0.405,0.261c-0.116,0.112 -0.208,0.244 -0.276,0.396c-0.068,0.152 -0.102,0.318 -0.102,0.498Zm-1.23,0c0,-0.336 0.062,-0.649 0.186,-0.939c0.124,-0.29 0.296,-0.543 0.516,-0.759c0.22,-0.216 0.483,-0.385 0.789,-0.507c0.306,-0.122 0.643,-0.183 1.011,-0.183c0.364,0 0.7,0.061 1.008,0.183c0.308,0.122 0.573,0.291 0.795,0.507c0.222,0.216 0.395,0.469 0.519,0.759c0.124,0.29 0.186,0.603 0.186,0.939c0,0.336 -0.062,0.649 -0.186,0.939c-0.124,0.29 -0.297,0.543 -0.519,0.759c-0.222,0.216 -0.487,0.385 -0.795,0.507c-0.308,0.122 -0.644,0.183 -1.008,0.183c-0.368,0 -0.705,-0.061 -1.011,-0.183c-0.306,-0.122 -0.569,-0.291 -0.789,-0.507c-0.22,-0.216 -0.392,-0.469 -0.516,-0.759c-0.124,-0.29 -0.186,-0.603 -0.186,-0.939Z" style="fill:white;fill-rule:nonzero;"/>
    <path d="M32.242,283.462l0,-4.524l1.176,0l2.172,2.766l0,-2.766l1.17,0l0,4.524l-1.17,0l-2.172,-2.766l0,2.766l-1.176,0Z" style="fill:white;fill-rule:nonzero;"/>
    <path d="M27.718,293.2c0,0.18 0.034,0.346 0.102,0.498c0.068,0.152 0.16,0.284 0.276,0.396c0.116,0.112 0.251,0.199 0.405,0.261c0.154,0.062 0.317,0.093 0.489,0.093c0.172,0 0.335,-0.031 0.489,-0.093c0.154,-0.062 0.29,-0.149 0.408,-0.261c0.118,-0.112 0.211,-0.244 0.279,-0.396c0.068,-0.152 0.102,-0.318 0.102,-0.498c0,-0.18 -0.034,-0.346 -0.102,-0.498c-0.068,-0.152 -0.161,-0.284 -0.279,-0.396c-0.118,-0.112 -0.254,-0.199 -0.408,-0.261c-0.154,-0.062 -0.317,-0.093 -0.489,-0.093c-0.172,0 -0.335,0.031 -0.489,0.093c-0.154,0.062 -0.289,0.149 -0.405,0.261c-0.116,0.112 -0.208,0.244 -0.276,0.396c-0.068,0.152 -0.102,0.318 -0.102,0.498Zm-1.23,0c0,-0.336 0.062,-0.649 0.186,-0.939c0.124,-0.29 0.296,-0.543 0.516,-0.759c0.22,-0.216 0.483,-0.385 0.789,-0.507c0.306,-0.122 0.643,-0.183 1.011,-0.183c0.364,0 0.7,0.061 1.008,0.183c0.308,0.122 0.573,0.291 0.795,0.507c0.222,0.216 0.395,0.469 0.519,0.759c0.124,0.29 0.186,0.603 0.186,0.939c0,0.336 -0.062,0.649 -0.186,0.939c-0.124,0.29 -0.297,0.543 -0.519,0.759c-0.222,0.216 -0.487,0.385 -0.795,0.507c-0.308,0.122 -0.644,0.183 -1.008,0.183c-0.368,0 -0.705,-0.061 -1.011,-0.183c-0.306,-0.122 -0.569,-0.291 -0.789,-0.507c-0.22,-0.216 -0.392,-0.469 -0.516,-0.759c-0.124,-0.29 -0.186,-0.603 -0.186,-0.939Z" style="fill:white;fill-rule:nonzero;"/>
    <path d="M34.834,291.934l-1.416,0l0,0.756l1.29,0l0,0.996l-1.29,0l0,1.776l-1.176,0l0,-4.524l2.592,0l0,0.996Z" style="fill:white;fill-rule:nonzero;"/>
    <path d="M38.128,291.934l-1.416,0l0,0.756l1.29,0l0,0.996l-1.29,0l0,1.776l-1.176,0l0,-4.524l2.592,0l0,0.996Z" style="fill:white;fill-rule:nonzero;"/>
    <path d="M12.168,303.137l1.092,2.754l1.098,-2.754l1.278,0l-1.908,4.524l-0.936,0l-1.902,-4.524l1.278,0Z" style="fill:rgb(128,128,128);fill-rule:nonzero;"/>
    <path d="M18.21,305.981l-0.528,-1.506l-0.528,1.506l1.056,0Zm0.312,0.894l-1.68,0l-0.27,0.786l-1.254,0l1.722,-4.524l1.284,0l1.722,4.524l-1.254,0l-0.27,-0.786Z" style="fill:rgb(128,128,128);fill-rule:nonzero;"/>
    <path d="M23.652,304.649c-0.272,-0.332 -0.608,-0.498 -1.008,-0.498c-0.176,0 -0.339,0.032 -0.489,0.096c-0.15,0.064 -0.279,0.151 -0.387,0.261c-0.108,0.11 -0.193,0.241 -0.255,0.393c-0.062,0.152 -0.093,0.316 -0.093,0.492c0,0.18 0.031,0.346 0.093,0.498c0.062,0.152 0.148,0.284 0.258,0.396c0.11,0.112 0.239,0.2 0.387,0.264c0.148,0.064 0.308,0.096 0.48,0.096c0.376,0 0.714,-0.16 1.014,-0.48l0,1.392l-0.12,0.042c-0.18,0.064 -0.348,0.111 -0.504,0.141c-0.156,0.03 -0.31,0.045 -0.462,0.045c-0.312,0 -0.611,-0.059 -0.897,-0.177c-0.286,-0.118 -0.538,-0.284 -0.756,-0.498c-0.218,-0.214 -0.393,-0.468 -0.525,-0.762c-0.132,-0.294 -0.198,-0.615 -0.198,-0.963c0,-0.348 0.065,-0.667 0.195,-0.957c0.13,-0.29 0.304,-0.54 0.522,-0.75c0.218,-0.21 0.471,-0.374 0.759,-0.492c0.288,-0.118 0.59,-0.177 0.906,-0.177c0.18,0 0.357,0.019 0.531,0.057c0.174,0.038 0.357,0.097 0.549,0.177l0,1.404Z" style="fill:rgb(128,128,128);fill-rule:nonzero;"/>
    <path d="M26.112,304.133l0,3.528l-1.176,0l0,-3.528l-0.966,0l0,-0.996l3.108,0l0,0.996l-0.966,0Z" style="fill:rgb(128,128,128);fill-rule:nonzero;"/>
    <path d="M28.776,305.159l0.222,0c0.232,0 0.41,-0.048 0.534,-0.144c0.124,-0.096 0.186,-0.234 0.186,-0.414c0,-0.18 -0.062,-0.318 -0.186,-0.414c-0.124,-0.096 -0.302,-0.144 -0.534,-0.144l-0.222,0l0,1.116Zm2.586,2.502l-1.464,0l-1.122,-1.74l0,1.74l-1.176,0l0,-4.524l1.83,0c0.252,0 0.472,0.037 0.66,0.111c0.188,0.074 0.343,0.175 0.465,0.303c0.122,0.128 0.214,0.276 0.276,0.444c0.062,0.168 0.093,0.348 0.093,0.54c0,0.344 -0.083,0.623 -0.249,0.837c-0.166,0.214 -0.411,0.359 -0.735,0.435l1.422,1.854Z" style="fill:rgb(128,128,128);fill-rule:nonzero;"/>
    <path d="M32.796,305.399c0,0.18 0.034,0.346 0.102,0.498c0.068,0.152 0.16,0.284 0.276,0.396c0.116,0.112 0.251,0.199 0.405,0.261c0.154,0.062 0.317,0.093 0.489,0.093c0.172,0 0.335,-0.031 0.489,-0.093c0.154,-0.062 0.29,-0.149 0.408,-0.261c0.118,-0.112 0.211,-0.244 0.279,-0.396c0.068,-0.152 0.102,-0.318 0.102,-0.498c0,-0.18 -0.034,-0.346 -0.102,-0.498c-0.068,-0.152 -0.161,-0.284 -0.279,-0.396c-0.118,-0.112 -0.254,-0.199 -0.408,-0.261c-0.154,-0.062 -0.317,-0.093 -0.489,-0.093c-0.172,0 -0.335,0.031 -0.489,0.093c-0.154,0.062 -0.289,0.149 -0.405,0.261c-0.116,0.112 -0.208,0.244 -0.276,0.396c-0.068,0.152 -0.102,0.318 -0.102,0.498Zm-1.23,0c0,-0.336 0.062,-0.649 0.186,-0.939c0.124,-0.29 0.296,-0.543 0.516,-0.759c0.22,-0.216 0.483,-0.385 0.789,-0.507c0.306,-0.122 0.643,-0.183 1.011,-0.183c0.364,0 0.7,0.061 1.008,0.183c0.308,0.122 0.573,0.291 0.795,0.507c0.222,0.216 0.395,0.469 0.519,0.759c0.124,0.29 0.186,0.603 0.186,0.939c0,0.336 -0.062,0.649 -0.186,0.939c-0.124,0.29 -0.297,0.543 -0.519,0.759c-0.222,0.216 -0.487,0.385 -0.795,0.507c-0.308,0.122 -0.644,0.183 -1.008,0.183c-0.368,0 -0.705,-0.061 -1.011,-0.183c-0.306,-0.122 -0.569,-0.291 -0.789,-0.507c-0.22,-0.216 -0.392,-0.469 -0.516,-0.759c-0.124,-0.29 -0.186,-0.603 -0.186,-0.939Z" style="fill:rgb(128,128,128);fill-rule:nonzero;"/>
    <path d="M38.496,303.137l0,3.528l1.41,0l0,0.996l-2.586,0l0,-4.524l1.176,0Z" style="fill:rgb(128,128,128);fill-rule:nonzero;"/>
    <path d="M79.973,281.2c0,0.18 0.034,0.346 0.102,0.498c0.068,0.152 0.16,0.284 0.276,0.396c0.116,0.112 0.251,0.199 0.405,0.261c0.154,0.062 0.317,0.093 0.489,0.093c0.172,0 0.335,-0.031 0.489,-0.093c0.154,-0.062 0.29,-0.149 0.408,-0.261c0.118,-0.112 0.211,-0.244 0.279,-0.396c0.068,-0.152 0.102,-0.318 0.102,-0.498c0,-0.18 -0.034,-0.346 -0.102,-0.498c-0.068,-0.152 -0.161,-0.284 -0.279,-0.396c-0.118,-0.112 -0.254,-0.199 -0.408,-0.261c-0.154,-0.062 -0.317,-0.093 -0.489,-0.093c-0.172,0 -0.335,0.031 -0.489,0.093c-0.154,0.062 -0.289,0.149 -0.405,0.261c-0.116,0.112 -0.208,0.244 -0.276,0.396c-0.068,0.152 -0.102,0.318 -0.102,0.498Zm-1.23,0c0,-0.336 0.062,-0.649 0.186,-0.939c0.124,-0.29 0.296,-0.543 0.516,-0.759c0.22,-0.216 0.483,-0.385 0.789,-0.507c0.306,-0.122 0.643,-0.183 1.011,-0.183c0.364,0 0.7,0.061 1.008,0.183c0.308,0.122 0.573,0.291 0.795,0.507c0.222,0.216 0.395,0.469 0.519,0.759c0.124,0.29 0.186,0.603 0.186,0.939c0,0.336 -0.062,0.649 -0.186,0.939c-0.124,0.29 -0.297,0.543 -0.519,0.759c-0.222,0.216 -0.487,0.385 -0.795,0.507c-0.308,0.122 -0.644,0.183 -1.008,0.183c-0.368,0 -0.705,-0.061 -1.011,-0.183c-0.306,-0.122 -0.569,-0.291 -0.789,-0.507c-0.22,-0.216 -0.392,-0.469 -0.516,-0.759c-0.124,-0.29 -0.186,-0.603 -0.186,-0.939Z" style="fill:white;fill-rule:nonzero;"/>
    <path d="M84.497,283.462l0,-4.524l1.176,0l2.172,2.766l0,-2.766l1.17,0l0,4.524l-1.17,0l-2.172,-2.766l0,2.766l-1.176,0Z" style="fill:white;fill-rule:nonzero;"/>
    <path d="M79.973,293.2c0,0.18 0.034,0.346 0.102,0.498c0.068,0.152 0.16,0.284 0.276,0.396c0.116,0.112 0.251,0.199 0.405,0.261c0.154,0.062 0.317,0.093 0.489,0.093c0.172,0 0.335,-0.031 0.489,-0.093c0.154,-0.062 0.29,-0.149 0.408,-0.261c0.118,-0.112 0.211,-0.244 0.279,-0.396c0.068,-0.152 0.102,-0.318 0.102,-0.498c0,-0.18 -0.034,-0.346 -0.102,-0.498c-0.068,-0.152 -0.161,-0.284 -0.279,-0.396c-0.118,-0.112 -0.254,-0.199 -0.408,-0.261c-0.154,-0.062 -0.317,-0.093 -0.489,-0.093c-0.172,0 -0.335,0.031 -0.489,0.093c-0.154,0.062 -0.289,0.149 -0.405,0.261c-0.116,0.112 -0.208,0.244 -0.276,0.396c-0.068,0.152 -0.102,0.318 -0.102,0.498Zm-1.23,0c0,-0.336 0.062,-0.649 0.186,-0.939c0.124,-0.29 0.296,-0.543 0.516,-0.759c0.22,-0.216 0.483,-0.385 0.789,-0.507c0.306,-0.122 0.643,-0.183 1.011,-0.183c0.364,0 0.7,0.061 1.008,0.183c0.308,0.122 0.573,0.291 0.795,0.507c0.222,0.216 0.395,0.469 0.519,0.759c0.124,0.29 0.186,0.603 0.186,0.939c0,0.336 -0.062,0.649 -0.186,0.939c-0.124,0.29 -0.297,0.543 -0.519,0.759c-0.222,0.216 -0.487,0.385 -0.795,0.507c-0.308,0.122 -0.644,0.183 -1.008,0.183c-0.368,0 -0.705,-0.061 -1.011,-0.183c-0.306,-0.122 -0.569,-0.291 -0.789,-0.507c-0.22,-0.216 -0.392,-0.469 -0.516,-0.759c-0.124,-0.29 -0.186,-0.603 -0.186,-0.939Z" style="fill:white;fill-rule:nonzero;"/>
    <path d="M87.089,291.934l-1.416,0l0,0.756l1.29,0l0,0.996l-1.29,0l0,1.776l-1.176,0l0,-4.524l2.592,0l0,0.996Z" style="fill:white;fill-rule:nonzero;"/>
    <path d="M90.383,291.934l-1.416,0l0,0.756l1.29,0l0,0.996l-1.29,0l0,1.776l-1.176,0l0,-4.524l2.592,0l0,0.996Z" style="fill:white;fill-rule:nonzero;"/>
    <path d="M64.424,303.137l1.092,2.754l1.098,-2.754l1.278,0l-1.908,4.524l-0.936,0l-1.902,-4.524l1.278,0Z" style="fill:rgb(128,128,128);fill-rule:nonzero;"/>
    <path d="M71.408,304.649c-0.272,-0.332 -0.608,-0.498 -1.008,-0.498c-0.176,0 -0.339,0.032 -0.489,0.096c-0.15,0.064 -0.279,0.151 -0.387,0.261c-0.108,0.11 -0.193,0.241 -0.255,0.393c-0.062,0.152 -0.093,0.316 -0.093,0.492c0,0.18 0.031,0.346 0.093,0.498c0.062,0.152 0.148,0.284 0.258,0.396c0.11,0.112 0.239,0.2 0.387,0.264c0.148,0.064 0.308,0.096 0.48,0.096c0.376,0 0.714,-0.16 1.014,-0.48l0,1.392l-0.12,0.042c-0.18,0.064 -0.348,0.111 -0.504,0.141c-0.156,0.03 -0.31,0.045 -0.462,0.045c-0.312,0 -0.611,-0.059 -0.897,-0.177c-0.286,-0.118 -0.538,-0.284 -0.756,-0.498c-0.218,-0.214 -0.393,-0.468 -0.525,-0.762c-0.132,-0.294 -0.198,-0.615 -0.198,-0.963c0,-0.348 0.065,-0.667 0.195,-0.957c0.13,-0.29 0.304,-0.54 0.522,-0.75c0.218,-0.21 0.471,-0.374 0.759,-0.492c0.288,-0.118 0.59,-0.177 0.906,-0.177c0.18,0 0.357,0.019 0.531,0.057c0.174,0.038 0.357,0.097 0.549,0.177l0,1.404Z" style="fill:rgb(128,128,128);fill-rule:nonzero;"/>
    <path d="M74.72,305.981l-0.528,-1.506l-0.528,1.506l1.056,0Zm0.312,0.894l-1.68,0l-0.27,0.786l-1.254,0l1.722,-4.524l1.284,0l1.722,4.524l-1.254,0l-0.27,-0.786Z" style="fill:rgb(128,128,128);fill-rule:nonzero;"/>
    <path id="path7711" d="M143.249,319.674c0,-3.321 -2.697,-6.018 -6.018,-6.018l-47.146,0c-3.321,0 -6.018,2.697 -6.018,6.018l0,31.59c0,3.322 2.697,6.019 6.018,6.019l47.146,0c3.321,0 6.018,-2.697 6.018,-6.019l0,-31.59Z" style="stroke:rgb(65,76,85);stroke-width:1px;stroke-linejoin:miter;stroke-miterlimit:1.41421;"/>
    <rect id="rect7715" x="25.395" y="349.575" width="1.569" height="6.035" style="fill:white;"/>
    <path id="path7717" d="M28.228,355.61l0,-6.035l1.568,0l2.898,3.69l0,-3.69l1.56,0l0,6.035l-1.56,0l-2.898,-3.69l0,3.69l-1.568,0Z" style="fill:white;fill-rule:nonzero;"/>
    <path id="path7719" d="M37.087,352.344l0.521,0c0.576,0 0.864,-0.252 0.864,-0.752c0,-0.5 -0.288,-0.752 -0.864,-0.752l-0.521,0l0,1.504Zm0,3.266l-1.568,0l0,-6.035l2.497,0c0.676,0 1.196,0.176 1.556,0.529c0.361,0.352 0.541,0.848 0.541,1.488c0,0.64 -0.18,1.137 -0.541,1.489c-0.36,0.352 -0.88,0.528 -1.556,0.528l-0.929,0l0,2.001Z" style="fill:white;fill-rule:nonzero;"/>
    <path id="path7721" d="M42.514,349.575l0,3.282c0,0.176 0.008,0.356 0.02,0.54c0.012,0.184 0.052,0.352 0.12,0.5c0.068,0.148 0.172,0.272 0.316,0.364c0.144,0.092 0.348,0.14 0.608,0.14c0.26,0 0.464,-0.048 0.604,-0.14c0.14,-0.092 0.248,-0.216 0.316,-0.364c0.069,-0.148 0.113,-0.316 0.125,-0.5c0.012,-0.184 0.02,-0.364 0.02,-0.54l0,-3.282l1.56,0l0,3.498c0,0.94 -0.216,1.624 -0.644,2.057c-0.428,0.432 -1.089,0.648 -1.981,0.648c-0.892,0 -1.553,-0.216 -1.985,-0.648c-0.432,-0.433 -0.648,-1.117 -0.648,-2.057l0,-3.498l1.569,0Z" style="fill:white;fill-rule:nonzero;"/>
    <path id="path7723" d="M49.757,350.904l0,4.706l-1.569,0l0,-4.706l-1.289,0l0,-1.329l4.146,0l0,1.329l-1.288,0Z" style="fill:white;fill-rule:nonzero;"/>
    <path id="path7728" d="M98.235,352.593c0,0.24 0.044,0.464 0.136,0.664c0.088,0.204 0.212,0.38 0.368,0.528c0.152,0.152 0.332,0.264 0.54,0.348c0.204,0.084 0.42,0.124 0.653,0.124c0.228,0 0.444,-0.04 0.652,-0.124c0.204,-0.084 0.384,-0.196 0.54,-0.348c0.16,-0.148 0.284,-0.324 0.372,-0.528c0.092,-0.2 0.136,-0.424 0.136,-0.664c0,-0.241 -0.044,-0.461 -0.136,-0.665c-0.088,-0.2 -0.212,-0.376 -0.372,-0.528c-0.156,-0.148 -0.336,-0.264 -0.54,-0.348c-0.208,-0.08 -0.424,-0.124 -0.652,-0.124c-0.233,0 -0.449,0.044 -0.653,0.124c-0.208,0.084 -0.388,0.2 -0.54,0.348c-0.156,0.152 -0.28,0.328 -0.368,0.528c-0.092,0.204 -0.136,0.424 -0.136,0.665Zm-1.641,0c0,-0.449 0.084,-0.865 0.248,-1.253c0.164,-0.384 0.396,-0.72 0.689,-1.008c0.292,-0.289 0.644,-0.517 1.052,-0.677c0.408,-0.164 0.856,-0.244 1.349,-0.244c0.484,0 0.932,0.08 1.34,0.244c0.412,0.16 0.764,0.388 1.061,0.677c0.296,0.288 0.528,0.624 0.692,1.008c0.168,0.388 0.248,0.804 0.248,1.253c0,0.448 -0.08,0.868 -0.248,1.252c-0.164,0.388 -0.396,0.724 -0.692,1.012c-0.297,0.289 -0.649,0.513 -1.061,0.677c-0.408,0.164 -0.856,0.244 -1.34,0.244c-0.493,0 -0.941,-0.08 -1.349,-0.244c-0.408,-0.164 -0.76,-0.388 -1.052,-0.677c-0.293,-0.288 -0.525,-0.624 -0.689,-1.012c-0.164,-0.384 -0.248,-0.804 -0.248,-1.252Z" style="fill:white;fill-rule:nonzero;"/>
    <path id="path7730" d="M105.834,349.579l0,3.278c0,0.176 0.008,0.356 0.02,0.54c0.012,0.184 0.052,0.352 0.12,0.5c0.068,0.148 0.172,0.272 0.316,0.364c0.144,0.092 0.348,0.14 0.608,0.14c0.261,0 0.465,-0.048 0.605,-0.14c0.14,-0.092 0.244,-0.216 0.316,-0.364c0.068,-0.148 0.108,-0.316 0.124,-0.5c0.012,-0.184 0.02,-0.364 0.02,-0.54l0,-3.278l1.561,0l0,3.494c0,0.94 -0.217,1.624 -0.645,2.057c-0.432,0.432 -1.092,0.648 -1.981,0.648c-0.892,0 -1.552,-0.216 -1.984,-0.648c-0.433,-0.433 -0.649,-1.117 -0.649,-2.057l0,-3.494l1.569,0Z" style="fill:white;fill-rule:nonzero;"/>
    <path id="path7732" d="M113.073,350.904l0,4.706l-1.569,0l0,-4.706l-1.284,0l0,-1.325l4.142,0l0,1.325l-1.289,0Z" style="fill:white;fill-rule:nonzero;"/>
    <path id="path7734" d="M116.626,352.344l0.521,0c0.576,0 0.864,-0.248 0.864,-0.752c0,-0.5 -0.288,-0.752 -0.864,-0.752l-0.521,0l0,1.504Zm0,3.266l-1.568,0l0,-6.031l2.497,0c0.676,0 1.196,0.176 1.556,0.529c0.361,0.352 0.541,0.844 0.541,1.484c0,0.64 -0.18,1.137 -0.541,1.489c-0.36,0.352 -0.88,0.528 -1.556,0.528l-0.929,0l0,2.001Z" style="fill:white;fill-rule:nonzero;"/>
    <path id="path7736" d="M122.049,349.579l0,3.278c0,0.176 0.008,0.356 0.02,0.54c0.016,0.184 0.056,0.352 0.12,0.5c0.068,0.148 0.172,0.272 0.316,0.364c0.144,0.092 0.348,0.14 0.608,0.14c0.264,0 0.464,-0.048 0.604,-0.14c0.14,-0.092 0.249,-0.216 0.317,-0.364c0.068,-0.148 0.112,-0.316 0.124,-0.5c0.012,-0.184 0.02,-0.364 0.02,-0.54l0,-3.278l1.56,0l0,3.494c0,0.94 -0.216,1.624 -0.644,2.057c-0.428,0.432 -1.088,0.648 -1.981,0.648c-0.888,0 -1.552,-0.216 -1.985,-0.648c-0.432,-0.433 -0.648,-1.117 -0.648,-2.057l0,-3.494l1.569,0Z" style="fill:white;fill-rule:nonzero;"/>
    <path id="path7738" d="M129.292,350.904l0,4.706l-1.569,0l0,-4.706l-1.288,0l0,-1.325l4.141,0l0,1.325l-1.284,0Z" style="fill:white;fill-rule:nonzero;"/>
    <path id="path7743" d="M22.714,315.474l0,3.529l1.412,0l0,0.997l-2.589,0l0,-4.526l1.177,0Z" style="fill:rgb(140,140,140);fill-rule:nonzero;"/>
    <path id="path7747" d="M51.714,317.499l0.224,0c0.232,0 0.408,-0.048 0.532,-0.144c0.124,-0.096 0.188,-0.236 0.188,-0.416c0,-0.181 -0.064,-0.317 -0.188,-0.413c-0.124,-0.096 -0.3,-0.144 -0.532,-0.144l-0.224,0l0,1.117Zm2.589,2.501l-1.465,0l-1.124,-1.741l0,1.741l-1.177,0l0,-4.526l1.833,0c0.252,0 0.472,0.04 0.66,0.112c0.188,0.076 0.34,0.176 0.464,0.304c0.12,0.128 0.213,0.276 0.277,0.444c0.06,0.168 0.092,0.348 0.092,0.541c0,0.344 -0.084,0.624 -0.249,0.836c-0.168,0.212 -0.412,0.36 -0.736,0.436l1.425,1.853Z" style="fill:rgb(140,140,140);fill-rule:nonzero;"/>
    <path id="path7751" d="M99.714,315.474l0,3.529l1.412,0l0,0.997l-2.589,0l0,-4.526l1.177,0Z" style="fill:rgb(140,140,140);fill-rule:nonzero;"/>
    <path id="path7755" d="M125.714,317.499l0.224,0c0.232,0 0.408,-0.048 0.532,-0.144c0.124,-0.096 0.188,-0.236 0.188,-0.416c0,-0.181 -0.064,-0.317 -0.188,-0.413c-0.124,-0.096 -0.3,-0.144 -0.532,-0.144l-0.224,0l0,1.117Zm2.589,2.501l-1.465,0l-1.124,-1.741l0,1.741l-1.177,0l0,-4.526l1.833,0c0.252,0 0.472,0.04 0.66,0.112c0.188,0.076 0.34,0.176 0.464,0.304c0.12,0.128 0.213,0.276 0.277,0.444c0.06,0.168 0.092,0.348 0.092,0.541c0,0.344 -0.084,0.624 -0.249,0.836c-0.168,0.212 -0.412,0.36 -0.736,0.436l1.425,1.853Z" style="fill:rgb(140,140,140);fill-rule:nonzero;"/>
    <path d="M120.875,278.856l0,3.528l1.41,0l0,0.996l-2.586,0l0,-4.524l1.176,0Z" style="fill:white;fill-rule:nonzero;"/>
    <rect x="122.891" y="278.856" width="1.176" height="4.524" style="fill:white;fill-rule:nonzero;"/>
    <path d="M125.015,283.38l0,-4.524l1.176,0l2.172,2.766l0,-2.766l1.17,0l0,4.524l-1.17,0l-2.172,-2.766l0,2.766l-1.176,0Z" style="fill:white;fill-rule:nonzero;"/>
    <path d="M131.657,280.722l1.434,-1.866l1.452,0l-1.794,2.142l1.962,2.382l-1.524,0l-1.53,-1.962l0,1.962l-1.176,0l0,-4.524l1.176,0l0,1.866Z" style="fill:white;fill-rule:nonzero;"/>
    <path d="M120.875,290.856l0,2.46c0,0.132 0.005,0.267 0.015,0.405c0.01,0.138 0.04,0.263 0.09,0.375c0.05,0.112 0.129,0.203 0.237,0.273c0.108,0.07 0.26,0.105 0.456,0.105c0.196,0 0.347,-0.035 0.453,-0.105c0.106,-0.07 0.185,-0.161 0.237,-0.273c0.052,-0.112 0.083,-0.237 0.093,-0.375c0.01,-0.138 0.015,-0.273 0.015,-0.405l0,-2.46l1.17,0l0,2.622c0,0.704 -0.161,1.218 -0.483,1.542c-0.322,0.324 -0.817,0.486 -1.485,0.486c-0.668,0 -1.164,-0.162 -1.488,-0.486c-0.324,-0.324 -0.486,-0.838 -0.486,-1.542l0,-2.622l1.176,0Z" style="fill:white;fill-rule:nonzero;"/>
    <path d="M124.589,295.38l0,-4.524l1.176,0l2.172,2.766l0,-2.766l1.17,0l0,4.524l-1.17,0l-2.172,-2.766l0,2.766l-1.176,0Z" style="fill:white;fill-rule:nonzero;"/>
    <path d="M131.231,290.856l0,3.528l1.41,0l0,0.996l-2.586,0l0,-4.524l1.176,0Z" style="fill:white;fill-rule:nonzero;"/>
    <rect x="133.247" y="290.856" width="1.176" height="4.524" style="fill:white;fill-rule:nonzero;"/>
    <path d="M135.371,295.38l0,-4.524l1.176,0l2.172,2.766l0,-2.766l1.17,0l0,4.524l-1.17,0l-2.172,-2.766l0,2.766l-1.176,0Z" style="fill:white;fill-rule:nonzero;"/>
    <path d="M142.013,292.722l1.434,-1.866l1.452,0l-1.794,2.142l1.962,2.382l-1.524,0l-1.53,-1.962l0,1.962l-1.176,0l0,-4.524l1.176,0l0,1.866Z" style="fill:white;fill-rule:nonzero;"/>
    <path d="M107.292,305.261l2.334,0c0,0.24 -0.01,0.458 -0.03,0.654c-0.02,0.196 -0.06,0.378 -0.12,0.546c-0.084,0.236 -0.198,0.445 -0.342,0.627c-0.144,0.182 -0.313,0.334 -0.507,0.456c-0.194,0.122 -0.407,0.215 -0.639,0.279c-0.232,0.064 -0.476,0.096 -0.732,0.096c-0.352,0 -0.673,-0.058 -0.963,-0.174c-0.29,-0.116 -0.539,-0.279 -0.747,-0.489c-0.208,-0.21 -0.37,-0.462 -0.486,-0.756c-0.116,-0.294 -0.174,-0.619 -0.174,-0.975c0,-0.352 0.057,-0.675 0.171,-0.969c0.114,-0.294 0.276,-0.545 0.486,-0.753c0.21,-0.208 0.463,-0.37 0.759,-0.486c0.296,-0.116 0.626,-0.174 0.99,-0.174c0.472,0 0.886,0.102 1.242,0.306c0.356,0.204 0.638,0.52 0.846,0.948l-1.116,0.462c-0.104,-0.248 -0.239,-0.426 -0.405,-0.534c-0.166,-0.108 -0.355,-0.162 -0.567,-0.162c-0.176,0 -0.336,0.033 -0.48,0.099c-0.144,0.066 -0.267,0.16 -0.369,0.282c-0.102,0.122 -0.182,0.269 -0.24,0.441c-0.058,0.172 -0.087,0.364 -0.087,0.576c0,0.192 0.025,0.37 0.075,0.534c0.05,0.164 0.125,0.306 0.225,0.426c0.1,0.12 0.224,0.213 0.372,0.279c0.148,0.066 0.32,0.099 0.516,0.099c0.116,0 0.228,-0.013 0.336,-0.039c0.108,-0.026 0.205,-0.068 0.291,-0.126c0.086,-0.058 0.157,-0.133 0.213,-0.225c0.056,-0.092 0.094,-0.204 0.114,-0.336l-0.966,0l0,-0.912Z" style="fill:rgb(128,128,128);fill-rule:nonzero;"/>
    <path d="M112.662,306.113l-0.528,-1.506l-0.528,1.506l1.056,0Zm0.312,0.894l-1.68,0l-0.27,0.786l-1.254,0l1.722,-4.524l1.284,0l1.722,4.524l-1.254,0l-0.27,-0.786Z" style="fill:rgb(128,128,128);fill-rule:nonzero;"/>
    <path d="M116.532,304.265l0,3.528l-1.176,0l0,-3.528l-0.966,0l0,-0.996l3.108,0l0,0.996l-0.966,0Z" style="fill:rgb(128,128,128);fill-rule:nonzero;"/>
    <path d="M120.594,304.265l-1.398,0l0,0.756l1.32,0l0,0.996l-1.32,0l0,0.78l1.398,0l0,0.996l-2.574,0l0,-4.524l2.574,0l0,0.996Z" style="fill:rgb(128,128,128);fill-rule:nonzero;"/>
    <path d="M123.924,304.427c-0.128,-0.104 -0.256,-0.181 -0.384,-0.231c-0.128,-0.05 -0.252,-0.075 -0.372,-0.075c-0.152,0 -0.276,0.036 -0.372,0.108c-0.096,0.072 -0.144,0.166 -0.144,0.282c0,0.08 0.024,0.146 0.072,0.198c0.048,0.052 0.111,0.097 0.189,0.135c0.078,0.038 0.166,0.071 0.264,0.099c0.098,0.028 0.195,0.058 0.291,0.09c0.384,0.128 0.665,0.299 0.843,0.513c0.178,0.214 0.267,0.493 0.267,0.837c0,0.232 -0.039,0.442 -0.117,0.63c-0.078,0.188 -0.192,0.349 -0.342,0.483c-0.15,0.134 -0.334,0.238 -0.552,0.312c-0.218,0.074 -0.465,0.111 -0.741,0.111c-0.572,0 -1.102,-0.17 -1.59,-0.51l0.504,-0.948c0.176,0.156 0.35,0.272 0.522,0.348c0.172,0.076 0.342,0.114 0.51,0.114c0.192,0 0.335,-0.044 0.429,-0.132c0.094,-0.088 0.141,-0.188 0.141,-0.3c0,-0.068 -0.012,-0.127 -0.036,-0.177c-0.024,-0.05 -0.064,-0.096 -0.12,-0.138c-0.056,-0.042 -0.129,-0.081 -0.219,-0.117c-0.09,-0.036 -0.199,-0.076 -0.327,-0.12c-0.152,-0.048 -0.301,-0.101 -0.447,-0.159c-0.146,-0.058 -0.276,-0.135 -0.39,-0.231c-0.114,-0.096 -0.206,-0.217 -0.276,-0.363c-0.07,-0.146 -0.105,-0.331 -0.105,-0.555c0,-0.224 0.037,-0.427 0.111,-0.609c0.074,-0.182 0.178,-0.338 0.312,-0.468c0.134,-0.13 0.298,-0.231 0.492,-0.303c0.194,-0.072 0.411,-0.108 0.651,-0.108c0.224,0 0.458,0.031 0.702,0.093c0.244,0.062 0.478,0.153 0.702,0.273l-0.468,0.918Z" style="fill:rgb(128,128,128);fill-rule:nonzero;"/>
    <g>
      <path id="path77771" serif:id="path7777" d="M84.648,229.683c2.737,-4.742 1.665,-10.825 -2.533,-14.346c-4.194,-3.522 -10.373,-3.522 -14.566,0c-4.198,3.521 -5.27,9.604 -2.533,14.346l9.816,-5.667l9.816,5.667Z" style="fill:none;stroke:rgb(204,204,204);stroke-width:1px;stroke-linecap:round;stroke-linejoin:miter;stroke-miterlimit:4;"/>
      <path id="path77831" serif:id="path7783" d="M86.493,233.052l-4.41,0.02" style="fill:rgb(204,204,204);fill-rule:nonzero;stroke:rgb(204,204,204);stroke-width:1px;stroke-linecap:round;stroke-linejoin:miter;stroke-miterlimit:4;"/>
      <path id="path77861" serif:id="path7786" d="M68.173,232.928l-4.414,0.02" style="fill:rgb(204,204,204);fill-rule:nonzero;stroke:rgb(204,204,204);stroke-width:1px;stroke-linecap:round;stroke-linejoin:miter;stroke-miterlimit:4;"/>
      <path id="path77801" serif:id="path7780" d="M84.276,230.879l0.024,4.41" style="fill:rgb(204,204,204);fill-rule:nonzero;stroke:rgb(204,204,204);stroke-width:1px;stroke-linecap:round;stroke-linejoin:miter;stroke-miterlimit:4;"/>
      <path id="path77891" serif:id="path7789" d="M74.832,224.02l-0.024,-13.309" style="fill:none;stroke:rgb(204,204,204);stroke-width:1px;stroke-linecap:round;stroke-linejoin:miter;stroke-miterlimit:4;"/>
    </g>
    <g id="text9293-43" serif:id="text9293-4">
      <path d="M73.376,262.067c-0.317,-0.388 -0.709,-0.581 -1.176,-0.581c-0.205,0 -0.396,0.037 -0.571,0.112c-0.175,0.074 -0.325,0.176 -0.451,0.304c-0.126,0.128 -0.225,0.281 -0.298,0.459c-0.072,0.177 -0.108,0.368 -0.108,0.574c0,0.21 0.036,0.403 0.108,0.581c0.073,0.177 0.173,0.331 0.301,0.462c0.129,0.13 0.279,0.233 0.452,0.308c0.173,0.074 0.359,0.112 0.56,0.112c0.439,0 0.833,-0.187 1.183,-0.56l0,1.624l-0.14,0.049c-0.21,0.074 -0.406,0.129 -0.588,0.164c-0.182,0.035 -0.362,0.053 -0.539,0.053c-0.364,0 -0.713,-0.069 -1.047,-0.207c-0.333,-0.138 -0.627,-0.331 -0.882,-0.581c-0.254,-0.25 -0.458,-0.546 -0.612,-0.889c-0.154,-0.343 -0.231,-0.717 -0.231,-1.123c0,-0.406 0.076,-0.779 0.227,-1.117c0.152,-0.338 0.355,-0.63 0.609,-0.875c0.255,-0.245 0.55,-0.436 0.886,-0.574c0.336,-0.138 0.688,-0.206 1.057,-0.206c0.21,0 0.416,0.022 0.619,0.066c0.203,0.044 0.417,0.113 0.641,0.207l0,1.638Z" style="fill:white;fill-rule:nonzero;"/>
      <path d="M75.182,260.303l1.274,3.213l1.281,-3.213l1.491,0l-2.226,5.278l-1.092,0l-2.219,-5.278l1.491,0Z" style="fill:white;fill-rule:nonzero;"/>
    </g>
    <circle cx="18.6" cy="203" r="4"/>
    <circle cx="130.587" cy="203" r="4"/>
    <circle cx="75" cy="203" r="4"/>
    <g>
      <g>
        <path id="path78091" serif:id="path7809" d="M139.531,141.357l0.024,4.41" style="fill:rgb(204,204,204);fill-rule:nonzero;stroke:rgb(204,204,204);stroke-width:1px;stroke-linecap:round;stroke-linejoin:miter;stroke-miterlimit:4;"/>
        <path id="path78121" serif:id="path7812" d="M141.748,143.53l-4.41,0.02" style="fill:rgb(204,204,204);fill-rule:nonzero;stroke:rgb(204,204,204);stroke-width:1px;stroke-linecap:round;stroke-linejoin:miter;stroke-miterlimit:4;"/>
        <path id="path78151" serif:id="path7815" d="M123.429,143.406l-4.414,0.02" style="fill:rgb(204,204,204);fill-rule:nonzero;stroke:rgb(204,204,204);stroke-width:1px;stroke-linecap:round;stroke-linejoin:miter;stroke-miterlimit:4;"/>
        <path id="path78181" serif:id="path7818" d="M139.904,140.161c2.737,-4.742 1.664,-10.825 -2.533,-14.346c-4.194,-3.522 -10.373,-3.522 -14.567,0c-4.197,3.521 -5.27,9.604 -2.533,14.346l9.816,-5.667l9.817,5.667Z" style="fill:none;stroke:rgb(204,204,204);stroke-width:1px;stroke-linecap:round;stroke-linejoin:miter;stroke-miterlimit:4;"/>
      </g>
      <path id="path78211" serif:id="path7821" d="M130.087,134.498l-0.024,-13.309" style="fill:none;stroke:rgb(204,204,204);stroke-width:1px;stroke-linecap:round;stroke-linejoin:miter;stroke-miterlimit:4;"/>
    </g>
  </g>
</svg>