<svg width="150px" height="380px" version="1.1" xmlns="http://www.w3.org/2000/svg" xmlns:xlink="http://www.w3.org/1999/xlink" xml:space="preserve" xmlns:serif="http://www.serif.com/" style="fill-rule:evenodd;clip-rule:evenodd;stroke-linecap:round;">
  <defs>
    <linearGradient id="_Linear1" x1="0" y1="0" x2="1" y2="0" gradientUnits="userSpaceOnUse" gradientTransform="matrix(150,-379.998,379.998,150,0.000328145,379.998)">
      <stop offset="0" style="stop-color:rgb(9,13,17);stop-opacity:1"/>
      <stop offset="1" style="stop-color:rgb(24,35,46);stop-opacity:1"/>
    </linearGradient>
  </defs>
  <g id="Panel">
    <rect id="rect17999" x="0" y="0" width="150" height="379.998" style="fill:url(#_Linear1);"/>
    <path id="path42" d="M65.952,363.5l2.673,0l2.49,8.317l2.574,-8.317l2.66,0l-3.46,10.397c-0.323,0.959 -0.903,1.438 -1.738,1.438c-0.847,0 -1.433,-0.484 -1.755,-1.453l-3.444,-10.382Z" style="fill:rgb(173,181,187);fill-rule:nonzero;"/>
    <path id="path44" d="M76.55,372.292l0,-8.792l2.507,0l0,8.709c0.044,0.312 0.334,0.468 0.869,0.468l1.705,0c0.513,0 0.797,-0.145 0.853,-0.435l0.017,-0.083l0,-8.659l2.507,0l0,8.776c0,0.769 -0.083,1.315 -0.251,1.638c-0.445,0.858 -1.231,1.287 -2.357,1.287l-3.243,0c-1.159,0 -1.95,-0.44 -2.373,-1.321c-0.156,-0.323 -0.234,-0.852 -0.234,-1.588l0,0Z" style="fill:rgb(173,181,187);fill-rule:nonzero;"/>
    <path id="path46" d="M86.161,372.343l0,-8.843l2.508,0l0,8.642c0,0.357 0.211,0.535 0.635,0.535l4.463,0l-0.016,2.524l-4.664,0c-0.167,0 -0.312,-0.006 -0.435,-0.017c-0.903,-0.077 -1.544,-0.342 -1.922,-0.794c-0.379,-0.451 -0.569,-1.133 -0.569,-2.047l0,0Z" style="fill:rgb(173,181,187);fill-rule:nonzero;"/>
    <path id="path48" d="M93.851,366.024l0,-2.524l7.522,0l0,2.524l-2.524,0l0,9.177l-2.508,0l0,-9.177l-2.49,0Z" style="fill:rgb(173,181,187);fill-rule:nonzero;"/>
    <path id="path18007" d="M39.626,127.475l0,4.706l-1.569,0l0,-4.706l-1.288,0l0,-1.329l4.146,0l0,1.329l-1.289,0Z" style="fill:white;fill-rule:nonzero;"/>
    <path id="path18009" d="M43.179,126.146l0,3.282c0,0.176 0.008,0.356 0.02,0.54c0.012,0.184 0.053,0.352 0.121,0.5c0.068,0.148 0.172,0.272 0.316,0.364c0.144,0.092 0.348,0.14 0.608,0.14c0.26,0 0.464,-0.048 0.604,-0.14c0.14,-0.092 0.248,-0.216 0.316,-0.364c0.068,-0.148 0.112,-0.316 0.124,-0.5c0.012,-0.184 0.02,-0.364 0.02,-0.54l0,-3.282l1.561,0l0,3.498c0,0.94 -0.216,1.624 -0.644,2.057c-0.428,0.432 -1.089,0.648 -1.981,0.648c-0.892,0 -1.553,-0.216 -1.985,-0.648c-0.432,-0.433 -0.648,-1.117 -0.648,-2.057l0,-3.498l1.568,0Z" style="fill:white;fill-rule:nonzero;"/>
    <path id="path18011" d="M48.134,132.181l0,-6.035l1.568,0l2.897,3.69l0,-3.69l1.561,0l0,6.035l-1.561,0l-2.897,-3.69l0,3.69l-1.568,0Z" style="fill:white;fill-rule:nonzero;"/>
    <path id="path18013" d="M58.858,127.475l-1.865,0l0,1.008l1.761,0l0,1.329l-1.761,0l0,1.04l1.865,0l0,1.329l-3.433,0l0,-6.035l3.433,0l0,1.329Z" style="fill:white;fill-rule:nonzero;"/>
    <path id="path18018" d="M70.343,109.847c5.718,-9.906 3.48,-22.611 -5.286,-29.963c-8.761,-7.353 -21.66,-7.353 -30.422,0c-8.762,7.352 -11.004,20.057 -5.282,29.963" style="fill:none;stroke:rgb(204,204,204);stroke-width:1.5px;"/>
    <path id="path9630" d="M69.569,112.338l0.05,9.217" style="fill:rgb(204,204,204);fill-rule:nonzero;stroke:rgb(204,204,204);stroke-width:1.5px;"/>
    <path id="path9630-1" d="M74.2,116.88l-9.213,0.043" style="fill:rgb(204,204,204);fill-rule:nonzero;stroke:rgb(204,204,204);stroke-width:1.5px;"/>
    <path id="path9630-1-6" d="M35.939,116.619l-9.213,0.043" style="fill:rgb(204,204,204);fill-rule:nonzero;stroke:rgb(204,204,204);stroke-width:1.5px;"/>
    <path id="path9948" d="M49.846,98.018l-0.047,-26.347" style="fill:none;stroke:rgb(204,204,204);stroke-width:1.5px;"/>
    <path id="path18027" d="M100.41,116.146l1.456,3.674l1.465,-3.674l1.704,0l-2.545,6.035l-1.248,0l-2.537,-6.035l1.705,0Z" style="fill:white;fill-rule:nonzero;"/>
    <path id="path18029" d="M108.317,115.538l1.144,0l-3.297,8.027l-1.137,0l3.29,-8.027Z" style="fill:white;fill-rule:nonzero;"/>
    <path id="path18031" d="M111.238,119.164c0,0.24 0.044,0.46 0.136,0.664c0.092,0.204 0.212,0.38 0.368,0.528c0.156,0.148 0.336,0.264 0.54,0.348c0.205,0.084 0.425,0.124 0.653,0.124c0.228,0 0.448,-0.04 0.652,-0.124c0.204,-0.084 0.388,-0.2 0.544,-0.348c0.156,-0.148 0.28,-0.324 0.372,-0.528c0.092,-0.204 0.136,-0.424 0.136,-0.664c0,-0.241 -0.044,-0.461 -0.136,-0.665c-0.092,-0.204 -0.216,-0.38 -0.372,-0.528c-0.156,-0.148 -0.34,-0.264 -0.544,-0.348c-0.204,-0.084 -0.424,-0.124 -0.652,-0.124c-0.228,0 -0.448,0.04 -0.653,0.124c-0.204,0.084 -0.384,0.2 -0.54,0.348c-0.156,0.148 -0.276,0.324 -0.368,0.528c-0.092,0.204 -0.136,0.424 -0.136,0.665Zm-1.641,0c0,-0.449 0.084,-0.865 0.248,-1.253c0.164,-0.388 0.397,-0.724 0.689,-1.012c0.292,-0.289 0.644,-0.513 1.052,-0.677c0.408,-0.164 0.856,-0.244 1.349,-0.244c0.484,0 0.932,0.08 1.344,0.244c0.412,0.164 0.765,0.388 1.061,0.677c0.296,0.288 0.528,0.624 0.692,1.012c0.164,0.388 0.248,0.804 0.248,1.253c0,0.448 -0.084,0.864 -0.248,1.252c-0.164,0.388 -0.396,0.724 -0.692,1.012c-0.296,0.289 -0.649,0.513 -1.061,0.677c-0.412,0.164 -0.86,0.244 -1.344,0.244c-0.493,0 -0.941,-0.08 -1.349,-0.244c-0.408,-0.164 -0.76,-0.388 -1.052,-0.677c-0.292,-0.288 -0.525,-0.624 -0.689,-1.012c-0.164,-0.388 -0.248,-0.804 -0.248,-1.252Z" style="fill:white;fill-rule:nonzero;"/>
    <path id="path18033" d="M121.618,118.163c-0.364,-0.444 -0.812,-0.664 -1.344,-0.664c-0.236,0 -0.452,0.044 -0.653,0.128c-0.2,0.084 -0.372,0.2 -0.516,0.348c-0.144,0.148 -0.256,0.32 -0.34,0.524c-0.084,0.204 -0.124,0.42 -0.124,0.657c0,0.24 0.04,0.46 0.124,0.664c0.084,0.204 0.196,0.38 0.344,0.528c0.148,0.148 0.32,0.268 0.516,0.352c0.197,0.084 0.413,0.128 0.641,0.128c0.5,0 0.952,-0.212 1.352,-0.64l0,1.857l-0.16,0.056c-0.24,0.084 -0.464,0.148 -0.672,0.188c-0.208,0.04 -0.412,0.06 -0.616,0.06c-0.416,0 -0.817,-0.08 -1.197,-0.236c-0.38,-0.156 -0.716,-0.38 -1.008,-0.665c-0.292,-0.284 -0.524,-0.624 -0.701,-1.016c-0.176,-0.392 -0.264,-0.82 -0.264,-1.284c0,-0.465 0.088,-0.889 0.26,-1.277c0.173,-0.388 0.405,-0.72 0.697,-1c0.292,-0.281 0.628,-0.501 1.012,-0.657c0.384,-0.156 0.789,-0.236 1.209,-0.236c0.24,0 0.476,0.024 0.708,0.076c0.232,0.052 0.476,0.128 0.732,0.236l0,1.873Z" style="fill:white;fill-rule:nonzero;"/>
    <path id="path18035" d="M124.9,117.475l0,4.706l-1.569,0l0,-4.706l-1.289,0l0,-1.329l4.146,0l0,1.329l-1.288,0Z" style="fill:white;fill-rule:nonzero;"/>
    <path id="path18040" d="M121.64,172.767c2.737,-4.742 1.664,-10.824 -2.534,-14.346c-4.193,-3.521 -10.372,-3.521 -14.566,0c-4.197,3.522 -5.27,9.604 -2.533,14.346l9.816,-5.666l9.817,5.666Z" style="fill:none;stroke:rgb(204,204,204);stroke-width:1px;"/>
    <path id="path18043" d="M121.267,173.964l0.024,4.41" style="fill:rgb(204,204,204);fill-rule:nonzero;stroke:rgb(204,204,204);stroke-width:1px;"/>
    <path id="path18046" d="M123.484,176.137l-4.41,0.02" style="fill:rgb(204,204,204);fill-rule:nonzero;stroke:rgb(204,204,204);stroke-width:1px;"/>
    <path id="path18049" d="M105.165,176.013l-4.414,0.02" style="fill:rgb(204,204,204);fill-rule:nonzero;stroke:rgb(204,204,204);stroke-width:1px;"/>
    <path id="path18052" d="M111.823,167.105l-0.024,-13.31" style="fill:none;stroke:rgb(204,204,204);stroke-width:1px;"/>
    <path id="path18055" d="M121.64,172.767c2.737,-4.742 1.664,-10.824 -2.534,-14.346c-4.193,-3.521 -10.372,-3.521 -14.566,0c-4.197,3.522 -5.27,9.604 -2.533,14.346l9.816,-5.666l9.817,5.666Z" style="fill:none;stroke:rgb(204,204,204);stroke-width:1px;"/>
    <path id="path18058" d="M121.267,173.964l0.024,4.41" style="fill:rgb(204,204,204);fill-rule:nonzero;stroke:rgb(204,204,204);stroke-width:1px;"/>
    <path id="path18061" d="M123.484,176.137l-4.41,0.02" style="fill:rgb(204,204,204);fill-rule:nonzero;stroke:rgb(204,204,204);stroke-width:1px;"/>
    <path id="path18064" d="M105.165,176.013l-4.414,0.02" style="fill:rgb(204,204,204);fill-rule:nonzero;stroke:rgb(204,204,204);stroke-width:1px;"/>
    <path id="path18067" d="M111.823,167.105l-0.024,-13.31" style="fill:none;stroke:rgb(204,204,204);stroke-width:1px;"/>
    <path id="path18072" d="M40.681,208.337c-0.364,-0.444 -0.812,-0.664 -1.344,-0.664c-0.236,0 -0.453,0.044 -0.653,0.128c-0.2,0.084 -0.372,0.2 -0.516,0.348c-0.144,0.148 -0.256,0.32 -0.34,0.524c-0.084,0.204 -0.124,0.42 -0.124,0.657c0,0.24 0.04,0.46 0.124,0.664c0.084,0.204 0.196,0.38 0.344,0.528c0.148,0.148 0.32,0.268 0.516,0.352c0.196,0.084 0.413,0.128 0.641,0.128c0.5,0 0.952,-0.212 1.352,-0.64l0,1.857l-0.16,0.056c-0.24,0.084 -0.464,0.148 -0.672,0.188c-0.208,0.04 -0.412,0.06 -0.616,0.06c-0.417,0 -0.817,-0.08 -1.197,-0.236c-0.38,-0.156 -0.716,-0.38 -1.008,-0.665c-0.292,-0.284 -0.525,-0.624 -0.701,-1.016c-0.176,-0.392 -0.264,-0.82 -0.264,-1.284c0,-0.465 0.088,-0.889 0.26,-1.277c0.172,-0.388 0.405,-0.72 0.697,-1c0.292,-0.281 0.628,-0.501 1.012,-0.657c0.384,-0.156 0.788,-0.236 1.209,-0.236c0.24,0 0.476,0.024 0.708,0.076c0.232,0.052 0.476,0.128 0.732,0.236l0,1.873Z" style="fill:white;fill-rule:nonzero;"/>
    <path id="path18074" d="M43.13,209.338c0,0.24 0.044,0.46 0.136,0.664c0.092,0.204 0.212,0.38 0.368,0.528c0.156,0.148 0.337,0.264 0.541,0.348c0.204,0.084 0.424,0.124 0.652,0.124c0.228,0 0.448,-0.04 0.652,-0.124c0.204,-0.084 0.388,-0.2 0.544,-0.348c0.156,-0.148 0.28,-0.324 0.373,-0.528c0.092,-0.204 0.136,-0.424 0.136,-0.664c0,-0.241 -0.044,-0.461 -0.136,-0.665c-0.093,-0.204 -0.217,-0.38 -0.373,-0.528c-0.156,-0.148 -0.34,-0.264 -0.544,-0.348c-0.204,-0.084 -0.424,-0.124 -0.652,-0.124c-0.228,0 -0.448,0.04 -0.652,0.124c-0.204,0.084 -0.385,0.2 -0.541,0.348c-0.156,0.148 -0.276,0.324 -0.368,0.528c-0.092,0.204 -0.136,0.424 -0.136,0.665Zm-1.64,0c0,-0.449 0.084,-0.865 0.248,-1.253c0.164,-0.388 0.396,-0.724 0.688,-1.012c0.292,-0.289 0.644,-0.513 1.052,-0.677c0.408,-0.164 0.857,-0.244 1.349,-0.244c0.484,0 0.932,0.08 1.344,0.244c0.413,0.164 0.765,0.388 1.061,0.677c0.296,0.288 0.528,0.624 0.692,1.012c0.164,0.388 0.248,0.804 0.248,1.253c0,0.448 -0.084,0.864 -0.248,1.252c-0.164,0.388 -0.396,0.724 -0.692,1.012c-0.296,0.289 -0.648,0.513 -1.061,0.677c-0.412,0.164 -0.86,0.244 -1.344,0.244c-0.492,0 -0.941,-0.08 -1.349,-0.244c-0.408,-0.164 -0.76,-0.388 -1.052,-0.677c-0.292,-0.288 -0.524,-0.624 -0.688,-1.012c-0.164,-0.388 -0.248,-0.804 -0.248,-1.252Z" style="fill:white;fill-rule:nonzero;"/>
    <path id="path18076" d="M48.893,212.355l1.024,-6.035l1.553,0l1.208,3.218l1.201,-3.218l1.552,0l1.025,6.035l-1.561,0l-0.52,-3.474l-1.425,3.474l-0.624,0l-1.353,-3.474l-0.52,3.474l-1.56,0Z" style="fill:white;fill-rule:nonzero;"/>
    <path id="path18078" d="M59.017,211.138l0.344,0c0.396,0 0.676,-0.052 0.848,-0.152c0.172,-0.1 0.256,-0.264 0.256,-0.488c0,-0.224 -0.084,-0.388 -0.256,-0.488c-0.172,-0.1 -0.452,-0.152 -0.848,-0.152l-0.344,0l0,1.28Zm0,-2.449l0.288,0c0.492,0 0.736,-0.196 0.736,-0.584c0,-0.388 -0.244,-0.584 -0.736,-0.584l-0.288,0l0,1.168Zm-1.569,-2.369l2.337,0c0.556,0 0.976,0.132 1.265,0.4c0.288,0.269 0.432,0.653 0.432,1.153c0,0.304 -0.056,0.556 -0.164,0.756c-0.108,0.2 -0.276,0.368 -0.5,0.508c0.224,0.044 0.416,0.109 0.572,0.197c0.156,0.088 0.284,0.196 0.384,0.324c0.1,0.128 0.168,0.272 0.212,0.432c0.044,0.16 0.064,0.332 0.064,0.512c0,0.284 -0.048,0.532 -0.148,0.752c-0.1,0.22 -0.236,0.405 -0.416,0.553c-0.18,0.148 -0.396,0.26 -0.652,0.336c-0.257,0.076 -0.545,0.112 -0.865,0.112l-2.521,0l0,-6.035Z" style="fill:white;fill-rule:nonzero;"/>
    <path id="path18083" d="M121.64,252.941c2.737,-4.742 1.664,-10.824 -2.534,-14.346c-4.193,-3.521 -10.372,-3.521 -14.566,0c-4.197,3.522 -5.27,9.604 -2.533,14.346l9.816,-5.666l9.817,5.666Z" style="fill:none;stroke:rgb(204,204,204);stroke-width:1px;"/>
    <path id="path18086" d="M121.267,254.138l0.024,4.41" style="fill:rgb(204,204,204);fill-rule:nonzero;stroke:rgb(204,204,204);stroke-width:1px;"/>
    <path id="path18089" d="M123.484,256.311l-4.41,0.02" style="fill:rgb(204,204,204);fill-rule:nonzero;stroke:rgb(204,204,204);stroke-width:1px;"/>
    <path id="path18092" d="M105.165,256.187l-4.414,0.02" style="fill:rgb(204,204,204);fill-rule:nonzero;stroke:rgb(204,204,204);stroke-width:1px;"/>
    <path id="path18095" d="M111.823,247.279l-0.024,-13.31" style="fill:none;stroke:rgb(204,204,204);stroke-width:1px;"/>
    <path id="path18098" d="M121.267,254.138l0.024,4.41" style="fill:rgb(204,204,204);fill-rule:nonzero;stroke:rgb(204,204,204);stroke-width:1px;"/>
    <path id="path18101" d="M123.484,256.311l-4.41,0.02" style="fill:rgb(204,204,204);fill-rule:nonzero;stroke:rgb(204,204,204);stroke-width:1px;"/>
    <path id="path18104" d="M105.165,256.187l-4.414,0.02" style="fill:rgb(204,204,204);fill-rule:nonzero;stroke:rgb(204,204,204);stroke-width:1px;"/>
    <path id="path18107" d="M111.823,247.279l-0.024,-13.31" style="fill:none;stroke:rgb(204,204,204);stroke-width:1px;"/>
    <path id="path18112" d="M32.346,287.823l-1.889,0l0,1.008l1.721,0l0,1.329l-1.721,0l0,2.369l-1.568,0l0,-6.035l3.457,0l0,1.329Z" style="fill:white;fill-rule:nonzero;"/>
    <path id="path18114" d="M36.716,287.823l-1.865,0l0,1.008l1.761,0l0,1.329l-1.761,0l0,1.04l1.865,0l0,1.329l-3.434,0l0,-6.035l3.434,0l0,1.329Z" style="fill:white;fill-rule:nonzero;"/>
    <path id="path18116" d="M41.278,287.823l-1.865,0l0,1.008l1.761,0l0,1.329l-1.761,0l0,1.04l1.865,0l0,1.329l-3.434,0l0,-6.035l3.434,0l0,1.329Z" style="fill:white;fill-rule:nonzero;"/>
    <path id="path18118" d="M43.975,291.2l0.36,0c0.272,0 0.516,-0.044 0.728,-0.128c0.212,-0.084 0.392,-0.204 0.54,-0.352c0.149,-0.148 0.261,-0.328 0.337,-0.532c0.076,-0.204 0.116,-0.432 0.116,-0.676c0,-0.241 -0.04,-0.465 -0.12,-0.673c-0.08,-0.208 -0.192,-0.388 -0.341,-0.536c-0.148,-0.148 -0.328,-0.268 -0.54,-0.352c-0.212,-0.084 -0.452,-0.128 -0.72,-0.128l-0.36,0l0,3.377Zm-1.569,-4.706l2.321,0c0.412,0 0.796,0.084 1.157,0.248c0.36,0.164 0.676,0.385 0.944,0.661c0.268,0.276 0.48,0.596 0.636,0.96c0.156,0.364 0.232,0.748 0.232,1.149c0,0.396 -0.076,0.776 -0.228,1.14c-0.152,0.364 -0.364,0.688 -0.632,0.964c-0.268,0.277 -0.584,0.501 -0.944,0.665c-0.361,0.164 -0.749,0.248 -1.165,0.248l-2.321,0l0,-6.035Z" style="fill:white;fill-rule:nonzero;"/>
    <path id="path18120" d="M50.265,291.312l0.345,0c0.396,0 0.676,-0.052 0.848,-0.152c0.172,-0.1 0.256,-0.264 0.256,-0.488c0,-0.224 -0.084,-0.388 -0.256,-0.488c-0.172,-0.1 -0.452,-0.152 -0.848,-0.152l-0.345,0l0,1.28Zm0,-2.449l0.289,0c0.492,0 0.736,-0.196 0.736,-0.584c0,-0.388 -0.244,-0.584 -0.736,-0.584l-0.289,0l0,1.168Zm-1.568,-2.369l2.337,0c0.556,0 0.976,0.132 1.264,0.4c0.288,0.269 0.432,0.653 0.432,1.153c0,0.304 -0.056,0.556 -0.164,0.756c-0.108,0.2 -0.276,0.368 -0.5,0.508c0.224,0.044 0.416,0.109 0.572,0.197c0.156,0.088 0.285,0.196 0.385,0.324c0.1,0.128 0.168,0.272 0.212,0.432c0.044,0.16 0.064,0.332 0.064,0.512c0,0.284 -0.048,0.532 -0.148,0.752c-0.1,0.22 -0.236,0.405 -0.417,0.553c-0.18,0.148 -0.396,0.26 -0.652,0.336c-0.256,0.076 -0.544,0.112 -0.864,0.112l-2.521,0l0,-6.035Z" style="fill:white;fill-rule:nonzero;"/>
    <path id="path18122" d="M57.428,290.288l-0.704,-2.009l-0.704,2.009l1.408,0Zm0.417,1.192l-2.241,0l-0.361,1.049l-1.672,0l2.297,-6.035l1.712,0l2.297,6.035l-1.672,0l-0.36,-1.049Z" style="fill:white;fill-rule:nonzero;"/>
    <path id="path18124" d="M64.687,288.511c-0.364,-0.444 -0.812,-0.664 -1.344,-0.664c-0.236,0 -0.452,0.044 -0.652,0.128c-0.2,0.084 -0.373,0.2 -0.517,0.348c-0.144,0.148 -0.256,0.32 -0.34,0.524c-0.084,0.204 -0.124,0.42 -0.124,0.657c0,0.24 0.04,0.46 0.124,0.664c0.084,0.204 0.196,0.38 0.344,0.528c0.148,0.148 0.321,0.268 0.517,0.352c0.196,0.084 0.412,0.128 0.64,0.128c0.5,0 0.952,-0.212 1.352,-0.64l0,1.857l-0.16,0.056c-0.24,0.084 -0.464,0.148 -0.672,0.188c-0.208,0.04 -0.412,0.06 -0.616,0.06c-0.416,0 -0.817,-0.08 -1.197,-0.236c-0.38,-0.156 -0.716,-0.38 -1.008,-0.665c-0.292,-0.284 -0.524,-0.624 -0.7,-1.016c-0.176,-0.392 -0.265,-0.82 -0.265,-1.284c0,-0.465 0.089,-0.889 0.261,-1.277c0.172,-0.388 0.404,-0.72 0.696,-1c0.292,-0.281 0.628,-0.501 1.012,-0.657c0.384,-0.156 0.789,-0.236 1.209,-0.236c0.24,0 0.476,0.024 0.708,0.076c0.232,0.052 0.476,0.128 0.732,0.236l0,1.873Z" style="fill:white;fill-rule:nonzero;"/>
    <path id="path18126" d="M67.505,288.983l1.912,-2.489l1.937,0l-2.393,2.857l2.617,3.178l-2.033,0l-2.04,-2.617l0,2.617l-1.569,0l0,-6.035l1.569,0l0,2.489Z" style="fill:white;fill-rule:nonzero;"/>
    <path id="path18131" d="M71.583,270.519c5.878,-10.184 3.577,-23.245 -5.431,-30.804c-9.007,-7.556 -22.273,-7.556 -31.281,0c-9.007,7.559 -11.308,20.62 -5.43,30.804" style="fill:none;stroke:rgb(204,204,204);stroke-width:1.5px;stroke-linecap:butt;"/>
    <circle id="circle18134" cx="30.173" cy="278.787" r="3.706" style="fill:none;stroke:rgb(204,204,204);stroke-width:1px;stroke-linecap:butt;"/>
    <circle id="circle18137" cx="71.952" cy="279.275" r="3.706" style="fill:rgb(204,204,204);stroke:rgb(204,204,204);stroke-width:1px;stroke-linecap:butt;"/>
    <path id="path18140" d="M70.343,190.847c5.718,-9.906 3.48,-22.611 -5.286,-29.963c-8.761,-7.353 -21.66,-7.353 -30.422,0c-8.762,7.352 -11.004,20.057 -5.282,29.963" style="fill:none;stroke:rgb(204,204,204);stroke-width:1.5px;"/>
    <path id="path96301" serif:id="path9630" d="M69.569,193.338l0.05,9.217" style="fill:rgb(204,204,204);fill-rule:nonzero;stroke:rgb(204,204,204);stroke-width:1.5px;"/>
    <path id="path9630-11" serif:id="path9630-1" d="M74.2,197.88l-9.213,0.043" style="fill:rgb(204,204,204);fill-rule:nonzero;stroke:rgb(204,204,204);stroke-width:1.5px;"/>
    <path id="path9630-1-61" serif:id="path9630-1-6" d="M35.939,197.619l-9.213,0.043" style="fill:rgb(204,204,204);fill-rule:nonzero;stroke:rgb(204,204,204);stroke-width:1.5px;"/>
    <path id="path99481" serif:id="path9948" d="M49.846,179.018l-0.047,-26.347" style="fill:none;stroke:rgb(204,204,204);stroke-width:1.5px;"/>
    <path id="path4" d="M62.383,369.417c0,-4.509 -3.655,-8.164 -8.164,-8.164c-4.509,0 -8.165,3.655 -8.165,8.164c0,4.509 3.656,8.165 8.165,8.165c4.509,0 8.164,-3.656 8.164,-8.165Z" style="fill:rgb(117,117,117);fill-rule:nonzero;stroke:rgb(65,76,85);stroke-width:0.61px;stroke-linecap:butt;stroke-miterlimit:10;"/>
    <path id="polygon6" d="M52.321,374.394l0.553,-0.891l-1.064,-2.393l-2.216,-2.284l0.46,3.101l0.597,1.28l0.833,1.264l0.837,-0.077Z" style="fill:rgb(43,43,43);fill-rule:nonzero;"/>
    <path id="polygon8" d="M56.048,374.401l-0.553,-0.89l1.064,-2.393l2.216,-2.285l-0.46,3.101l-0.597,1.281l-0.833,1.263l-0.837,-0.077Z" style="fill:rgb(38,38,38);fill-rule:nonzero;"/>
    <path id="polygon12" d="M51.636,363.359l2.584,-0.66l0,13.447l-1.349,-2.651l-1.061,-2.385l-1.022,-0.581l-2.052,-2.92l-0.057,-0.776l1.148,-2.067l1.809,-1.407Z" style="fill:rgb(66,66,66);fill-rule:nonzero;"/>
    <path id="polygon14" d="M56.801,363.364l-2.584,-0.661l0,13.448l1.35,-2.651l1.06,-2.385l1.023,-0.581l2.051,-2.921l0.058,-0.775l-1.149,-2.067l-1.809,-1.407Z" style="fill:rgb(51,51,51);fill-rule:nonzero;"/>
    <path id="polyline16" d="M52.496,369.237l1.723,-1.684l0,1.229l-1.723,1.718l0,-1.263" style="fill:rgb(76,76,76);fill-rule:nonzero;"/>
    <path id="polygon18" d="M54.22,368.781l-1.723,1.718l0.377,3.004l1.346,2.643l0,-7.365Z" style="fill:rgb(91,91,91);fill-rule:nonzero;"/>
    <path id="polygon20" d="M54.22,376.146l-1.346,-2.643l1.346,-0.635l0,3.278Z" style="fill:rgb(51,51,51);fill-rule:nonzero;"/>
    <path id="polygon22" d="M52.497,370.499l0,-1.263l-1.249,-1.58l-1.477,-1.19l-0.001,0.932l0.775,1.823l1.952,1.278Z" style="fill:white;fill-rule:nonzero;"/>
    <path id="polyline24" d="M55.942,369.238l-1.722,-1.685l0,1.23l1.722,1.718l0,-1.263" style="fill:rgb(45,45,45);fill-rule:nonzero;"/>
    <path id="polygon26" d="M54.218,368.781l1.722,1.718l-0.376,3.004l-1.347,2.643l0.001,-7.365Z" style="fill:rgb(53,53,53);fill-rule:nonzero;"/>
    <path id="polygon28" d="M54.217,376.146l1.347,-2.643l-1.346,-0.635l-0.001,3.278Z" style="fill:rgb(25,25,25);fill-rule:nonzero;"/>
    <path id="polygon30" d="M55.94,370.499l0,-1.263l1.249,-1.58l1.478,-1.19l0.001,0.932l-0.775,1.823l-1.953,1.278Z" style="fill:white;fill-rule:nonzero;"/>
    <path id="polyline32" d="M51.652,363.338l2.566,4.215l-0.005,-4.87" style="fill:rgb(56,56,56);fill-rule:nonzero;"/>
    <path id="polyline34" d="M56.785,363.338l-2.566,4.215l0.006,-4.869" style="fill:rgb(45,45,45);fill-rule:nonzero;"/>
    <path id="polygon36" d="M51.811,371.111l0.688,-0.611l0.375,3.006l-1.063,-2.395Z" style="fill:rgb(51,51,51);fill-rule:nonzero;"/>
    <path id="polygon38" d="M56.631,371.125l-0.688,-0.61l-0.375,3.006l1.063,-2.396Z" style="fill:rgb(28,28,28);fill-rule:nonzero;"/>
    <path id="path18168" d="M25.158,38.559l0,-5.112l1.378,0l0,0.964c0.357,-0.72 0.9,-1.08 1.63,-1.08c0.087,0 0.172,0.009 0.256,0.027l0,1.23c-0.196,-0.071 -0.377,-0.107 -0.545,-0.107c-0.55,0 -0.997,0.278 -1.341,0.833l0,3.245l-1.378,0Z" style="fill:white;fill-rule:nonzero;"/>
    <path id="path18170" d="M33.654,38.387c-0.654,0.192 -1.275,0.289 -1.862,0.289c-0.853,0 -1.527,-0.243 -2.02,-0.727c-0.493,-0.484 -0.74,-1.145 -0.74,-1.983c0,-0.792 0.225,-1.428 0.677,-1.911c0.451,-0.483 1.049,-0.724 1.79,-0.724c0.748,0 1.295,0.236 1.639,0.707c0.344,0.472 0.516,1.219 0.516,2.239l-3.17,0c0.094,0.976 0.628,1.463 1.607,1.463c0.461,0 0.983,-0.107 1.563,-0.321l0,0.968Zm-3.189,-2.887l1.835,0c0,-0.872 -0.281,-1.307 -0.843,-1.307c-0.571,0 -0.902,0.435 -0.992,1.307Z" style="fill:white;fill-rule:nonzero;"/>
    <path id="path18172" d="M34.944,38.396l0,-1.01c0.683,0.286 1.266,0.428 1.75,0.428c0.566,0 0.848,-0.192 0.848,-0.577c0,-0.248 -0.233,-0.465 -0.699,-0.651l-0.465,-0.187c-0.505,-0.205 -0.868,-0.425 -1.085,-0.662c-0.217,-0.235 -0.326,-0.527 -0.326,-0.874c0,-0.485 0.186,-0.861 0.554,-1.13c0.37,-0.268 0.886,-0.402 1.551,-0.402c0.415,0 0.911,0.06 1.485,0.182l0,0.968c-0.553,-0.193 -1.011,-0.288 -1.374,-0.288c-0.57,0 -0.856,0.177 -0.856,0.53c0,0.233 0.21,0.43 0.633,0.591l0.4,0.153c0.599,0.227 1.015,0.457 1.251,0.69c0.233,0.233 0.351,0.532 0.351,0.899c0,0.48 -0.2,0.871 -0.598,1.171c-0.399,0.298 -0.918,0.449 -1.558,0.449c-0.614,0 -1.235,-0.094 -1.862,-0.28Z" style="fill:white;fill-rule:nonzero;"/>
    <path id="path18174" d="M42.616,38.676c-0.797,0 -1.432,-0.242 -1.902,-0.725c-0.47,-0.482 -0.705,-1.131 -0.705,-1.948c0,-0.826 0.237,-1.477 0.711,-1.955c0.473,-0.478 1.116,-0.717 1.929,-0.717c0.816,0 1.461,0.239 1.934,0.717c0.473,0.478 0.71,1.126 0.71,1.946c0,0.838 -0.237,1.495 -0.712,1.969c-0.474,0.475 -1.13,0.713 -1.965,0.713Zm0.023,-0.862c0.792,0 1.188,-0.607 1.188,-1.82c0,-0.556 -0.105,-0.994 -0.314,-1.317c-0.21,-0.323 -0.498,-0.484 -0.864,-0.484c-0.363,0 -0.649,0.161 -0.859,0.484c-0.21,0.323 -0.314,0.764 -0.314,1.326c0,0.556 0.103,0.997 0.312,1.323c0.207,0.326 0.491,0.488 0.851,0.488Z" style="fill:white;fill-rule:nonzero;"/>
    <path id="path18176" d="M46.56,38.559l0,-5.112l1.377,0l0,0.964c0.45,-0.72 1.031,-1.08 1.742,-1.08c0.456,0 0.816,0.144 1.08,0.433c0.263,0.289 0.396,0.683 0.396,1.183l0,3.612l-1.379,0l0,-3.273c0,-0.58 -0.192,-0.87 -0.577,-0.87c-0.437,0 -0.858,0.308 -1.262,0.927l0,3.216l-1.377,0Z" style="fill:white;fill-rule:nonzero;"/>
    <path id="path18178" d="M55.326,38.01c-0.459,0.443 -0.951,0.666 -1.476,0.666c-0.446,0 -0.81,-0.137 -1.089,-0.41c-0.28,-0.273 -0.419,-0.627 -0.419,-1.062c0,-0.564 0.225,-1 0.677,-1.306c0.451,-0.306 1.098,-0.458 1.939,-0.458l0.368,0l0,-0.466c0,-0.53 -0.302,-0.796 -0.908,-0.796c-0.537,0 -1.08,0.152 -1.629,0.456l0,-0.949c0.623,-0.237 1.241,-0.354 1.852,-0.354c1.339,0 2.007,0.532 2.007,1.597l0,2.262c0,0.4 0.129,0.6 0.386,0.6c0.047,0 0.107,-0.005 0.182,-0.018l0.033,0.773c-0.292,0.087 -0.549,0.131 -0.773,0.131c-0.565,0 -0.928,-0.223 -1.089,-0.666l-0.061,0Zm0,-0.74l0,-1.039l-0.326,0c-0.891,0 -1.336,0.279 -1.336,0.838c0,0.19 0.065,0.349 0.193,0.478c0.129,0.128 0.288,0.193 0.477,0.193c0.323,0 0.654,-0.157 0.992,-0.47Z" style="fill:white;fill-rule:nonzero;"/>
    <path id="path18180" d="M58.426,38.559l0,-5.112l1.379,0l0,0.964c0.45,-0.72 1.03,-1.08 1.741,-1.08c0.456,0 0.816,0.144 1.08,0.433c0.263,0.289 0.396,0.683 0.396,1.183l0,3.612l-1.379,0l0,-3.273c0,-0.58 -0.192,-0.87 -0.577,-0.87c-0.437,0 -0.858,0.308 -1.261,0.927l0,3.216l-1.379,0Z" style="fill:white;fill-rule:nonzero;"/>
    <path id="path18182" d="M67.323,38.532c-0.329,0.095 -0.588,0.144 -0.778,0.144c-1.194,0 -1.791,-0.559 -1.791,-1.676l0,-2.692l-0.573,0l0,-0.861l0.573,0l0,-0.86l1.377,-0.159l0,1.019l1.094,0l0,0.861l-1.094,0l0,2.509c0,0.628 0.256,0.942 0.769,0.942c0.117,0 0.258,-0.023 0.423,-0.066l0,0.839Z" style="fill:white;fill-rule:nonzero;"/>
    <path id="path18184" d="M75.465,38.447c-0.57,0.152 -1.1,0.229 -1.587,0.229c-0.816,0 -1.461,-0.241 -1.934,-0.719c-0.474,-0.48 -0.711,-1.133 -0.711,-1.958c0,-0.835 0.244,-1.489 0.732,-1.961c0.487,-0.471 1.16,-0.707 2.02,-0.707c0.416,0 0.896,0.067 1.439,0.2l0,0.996c-0.565,-0.183 -1.016,-0.274 -1.355,-0.274c-0.413,0 -0.745,0.158 -0.997,0.474c-0.251,0.317 -0.377,0.737 -0.377,1.262c0,0.537 0.136,0.967 0.408,1.29c0.271,0.323 0.633,0.484 1.086,0.484c0.413,0 0.839,-0.09 1.276,-0.27l0,0.954Z" style="fill:white;fill-rule:nonzero;"/>
    <path id="path18186" d="M78.916,38.676c-0.799,0 -1.433,-0.242 -1.903,-0.725c-0.47,-0.482 -0.705,-1.131 -0.705,-1.948c0,-0.826 0.237,-1.477 0.71,-1.955c0.474,-0.478 1.116,-0.717 1.93,-0.717c0.816,0 1.461,0.239 1.934,0.717c0.473,0.478 0.71,1.126 0.71,1.946c0,0.838 -0.237,1.495 -0.712,1.969c-0.475,0.475 -1.13,0.713 -1.964,0.713Zm0.022,-0.862c0.792,0 1.188,-0.607 1.188,-1.82c0,-0.556 -0.105,-0.994 -0.315,-1.317c-0.209,-0.323 -0.497,-0.484 -0.863,-0.484c-0.364,0 -0.649,0.161 -0.859,0.484c-0.21,0.323 -0.315,0.764 -0.315,1.326c0,0.556 0.104,0.997 0.313,1.323c0.207,0.326 0.491,0.488 0.851,0.488Z" style="fill:white;fill-rule:nonzero;"/>
    <path id="path18188" d="M82.859,38.559l0,-5.112l1.322,0l0,0.964c0.403,-0.72 0.977,-1.08 1.723,-1.08c0.384,0 0.701,0.094 0.949,0.284c0.248,0.189 0.401,0.455 0.456,0.796c0.478,-0.72 1.055,-1.08 1.732,-1.08c0.934,0 1.402,0.516 1.402,1.546l0,3.682l-1.323,0l0,-3.231c0,-0.605 -0.202,-0.908 -0.605,-0.908c-0.413,0 -0.815,0.298 -1.206,0.894l0,3.245l-1.322,0l0,-3.231c0,-0.608 -0.203,-0.912 -0.61,-0.912c-0.406,0 -0.805,0.299 -1.196,0.898l0,3.245l-1.322,0Z" style="fill:white;fill-rule:nonzero;"/>
    <path id="path18190" d="M92.104,38.559l0,-7.351l1.378,0l0,3.203c0.354,-0.72 0.911,-1.08 1.672,-1.08c0.614,0 1.097,0.225 1.45,0.675c0.352,0.45 0.528,1.07 0.528,1.857c0,0.854 -0.198,1.536 -0.596,2.047c-0.397,0.51 -0.928,0.766 -1.592,0.766c-0.571,0 -1.058,-0.211 -1.462,-0.634l-0.256,0.517l-1.122,0Zm1.378,-1.336c0.336,0.373 0.693,0.559 1.071,0.559c0.339,0 0.609,-0.164 0.81,-0.491c0.202,-0.327 0.303,-0.765 0.303,-1.311c0,-1.046 -0.337,-1.569 -1.011,-1.569c-0.406,0 -0.797,0.262 -1.173,0.787l0,2.025Z" style="fill:white;fill-rule:nonzero;"/>
    <path id="path18192" d="M101.709,38.559l0,-4.251l-0.703,0l0,-0.861l0.703,0l0,-0.353c0,-0.643 0.152,-1.137 0.458,-1.484c0.305,-0.345 0.742,-0.518 1.306,-0.518c0.347,0 0.717,0.063 1.108,0.19l0,0.941c-0.385,-0.171 -0.671,-0.256 -0.856,-0.256c-0.426,0 -0.639,0.388 -0.639,1.164l0,0.316l3.218,0l0,5.112l-1.378,0l0,-4.251l-1.84,0l0,4.251l-1.377,0Zm3.444,-5.972l0,-1.151l1.151,0l0,1.151l-1.151,0Z" style="fill:white;fill-rule:nonzero;"/>
    <rect id="rect18194" x="108.026" y="31.208" width="1.379" height="7.351" style="fill:white;"/>
    <path id="path18196" d="M113.762,38.532c-0.329,0.095 -0.589,0.144 -0.778,0.144c-1.194,0 -1.793,-0.559 -1.793,-1.676l0,-2.692l-0.571,0l0,-0.861l0.571,0l0,-0.86l1.379,-0.159l0,1.019l1.094,0l0,0.861l-1.094,0l0,2.509c0,0.628 0.256,0.942 0.767,0.942c0.119,0 0.26,-0.023 0.425,-0.066l0,0.839Z" style="fill:white;fill-rule:nonzero;"/>
    <path id="path18198" d="M119.152,38.387c-0.654,0.192 -1.275,0.289 -1.861,0.289c-0.855,0 -1.528,-0.243 -2.021,-0.727c-0.494,-0.484 -0.74,-1.145 -0.74,-1.983c0,-0.792 0.225,-1.428 0.677,-1.911c0.451,-0.483 1.048,-0.724 1.791,-0.724c0.747,0 1.293,0.236 1.638,0.707c0.345,0.472 0.516,1.219 0.516,2.239l-3.17,0c0.093,0.976 0.629,1.463 1.606,1.463c0.463,0 0.984,-0.107 1.564,-0.321l0,0.968Zm-3.189,-2.887l1.835,0c0,-0.872 -0.281,-1.307 -0.843,-1.307c-0.57,0 -0.902,0.435 -0.992,1.307Z" style="fill:white;fill-rule:nonzero;"/>
    <path id="path18200" d="M120.577,38.559l0,-5.112l1.378,0l0,0.964c0.358,-0.72 0.901,-1.08 1.629,-1.08c0.088,0 0.173,0.009 0.256,0.027l0,1.23c-0.194,-0.071 -0.376,-0.107 -0.544,-0.107c-0.549,0 -0.996,0.278 -1.341,0.833l0,3.245l-1.378,0Z" style="fill:white;fill-rule:nonzero;"/>
    <path id="path18209" d="M45.148,21.948l0.466,0c0.486,0 0.859,-0.099 1.119,-0.301c0.261,-0.201 0.39,-0.491 0.39,-0.868c0,-0.377 -0.129,-0.666 -0.39,-0.868c-0.26,-0.201 -0.633,-0.301 -1.119,-0.301l-0.466,0l0,2.338Zm5.422,5.247l-3.069,0l-2.353,-3.648l0,3.648l-2.466,0l0,-9.485l3.837,0c0.529,0 0.99,0.078 1.384,0.232c0.395,0.156 0.72,0.368 0.975,0.635c0.256,0.269 0.449,0.58 0.578,0.931c0.131,0.353 0.196,0.73 0.196,1.133c0,0.721 -0.174,1.306 -0.522,1.755c-0.349,0.449 -0.862,0.753 -1.541,0.912l2.981,3.887Z" style="fill:rgb(172,181,188);fill-rule:nonzero;"/>
    <path id="path18211" d="M56.998,19.797l-2.931,0l0,1.585l2.768,0l0,2.089l-2.768,0l0,1.635l2.931,0l0,2.089l-5.396,0l0,-9.485l5.396,0l0,2.087Z" style="fill:rgb(172,181,188);fill-rule:nonzero;"/>
    <path id="path18213" d="M63.98,20.137c-0.268,-0.217 -0.537,-0.38 -0.805,-0.483c-0.269,-0.106 -0.529,-0.158 -0.78,-0.158c-0.319,0 -0.578,0.075 -0.78,0.227c-0.201,0.15 -0.302,0.347 -0.302,0.591c0,0.168 0.051,0.305 0.151,0.414c0.101,0.11 0.233,0.204 0.397,0.284c0.163,0.08 0.347,0.149 0.552,0.208c0.207,0.059 0.409,0.121 0.612,0.188c0.804,0.269 1.393,0.627 1.767,1.076c0.373,0.449 0.559,1.033 0.559,1.754c0,0.488 -0.082,0.927 -0.245,1.321c-0.163,0.395 -0.403,0.733 -0.717,1.013c-0.315,0.281 -0.7,0.499 -1.158,0.655c-0.457,0.154 -0.975,0.232 -1.553,0.232c-1.199,0 -2.311,-0.356 -3.334,-1.069l1.056,-1.988c0.369,0.328 0.734,0.57 1.095,0.73c0.361,0.16 0.717,0.238 1.07,0.238c0.402,0 0.702,-0.092 0.899,-0.276c0.197,-0.185 0.296,-0.394 0.296,-0.63c0,-0.142 -0.026,-0.265 -0.075,-0.37c-0.051,-0.105 -0.135,-0.201 -0.252,-0.289c-0.118,-0.089 -0.27,-0.17 -0.459,-0.246c-0.189,-0.075 -0.417,-0.159 -0.686,-0.251c-0.319,-0.101 -0.632,-0.211 -0.937,-0.334c-0.306,-0.121 -0.579,-0.282 -0.817,-0.483c-0.24,-0.203 -0.433,-0.456 -0.58,-0.762c-0.146,-0.307 -0.219,-0.694 -0.219,-1.163c0,-0.47 0.077,-0.896 0.233,-1.277c0.154,-0.383 0.373,-0.709 0.654,-0.982c0.281,-0.272 0.624,-0.483 1.03,-0.635c0.408,-0.151 0.862,-0.227 1.366,-0.227c0.47,0 0.96,0.066 1.471,0.196c0.512,0.129 1.002,0.32 1.472,0.571l-0.981,1.925Z" style="fill:rgb(172,181,188);fill-rule:nonzero;"/>
    <path id="path18215" d="M73.729,20.88c-0.57,-0.696 -1.274,-1.044 -2.113,-1.044c-0.369,0 -0.71,0.067 -1.025,0.201c-0.314,0.135 -0.586,0.317 -0.812,0.548c-0.227,0.23 -0.404,0.504 -0.534,0.823c-0.131,0.319 -0.195,0.663 -0.195,1.032c0,0.377 0.064,0.725 0.195,1.044c0.13,0.318 0.31,0.596 0.54,0.83c0.231,0.234 0.501,0.42 0.812,0.554c0.31,0.133 0.646,0.201 1.007,0.201c0.788,0 1.497,-0.335 2.125,-1.007l0,2.918l-0.251,0.09c-0.377,0.133 -0.73,0.231 -1.057,0.295c-0.327,0.063 -0.65,0.094 -0.968,0.094c-0.655,0 -1.281,-0.124 -1.881,-0.371c-0.6,-0.247 -1.128,-0.595 -1.585,-1.044c-0.458,-0.449 -0.824,-0.982 -1.101,-1.598c-0.277,-0.617 -0.416,-1.289 -0.416,-2.019c0,-0.729 0.137,-1.399 0.409,-2.006c0.273,-0.609 0.638,-1.132 1.095,-1.573c0.457,-0.44 0.988,-0.783 1.592,-1.031c0.603,-0.248 1.237,-0.372 1.899,-0.372c0.377,0 0.749,0.04 1.113,0.12c0.365,0.08 0.749,0.204 1.151,0.372l0,2.943Z" style="fill:rgb(172,181,188);fill-rule:nonzero;"/>
    <path id="path18217" d="M77.579,22.452c0,0.378 0.071,0.726 0.214,1.044c0.142,0.318 0.336,0.596 0.578,0.831c0.244,0.235 0.526,0.417 0.85,0.546c0.322,0.131 0.664,0.196 1.025,0.196c0.36,0 0.702,-0.065 1.025,-0.196c0.323,-0.129 0.608,-0.311 0.856,-0.546c0.246,-0.235 0.442,-0.513 0.585,-0.831c0.142,-0.318 0.213,-0.666 0.213,-1.044c0,-0.377 -0.071,-0.725 -0.213,-1.044c-0.143,-0.319 -0.339,-0.596 -0.585,-0.83c-0.248,-0.234 -0.533,-0.417 -0.856,-0.547c-0.323,-0.13 -0.665,-0.195 -1.025,-0.195c-0.361,0 -0.703,0.065 -1.025,0.195c-0.324,0.13 -0.606,0.313 -0.85,0.547c-0.242,0.234 -0.436,0.511 -0.578,0.83c-0.143,0.319 -0.214,0.667 -0.214,1.044Zm-2.579,0c0,-0.705 0.13,-1.36 0.39,-1.969c0.26,-0.607 0.621,-1.138 1.082,-1.591c0.461,-0.453 1.012,-0.807 1.654,-1.063c0.642,-0.256 1.348,-0.384 2.12,-0.384c0.764,0 1.468,0.128 2.113,0.384c0.646,0.256 1.201,0.61 1.667,1.063c0.465,0.453 0.829,0.984 1.089,1.591c0.259,0.609 0.39,1.264 0.39,1.969c0,0.705 -0.131,1.361 -0.39,1.969c-0.26,0.608 -0.624,1.138 -1.089,1.591c-0.466,0.453 -1.021,0.807 -1.667,1.063c-0.645,0.256 -1.349,0.384 -2.113,0.384c-0.772,0 -1.478,-0.128 -2.12,-0.384c-0.642,-0.256 -1.193,-0.61 -1.654,-1.063c-0.461,-0.453 -0.822,-0.983 -1.082,-1.591c-0.26,-0.608 -0.39,-1.264 -0.39,-1.969Z" style="fill:rgb(172,181,188);fill-rule:nonzero;"/>
    <path id="path18219" d="M86.637,27.195l1.61,-9.485l2.44,0l1.9,5.056l1.887,-5.056l2.44,0l1.61,9.485l-2.453,0l-0.818,-5.46l-2.239,5.46l-0.981,0l-2.126,-5.46l-0.818,5.46l-2.452,0Z" style="fill:rgb(172,181,188);fill-rule:nonzero;"/>
    <path id="path18221" d="M102.549,25.282l0.542,0c0.62,0 1.065,-0.078 1.334,-0.238c0.267,-0.16 0.402,-0.416 0.402,-0.767c0,-0.353 -0.135,-0.609 -0.402,-0.768c-0.269,-0.159 -0.714,-0.239 -1.334,-0.239l-0.542,0l0,2.012Zm0,-3.849l0.453,0c0.773,0 1.158,-0.306 1.158,-0.918c0,-0.612 -0.385,-0.919 -1.158,-0.919l-0.453,0l0,1.837Zm-2.465,-3.723l3.673,0c0.873,0 1.535,0.209 1.988,0.629c0.452,0.42 0.679,1.023 0.679,1.811c0,0.479 -0.085,0.874 -0.257,1.188c-0.172,0.316 -0.434,0.581 -0.786,0.8c0.352,0.068 0.651,0.17 0.899,0.309c0.248,0.137 0.449,0.307 0.603,0.508c0.156,0.202 0.267,0.428 0.333,0.68c0.068,0.251 0.102,0.519 0.102,0.805c0,0.444 -0.078,0.838 -0.233,1.182c-0.155,0.345 -0.373,0.634 -0.654,0.868c-0.281,0.235 -0.622,0.412 -1.026,0.529c-0.402,0.117 -0.855,0.176 -1.359,0.176l-3.962,0l0,-9.485Z" style="fill:rgb(172,181,188);fill-rule:nonzero;"/>
    <path id="path3131" d="M143.249,319.323c0,-3.321 -2.697,-6.018 -6.018,-6.018l-47.146,0c-3.321,0 -6.018,2.697 -6.018,6.018l0,31.59c0,3.322 2.697,6.018 6.018,6.018l47.146,0c3.321,0 6.018,-2.696 6.018,-6.018l0,-31.59Z" style="stroke:rgb(65,76,85);stroke-width:1.06px;stroke-linecap:butt;"/>
    <rect id="rect3135" x="25.395" y="349.575" width="1.569" height="6.035" style="fill:white;"/>
    <path id="path3137" d="M28.228,355.61l0,-6.035l1.568,0l2.898,3.69l0,-3.69l1.56,0l0,6.035l-1.56,0l-2.898,-3.69l0,3.69l-1.568,0Z" style="fill:white;fill-rule:nonzero;"/>
    <path id="path3139" d="M37.087,352.344l0.521,0c0.576,0 0.864,-0.252 0.864,-0.752c0,-0.5 -0.288,-0.752 -0.864,-0.752l-0.521,0l0,1.504Zm0,3.266l-1.568,0l0,-6.035l2.497,0c0.676,0 1.196,0.176 1.556,0.529c0.361,0.352 0.541,0.848 0.541,1.488c0,0.64 -0.18,1.137 -0.541,1.489c-0.36,0.352 -0.88,0.528 -1.556,0.528l-0.929,0l0,2.001Z" style="fill:white;fill-rule:nonzero;"/>
    <path id="path3141" d="M42.514,349.575l0,3.282c0,0.176 0.008,0.356 0.02,0.54c0.012,0.184 0.052,0.352 0.12,0.5c0.068,0.148 0.172,0.272 0.316,0.364c0.144,0.092 0.348,0.14 0.608,0.14c0.26,0 0.464,-0.048 0.604,-0.14c0.14,-0.092 0.248,-0.216 0.316,-0.364c0.069,-0.148 0.113,-0.316 0.125,-0.5c0.012,-0.184 0.02,-0.364 0.02,-0.54l0,-3.282l1.56,0l0,3.498c0,0.94 -0.216,1.624 -0.644,2.057c-0.428,0.432 -1.089,0.648 -1.981,0.648c-0.892,0 -1.553,-0.216 -1.985,-0.648c-0.432,-0.433 -0.648,-1.117 -0.648,-2.057l0,-3.498l1.569,0Z" style="fill:white;fill-rule:nonzero;"/>
    <path id="path3143" d="M49.757,350.904l0,4.706l-1.569,0l0,-4.706l-1.289,0l0,-1.329l4.146,0l0,1.329l-1.288,0Z" style="fill:white;fill-rule:nonzero;"/>
    <path id="path3148" d="M98.235,352.593c0,0.24 0.044,0.464 0.136,0.664c0.088,0.204 0.212,0.38 0.368,0.528c0.152,0.152 0.332,0.264 0.54,0.348c0.204,0.084 0.42,0.124 0.653,0.124c0.228,0 0.444,-0.04 0.652,-0.124c0.204,-0.084 0.384,-0.196 0.54,-0.348c0.16,-0.148 0.284,-0.324 0.372,-0.528c0.092,-0.2 0.136,-0.424 0.136,-0.664c0,-0.241 -0.044,-0.461 -0.136,-0.665c-0.088,-0.2 -0.212,-0.376 -0.372,-0.528c-0.156,-0.148 -0.336,-0.264 -0.54,-0.348c-0.208,-0.08 -0.424,-0.124 -0.652,-0.124c-0.233,0 -0.449,0.044 -0.653,0.124c-0.208,0.084 -0.388,0.2 -0.54,0.348c-0.156,0.152 -0.28,0.328 -0.368,0.528c-0.092,0.204 -0.136,0.424 -0.136,0.665Zm-1.641,0c0,-0.449 0.084,-0.865 0.248,-1.253c0.164,-0.384 0.396,-0.72 0.689,-1.008c0.292,-0.289 0.644,-0.517 1.052,-0.677c0.408,-0.164 0.856,-0.244 1.349,-0.244c0.484,0 0.932,0.08 1.34,0.244c0.412,0.16 0.764,0.388 1.061,0.677c0.296,0.288 0.528,0.624 0.692,1.008c0.168,0.388 0.248,0.804 0.248,1.253c0,0.448 -0.08,0.868 -0.248,1.252c-0.164,0.388 -0.396,0.724 -0.692,1.012c-0.297,0.289 -0.649,0.513 -1.061,0.677c-0.408,0.164 -0.856,0.244 -1.34,0.244c-0.493,0 -0.941,-0.08 -1.349,-0.244c-0.408,-0.164 -0.76,-0.388 -1.052,-0.677c-0.293,-0.288 -0.525,-0.624 -0.689,-1.012c-0.164,-0.384 -0.248,-0.804 -0.248,-1.252Z" style="fill:white;fill-rule:nonzero;"/>
    <path id="path3150" d="M105.834,349.579l0,3.278c0,0.176 0.008,0.356 0.02,0.54c0.012,0.184 0.052,0.352 0.12,0.5c0.068,0.148 0.172,0.272 0.316,0.364c0.144,0.092 0.348,0.14 0.608,0.14c0.261,0 0.465,-0.048 0.605,-0.14c0.14,-0.092 0.244,-0.216 0.316,-0.364c0.068,-0.148 0.108,-0.316 0.124,-0.5c0.012,-0.184 0.02,-0.364 0.02,-0.54l0,-3.278l1.561,0l0,3.494c0,0.94 -0.217,1.624 -0.645,2.057c-0.432,0.432 -1.092,0.648 -1.981,0.648c-0.892,0 -1.552,-0.216 -1.984,-0.648c-0.433,-0.433 -0.649,-1.117 -0.649,-2.057l0,-3.494l1.569,0Z" style="fill:white;fill-rule:nonzero;"/>
    <path id="path3152" d="M113.073,350.904l0,4.706l-1.569,0l0,-4.706l-1.284,0l0,-1.325l4.142,0l0,1.325l-1.289,0Z" style="fill:white;fill-rule:nonzero;"/>
    <path id="path3154" d="M116.626,352.344l0.521,0c0.576,0 0.864,-0.248 0.864,-0.752c0,-0.5 -0.288,-0.752 -0.864,-0.752l-0.521,0l0,1.504Zm0,3.266l-1.568,0l0,-6.031l2.497,0c0.676,0 1.196,0.176 1.556,0.529c0.361,0.352 0.541,0.844 0.541,1.484c0,0.64 -0.18,1.137 -0.541,1.489c-0.36,0.352 -0.88,0.528 -1.556,0.528l-0.929,0l0,2.001Z" style="fill:white;fill-rule:nonzero;"/>
    <path id="path3156" d="M122.049,349.579l0,3.278c0,0.176 0.008,0.356 0.02,0.54c0.016,0.184 0.056,0.352 0.12,0.5c0.068,0.148 0.172,0.272 0.316,0.364c0.144,0.092 0.348,0.14 0.608,0.14c0.264,0 0.464,-0.048 0.604,-0.14c0.14,-0.092 0.249,-0.216 0.317,-0.364c0.068,-0.148 0.112,-0.316 0.124,-0.5c0.012,-0.184 0.02,-0.364 0.02,-0.54l0,-3.278l1.56,0l0,3.494c0,0.94 -0.216,1.624 -0.644,2.057c-0.428,0.432 -1.088,0.648 -1.981,0.648c-0.888,0 -1.552,-0.216 -1.985,-0.648c-0.432,-0.433 -0.648,-1.117 -0.648,-2.057l0,-3.494l1.569,0Z" style="fill:white;fill-rule:nonzero;"/>
    <path id="path3158" d="M129.292,350.904l0,4.706l-1.569,0l0,-4.706l-1.288,0l0,-1.325l4.141,0l0,1.325l-1.284,0Z" style="fill:white;fill-rule:nonzero;"/>
    <path id="path3163" d="M22.714,315.474l0,3.529l1.412,0l0,0.997l-2.589,0l0,-4.526l1.177,0Z" style="fill:rgb(140,140,140);fill-rule:nonzero;"/>
    <path id="path3167" d="M51.714,317.499l0.224,0c0.232,0 0.408,-0.048 0.532,-0.144c0.124,-0.096 0.188,-0.236 0.188,-0.416c0,-0.181 -0.064,-0.317 -0.188,-0.413c-0.124,-0.096 -0.3,-0.144 -0.532,-0.144l-0.224,0l0,1.117Zm2.589,2.501l-1.465,0l-1.124,-1.741l0,1.741l-1.177,0l0,-4.526l1.833,0c0.252,0 0.472,0.04 0.66,0.112c0.188,0.076 0.34,0.176 0.464,0.304c0.12,0.128 0.213,0.276 0.277,0.444c0.06,0.168 0.092,0.348 0.092,0.541c0,0.344 -0.084,0.624 -0.249,0.836c-0.168,0.212 -0.412,0.36 -0.736,0.436l1.425,1.853Z" style="fill:rgb(140,140,140);fill-rule:nonzero;"/>
    <path id="path3171" d="M99.714,315.474l0,3.529l1.412,0l0,0.997l-2.589,0l0,-4.526l1.177,0Z" style="fill:rgb(140,140,140);fill-rule:nonzero;"/>
    <path id="path3175" d="M125.714,317.499l0.224,0c0.232,0 0.408,-0.048 0.532,-0.144c0.124,-0.096 0.188,-0.236 0.188,-0.416c0,-0.181 -0.064,-0.317 -0.188,-0.413c-0.124,-0.096 -0.3,-0.144 -0.532,-0.144l-0.224,0l0,1.117Zm2.589,2.501l-1.465,0l-1.124,-1.741l0,1.741l-1.177,0l0,-4.526l1.833,0c0.252,0 0.472,0.04 0.66,0.112c0.188,0.076 0.34,0.176 0.464,0.304c0.12,0.128 0.213,0.276 0.277,0.444c0.06,0.168 0.092,0.348 0.092,0.541c0,0.344 -0.084,0.624 -0.249,0.836c-0.168,0.212 -0.412,0.36 -0.736,0.436l1.425,1.853Z" style="fill:rgb(140,140,140);fill-rule:nonzero;"/>
  </g>
</svg>