<svg width="150px" height="380px" version="1.1" xmlns="http://www.w3.org/2000/svg" xmlns:xlink="http://www.w3.org/1999/xlink" xml:space="preserve" xmlns:serif="http://www.serif.com/" style="fill-rule:evenodd;clip-rule:evenodd;">
  <defs>
    <linearGradient id="_Linear1" x1="0" y1="0" x2="1" y2="0" gradientUnits="userSpaceOnUse" gradientTransform="matrix(150,-379.998,379.998,150,0.0435799,379.998)">
      <stop offset="0" style="stop-color:rgb(9,13,17);stop-opacity:1"/>
      <stop offset="1" style="stop-color:rgb(24,35,46);stop-opacity:1"/>
    </linearGradient>
  </defs>
  <g id="Panel">
    <rect id="rect9931" x="0" y="0" width="150" height="380" style="fill:rgb(26,26,26);"/>
    <rect id="rect2024" x="0.044" y="0" width="150" height="379.998" style="fill:url(#_Linear1);"/>
    <path id="path42" d="M62.952,363.5l2.673,0l2.49,8.317l2.574,-8.317l2.66,0l-3.46,10.397c-0.323,0.959 -0.903,1.438 -1.738,1.438c-0.847,0 -1.433,-0.484 -1.755,-1.453l-3.444,-10.382Z" style="fill:rgb(172,181,188);fill-rule:nonzero;"/>
    <path id="path44" d="M73.55,372.292l0,-8.792l2.507,0l0,8.709c0.044,0.312 0.334,0.468 0.869,0.468l1.705,0c0.513,0 0.797,-0.145 0.853,-0.435l0.017,-0.083l0,-8.659l2.507,0l0,8.776c0,0.769 -0.083,1.315 -0.251,1.638c-0.445,0.858 -1.231,1.287 -2.357,1.287l-3.243,0c-1.159,0 -1.95,-0.44 -2.373,-1.321c-0.156,-0.323 -0.234,-0.852 -0.234,-1.588Z" style="fill:rgb(172,181,188);fill-rule:nonzero;"/>
    <path id="path46" d="M83.161,372.343l0,-8.843l2.508,0l0,8.642c0,0.357 0.211,0.535 0.635,0.535l4.463,0l-0.016,2.524l-4.664,0c-0.167,0 -0.312,-0.005 -0.435,-0.017c-0.903,-0.077 -1.544,-0.342 -1.922,-0.794c-0.379,-0.451 -0.569,-1.134 -0.569,-2.047Z" style="fill:rgb(172,181,188);fill-rule:nonzero;"/>
    <path id="path48" d="M90.851,366.024l0,-2.524l7.522,0l0,2.524l-2.524,0l0,9.177l-2.508,0l0,-9.177l-2.49,0Z" style="fill:rgb(172,181,188);fill-rule:nonzero;"/>
    <path id="path2212" d="M143.249,319.323c0,-3.321 -2.697,-6.018 -6.018,-6.018l-47.146,0c-3.321,0 -6.018,2.697 -6.018,6.018l0,31.59c0,3.322 2.697,6.018 6.018,6.018l47.146,0c3.321,0 6.018,-2.696 6.018,-6.018l0,-31.59Z" style="stroke:rgb(65,76,85);stroke-width:1.06px;"/>
    <path id="path4" d="M59.383,369.417c0,-4.509 -3.655,-8.164 -8.164,-8.164c-4.509,0 -8.165,3.655 -8.165,8.164c0,4.509 3.656,8.165 8.165,8.165c4.509,0 8.164,-3.656 8.164,-8.165Z" style="fill:rgb(117,117,117);fill-rule:nonzero;stroke:rgb(65,76,85);stroke-width:0.61px;stroke-miterlimit:10;"/>
    <g id="g40">
      <path id="polygon6" d="M49.321,374.394l0.553,-0.891l-1.064,-2.393l-2.216,-2.284l0.46,3.101l0.597,1.28l0.833,1.264l0.837,-0.077Z" style="fill:rgb(43,43,43);fill-rule:nonzero;stroke:rgb(65,76,85);stroke-width:0.04px;"/>
      <path id="polygon8" d="M53.048,374.401l-0.553,-0.89l1.064,-2.393l2.216,-2.285l-0.46,3.101l-0.597,1.281l-0.833,1.263l-0.837,-0.077Z" style="fill:rgb(38,38,38);fill-rule:nonzero;stroke:rgb(65,76,85);stroke-width:0.04px;"/>
      <path id="polygon12" d="M48.636,363.359l2.584,-0.66l0,13.447l-1.349,-2.651l-1.061,-2.385l-1.022,-0.581l-2.052,-2.92l-0.057,-0.776l1.148,-2.067l1.809,-1.407Z" style="fill:rgb(66,66,66);fill-rule:nonzero;stroke:rgb(65,76,85);stroke-width:0.04px;"/>
      <path id="polygon14" d="M53.801,363.364l-2.584,-0.661l0,13.448l1.35,-2.651l1.06,-2.385l1.023,-0.581l2.051,-2.921l0.058,-0.775l-1.149,-2.067l-1.809,-1.407Z" style="fill:rgb(51,51,51);fill-rule:nonzero;stroke:rgb(65,76,85);stroke-width:0.04px;"/>
      <path id="polyline16" d="M49.496,369.237l1.723,-1.684l0,1.229l-1.723,1.718l0,-1.263" style="fill:rgb(76,76,76);fill-rule:nonzero;stroke:rgb(65,76,85);stroke-width:0.04px;"/>
      <path id="polygon18" d="M51.22,368.781l-1.723,1.718l0.377,3.004l1.346,2.643l0,-7.365Z" style="fill:rgb(91,91,91);fill-rule:nonzero;stroke:rgb(65,76,85);stroke-width:0.04px;"/>
      <path id="polygon20" d="M51.22,376.146l-1.346,-2.643l1.346,-0.635l0,3.278Z" style="fill:rgb(51,51,51);fill-rule:nonzero;stroke:rgb(65,76,85);stroke-width:0.04px;"/>
      <path id="polygon22" d="M49.497,370.499l0,-1.263l-1.249,-1.58l-1.477,-1.19l-0.001,0.932l0.775,1.823l1.952,1.278Z" style="fill:white;fill-rule:nonzero;stroke:rgb(65,76,85);stroke-width:0.04px;"/>
      <path id="polyline24" d="M52.942,369.238l-1.722,-1.685l0,1.23l1.722,1.718l0,-1.263" style="fill:rgb(45,45,45);fill-rule:nonzero;stroke:rgb(65,76,85);stroke-width:0.04px;"/>
      <path id="polygon26" d="M51.218,368.781l1.722,1.718l-0.376,3.004l-1.347,2.643l0.001,-7.365Z" style="fill:rgb(53,53,53);fill-rule:nonzero;stroke:rgb(65,76,85);stroke-width:0.04px;"/>
      <path id="polygon28" d="M51.217,376.146l1.347,-2.643l-1.346,-0.635l-0.001,3.278Z" style="fill:rgb(25,25,25);fill-rule:nonzero;stroke:rgb(65,76,85);stroke-width:0.04px;"/>
      <path id="polygon30" d="M52.94,370.499l0,-1.263l1.249,-1.58l1.478,-1.19l0.001,0.932l-0.775,1.823l-1.953,1.278Z" style="fill:white;fill-rule:nonzero;stroke:rgb(65,76,85);stroke-width:0.04px;"/>
      <path id="polyline32" d="M48.652,363.338l2.566,4.215l-0.005,-4.87" style="fill:rgb(56,56,56);fill-rule:nonzero;stroke:rgb(65,76,85);stroke-width:0.04px;"/>
      <path id="polyline34" d="M53.785,363.338l-2.566,4.215l0.006,-4.869" style="fill:rgb(45,45,45);fill-rule:nonzero;stroke:rgb(65,76,85);stroke-width:0.04px;"/>
      <path id="polygon36" d="M48.811,371.111l0.688,-0.611l0.375,3.006l-1.063,-2.395Z" style="fill:rgb(51,51,51);fill-rule:nonzero;stroke:rgb(65,76,85);stroke-width:0.04px;"/>
      <path id="polygon38" d="M53.631,371.125l-0.688,-0.61l-0.375,3.006l1.063,-2.396Z" style="fill:rgb(28,28,28);fill-rule:nonzero;stroke:rgb(65,76,85);stroke-width:0.04px;"/>
    </g>
    <rect id="rect2235" x="25.395" y="349.575" width="1.569" height="6.035" style="fill:white;"/>
    <path id="path2237" d="M28.228,355.61l0,-6.035l1.568,0l2.898,3.69l0,-3.69l1.56,0l0,6.035l-1.56,0l-2.898,-3.69l0,3.69l-1.568,0Z" style="fill:white;fill-rule:nonzero;"/>
    <path id="path2239" d="M37.087,352.344l0.521,0c0.576,0 0.864,-0.252 0.864,-0.752c0,-0.5 -0.288,-0.752 -0.864,-0.752l-0.521,0l0,1.504Zm0,3.266l-1.568,0l0,-6.035l2.497,0c0.676,0 1.196,0.176 1.556,0.529c0.361,0.352 0.541,0.848 0.541,1.488c0,0.64 -0.18,1.137 -0.541,1.489c-0.36,0.352 -0.88,0.528 -1.556,0.528l-0.929,0l0,2.001Z" style="fill:white;fill-rule:nonzero;"/>
    <path id="path2241" d="M42.514,349.575l0,3.282c0,0.176 0.008,0.356 0.02,0.54c0.012,0.184 0.052,0.352 0.12,0.5c0.068,0.148 0.172,0.272 0.316,0.364c0.144,0.092 0.348,0.14 0.608,0.14c0.26,0 0.464,-0.048 0.604,-0.14c0.14,-0.092 0.248,-0.216 0.316,-0.364c0.069,-0.148 0.113,-0.316 0.125,-0.5c0.012,-0.184 0.02,-0.364 0.02,-0.54l0,-3.282l1.56,0l0,3.498c0,0.94 -0.216,1.624 -0.644,2.057c-0.428,0.432 -1.089,0.648 -1.981,0.648c-0.892,0 -1.553,-0.216 -1.985,-0.648c-0.432,-0.433 -0.648,-1.117 -0.648,-2.057l0,-3.498l1.569,0Z" style="fill:white;fill-rule:nonzero;"/>
    <path id="path2243" d="M49.757,350.904l0,4.706l-1.569,0l0,-4.706l-1.289,0l0,-1.329l4.146,0l0,1.329l-1.288,0Z" style="fill:white;fill-rule:nonzero;"/>
    <path id="path2248" d="M98.235,352.593c0,0.24 0.044,0.464 0.136,0.664c0.088,0.204 0.212,0.38 0.368,0.528c0.152,0.152 0.332,0.264 0.54,0.348c0.204,0.084 0.42,0.124 0.653,0.124c0.228,0 0.444,-0.04 0.652,-0.124c0.204,-0.084 0.384,-0.196 0.54,-0.348c0.16,-0.148 0.284,-0.324 0.372,-0.528c0.092,-0.2 0.136,-0.424 0.136,-0.664c0,-0.241 -0.044,-0.461 -0.136,-0.665c-0.088,-0.2 -0.212,-0.376 -0.372,-0.528c-0.156,-0.148 -0.336,-0.264 -0.54,-0.348c-0.208,-0.08 -0.424,-0.124 -0.652,-0.124c-0.233,0 -0.449,0.044 -0.653,0.124c-0.208,0.084 -0.388,0.2 -0.54,0.348c-0.156,0.152 -0.28,0.328 -0.368,0.528c-0.092,0.204 -0.136,0.424 -0.136,0.665Zm-1.641,0c0,-0.449 0.084,-0.865 0.248,-1.253c0.164,-0.384 0.396,-0.72 0.689,-1.008c0.292,-0.289 0.644,-0.517 1.052,-0.677c0.408,-0.164 0.856,-0.244 1.349,-0.244c0.484,0 0.932,0.08 1.34,0.244c0.412,0.16 0.764,0.388 1.061,0.677c0.296,0.288 0.528,0.624 0.692,1.008c0.168,0.388 0.248,0.804 0.248,1.253c0,0.448 -0.08,0.868 -0.248,1.252c-0.164,0.388 -0.396,0.724 -0.692,1.012c-0.297,0.289 -0.649,0.513 -1.061,0.677c-0.408,0.164 -0.856,0.244 -1.34,0.244c-0.493,0 -0.941,-0.08 -1.349,-0.244c-0.408,-0.164 -0.76,-0.388 -1.052,-0.677c-0.293,-0.288 -0.525,-0.624 -0.689,-1.012c-0.164,-0.384 -0.248,-0.804 -0.248,-1.252Z" style="fill:white;fill-rule:nonzero;"/>
    <path id="path2250" d="M105.834,349.579l0,3.278c0,0.176 0.008,0.356 0.02,0.54c0.012,0.184 0.052,0.352 0.12,0.5c0.068,0.148 0.172,0.272 0.316,0.364c0.144,0.092 0.348,0.14 0.608,0.14c0.261,0 0.465,-0.048 0.605,-0.14c0.14,-0.092 0.244,-0.216 0.316,-0.364c0.068,-0.148 0.108,-0.316 0.124,-0.5c0.012,-0.184 0.02,-0.364 0.02,-0.54l0,-3.278l1.561,0l0,3.494c0,0.94 -0.217,1.624 -0.645,2.057c-0.432,0.432 -1.092,0.648 -1.981,0.648c-0.892,0 -1.552,-0.216 -1.984,-0.648c-0.433,-0.433 -0.649,-1.117 -0.649,-2.057l0,-3.494l1.569,0Z" style="fill:white;fill-rule:nonzero;"/>
    <path d="M13.463,134.867c21.547,-1.334 83.801,-2.162 122.515,0c11.965,0.668 11.127,7.034 11.444,7.258c0.084,0.059 0,65.516 0,65.516c0,0 -1.371,3.208 -2.764,4.138c-1.392,0.928 -3.678,1.366 -3.678,1.366l-132.035,0c0,0 -2.19,0.066 -4.41,-1.366c-2.111,-1.363 -2.132,-2.74 -2.132,-2.74l0,-66.914c0,0 -0.45,-3.12 1.066,-4.115c1.843,-1.21 5.156,-2.844 9.994,-3.143Z" style="fill:rgb(23,34,43);stroke:rgb(55,55,55);stroke-width:1.5px;stroke-linecap:round;stroke-linejoin:round;stroke-miterlimit:1.5;"/>
    <path d="M13.463,219.856c21.547,-1.539 83.801,-2.494 122.515,0c11.965,0.77 11.127,8.113 11.444,8.372c0.084,0.068 0,75.569 0,75.569c0,0 -1.371,3.7 -2.764,4.772c-1.392,1.071 -3.678,1.576 -3.678,1.576l-132.035,0c0,0 -2.19,0.076 -4.41,-1.576c-2.111,-1.572 -2.132,-3.16 -2.132,-3.16l0,-77.181c0,0 -0.45,-3.599 1.066,-4.747c1.843,-1.396 5.156,-3.28 9.994,-3.625Z" style="fill:rgb(23,34,43);stroke:rgb(55,55,55);stroke-width:1.5px;stroke-linecap:round;stroke-linejoin:round;stroke-miterlimit:1.5;"/>
    <path id="path2252" d="M113.073,350.904l0,4.706l-1.569,0l0,-4.706l-1.284,0l0,-1.325l4.142,0l0,1.325l-1.289,0Z" style="fill:white;fill-rule:nonzero;"/>
    <path d="M147.145,228.623c0,-4.012 -4.257,-7.813 -8.509,-8.237l-13.3,0c-4.013,0 -7.27,3.257 -7.27,7.27l0,19.852c0,4.012 3.257,7.27 7.27,7.27l14.539,0c4.012,0 7.27,-3.258 7.27,-7.27l0,-18.885Z" style="stroke:rgb(65,76,85);stroke-width:0.75px;stroke-linecap:round;stroke-linejoin:round;stroke-miterlimit:1.5;"/>
    <path id="path2254" d="M116.626,352.344l0.521,0c0.576,0 0.864,-0.248 0.864,-0.752c0,-0.5 -0.288,-0.752 -0.864,-0.752l-0.521,0l0,1.504Zm0,3.266l-1.568,0l0,-6.031l2.497,0c0.676,0 1.196,0.176 1.556,0.529c0.361,0.352 0.541,0.844 0.541,1.484c0,0.64 -0.18,1.137 -0.541,1.489c-0.36,0.352 -0.88,0.528 -1.556,0.528l-0.929,0l0,2.001Z" style="fill:white;fill-rule:nonzero;"/>
    <path id="path2256" d="M122.049,349.579l0,3.278c0,0.176 0.008,0.356 0.02,0.54c0.016,0.184 0.056,0.352 0.12,0.5c0.068,0.148 0.172,0.272 0.316,0.364c0.144,0.092 0.348,0.14 0.608,0.14c0.264,0 0.464,-0.048 0.604,-0.14c0.14,-0.092 0.249,-0.216 0.317,-0.364c0.068,-0.148 0.112,-0.316 0.124,-0.5c0.012,-0.184 0.02,-0.364 0.02,-0.54l0,-3.278l1.56,0l0,3.494c0,0.94 -0.216,1.624 -0.644,2.057c-0.428,0.432 -1.088,0.648 -1.981,0.648c-0.888,0 -1.552,-0.216 -1.985,-0.648c-0.432,-0.433 -0.648,-1.117 -0.648,-2.057l0,-3.494l1.569,0Z" style="fill:white;fill-rule:nonzero;"/>
    <path id="path2258" d="M129.292,350.904l0,4.706l-1.569,0l0,-4.706l-1.288,0l0,-1.325l4.141,0l0,1.325l-1.284,0Z" style="fill:white;fill-rule:nonzero;"/>
    <path id="path2315" d="M22.714,315.474l0,3.529l1.412,0l0,0.997l-2.589,0l0,-4.526l1.177,0Z" style="fill:rgb(140,140,140);fill-rule:nonzero;"/>
    <path id="path2319" d="M51.714,317.499l0.224,0c0.232,0 0.408,-0.048 0.532,-0.144c0.124,-0.096 0.188,-0.236 0.188,-0.416c0,-0.181 -0.064,-0.317 -0.188,-0.413c-0.124,-0.096 -0.3,-0.144 -0.532,-0.144l-0.224,0l0,1.117Zm2.589,2.501l-1.465,0l-1.124,-1.741l0,1.741l-1.177,0l0,-4.526l1.833,0c0.252,0 0.472,0.04 0.66,0.112c0.188,0.076 0.34,0.176 0.464,0.304c0.12,0.128 0.213,0.276 0.277,0.444c0.06,0.168 0.092,0.348 0.092,0.541c0,0.344 -0.084,0.624 -0.249,0.836c-0.168,0.212 -0.412,0.36 -0.736,0.436l1.425,1.853Z" style="fill:rgb(140,140,140);fill-rule:nonzero;"/>
    <path id="path2323" d="M99.714,315.474l0,3.529l1.412,0l0,0.997l-2.589,0l0,-4.526l1.177,0Z" style="fill:rgb(140,140,140);fill-rule:nonzero;"/>
    <path id="path2327" d="M125.714,317.499l0.224,0c0.232,0 0.408,-0.048 0.532,-0.144c0.124,-0.096 0.188,-0.236 0.188,-0.416c0,-0.181 -0.064,-0.317 -0.188,-0.413c-0.124,-0.096 -0.3,-0.144 -0.532,-0.144l-0.224,0l0,1.117Zm2.589,2.501l-1.465,0l-1.124,-1.741l0,1.741l-1.177,0l0,-4.526l1.833,0c0.252,0 0.472,0.04 0.66,0.112c0.188,0.076 0.34,0.176 0.464,0.304c0.12,0.128 0.213,0.276 0.277,0.444c0.06,0.168 0.092,0.348 0.092,0.541c0,0.344 -0.084,0.624 -0.249,0.836c-0.168,0.212 -0.412,0.36 -0.736,0.436l1.425,1.853Z" style="fill:rgb(140,140,140);fill-rule:nonzero;"/>
    <path d="M46.825,27.561l-2.587,0l-1.196,-3.081c-0.139,-0.347 -0.464,-0.52 -0.975,-0.52l-0.884,0l0,3.601l-2.405,0l0,-9.256l4.303,0c1.118,0 1.958,0.241 2.522,0.722c0.563,0.481 0.845,1.167 0.845,2.06c0,0.624 -0.167,1.164 -0.501,1.619c-0.334,0.455 -0.804,0.777 -1.41,0.968c0.26,0.052 0.494,0.173 0.702,0.364c0.208,0.191 0.372,0.446 0.494,0.767l1.092,2.756Zm-4.134,-5.421c0.52,0 0.897,-0.08 1.131,-0.24c0.234,-0.161 0.351,-0.41 0.351,-0.748c0,-0.355 -0.115,-0.611 -0.345,-0.767c-0.23,-0.156 -0.609,-0.234 -1.137,-0.234l-1.534,0l0,1.989l1.534,0Z" style="fill:rgb(172,181,188);fill-rule:nonzero;"/>
    <path d="M48.06,27.561l0,-9.256l6.604,0l0,1.872l-4.225,0l0,1.742l3.952,0l0,1.872l-3.952,0l0,1.898l4.225,0l0,1.872l-6.604,0Z" style="fill:rgb(172,181,188);fill-rule:nonzero;"/>
    <path d="M59.136,27.678c-0.694,0 -1.378,-0.091 -2.054,-0.273c-0.676,-0.182 -1.227,-0.429 -1.651,-0.741l0.767,-1.729c0.45,0.286 0.929,0.505 1.436,0.657c0.507,0.151 1.016,0.227 1.528,0.227c0.52,0 0.918,-0.071 1.196,-0.214c0.277,-0.143 0.416,-0.345 0.416,-0.605c0,-0.234 -0.126,-0.427 -0.377,-0.578c-0.252,-0.152 -0.724,-0.302 -1.417,-0.449c-0.876,-0.173 -1.556,-0.388 -2.041,-0.643c-0.486,-0.256 -0.826,-0.557 -1.021,-0.904c-0.195,-0.347 -0.292,-0.767 -0.292,-1.261c0,-0.563 0.16,-1.072 0.481,-1.527c0.32,-0.455 0.771,-0.811 1.352,-1.066c0.58,-0.256 1.243,-0.384 1.989,-0.384c0.667,0 1.315,0.093 1.943,0.28c0.628,0.186 1.12,0.431 1.476,0.734l-0.754,1.729c-0.408,-0.286 -0.837,-0.505 -1.287,-0.656c-0.451,-0.152 -0.902,-0.228 -1.352,-0.228c-0.442,0 -0.798,0.085 -1.066,0.254c-0.269,0.169 -0.403,0.396 -0.403,0.682c0,0.156 0.047,0.286 0.143,0.39c0.095,0.104 0.273,0.206 0.533,0.306c0.26,0.099 0.65,0.205 1.17,0.318c0.84,0.182 1.501,0.401 1.982,0.657c0.481,0.255 0.821,0.554 1.021,0.897c0.199,0.342 0.299,0.751 0.299,1.228c0,0.901 -0.351,1.61 -1.053,2.126c-0.702,0.515 -1.69,0.773 -2.964,0.773Z" style="fill:rgb(172,181,188);fill-rule:nonzero;"/>
    <path d="M69.016,27.678c-0.962,0 -1.801,-0.197 -2.516,-0.591c-0.715,-0.395 -1.265,-0.952 -1.651,-1.671c-0.386,-0.719 -0.578,-1.551 -0.578,-2.496c0,-0.936 0.192,-1.761 0.578,-2.476c0.386,-0.715 0.936,-1.27 1.651,-1.664c0.715,-0.395 1.554,-0.592 2.516,-0.592c0.606,0 1.193,0.091 1.761,0.273c0.568,0.182 1.025,0.429 1.372,0.741l-0.741,1.729c-0.754,-0.546 -1.534,-0.819 -2.34,-0.819c-0.746,0 -1.318,0.236 -1.716,0.709c-0.399,0.472 -0.598,1.172 -0.598,2.099c0,0.936 0.199,1.642 0.598,2.119c0.398,0.477 0.97,0.715 1.716,0.715c0.806,0 1.586,-0.273 2.34,-0.819l0.741,1.729c-0.347,0.312 -0.804,0.559 -1.372,0.741c-0.568,0.182 -1.155,0.273 -1.761,0.273Z" style="fill:rgb(172,181,188);fill-rule:nonzero;"/>
    <path d="M77.622,27.678c-0.945,0 -1.768,-0.193 -2.47,-0.578c-0.702,-0.386 -1.242,-0.939 -1.619,-1.658c-0.377,-0.719 -0.565,-1.56 -0.565,-2.522c0,-0.962 0.19,-1.798 0.572,-2.509c0.381,-0.711 0.92,-1.259 1.618,-1.644c0.698,-0.386 1.519,-0.579 2.464,-0.579c0.944,0 1.765,0.193 2.463,0.579c0.698,0.385 1.233,0.933 1.606,1.644c0.372,0.711 0.559,1.547 0.559,2.509c0,0.962 -0.187,1.803 -0.559,2.522c-0.373,0.719 -0.908,1.272 -1.606,1.658c-0.698,0.385 -1.519,0.578 -2.463,0.578Zm0,-1.859c0.693,0 1.237,-0.247 1.631,-0.741c0.394,-0.494 0.592,-1.213 0.592,-2.158c0,-0.936 -0.198,-1.649 -0.592,-2.138c-0.394,-0.49 -0.938,-0.735 -1.631,-0.735c-0.694,0 -1.235,0.243 -1.625,0.728c-0.39,0.485 -0.585,1.2 -0.585,2.145c0,0.953 0.195,1.675 0.585,2.165c0.39,0.489 0.931,0.734 1.625,0.734Z" style="fill:rgb(172,181,188);fill-rule:nonzero;"/>
    <path d="M91.155,18.305l1.898,0l0,9.256l-2.132,0l-0.013,-4.238l-1.755,4.238l-1.547,0l-1.768,-4.186l0,4.186l-2.119,0l0,-9.256l1.911,0l2.769,6.318l2.756,-6.318Z" style="fill:rgb(172,181,188);fill-rule:nonzero;"/>
    <path d="M100.983,22.764c0.546,0.156 0.966,0.431 1.261,0.826c0.294,0.394 0.442,0.873 0.442,1.436c0,0.511 -0.135,0.958 -0.403,1.339c-0.269,0.381 -0.653,0.676 -1.151,0.884c-0.498,0.208 -1.085,0.312 -1.761,0.312l-4.615,0l0,-9.256l4.498,0c0.97,0 1.742,0.217 2.314,0.65c0.572,0.433 0.858,1.018 0.858,1.755c0,0.477 -0.126,0.897 -0.377,1.261c-0.252,0.364 -0.607,0.628 -1.066,0.793Zm-3.848,-0.832l1.703,0c0.45,0 0.78,-0.069 0.988,-0.208c0.208,-0.139 0.312,-0.36 0.312,-0.663c0,-0.312 -0.107,-0.542 -0.319,-0.689c-0.212,-0.147 -0.539,-0.221 -0.981,-0.221l-1.703,0l0,1.781Zm1.95,3.783c0.468,0 0.803,-0.074 1.007,-0.221c0.204,-0.147 0.306,-0.394 0.306,-0.741c0,-0.355 -0.1,-0.607 -0.299,-0.754c-0.2,-0.147 -0.538,-0.221 -1.014,-0.221l-1.95,0l0,1.937l1.95,0Z" style="fill:rgb(172,181,188);fill-rule:nonzero;"/>
    <path d="M114.087,25.624l0,1.937l-6.526,0l0,-1.794l3.016,-3.146c0.563,-0.589 0.845,-1.14 0.845,-1.651c0,-0.598 -0.356,-0.897 -1.066,-0.897c-0.364,0 -0.748,0.072 -1.151,0.215c-0.403,0.143 -0.808,0.348 -1.215,0.617l-0.767,-1.729c0.372,-0.303 0.855,-0.544 1.449,-0.721c0.594,-0.178 1.198,-0.267 1.814,-0.267c0.667,0 1.25,0.106 1.748,0.319c0.498,0.212 0.884,0.515 1.157,0.91c0.273,0.394 0.41,0.855 0.41,1.384c0,0.537 -0.107,1.025 -0.319,1.463c-0.212,0.437 -0.574,0.929 -1.085,1.475l-1.846,1.885l3.536,0Z" style="fill:rgb(172,181,188);fill-rule:nonzero;"/>
    <path id="path1124" d="M104.739,187.173c8.221,-14.243 5.003,-32.509 -7.595,-43.081c-12.597,-10.566 -31.149,-10.566 -43.747,0c-12.597,10.572 -15.815,28.838 -7.594,43.081" style="fill:none;stroke:rgb(204,204,204);stroke-width:1.5px;stroke-linecap:round;"/>
    <circle id="circle1127" cx="46.173" cy="194.44" r="3.706" style="fill:none;stroke:rgb(204,204,204);stroke-width:1px;"/>
    <circle id="circle1130" cx="104.952" cy="193.928" r="3.706" style="fill:rgb(204,204,204);stroke:rgb(204,204,204);stroke-width:1px;"/>
    <path id="path1263" d="M55.383,82.241c5.878,-10.184 3.577,-23.245 -5.431,-30.804c-9.007,-7.556 -22.273,-7.556 -31.281,0c-9.007,7.559 -11.308,20.62 -5.43,30.804" style="fill:none;stroke:rgb(204,204,204);stroke-width:1.5px;stroke-linecap:round;"/>
    <circle id="circle1266" cx="16.173" cy="91.509" r="3.706" style="fill:none;stroke:rgb(204,204,204);stroke-width:1px;"/>
    <circle id="circle1269" cx="53.952" cy="90.997" r="3.706" style="fill:rgb(204,204,204);stroke:rgb(204,204,204);stroke-width:1px;"/>
    <path id="path1274" d="M137.383,82.241c5.878,-10.184 3.577,-23.245 -5.431,-30.804c-9.007,-7.556 -22.273,-7.556 -31.281,0c-9.007,7.559 -11.308,20.62 -5.43,30.804" style="fill:none;stroke:rgb(204,204,204);stroke-width:1.5px;stroke-linecap:round;"/>
    <circle id="circle1277" cx="98.173" cy="91.509" r="3.706" style="fill:none;stroke:rgb(204,204,204);stroke-width:1px;"/>
    <circle id="circle1280" cx="135.952" cy="90.997" r="3.706" style="fill:rgb(204,204,204);stroke:rgb(204,204,204);stroke-width:1px;"/>
    <path d="M49.631,209.618l0,-5.942l4.148,0l0,1.227l-2.604,0l0,1.085l2.437,0l0,1.218l-2.437,0l0,2.412l-1.544,0Z" style="fill:white;fill-rule:nonzero;"/>
    <path d="M59.671,209.618l-1.661,0l-0.767,-1.978c-0.089,-0.222 -0.298,-0.334 -0.626,-0.334l-0.568,0l0,2.312l-1.544,0l0,-5.942l2.763,0c0.717,0 1.257,0.154 1.619,0.463c0.361,0.309 0.542,0.75 0.542,1.323c0,0.401 -0.107,0.747 -0.321,1.039c-0.214,0.292 -0.516,0.499 -0.906,0.622c0.167,0.033 0.317,0.111 0.451,0.233c0.134,0.123 0.239,0.287 0.317,0.493l0.701,1.769Zm-2.654,-3.48c0.334,0 0.576,-0.052 0.726,-0.154c0.151,-0.103 0.226,-0.263 0.226,-0.48c0,-0.228 -0.074,-0.393 -0.221,-0.493c-0.148,-0.1 -0.391,-0.15 -0.731,-0.15l-0.985,0l0,1.277l0.985,0Z" style="fill:white;fill-rule:nonzero;"/>
    <path d="M60.464,209.618l0,-5.942l4.24,0l0,1.202l-2.713,0l0,1.118l2.537,0l0,1.202l-2.537,0l0,1.218l2.713,0l0,1.202l-4.24,0Z" style="fill:white;fill-rule:nonzero;"/>
    <path d="M69.937,209.309c0.122,0.206 0.274,0.4 0.454,0.58c0.181,0.181 0.388,0.369 0.622,0.564l-1.043,0.759c-0.612,-0.4 -1.099,-0.907 -1.461,-1.519l-0.167,0c-0.606,0 -1.135,-0.124 -1.585,-0.371c-0.451,-0.248 -0.797,-0.602 -1.039,-1.064c-0.242,-0.462 -0.363,-1.002 -0.363,-1.619c0,-0.618 0.122,-1.155 0.367,-1.611c0.245,-0.456 0.591,-0.808 1.039,-1.056c0.448,-0.247 0.975,-0.371 1.581,-0.371c0.607,0 1.134,0.124 1.582,0.371c0.448,0.248 0.791,0.6 1.031,1.056c0.239,0.456 0.359,0.993 0.359,1.611c0,0.617 -0.12,1.156 -0.359,1.615c-0.24,0.459 -0.579,0.811 -1.018,1.055Zm-3.013,-2.67c0,0.612 0.125,1.075 0.375,1.389c0.251,0.315 0.598,0.472 1.043,0.472c0.446,0 0.795,-0.159 1.048,-0.476c0.253,-0.317 0.38,-0.779 0.38,-1.385c0,-0.601 -0.127,-1.059 -0.38,-1.373c-0.253,-0.315 -0.602,-0.472 -1.048,-0.472c-0.445,0 -0.792,0.156 -1.043,0.468c-0.25,0.311 -0.375,0.77 -0.375,1.377Z" style="fill:white;fill-rule:nonzero;"/>
    <path d="M74.844,209.693c-0.868,0 -1.525,-0.218 -1.97,-0.655c-0.445,-0.437 -0.667,-1.078 -0.667,-1.924l0,-3.438l1.527,0l0,3.497c0,0.428 0.096,0.757 0.288,0.985c0.192,0.228 0.466,0.342 0.822,0.342c0.35,0 0.62,-0.116 0.809,-0.347c0.19,-0.23 0.284,-0.557 0.284,-0.98l0,-3.497l1.544,0l0,3.438c0,0.835 -0.227,1.473 -0.68,1.916c-0.454,0.442 -1.106,0.663 -1.957,0.663Z" style="fill:white;fill-rule:nonzero;"/>
    <path d="M78.508,209.618l0,-5.942l4.239,0l0,1.202l-2.712,0l0,1.118l2.537,0l0,1.202l-2.537,0l0,1.218l2.712,0l0,1.202l-4.239,0Z" style="fill:white;fill-rule:nonzero;"/>
    <path d="M87.388,203.676l1.477,0l0,5.942l-1.16,0l-2.696,-3.372l0,3.372l-1.46,0l0,-5.942l1.143,0l2.696,3.355l0,-3.355Z" style="fill:white;fill-rule:nonzero;"/>
    <path d="M92.829,209.693c-0.618,0 -1.156,-0.126 -1.615,-0.379c-0.459,-0.254 -0.812,-0.611 -1.06,-1.073c-0.247,-0.462 -0.371,-0.996 -0.371,-1.602c0,-0.601 0.124,-1.131 0.371,-1.59c0.248,-0.459 0.601,-0.815 1.06,-1.068c0.459,-0.254 0.997,-0.38 1.615,-0.38c0.39,0 0.766,0.058 1.131,0.175c0.364,0.117 0.658,0.275 0.88,0.476l-0.475,1.11c-0.484,-0.351 -0.985,-0.526 -1.503,-0.526c-0.478,0 -0.845,0.152 -1.101,0.455c-0.256,0.303 -0.384,0.752 -0.384,1.348c0,0.601 0.128,1.054 0.384,1.36c0.256,0.306 0.623,0.459 1.101,0.459c0.518,0 1.019,-0.175 1.503,-0.526l0.475,1.11c-0.222,0.201 -0.516,0.359 -0.88,0.476c-0.365,0.117 -0.741,0.175 -1.131,0.175Z" style="fill:white;fill-rule:nonzero;"/>
    <path d="M101.1,203.676l-2.512,3.672l0,2.27l-1.578,0l0,-2.278l-2.495,-3.664l1.769,0l1.502,2.37l1.528,-2.37l1.786,0Z" style="fill:white;fill-rule:nonzero;"/>
    <path d="M12.631,102.693l0,-5.942l4.148,0l0,1.227l-2.604,0l0,1.085l2.437,0l0,1.218l-2.437,0l0,2.412l-1.544,0Z" style="fill:white;fill-rule:nonzero;"/>
    <path d="M17.505,102.693l0,-5.942l4.24,0l0,1.202l-2.713,0l0,1.118l2.538,0l0,1.202l-2.538,0l0,1.218l2.713,0l0,1.202l-4.24,0Z" style="fill:white;fill-rule:nonzero;"/>
    <path d="M22.546,102.693l0,-5.942l4.24,0l0,1.202l-2.713,0l0,1.118l2.537,0l0,1.202l-2.537,0l0,1.218l2.713,0l0,1.202l-4.24,0Z" style="fill:white;fill-rule:nonzero;"/>
    <path d="M27.587,96.751l2.429,0c0.656,0 1.222,0.118 1.698,0.355c0.476,0.236 0.84,0.577 1.093,1.022c0.253,0.445 0.38,0.974 0.38,1.586c0,0.617 -0.125,1.15 -0.376,1.598c-0.25,0.448 -0.613,0.79 -1.089,1.027c-0.475,0.236 -1.044,0.354 -1.706,0.354l-2.429,0l0,-5.942Zm2.32,4.69c0.579,0 1.011,-0.143 1.298,-0.429c0.286,-0.287 0.43,-0.72 0.43,-1.298c0,-1.141 -0.576,-1.711 -1.728,-1.711l-0.751,0l0,3.438l0.751,0Z" style="fill:white;fill-rule:nonzero;"/>
    <path d="M38.103,99.614c0.35,0.1 0.62,0.276 0.809,0.53c0.189,0.253 0.284,0.56 0.284,0.922c0,0.328 -0.086,0.615 -0.259,0.859c-0.172,0.245 -0.419,0.434 -0.738,0.568c-0.32,0.133 -0.697,0.2 -1.131,0.2l-2.963,0l0,-5.942l2.888,0c0.623,0 1.118,0.139 1.485,0.417c0.367,0.279 0.551,0.654 0.551,1.127c0,0.306 -0.081,0.576 -0.242,0.81c-0.161,0.233 -0.39,0.403 -0.684,0.509Zm-2.471,-0.534l1.094,0c0.289,0 0.5,-0.045 0.634,-0.134c0.133,-0.089 0.2,-0.231 0.2,-0.426c0,-0.2 -0.068,-0.347 -0.204,-0.442c-0.137,-0.095 -0.347,-0.142 -0.63,-0.142l-1.094,0l0,1.144Zm1.252,2.428c0.301,0 0.516,-0.047 0.647,-0.142c0.131,-0.094 0.196,-0.253 0.196,-0.475c0,-0.229 -0.064,-0.39 -0.192,-0.484c-0.128,-0.095 -0.345,-0.142 -0.651,-0.142l-1.252,0l0,1.243l1.252,0Z" style="fill:white;fill-rule:nonzero;"/>
    <path d="M44.512,102.693l-0.526,-1.227l-2.637,0l-0.526,1.227l-1.569,0l2.779,-5.942l1.236,0l2.787,5.942l-1.544,0Zm-2.654,-2.403l1.619,0l-0.809,-1.878l-0.81,1.878Z" style="fill:white;fill-rule:nonzero;"/>
    <path d="M49.127,102.768c-0.617,0 -1.156,-0.126 -1.615,-0.379c-0.459,-0.254 -0.812,-0.611 -1.059,-1.073c-0.248,-0.462 -0.372,-0.996 -0.372,-1.602c0,-0.601 0.124,-1.131 0.372,-1.59c0.247,-0.459 0.6,-0.815 1.059,-1.068c0.459,-0.253 0.998,-0.38 1.615,-0.38c0.39,0 0.767,0.058 1.131,0.175c0.365,0.117 0.658,0.276 0.881,0.476l-0.476,1.11c-0.484,-0.351 -0.985,-0.526 -1.502,-0.526c-0.479,0 -0.846,0.152 -1.102,0.455c-0.256,0.303 -0.384,0.752 -0.384,1.348c0,0.601 0.128,1.054 0.384,1.36c0.256,0.306 0.623,0.459 1.102,0.459c0.517,0 1.018,-0.175 1.502,-0.526l0.476,1.11c-0.223,0.201 -0.516,0.359 -0.881,0.476c-0.364,0.117 -0.741,0.175 -1.131,0.175Z" style="fill:white;fill-rule:nonzero;"/>
    <path d="M57.765,102.693l-1.861,0l-2.378,-2.695l0,2.695l-1.569,0l0,-5.942l1.569,0l0,2.554l2.311,-2.554l1.836,0l-2.628,2.821l2.72,3.121Z" style="fill:white;fill-rule:nonzero;"/>
    <path d="M103.631,96.676l2.429,0c0.656,0 1.223,0.118 1.698,0.355c0.476,0.236 0.84,0.577 1.094,1.022c0.253,0.445 0.379,0.974 0.379,1.586c0,0.617 -0.125,1.15 -0.375,1.598c-0.251,0.448 -0.614,0.79 -1.089,1.026c-0.476,0.237 -1.045,0.355 -1.707,0.355l-2.429,0l0,-5.942Zm2.32,4.69c0.579,0 1.012,-0.143 1.298,-0.43c0.287,-0.286 0.43,-0.719 0.43,-1.297c0,-1.141 -0.576,-1.711 -1.728,-1.711l-0.751,0l0,3.438l0.751,0Z" style="fill:white;fill-rule:nonzero;"/>
    <path d="M115.315,102.618l-1.66,0l-0.768,-1.978c-0.089,-0.222 -0.298,-0.334 -0.626,-0.334l-0.568,0l0,2.312l-1.544,0l0,-5.942l2.763,0c0.717,0 1.257,0.154 1.619,0.463c0.361,0.309 0.542,0.75 0.542,1.323c0,0.401 -0.107,0.747 -0.321,1.039c-0.214,0.292 -0.516,0.499 -0.906,0.622c0.167,0.033 0.318,0.111 0.451,0.233c0.134,0.123 0.239,0.287 0.317,0.493l0.701,1.769Zm-2.654,-3.48c0.334,0 0.576,-0.052 0.726,-0.154c0.151,-0.103 0.226,-0.263 0.226,-0.48c0,-0.228 -0.074,-0.393 -0.221,-0.493c-0.148,-0.1 -0.391,-0.15 -0.731,-0.15l-0.984,0l0,1.277l0.984,0Z" style="fill:white;fill-rule:nonzero;"/>
    <rect x="116.108" y="96.676" width="1.569" height="5.942" style="fill:white;fill-rule:nonzero;"/>
    <path d="M123.094,96.676l1.577,0l-2.704,5.942l-1.244,0l-2.704,-5.942l1.628,0l1.711,3.989l1.736,-3.989Z" style="fill:white;fill-rule:nonzero;"/>
    <path d="M125.013,102.618l0,-5.942l4.24,0l0,1.202l-2.713,0l0,1.118l2.538,0l0,1.202l-2.538,0l0,1.218l2.713,0l0,1.202l-4.24,0Z" style="fill:white;fill-rule:nonzero;"/>
    <g>
      <path id="path12741" serif:id="path1274" d="M96.429,257.84c5.879,-10.185 3.578,-23.246 -5.43,-30.805c-9.008,-7.555 -22.273,-7.555 -31.281,0c-9.008,7.559 -11.309,20.62 -5.43,30.805" style="fill:none;stroke:rgb(204,204,204);stroke-width:1.5px;stroke-linecap:round;"/>
      <circle id="circle12771" serif:id="circle1277" cx="57.219" cy="267.108" r="3.706" style="fill:none;stroke:rgb(204,204,204);stroke-width:1px;"/>
      <circle id="circle12801" serif:id="circle1280" cx="94.999" cy="266.595" r="3.706" style="fill:rgb(204,204,204);stroke:rgb(204,204,204);stroke-width:1px;"/>
      <path id="path23505" d="M75.134,231.598l-0.024,-13.309" style="fill:none;stroke:rgb(204,204,204);stroke-width:1.5px;stroke-linecap:round;"/>
    </g>
    <path d="M69.385,275.251l-1.661,0l-0.767,-1.978c-0.089,-0.223 -0.298,-0.334 -0.626,-0.334l-0.568,0l0,2.312l-1.544,0l0,-5.942l2.763,0c0.717,0 1.257,0.154 1.619,0.463c0.361,0.309 0.542,0.75 0.542,1.323c0,0.4 -0.107,0.747 -0.321,1.039c-0.214,0.292 -0.516,0.499 -0.906,0.622c0.167,0.033 0.317,0.111 0.451,0.233c0.134,0.123 0.239,0.287 0.317,0.493l0.701,1.769Zm-2.654,-3.48c0.334,0 0.576,-0.052 0.726,-0.155c0.151,-0.103 0.226,-0.263 0.226,-0.48c0,-0.228 -0.074,-0.392 -0.221,-0.492c-0.148,-0.1 -0.391,-0.15 -0.731,-0.15l-0.985,0l0,1.277l0.985,0Z" style="fill:white;fill-rule:nonzero;"/>
    <path d="M74.618,275.251l-0.526,-1.227l-2.637,0l-0.526,1.227l-1.569,0l2.779,-5.942l1.236,0l2.787,5.942l-1.544,0Zm-2.654,-2.404l1.619,0l-0.809,-1.877l-0.81,1.877Z" style="fill:white;fill-rule:nonzero;"/>
    <path d="M77.063,275.251l0,-4.674l-1.769,0l0,-1.268l5.124,0l0,1.268l-1.769,0l0,4.674l-1.586,0Z" style="fill:white;fill-rule:nonzero;"/>
    <path d="M81.053,275.251l0,-5.942l4.239,0l0,1.202l-2.712,0l0,1.118l2.537,0l0,1.202l-2.537,0l0,1.218l2.712,0l0,1.202l-4.239,0Z" style="fill:white;fill-rule:nonzero;"/>
    <g id="text7967-9-5">
      <path d="M25.524,38.772l0,-5.112l1.378,0l0,0.964c0.357,-0.72 0.9,-1.08 1.63,-1.08c0.087,0 0.172,0.009 0.256,0.028l0,1.229c-0.196,-0.072 -0.377,-0.107 -0.545,-0.107c-0.549,0 -0.996,0.277 -1.341,0.833l0,3.245l-1.378,0Z" style="fill:white;fill-rule:nonzero;"/>
      <path d="M34.021,38.6c-0.655,0.192 -1.276,0.288 -1.863,0.288c-0.853,0 -1.527,-0.242 -2.02,-0.726c-0.494,-0.484 -0.74,-1.145 -0.74,-1.983c0,-0.792 0.225,-1.429 0.677,-1.911c0.452,-0.483 1.048,-0.724 1.79,-0.724c0.748,0 1.294,0.236 1.639,0.707c0.344,0.472 0.517,1.219 0.517,2.24l-3.171,0c0.093,0.974 0.629,1.461 1.606,1.461c0.463,0 0.984,-0.107 1.565,-0.321l0,0.969Zm-3.189,-2.887l1.834,0c0,-0.872 -0.281,-1.308 -0.843,-1.308c-0.571,0 -0.901,0.436 -0.991,1.308Z" style="fill:white;fill-rule:nonzero;"/>
      <path d="M35.31,38.609l0,-1.01c0.683,0.285 1.266,0.428 1.751,0.428c0.564,0 0.847,-0.192 0.847,-0.577c0,-0.249 -0.233,-0.466 -0.698,-0.652l-0.466,-0.186c-0.506,-0.205 -0.867,-0.426 -1.085,-0.661c-0.217,-0.236 -0.326,-0.528 -0.326,-0.876c0,-0.484 0.185,-0.86 0.554,-1.129c0.37,-0.268 0.887,-0.402 1.551,-0.402c0.416,0 0.911,0.06 1.485,0.181l0,0.969c-0.553,-0.193 -1.01,-0.289 -1.374,-0.289c-0.571,0 -0.856,0.177 -0.856,0.531c0,0.232 0.211,0.43 0.633,0.591l0.4,0.154c0.599,0.226 1.016,0.456 1.25,0.689c0.235,0.232 0.352,0.532 0.352,0.898c0,0.481 -0.2,0.871 -0.598,1.171c-0.399,0.299 -0.918,0.449 -1.558,0.449c-0.614,0 -1.235,-0.093 -1.862,-0.279Z" style="fill:white;fill-rule:nonzero;"/>
      <path d="M42.982,38.888c-0.797,0 -1.431,-0.241 -1.901,-0.724c-0.471,-0.482 -0.706,-1.132 -0.706,-1.948c0,-0.826 0.237,-1.477 0.71,-1.955c0.474,-0.478 1.117,-0.717 1.93,-0.717c0.816,0 1.461,0.239 1.934,0.717c0.474,0.478 0.71,1.126 0.71,1.946c0,0.838 -0.237,1.494 -0.712,1.969c-0.475,0.475 -1.13,0.712 -1.965,0.712Zm0.024,-0.861c0.791,0 1.187,-0.607 1.187,-1.82c0,-0.556 -0.105,-0.995 -0.314,-1.318c-0.21,-0.323 -0.498,-0.484 -0.864,-0.484c-0.363,0 -0.649,0.161 -0.859,0.484c-0.209,0.323 -0.314,0.765 -0.314,1.327c0,0.555 0.104,0.996 0.312,1.322c0.208,0.326 0.492,0.489 0.852,0.489Z" style="fill:white;fill-rule:nonzero;"/>
      <path d="M46.926,38.772l0,-5.112l1.378,0l0,0.964c0.45,-0.72 1.03,-1.08 1.741,-1.08c0.456,0 0.816,0.144 1.08,0.433c0.264,0.288 0.396,0.682 0.396,1.182l0,3.613l-1.378,0l0,-3.273c0,-0.58 -0.193,-0.871 -0.578,-0.871c-0.437,0 -0.858,0.309 -1.261,0.927l0,3.217l-1.378,0Z" style="fill:white;fill-rule:nonzero;"/>
      <path d="M55.692,38.222c-0.459,0.444 -0.951,0.666 -1.476,0.666c-0.447,0 -0.81,-0.136 -1.089,-0.409c-0.28,-0.274 -0.419,-0.627 -0.419,-1.062c0,-0.565 0.226,-1 0.677,-1.306c0.452,-0.306 1.098,-0.458 1.939,-0.458l0.368,0l0,-0.466c0,-0.531 -0.303,-0.796 -0.908,-0.796c-0.537,0 -1.08,0.152 -1.629,0.456l0,-0.949c0.624,-0.236 1.241,-0.354 1.853,-0.354c1.337,0 2.006,0.532 2.006,1.597l0,2.262c0,0.4 0.129,0.601 0.387,0.601c0.046,0 0.107,-0.007 0.181,-0.019l0.033,0.773c-0.292,0.087 -0.55,0.13 -0.773,0.13c-0.565,0 -0.928,-0.222 -1.09,-0.666l-0.06,0Zm0,-0.74l0,-1.038l-0.326,0c-0.891,0 -1.336,0.279 -1.336,0.838c0,0.189 0.064,0.348 0.193,0.477c0.129,0.129 0.288,0.193 0.477,0.193c0.323,0 0.654,-0.156 0.992,-0.47Z" style="fill:white;fill-rule:nonzero;"/>
      <path d="M58.793,38.772l0,-5.112l1.378,0l0,0.964c0.45,-0.72 1.03,-1.08 1.741,-1.08c0.456,0 0.816,0.144 1.08,0.433c0.264,0.288 0.395,0.682 0.395,1.182l0,3.613l-1.378,0l0,-3.273c0,-0.58 -0.192,-0.871 -0.577,-0.871c-0.437,0 -0.858,0.309 -1.261,0.927l0,3.217l-1.378,0Z" style="fill:white;fill-rule:nonzero;"/>
      <path d="M67.689,38.744c-0.329,0.096 -0.588,0.144 -0.777,0.144c-1.195,0 -1.793,-0.558 -1.793,-1.676l0,-2.691l-0.572,0l0,-0.861l0.572,0l0,-0.861l1.378,-0.158l0,1.019l1.094,0l0,0.861l-1.094,0l0,2.51c0,0.627 0.256,0.94 0.769,0.94c0.117,0 0.259,-0.022 0.423,-0.065l0,0.838Z" style="fill:white;fill-rule:nonzero;"/>
      <path d="M75.832,38.66c-0.571,0.152 -1.101,0.228 -1.588,0.228c-0.816,0 -1.461,-0.24 -1.934,-0.719c-0.474,-0.48 -0.71,-1.132 -0.71,-1.958c0,-0.835 0.243,-1.488 0.731,-1.96c0.487,-0.471 1.16,-0.707 2.02,-0.707c0.416,0 0.896,0.066 1.439,0.2l0,0.996c-0.565,-0.183 -1.017,-0.275 -1.355,-0.275c-0.413,0 -0.745,0.159 -0.996,0.475c-0.252,0.317 -0.377,0.737 -0.377,1.262c0,0.537 0.135,0.967 0.407,1.29c0.272,0.322 0.634,0.484 1.087,0.484c0.413,0 0.838,-0.09 1.276,-0.27l0,0.954Z" style="fill:white;fill-rule:nonzero;"/>
      <path d="M79.281,38.888c-0.797,0 -1.431,-0.241 -1.901,-0.724c-0.471,-0.482 -0.706,-1.132 -0.706,-1.948c0,-0.826 0.237,-1.477 0.71,-1.955c0.474,-0.478 1.117,-0.717 1.93,-0.717c0.816,0 1.461,0.239 1.934,0.717c0.474,0.478 0.71,1.126 0.71,1.946c0,0.838 -0.237,1.494 -0.712,1.969c-0.475,0.475 -1.13,0.712 -1.965,0.712Zm0.024,-0.861c0.791,0 1.187,-0.607 1.187,-1.82c0,-0.556 -0.105,-0.995 -0.314,-1.318c-0.21,-0.323 -0.498,-0.484 -0.864,-0.484c-0.363,0 -0.649,0.161 -0.859,0.484c-0.209,0.323 -0.314,0.765 -0.314,1.327c0,0.555 0.104,0.996 0.312,1.322c0.208,0.326 0.492,0.489 0.852,0.489Z" style="fill:white;fill-rule:nonzero;"/>
      <path d="M83.225,38.772l0,-5.112l1.322,0l0,0.964c0.403,-0.72 0.977,-1.08 1.722,-1.08c0.385,0 0.702,0.094 0.95,0.284c0.248,0.189 0.4,0.454 0.456,0.796c0.478,-0.72 1.056,-1.08 1.732,-1.08c0.934,0 1.401,0.515 1.401,1.545l0,3.683l-1.322,0l0,-3.231c0,-0.605 -0.201,-0.908 -0.605,-0.908c-0.413,0 -0.815,0.298 -1.206,0.894l0,3.245l-1.322,0l0,-3.231c0,-0.608 -0.203,-0.913 -0.61,-0.913c-0.406,0 -0.805,0.3 -1.196,0.899l0,3.245l-1.322,0Z" style="fill:white;fill-rule:nonzero;"/>
      <path d="M92.47,38.772l0,-7.351l1.378,0l0,3.203c0.354,-0.72 0.911,-1.08 1.672,-1.08c0.614,0 1.098,0.225 1.45,0.675c0.352,0.45 0.528,1.069 0.528,1.857c0,0.854 -0.198,1.536 -0.596,2.046c-0.397,0.511 -0.928,0.766 -1.592,0.766c-0.571,0 -1.058,-0.211 -1.462,-0.633l-0.256,0.517l-1.122,0Zm1.378,-1.336c0.336,0.372 0.693,0.558 1.071,0.558c0.339,0 0.609,-0.163 0.81,-0.491c0.202,-0.327 0.303,-0.764 0.303,-1.31c0,-1.046 -0.337,-1.569 -1.01,-1.569c-0.407,0 -0.798,0.262 -1.174,0.787l0,2.025Z" style="fill:white;fill-rule:nonzero;"/>
      <path d="M102.075,38.772l0,-4.251l-0.703,0l0,-0.861l0.703,0l0,-0.354c0,-0.642 0.153,-1.136 0.458,-1.483c0.306,-0.346 0.741,-0.519 1.306,-0.519c0.348,0 0.717,0.064 1.108,0.191l0,0.941c-0.385,-0.171 -0.67,-0.256 -0.856,-0.256c-0.426,0 -0.638,0.388 -0.638,1.163l0,0.317l3.217,0l0,5.112l-1.378,0l0,-4.251l-1.839,0l0,4.251l-1.378,0Zm3.445,-5.973l0,-1.15l1.15,0l0,1.15l-1.15,0Zm-0.773,0.861" style="fill:white;fill-rule:nonzero;"/>
      <rect x="108.392" y="31.421" width="1.378" height="7.351" style="fill:white;fill-rule:nonzero;"/>
      <path d="M114.128,38.744c-0.329,0.096 -0.588,0.144 -0.778,0.144c-1.195,0 -1.792,-0.558 -1.792,-1.676l0,-2.691l-0.573,0l0,-0.861l0.573,0l0,-0.861l1.378,-0.158l0,1.019l1.094,0l0,0.861l-1.094,0l0,2.51c0,0.627 0.256,0.94 0.768,0.94c0.118,0 0.259,-0.022 0.424,-0.065l0,0.838Z" style="fill:white;fill-rule:nonzero;"/>
      <path d="M119.519,38.6c-0.655,0.192 -1.276,0.288 -1.862,0.288c-0.854,0 -1.527,-0.242 -2.021,-0.726c-0.493,-0.484 -0.74,-1.145 -0.74,-1.983c0,-0.792 0.226,-1.429 0.677,-1.911c0.452,-0.483 1.049,-0.724 1.79,-0.724c0.748,0 1.295,0.236 1.639,0.707c0.345,0.472 0.517,1.219 0.517,2.24l-3.17,0c0.093,0.974 0.628,1.461 1.606,1.461c0.462,0 0.984,-0.107 1.564,-0.321l0,0.969Zm-3.189,-2.887l1.834,0c0,-0.872 -0.281,-1.308 -0.842,-1.308c-0.572,0 -0.902,0.436 -0.992,1.308Z" style="fill:white;fill-rule:nonzero;"/>
      <path d="M120.943,38.772l0,-5.112l1.379,0l0,0.964c0.356,-0.72 0.9,-1.08 1.629,-1.08c0.087,0 0.172,0.009 0.256,0.028l0,1.229c-0.196,-0.072 -0.377,-0.107 -0.545,-0.107c-0.549,0 -0.996,0.277 -1.34,0.833l0,3.245l-1.379,0Z" style="fill:white;fill-rule:nonzero;"/>
    </g>
    <path d="M29.864,145.868l0,1.573l-2.405,0l0,2.418l-1.586,0l0,-2.418l-2.405,0l0,-1.573l2.405,0l0,-2.418l1.586,0l0,2.418l2.405,0Z" style="fill:white;fill-rule:nonzero;"/>
    <rect x="24.56" y="157.972" width="4.212" height="1.82" style="fill:white;fill-rule:nonzero;"/>
    <path d="M11.503,200.962l1.191,0l-2.041,4.484l-0.938,0l-2.04,-4.484l1.228,0l1.291,3.01l1.309,-3.01Z" style="fill:white;fill-rule:nonzero;"/>
    <path d="M13.159,205.849l-0.913,0l1.657,-5.176l0.919,0l-1.663,5.176Z" style="fill:white;fill-rule:nonzero;"/>
    <path d="M17.12,205.502c-0.457,0 -0.856,-0.093 -1.196,-0.28c-0.34,-0.187 -0.602,-0.454 -0.784,-0.803c-0.183,-0.348 -0.274,-0.755 -0.274,-1.221c0,-0.466 0.092,-0.871 0.277,-1.216c0.185,-0.344 0.446,-0.609 0.784,-0.796c0.338,-0.187 0.736,-0.28 1.193,-0.28c0.458,0 0.856,0.093 1.194,0.28c0.337,0.187 0.597,0.452 0.777,0.796c0.181,0.345 0.271,0.75 0.271,1.216c0,0.466 -0.09,0.873 -0.271,1.221c-0.18,0.349 -0.44,0.616 -0.777,0.803c-0.338,0.187 -0.736,0.28 -1.194,0.28Zm0,-0.9c0.336,0 0.6,-0.12 0.791,-0.359c0.191,-0.239 0.286,-0.588 0.286,-1.045c0,-0.454 -0.095,-0.799 -0.286,-1.036c-0.191,-0.237 -0.455,-0.356 -0.791,-0.356c-0.336,0 -0.598,0.118 -0.787,0.353c-0.189,0.235 -0.283,0.581 -0.283,1.039c0,0.461 0.094,0.811 0.283,1.048c0.189,0.237 0.451,0.356 0.787,0.356Z" style="fill:white;fill-rule:nonzero;"/>
    <path d="M22.233,205.502c-0.466,0 -0.872,-0.095 -1.218,-0.286c-0.346,-0.191 -0.613,-0.461 -0.8,-0.809c-0.187,-0.349 -0.28,-0.752 -0.28,-1.209c0,-0.454 0.093,-0.854 0.28,-1.2c0.187,-0.346 0.454,-0.615 0.8,-0.806c0.346,-0.191 0.752,-0.286 1.218,-0.286c0.294,0 0.579,0.044 0.854,0.132c0.275,0.088 0.496,0.208 0.664,0.359l-0.359,0.837c-0.365,-0.264 -0.743,-0.396 -1.133,-0.396c-0.361,0 -0.639,0.114 -0.832,0.343c-0.193,0.229 -0.289,0.568 -0.289,1.017c0,0.453 0.096,0.795 0.289,1.026c0.193,0.231 0.471,0.346 0.832,0.346c0.39,0 0.768,-0.132 1.133,-0.396l0.359,0.837c-0.168,0.151 -0.389,0.271 -0.664,0.359c-0.275,0.088 -0.56,0.132 -0.854,0.132Z" style="fill:white;fill-rule:nonzero;"/>
    <path d="M25.313,205.446l0,-3.527l-1.335,0l0,-0.957l3.866,0l0,0.957l-1.335,0l0,3.527l-1.196,0Z" style="fill:white;fill-rule:nonzero;"/>
    <path d="M126.761,252.483l0,-4.483l1.184,0l0,3.526l1.896,0l0,0.957l-3.08,0Z" style="fill:white;fill-rule:nonzero;"/>
    <path d="M130.407,252.483l0,-4.483l3.13,0l0,0.925l-1.965,0l0,0.819l1.839,0l0,0.919l-1.839,0l0,1.82l-1.165,0Z" style="fill:white;fill-rule:nonzero;"/>
    <path d="M136.207,252.54c-0.458,0 -0.856,-0.094 -1.197,-0.28c-0.34,-0.187 -0.601,-0.455 -0.783,-0.803c-0.183,-0.349 -0.274,-0.756 -0.274,-1.222c0,-0.466 0.092,-0.871 0.277,-1.215c0.184,-0.344 0.446,-0.61 0.784,-0.797c0.338,-0.187 0.735,-0.28 1.193,-0.28c0.457,0 0.855,0.093 1.193,0.28c0.338,0.187 0.597,0.453 0.778,0.797c0.18,0.344 0.271,0.749 0.271,1.215c0,0.466 -0.091,0.873 -0.271,1.222c-0.181,0.348 -0.44,0.616 -0.778,0.803c-0.338,0.186 -0.736,0.28 -1.193,0.28Zm0,-0.901c0.336,0 0.599,-0.119 0.79,-0.359c0.191,-0.239 0.287,-0.587 0.287,-1.045c0,-0.453 -0.096,-0.798 -0.287,-1.036c-0.191,-0.237 -0.454,-0.355 -0.79,-0.355c-0.336,0 -0.598,0.117 -0.787,0.352c-0.189,0.235 -0.284,0.582 -0.284,1.039c0,0.462 0.095,0.811 0.284,1.049c0.189,0.237 0.451,0.355 0.787,0.355Z" style="fill:white;fill-rule:nonzero;"/>
    <path d="M11.401,172.502c-0.466,0 -0.872,-0.095 -1.218,-0.286c-0.346,-0.191 -0.613,-0.461 -0.8,-0.809c-0.187,-0.349 -0.28,-0.752 -0.28,-1.209c0,-0.454 0.093,-0.854 0.28,-1.2c0.187,-0.346 0.454,-0.615 0.8,-0.806c0.346,-0.191 0.752,-0.286 1.218,-0.286c0.294,0 0.579,0.044 0.854,0.132c0.275,0.088 0.496,0.208 0.664,0.359l-0.359,0.837c-0.365,-0.264 -0.743,-0.396 -1.133,-0.396c-0.361,0 -0.638,0.114 -0.832,0.343c-0.193,0.229 -0.289,0.568 -0.289,1.017c0,0.453 0.096,0.795 0.289,1.026c0.194,0.231 0.471,0.346 0.832,0.346c0.39,0 0.768,-0.132 1.133,-0.396l0.359,0.837c-0.168,0.151 -0.389,0.271 -0.664,0.359c-0.275,0.088 -0.56,0.132 -0.854,0.132Z" style="fill:white;fill-rule:nonzero;"/>
    <path d="M15.57,172.502c-0.458,0 -0.856,-0.093 -1.196,-0.28c-0.34,-0.187 -0.602,-0.454 -0.784,-0.803c-0.183,-0.348 -0.274,-0.755 -0.274,-1.221c0,-0.466 0.092,-0.871 0.277,-1.216c0.184,-0.344 0.446,-0.609 0.784,-0.796c0.338,-0.187 0.735,-0.28 1.193,-0.28c0.458,0 0.855,0.093 1.193,0.28c0.338,0.187 0.597,0.452 0.778,0.796c0.18,0.345 0.271,0.75 0.271,1.216c0,0.466 -0.091,0.873 -0.271,1.221c-0.181,0.349 -0.44,0.616 -0.778,0.803c-0.338,0.187 -0.735,0.28 -1.193,0.28Zm0,-0.9c0.336,0 0.599,-0.12 0.79,-0.359c0.191,-0.239 0.287,-0.588 0.287,-1.045c0,-0.454 -0.096,-0.799 -0.287,-1.036c-0.191,-0.237 -0.454,-0.356 -0.79,-0.356c-0.336,0 -0.598,0.118 -0.787,0.353c-0.189,0.235 -0.283,0.581 -0.283,1.039c0,0.461 0.094,0.811 0.283,1.048c0.189,0.237 0.451,0.356 0.787,0.356Z" style="fill:white;fill-rule:nonzero;"/>
    <path d="M22.125,167.962l0.919,0l0,4.484l-1.032,0l-0.007,-2.053l-0.85,2.053l-0.749,0l-0.856,-2.028l0,2.028l-1.027,0l0,-4.484l0.926,0l1.341,3.061l1.335,-3.061Z" style="fill:white;fill-rule:nonzero;"/>
    <path d="M26.886,170.122c0.264,0.076 0.468,0.209 0.61,0.4c0.143,0.191 0.214,0.423 0.214,0.696c0,0.247 -0.065,0.464 -0.195,0.648c-0.13,0.185 -0.316,0.328 -0.557,0.429c-0.241,0.1 -0.526,0.151 -0.853,0.151l-2.236,0l0,-4.484l2.179,0c0.47,0 0.844,0.105 1.121,0.315c0.277,0.21 0.416,0.493 0.416,0.85c0,0.231 -0.061,0.435 -0.183,0.611c-0.122,0.176 -0.294,0.304 -0.516,0.384Zm-1.864,-0.403l0.825,0c0.218,0 0.377,-0.033 0.478,-0.101c0.101,-0.067 0.151,-0.174 0.151,-0.321c0,-0.151 -0.051,-0.262 -0.154,-0.333c-0.103,-0.072 -0.261,-0.108 -0.475,-0.108l-0.825,0l0,0.863Zm0.944,1.833c0.227,0 0.39,-0.036 0.488,-0.108c0.099,-0.071 0.148,-0.191 0.148,-0.358c0,-0.173 -0.048,-0.294 -0.145,-0.366c-0.096,-0.071 -0.26,-0.107 -0.491,-0.107l-0.944,0l0,0.939l0.944,0Z" style="fill:white;fill-rule:nonzero;"/>
    <path d="M130.401,205.502c-0.466,0 -0.872,-0.095 -1.218,-0.286c-0.346,-0.191 -0.613,-0.461 -0.8,-0.809c-0.187,-0.349 -0.28,-0.752 -0.28,-1.209c0,-0.454 0.093,-0.854 0.28,-1.2c0.187,-0.346 0.454,-0.615 0.8,-0.806c0.346,-0.191 0.752,-0.286 1.218,-0.286c0.294,0 0.579,0.044 0.854,0.132c0.275,0.088 0.496,0.208 0.664,0.359l-0.359,0.837c-0.365,-0.264 -0.743,-0.396 -1.133,-0.396c-0.361,0 -0.638,0.114 -0.832,0.343c-0.193,0.229 -0.289,0.568 -0.289,1.017c0,0.453 0.096,0.795 0.289,1.026c0.194,0.231 0.471,0.346 0.832,0.346c0.39,0 0.768,-0.132 1.133,-0.396l0.359,0.837c-0.168,0.151 -0.389,0.271 -0.664,0.359c-0.275,0.088 -0.56,0.132 -0.854,0.132Z" style="fill:white;fill-rule:nonzero;"/>
    <path d="M135.76,200.962l1.19,0l-2.04,4.484l-0.938,0l-2.04,-4.484l1.227,0l1.291,3.01l1.31,-3.01Z" style="fill:white;fill-rule:nonzero;"/>
    <g>
      <path d="M83.883,308.353l0,-4.483l1.183,0l0,3.526l1.896,0l0,0.957l-3.079,0Z" style="fill:white;fill-rule:nonzero;"/>
      <path d="M87.528,308.353l0,-4.483l3.13,0l0,0.925l-1.965,0l0,0.819l1.839,0l0,0.919l-1.839,0l0,1.82l-1.165,0Z" style="fill:white;fill-rule:nonzero;"/>
      <path d="M93.328,308.41c-0.458,0 -0.856,-0.094 -1.196,-0.28c-0.34,-0.187 -0.602,-0.455 -0.784,-0.803c-0.183,-0.349 -0.274,-0.756 -0.274,-1.222c0,-0.466 0.092,-0.871 0.277,-1.215c0.184,-0.344 0.446,-0.61 0.784,-0.797c0.338,-0.187 0.735,-0.28 1.193,-0.28c0.458,0 0.855,0.093 1.193,0.28c0.338,0.187 0.597,0.453 0.778,0.797c0.18,0.344 0.271,0.749 0.271,1.215c0,0.466 -0.091,0.873 -0.271,1.222c-0.181,0.348 -0.44,0.616 -0.778,0.803c-0.338,0.186 -0.735,0.28 -1.193,0.28Zm0,-0.901c0.336,0 0.599,-0.119 0.79,-0.359c0.191,-0.239 0.287,-0.587 0.287,-1.045c0,-0.453 -0.096,-0.799 -0.287,-1.036c-0.191,-0.237 -0.454,-0.355 -0.79,-0.355c-0.336,0 -0.598,0.117 -0.787,0.352c-0.189,0.235 -0.284,0.582 -0.284,1.039c0,0.462 0.095,0.811 0.284,1.049c0.189,0.237 0.451,0.355 0.787,0.355Z" style="fill:white;fill-rule:nonzero;"/>
      <path d="M101.741,308.353l0,-4.483l3.129,0l0,0.925l-1.964,0l0,0.819l1.838,0l0,0.919l-1.838,0l0,1.82l-1.165,0Z" style="fill:white;fill-rule:nonzero;"/>
      <path d="M105.418,308.353l0,-4.483l3.199,0l0,0.906l-2.047,0l0,0.844l1.915,0l0,0.907l-1.915,0l0,0.919l2.047,0l0,0.907l-3.199,0Z" style="fill:white;fill-rule:nonzero;"/>
      <path d="M109.221,308.353l0,-4.483l3.199,0l0,0.906l-2.046,0l0,0.844l1.914,0l0,0.907l-1.914,0l0,0.919l2.046,0l0,0.907l-3.199,0Z" style="fill:white;fill-rule:nonzero;"/>
      <path d="M113.025,303.87l1.832,0c0.496,0 0.923,0.089 1.282,0.267c0.359,0.179 0.634,0.436 0.825,0.772c0.191,0.336 0.286,0.734 0.286,1.196c0,0.466 -0.094,0.868 -0.283,1.206c-0.189,0.338 -0.463,0.596 -0.822,0.775c-0.359,0.178 -0.788,0.267 -1.288,0.267l-1.832,0l0,-4.483Zm1.75,3.539c0.437,0 0.763,-0.108 0.98,-0.325c0.216,-0.216 0.324,-0.542 0.324,-0.979c0,-0.86 -0.435,-1.291 -1.304,-1.291l-0.566,0l0,2.595l0.566,0Z" style="fill:white;fill-rule:nonzero;"/>
      <g>
        <path d="M96.702,306.33l2.585,0" style="fill:white;stroke:white;stroke-width:0.75px;stroke-linecap:round;stroke-linejoin:round;stroke-miterlimit:1.5;"/>
        <path d="M100.629,306.33l-1.342,1.393l0,-2.735l1.342,1.342Z" style="fill:white;stroke:white;stroke-width:0.75px;stroke-linecap:round;stroke-linejoin:round;stroke-miterlimit:1.5;"/>
      </g>
    </g>
    <g>
      <g>
        <path id="path7809" d="M60.298,126.943l0.029,5.238" style="fill:rgb(204,204,204);fill-rule:nonzero;stroke:rgb(204,204,204);stroke-width:1.2px;stroke-linecap:round;"/>
        <path id="path7812" d="M62.932,129.524l-5.239,0.024" style="fill:rgb(204,204,204);fill-rule:nonzero;stroke:rgb(204,204,204);stroke-width:1.2px;stroke-linecap:round;"/>
        <path id="path7815" d="M41.171,129.377l-5.243,0.024" style="fill:rgb(204,204,204);fill-rule:nonzero;stroke:rgb(204,204,204);stroke-width:1.2px;stroke-linecap:round;"/>
        <path id="path7818" d="M60.74,125.522c3.252,-5.633 1.978,-12.858 -3.008,-17.041c-4.982,-4.183 -12.321,-4.183 -17.303,0c-4.986,4.183 -6.26,11.408 -3.009,17.041l11.66,-6.731l11.66,6.731Z" style="fill:none;stroke:rgb(204,204,204);stroke-width:1.2px;stroke-linecap:round;"/>
      </g>
    </g>
    <path id="path235051" serif:id="path23505" d="M49.087,117l-0.024,-13.31" style="fill:none;stroke:rgb(204,204,204);stroke-width:1px;stroke-linecap:round;"/>
    <circle cx="48.8" cy="118.27" r="10" style="stroke:black;stroke-width:1px;stroke-linecap:round;stroke-linejoin:round;stroke-miterlimit:1.5;"/>
    <g>
      <g>
        <path id="path78091" serif:id="path7809" d="M112.298,126.943l0.029,5.238" style="fill:rgb(204,204,204);fill-rule:nonzero;stroke:rgb(204,204,204);stroke-width:1.2px;stroke-linecap:round;"/>
        <path id="path78121" serif:id="path7812" d="M114.932,129.524l-5.239,0.024" style="fill:rgb(204,204,204);fill-rule:nonzero;stroke:rgb(204,204,204);stroke-width:1.2px;stroke-linecap:round;"/>
        <path id="path78151" serif:id="path7815" d="M93.171,129.377l-5.243,0.024" style="fill:rgb(204,204,204);fill-rule:nonzero;stroke:rgb(204,204,204);stroke-width:1.2px;stroke-linecap:round;"/>
        <path id="path78181" serif:id="path7818" d="M112.74,125.522c3.252,-5.633 1.978,-12.858 -3.008,-17.041c-4.982,-4.183 -12.321,-4.183 -17.303,0c-4.986,4.183 -6.26,11.408 -3.009,17.041l11.66,-6.731l11.66,6.731Z" style="fill:none;stroke:rgb(204,204,204);stroke-width:1.2px;stroke-linecap:round;"/>
      </g>
    </g>
    <path id="path235052" serif:id="path23505" d="M101.087,117l-0.024,-13.31" style="fill:none;stroke:rgb(204,204,204);stroke-width:1px;stroke-linecap:round;"/>
    <circle cx="100.8" cy="118.27" r="10" style="stroke:black;stroke-width:1px;stroke-linecap:round;stroke-linejoin:round;stroke-miterlimit:1.5;"/>
    <g>
      <g>
        <path id="path78092" serif:id="path7809" d="M143.298,168.943l0.029,5.238" style="fill:rgb(204,204,204);fill-rule:nonzero;stroke:rgb(204,204,204);stroke-width:1.2px;stroke-linecap:round;"/>
        <path id="path78122" serif:id="path7812" d="M145.932,171.524l-5.239,0.024" style="fill:rgb(204,204,204);fill-rule:nonzero;stroke:rgb(204,204,204);stroke-width:1.2px;stroke-linecap:round;"/>
        <path id="path78152" serif:id="path7815" d="M124.171,171.377l-5.243,0.024" style="fill:rgb(204,204,204);fill-rule:nonzero;stroke:rgb(204,204,204);stroke-width:1.2px;stroke-linecap:round;"/>
        <path id="path78182" serif:id="path7818" d="M143.74,167.522c3.252,-5.633 1.978,-12.858 -3.008,-17.041c-4.982,-4.183 -12.321,-4.183 -17.303,0c-4.986,4.183 -6.26,11.408 -3.009,17.041l11.66,-6.731l11.66,6.731Z" style="fill:none;stroke:rgb(204,204,204);stroke-width:1.2px;stroke-linecap:round;"/>
      </g>
    </g>
    <path id="path235053" serif:id="path23505" d="M132.087,159l-0.024,-13.31" style="fill:none;stroke:rgb(204,204,204);stroke-width:1px;stroke-linecap:round;"/>
    <circle cx="131.8" cy="160.27" r="10" style="stroke:black;stroke-width:1px;stroke-linecap:round;stroke-linejoin:round;stroke-miterlimit:1.5;"/>
    <g>
      <g>
        <path id="path78093" serif:id="path7809" d="M112.518,296.85l0.028,5.239" style="fill:rgb(204,204,204);fill-rule:nonzero;stroke:rgb(204,204,204);stroke-width:1.2px;stroke-linecap:round;"/>
        <path id="path78123" serif:id="path7812" d="M115.151,299.432l-5.238,0.023" style="fill:rgb(204,204,204);fill-rule:nonzero;stroke:rgb(204,204,204);stroke-width:1.2px;stroke-linecap:round;"/>
        <path id="path78153" serif:id="path7815" d="M93.39,299.284l-5.243,0.024" style="fill:rgb(204,204,204);fill-rule:nonzero;stroke:rgb(204,204,204);stroke-width:1.2px;stroke-linecap:round;"/>
        <path id="path78183" serif:id="path7818" d="M112.96,295.429c3.251,-5.633 1.977,-12.858 -3.009,-17.041c-4.982,-4.183 -12.321,-4.183 -17.302,0c-4.987,4.183 -6.261,11.408 -3.009,17.041l11.66,-6.731l11.66,6.731Z" style="fill:none;stroke:rgb(204,204,204);stroke-width:1.2px;stroke-linecap:round;"/>
      </g>
    </g>
    <path id="path235054" serif:id="path23505" d="M101.307,286.907l-0.024,-13.309" style="fill:none;stroke:rgb(204,204,204);stroke-width:1px;stroke-linecap:round;"/>
    <circle cx="101.02" cy="288.177" r="10" style="stroke:black;stroke-width:1px;stroke-linecap:round;stroke-linejoin:round;stroke-miterlimit:1.5;"/>
    <path d="M25.902,249.177c-0.128,-0.104 -0.256,-0.181 -0.384,-0.231c-0.128,-0.05 -0.252,-0.075 -0.372,-0.075c-0.152,0 -0.276,0.036 -0.372,0.108c-0.096,0.072 -0.144,0.166 -0.144,0.282c0,0.08 0.024,0.146 0.072,0.198c0.048,0.052 0.111,0.097 0.189,0.135c0.078,0.038 0.166,0.071 0.264,0.099c0.098,0.028 0.195,0.058 0.291,0.09c0.384,0.128 0.665,0.299 0.843,0.513c0.178,0.214 0.267,0.493 0.267,0.837c0,0.232 -0.039,0.442 -0.117,0.63c-0.078,0.188 -0.192,0.349 -0.342,0.483c-0.15,0.134 -0.334,0.238 -0.552,0.312c-0.218,0.074 -0.465,0.111 -0.741,0.111c-0.572,0 -1.102,-0.17 -1.59,-0.51l0.504,-0.948c0.176,0.156 0.35,0.272 0.522,0.348c0.172,0.076 0.342,0.114 0.51,0.114c0.192,0 0.335,-0.044 0.429,-0.132c0.094,-0.088 0.141,-0.188 0.141,-0.3c0,-0.068 -0.012,-0.127 -0.036,-0.177c-0.024,-0.05 -0.064,-0.096 -0.12,-0.138c-0.056,-0.042 -0.129,-0.081 -0.219,-0.117c-0.09,-0.036 -0.199,-0.076 -0.327,-0.12c-0.152,-0.048 -0.301,-0.101 -0.447,-0.159c-0.146,-0.058 -0.276,-0.135 -0.39,-0.231c-0.114,-0.096 -0.206,-0.217 -0.276,-0.363c-0.07,-0.146 -0.105,-0.331 -0.105,-0.555c0,-0.224 0.037,-0.427 0.111,-0.609c0.074,-0.182 0.178,-0.338 0.312,-0.468c0.134,-0.13 0.298,-0.231 0.492,-0.303c0.194,-0.072 0.411,-0.108 0.651,-0.108c0.224,0 0.458,0.031 0.702,0.093c0.244,0.062 0.478,0.153 0.702,0.273l-0.468,0.918Z" style="fill:white;fill-rule:nonzero;"/>
    <path d="M29.67,250.863l-0.528,-1.506l-0.528,1.506l1.056,0Zm0.312,0.894l-1.68,0l-0.27,0.786l-1.254,0l1.722,-4.524l1.284,0l1.722,4.524l-1.254,0l-0.27,-0.786Z" style="fill:white;fill-rule:nonzero;"/>
    <path d="M32.574,248.019l0.78,2.922l0.96,-2.922l0.936,0l0.96,2.922l0.78,-2.922l1.23,0l-1.35,4.524l-1.2,0l-0.888,-2.622l-0.888,2.622l-1.2,0l-1.35,-4.524l1.23,0Z" style="fill:white;fill-rule:nonzero;"/>
    <path d="M24.964,237.801l0,3.528l-1.176,0l0,-3.528l-0.966,0l0,-0.996l3.108,0l0,0.996l-0.966,0Z" style="fill:white;fill-rule:nonzero;"/>
    <path d="M27.628,238.827l0.222,0c0.232,0 0.41,-0.048 0.534,-0.144c0.124,-0.096 0.186,-0.234 0.186,-0.414c0,-0.18 -0.062,-0.318 -0.186,-0.414c-0.124,-0.096 -0.302,-0.144 -0.534,-0.144l-0.222,0l0,1.116Zm2.586,2.502l-1.464,0l-1.122,-1.74l0,1.74l-1.176,0l0,-4.524l1.83,0c0.252,0 0.472,0.037 0.66,0.111c0.188,0.074 0.343,0.175 0.465,0.303c0.122,0.128 0.214,0.276 0.276,0.444c0.062,0.168 0.093,0.348 0.093,0.54c0,0.344 -0.083,0.623 -0.249,0.837c-0.166,0.214 -0.411,0.359 -0.735,0.435l1.422,1.854Z" style="fill:white;fill-rule:nonzero;"/>
    <rect x="30.706" y="236.805" width="1.176" height="4.524" style="fill:white;fill-rule:nonzero;"/>
    <path d="M26.676,260.85c-0.272,-0.332 -0.608,-0.498 -1.008,-0.498c-0.176,0 -0.339,0.032 -0.489,0.096c-0.15,0.064 -0.279,0.151 -0.387,0.261c-0.108,0.11 -0.193,0.241 -0.255,0.393c-0.062,0.152 -0.093,0.316 -0.093,0.492c0,0.18 0.031,0.346 0.093,0.498c0.062,0.152 0.148,0.284 0.258,0.396c0.11,0.112 0.239,0.2 0.387,0.264c0.148,0.064 0.308,0.096 0.48,0.096c0.376,0 0.714,-0.16 1.014,-0.48l0,1.392l-0.12,0.042c-0.18,0.064 -0.348,0.111 -0.504,0.141c-0.156,0.03 -0.31,0.045 -0.462,0.045c-0.312,0 -0.611,-0.059 -0.897,-0.177c-0.286,-0.118 -0.538,-0.284 -0.756,-0.498c-0.218,-0.214 -0.393,-0.468 -0.525,-0.762c-0.132,-0.294 -0.198,-0.615 -0.198,-0.963c0,-0.348 0.065,-0.667 0.195,-0.957c0.13,-0.29 0.304,-0.54 0.522,-0.75c0.218,-0.21 0.471,-0.374 0.759,-0.492c0.288,-0.118 0.59,-0.177 0.906,-0.177c0.18,0 0.357,0.019 0.531,0.057c0.174,0.038 0.357,0.097 0.549,0.177l0,1.404Z" style="fill:white;fill-rule:nonzero;"/>
    <path d="M28.788,261.084l1.698,0l0,-1.746l1.176,0l0,4.524l-1.176,0l0,-1.866l-1.698,0l0,1.866l-1.176,0l0,-4.524l1.176,0l0,1.746Z" style="fill:white;fill-rule:nonzero;"/>
    <path d="M35.07,262.182l-0.528,-1.506l-0.528,1.506l1.056,0Zm0.312,0.894l-1.68,0l-0.27,0.786l-1.254,0l1.722,-4.524l1.284,0l1.722,4.524l-1.254,0l-0.27,-0.786Z" style="fill:white;fill-rule:nonzero;"/>
    <path d="M38.286,261.6c0,0.18 0.034,0.346 0.102,0.498c0.068,0.152 0.16,0.284 0.276,0.396c0.116,0.112 0.251,0.199 0.405,0.261c0.154,0.062 0.317,0.093 0.489,0.093c0.172,0 0.335,-0.031 0.489,-0.093c0.154,-0.062 0.29,-0.149 0.408,-0.261c0.118,-0.112 0.211,-0.244 0.279,-0.396c0.068,-0.152 0.102,-0.318 0.102,-0.498c0,-0.18 -0.034,-0.346 -0.102,-0.498c-0.068,-0.152 -0.161,-0.284 -0.279,-0.396c-0.118,-0.112 -0.254,-0.199 -0.408,-0.261c-0.154,-0.062 -0.317,-0.093 -0.489,-0.093c-0.172,0 -0.335,0.031 -0.489,0.093c-0.154,0.062 -0.289,0.149 -0.405,0.261c-0.116,0.112 -0.208,0.244 -0.276,0.396c-0.068,0.152 -0.102,0.318 -0.102,0.498Zm-1.23,0c0,-0.336 0.062,-0.649 0.186,-0.939c0.124,-0.29 0.296,-0.543 0.516,-0.759c0.22,-0.216 0.483,-0.385 0.789,-0.507c0.306,-0.122 0.643,-0.183 1.011,-0.183c0.364,0 0.7,0.061 1.008,0.183c0.308,0.122 0.573,0.291 0.795,0.507c0.222,0.216 0.395,0.469 0.519,0.759c0.124,0.29 0.186,0.603 0.186,0.939c0,0.336 -0.062,0.649 -0.186,0.939c-0.124,0.29 -0.297,0.543 -0.519,0.759c-0.222,0.216 -0.487,0.385 -0.795,0.507c-0.308,0.122 -0.644,0.183 -1.008,0.183c-0.368,0 -0.705,-0.061 -1.011,-0.183c-0.306,-0.122 -0.569,-0.291 -0.789,-0.507c-0.22,-0.216 -0.392,-0.469 -0.516,-0.759c-0.124,-0.29 -0.186,-0.603 -0.186,-0.939Z" style="fill:white;fill-rule:nonzero;"/>
    <path d="M45.294,260.496c-0.128,-0.104 -0.256,-0.181 -0.384,-0.231c-0.128,-0.05 -0.252,-0.075 -0.372,-0.075c-0.152,0 -0.276,0.036 -0.372,0.108c-0.096,0.072 -0.144,0.166 -0.144,0.282c0,0.08 0.024,0.146 0.072,0.198c0.048,0.052 0.111,0.097 0.189,0.135c0.078,0.038 0.166,0.071 0.264,0.099c0.098,0.028 0.195,0.058 0.291,0.09c0.384,0.128 0.665,0.299 0.843,0.513c0.178,0.214 0.267,0.493 0.267,0.837c0,0.232 -0.039,0.442 -0.117,0.63c-0.078,0.188 -0.192,0.349 -0.342,0.483c-0.15,0.134 -0.334,0.238 -0.552,0.312c-0.218,0.074 -0.465,0.111 -0.741,0.111c-0.572,0 -1.102,-0.17 -1.59,-0.51l0.504,-0.948c0.176,0.156 0.35,0.272 0.522,0.348c0.172,0.076 0.342,0.114 0.51,0.114c0.192,0 0.335,-0.044 0.429,-0.132c0.094,-0.088 0.141,-0.188 0.141,-0.3c0,-0.068 -0.012,-0.127 -0.036,-0.177c-0.024,-0.05 -0.064,-0.096 -0.12,-0.138c-0.056,-0.042 -0.129,-0.081 -0.219,-0.117c-0.09,-0.036 -0.199,-0.076 -0.327,-0.12c-0.152,-0.048 -0.301,-0.101 -0.447,-0.159c-0.146,-0.058 -0.276,-0.135 -0.39,-0.231c-0.114,-0.096 -0.206,-0.217 -0.276,-0.363c-0.07,-0.146 -0.105,-0.331 -0.105,-0.555c0,-0.224 0.037,-0.427 0.111,-0.609c0.074,-0.182 0.178,-0.338 0.312,-0.468c0.134,-0.13 0.298,-0.231 0.492,-0.303c0.194,-0.072 0.411,-0.108 0.651,-0.108c0.224,0 0.458,0.031 0.702,0.093c0.244,0.062 0.478,0.153 0.702,0.273l-0.468,0.918Z" style="fill:white;fill-rule:nonzero;"/>
    <path d="M9.233,228.463l0,-5.696l1.504,0l0,4.48l2.408,0l0,1.216l-3.912,0Z" style="fill:rgb(140,140,140);fill-rule:nonzero;"/>
    <path d="M13.865,228.463l0,-5.696l3.976,0l0,1.176l-2.496,0l0,1.04l2.336,0l0,1.168l-2.336,0l0,2.312l-1.48,0Z" style="fill:rgb(140,140,140);fill-rule:nonzero;"/>
    <path d="M21.233,228.535c-0.582,0 -1.088,-0.119 -1.52,-0.356c-0.432,-0.238 -0.764,-0.578 -0.996,-1.02c-0.232,-0.443 -0.348,-0.96 -0.348,-1.552c0,-0.592 0.117,-1.107 0.352,-1.544c0.234,-0.438 0.566,-0.775 0.996,-1.012c0.429,-0.238 0.934,-0.356 1.516,-0.356c0.581,0 1.086,0.118 1.516,0.356c0.429,0.237 0.758,0.574 0.988,1.012c0.229,0.437 0.344,0.952 0.344,1.544c0,0.592 -0.115,1.109 -0.344,1.552c-0.23,0.442 -0.559,0.782 -0.988,1.02c-0.43,0.237 -0.935,0.356 -1.516,0.356Zm0,-1.144c0.426,0 0.761,-0.152 1.004,-0.456c0.242,-0.304 0.364,-0.747 0.364,-1.328c0,-0.576 -0.122,-1.015 -0.364,-1.316c-0.243,-0.302 -0.578,-0.452 -1.004,-0.452c-0.427,0 -0.76,0.149 -1,0.448c-0.24,0.298 -0.36,0.738 -0.36,1.32c0,0.586 0.12,1.03 0.36,1.332c0.24,0.301 0.573,0.452 1,0.452Z" style="fill:rgb(140,140,140);fill-rule:nonzero;"/>
    <path d="M15.55,269.357l1.068,0l-1.53,4.272l-0.894,0l-0.894,-2.538l-0.912,2.538l-0.894,0l-1.524,-4.272l1.146,0l0.876,2.694l0.954,-2.694l0.768,0l0.918,2.742l0.918,-2.742Z" style="fill:rgb(140,140,140);fill-rule:nonzero;"/>
    <path d="M19.894,273.629l-0.378,-0.882l-1.896,0l-0.378,0.882l-1.128,0l1.998,-4.272l0.888,0l2.004,4.272l-1.11,0Zm-1.908,-1.728l1.164,0l-0.582,-1.35l-0.582,1.35Z" style="fill:rgb(140,140,140);fill-rule:nonzero;"/>
    <path d="M23.938,269.357l1.134,0l-1.944,4.272l-0.894,0l-1.944,-4.272l1.17,0l1.23,2.868l1.248,-2.868Z" style="fill:rgb(140,140,140);fill-rule:nonzero;"/>
    <path d="M25.318,273.629l0,-4.272l3.048,0l0,0.864l-1.95,0l0,0.804l1.824,0l0,0.864l-1.824,0l0,0.876l1.95,0l0,0.864l-3.048,0Z" style="fill:rgb(140,140,140);fill-rule:nonzero;"/>
    <g>
      <path d="M32.515,308.349l0,-4.483l1.184,0l0,3.526l1.895,0l0,0.957l-3.079,0Z" style="fill:white;fill-rule:nonzero;"/>
      <path d="M36.161,308.349l0,-4.483l3.13,0l0,0.926l-1.965,0l0,0.818l1.839,0l0,0.92l-1.839,0l0,1.819l-1.165,0Z" style="fill:white;fill-rule:nonzero;"/>
      <path d="M41.961,308.406c-0.458,0 -0.857,-0.093 -1.197,-0.28c-0.34,-0.187 -0.601,-0.455 -0.784,-0.803c-0.182,-0.348 -0.274,-0.756 -0.274,-1.222c0,-0.466 0.093,-0.871 0.277,-1.215c0.185,-0.344 0.446,-0.61 0.784,-0.797c0.338,-0.186 0.736,-0.28 1.194,-0.28c0.457,0 0.855,0.094 1.193,0.28c0.338,0.187 0.597,0.453 0.778,0.797c0.18,0.344 0.27,0.749 0.27,1.215c0,0.466 -0.09,0.874 -0.27,1.222c-0.181,0.348 -0.44,0.616 -0.778,0.803c-0.338,0.187 -0.736,0.28 -1.193,0.28Zm0,-0.9c0.336,0 0.599,-0.12 0.79,-0.359c0.191,-0.24 0.286,-0.588 0.286,-1.046c0,-0.453 -0.095,-0.798 -0.286,-1.035c-0.191,-0.238 -0.454,-0.356 -0.79,-0.356c-0.336,0 -0.599,0.117 -0.787,0.352c-0.189,0.235 -0.284,0.582 -0.284,1.039c0,0.462 0.095,0.812 0.284,1.049c0.188,0.237 0.451,0.356 0.787,0.356Z" style="fill:white;fill-rule:nonzero;"/>
      <path d="M50.373,308.349l0,-4.483l3.13,0l0,0.926l-1.965,0l0,0.818l1.839,0l0,0.92l-1.839,0l0,1.819l-1.165,0Z" style="fill:white;fill-rule:nonzero;"/>
      <path d="M57.949,308.349l-1.253,0l-0.58,-1.492c-0.067,-0.168 -0.224,-0.252 -0.472,-0.252l-0.428,0l0,1.744l-1.165,0l0,-4.483l2.084,0c0.542,0 0.949,0.116 1.222,0.349c0.273,0.233 0.409,0.566 0.409,0.998c0,0.303 -0.081,0.564 -0.242,0.784c-0.162,0.221 -0.39,0.377 -0.684,0.47c0.126,0.025 0.24,0.084 0.34,0.176c0.101,0.092 0.181,0.216 0.24,0.371l0.529,1.335Zm-2.003,-2.625c0.252,0 0.435,-0.039 0.548,-0.117c0.113,-0.078 0.17,-0.198 0.17,-0.362c0,-0.172 -0.056,-0.296 -0.167,-0.372c-0.111,-0.075 -0.295,-0.113 -0.551,-0.113l-0.743,0l0,0.964l0.743,0Z" style="fill:white;fill-rule:nonzero;"/>
      <path d="M58.547,308.349l0,-4.483l3.199,0l0,0.907l-2.047,0l0,0.843l1.914,0l0,0.907l-1.914,0l0,0.92l2.047,0l0,0.906l-3.199,0Z" style="fill:white;fill-rule:nonzero;"/>
      <path d="M65.694,308.116c0.092,0.156 0.207,0.302 0.343,0.438c0.136,0.136 0.293,0.278 0.469,0.425l-0.787,0.573c-0.462,-0.302 -0.829,-0.684 -1.102,-1.146l-0.126,0c-0.457,0 -0.856,-0.093 -1.196,-0.28c-0.34,-0.187 -0.602,-0.455 -0.784,-0.803c-0.183,-0.348 -0.274,-0.756 -0.274,-1.222c0,-0.466 0.092,-0.871 0.277,-1.215c0.185,-0.344 0.446,-0.61 0.784,-0.797c0.338,-0.186 0.736,-0.28 1.193,-0.28c0.458,0 0.855,0.094 1.193,0.28c0.338,0.187 0.598,0.453 0.778,0.797c0.181,0.344 0.271,0.749 0.271,1.215c0,0.466 -0.09,0.872 -0.271,1.219c-0.18,0.346 -0.436,0.612 -0.768,0.796Zm-2.273,-2.015c0,0.462 0.094,0.812 0.283,1.049c0.189,0.237 0.451,0.356 0.787,0.356c0.336,0 0.599,-0.12 0.79,-0.359c0.191,-0.24 0.287,-0.588 0.287,-1.046c0,-0.453 -0.096,-0.798 -0.287,-1.035c-0.191,-0.238 -0.454,-0.356 -0.79,-0.356c-0.336,0 -0.598,0.117 -0.787,0.352c-0.189,0.235 -0.283,0.582 -0.283,1.039Z" style="fill:white;fill-rule:nonzero;"/>
      <g>
        <path d="M45.334,306.326l2.586,0" style="fill:white;stroke:white;stroke-width:0.75px;stroke-linecap:round;stroke-linejoin:round;stroke-miterlimit:1.5;"/>
        <path d="M49.262,306.326l-1.342,1.393l0,-2.735l1.342,1.342Z" style="fill:white;stroke:white;stroke-width:0.75px;stroke-linecap:round;stroke-linejoin:round;stroke-miterlimit:1.5;"/>
      </g>
    </g>
    <g>
      <g>
        <path id="path78094" serif:id="path7809" d="M61.151,296.847l0.028,5.238" style="fill:rgb(204,204,204);fill-rule:nonzero;stroke:rgb(204,204,204);stroke-width:1.2px;stroke-linecap:round;"/>
        <path id="path78124" serif:id="path7812" d="M63.784,299.428l-5.238,0.024" style="fill:rgb(204,204,204);fill-rule:nonzero;stroke:rgb(204,204,204);stroke-width:1.2px;stroke-linecap:round;"/>
        <path id="path78154" serif:id="path7815" d="M42.023,299.28l-5.243,0.024" style="fill:rgb(204,204,204);fill-rule:nonzero;stroke:rgb(204,204,204);stroke-width:1.2px;stroke-linecap:round;"/>
        <path id="path78184" serif:id="path7818" d="M61.593,295.425c3.251,-5.632 1.977,-12.858 -3.009,-17.041c-4.982,-4.183 -12.321,-4.183 -17.303,0c-4.986,4.183 -6.26,11.409 -3.009,17.041l11.661,-6.73l11.66,6.73Z" style="fill:none;stroke:rgb(204,204,204);stroke-width:1.2px;stroke-linecap:round;"/>
      </g>
    </g>
    <path id="path235055" serif:id="path23505" d="M49.94,286.903l-0.024,-13.309" style="fill:none;stroke:rgb(204,204,204);stroke-width:1px;stroke-linecap:round;"/>
    <circle cx="49.652" cy="288.174" r="10" style="stroke:black;stroke-width:1px;stroke-linecap:round;stroke-linejoin:round;stroke-miterlimit:1.5;"/>
    <path d="M126.048,285.553c-0.336,0 -0.668,-0.044 -0.995,-0.132c-0.328,-0.088 -0.594,-0.208 -0.8,-0.359l0.372,-0.838c0.218,0.139 0.45,0.245 0.696,0.318c0.245,0.074 0.492,0.11 0.739,0.11c0.252,0 0.445,-0.034 0.58,-0.103c0.134,-0.07 0.201,-0.167 0.201,-0.293c0,-0.114 -0.061,-0.207 -0.182,-0.28c-0.122,-0.074 -0.351,-0.146 -0.687,-0.218c-0.424,-0.084 -0.753,-0.188 -0.988,-0.311c-0.235,-0.124 -0.4,-0.27 -0.495,-0.438c-0.094,-0.168 -0.141,-0.372 -0.141,-0.611c0,-0.273 0.077,-0.519 0.233,-0.74c0.155,-0.22 0.373,-0.392 0.655,-0.516c0.281,-0.124 0.602,-0.186 0.963,-0.186c0.323,0 0.637,0.045 0.941,0.136c0.305,0.09 0.543,0.208 0.715,0.355l-0.365,0.838c-0.197,-0.139 -0.405,-0.245 -0.624,-0.318c-0.218,-0.074 -0.436,-0.11 -0.654,-0.11c-0.215,0 -0.387,0.041 -0.517,0.122c-0.13,0.082 -0.195,0.192 -0.195,0.331c0,0.076 0.023,0.139 0.069,0.189c0.046,0.05 0.133,0.1 0.258,0.148c0.126,0.048 0.315,0.1 0.567,0.154c0.407,0.088 0.727,0.194 0.96,0.318c0.233,0.124 0.398,0.269 0.495,0.435c0.096,0.165 0.145,0.364 0.145,0.595c0,0.436 -0.17,0.779 -0.51,1.029c-0.34,0.25 -0.819,0.375 -1.436,0.375Z" style="fill:white;fill-rule:nonzero;"/>
    <path d="M132.679,281.013l-1.896,2.77l0,1.713l-1.19,0l0,-1.719l-1.883,-2.764l1.335,0l1.134,1.788l1.152,-1.788l1.348,0Z" style="fill:white;fill-rule:nonzero;"/>
    <path d="M135.556,281.013l1.115,0l0,4.483l-0.876,0l-2.033,-2.544l0,2.544l-1.102,0l0,-4.483l0.862,0l2.034,2.531l0,-2.531Z" style="fill:white;fill-rule:nonzero;"/>
    <path d="M139.662,285.553c-0.466,0 -0.872,-0.096 -1.219,-0.287c-0.346,-0.191 -0.613,-0.46 -0.799,-0.809c-0.187,-0.348 -0.281,-0.751 -0.281,-1.209c0,-0.453 0.094,-0.853 0.281,-1.199c0.186,-0.347 0.453,-0.615 0.799,-0.806c0.347,-0.191 0.753,-0.287 1.219,-0.287c0.294,0 0.578,0.044 0.853,0.132c0.275,0.089 0.496,0.208 0.664,0.359l-0.359,0.838c-0.365,-0.265 -0.743,-0.397 -1.133,-0.397c-0.361,0 -0.638,0.115 -0.831,0.343c-0.193,0.229 -0.29,0.568 -0.29,1.017c0,0.454 0.097,0.796 0.29,1.027c0.193,0.231 0.47,0.346 0.831,0.346c0.39,0 0.768,-0.132 1.133,-0.397l0.359,0.838c-0.168,0.151 -0.389,0.271 -0.664,0.359c-0.275,0.088 -0.559,0.132 -0.853,0.132Z" style="fill:white;fill-rule:nonzero;"/>
  </g>
</svg>