<?xml version="1.0" encoding="UTF-8" standalone="no"?>
<!DOCTYPE svg PUBLIC "-//W3C//DTD SVG 1.1//EN" "http://www.w3.org/Graphics/SVG/1.1/DTD/svg11.dtd">
<svg width="13px" height="37px" version="1.1" xmlns="http://www.w3.org/2000/svg" xmlns:xlink="http://www.w3.org/1999/xlink" xml:space="preserve" xmlns:serif="http://www.serif.com/" style="fill-rule:evenodd;clip-rule:evenodd;stroke-linecap:round;stroke-linejoin:round;stroke-miterlimit:1.5;">
    <g>
        <g transform="matrix(0.433333,0,0,0.420455,0,-0.840909)">
            <path d="M30,5.139c0,-1.732 -1.365,-3.139 -3.046,-3.139l-23.908,0c-1.681,0 -3.046,1.407 -3.046,3.139l0,81.722c0,1.732 1.365,3.139 3.046,3.139l23.908,0c1.681,0 3.046,-1.407 3.046,-3.139l0,-81.722Z" style="fill:rgb(146,146,146);"/>
        </g>
        <g transform="matrix(0.5,0,0,0.6068,-0.981232,-13.7019)">
            <path d="M24,28.72c0,-1.501 -1.479,-2.72 -3.3,-2.72l-11.4,0c-1.821,0 -3.3,1.219 -3.3,2.72l0,47.56c0,1.501 1.479,2.72 3.3,2.72l11.4,0c1.821,0 3.3,-1.219 3.3,-2.72l0,-47.56Z" style="fill:rgb(20,20,20);"/>
        </g>
    </g>
    <g transform="matrix(1,0,0,1,0,1)">
        <g transform="matrix(0.447299,0,0,0.447222,-0.19093,11.7503)">
            <path d="M27,4.213c0,-1.221 -0.992,-2.213 -2.213,-2.213l-19.574,0c-1.221,0 -2.213,0.992 -2.213,2.213l0,19.574c0,1.221 0.992,2.213 2.213,2.213l19.574,0c1.221,0 2.213,-0.992 2.213,-2.213l0,-19.574Z" style="fill:rgb(51,51,51);stroke:black;stroke-width:1.57px;"/>
        </g>
        <g transform="matrix(0.424676,0,0,0.419544,0.158984,12.1324)">
            <path d="M27,4.213c0,-1.221 -0.98,-2.213 -2.187,-2.213l-19.626,0c-1.207,0 -2.187,0.992 -2.187,2.213l0,19.574c0,1.221 0.98,2.213 2.187,2.213l19.626,0c1.207,0 2.187,-0.992 2.187,-2.213l0,-19.574Z" style="fill:none;stroke:rgb(115,115,115);stroke-width:0.71px;"/>
        </g>
        <g transform="matrix(0.473836,0,0,0.474124,-0.590973,11.3909)">
            <path d="M27,4.212c0,-1.221 -0.992,-2.212 -2.213,-2.212l-19.574,0c-1.221,0 -2.213,0.991 -2.213,2.212l0,19.576c0,1.221 0.992,2.212 2.213,2.212l19.574,0c1.221,0 2.213,-0.991 2.213,-2.212l0,-19.576Z" style="fill:none;stroke:rgb(204,204,204);stroke-width:0.63px;"/>
        </g>
        <g transform="matrix(0.411186,0,0,0.0177872,0.332216,13.7501)">
            <path d="M27,9.104c0,-3.921 -0.138,-7.104 -0.307,-7.104l-23.386,0c-0.169,0 -0.307,3.183 -0.307,7.104l0,9.792c0,3.921 0.138,7.104 0.307,7.104l23.386,0c0.169,0 0.307,-3.183 0.307,-7.104l0,-9.792Z" style="fill:rgb(1,1,1);"/>
        </g>
        <g transform="matrix(0.411186,0,0,0.0177872,0.332216,21.9831)">
            <path d="M27,9.104c0,-3.921 -0.138,-7.104 -0.307,-7.104l-23.386,0c-0.169,0 -0.307,3.183 -0.307,7.104l0,9.792c0,3.921 0.138,7.104 0.307,7.104l23.386,0c0.169,0 0.307,-3.183 0.307,-7.104l0,-9.792Z" style="fill:rgb(1,1,1);"/>
        </g>
        <g transform="matrix(0.411186,0,0,0.0177872,0.332216,20.6109)">
            <path d="M27,9.104c0,-3.921 -0.138,-7.104 -0.307,-7.104l-23.386,0c-0.169,0 -0.307,3.183 -0.307,7.104l0,9.792c0,3.921 0.138,7.104 0.307,7.104l23.386,0c0.169,0 0.307,-3.183 0.307,-7.104l0,-9.792Z" style="fill:rgb(1,1,1);"/>
        </g>
        <g transform="matrix(0.411186,0,0,0.0177872,0.332216,19.2388)">
            <path d="M27,9.104c0,-3.921 -0.138,-7.104 -0.307,-7.104l-23.386,0c-0.169,0 -0.307,3.183 -0.307,7.104l0,9.792c0,3.921 0.138,7.104 0.307,7.104l23.386,0c0.169,0 0.307,-3.183 0.307,-7.104l0,-9.792Z" style="fill:rgb(1,1,1);"/>
        </g>
        <g transform="matrix(0.411186,0,0,0.0177872,0.332216,17.8666)">
            <path d="M27,9.104c0,-3.921 -0.138,-7.104 -0.307,-7.104l-23.386,0c-0.169,0 -0.307,3.183 -0.307,7.104l0,9.792c0,3.921 0.138,7.104 0.307,7.104l23.386,0c0.169,0 0.307,-3.183 0.307,-7.104l0,-9.792Z" style="fill:rgb(1,1,1);"/>
        </g>
        <g transform="matrix(0.411186,0,0,0.0177872,0.332216,16.4944)">
            <path d="M27,9.104c0,-3.921 -0.138,-7.104 -0.307,-7.104l-23.386,0c-0.169,0 -0.307,3.183 -0.307,7.104l0,9.792c0,3.921 0.138,7.104 0.307,7.104l23.386,0c0.169,0 0.307,-3.183 0.307,-7.104l0,-9.792Z" style="fill:rgb(1,1,1);"/>
        </g>
        <g transform="matrix(0.411186,0,0,0.0177872,0.332216,15.1223)">
            <path d="M27,9.104c0,-3.921 -0.138,-7.104 -0.307,-7.104l-23.386,0c-0.169,0 -0.307,3.183 -0.307,7.104l0,9.792c0,3.921 0.138,7.104 0.307,7.104l23.386,0c0.169,0 0.307,-3.183 0.307,-7.104l0,-9.792Z" style="fill:rgb(1,1,1);"/>
        </g>
        <g transform="matrix(0.201407,0,0,0.155507,3.37008,15.7352)">
            <path d="M27,4.213c0,-1.221 -0.766,-2.213 -1.709,-2.213l-20.582,0c-0.943,0 -1.709,0.992 -1.709,2.213l0,19.574c0,1.221 0.766,2.213 1.709,2.213l20.582,0c0.943,0 1.709,-0.992 1.709,-2.213l0,-19.574Z" style="fill:none;stroke:rgb(128,128,128);stroke-width:1.67px;"/>
        </g>
        <g transform="matrix(1,0,0,1,-229.581,-117.534)">
            <rect x="234" y="134" width="4" height="2.808" style="fill:white;stroke:black;stroke-width:0.7px;"/>
        </g>
    </g>
</svg>
