<svg width="150px" height="380px" version="1.1" xmlns="http://www.w3.org/2000/svg" xmlns:xlink="http://www.w3.org/1999/xlink" xml:space="preserve" xmlns:serif="http://www.serif.com/" style="fill-rule:evenodd;clip-rule:evenodd;stroke-linecap:round;">
  <defs>
    <linearGradient id="_Linear1" x1="0" y1="0" x2="1" y2="0" gradientUnits="userSpaceOnUse" gradientTransform="matrix(150,-379.998,379.998,150,0.000328145,379.998)">
      <stop offset="0" style="stop-color:rgb(9,13,17);stop-opacity:1"/>
      <stop offset="1" style="stop-color:rgb(24,35,46);stop-opacity:1"/>
    </linearGradient>
    <linearGradient id="_Linear2" x1="0" y1="0" x2="1" y2="0" gradientUnits="userSpaceOnUse" gradientTransform="matrix(2.52765e-15,-41.2797,41.2797,2.52765e-15,148.327,328.444)">
      <stop offset="0" style="stop-color:rgb(155,155,155);stop-opacity:1"/>
      <stop offset="1" style="stop-color:rgb(36,36,36);stop-opacity:1"/>
    </linearGradient>
  </defs>
  <g id="Panel">
    <rect id="rect9931" x="0" y="0" width="150" height="380" style="fill:rgb(26,26,26);"/>
    <rect id="rect18988" x="0" y="0" width="150" height="379.998" style="fill:url(#_Linear1);"/>
    <path id="rect7562" d="M148.327,292.164c0,-2.76 -2.241,-5 -5,-5l-57.741,0c-2.76,0 -5,2.24 -5,5l0,31.28c0,2.759 2.24,5 5,5l57.741,0c2.759,0 5,-2.241 5,-5l0,-31.28Z" style="fill:url(#_Linear2);"/>
    <path id="rect7562-2" d="M146.791,293.739c0,-2.76 -2.24,-5 -5,-5l-54.643,0c-2.759,0 -5,2.24 -5,5l0,28.222c0,2.76 2.241,5 5,5l54.643,0c2.76,0 5,-2.24 5,-5l0,-28.222Z" style="fill:rgb(13,20,26);"/>
    <path id="path18991" d="M39.158,38.559l0,-7.351l1.378,0l0,3.203c0.45,-0.72 1.03,-1.08 1.742,-1.08c0.455,0 0.815,0.144 1.08,0.433c0.264,0.289 0.395,0.683 0.395,1.183l0,3.612l-1.378,0l0,-3.273c0,-0.58 -0.192,-0.87 -0.577,-0.87c-0.438,0 -0.858,0.308 -1.262,0.927l0,3.216l-1.378,0Z" style="fill:white;fill-rule:nonzero;"/>
    <path id="path18993" d="M45.42,38.559l0,-5.112l1.378,0l0,5.112l-1.378,0Zm0,-5.972l0,-1.151l1.378,0l0,1.151l-1.378,0Z" style="fill:white;fill-rule:nonzero;"/>
    <path id="path18995" d="M51.156,38.532c-0.33,0.095 -0.589,0.144 -0.778,0.144c-1.195,0 -1.792,-0.559 -1.792,-1.676l0,-2.692l-0.573,0l0,-0.861l0.573,0l0,-0.86l1.378,-0.159l0,1.019l1.093,0l0,0.861l-1.093,0l0,2.509c0,0.628 0.256,0.942 0.768,0.942c0.118,0 0.259,-0.023 0.424,-0.066l0,0.839Z" style="fill:white;fill-rule:nonzero;"/>
    <path id="path18997" d="M55.019,38.532c-0.328,0.095 -0.587,0.144 -0.777,0.144c-1.195,0 -1.792,-0.559 -1.792,-1.676l0,-2.692l-0.573,0l0,-0.861l0.573,0l0,-0.86l1.378,-0.159l0,1.019l1.094,0l0,0.861l-1.094,0l0,2.509c0,0.628 0.255,0.942 0.768,0.942c0.118,0 0.259,-0.023 0.423,-0.066l0,0.839Z" style="fill:white;fill-rule:nonzero;"/>
    <path id="path18999" d="M56.248,38.559l0,-5.112l1.379,0l0,5.112l-1.379,0Zm0,-5.972l0,-1.151l1.379,0l0,1.151l-1.379,0Z" style="fill:white;fill-rule:nonzero;"/>
    <path id="path19001" d="M59.35,38.559l0,-5.112l1.377,0l0,0.964c0.45,-0.72 1.03,-1.08 1.742,-1.08c0.456,0 0.816,0.144 1.08,0.433c0.263,0.289 0.395,0.683 0.395,1.183l0,3.612l-1.378,0l0,-3.273c0,-0.58 -0.193,-0.87 -0.577,-0.87c-0.438,0 -0.859,0.308 -1.262,0.927l0,3.216l-1.377,0Z" style="fill:white;fill-rule:nonzero;"/>
    <path id="path19003" d="M65.648,40.146l0.111,-1c0.569,0.26 1.11,0.39 1.626,0.39c0.509,0 0.876,-0.108 1.103,-0.325c0.226,-0.218 0.34,-0.569 0.34,-1.057l0,-0.698c-0.336,0.736 -0.89,1.103 -1.663,1.103c-0.607,0 -1.09,-0.228 -1.447,-0.682c-0.357,-0.455 -0.536,-1.07 -0.536,-1.846c0,-0.817 0.2,-1.47 0.601,-1.962c0.4,-0.492 0.932,-0.738 1.597,-0.738c0.521,0 1.004,0.211 1.448,0.633l0.144,-0.517l1.238,0l0,3.902c0,0.779 -0.047,1.34 -0.141,1.685c-0.096,0.345 -0.279,0.638 -0.552,0.88c-0.46,0.397 -1.106,0.595 -1.942,0.595c-0.593,0 -1.234,-0.12 -1.927,-0.363Zm3.18,-3.491l0,-1.885c-0.333,-0.376 -0.68,-0.564 -1.043,-0.564c-0.347,0 -0.624,0.158 -0.829,0.475c-0.205,0.316 -0.307,0.742 -0.307,1.276c0,0.999 0.322,1.499 0.963,1.499c0.445,0 0.849,-0.267 1.216,-0.801Z" style="fill:white;fill-rule:nonzero;"/>
    <path id="path19005" d="M79.205,38.387c-0.655,0.192 -1.276,0.289 -1.863,0.289c-0.853,0 -1.526,-0.243 -2.02,-0.727c-0.493,-0.484 -0.74,-1.145 -0.74,-1.983c0,-0.792 0.226,-1.428 0.678,-1.911c0.451,-0.483 1.048,-0.724 1.789,-0.724c0.749,0 1.295,0.236 1.639,0.707c0.344,0.472 0.517,1.219 0.517,2.239l-3.17,0c0.093,0.976 0.628,1.463 1.606,1.463c0.462,0 0.983,-0.107 1.564,-0.321l0,0.968Zm-3.189,-2.887l1.835,0c0,-0.872 -0.282,-1.307 -0.843,-1.307c-0.572,0 -0.902,0.435 -0.992,1.307Z" style="fill:white;fill-rule:nonzero;"/>
    <path id="path19007" d="M80.63,38.559l0,-5.112l1.377,0l0,0.964c0.45,-0.72 1.03,-1.08 1.742,-1.08c0.456,0 0.816,0.144 1.08,0.433c0.264,0.289 0.396,0.683 0.396,1.183l0,3.612l-1.379,0l0,-3.273c0,-0.58 -0.192,-0.87 -0.577,-0.87c-0.438,0 -0.858,0.308 -1.262,0.927l0,3.216l-1.377,0Z" style="fill:white;fill-rule:nonzero;"/>
    <path id="path19009" d="M88.152,38.559l-1.95,-5.112l1.453,0l1.429,3.687l1.42,-3.687l0.996,0l-1.969,5.112l-1.379,0Z" style="fill:white;fill-rule:nonzero;"/>
    <path id="path19011" d="M96.709,38.387c-0.654,0.192 -1.275,0.289 -1.862,0.289c-0.853,0 -1.527,-0.243 -2.02,-0.727c-0.494,-0.484 -0.74,-1.145 -0.74,-1.983c0,-0.792 0.225,-1.428 0.677,-1.911c0.451,-0.483 1.049,-0.724 1.79,-0.724c0.748,0 1.295,0.236 1.639,0.707c0.344,0.472 0.516,1.219 0.516,2.239l-3.17,0c0.094,0.976 0.628,1.463 1.607,1.463c0.461,0 0.983,-0.107 1.563,-0.321l0,0.968Zm-3.189,-2.887l1.835,0c0,-0.872 -0.281,-1.307 -0.843,-1.307c-0.571,0 -0.902,0.435 -0.992,1.307Z" style="fill:white;fill-rule:nonzero;"/>
    <rect id="rect19013" x="98.134" y="31.208" width="1.379" height="7.351" style="fill:white;"/>
    <path id="path19015" d="M103.381,38.676c-0.798,0 -1.432,-0.242 -1.902,-0.725c-0.47,-0.482 -0.705,-1.131 -0.705,-1.948c0,-0.826 0.236,-1.477 0.709,-1.955c0.474,-0.478 1.117,-0.717 1.93,-0.717c0.817,0 1.462,0.239 1.935,0.717c0.473,0.478 0.709,1.126 0.709,1.946c0,0.838 -0.237,1.495 -0.711,1.969c-0.476,0.475 -1.13,0.713 -1.965,0.713Zm0.023,-0.862c0.792,0 1.187,-0.607 1.187,-1.82c0,-0.556 -0.105,-0.994 -0.314,-1.317c-0.209,-0.323 -0.497,-0.484 -0.864,-0.484c-0.363,0 -0.649,0.161 -0.858,0.484c-0.21,0.323 -0.315,0.764 -0.315,1.326c0,0.556 0.104,0.997 0.312,1.323c0.208,0.326 0.492,0.488 0.852,0.488Z" style="fill:white;fill-rule:nonzero;"/>
    <path id="path19017" d="M107.324,40.398l0,-6.951l1.378,0l0,0.964c0.354,-0.72 0.911,-1.08 1.672,-1.08c0.614,0 1.098,0.225 1.449,0.675c0.353,0.45 0.529,1.07 0.529,1.857c0,0.857 -0.198,1.54 -0.596,2.049c-0.398,0.509 -0.929,0.764 -1.597,0.764c-0.537,0 -1.023,-0.211 -1.457,-0.634l0,2.356l-1.378,0Zm1.378,-3.175c0.336,0.373 0.692,0.559 1.07,0.559c0.339,0 0.609,-0.164 0.81,-0.491c0.203,-0.327 0.303,-0.765 0.303,-1.311c0,-1.046 -0.336,-1.569 -1.01,-1.569c-0.406,0 -0.797,0.262 -1.173,0.787l0,2.025Z" style="fill:white;fill-rule:nonzero;"/>
    <path id="path19019" d="M117.803,38.387c-0.654,0.192 -1.276,0.289 -1.862,0.289c-0.854,0 -1.527,-0.243 -2.02,-0.727c-0.494,-0.484 -0.74,-1.145 -0.74,-1.983c0,-0.792 0.225,-1.428 0.677,-1.911c0.451,-0.483 1.048,-0.724 1.79,-0.724c0.748,0 1.294,0.236 1.639,0.707c0.345,0.472 0.516,1.219 0.516,2.239l-3.17,0c0.093,0.976 0.628,1.463 1.606,1.463c0.463,0 0.984,-0.107 1.564,-0.321l0,0.968Zm-3.189,-2.887l1.835,0c0,-0.872 -0.282,-1.307 -0.843,-1.307c-0.571,0 -0.902,0.435 -0.992,1.307Z" style="fill:white;fill-rule:nonzero;"/>
    <path id="path19024" d="M63.89,20.137c-0.268,-0.217 -0.537,-0.38 -0.804,-0.483c-0.269,-0.106 -0.529,-0.158 -0.781,-0.158c-0.318,0 -0.578,0.075 -0.779,0.227c-0.201,0.15 -0.302,0.347 -0.302,0.591c0,0.168 0.05,0.305 0.15,0.414c0.101,0.11 0.233,0.204 0.397,0.284c0.164,0.08 0.348,0.149 0.553,0.208c0.206,0.059 0.409,0.121 0.611,0.188c0.805,0.269 1.393,0.627 1.768,1.076c0.372,0.449 0.559,1.033 0.559,1.754c0,0.488 -0.083,0.927 -0.245,1.321c-0.164,0.395 -0.404,0.733 -0.718,1.013c-0.314,0.281 -0.699,0.499 -1.157,0.655c-0.457,0.154 -0.975,0.232 -1.554,0.232c-1.198,0 -2.31,-0.356 -3.333,-1.069l1.056,-1.988c0.369,0.328 0.734,0.57 1.095,0.73c0.361,0.16 0.716,0.238 1.069,0.238c0.403,0 0.702,-0.092 0.899,-0.276c0.197,-0.185 0.296,-0.394 0.296,-0.63c0,-0.142 -0.025,-0.265 -0.075,-0.37c-0.05,-0.105 -0.134,-0.201 -0.251,-0.289c-0.119,-0.089 -0.271,-0.17 -0.46,-0.246c-0.189,-0.075 -0.417,-0.159 -0.686,-0.251c-0.318,-0.101 -0.631,-0.211 -0.937,-0.334c-0.305,-0.121 -0.578,-0.282 -0.817,-0.483c-0.24,-0.203 -0.433,-0.456 -0.579,-0.762c-0.147,-0.307 -0.22,-0.694 -0.22,-1.163c0,-0.47 0.077,-0.896 0.233,-1.277c0.155,-0.383 0.373,-0.709 0.654,-0.982c0.281,-0.272 0.625,-0.483 1.031,-0.635c0.407,-0.151 0.862,-0.227 1.365,-0.227c0.47,0 0.96,0.066 1.472,0.196c0.511,0.129 1.002,0.32 1.472,0.571l-0.982,1.925Z" style="fill:rgb(172,181,188);fill-rule:nonzero;"/>
    <path id="path19026" d="M69.275,17.71l0,7.396l2.956,0l0,2.089l-5.421,0l0,-9.485l2.465,0Z" style="fill:rgb(172,181,188);fill-rule:nonzero;"/>
    <path id="path19028" d="M79.049,23.672l-1.107,-3.157l-1.107,3.157l2.214,0Zm0.655,1.875l-3.523,0l-0.566,1.648l-2.629,0l3.611,-9.485l2.691,0l3.611,9.485l-2.629,0l-0.566,-1.648Z" style="fill:rgb(172,181,188);fill-rule:nonzero;"/>
    <path id="path19030" d="M86.446,22.062l0.818,0c0.906,0 1.358,-0.393 1.358,-1.182c0,-0.788 -0.452,-1.182 -1.358,-1.182l-0.818,0l0,2.364Zm0,5.133l-2.465,0l0,-9.485l3.925,0c1.064,0 1.881,0.276 2.447,0.83c0.566,0.553 0.848,1.333 0.848,2.34c0,1.006 -0.282,1.786 -0.848,2.339c-0.566,0.554 -1.383,0.831 -2.447,0.831l-1.46,0l0,3.145Z" style="fill:rgb(172,181,188);fill-rule:nonzero;"/>
    <path id="path19035" d="M122.904,66.662c2.737,-4.742 1.664,-10.824 -2.534,-14.346c-4.193,-3.521 -10.372,-3.521 -14.566,0c-4.197,3.522 -5.27,9.604 -2.533,14.346l9.816,-5.666l9.817,5.666Z" style="fill:none;stroke:rgb(204,204,204);stroke-width:1px;"/>
    <path id="path19038" d="M122.531,67.859l0.024,4.409" style="fill:rgb(204,204,204);fill-rule:nonzero;stroke:rgb(204,204,204);stroke-width:1px;"/>
    <path id="path19041" d="M124.748,70.032l-4.41,0.02" style="fill:rgb(204,204,204);fill-rule:nonzero;stroke:rgb(204,204,204);stroke-width:1px;"/>
    <path id="path19044" d="M106.429,69.908l-4.414,0.02" style="fill:rgb(204,204,204);fill-rule:nonzero;stroke:rgb(204,204,204);stroke-width:1px;"/>
    <path id="path19047" d="M113.087,61l-0.024,-13.31" style="fill:none;stroke:rgb(204,204,204);stroke-width:1px;"/>
    <path id="path19050" d="M37.373,103.836l-0.705,-2.009l-0.704,2.009l1.409,0Zm0.416,1.192l-2.241,0l-0.36,1.049l-1.673,0l2.297,-6.035l1.713,0l2.297,6.035l-1.673,0l-0.36,-1.049Z" style="fill:white;fill-rule:nonzero;"/>
    <path id="path19052" d="M42.535,101.371l0,4.706l-1.569,0l0,-4.706l-1.289,0l0,-1.329l4.146,0l0,1.329l-1.288,0Z" style="fill:white;fill-rule:nonzero;"/>
    <path id="path19054" d="M46.808,101.371l0,4.706l-1.568,0l0,-4.706l-1.289,0l0,-1.329l4.146,0l0,1.329l-1.289,0Z" style="fill:white;fill-rule:nonzero;"/>
    <path id="path19056" d="M51.795,103.836l-0.705,-2.009l-0.704,2.009l1.409,0Zm0.416,1.192l-2.241,0l-0.36,1.049l-1.673,0l2.297,-6.035l1.713,0l2.297,6.035l-1.673,0l-0.36,-1.049Z" style="fill:white;fill-rule:nonzero;"/>
    <path id="path19058" d="M59.054,102.059c-0.365,-0.444 -0.813,-0.664 -1.345,-0.664c-0.236,0 -0.452,0.044 -0.652,0.128c-0.2,0.084 -0.372,0.2 -0.517,0.348c-0.144,0.148 -0.256,0.32 -0.34,0.524c-0.084,0.204 -0.124,0.42 -0.124,0.657c0,0.24 0.04,0.46 0.124,0.664c0.084,0.204 0.196,0.38 0.344,0.528c0.149,0.148 0.321,0.268 0.517,0.352c0.196,0.084 0.412,0.128 0.64,0.128c0.5,0 0.952,-0.212 1.353,-0.64l0,1.857l-0.161,0.056c-0.24,0.084 -0.464,0.148 -0.672,0.188c-0.208,0.04 -0.412,0.06 -0.616,0.06c-0.416,0 -0.816,-0.08 -1.197,-0.236c-0.38,-0.156 -0.716,-0.38 -1.008,-0.665c-0.292,-0.284 -0.524,-0.624 -0.7,-1.016c-0.176,-0.392 -0.264,-0.82 -0.264,-1.284c0,-0.465 0.088,-0.889 0.26,-1.277c0.172,-0.388 0.404,-0.72 0.696,-1c0.292,-0.281 0.628,-0.501 1.012,-0.657c0.385,-0.156 0.789,-0.236 1.209,-0.236c0.24,0 0.476,0.024 0.708,0.076c0.232,0.052 0.476,0.128 0.733,0.236l0,1.873Z" style="fill:white;fill-rule:nonzero;"/>
    <path id="path19060" d="M61.871,102.531l1.912,-2.489l1.937,0l-2.393,2.857l2.617,3.178l-2.032,0l-2.041,-2.617l0,2.617l-1.569,0l0,-6.035l1.569,0l0,2.489Z" style="fill:white;fill-rule:nonzero;"/>
    <path id="path19065" d="M122.904,66.662c2.737,-4.742 1.664,-10.824 -2.534,-14.346c-4.193,-3.521 -10.372,-3.521 -14.566,0c-4.197,3.522 -5.27,9.604 -2.533,14.346l9.816,-5.666l9.817,5.666Z" style="fill:none;stroke:rgb(204,204,204);stroke-width:1px;"/>
    <path id="path19068" d="M122.531,67.859l0.024,4.409" style="fill:rgb(204,204,204);fill-rule:nonzero;stroke:rgb(204,204,204);stroke-width:1px;"/>
    <path id="path19071" d="M124.748,70.032l-4.41,0.02" style="fill:rgb(204,204,204);fill-rule:nonzero;stroke:rgb(204,204,204);stroke-width:1px;"/>
    <path id="path19074" d="M106.429,69.908l-4.414,0.02" style="fill:rgb(204,204,204);fill-rule:nonzero;stroke:rgb(204,204,204);stroke-width:1px;"/>
    <path id="path19077" d="M113.087,61l-0.024,-13.31" style="fill:none;stroke:rgb(204,204,204);stroke-width:1px;"/>
    <path id="path19080" d="M71.383,84.241c5.878,-10.184 3.577,-23.245 -5.431,-30.804c-9.007,-7.556 -22.273,-7.556 -31.281,0c-9.007,7.559 -11.308,20.62 -5.43,30.804" style="fill:none;stroke:rgb(204,204,204);stroke-width:1.5px;"/>
    <circle id="circle19083" cx="32.173" cy="93.509" r="3.706" style="fill:none;stroke:rgb(204,204,204);stroke-width:1px;stroke-linecap:butt;"/>
    <circle id="circle19086" cx="69.952" cy="92.997" r="3.706" style="fill:rgb(204,204,204);stroke:rgb(204,204,204);stroke-width:1px;stroke-linecap:butt;"/>
    <path id="path19089" d="M122.904,128.329c2.737,-4.742 1.664,-10.824 -2.534,-14.346c-4.193,-3.521 -10.372,-3.521 -14.566,0c-4.197,3.522 -5.27,9.604 -2.533,14.346l9.816,-5.666l9.817,5.666Z" style="fill:none;stroke:rgb(204,204,204);stroke-width:1px;"/>
    <path id="path19092" d="M122.531,129.526l0.024,4.409" style="fill:rgb(204,204,204);fill-rule:nonzero;stroke:rgb(204,204,204);stroke-width:1px;"/>
    <path id="path19095" d="M124.748,131.699l-4.41,0.02" style="fill:rgb(204,204,204);fill-rule:nonzero;stroke:rgb(204,204,204);stroke-width:1px;"/>
    <path id="path19098" d="M106.429,131.575l-4.414,0.02" style="fill:rgb(204,204,204);fill-rule:nonzero;stroke:rgb(204,204,204);stroke-width:1px;"/>
    <path id="path19101" d="M113.087,122.667l-0.024,-13.31" style="fill:none;stroke:rgb(204,204,204);stroke-width:1px;"/>
    <path id="path19104" d="M37.66,166.415l0.36,0c0.272,0 0.516,-0.044 0.728,-0.128c0.212,-0.084 0.392,-0.204 0.54,-0.352c0.149,-0.148 0.261,-0.328 0.337,-0.532c0.076,-0.204 0.116,-0.432 0.116,-0.676c0,-0.241 -0.04,-0.465 -0.12,-0.673c-0.08,-0.208 -0.192,-0.388 -0.341,-0.536c-0.148,-0.148 -0.328,-0.268 -0.54,-0.352c-0.212,-0.084 -0.452,-0.128 -0.72,-0.128l-0.36,0l0,3.377Zm-1.569,-4.706l2.321,0c0.412,0 0.796,0.084 1.157,0.248c0.36,0.164 0.676,0.385 0.944,0.661c0.268,0.276 0.48,0.596 0.636,0.96c0.156,0.364 0.232,0.748 0.232,1.149c0,0.396 -0.076,0.776 -0.228,1.14c-0.152,0.364 -0.364,0.688 -0.632,0.964c-0.268,0.277 -0.584,0.501 -0.944,0.665c-0.361,0.164 -0.749,0.248 -1.165,0.248l-2.321,0l0,-6.035Z" style="fill:white;fill-rule:nonzero;"/>
    <path id="path19106" d="M45.815,163.038l-1.865,0l0,1.008l1.761,0l0,1.329l-1.761,0l0,1.04l1.865,0l0,1.329l-3.433,0l0,-6.035l3.433,0l0,1.329Z" style="fill:white;fill-rule:nonzero;"/>
    <path id="path19108" d="M51.289,163.726c-0.364,-0.444 -0.812,-0.664 -1.344,-0.664c-0.236,0 -0.452,0.044 -0.652,0.128c-0.2,0.084 -0.373,0.2 -0.517,0.348c-0.144,0.148 -0.256,0.32 -0.34,0.524c-0.084,0.204 -0.124,0.42 -0.124,0.657c0,0.24 0.04,0.46 0.124,0.664c0.084,0.204 0.196,0.38 0.344,0.528c0.148,0.148 0.321,0.268 0.517,0.352c0.196,0.084 0.412,0.128 0.64,0.128c0.5,0 0.952,-0.212 1.352,-0.64l0,1.857l-0.16,0.056c-0.24,0.084 -0.464,0.148 -0.672,0.188c-0.208,0.04 -0.412,0.06 -0.616,0.06c-0.416,0 -0.816,-0.08 -1.197,-0.236c-0.38,-0.156 -0.716,-0.38 -1.008,-0.665c-0.292,-0.284 -0.524,-0.624 -0.7,-1.016c-0.176,-0.392 -0.264,-0.82 -0.264,-1.284c0,-0.465 0.088,-0.889 0.26,-1.277c0.172,-0.388 0.404,-0.72 0.696,-1c0.292,-0.281 0.628,-0.501 1.012,-0.657c0.385,-0.156 0.789,-0.236 1.209,-0.236c0.24,0 0.476,0.024 0.708,0.076c0.232,0.052 0.476,0.128 0.732,0.236l0,1.873Z" style="fill:white;fill-rule:nonzero;"/>
    <path id="path19110" d="M55.707,165.503l-0.704,-2.009l-0.704,2.009l1.408,0Zm0.416,1.192l-2.24,0l-0.361,1.049l-1.672,0l2.297,-6.035l1.712,0l2.297,6.035l-1.672,0l-0.361,-1.049Z" style="fill:white;fill-rule:nonzero;"/>
    <path id="path19112" d="M59.733,164.847l-2.201,-3.138l1.873,0l1.12,1.649l1.113,-1.649l1.873,0l-2.209,3.138l0,2.897l-1.569,0l0,-2.897Z" style="fill:white;fill-rule:nonzero;"/>
    <path id="path19117" d="M122.904,128.329c2.737,-4.742 1.664,-10.824 -2.534,-14.346c-4.193,-3.521 -10.372,-3.521 -14.566,0c-4.197,3.522 -5.27,9.604 -2.533,14.346l9.816,-5.666l9.817,5.666Z" style="fill:none;stroke:rgb(204,204,204);stroke-width:1px;"/>
    <path id="path19120" d="M122.531,129.526l0.024,4.409" style="fill:rgb(204,204,204);fill-rule:nonzero;stroke:rgb(204,204,204);stroke-width:1px;"/>
    <path id="path19123" d="M124.748,131.699l-4.41,0.02" style="fill:rgb(204,204,204);fill-rule:nonzero;stroke:rgb(204,204,204);stroke-width:1px;"/>
    <path id="path19126" d="M106.429,131.575l-4.414,0.02" style="fill:rgb(204,204,204);fill-rule:nonzero;stroke:rgb(204,204,204);stroke-width:1px;"/>
    <path id="path19129" d="M113.087,122.667l-0.024,-13.31" style="fill:none;stroke:rgb(204,204,204);stroke-width:1px;"/>
    <path id="path19132" d="M71.383,145.907c5.878,-10.184 3.577,-23.245 -5.431,-30.804c-9.007,-7.556 -22.273,-7.556 -31.281,0c-9.007,7.559 -11.308,20.62 -5.43,30.804" style="fill:none;stroke:rgb(204,204,204);stroke-width:1.5px;"/>
    <circle id="circle19135" cx="32.173" cy="155.175" r="3.706" style="fill:none;stroke:rgb(204,204,204);stroke-width:1px;stroke-linecap:butt;"/>
    <circle id="circle19138" cx="69.952" cy="154.663" r="3.706" style="fill:rgb(204,204,204);stroke:rgb(204,204,204);stroke-width:1px;stroke-linecap:butt;"/>
    <path id="path19141" d="M122.904,188.995c2.737,-4.742 1.664,-10.824 -2.534,-14.346c-4.193,-3.521 -10.372,-3.521 -14.566,0c-4.197,3.522 -5.27,9.604 -2.533,14.346l9.816,-5.666l9.817,5.666Z" style="fill:none;stroke:rgb(204,204,204);stroke-width:1px;"/>
    <path id="path19144" d="M122.531,190.192l0.024,4.409" style="fill:rgb(204,204,204);fill-rule:nonzero;stroke:rgb(204,204,204);stroke-width:1px;"/>
    <path id="path19147" d="M124.748,192.365l-4.41,0.02" style="fill:rgb(204,204,204);fill-rule:nonzero;stroke:rgb(204,204,204);stroke-width:1px;"/>
    <path id="path19150" d="M106.429,192.241l-4.414,0.02" style="fill:rgb(204,204,204);fill-rule:nonzero;stroke:rgb(204,204,204);stroke-width:1px;"/>
    <path id="path19153" d="M113.087,183.333l-0.024,-13.31" style="fill:none;stroke:rgb(204,204,204);stroke-width:1px;"/>
    <path id="path19156" d="M35.405,223.92c-0.173,-0.14 -0.341,-0.24 -0.513,-0.308c-0.172,-0.068 -0.336,-0.1 -0.496,-0.1c-0.204,0 -0.368,0.048 -0.496,0.144c-0.128,0.096 -0.192,0.22 -0.192,0.376c0,0.108 0.032,0.196 0.096,0.264c0.064,0.068 0.148,0.128 0.252,0.18c0.104,0.052 0.22,0.096 0.352,0.132c0.132,0.036 0.26,0.076 0.388,0.12c0.512,0.172 0.889,0.4 1.125,0.685c0.236,0.284 0.356,0.656 0.356,1.116c0,0.308 -0.052,0.588 -0.156,0.84c-0.104,0.252 -0.256,0.465 -0.456,0.645c-0.2,0.18 -0.445,0.316 -0.737,0.416c-0.292,0.1 -0.62,0.148 -0.988,0.148c-0.764,0 -1.469,-0.228 -2.121,-0.68l0.672,-1.265c0.236,0.208 0.469,0.364 0.697,0.464c0.228,0.1 0.456,0.152 0.68,0.152c0.256,0 0.448,-0.06 0.572,-0.176c0.124,-0.116 0.188,-0.252 0.188,-0.4c0,-0.092 -0.016,-0.168 -0.048,-0.236c-0.032,-0.068 -0.084,-0.128 -0.16,-0.184c-0.076,-0.056 -0.172,-0.108 -0.292,-0.156c-0.12,-0.048 -0.264,-0.1 -0.436,-0.16c-0.204,-0.064 -0.4,-0.136 -0.596,-0.212c-0.197,-0.076 -0.369,-0.18 -0.521,-0.308c-0.152,-0.128 -0.276,-0.289 -0.368,-0.485c-0.092,-0.196 -0.14,-0.44 -0.14,-0.74c0,-0.3 0.048,-0.568 0.148,-0.812c0.1,-0.244 0.236,-0.452 0.416,-0.625c0.18,-0.172 0.397,-0.308 0.657,-0.404c0.26,-0.096 0.548,-0.144 0.868,-0.144c0.3,0 0.612,0.04 0.936,0.124c0.325,0.084 0.637,0.204 0.937,0.364l-0.624,1.225Z" style="fill:white;fill-rule:nonzero;"/>
    <path id="path19158" d="M38.83,222.375l0,3.282c0,0.176 0.008,0.356 0.02,0.54c0.012,0.184 0.052,0.352 0.12,0.5c0.068,0.148 0.172,0.272 0.316,0.364c0.144,0.092 0.348,0.14 0.608,0.14c0.261,0 0.465,-0.048 0.605,-0.14c0.14,-0.092 0.248,-0.216 0.316,-0.364c0.068,-0.148 0.112,-0.316 0.124,-0.5c0.012,-0.184 0.02,-0.364 0.02,-0.54l0,-3.282l1.56,0l0,3.498c0,0.94 -0.216,1.624 -0.644,2.057c-0.428,0.432 -1.088,0.648 -1.981,0.648c-0.892,0 -1.552,-0.216 -1.984,-0.648c-0.433,-0.433 -0.649,-1.117 -0.649,-2.057l0,-3.498l1.569,0Z" style="fill:white;fill-rule:nonzero;"/>
    <path id="path19160" d="M47.097,223.92c-0.172,-0.14 -0.34,-0.24 -0.512,-0.308c-0.172,-0.068 -0.336,-0.1 -0.496,-0.1c-0.204,0 -0.368,0.048 -0.496,0.144c-0.128,0.096 -0.192,0.22 -0.192,0.376c0,0.108 0.032,0.196 0.096,0.264c0.064,0.068 0.148,0.128 0.252,0.18c0.104,0.052 0.22,0.096 0.352,0.132c0.132,0.036 0.26,0.076 0.388,0.12c0.512,0.172 0.889,0.4 1.125,0.685c0.236,0.284 0.356,0.656 0.356,1.116c0,0.308 -0.052,0.588 -0.156,0.84c-0.104,0.252 -0.256,0.465 -0.457,0.645c-0.2,0.18 -0.444,0.316 -0.736,0.416c-0.292,0.1 -0.62,0.148 -0.988,0.148c-0.765,0 -1.469,-0.228 -2.121,-0.68l0.672,-1.265c0.236,0.208 0.468,0.364 0.696,0.464c0.229,0.1 0.457,0.152 0.681,0.152c0.256,0 0.448,-0.06 0.572,-0.176c0.124,-0.116 0.188,-0.252 0.188,-0.4c0,-0.092 -0.016,-0.168 -0.048,-0.236c-0.032,-0.068 -0.084,-0.128 -0.16,-0.184c-0.076,-0.056 -0.172,-0.108 -0.292,-0.156c-0.12,-0.048 -0.264,-0.1 -0.436,-0.16c-0.204,-0.064 -0.4,-0.136 -0.597,-0.212c-0.196,-0.076 -0.368,-0.18 -0.52,-0.308c-0.152,-0.128 -0.276,-0.289 -0.368,-0.485c-0.092,-0.196 -0.14,-0.44 -0.14,-0.74c0,-0.3 0.048,-0.568 0.148,-0.812c0.1,-0.244 0.236,-0.452 0.416,-0.625c0.18,-0.172 0.396,-0.308 0.657,-0.404c0.26,-0.096 0.548,-0.144 0.868,-0.144c0.3,0 0.612,0.04 0.936,0.124c0.324,0.084 0.637,0.204 0.937,0.364l-0.625,1.225Z" style="fill:white;fill-rule:nonzero;"/>
    <path id="path19162" d="M51.283,223.704l0,4.706l-1.569,0l0,-4.706l-1.288,0l0,-1.329l4.146,0l0,1.329l-1.289,0Z" style="fill:white;fill-rule:nonzero;"/>
    <path id="path19164" d="M56.269,226.169l-0.704,-2.009l-0.704,2.009l1.408,0Zm0.416,1.192l-2.241,0l-0.36,1.049l-1.672,0l2.297,-6.035l1.712,0l2.297,6.035l-1.672,0l-0.361,-1.049Z" style="fill:white;fill-rule:nonzero;"/>
    <rect id="rect19166" x="59.406" y="222.375" width="1.569" height="6.035" style="fill:white;"/>
    <path id="path19168" d="M62.24,228.41l0,-6.035l1.568,0l2.898,3.69l0,-3.69l1.56,0l0,6.035l-1.56,0l-2.898,-3.69l0,3.69l-1.568,0Z" style="fill:white;fill-rule:nonzero;"/>
    <path id="path19173" d="M122.904,188.995c2.737,-4.742 1.664,-10.824 -2.534,-14.346c-4.193,-3.521 -10.372,-3.521 -14.566,0c-4.197,3.522 -5.27,9.604 -2.533,14.346l9.816,-5.666l9.817,5.666Z" style="fill:none;stroke:rgb(204,204,204);stroke-width:1px;"/>
    <path id="path19176" d="M122.531,190.192l0.024,4.409" style="fill:rgb(204,204,204);fill-rule:nonzero;stroke:rgb(204,204,204);stroke-width:1px;"/>
    <path id="path19179" d="M124.748,192.365l-4.41,0.02" style="fill:rgb(204,204,204);fill-rule:nonzero;stroke:rgb(204,204,204);stroke-width:1px;"/>
    <path id="path19182" d="M106.429,192.241l-4.414,0.02" style="fill:rgb(204,204,204);fill-rule:nonzero;stroke:rgb(204,204,204);stroke-width:1px;"/>
    <path id="path19185" d="M113.087,183.333l-0.024,-13.31" style="fill:none;stroke:rgb(204,204,204);stroke-width:1px;"/>
    <path id="path19188" d="M71.383,206.574c5.878,-10.184 3.577,-23.245 -5.431,-30.804c-9.007,-7.556 -22.273,-7.556 -31.281,0c-9.007,7.559 -11.308,20.62 -5.43,30.804" style="fill:none;stroke:rgb(204,204,204);stroke-width:1.5px;"/>
    <circle id="circle19191" cx="32.173" cy="215.842" r="3.706" style="fill:none;stroke:rgb(204,204,204);stroke-width:1px;stroke-linecap:butt;"/>
    <circle id="circle19194" cx="69.952" cy="215.33" r="3.706" style="fill:rgb(204,204,204);stroke:rgb(204,204,204);stroke-width:1px;stroke-linecap:butt;"/>
    <path id="path42" d="M62.952,363.5l2.673,0l2.49,8.317l2.574,-8.317l2.66,0l-3.46,10.397c-0.323,0.959 -0.903,1.438 -1.738,1.438c-0.847,0 -1.433,-0.484 -1.755,-1.453l-3.444,-10.382Z" style="fill:rgb(172,181,188);fill-rule:nonzero;"/>
    <path id="path44" d="M73.55,372.292l0,-8.792l2.507,0l0,8.709c0.044,0.312 0.334,0.468 0.869,0.468l1.705,0c0.513,0 0.797,-0.145 0.853,-0.435l0.017,-0.083l0,-8.659l2.507,0l0,8.776c0,0.769 -0.083,1.315 -0.251,1.638c-0.445,0.858 -1.231,1.287 -2.357,1.287l-3.243,0c-1.159,0 -1.95,-0.44 -2.373,-1.321c-0.156,-0.323 -0.234,-0.852 -0.234,-1.588Z" style="fill:rgb(172,181,188);fill-rule:nonzero;"/>
    <path id="path46" d="M83.161,372.343l0,-8.843l2.508,0l0,8.642c0,0.357 0.211,0.535 0.635,0.535l4.463,0l-0.016,2.524l-4.664,0c-0.167,0 -0.312,-0.005 -0.435,-0.017c-0.903,-0.077 -1.544,-0.342 -1.922,-0.794c-0.379,-0.451 -0.569,-1.134 -0.569,-2.047Z" style="fill:rgb(172,181,188);fill-rule:nonzero;"/>
    <path id="path48" d="M90.851,366.024l0,-2.524l7.522,0l0,2.524l-2.524,0l0,9.177l-2.508,0l0,-9.177l-2.49,0Z" style="fill:rgb(172,181,188);fill-rule:nonzero;"/>
    <path id="path4" d="M59.383,369.417c0,-4.509 -3.655,-8.164 -8.164,-8.164c-4.509,0 -8.165,3.655 -8.165,8.164c0,4.509 3.656,8.165 8.165,8.165c4.509,0 8.164,-3.656 8.164,-8.165Z" style="fill:rgb(117,117,117);fill-rule:nonzero;stroke:rgb(65,76,85);stroke-width:0.61px;stroke-linecap:butt;stroke-miterlimit:10;"/>
    <g id="g40">
      <path id="polygon6" d="M49.321,374.394l0.553,-0.891l-1.064,-2.393l-2.216,-2.284l0.46,3.101l0.597,1.28l0.833,1.264l0.837,-0.077Z" style="fill:rgb(43,43,43);fill-rule:nonzero;stroke:rgb(65,76,85);stroke-width:0.04px;stroke-linecap:butt;"/>
      <path id="polygon8" d="M53.048,374.401l-0.553,-0.89l1.064,-2.393l2.216,-2.285l-0.46,3.101l-0.597,1.281l-0.833,1.263l-0.837,-0.077Z" style="fill:rgb(38,38,38);fill-rule:nonzero;stroke:rgb(65,76,85);stroke-width:0.04px;stroke-linecap:butt;"/>
      <path id="polygon12" d="M48.636,363.359l2.584,-0.66l0,13.447l-1.349,-2.651l-1.061,-2.385l-1.022,-0.581l-2.052,-2.92l-0.057,-0.776l1.148,-2.067l1.809,-1.407Z" style="fill:rgb(66,66,66);fill-rule:nonzero;stroke:rgb(65,76,85);stroke-width:0.04px;stroke-linecap:butt;"/>
      <path id="polygon14" d="M53.801,363.364l-2.584,-0.661l0,13.448l1.35,-2.651l1.06,-2.385l1.023,-0.581l2.051,-2.921l0.058,-0.775l-1.149,-2.067l-1.809,-1.407Z" style="fill:rgb(51,51,51);fill-rule:nonzero;stroke:rgb(65,76,85);stroke-width:0.04px;stroke-linecap:butt;"/>
      <path id="polyline16" d="M49.496,369.237l1.723,-1.684l0,1.229l-1.723,1.718l0,-1.263" style="fill:rgb(76,76,76);fill-rule:nonzero;stroke:rgb(65,76,85);stroke-width:0.04px;stroke-linecap:butt;"/>
      <path id="polygon18" d="M51.22,368.781l-1.723,1.718l0.377,3.004l1.346,2.643l0,-7.365Z" style="fill:rgb(91,91,91);fill-rule:nonzero;stroke:rgb(65,76,85);stroke-width:0.04px;stroke-linecap:butt;"/>
      <path id="polygon20" d="M51.22,376.146l-1.346,-2.643l1.346,-0.635l0,3.278Z" style="fill:rgb(51,51,51);fill-rule:nonzero;stroke:rgb(65,76,85);stroke-width:0.04px;stroke-linecap:butt;"/>
      <path id="polygon22" d="M49.497,370.499l0,-1.263l-1.249,-1.58l-1.477,-1.19l-0.001,0.932l0.775,1.823l1.952,1.278Z" style="fill:white;fill-rule:nonzero;stroke:rgb(65,76,85);stroke-width:0.04px;stroke-linecap:butt;"/>
      <path id="polyline24" d="M52.942,369.238l-1.722,-1.685l0,1.23l1.722,1.718l0,-1.263" style="fill:rgb(45,45,45);fill-rule:nonzero;stroke:rgb(65,76,85);stroke-width:0.04px;stroke-linecap:butt;"/>
      <path id="polygon26" d="M51.218,368.781l1.722,1.718l-0.376,3.004l-1.347,2.643l0.001,-7.365Z" style="fill:rgb(53,53,53);fill-rule:nonzero;stroke:rgb(65,76,85);stroke-width:0.04px;stroke-linecap:butt;"/>
      <path id="polygon28" d="M51.217,376.146l1.347,-2.643l-1.346,-0.635l-0.001,3.278Z" style="fill:rgb(25,25,25);fill-rule:nonzero;stroke:rgb(65,76,85);stroke-width:0.04px;stroke-linecap:butt;"/>
      <path id="polygon30" d="M52.94,370.499l0,-1.263l1.249,-1.58l1.478,-1.19l0.001,0.932l-0.775,1.823l-1.953,1.278Z" style="fill:white;fill-rule:nonzero;stroke:rgb(65,76,85);stroke-width:0.04px;stroke-linecap:butt;"/>
      <path id="polyline32" d="M48.652,363.338l2.566,4.215l-0.005,-4.87" style="fill:rgb(56,56,56);fill-rule:nonzero;stroke:rgb(65,76,85);stroke-width:0.04px;stroke-linecap:butt;"/>
      <path id="polyline34" d="M53.785,363.338l-2.566,4.215l0.006,-4.869" style="fill:rgb(45,45,45);fill-rule:nonzero;stroke:rgb(65,76,85);stroke-width:0.04px;stroke-linecap:butt;"/>
      <path id="polygon36" d="M48.811,371.111l0.688,-0.611l0.375,3.006l-1.063,-2.395Z" style="fill:rgb(51,51,51);fill-rule:nonzero;stroke:rgb(65,76,85);stroke-width:0.04px;stroke-linecap:butt;"/>
      <path id="polygon38" d="M53.631,371.125l-0.688,-0.61l-0.375,3.006l1.063,-2.396Z" style="fill:rgb(28,28,28);fill-rule:nonzero;stroke:rgb(65,76,85);stroke-width:0.04px;stroke-linecap:butt;"/>
    </g>
    <path id="path19221" d="M36.332,356.232l3.113,0c0,0.321 -0.012,0.613 -0.04,0.873c-0.028,0.26 -0.08,0.504 -0.16,0.728c-0.112,0.316 -0.264,0.592 -0.456,0.836c-0.192,0.245 -0.416,0.445 -0.676,0.609c-0.261,0.164 -0.545,0.288 -0.853,0.372c-0.308,0.084 -0.636,0.128 -0.976,0.128c-0.468,0 -0.897,-0.076 -1.285,-0.232c-0.388,-0.156 -0.72,-0.372 -0.996,-0.652c-0.276,-0.281 -0.492,-0.617 -0.648,-1.009c-0.157,-0.392 -0.233,-0.824 -0.233,-1.3c0,-0.469 0.076,-0.901 0.229,-1.293c0.152,-0.392 0.368,-0.728 0.648,-1.004c0.28,-0.277 0.616,-0.493 1.012,-0.649c0.396,-0.156 0.837,-0.232 1.321,-0.232c0.628,0 1.18,0.136 1.656,0.408c0.477,0.273 0.853,0.693 1.129,1.265l-1.489,0.616c-0.14,-0.332 -0.32,-0.568 -0.54,-0.712c-0.22,-0.144 -0.472,-0.216 -0.756,-0.216c-0.236,0 -0.448,0.044 -0.64,0.132c-0.193,0.088 -0.357,0.212 -0.493,0.376c-0.136,0.164 -0.244,0.36 -0.32,0.588c-0.076,0.228 -0.116,0.484 -0.116,0.769c0,0.256 0.032,0.492 0.1,0.712c0.068,0.22 0.168,0.408 0.3,0.568c0.132,0.16 0.3,0.284 0.497,0.372c0.196,0.088 0.428,0.132 0.688,0.132c0.156,0 0.304,-0.016 0.448,-0.052c0.144,-0.036 0.272,-0.092 0.388,-0.168c0.116,-0.076 0.208,-0.176 0.284,-0.3c0.076,-0.124 0.124,-0.272 0.152,-0.448l-1.288,0l0,-1.217Z" style="fill:white;fill-rule:nonzero;"/>
    <path id="path19223" d="M43.495,357.369l-0.705,-2.009l-0.704,2.009l1.409,0Zm0.416,1.192l-2.241,0l-0.36,1.049l-1.673,0l2.297,-6.035l1.713,0l2.297,6.035l-1.673,0l-0.36,-1.049Z" style="fill:white;fill-rule:nonzero;"/>
    <path id="path19225" d="M48.657,354.904l0,4.706l-1.569,0l0,-4.706l-1.288,0l0,-1.329l4.145,0l0,1.329l-1.288,0Z" style="fill:white;fill-rule:nonzero;"/>
    <path id="path19227" d="M54.075,354.904l-1.865,0l0,1.008l1.761,0l0,1.329l-1.761,0l0,1.04l1.865,0l0,1.329l-3.433,0l0,-6.035l3.433,0l0,1.329Z" style="fill:white;fill-rule:nonzero;"/>
    <rect id="rect19232" x="91.826" y="319.689" width="1.569" height="6.035" style="fill:white;"/>
    <path id="path19234" d="M94.659,325.724l0,-6.035l1.569,0l2.897,3.69l0,-3.69l1.56,0l0,6.035l-1.56,0l-2.897,-3.69l0,3.69l-1.569,0Z" style="fill:white;fill-rule:nonzero;"/>
    <path id="path19239" d="M129.522,333.577c0,-2.526 -2.052,-4.577 -4.578,-4.577l-21.36,0c-2.526,0 -4.578,2.051 -4.578,4.577l0,23.311c0,2.526 2.052,4.578 4.578,4.578l21.36,0c2.526,0 4.578,-2.052 4.578,-4.578l0,-23.311Z" style="stroke:rgb(65,76,85);stroke-width:1px;stroke-linecap:butt;"/>
    <path id="path19247" d="M105.854,289.156l1.636,4.134l1.649,-4.134l1.917,0l-2.861,6.787l-1.405,0l-2.853,-6.787l1.917,0Z" style="fill:rgb(102,102,102);fill-rule:nonzero;"/>
    <path id="path19249" d="M116.33,291.425c-0.408,-0.496 -0.912,-0.748 -1.513,-0.748c-0.264,0 -0.508,0.048 -0.732,0.144c-0.224,0.096 -0.42,0.228 -0.58,0.392c-0.164,0.164 -0.292,0.36 -0.384,0.588c-0.092,0.228 -0.14,0.476 -0.14,0.74c0,0.269 0.048,0.521 0.14,0.749c0.092,0.228 0.224,0.424 0.388,0.592c0.164,0.168 0.356,0.3 0.58,0.396c0.22,0.096 0.46,0.144 0.72,0.144c0.565,0 1.073,-0.24 1.521,-0.72l0,2.089l-0.18,0.064c-0.268,0.092 -0.52,0.164 -0.756,0.208c-0.233,0.048 -0.465,0.068 -0.693,0.068c-0.468,0 -0.916,-0.088 -1.344,-0.264c-0.432,-0.176 -0.809,-0.428 -1.137,-0.749c-0.324,-0.32 -0.588,-0.7 -0.788,-1.14c-0.196,-0.444 -0.296,-0.924 -0.296,-1.445c0,-0.524 0.1,-1 0.292,-1.436c0.196,-0.436 0.456,-0.813 0.784,-1.125c0.328,-0.316 0.709,-0.56 1.141,-0.74c0.428,-0.176 0.884,-0.264 1.356,-0.264c0.272,0 0.537,0.028 0.797,0.084c0.26,0.06 0.536,0.148 0.824,0.268l0,2.105Z" style="fill:rgb(102,102,102);fill-rule:nonzero;"/>
    <path id="path19251" d="M121.296,293.422l-0.788,-2.257l-0.793,2.257l1.581,0Zm0.468,1.34l-2.517,0l-0.408,1.181l-1.881,0l2.585,-6.787l1.925,0l2.585,6.787l-1.881,0l-0.408,-1.181Z" style="fill:rgb(102,102,102);fill-rule:nonzero;"/>
    <path id="path19255" d="M125.125,322.691c0,0.24 0.044,0.464 0.136,0.664c0.088,0.205 0.212,0.381 0.368,0.529c0.152,0.152 0.332,0.264 0.541,0.348c0.204,0.084 0.42,0.124 0.652,0.124c0.228,0 0.444,-0.04 0.652,-0.124c0.204,-0.084 0.384,-0.196 0.54,-0.348c0.16,-0.148 0.284,-0.324 0.372,-0.529c0.093,-0.2 0.137,-0.424 0.137,-0.664c0,-0.24 -0.044,-0.46 -0.137,-0.664c-0.088,-0.2 -0.212,-0.376 -0.372,-0.528c-0.156,-0.148 -0.336,-0.264 -0.54,-0.348c-0.208,-0.08 -0.424,-0.125 -0.652,-0.125c-0.232,0 -0.448,0.045 -0.652,0.125c-0.209,0.084 -0.389,0.2 -0.541,0.348c-0.156,0.152 -0.28,0.328 -0.368,0.528c-0.092,0.204 -0.136,0.424 -0.136,0.664Zm-1.641,0c0,-0.448 0.084,-0.864 0.249,-1.252c0.164,-0.385 0.396,-0.721 0.688,-1.009c0.292,-0.288 0.644,-0.516 1.052,-0.676c0.408,-0.164 0.857,-0.244 1.349,-0.244c0.484,0 0.932,0.08 1.34,0.244c0.413,0.16 0.765,0.388 1.061,0.676c0.296,0.288 0.528,0.624 0.692,1.009c0.168,0.388 0.248,0.804 0.248,1.252c0,0.448 -0.08,0.869 -0.248,1.253c-0.164,0.388 -0.396,0.724 -0.692,1.012c-0.296,0.288 -0.648,0.512 -1.061,0.676c-0.408,0.164 -0.856,0.244 -1.34,0.244c-0.492,0 -0.941,-0.08 -1.349,-0.244c-0.408,-0.164 -0.76,-0.388 -1.052,-0.676c-0.292,-0.288 -0.524,-0.624 -0.688,-1.012c-0.165,-0.384 -0.249,-0.805 -0.249,-1.253Z" style="fill:white;fill-rule:nonzero;"/>
    <path id="path19257" d="M132.724,319.678l0,3.277c0,0.176 0.008,0.356 0.02,0.541c0.012,0.184 0.052,0.352 0.12,0.5c0.068,0.148 0.172,0.272 0.316,0.364c0.145,0.092 0.349,0.14 0.609,0.14c0.26,0 0.464,-0.048 0.604,-0.14c0.14,-0.092 0.244,-0.216 0.316,-0.364c0.068,-0.148 0.108,-0.316 0.124,-0.5c0.012,-0.185 0.02,-0.365 0.02,-0.541l0,-3.277l1.561,0l0,3.493c0,0.941 -0.216,1.625 -0.644,2.057c-0.433,0.432 -1.093,0.648 -1.981,0.648c-0.893,0 -1.553,-0.216 -1.985,-0.648c-0.432,-0.432 -0.648,-1.116 -0.648,-2.057l0,-3.493l1.568,0Z" style="fill:white;fill-rule:nonzero;"/>
    <path id="path19259" d="M139.963,321.002l0,4.706l-1.568,0l0,-4.706l-1.285,0l0,-1.324l4.142,0l0,1.324l-1.289,0Z" style="fill:white;fill-rule:nonzero;"/>
    <path id="path19264" d="M107.235,356.593c0,0.24 0.044,0.464 0.136,0.664c0.088,0.204 0.212,0.38 0.368,0.528c0.152,0.152 0.332,0.264 0.54,0.348c0.204,0.084 0.42,0.124 0.653,0.124c0.228,0 0.444,-0.04 0.652,-0.124c0.204,-0.084 0.384,-0.196 0.54,-0.348c0.16,-0.148 0.284,-0.324 0.372,-0.528c0.092,-0.2 0.136,-0.424 0.136,-0.664c0,-0.241 -0.044,-0.461 -0.136,-0.665c-0.088,-0.2 -0.212,-0.376 -0.372,-0.528c-0.156,-0.148 -0.336,-0.264 -0.54,-0.348c-0.208,-0.08 -0.424,-0.124 -0.652,-0.124c-0.233,0 -0.449,0.044 -0.653,0.124c-0.208,0.084 -0.388,0.2 -0.54,0.348c-0.156,0.152 -0.28,0.328 -0.368,0.528c-0.092,0.204 -0.136,0.424 -0.136,0.665Zm-1.641,0c0,-0.449 0.084,-0.865 0.248,-1.253c0.164,-0.384 0.396,-0.72 0.689,-1.008c0.292,-0.289 0.644,-0.517 1.052,-0.677c0.408,-0.164 0.856,-0.244 1.349,-0.244c0.484,0 0.932,0.08 1.34,0.244c0.412,0.16 0.764,0.388 1.061,0.677c0.296,0.288 0.528,0.624 0.692,1.008c0.168,0.388 0.248,0.804 0.248,1.253c0,0.448 -0.08,0.868 -0.248,1.252c-0.164,0.388 -0.396,0.724 -0.692,1.012c-0.297,0.289 -0.649,0.513 -1.061,0.677c-0.408,0.164 -0.856,0.244 -1.34,0.244c-0.493,0 -0.941,-0.08 -1.349,-0.244c-0.408,-0.164 -0.76,-0.388 -1.052,-0.677c-0.293,-0.288 -0.525,-0.624 -0.689,-1.012c-0.164,-0.384 -0.248,-0.804 -0.248,-1.252Z" style="fill:white;fill-rule:nonzero;"/>
    <path id="path19266" d="M114.834,353.579l0,3.278c0,0.176 0.008,0.356 0.02,0.54c0.012,0.184 0.052,0.352 0.12,0.5c0.068,0.148 0.172,0.272 0.316,0.364c0.144,0.092 0.348,0.14 0.608,0.14c0.261,0 0.465,-0.048 0.605,-0.14c0.14,-0.092 0.244,-0.216 0.316,-0.364c0.068,-0.148 0.108,-0.316 0.124,-0.5c0.012,-0.184 0.02,-0.364 0.02,-0.54l0,-3.278l1.561,0l0,3.494c0,0.94 -0.217,1.624 -0.645,2.057c-0.432,0.432 -1.092,0.648 -1.981,0.648c-0.892,0 -1.552,-0.216 -1.984,-0.648c-0.433,-0.433 -0.649,-1.117 -0.649,-2.057l0,-3.494l1.569,0Z" style="fill:white;fill-rule:nonzero;"/>
    <path id="path19268" d="M122.073,354.904l0,4.706l-1.569,0l0,-4.706l-1.284,0l0,-1.325l4.142,0l0,1.325l-1.289,0Z" style="fill:white;fill-rule:nonzero;"/>
    <path id="path19297" d="M34.66,286.072l0.296,0c0.308,0 0.548,-0.064 0.712,-0.192c0.164,-0.128 0.248,-0.312 0.248,-0.552c0,-0.24 -0.084,-0.424 -0.248,-0.552c-0.164,-0.128 -0.404,-0.192 -0.712,-0.192l-0.296,0l0,1.488Zm3.449,3.338l-1.953,0l-1.496,-2.321l0,2.321l-1.569,0l0,-6.035l2.441,0c0.336,0 0.628,0.048 0.881,0.148c0.252,0.1 0.456,0.232 0.62,0.405c0.164,0.172 0.284,0.368 0.368,0.592c0.084,0.224 0.124,0.464 0.124,0.72c0,0.46 -0.112,0.832 -0.332,1.117c-0.22,0.284 -0.548,0.48 -0.981,0.58l1.897,2.473Z" style="fill:white;fill-rule:nonzero;"/>
    <path id="path19299" d="M42.199,284.704l-1.865,0l0,1.008l1.761,0l0,1.329l-1.761,0l0,1.04l1.865,0l0,1.329l-3.433,0l0,-6.035l3.433,0l0,1.329Z" style="fill:white;fill-rule:nonzero;"/>
    <path id="path19301" d="M44.896,283.375l0,4.706l1.881,0l0,1.329l-3.45,0l0,-6.035l1.569,0Z" style="fill:white;fill-rule:nonzero;"/>
    <path id="path19303" d="M51.019,284.704l-1.865,0l0,1.008l1.761,0l0,1.329l-1.761,0l0,1.04l1.865,0l0,1.329l-3.434,0l0,-6.035l3.434,0l0,1.329Z" style="fill:white;fill-rule:nonzero;"/>
    <path id="path19305" d="M55.428,287.169l-0.704,-2.009l-0.704,2.009l1.408,0Zm0.417,1.192l-2.241,0l-0.36,1.049l-1.673,0l2.297,-6.035l1.712,0l2.297,6.035l-1.672,0l-0.36,-1.049Z" style="fill:white;fill-rule:nonzero;"/>
    <path id="path19307" d="M61.879,284.92c-0.172,-0.14 -0.34,-0.24 -0.512,-0.308c-0.172,-0.068 -0.336,-0.1 -0.496,-0.1c-0.204,0 -0.368,0.048 -0.497,0.144c-0.128,0.096 -0.192,0.22 -0.192,0.376c0,0.108 0.032,0.196 0.096,0.264c0.064,0.068 0.149,0.128 0.253,0.18c0.104,0.052 0.22,0.096 0.352,0.132c0.132,0.036 0.26,0.076 0.388,0.12c0.512,0.172 0.888,0.4 1.124,0.685c0.236,0.284 0.356,0.656 0.356,1.116c0,0.308 -0.052,0.588 -0.156,0.84c-0.104,0.252 -0.256,0.465 -0.456,0.645c-0.2,0.18 -0.444,0.316 -0.736,0.416c-0.292,0.1 -0.62,0.148 -0.989,0.148c-0.764,0 -1.468,-0.228 -2.12,-0.68l0.672,-1.265c0.236,0.208 0.468,0.364 0.696,0.464c0.228,0.1 0.456,0.152 0.68,0.152c0.257,0 0.449,-0.06 0.573,-0.176c0.124,-0.116 0.188,-0.252 0.188,-0.4c0,-0.092 -0.016,-0.168 -0.048,-0.236c-0.032,-0.068 -0.084,-0.128 -0.16,-0.184c-0.076,-0.056 -0.172,-0.108 -0.292,-0.156c-0.12,-0.048 -0.265,-0.1 -0.437,-0.16c-0.204,-0.064 -0.4,-0.136 -0.596,-0.212c-0.196,-0.076 -0.368,-0.18 -0.52,-0.308c-0.152,-0.128 -0.276,-0.289 -0.368,-0.485c-0.092,-0.196 -0.14,-0.44 -0.14,-0.74c0,-0.3 0.048,-0.568 0.148,-0.812c0.1,-0.244 0.236,-0.452 0.416,-0.625c0.18,-0.172 0.396,-0.308 0.656,-0.404c0.26,-0.096 0.548,-0.144 0.869,-0.144c0.3,0 0.612,0.04 0.936,0.124c0.324,0.084 0.636,0.204 0.936,0.364l-0.624,1.225Z" style="fill:white;fill-rule:nonzero;"/>
    <path id="path19309" d="M67.169,284.704l-1.864,0l0,1.008l1.76,0l0,1.329l-1.76,0l0,1.04l1.864,0l0,1.329l-3.433,0l0,-6.035l3.433,0l0,1.329Z" style="fill:white;fill-rule:nonzero;"/>
    <path id="path19314" d="M71.383,267.574c5.878,-10.184 3.577,-23.245 -5.431,-30.804c-9.007,-7.556 -22.273,-7.556 -31.281,0c-9.007,7.559 -11.308,20.62 -5.43,30.804" style="fill:none;stroke:rgb(204,204,204);stroke-width:1.5px;"/>
    <circle id="circle19317" cx="32.173" cy="276.842" r="3.706" style="fill:none;stroke:rgb(204,204,204);stroke-width:1px;stroke-linecap:butt;"/>
    <circle id="circle19320" cx="69.952" cy="276.33" r="3.706" style="fill:rgb(204,204,204);stroke:rgb(204,204,204);stroke-width:1px;stroke-linecap:butt;"/>
    <path id="path19323" d="M122.904,249.995c2.737,-4.742 1.664,-10.824 -2.534,-14.346c-4.193,-3.521 -10.372,-3.521 -14.566,0c-4.197,3.522 -5.27,9.604 -2.533,14.346l9.816,-5.666l9.817,5.666Z" style="fill:none;stroke:rgb(204,204,204);stroke-width:1px;"/>
    <path id="path19326" d="M122.531,251.192l0.024,4.409" style="fill:rgb(204,204,204);fill-rule:nonzero;stroke:rgb(204,204,204);stroke-width:1px;"/>
    <path id="path19329" d="M124.748,253.365l-4.41,0.02" style="fill:rgb(204,204,204);fill-rule:nonzero;stroke:rgb(204,204,204);stroke-width:1px;"/>
    <path id="path19332" d="M106.429,253.241l-4.414,0.02" style="fill:rgb(204,204,204);fill-rule:nonzero;stroke:rgb(204,204,204);stroke-width:1px;"/>
    <path id="path19335" d="M113.087,244.333l-0.024,-13.31" style="fill:none;stroke:rgb(204,204,204);stroke-width:1px;"/>
    <path d="M31.011,319.509l0,2.142c-0.228,0.104 -0.483,0.184 -0.765,0.24c-0.282,0.056 -0.571,0.084 -0.867,0.084c-0.464,0 -0.867,-0.088 -1.209,-0.264c-0.342,-0.176 -0.605,-0.429 -0.789,-0.759c-0.184,-0.33 -0.276,-0.721 -0.276,-1.173c0,-0.44 0.092,-0.825 0.276,-1.155c0.184,-0.33 0.444,-0.584 0.78,-0.762c0.336,-0.178 0.728,-0.267 1.176,-0.267c0.308,0 0.599,0.04 0.873,0.12c0.274,0.08 0.497,0.19 0.669,0.33l-0.354,0.798c-0.196,-0.128 -0.385,-0.221 -0.567,-0.279c-0.182,-0.058 -0.377,-0.087 -0.585,-0.087c-0.38,0 -0.663,0.107 -0.849,0.321c-0.186,0.214 -0.279,0.541 -0.279,0.981c0,0.456 0.097,0.794 0.291,1.014c0.194,0.22 0.493,0.33 0.897,0.33c0.188,0 0.376,-0.02 0.564,-0.06l0,-0.792l-0.744,0l0,-0.762l1.758,0Z" style="fill:white;fill-rule:nonzero;"/>
    <path d="M31.725,321.921l0,-4.272l3.048,0l0,0.864l-1.95,0l0,0.804l1.824,0l0,0.864l-1.824,0l0,0.876l1.95,0l0,0.864l-3.048,0Z" style="fill:white;fill-rule:nonzero;"/>
    <path d="M38.109,317.649l1.062,0l0,4.272l-0.834,0l-1.938,-2.424l0,2.424l-1.05,0l0,-4.272l0.822,0l1.938,2.412l0,-2.412Z" style="fill:white;fill-rule:nonzero;"/>
    <path d="M40.905,321.921l0,-3.36l-1.272,0l0,-0.912l3.684,0l0,0.912l-1.272,0l0,3.36l-1.14,0Z" style="fill:white;fill-rule:nonzero;"/>
    <path d="M43.773,321.921l0,-4.272l1.128,0l0,3.36l1.806,0l0,0.912l-2.934,0Z" style="fill:white;fill-rule:nonzero;"/>
    <path d="M47.247,321.921l0,-4.272l3.048,0l0,0.864l-1.95,0l0,0.804l1.824,0l0,0.864l-1.824,0l0,0.876l1.95,0l0,0.864l-3.048,0Z" style="fill:white;fill-rule:nonzero;"/>
    <path d="M30.051,305.649l1.104,0l0,4.272l-1.104,0l0,-1.728l-1.728,0l0,1.728l-1.104,0l0,-4.272l1.104,0l0,1.662l1.728,0l0,-1.662Z" style="fill:white;fill-rule:nonzero;"/>
    <path d="M35.181,309.921l-0.378,-0.882l-1.896,0l-0.378,0.882l-1.128,0l1.998,-4.272l0.888,0l2.004,4.272l-1.11,0Zm-1.908,-1.728l1.164,0l-0.582,-1.35l-0.582,1.35Z" style="fill:white;fill-rule:nonzero;"/>
    <path d="M40.251,309.921l-1.194,0l-0.552,-1.422c-0.064,-0.16 -0.214,-0.24 -0.45,-0.24l-0.408,0l0,1.662l-1.11,0l0,-4.272l1.986,0c0.516,0 0.904,0.111 1.164,0.333c0.26,0.222 0.39,0.539 0.39,0.951c0,0.288 -0.077,0.537 -0.231,0.747c-0.154,0.21 -0.371,0.359 -0.651,0.447c0.12,0.024 0.228,0.08 0.324,0.168c0.096,0.088 0.172,0.206 0.228,0.354l0.504,1.272Zm-1.908,-2.502c0.24,0 0.414,-0.037 0.522,-0.111c0.108,-0.074 0.162,-0.189 0.162,-0.345c0,-0.164 -0.053,-0.282 -0.159,-0.354c-0.106,-0.072 -0.281,-0.108 -0.525,-0.108l-0.708,0l0,0.918l0.708,0Z" style="fill:white;fill-rule:nonzero;"/>
    <path d="M40.821,305.649l1.746,0c0.472,0 0.879,0.085 1.221,0.255c0.342,0.17 0.604,0.415 0.786,0.735c0.182,0.32 0.273,0.7 0.273,1.14c0,0.444 -0.09,0.827 -0.27,1.149c-0.18,0.322 -0.441,0.568 -0.783,0.738c-0.342,0.17 -0.751,0.255 -1.227,0.255l-1.746,0l0,-4.272Zm1.668,3.372c0.416,0 0.727,-0.103 0.933,-0.309c0.206,-0.206 0.309,-0.517 0.309,-0.933c0,-0.82 -0.414,-1.23 -1.242,-1.23l-0.54,0l0,2.472l0.54,0Z" style="fill:white;fill-rule:nonzero;"/>
    <path d="M28.767,298.975c-0.32,0 -0.636,-0.042 -0.948,-0.126c-0.312,-0.084 -0.566,-0.198 -0.762,-0.342l0.354,-0.798c0.208,0.132 0.429,0.233 0.663,0.303c0.234,0.07 0.469,0.105 0.705,0.105c0.24,0 0.424,-0.033 0.552,-0.099c0.128,-0.066 0.192,-0.159 0.192,-0.279c0,-0.108 -0.058,-0.197 -0.174,-0.267c-0.116,-0.07 -0.334,-0.139 -0.654,-0.207c-0.404,-0.08 -0.718,-0.179 -0.942,-0.297c-0.224,-0.118 -0.381,-0.257 -0.471,-0.417c-0.09,-0.16 -0.135,-0.354 -0.135,-0.582c0,-0.26 0.074,-0.495 0.222,-0.705c0.148,-0.21 0.356,-0.374 0.624,-0.492c0.268,-0.118 0.574,-0.177 0.918,-0.177c0.308,0 0.607,0.043 0.897,0.129c0.29,0.086 0.517,0.199 0.681,0.339l-0.348,0.798c-0.188,-0.132 -0.386,-0.233 -0.594,-0.303c-0.208,-0.07 -0.416,-0.105 -0.624,-0.105c-0.204,0 -0.368,0.039 -0.492,0.117c-0.124,0.078 -0.186,0.183 -0.186,0.315c0,0.072 0.022,0.132 0.066,0.18c0.044,0.048 0.126,0.095 0.246,0.141c0.12,0.046 0.3,0.095 0.54,0.147c0.388,0.084 0.693,0.185 0.915,0.303c0.222,0.118 0.379,0.256 0.471,0.414c0.092,0.158 0.138,0.347 0.138,0.567c0,0.416 -0.162,0.743 -0.486,0.981c-0.324,0.238 -0.78,0.357 -1.368,0.357Z" style="fill:white;fill-rule:nonzero;"/>
    <path d="M33.285,298.975c-0.436,0 -0.816,-0.089 -1.14,-0.267c-0.324,-0.178 -0.573,-0.433 -0.747,-0.765c-0.174,-0.332 -0.261,-0.72 -0.261,-1.164c0,-0.444 0.088,-0.83 0.264,-1.158c0.176,-0.328 0.425,-0.581 0.747,-0.759c0.322,-0.178 0.701,-0.267 1.137,-0.267c0.436,0 0.815,0.089 1.137,0.267c0.322,0.178 0.569,0.431 0.741,0.759c0.172,0.328 0.258,0.714 0.258,1.158c0,0.444 -0.086,0.832 -0.258,1.164c-0.172,0.332 -0.419,0.587 -0.741,0.765c-0.322,0.178 -0.701,0.267 -1.137,0.267Zm0,-0.858c0.32,0 0.571,-0.114 0.753,-0.342c0.182,-0.228 0.273,-0.56 0.273,-0.996c0,-0.432 -0.091,-0.761 -0.273,-0.987c-0.182,-0.226 -0.433,-0.339 -0.753,-0.339c-0.32,0 -0.57,0.112 -0.75,0.336c-0.18,0.224 -0.27,0.554 -0.27,0.99c0,0.44 0.09,0.773 0.27,0.999c0.18,0.226 0.43,0.339 0.75,0.339Z" style="fill:white;fill-rule:nonzero;"/>
    <path d="M36.081,298.921l0,-4.272l2.982,0l0,0.882l-1.872,0l0,0.78l1.752,0l0,0.876l-1.752,0l0,1.734l-1.11,0Z" style="fill:white;fill-rule:nonzero;"/>
    <path d="M40.701,298.921l0,-3.36l-1.272,0l0,-0.912l3.684,0l0,0.912l-1.272,0l0,3.36l-1.14,0Z" style="fill:white;fill-rule:nonzero;"/>
  </g>
</svg>