<svg width="150px" height="380px" version="1.1" xmlns="http://www.w3.org/2000/svg" xmlns:xlink="http://www.w3.org/1999/xlink" xml:space="preserve" xmlns:serif="http://www.serif.com/" style="fill-rule:evenodd;clip-rule:evenodd;stroke-linecap:round;">
  <defs>
    <linearGradient id="_Linear1" x1="0" y1="0" x2="1" y2="0" gradientUnits="userSpaceOnUse" gradientTransform="matrix(150,-379.998,379.998,150,0.000328145,379.998)">
      <stop offset="0" style="stop-color:rgb(9,13,17);stop-opacity:1"/>
      <stop offset="1" style="stop-color:rgb(24,35,46);stop-opacity:1"/>
    </linearGradient>
    <linearGradient id="_Linear2" x1="0" y1="0" x2="1" y2="0" gradientUnits="userSpaceOnUse" gradientTransform="matrix(3.31878e-15,-54.1998,54.1998,3.31878e-15,132.052,313.953)">
      <stop offset="0" style="stop-color:rgb(155,155,155);stop-opacity:1"/>
      <stop offset="1" style="stop-color:rgb(36,36,36);stop-opacity:1"/>
    </linearGradient>
  </defs>
  <g id="Panel">
    <rect id="rect9931" x="0" y="0" width="150" height="380" style="fill:rgb(26,26,26);"/>
    <rect id="rect20115" x="0" y="0" width="150" height="379.998" style="fill:url(#_Linear1);"/>
    <path id="rect8471" d="M65.956,259.753l61.795,0c2.382,0 4.301,1.919 4.301,4.301l0,45.598c0,2.383 -1.919,4.301 -4.301,4.301l-61.795,0c-2.383,0 -4.301,-1.918 -4.301,-4.301l0,-45.598c0,-2.382 1.918,-4.301 4.301,-4.301Z" style="fill:url(#_Linear2);"/>
    <path id="rect8471-7" d="M67.279,261.362l59.184,0c2.244,0 4.05,1.806 4.05,4.05l0,42.938c0,2.244 -1.806,4.051 -4.05,4.051l-59.184,0c-2.244,0 -4.051,-1.807 -4.051,-4.051l0,-42.938c0,-2.244 1.807,-4.05 4.051,-4.05Z" style="fill:rgb(14,20,27);"/>
    <path id="path20118" d="M42.375,38.559l0,-0.963c-0.353,0.72 -0.911,1.08 -1.671,1.08c-0.615,0 -1.097,-0.226 -1.448,-0.676c-0.35,-0.45 -0.526,-1.069 -0.526,-1.857c0,-0.857 0.198,-1.539 0.594,-2.049c0.395,-0.509 0.926,-0.763 1.595,-0.763c0.533,0 1.019,0.211 1.456,0.633l0,-2.756l1.383,0l0,7.351l-1.383,0Zm0,-3.775c-0.332,-0.373 -0.687,-0.56 -1.066,-0.56c-0.339,0 -0.609,0.164 -0.81,0.49c-0.202,0.326 -0.303,0.763 -0.303,1.313c0,1.046 0.336,1.569 1.006,1.569c0.41,0 0.801,-0.263 1.173,-0.787l0,-2.025Z" style="fill:white;fill-rule:nonzero;"/>
    <path id="path20120" d="M45.475,38.559l0,-5.112l1.379,0l0,0.964c0.357,-0.72 0.9,-1.08 1.629,-1.08c0.087,0 0.172,0.009 0.257,0.027l0,1.23c-0.196,-0.071 -0.378,-0.107 -0.546,-0.107c-0.549,0 -0.996,0.278 -1.34,0.833l0,3.245l-1.379,0Z" style="fill:white;fill-rule:nonzero;"/>
    <path id="path20122" d="M52.972,38.559l0,-0.963c-0.448,0.72 -1.029,1.08 -1.742,1.08c-0.456,0 -0.816,-0.144 -1.08,-0.433c-0.264,-0.29 -0.396,-0.683 -0.396,-1.183l0,-3.613l1.378,0l0,3.273c0,0.58 0.194,0.87 0.582,0.87c0.435,0 0.854,-0.308 1.258,-0.926l0,-3.217l1.377,0l0,5.112l-1.377,0Z" style="fill:white;fill-rule:nonzero;"/>
    <path id="path20124" d="M56.072,38.559l0,-5.112l1.322,0l0,0.964c0.403,-0.72 0.977,-1.08 1.723,-1.08c0.384,0 0.701,0.094 0.949,0.284c0.248,0.189 0.401,0.455 0.457,0.796c0.477,-0.72 1.054,-1.08 1.731,-1.08c0.935,0 1.402,0.516 1.402,1.546l0,3.682l-1.323,0l0,-3.231c0,-0.605 -0.201,-0.908 -0.605,-0.908c-0.412,0 -0.815,0.298 -1.205,0.894l0,3.245l-1.323,0l0,-3.231c0,-0.608 -0.203,-0.912 -0.61,-0.912c-0.406,0 -0.805,0.299 -1.196,0.898l0,3.245l-1.322,0Z" style="fill:white;fill-rule:nonzero;"/>
    <path id="path20126" d="M72.622,38.387c-0.655,0.192 -1.275,0.289 -1.862,0.289c-0.853,0 -1.527,-0.243 -2.021,-0.727c-0.494,-0.484 -0.74,-1.145 -0.74,-1.983c0,-0.792 0.226,-1.428 0.677,-1.911c0.452,-0.483 1.048,-0.724 1.791,-0.724c0.747,0 1.293,0.236 1.639,0.707c0.344,0.472 0.516,1.219 0.516,2.239l-3.171,0c0.093,0.976 0.629,1.463 1.606,1.463c0.463,0 0.984,-0.107 1.565,-0.321l0,0.968Zm-3.189,-2.887l1.834,0c0,-0.872 -0.28,-1.307 -0.843,-1.307c-0.57,0 -0.901,0.435 -0.991,1.307Z" style="fill:white;fill-rule:nonzero;"/>
    <path id="path20128" d="M74.046,38.559l0,-5.112l1.379,0l0,0.964c0.45,-0.72 1.03,-1.08 1.741,-1.08c0.456,0 0.816,0.144 1.079,0.433c0.264,0.289 0.396,0.683 0.396,1.183l0,3.612l-1.377,0l0,-3.273c0,-0.58 -0.193,-0.87 -0.578,-0.87c-0.437,0 -0.858,0.308 -1.261,0.927l0,3.216l-1.379,0Z" style="fill:white;fill-rule:nonzero;"/>
    <path id="path20130" d="M81.57,38.559l-1.951,-5.112l1.452,0l1.43,3.687l1.419,-3.687l0.997,0l-1.97,5.112l-1.377,0Z" style="fill:white;fill-rule:nonzero;"/>
    <path id="path20132" d="M90.127,38.387c-0.655,0.192 -1.276,0.289 -1.862,0.289c-0.854,0 -1.527,-0.243 -2.022,-0.727c-0.493,-0.484 -0.74,-1.145 -0.74,-1.983c0,-0.792 0.227,-1.428 0.678,-1.911c0.452,-0.483 1.048,-0.724 1.79,-0.724c0.748,0 1.294,0.236 1.639,0.707c0.344,0.472 0.517,1.219 0.517,2.239l-3.171,0c0.093,0.976 0.629,1.463 1.606,1.463c0.463,0 0.984,-0.107 1.565,-0.321l0,0.968Zm-3.189,-2.887l1.834,0c0,-0.872 -0.281,-1.307 -0.843,-1.307c-0.571,0 -0.901,0.435 -0.991,1.307Z" style="fill:white;fill-rule:nonzero;"/>
    <rect id="rect20134" x="91.551" y="31.208" width="1.379" height="7.351" style="fill:white;"/>
    <path id="path20136" d="M96.798,38.676c-0.798,0 -1.431,-0.242 -1.902,-0.725c-0.47,-0.482 -0.705,-1.131 -0.705,-1.948c0,-0.826 0.237,-1.477 0.71,-1.955c0.473,-0.478 1.116,-0.717 1.929,-0.717c0.816,0 1.461,0.239 1.934,0.717c0.474,0.478 0.711,1.126 0.711,1.946c0,0.838 -0.237,1.495 -0.713,1.969c-0.474,0.475 -1.129,0.713 -1.964,0.713Zm0.024,-0.862c0.79,0 1.186,-0.607 1.186,-1.82c0,-0.556 -0.104,-0.994 -0.314,-1.317c-0.21,-0.323 -0.498,-0.484 -0.864,-0.484c-0.363,0 -0.649,0.161 -0.859,0.484c-0.209,0.323 -0.314,0.764 -0.314,1.326c0,0.556 0.105,0.997 0.312,1.323c0.208,0.326 0.493,0.488 0.853,0.488Z" style="fill:white;fill-rule:nonzero;"/>
    <path id="path20138" d="M100.741,40.398l0,-6.951l1.379,0l0,0.964c0.353,-0.72 0.91,-1.08 1.67,-1.08c0.614,0 1.098,0.225 1.451,0.675c0.351,0.45 0.528,1.07 0.528,1.857c0,0.857 -0.199,1.54 -0.596,2.049c-0.397,0.509 -0.929,0.764 -1.596,0.764c-0.537,0 -1.023,-0.211 -1.457,-0.634l0,2.356l-1.379,0Zm1.379,-3.175c0.334,0.373 0.691,0.559 1.07,0.559c0.338,0 0.608,-0.164 0.81,-0.491c0.201,-0.327 0.303,-0.765 0.303,-1.311c0,-1.046 -0.337,-1.569 -1.01,-1.569c-0.407,0 -0.799,0.262 -1.173,0.787l0,2.025Z" style="fill:white;fill-rule:nonzero;"/>
    <path id="path20140" d="M111.221,38.387c-0.656,0.192 -1.276,0.289 -1.863,0.289c-0.853,0 -1.526,-0.243 -2.02,-0.727c-0.493,-0.484 -0.74,-1.145 -0.74,-1.983c0,-0.792 0.226,-1.428 0.677,-1.911c0.452,-0.483 1.048,-0.724 1.79,-0.724c0.748,0 1.294,0.236 1.639,0.707c0.344,0.472 0.517,1.219 0.517,2.239l-3.171,0c0.093,0.976 0.629,1.463 1.606,1.463c0.463,0 0.985,-0.107 1.565,-0.321l0,0.968Zm-3.189,-2.887l1.834,0c0,-0.872 -0.281,-1.307 -0.843,-1.307c-0.571,0 -0.901,0.435 -0.991,1.307Z" style="fill:white;fill-rule:nonzero;"/>
    <path id="path20145" d="M55.89,20.137c-0.268,-0.217 -0.537,-0.38 -0.804,-0.483c-0.269,-0.106 -0.529,-0.158 -0.781,-0.158c-0.318,0 -0.578,0.075 -0.779,0.227c-0.201,0.15 -0.302,0.347 -0.302,0.591c0,0.168 0.05,0.305 0.15,0.414c0.101,0.11 0.233,0.204 0.397,0.284c0.164,0.08 0.348,0.149 0.553,0.208c0.206,0.059 0.409,0.121 0.611,0.188c0.805,0.269 1.393,0.627 1.768,1.076c0.372,0.449 0.559,1.033 0.559,1.754c0,0.488 -0.083,0.927 -0.245,1.321c-0.164,0.395 -0.404,0.733 -0.718,1.013c-0.314,0.281 -0.699,0.499 -1.157,0.655c-0.457,0.154 -0.975,0.232 -1.554,0.232c-1.198,0 -2.31,-0.356 -3.333,-1.069l1.056,-1.988c0.369,0.328 0.734,0.57 1.095,0.73c0.361,0.16 0.716,0.238 1.069,0.238c0.403,0 0.702,-0.092 0.899,-0.276c0.197,-0.185 0.296,-0.394 0.296,-0.63c0,-0.142 -0.025,-0.265 -0.075,-0.37c-0.05,-0.105 -0.134,-0.201 -0.251,-0.289c-0.119,-0.089 -0.271,-0.17 -0.46,-0.246c-0.189,-0.075 -0.417,-0.159 -0.686,-0.251c-0.318,-0.101 -0.631,-0.211 -0.937,-0.334c-0.305,-0.121 -0.578,-0.282 -0.817,-0.483c-0.24,-0.203 -0.433,-0.456 -0.579,-0.762c-0.147,-0.307 -0.22,-0.694 -0.22,-1.163c0,-0.47 0.077,-0.896 0.233,-1.277c0.155,-0.383 0.373,-0.709 0.654,-0.982c0.281,-0.272 0.625,-0.483 1.031,-0.635c0.407,-0.151 0.862,-0.227 1.365,-0.227c0.47,0 0.96,0.066 1.472,0.196c0.511,0.129 1.002,0.32 1.472,0.571l-0.982,1.925Z" style="fill:rgb(172,181,188);fill-rule:nonzero;"/>
    <path id="path20147" d="M61.275,22.062l0.818,0c0.906,0 1.358,-0.393 1.358,-1.182c0,-0.788 -0.452,-1.182 -1.358,-1.182l-0.818,0l0,2.364Zm0,5.133l-2.465,0l0,-9.485l3.923,0c1.066,0 1.881,0.276 2.447,0.83c0.566,0.553 0.85,1.333 0.85,2.34c0,1.006 -0.284,1.786 -0.85,2.339c-0.566,0.554 -1.381,0.831 -2.447,0.831l-1.458,0l0,3.145Z" style="fill:rgb(172,181,188);fill-rule:nonzero;"/>
    <path id="path20149" d="M71.968,23.672l-1.107,-3.157l-1.107,3.157l2.214,0Zm0.654,1.875l-3.523,0l-0.566,1.648l-2.63,0l3.611,-9.485l2.692,0l3.611,9.485l-2.629,0l-0.566,-1.648Z" style="fill:rgb(172,181,188);fill-rule:nonzero;"/>
    <path id="path20151" d="M76.898,27.195l0,-9.485l2.467,0l4.554,5.799l0,-5.799l2.452,0l0,9.485l-2.452,0l-4.554,-5.799l0,5.799l-2.467,0Z" style="fill:rgb(172,181,188);fill-rule:nonzero;"/>
    <path id="path20153" d="M90.825,21.622l3.006,-3.912l3.045,0l-3.761,4.49l4.113,4.995l-3.196,0l-3.207,-4.113l0,4.113l-2.465,0l0,-9.485l2.465,0l0,3.912Z" style="fill:rgb(172,181,188);fill-rule:nonzero;"/>
    <path id="path20158" d="M122.904,81.662c2.737,-4.742 1.664,-10.824 -2.534,-14.346c-4.193,-3.521 -10.372,-3.521 -14.566,0c-4.197,3.522 -5.27,9.604 -2.533,14.346l9.816,-5.666l9.817,5.666Z" style="fill:none;stroke:rgb(204,204,204);stroke-width:1px;"/>
    <path id="path20161" d="M122.531,82.859l0.024,4.409" style="fill:rgb(204,204,204);fill-rule:nonzero;stroke:rgb(204,204,204);stroke-width:1px;"/>
    <path id="path20164" d="M124.748,85.032l-4.41,0.02" style="fill:rgb(204,204,204);fill-rule:nonzero;stroke:rgb(204,204,204);stroke-width:1px;"/>
    <path id="path20167" d="M106.429,84.908l-4.414,0.02" style="fill:rgb(204,204,204);fill-rule:nonzero;stroke:rgb(204,204,204);stroke-width:1px;"/>
    <path id="path20170" d="M113.087,76l-0.024,-13.31" style="fill:none;stroke:rgb(204,204,204);stroke-width:1px;"/>
    <path id="path20173" d="M37.373,118.836l-0.705,-2.009l-0.704,2.009l1.409,0Zm0.416,1.192l-2.241,0l-0.36,1.049l-1.673,0l2.297,-6.035l1.713,0l2.297,6.035l-1.673,0l-0.36,-1.049Z" style="fill:white;fill-rule:nonzero;"/>
    <path id="path20175" d="M42.535,116.371l0,4.706l-1.569,0l0,-4.706l-1.289,0l0,-1.329l4.146,0l0,1.329l-1.288,0Z" style="fill:white;fill-rule:nonzero;"/>
    <path id="path20177" d="M46.808,116.371l0,4.706l-1.568,0l0,-4.706l-1.289,0l0,-1.329l4.146,0l0,1.329l-1.289,0Z" style="fill:white;fill-rule:nonzero;"/>
    <path id="path20179" d="M51.795,118.836l-0.705,-2.009l-0.704,2.009l1.409,0Zm0.416,1.192l-2.241,0l-0.36,1.049l-1.673,0l2.297,-6.035l1.713,0l2.297,6.035l-1.673,0l-0.36,-1.049Z" style="fill:white;fill-rule:nonzero;"/>
    <path id="path20181" d="M59.054,117.059c-0.365,-0.444 -0.813,-0.664 -1.345,-0.664c-0.236,0 -0.452,0.044 -0.652,0.128c-0.2,0.084 -0.372,0.2 -0.517,0.348c-0.144,0.148 -0.256,0.32 -0.34,0.524c-0.084,0.204 -0.124,0.42 -0.124,0.657c0,0.24 0.04,0.46 0.124,0.664c0.084,0.204 0.196,0.38 0.344,0.528c0.149,0.148 0.321,0.268 0.517,0.352c0.196,0.084 0.412,0.128 0.64,0.128c0.5,0 0.952,-0.212 1.353,-0.64l0,1.857l-0.161,0.056c-0.24,0.084 -0.464,0.148 -0.672,0.188c-0.208,0.04 -0.412,0.06 -0.616,0.06c-0.416,0 -0.816,-0.08 -1.197,-0.236c-0.38,-0.156 -0.716,-0.38 -1.008,-0.665c-0.292,-0.284 -0.524,-0.624 -0.7,-1.016c-0.176,-0.392 -0.264,-0.82 -0.264,-1.284c0,-0.465 0.088,-0.889 0.26,-1.277c0.172,-0.388 0.404,-0.72 0.696,-1c0.292,-0.281 0.628,-0.501 1.012,-0.657c0.385,-0.156 0.789,-0.236 1.209,-0.236c0.24,0 0.476,0.024 0.708,0.076c0.232,0.052 0.476,0.128 0.733,0.236l0,1.873Z" style="fill:white;fill-rule:nonzero;"/>
    <path id="path20183" d="M61.871,117.531l1.912,-2.489l1.937,0l-2.393,2.857l2.617,3.178l-2.032,0l-2.041,-2.617l0,2.617l-1.569,0l0,-6.035l1.569,0l0,2.489Z" style="fill:white;fill-rule:nonzero;"/>
    <path id="path20188" d="M122.904,81.662c2.737,-4.742 1.664,-10.824 -2.534,-14.346c-4.193,-3.521 -10.372,-3.521 -14.566,0c-4.197,3.522 -5.27,9.604 -2.533,14.346l9.816,-5.666l9.817,5.666Z" style="fill:none;stroke:rgb(204,204,204);stroke-width:1px;"/>
    <path id="path20191" d="M122.531,82.859l0.024,4.409" style="fill:rgb(204,204,204);fill-rule:nonzero;stroke:rgb(204,204,204);stroke-width:1px;"/>
    <path id="path20194" d="M124.748,85.032l-4.41,0.02" style="fill:rgb(204,204,204);fill-rule:nonzero;stroke:rgb(204,204,204);stroke-width:1px;"/>
    <path id="path20197" d="M106.429,84.908l-4.414,0.02" style="fill:rgb(204,204,204);fill-rule:nonzero;stroke:rgb(204,204,204);stroke-width:1px;"/>
    <path id="path20200" d="M113.087,76l-0.024,-13.31" style="fill:none;stroke:rgb(204,204,204);stroke-width:1px;"/>
    <path id="path20203" d="M71.383,99.241c5.878,-10.184 3.577,-23.245 -5.431,-30.804c-9.007,-7.556 -22.273,-7.556 -31.281,0c-9.007,7.559 -11.308,20.62 -5.43,30.804" style="fill:none;stroke:rgb(204,204,204);stroke-width:1.5px;"/>
    <circle id="circle20206" cx="32.173" cy="108.509" r="3.706" style="fill:none;stroke:rgb(204,204,204);stroke-width:1px;stroke-linecap:butt;"/>
    <circle id="circle20209" cx="69.952" cy="107.997" r="3.706" style="fill:rgb(204,204,204);stroke:rgb(204,204,204);stroke-width:1px;stroke-linecap:butt;"/>
    <path id="path20212" d="M122.904,148.329c2.737,-4.742 1.664,-10.824 -2.534,-14.346c-4.193,-3.521 -10.372,-3.521 -14.566,0c-4.197,3.522 -5.27,9.604 -2.533,14.346l9.816,-5.666l9.817,5.666Z" style="fill:none;stroke:rgb(204,204,204);stroke-width:1px;"/>
    <path id="path20215" d="M122.531,149.526l0.024,4.409" style="fill:rgb(204,204,204);fill-rule:nonzero;stroke:rgb(204,204,204);stroke-width:1px;"/>
    <path id="path20218" d="M124.748,151.699l-4.41,0.02" style="fill:rgb(204,204,204);fill-rule:nonzero;stroke:rgb(204,204,204);stroke-width:1px;"/>
    <path id="path20221" d="M106.429,151.575l-4.414,0.02" style="fill:rgb(204,204,204);fill-rule:nonzero;stroke:rgb(204,204,204);stroke-width:1px;"/>
    <path id="path20224" d="M113.087,142.667l-0.024,-13.31" style="fill:none;stroke:rgb(204,204,204);stroke-width:1px;"/>
    <path id="path20227" d="M39.66,184.038l2.265,0l0,-2.329l1.568,0l0,6.035l-1.568,0l0,-2.489l-2.265,0l0,2.489l-1.569,0l0,-6.035l1.569,0l0,2.329Z" style="fill:white;fill-rule:nonzero;"/>
    <path id="path20229" d="M46.126,184.727c0,0.24 0.045,0.46 0.137,0.664c0.092,0.204 0.212,0.38 0.368,0.528c0.156,0.148 0.336,0.264 0.54,0.348c0.204,0.084 0.424,0.124 0.652,0.124c0.228,0 0.448,-0.04 0.652,-0.124c0.205,-0.084 0.389,-0.2 0.545,-0.348c0.156,-0.148 0.28,-0.324 0.372,-0.528c0.092,-0.204 0.136,-0.424 0.136,-0.664c0,-0.241 -0.044,-0.461 -0.136,-0.665c-0.092,-0.204 -0.216,-0.38 -0.372,-0.528c-0.156,-0.148 -0.34,-0.264 -0.545,-0.348c-0.204,-0.084 -0.424,-0.124 -0.652,-0.124c-0.228,0 -0.448,0.04 -0.652,0.124c-0.204,0.084 -0.384,0.2 -0.54,0.348c-0.156,0.148 -0.276,0.324 -0.368,0.528c-0.092,0.204 -0.137,0.424 -0.137,0.665Zm-1.64,0c0,-0.449 0.084,-0.865 0.248,-1.253c0.164,-0.388 0.396,-0.724 0.688,-1.012c0.292,-0.289 0.644,-0.513 1.053,-0.677c0.408,-0.164 0.856,-0.244 1.348,-0.244c0.484,0 0.933,0.08 1.345,0.244c0.412,0.164 0.764,0.388 1.06,0.677c0.296,0.288 0.528,0.624 0.692,1.012c0.165,0.388 0.249,0.804 0.249,1.253c0,0.448 -0.084,0.864 -0.249,1.252c-0.164,0.388 -0.396,0.724 -0.692,1.012c-0.296,0.289 -0.648,0.513 -1.06,0.677c-0.412,0.164 -0.861,0.244 -1.345,0.244c-0.492,0 -0.94,-0.08 -1.348,-0.244c-0.409,-0.164 -0.761,-0.388 -1.053,-0.677c-0.292,-0.288 -0.524,-0.624 -0.688,-1.012c-0.164,-0.388 -0.248,-0.804 -0.248,-1.252Z" style="fill:white;fill-rule:nonzero;"/>
    <path id="path20231" d="M53.73,181.709l0,4.706l1.88,0l0,1.329l-3.449,0l0,-6.035l1.569,0Z" style="fill:white;fill-rule:nonzero;"/>
    <path id="path20233" d="M57.987,186.415l0.361,0c0.272,0 0.516,-0.044 0.728,-0.128c0.212,-0.084 0.392,-0.204 0.54,-0.352c0.148,-0.148 0.26,-0.328 0.336,-0.532c0.076,-0.204 0.116,-0.432 0.116,-0.676c0,-0.241 -0.04,-0.465 -0.12,-0.673c-0.08,-0.208 -0.192,-0.388 -0.34,-0.536c-0.148,-0.148 -0.328,-0.268 -0.54,-0.352c-0.212,-0.084 -0.452,-0.128 -0.72,-0.128l-0.361,0l0,3.377Zm-1.568,-4.706l2.321,0c0.412,0 0.796,0.084 1.156,0.248c0.36,0.164 0.676,0.385 0.945,0.661c0.268,0.276 0.48,0.596 0.636,0.96c0.156,0.364 0.232,0.748 0.232,1.149c0,0.396 -0.076,0.776 -0.228,1.14c-0.152,0.364 -0.364,0.688 -0.632,0.964c-0.269,0.277 -0.585,0.501 -0.945,0.665c-0.36,0.164 -0.748,0.248 -1.164,0.248l-2.321,0l0,-6.035Z" style="fill:white;fill-rule:nonzero;"/>
    <path id="path20238" d="M122.904,148.329c2.737,-4.742 1.664,-10.824 -2.534,-14.346c-4.193,-3.521 -10.372,-3.521 -14.566,0c-4.197,3.522 -5.27,9.604 -2.533,14.346l9.816,-5.666l9.817,5.666Z" style="fill:none;stroke:rgb(204,204,204);stroke-width:1px;"/>
    <path id="path20241" d="M122.531,149.526l0.024,4.409" style="fill:rgb(204,204,204);fill-rule:nonzero;stroke:rgb(204,204,204);stroke-width:1px;"/>
    <path id="path20244" d="M124.748,151.699l-4.41,0.02" style="fill:rgb(204,204,204);fill-rule:nonzero;stroke:rgb(204,204,204);stroke-width:1px;"/>
    <path id="path20247" d="M106.429,151.575l-4.414,0.02" style="fill:rgb(204,204,204);fill-rule:nonzero;stroke:rgb(204,204,204);stroke-width:1px;"/>
    <path id="path20250" d="M113.087,142.667l-0.024,-13.31" style="fill:none;stroke:rgb(204,204,204);stroke-width:1px;"/>
    <path id="path20253" d="M71.383,165.907c5.878,-10.184 3.577,-23.245 -5.431,-30.804c-9.007,-7.556 -22.273,-7.556 -31.281,0c-9.007,7.559 -11.308,20.62 -5.43,30.804" style="fill:none;stroke:rgb(204,204,204);stroke-width:1.5px;"/>
    <circle id="circle20256" cx="32.173" cy="175.175" r="3.706" style="fill:none;stroke:rgb(204,204,204);stroke-width:1px;stroke-linecap:butt;"/>
    <circle id="circle20259" cx="69.952" cy="174.663" r="3.706" style="fill:rgb(204,204,204);stroke:rgb(204,204,204);stroke-width:1px;stroke-linecap:butt;"/>
    <path id="path20262" d="M122.904,214.995c2.737,-4.742 1.664,-10.824 -2.534,-14.346c-4.193,-3.521 -10.372,-3.521 -14.566,0c-4.197,3.522 -5.27,9.604 -2.533,14.346l9.816,-5.666l9.817,5.666Z" style="fill:none;stroke:rgb(204,204,204);stroke-width:1px;"/>
    <path id="path20265" d="M122.531,216.192l0.024,4.409" style="fill:rgb(204,204,204);fill-rule:nonzero;stroke:rgb(204,204,204);stroke-width:1px;"/>
    <path id="path20268" d="M124.748,218.365l-4.41,0.02" style="fill:rgb(204,204,204);fill-rule:nonzero;stroke:rgb(204,204,204);stroke-width:1px;"/>
    <path id="path20271" d="M106.429,218.241l-4.414,0.02" style="fill:rgb(204,204,204);fill-rule:nonzero;stroke:rgb(204,204,204);stroke-width:1px;"/>
    <path id="path20274" d="M113.087,209.333l-0.024,-13.31" style="fill:none;stroke:rgb(204,204,204);stroke-width:1px;"/>
    <path id="path20277" d="M37.66,253.081l0.36,0c0.272,0 0.516,-0.044 0.728,-0.128c0.212,-0.084 0.392,-0.204 0.54,-0.352c0.149,-0.148 0.261,-0.328 0.337,-0.532c0.076,-0.204 0.116,-0.432 0.116,-0.676c0,-0.241 -0.04,-0.465 -0.12,-0.673c-0.08,-0.208 -0.192,-0.388 -0.341,-0.536c-0.148,-0.148 -0.328,-0.268 -0.54,-0.352c-0.212,-0.084 -0.452,-0.128 -0.72,-0.128l-0.36,0l0,3.377Zm-1.569,-4.706l2.321,0c0.412,0 0.796,0.084 1.157,0.248c0.36,0.164 0.676,0.385 0.944,0.661c0.268,0.276 0.48,0.596 0.636,0.96c0.156,0.364 0.232,0.748 0.232,1.149c0,0.396 -0.076,0.776 -0.228,1.14c-0.152,0.364 -0.364,0.688 -0.632,0.964c-0.268,0.277 -0.584,0.501 -0.944,0.665c-0.361,0.164 -0.749,0.248 -1.165,0.248l-2.321,0l0,-6.035Z" style="fill:white;fill-rule:nonzero;"/>
    <path id="path20279" d="M45.815,249.704l-1.865,0l0,1.008l1.761,0l0,1.329l-1.761,0l0,1.04l1.865,0l0,1.329l-3.433,0l0,-6.035l3.433,0l0,1.329Z" style="fill:white;fill-rule:nonzero;"/>
    <path id="path20281" d="M51.289,250.392c-0.364,-0.444 -0.812,-0.664 -1.344,-0.664c-0.236,0 -0.452,0.044 -0.652,0.128c-0.2,0.084 -0.373,0.2 -0.517,0.348c-0.144,0.148 -0.256,0.32 -0.34,0.524c-0.084,0.204 -0.124,0.42 -0.124,0.657c0,0.24 0.04,0.46 0.124,0.664c0.084,0.204 0.196,0.38 0.344,0.528c0.148,0.148 0.321,0.268 0.517,0.352c0.196,0.084 0.412,0.128 0.64,0.128c0.5,0 0.952,-0.212 1.352,-0.64l0,1.857l-0.16,0.056c-0.24,0.084 -0.464,0.148 -0.672,0.188c-0.208,0.04 -0.412,0.06 -0.616,0.06c-0.416,0 -0.816,-0.08 -1.197,-0.236c-0.38,-0.156 -0.716,-0.38 -1.008,-0.665c-0.292,-0.284 -0.524,-0.624 -0.7,-1.016c-0.176,-0.392 -0.264,-0.82 -0.264,-1.284c0,-0.465 0.088,-0.889 0.26,-1.277c0.172,-0.388 0.404,-0.72 0.696,-1c0.292,-0.281 0.628,-0.501 1.012,-0.657c0.385,-0.156 0.789,-0.236 1.209,-0.236c0.24,0 0.476,0.024 0.708,0.076c0.232,0.052 0.476,0.128 0.732,0.236l0,1.873Z" style="fill:white;fill-rule:nonzero;"/>
    <path id="path20283" d="M55.707,252.169l-0.704,-2.009l-0.704,2.009l1.408,0Zm0.416,1.192l-2.24,0l-0.361,1.049l-1.672,0l2.297,-6.035l1.712,0l2.297,6.035l-1.672,0l-0.361,-1.049Z" style="fill:white;fill-rule:nonzero;"/>
    <path id="path20285" d="M59.733,251.513l-2.201,-3.138l1.873,0l1.12,1.649l1.113,-1.649l1.873,0l-2.209,3.138l0,2.897l-1.569,0l0,-2.897Z" style="fill:white;fill-rule:nonzero;"/>
    <path id="path20290" d="M122.904,214.995c2.737,-4.742 1.664,-10.824 -2.534,-14.346c-4.193,-3.521 -10.372,-3.521 -14.566,0c-4.197,3.522 -5.27,9.604 -2.533,14.346l9.816,-5.666l9.817,5.666Z" style="fill:none;stroke:rgb(204,204,204);stroke-width:1px;"/>
    <path id="path20293" d="M122.531,216.192l0.024,4.409" style="fill:rgb(204,204,204);fill-rule:nonzero;stroke:rgb(204,204,204);stroke-width:1px;"/>
    <path id="path20296" d="M124.748,218.365l-4.41,0.02" style="fill:rgb(204,204,204);fill-rule:nonzero;stroke:rgb(204,204,204);stroke-width:1px;"/>
    <path id="path20299" d="M106.429,218.241l-4.414,0.02" style="fill:rgb(204,204,204);fill-rule:nonzero;stroke:rgb(204,204,204);stroke-width:1px;"/>
    <path id="path20302" d="M113.087,209.333l-0.024,-13.31" style="fill:none;stroke:rgb(204,204,204);stroke-width:1px;"/>
    <path id="path20305" d="M71.383,232.574c5.878,-10.184 3.577,-23.245 -5.431,-30.804c-9.007,-7.556 -22.273,-7.556 -31.281,0c-9.007,7.559 -11.308,20.62 -5.43,30.804" style="fill:none;stroke:rgb(204,204,204);stroke-width:1.5px;"/>
    <circle id="circle20308" cx="32.173" cy="241.842" r="3.706" style="fill:none;stroke:rgb(204,204,204);stroke-width:1px;stroke-linecap:butt;"/>
    <circle id="circle20311" cx="69.952" cy="241.33" r="3.706" style="fill:rgb(204,204,204);stroke:rgb(204,204,204);stroke-width:1px;stroke-linecap:butt;"/>
    <path id="path42" d="M62.952,363.5l2.673,0l2.49,8.317l2.574,-8.317l2.66,0l-3.46,10.397c-0.323,0.959 -0.903,1.438 -1.738,1.438c-0.847,0 -1.433,-0.484 -1.755,-1.453l-3.444,-10.382Z" style="fill:rgb(173,181,187);fill-rule:nonzero;"/>
    <path id="path44" d="M73.55,372.292l0,-8.792l2.507,0l0,8.709c0.044,0.312 0.334,0.468 0.869,0.468l1.705,0c0.513,0 0.797,-0.145 0.853,-0.435l0.017,-0.083l0,-8.659l2.507,0l0,8.776c0,0.769 -0.083,1.315 -0.251,1.638c-0.445,0.858 -1.231,1.287 -2.357,1.287l-3.243,0c-1.159,0 -1.95,-0.44 -2.373,-1.321c-0.156,-0.323 -0.234,-0.852 -0.234,-1.588l0,0Z" style="fill:rgb(173,181,187);fill-rule:nonzero;"/>
    <path id="path46" d="M83.161,372.343l0,-8.843l2.508,0l0,8.642c0,0.357 0.211,0.535 0.635,0.535l4.463,0l-0.016,2.524l-4.664,0c-0.167,0 -0.312,-0.006 -0.435,-0.017c-0.903,-0.077 -1.544,-0.342 -1.922,-0.794c-0.379,-0.451 -0.569,-1.133 -0.569,-2.047l0,0Z" style="fill:rgb(173,181,187);fill-rule:nonzero;"/>
    <path id="path48" d="M90.851,366.024l0,-2.524l7.522,0l0,2.524l-2.524,0l0,9.177l-2.508,0l0,-9.177l-2.49,0Z" style="fill:rgb(173,181,187);fill-rule:nonzero;"/>
    <path id="path4" d="M59.383,369.417c0,-4.509 -3.655,-8.164 -8.164,-8.164c-4.509,0 -8.165,3.655 -8.165,8.164c0,4.509 3.656,8.165 8.165,8.165c4.509,0 8.164,-3.656 8.164,-8.165Z" style="fill:rgb(117,117,117);fill-rule:nonzero;stroke:rgb(65,76,85);stroke-width:0.61px;stroke-linecap:butt;stroke-miterlimit:10;"/>
    <path id="polygon6" d="M49.321,374.394l0.553,-0.891l-1.064,-2.393l-2.216,-2.284l0.46,3.101l0.597,1.28l0.833,1.264l0.837,-0.077Z" style="fill:rgb(43,43,43);fill-rule:nonzero;"/>
    <path id="polygon8" d="M53.048,374.401l-0.553,-0.89l1.064,-2.393l2.216,-2.285l-0.46,3.101l-0.597,1.281l-0.833,1.263l-0.837,-0.077Z" style="fill:rgb(38,38,38);fill-rule:nonzero;"/>
    <path id="polygon12" d="M48.636,363.359l2.584,-0.66l0,13.447l-1.349,-2.651l-1.061,-2.385l-1.022,-0.581l-2.052,-2.92l-0.057,-0.776l1.148,-2.067l1.809,-1.407Z" style="fill:rgb(66,66,66);fill-rule:nonzero;"/>
    <path id="polygon14" d="M53.801,363.364l-2.584,-0.661l0,13.448l1.35,-2.651l1.06,-2.385l1.023,-0.581l2.051,-2.921l0.058,-0.775l-1.149,-2.067l-1.809,-1.407Z" style="fill:rgb(51,51,51);fill-rule:nonzero;"/>
    <path id="polyline16" d="M49.496,369.237l1.723,-1.684l0,1.229l-1.723,1.718l0,-1.263" style="fill:rgb(76,76,76);fill-rule:nonzero;"/>
    <path id="polygon18" d="M51.22,368.781l-1.723,1.718l0.377,3.004l1.346,2.643l0,-7.365Z" style="fill:rgb(91,91,91);fill-rule:nonzero;"/>
    <path id="polygon20" d="M51.22,376.146l-1.346,-2.643l1.346,-0.635l0,3.278Z" style="fill:rgb(51,51,51);fill-rule:nonzero;"/>
    <path id="polygon22" d="M49.497,370.499l0,-1.263l-1.249,-1.58l-1.477,-1.19l-0.001,0.932l0.775,1.823l1.952,1.278Z" style="fill:white;fill-rule:nonzero;"/>
    <path id="polyline24" d="M52.942,369.238l-1.722,-1.685l0,1.23l1.722,1.718l0,-1.263" style="fill:rgb(45,45,45);fill-rule:nonzero;"/>
    <path id="polygon26" d="M51.218,368.781l1.722,1.718l-0.376,3.004l-1.347,2.643l0.001,-7.365Z" style="fill:rgb(53,53,53);fill-rule:nonzero;"/>
    <path id="polygon28" d="M51.217,376.146l1.347,-2.643l-1.346,-0.635l-0.001,3.278Z" style="fill:rgb(25,25,25);fill-rule:nonzero;"/>
    <path id="polygon30" d="M52.94,370.499l0,-1.263l1.249,-1.58l1.478,-1.19l0.001,0.932l-0.775,1.823l-1.953,1.278Z" style="fill:white;fill-rule:nonzero;"/>
    <path id="polyline32" d="M48.652,363.338l2.566,4.215l-0.005,-4.87" style="fill:rgb(56,56,56);fill-rule:nonzero;"/>
    <path id="polyline34" d="M53.785,363.338l-2.566,4.215l0.006,-4.869" style="fill:rgb(45,45,45);fill-rule:nonzero;"/>
    <path id="polygon36" d="M48.811,371.111l0.688,-0.611l0.375,3.006l-1.063,-2.395Z" style="fill:rgb(51,51,51);fill-rule:nonzero;"/>
    <path id="polygon38" d="M53.631,371.125l-0.688,-0.61l-0.375,3.006l1.063,-2.396Z" style="fill:rgb(28,28,28);fill-rule:nonzero;"/>
    <path id="path20338" d="M36.332,352.232l3.113,0c0,0.321 -0.012,0.613 -0.04,0.873c-0.028,0.26 -0.08,0.504 -0.16,0.728c-0.112,0.316 -0.264,0.592 -0.456,0.836c-0.192,0.245 -0.416,0.445 -0.676,0.609c-0.261,0.164 -0.545,0.288 -0.853,0.372c-0.308,0.084 -0.636,0.128 -0.976,0.128c-0.468,0 -0.897,-0.076 -1.285,-0.232c-0.388,-0.156 -0.72,-0.372 -0.996,-0.652c-0.276,-0.281 -0.492,-0.617 -0.648,-1.009c-0.157,-0.392 -0.233,-0.824 -0.233,-1.3c0,-0.469 0.076,-0.901 0.229,-1.293c0.152,-0.392 0.368,-0.728 0.648,-1.004c0.28,-0.277 0.616,-0.493 1.012,-0.649c0.396,-0.156 0.837,-0.232 1.321,-0.232c0.628,0 1.18,0.136 1.656,0.408c0.477,0.273 0.853,0.693 1.129,1.265l-1.489,0.616c-0.14,-0.332 -0.32,-0.568 -0.54,-0.712c-0.22,-0.144 -0.472,-0.216 -0.756,-0.216c-0.236,0 -0.448,0.044 -0.64,0.132c-0.193,0.088 -0.357,0.212 -0.493,0.376c-0.136,0.164 -0.244,0.36 -0.32,0.588c-0.076,0.228 -0.116,0.484 -0.116,0.769c0,0.256 0.032,0.492 0.1,0.712c0.068,0.22 0.168,0.408 0.3,0.568c0.132,0.16 0.3,0.284 0.497,0.372c0.196,0.088 0.428,0.132 0.688,0.132c0.156,0 0.304,-0.016 0.448,-0.052c0.144,-0.036 0.272,-0.092 0.388,-0.168c0.116,-0.076 0.208,-0.176 0.284,-0.3c0.076,-0.124 0.124,-0.272 0.152,-0.448l-1.288,0l0,-1.217Z" style="fill:white;fill-rule:nonzero;"/>
    <path id="path20340" d="M43.495,353.369l-0.705,-2.009l-0.704,2.009l1.409,0Zm0.416,1.192l-2.241,0l-0.36,1.049l-1.673,0l2.297,-6.035l1.713,0l2.297,6.035l-1.673,0l-0.36,-1.049Z" style="fill:white;fill-rule:nonzero;"/>
    <path id="path20342" d="M48.657,350.904l0,4.706l-1.569,0l0,-4.706l-1.288,0l0,-1.329l4.145,0l0,1.329l-1.288,0Z" style="fill:white;fill-rule:nonzero;"/>
    <path id="path20344" d="M54.075,350.904l-1.865,0l0,1.008l1.761,0l0,1.329l-1.761,0l0,1.04l1.865,0l0,1.329l-3.433,0l0,-6.035l3.433,0l0,1.329Z" style="fill:white;fill-rule:nonzero;"/>
    <rect id="rect20353" x="72.826" y="301.689" width="1.569" height="6.035" style="fill:white;"/>
    <path id="path20355" d="M75.659,307.724l0,-6.035l1.569,0l2.897,3.69l0,-3.69l1.56,0l0,6.035l-1.56,0l-2.897,-3.69l0,3.69l-1.569,0Z" style="fill:white;fill-rule:nonzero;"/>
    <path id="path20360" d="M86.558,263.862l1.636,4.134l1.649,-4.134l1.917,0l-2.861,6.787l-1.405,0l-2.853,-6.787l1.917,0Z" style="fill:rgb(102,102,102);fill-rule:nonzero;"/>
    <path id="path20362" d="M97.034,266.131c-0.408,-0.496 -0.912,-0.748 -1.513,-0.748c-0.264,0 -0.508,0.048 -0.732,0.144c-0.224,0.096 -0.42,0.228 -0.58,0.392c-0.164,0.164 -0.292,0.36 -0.384,0.588c-0.092,0.228 -0.14,0.476 -0.14,0.74c0,0.268 0.048,0.521 0.14,0.749c0.092,0.228 0.224,0.424 0.388,0.592c0.164,0.168 0.356,0.3 0.58,0.396c0.22,0.096 0.46,0.144 0.72,0.144c0.565,0 1.073,-0.24 1.521,-0.72l0,2.089l-0.18,0.064c-0.268,0.092 -0.52,0.164 -0.756,0.208c-0.233,0.048 -0.465,0.068 -0.693,0.068c-0.468,0 -0.916,-0.088 -1.344,-0.264c-0.432,-0.176 -0.809,-0.428 -1.137,-0.749c-0.324,-0.32 -0.588,-0.7 -0.788,-1.14c-0.196,-0.444 -0.296,-0.924 -0.296,-1.445c0,-0.524 0.1,-1 0.292,-1.436c0.196,-0.436 0.456,-0.813 0.784,-1.125c0.328,-0.316 0.709,-0.56 1.141,-0.74c0.428,-0.176 0.884,-0.264 1.356,-0.264c0.272,0 0.536,0.028 0.797,0.084c0.26,0.06 0.536,0.148 0.824,0.268l0,2.105Z" style="fill:rgb(102,102,102);fill-rule:nonzero;"/>
    <path id="path20364" d="M102,268.128l-0.788,-2.257l-0.793,2.257l1.581,0Zm0.468,1.34l-2.517,0l-0.408,1.181l-1.881,0l2.585,-6.787l1.925,0l2.585,6.787l-1.881,0l-0.408,-1.181Z" style="fill:rgb(102,102,102);fill-rule:nonzero;"/>
    <path id="path20368" d="M106.442,303.929c0,0.24 0.044,0.464 0.136,0.664c0.088,0.204 0.212,0.38 0.368,0.528c0.152,0.152 0.332,0.264 0.54,0.348c0.204,0.084 0.42,0.124 0.652,0.124c0.228,0 0.445,-0.04 0.653,-0.124c0.204,-0.084 0.384,-0.196 0.54,-0.348c0.16,-0.148 0.284,-0.324 0.372,-0.528c0.092,-0.2 0.136,-0.424 0.136,-0.664c0,-0.241 -0.044,-0.461 -0.136,-0.665c-0.088,-0.2 -0.212,-0.376 -0.372,-0.528c-0.156,-0.148 -0.336,-0.264 -0.54,-0.348c-0.208,-0.08 -0.425,-0.124 -0.653,-0.124c-0.232,0 -0.448,0.044 -0.652,0.124c-0.208,0.084 -0.388,0.2 -0.54,0.348c-0.156,0.152 -0.28,0.328 -0.368,0.528c-0.092,0.204 -0.136,0.424 -0.136,0.665Zm-1.641,0c0,-0.449 0.084,-0.865 0.248,-1.253c0.164,-0.384 0.396,-0.72 0.688,-1.008c0.292,-0.289 0.645,-0.517 1.053,-0.677c0.408,-0.164 0.856,-0.244 1.348,-0.244c0.485,0 0.933,0.08 1.341,0.244c0.412,0.16 0.764,0.388 1.06,0.677c0.296,0.288 0.529,0.624 0.693,1.008c0.168,0.388 0.248,0.804 0.248,1.253c0,0.448 -0.08,0.868 -0.248,1.252c-0.164,0.388 -0.397,0.724 -0.693,1.012c-0.296,0.289 -0.648,0.513 -1.06,0.677c-0.408,0.164 -0.856,0.244 -1.341,0.244c-0.492,0 -0.94,-0.08 -1.348,-0.244c-0.408,-0.164 -0.761,-0.388 -1.053,-0.677c-0.292,-0.288 -0.524,-0.624 -0.688,-1.012c-0.164,-0.384 -0.248,-0.804 -0.248,-1.252Z" style="fill:white;fill-rule:nonzero;"/>
    <path id="path20370" d="M114.041,300.915l0,3.278c0,0.176 0.008,0.356 0.02,0.54c0.012,0.184 0.052,0.352 0.12,0.5c0.068,0.148 0.172,0.272 0.316,0.364c0.144,0.092 0.348,0.14 0.608,0.14c0.26,0 0.464,-0.048 0.604,-0.14c0.141,-0.092 0.245,-0.216 0.317,-0.364c0.068,-0.148 0.108,-0.316 0.124,-0.5c0.012,-0.184 0.02,-0.364 0.02,-0.54l0,-3.278l1.56,0l0,3.494c0,0.94 -0.216,1.624 -0.644,2.057c-0.432,0.432 -1.092,0.648 -1.981,0.648c-0.892,0 -1.552,-0.216 -1.985,-0.648c-0.432,-0.433 -0.648,-1.117 -0.648,-2.057l0,-3.494l1.569,0Z" style="fill:white;fill-rule:nonzero;"/>
    <path id="path20372" d="M121.28,302.24l0,4.706l-1.569,0l0,-4.706l-1.284,0l0,-1.325l4.141,0l0,1.325l-1.288,0Z" style="fill:white;fill-rule:nonzero;"/>
    <path id="path20377" d="M129.522,323.456c0,-2.527 -2.052,-4.578 -4.577,-4.578l-21.361,0c-2.526,0 -4.578,2.051 -4.578,4.578l0,31.431c0,2.526 2.052,4.577 4.578,4.577l21.361,0c2.525,0 4.577,-2.051 4.577,-4.577l0,-31.431Z" style="fill:rgb(8,9,10);stroke:rgb(65,76,85);stroke-width:1.12px;stroke-linecap:butt;"/>
    <path id="path20381" d="M107.235,352.593c0,0.24 0.044,0.464 0.136,0.664c0.088,0.204 0.212,0.38 0.368,0.528c0.152,0.152 0.332,0.264 0.54,0.348c0.204,0.084 0.42,0.124 0.653,0.124c0.228,0 0.444,-0.04 0.652,-0.124c0.204,-0.084 0.384,-0.196 0.54,-0.348c0.16,-0.148 0.284,-0.324 0.372,-0.528c0.092,-0.2 0.136,-0.424 0.136,-0.664c0,-0.241 -0.044,-0.461 -0.136,-0.665c-0.088,-0.2 -0.212,-0.376 -0.372,-0.528c-0.156,-0.148 -0.336,-0.264 -0.54,-0.348c-0.208,-0.08 -0.424,-0.124 -0.652,-0.124c-0.233,0 -0.449,0.044 -0.653,0.124c-0.208,0.084 -0.388,0.2 -0.54,0.348c-0.156,0.152 -0.28,0.328 -0.368,0.528c-0.092,0.204 -0.136,0.424 -0.136,0.665Zm-1.641,0c0,-0.449 0.084,-0.865 0.248,-1.253c0.164,-0.384 0.396,-0.72 0.689,-1.008c0.292,-0.289 0.644,-0.517 1.052,-0.677c0.408,-0.164 0.856,-0.244 1.349,-0.244c0.484,0 0.932,0.08 1.34,0.244c0.412,0.16 0.764,0.388 1.061,0.677c0.296,0.288 0.528,0.624 0.692,1.008c0.168,0.388 0.248,0.804 0.248,1.253c0,0.448 -0.08,0.868 -0.248,1.252c-0.164,0.388 -0.396,0.724 -0.692,1.012c-0.297,0.289 -0.649,0.513 -1.061,0.677c-0.408,0.164 -0.856,0.244 -1.34,0.244c-0.493,0 -0.941,-0.08 -1.349,-0.244c-0.408,-0.164 -0.76,-0.388 -1.052,-0.677c-0.293,-0.288 -0.525,-0.624 -0.689,-1.012c-0.164,-0.384 -0.248,-0.804 -0.248,-1.252Z" style="fill:white;fill-rule:nonzero;"/>
    <path id="path20383" d="M114.834,349.579l0,3.278c0,0.176 0.008,0.356 0.02,0.54c0.012,0.184 0.052,0.352 0.12,0.5c0.068,0.148 0.172,0.272 0.316,0.364c0.144,0.092 0.348,0.14 0.608,0.14c0.261,0 0.465,-0.048 0.605,-0.14c0.14,-0.092 0.244,-0.216 0.316,-0.364c0.068,-0.148 0.108,-0.316 0.124,-0.5c0.012,-0.184 0.02,-0.364 0.02,-0.54l0,-3.278l1.561,0l0,3.494c0,0.94 -0.217,1.624 -0.645,2.057c-0.432,0.432 -1.092,0.648 -1.981,0.648c-0.892,0 -1.552,-0.216 -1.984,-0.648c-0.433,-0.433 -0.649,-1.117 -0.649,-2.057l0,-3.494l1.569,0Z" style="fill:white;fill-rule:nonzero;"/>
    <path id="path20385" d="M122.073,350.904l0,4.706l-1.569,0l0,-4.706l-1.284,0l0,-1.325l4.142,0l0,1.325l-1.289,0Z" style="fill:white;fill-rule:nonzero;"/>
    <path id="path20394" d="M35.281,282.957l1.701,0l0,-1.749l1.176,0l0,4.526l-1.176,0l0,-1.865l-1.701,0l0,1.865l-1.176,0l0,-4.526l1.176,0l0,1.749Z" style="fill:white;fill-rule:nonzero;"/>
    <path id="path20396" d="M41.564,284.053l-0.528,-1.505l-0.529,1.505l1.057,0Zm0.312,0.896l-1.681,0l-0.268,0.785l-1.256,0l1.724,-4.526l1.285,0l1.721,4.526l-1.253,0l-0.272,-0.785Z" style="fill:white;fill-rule:nonzero;"/>
    <path id="path20398" d="M45.093,283.233l0.22,0c0.232,0 0.413,-0.048 0.537,-0.144c0.124,-0.096 0.184,-0.236 0.184,-0.416c0,-0.181 -0.06,-0.317 -0.184,-0.413c-0.124,-0.096 -0.305,-0.144 -0.537,-0.144l-0.22,0l0,1.117Zm2.585,2.501l-1.464,0l-1.121,-1.741l0,1.741l-1.176,0l0,-4.526l1.829,0c0.252,0 0.472,0.04 0.66,0.112c0.188,0.076 0.344,0.176 0.464,0.304c0.124,0.128 0.216,0.276 0.276,0.444c0.064,0.168 0.096,0.348 0.096,0.541c0,0.344 -0.084,0.624 -0.252,0.836c-0.164,0.212 -0.408,0.36 -0.732,0.436l1.42,1.853Z" style="fill:white;fill-rule:nonzero;"/>
    <path id="path20400" d="M49.347,284.737l0.268,0c0.204,0 0.388,-0.032 0.548,-0.096c0.16,-0.064 0.296,-0.152 0.405,-0.264c0.108,-0.112 0.192,-0.244 0.252,-0.4c0.056,-0.152 0.088,-0.32 0.088,-0.504c0,-0.18 -0.032,-0.348 -0.092,-0.504c-0.06,-0.156 -0.144,-0.292 -0.256,-0.404c-0.109,-0.113 -0.245,-0.201 -0.405,-0.265c-0.16,-0.064 -0.34,-0.096 -0.54,-0.096l-0.268,0l0,2.533Zm-1.176,-3.529l1.74,0c0.308,0 0.596,0.064 0.865,0.188c0.272,0.124 0.508,0.288 0.708,0.496c0.204,0.204 0.364,0.444 0.48,0.721c0.116,0.272 0.172,0.56 0.172,0.86c0,0.296 -0.056,0.58 -0.172,0.852c-0.112,0.276 -0.272,0.516 -0.472,0.725c-0.204,0.208 -0.44,0.376 -0.708,0.5c-0.272,0.124 -0.561,0.184 -0.873,0.184l-1.74,0l0,-4.526Z" style="fill:white;fill-rule:nonzero;"/>
    <path id="path20404" d="M35.111,292.72l0,3.529l1.413,0l0,0.997l-2.589,0l0,-4.526l1.176,0Z" style="fill:white;fill-rule:nonzero;"/>
    <path id="path20406" d="M38.064,294.985c0,0.18 0.036,0.344 0.104,0.496c0.068,0.152 0.157,0.284 0.273,0.396c0.116,0.112 0.252,0.2 0.408,0.26c0.152,0.064 0.316,0.096 0.488,0.096c0.172,0 0.336,-0.032 0.488,-0.096c0.156,-0.06 0.292,-0.148 0.408,-0.26c0.12,-0.112 0.212,-0.244 0.28,-0.396c0.068,-0.152 0.1,-0.316 0.1,-0.496c0,-0.18 -0.032,-0.348 -0.1,-0.5c-0.068,-0.152 -0.16,-0.284 -0.28,-0.397c-0.116,-0.112 -0.252,-0.196 -0.408,-0.26c-0.152,-0.06 -0.316,-0.092 -0.488,-0.092c-0.172,0 -0.336,0.032 -0.488,0.092c-0.156,0.064 -0.292,0.148 -0.408,0.26c-0.116,0.113 -0.205,0.245 -0.273,0.397c-0.068,0.152 -0.104,0.32 -0.104,0.5Zm-1.228,0c0,-0.336 0.06,-0.648 0.184,-0.941c0.124,-0.288 0.296,-0.544 0.516,-0.76c0.22,-0.216 0.484,-0.384 0.789,-0.504c0.308,-0.124 0.644,-0.184 1.012,-0.184c0.364,0 0.7,0.06 1.008,0.184c0.308,0.12 0.573,0.288 0.793,0.504c0.224,0.216 0.396,0.472 0.52,0.76c0.124,0.293 0.188,0.605 0.188,0.941c0,0.336 -0.064,0.648 -0.188,0.936c-0.124,0.292 -0.296,0.544 -0.52,0.761c-0.22,0.216 -0.485,0.384 -0.793,0.508c-0.308,0.12 -0.644,0.18 -1.008,0.18c-0.368,0 -0.704,-0.06 -1.012,-0.18c-0.305,-0.124 -0.569,-0.292 -0.789,-0.508c-0.22,-0.217 -0.392,-0.469 -0.516,-0.761c-0.124,-0.288 -0.184,-0.6 -0.184,-0.936Z" style="fill:white;fill-rule:nonzero;"/>
    <path id="path20408" d="M43.615,294.985c0,0.18 0.032,0.344 0.1,0.496c0.068,0.152 0.16,0.284 0.276,0.396c0.116,0.112 0.252,0.2 0.408,0.26c0.152,0.064 0.316,0.096 0.488,0.096c0.172,0 0.336,-0.032 0.488,-0.096c0.153,-0.06 0.289,-0.148 0.409,-0.26c0.116,-0.112 0.212,-0.244 0.28,-0.396c0.068,-0.152 0.1,-0.316 0.1,-0.496c0,-0.18 -0.032,-0.348 -0.1,-0.5c-0.068,-0.152 -0.164,-0.284 -0.28,-0.397c-0.12,-0.112 -0.256,-0.196 -0.409,-0.26c-0.152,-0.06 -0.316,-0.092 -0.488,-0.092c-0.172,0 -0.336,0.032 -0.488,0.092c-0.156,0.064 -0.292,0.148 -0.408,0.26c-0.116,0.113 -0.208,0.245 -0.276,0.397c-0.068,0.152 -0.1,0.32 -0.1,0.5Zm-1.229,0c0,-0.336 0.06,-0.648 0.184,-0.941c0.124,-0.288 0.296,-0.544 0.516,-0.76c0.221,-0.216 0.485,-0.384 0.789,-0.504c0.308,-0.124 0.644,-0.184 1.012,-0.184c0.364,0 0.701,0.06 1.009,0.184c0.308,0.12 0.572,0.288 0.792,0.504c0.224,0.216 0.396,0.472 0.52,0.76c0.124,0.293 0.188,0.605 0.188,0.941c0,0.336 -0.064,0.648 -0.188,0.936c-0.124,0.292 -0.296,0.544 -0.52,0.761c-0.22,0.216 -0.484,0.384 -0.792,0.508c-0.308,0.12 -0.645,0.18 -1.009,0.18c-0.368,0 -0.704,-0.06 -1.012,-0.18c-0.304,-0.124 -0.568,-0.292 -0.789,-0.508c-0.22,-0.217 -0.392,-0.469 -0.516,-0.761c-0.124,-0.288 -0.184,-0.6 -0.184,-0.936Z" style="fill:white;fill-rule:nonzero;"/>
    <path id="path20410" d="M49.313,294.797l0.392,0c0.432,0 0.649,-0.188 0.649,-0.564c0,-0.377 -0.217,-0.565 -0.649,-0.565l-0.392,0l0,1.129Zm0,2.449l-1.176,0l0,-4.526l1.872,0c0.509,0 0.897,0.132 1.169,0.396c0.268,0.264 0.404,0.636 0.404,1.117c0,0.48 -0.136,0.852 -0.404,1.116c-0.272,0.264 -0.66,0.396 -1.169,0.396l-0.696,0l0,1.501Z" style="fill:white;fill-rule:nonzero;"/>
    <path id="path20414" d="M36.59,270.857c-0.128,-0.104 -0.256,-0.18 -0.384,-0.232c-0.128,-0.048 -0.253,-0.076 -0.373,-0.076c-0.152,0 -0.276,0.036 -0.372,0.108c-0.096,0.072 -0.144,0.168 -0.144,0.284c0,0.08 0.024,0.145 0.072,0.197c0.048,0.052 0.112,0.1 0.192,0.136c0.076,0.04 0.164,0.072 0.264,0.1c0.096,0.028 0.192,0.056 0.289,0.088c0.384,0.128 0.664,0.3 0.844,0.512c0.176,0.216 0.268,0.496 0.268,0.84c0,0.232 -0.04,0.44 -0.12,0.628c-0.076,0.189 -0.192,0.349 -0.34,0.485c-0.152,0.132 -0.336,0.236 -0.552,0.312c-0.217,0.072 -0.465,0.108 -0.741,0.108c-0.572,0 -1.104,-0.168 -1.592,-0.508l0.504,-0.949c0.176,0.156 0.352,0.272 0.524,0.348c0.172,0.076 0.34,0.116 0.508,0.116c0.192,0 0.336,-0.044 0.432,-0.132c0.092,-0.088 0.14,-0.188 0.14,-0.3c0,-0.068 -0.012,-0.128 -0.036,-0.18c-0.024,-0.048 -0.064,-0.096 -0.12,-0.136c-0.056,-0.044 -0.128,-0.08 -0.22,-0.116c-0.088,-0.036 -0.2,-0.076 -0.328,-0.12c-0.152,-0.048 -0.3,-0.104 -0.444,-0.16c-0.148,-0.06 -0.276,-0.136 -0.392,-0.232c-0.112,-0.096 -0.204,-0.216 -0.276,-0.36c-0.068,-0.148 -0.104,-0.332 -0.104,-0.557c0,-0.224 0.036,-0.428 0.112,-0.608c0.072,-0.184 0.176,-0.34 0.312,-0.468c0.132,-0.132 0.296,-0.232 0.492,-0.304c0.192,-0.072 0.408,-0.108 0.648,-0.108c0.224,0 0.461,0.032 0.705,0.092c0.244,0.064 0.476,0.152 0.7,0.272l-0.468,0.92Z" style="fill:white;fill-rule:nonzero;"/>
    <path id="path20416" d="M39.007,271.962c0,0.18 0.036,0.344 0.104,0.496c0.068,0.152 0.16,0.284 0.276,0.396c0.116,0.112 0.252,0.2 0.404,0.26c0.156,0.064 0.316,0.096 0.488,0.096c0.172,0 0.336,-0.032 0.492,-0.096c0.153,-0.06 0.289,-0.148 0.405,-0.26c0.12,-0.112 0.212,-0.244 0.28,-0.396c0.068,-0.152 0.104,-0.316 0.104,-0.496c0,-0.18 -0.036,-0.348 -0.104,-0.5c-0.068,-0.152 -0.16,-0.284 -0.28,-0.397c-0.116,-0.112 -0.252,-0.196 -0.405,-0.26c-0.156,-0.06 -0.32,-0.092 -0.492,-0.092c-0.172,0 -0.332,0.032 -0.488,0.092c-0.152,0.064 -0.288,0.148 -0.404,0.26c-0.116,0.113 -0.208,0.245 -0.276,0.397c-0.068,0.152 -0.104,0.32 -0.104,0.5Zm-1.229,0c0,-0.336 0.064,-0.648 0.188,-0.941c0.124,-0.288 0.296,-0.544 0.513,-0.76c0.22,-0.216 0.484,-0.384 0.792,-0.504c0.304,-0.124 0.64,-0.184 1.008,-0.184c0.364,0 0.701,0.06 1.009,0.184c0.308,0.12 0.572,0.288 0.796,0.504c0.22,0.216 0.396,0.472 0.52,0.76c0.124,0.293 0.184,0.605 0.184,0.941c0,0.336 -0.06,0.648 -0.184,0.936c-0.124,0.292 -0.3,0.544 -0.52,0.761c-0.224,0.216 -0.488,0.384 -0.796,0.508c-0.308,0.12 -0.645,0.18 -1.009,0.18c-0.368,0 -0.704,-0.06 -1.008,-0.18c-0.308,-0.124 -0.572,-0.292 -0.792,-0.508c-0.217,-0.217 -0.389,-0.469 -0.513,-0.761c-0.124,-0.288 -0.188,-0.6 -0.188,-0.936Z" style="fill:white;fill-rule:nonzero;"/>
    <path id="path20418" d="M46.126,270.693l-1.417,0l0,0.757l1.289,0l0,0.996l-1.289,0l0,1.777l-1.176,0l0,-4.526l2.593,0l0,0.996Z" style="fill:white;fill-rule:nonzero;"/>
    <path id="path20420" d="M48.543,270.693l0,3.53l-1.177,0l0,-3.53l-0.964,0l0,-0.996l3.105,0l0,0.996l-0.964,0Z" style="fill:white;fill-rule:nonzero;"/>
  </g>
</svg>