<svg width="150px" height="380px" version="1.1" xmlns="http://www.w3.org/2000/svg" xmlns:xlink="http://www.w3.org/1999/xlink" xml:space="preserve" xmlns:serif="http://www.serif.com/" style="fill-rule:evenodd;clip-rule:evenodd;">
  <defs>
    <linearGradient id="_Linear1" x1="0" y1="0" x2="1" y2="0" gradientUnits="userSpaceOnUse" gradientTransform="matrix(150,-379.998,379.998,150,0.000328145,379.998)">
      <stop offset="0" style="stop-color:rgb(9,13,17);stop-opacity:1"/>
      <stop offset="1" style="stop-color:rgb(24,35,46);stop-opacity:1"/>
    </linearGradient>
  </defs>
  <g id="Panel">
    <rect id="rect23233" x="0" y="0" width="150" height="379.998" style="fill:url(#_Linear1);"/>
    <path id="path23236" d="M136.359,277.779c0,-2.887 -2.343,-5.231 -5.231,-5.231l-27.453,0c-2.887,0 -5.231,2.344 -5.231,5.231l0,28.923c0,2.886 2.344,5.23 5.231,5.23l27.453,0c2.888,0 5.231,-2.344 5.231,-5.23l0,-28.923Z" style="stroke:rgb(65,76,85);stroke-width:1px;"/>
    <path id="path23240" d="M126.904,77.593c2.737,-4.742 1.664,-10.824 -2.534,-14.346c-4.193,-3.521 -10.372,-3.521 -14.566,0c-4.197,3.522 -5.27,9.604 -2.533,14.346l9.816,-5.666l9.817,5.666Z" style="fill:none;stroke:rgb(204,204,204);stroke-width:1px;stroke-linecap:round;"/>
    <path id="path23243" d="M126.531,78.79l0.024,4.409" style="fill:rgb(204,204,204);fill-rule:nonzero;stroke:rgb(204,204,204);stroke-width:1px;stroke-linecap:round;"/>
    <path id="path23246" d="M128.748,80.963l-4.41,0.02" style="fill:rgb(204,204,204);fill-rule:nonzero;stroke:rgb(204,204,204);stroke-width:1px;stroke-linecap:round;"/>
    <path id="path23249" d="M110.429,80.839l-4.414,0.02" style="fill:rgb(204,204,204);fill-rule:nonzero;stroke:rgb(204,204,204);stroke-width:1px;stroke-linecap:round;"/>
    <path id="path23252" d="M117.087,71.931l-0.024,-13.31" style="fill:none;stroke:rgb(204,204,204);stroke-width:1px;stroke-linecap:round;"/>
    <path id="path23255" d="M44.683,123.163c-0.364,-0.444 -0.812,-0.664 -1.345,-0.664c-0.236,0 -0.452,0.044 -0.652,0.128c-0.2,0.084 -0.372,0.2 -0.516,0.348c-0.144,0.148 -0.256,0.32 -0.34,0.524c-0.084,0.204 -0.124,0.42 -0.124,0.657c0,0.24 0.04,0.46 0.124,0.664c0.084,0.204 0.196,0.38 0.344,0.528c0.148,0.148 0.32,0.268 0.516,0.352c0.196,0.084 0.412,0.128 0.64,0.128c0.501,0 0.953,-0.212 1.353,-0.64l0,1.857l-0.16,0.056c-0.24,0.084 -0.464,0.148 -0.672,0.188c-0.209,0.04 -0.413,0.06 -0.617,0.06c-0.416,0 -0.816,-0.08 -1.196,-0.236c-0.38,-0.156 -0.717,-0.38 -1.009,-0.665c-0.292,-0.284 -0.524,-0.624 -0.7,-1.016c-0.176,-0.392 -0.264,-0.82 -0.264,-1.284c0,-0.465 0.088,-0.889 0.26,-1.277c0.172,-0.388 0.404,-0.72 0.696,-1c0.292,-0.281 0.629,-0.501 1.013,-0.657c0.384,-0.156 0.788,-0.236 1.208,-0.236c0.24,0 0.476,0.024 0.709,0.076c0.232,0.052 0.476,0.128 0.732,0.236l0,1.873Z" style="fill:white;fill-rule:nonzero;"/>
    <path id="path23257" d="M47.244,121.146l0,3.282c0,0.176 0.008,0.356 0.02,0.54c0.012,0.184 0.052,0.352 0.12,0.5c0.068,0.148 0.172,0.272 0.316,0.364c0.144,0.092 0.348,0.14 0.608,0.14c0.26,0 0.465,-0.048 0.605,-0.14c0.14,-0.092 0.248,-0.216 0.316,-0.364c0.068,-0.148 0.112,-0.316 0.124,-0.5c0.012,-0.184 0.02,-0.364 0.02,-0.54l0,-3.282l1.56,0l0,3.498c0,0.94 -0.216,1.624 -0.644,2.057c-0.428,0.432 -1.088,0.648 -1.981,0.648c-0.892,0 -1.552,-0.216 -1.984,-0.648c-0.433,-0.433 -0.649,-1.117 -0.649,-2.057l0,-3.498l1.569,0Z" style="fill:white;fill-rule:nonzero;"/>
    <path id="path23259" d="M54.487,122.475l0,4.706l-1.569,0l0,-4.706l-1.288,0l0,-1.329l4.145,0l0,1.329l-1.288,0Z" style="fill:white;fill-rule:nonzero;"/>
    <path id="path23261" d="M57.784,124.164c0,0.24 0.044,0.46 0.136,0.664c0.092,0.204 0.212,0.38 0.369,0.528c0.156,0.148 0.336,0.264 0.54,0.348c0.204,0.084 0.424,0.124 0.652,0.124c0.228,0 0.448,-0.04 0.652,-0.124c0.204,-0.084 0.388,-0.2 0.545,-0.348c0.156,-0.148 0.28,-0.324 0.372,-0.528c0.092,-0.204 0.136,-0.424 0.136,-0.664c0,-0.241 -0.044,-0.461 -0.136,-0.665c-0.092,-0.204 -0.216,-0.38 -0.372,-0.528c-0.157,-0.148 -0.341,-0.264 -0.545,-0.348c-0.204,-0.084 -0.424,-0.124 -0.652,-0.124c-0.228,0 -0.448,0.04 -0.652,0.124c-0.204,0.084 -0.384,0.2 -0.54,0.348c-0.157,0.148 -0.277,0.324 -0.369,0.528c-0.092,0.204 -0.136,0.424 -0.136,0.665Zm-1.64,0c0,-0.449 0.084,-0.865 0.248,-1.253c0.164,-0.388 0.396,-0.724 0.688,-1.012c0.292,-0.289 0.644,-0.513 1.052,-0.677c0.409,-0.164 0.857,-0.244 1.349,-0.244c0.484,0 0.932,0.08 1.345,0.244c0.412,0.164 0.764,0.388 1.06,0.677c0.296,0.288 0.528,0.624 0.692,1.012c0.164,0.388 0.248,0.804 0.248,1.253c0,0.448 -0.084,0.864 -0.248,1.252c-0.164,0.388 -0.396,0.724 -0.692,1.012c-0.296,0.289 -0.648,0.513 -1.06,0.677c-0.413,0.164 -0.861,0.244 -1.345,0.244c-0.492,0 -0.94,-0.08 -1.349,-0.244c-0.408,-0.164 -0.76,-0.388 -1.052,-0.677c-0.292,-0.288 -0.524,-0.624 -0.688,-1.012c-0.164,-0.388 -0.248,-0.804 -0.248,-1.252Z" style="fill:white;fill-rule:nonzero;"/>
    <path id="path23263" d="M67.276,122.475l-1.889,0l0,1.008l1.721,0l0,1.329l-1.721,0l0,2.369l-1.568,0l0,-6.035l3.457,0l0,1.329Z" style="fill:white;fill-rule:nonzero;"/>
    <path id="path23265" d="M71.67,122.475l-1.889,0l0,1.008l1.721,0l0,1.329l-1.721,0l0,2.369l-1.568,0l0,-6.035l3.457,0l0,1.329Z" style="fill:white;fill-rule:nonzero;"/>
    <path id="path23270" d="M126.904,77.593c2.737,-4.742 1.664,-10.824 -2.534,-14.346c-4.193,-3.521 -10.372,-3.521 -14.566,0c-4.197,3.522 -5.27,9.604 -2.533,14.346l9.816,-5.666l9.817,5.666Z" style="fill:none;stroke:rgb(204,204,204);stroke-width:1px;stroke-linecap:round;"/>
    <path id="path23273" d="M126.531,78.79l0.024,4.409" style="fill:rgb(204,204,204);fill-rule:nonzero;stroke:rgb(204,204,204);stroke-width:1px;stroke-linecap:round;"/>
    <path id="path23276" d="M128.748,80.963l-4.41,0.02" style="fill:rgb(204,204,204);fill-rule:nonzero;stroke:rgb(204,204,204);stroke-width:1px;stroke-linecap:round;"/>
    <path id="path23279" d="M110.429,80.839l-4.414,0.02" style="fill:rgb(204,204,204);fill-rule:nonzero;stroke:rgb(204,204,204);stroke-width:1px;stroke-linecap:round;"/>
    <path id="path23282" d="M117.087,71.931l-0.024,-13.31" style="fill:none;stroke:rgb(204,204,204);stroke-width:1px;stroke-linecap:round;"/>
    <path id="path23285" d="M84.739,103.173c8.221,-14.243 5.003,-32.509 -7.595,-43.081c-12.597,-10.566 -31.149,-10.566 -43.747,0c-12.597,10.572 -15.815,28.838 -7.594,43.081" style="fill:none;stroke:rgb(204,204,204);stroke-width:1.5px;stroke-linecap:round;"/>
    <circle id="circle23288" cx="26.173" cy="112.44" r="3.706" style="fill:none;stroke:rgb(204,204,204);stroke-width:1px;"/>
    <circle id="circle23291" cx="84.952" cy="111.928" r="3.706" style="fill:rgb(204,204,204);stroke:rgb(204,204,204);stroke-width:1px;"/>
    <path id="path23294" d="M126.904,155.662c2.737,-4.742 1.664,-10.824 -2.534,-14.346c-4.193,-3.521 -10.372,-3.521 -14.566,0c-4.197,3.522 -5.27,9.604 -2.533,14.346l9.816,-5.666l9.817,5.666Z" style="fill:none;stroke:rgb(204,204,204);stroke-width:1px;stroke-linecap:round;"/>
    <path id="path23297" d="M126.531,156.859l0.024,4.409" style="fill:rgb(204,204,204);fill-rule:nonzero;stroke:rgb(204,204,204);stroke-width:1px;stroke-linecap:round;"/>
    <path id="path23300" d="M128.748,159.032l-4.41,0.02" style="fill:rgb(204,204,204);fill-rule:nonzero;stroke:rgb(204,204,204);stroke-width:1px;stroke-linecap:round;"/>
    <path id="path23303" d="M110.429,158.908l-4.414,0.02" style="fill:rgb(204,204,204);fill-rule:nonzero;stroke:rgb(204,204,204);stroke-width:1px;stroke-linecap:round;"/>
    <path id="path23306" d="M117.087,150l-0.024,-13.31" style="fill:none;stroke:rgb(204,204,204);stroke-width:1px;stroke-linecap:round;"/>
    <path id="path23309" d="M30.66,191.739l0.296,0c0.308,0 0.548,-0.064 0.712,-0.192c0.164,-0.128 0.248,-0.312 0.248,-0.552c0,-0.24 -0.084,-0.424 -0.248,-0.552c-0.164,-0.128 -0.404,-0.192 -0.712,-0.192l-0.296,0l0,1.488Zm3.449,3.338l-1.953,0l-1.496,-2.321l0,2.321l-1.569,0l0,-6.035l2.441,0c0.336,0 0.628,0.048 0.881,0.148c0.252,0.1 0.456,0.232 0.62,0.405c0.164,0.172 0.284,0.368 0.368,0.592c0.084,0.224 0.124,0.464 0.124,0.72c0,0.46 -0.112,0.832 -0.332,1.117c-0.22,0.284 -0.548,0.48 -0.981,0.58l1.897,2.473Z" style="fill:white;fill-rule:nonzero;"/>
    <path id="path23311" d="M38.199,190.371l-1.865,0l0,1.008l1.761,0l0,1.329l-1.761,0l0,1.04l1.865,0l0,1.329l-3.433,0l0,-6.035l3.433,0l0,1.329Z" style="fill:white;fill-rule:nonzero;"/>
    <path id="path23313" d="M42.641,190.587c-0.172,-0.14 -0.34,-0.24 -0.512,-0.308c-0.173,-0.068 -0.337,-0.1 -0.497,-0.1c-0.204,0 -0.368,0.048 -0.496,0.144c-0.128,0.096 -0.192,0.22 -0.192,0.376c0,0.108 0.032,0.196 0.096,0.264c0.064,0.068 0.148,0.128 0.252,0.18c0.104,0.052 0.22,0.096 0.352,0.132c0.132,0.036 0.26,0.076 0.389,0.12c0.512,0.172 0.888,0.4 1.124,0.685c0.236,0.284 0.356,0.656 0.356,1.116c0,0.308 -0.052,0.588 -0.156,0.84c-0.104,0.252 -0.256,0.465 -0.456,0.645c-0.2,0.18 -0.444,0.316 -0.736,0.416c-0.293,0.1 -0.621,0.148 -0.989,0.148c-0.764,0 -1.468,-0.228 -2.121,-0.68l0.673,-1.265c0.236,0.208 0.468,0.364 0.696,0.464c0.228,0.1 0.456,0.152 0.68,0.152c0.256,0 0.448,-0.06 0.572,-0.176c0.124,-0.116 0.188,-0.252 0.188,-0.4c0,-0.092 -0.016,-0.168 -0.048,-0.236c-0.032,-0.068 -0.084,-0.128 -0.16,-0.184c-0.076,-0.056 -0.172,-0.108 -0.292,-0.156c-0.12,-0.048 -0.264,-0.1 -0.436,-0.16c-0.204,-0.064 -0.4,-0.136 -0.596,-0.212c-0.196,-0.076 -0.368,-0.18 -0.52,-0.308c-0.152,-0.128 -0.277,-0.289 -0.369,-0.485c-0.092,-0.196 -0.14,-0.44 -0.14,-0.74c0,-0.3 0.048,-0.568 0.148,-0.812c0.101,-0.244 0.237,-0.452 0.417,-0.625c0.18,-0.172 0.396,-0.308 0.656,-0.404c0.26,-0.096 0.548,-0.144 0.868,-0.144c0.3,0 0.613,0.04 0.937,0.124c0.324,0.084 0.636,0.204 0.936,0.364l-0.624,1.225Z" style="fill:white;fill-rule:nonzero;"/>
    <path id="path23315" d="M45.866,192.06c0,0.24 0.044,0.46 0.136,0.664c0.092,0.204 0.212,0.38 0.368,0.528c0.156,0.148 0.336,0.264 0.541,0.348c0.204,0.084 0.424,0.124 0.652,0.124c0.228,0 0.448,-0.04 0.652,-0.124c0.204,-0.084 0.388,-0.2 0.544,-0.348c0.156,-0.148 0.28,-0.324 0.372,-0.528c0.093,-0.204 0.137,-0.424 0.137,-0.664c0,-0.241 -0.044,-0.461 -0.137,-0.665c-0.092,-0.204 -0.216,-0.38 -0.372,-0.528c-0.156,-0.148 -0.34,-0.264 -0.544,-0.348c-0.204,-0.084 -0.424,-0.124 -0.652,-0.124c-0.228,0 -0.448,0.04 -0.652,0.124c-0.205,0.084 -0.385,0.2 -0.541,0.348c-0.156,0.148 -0.276,0.324 -0.368,0.528c-0.092,0.204 -0.136,0.424 -0.136,0.665Zm-1.641,0c0,-0.449 0.084,-0.865 0.249,-1.253c0.164,-0.388 0.396,-0.724 0.688,-1.012c0.292,-0.289 0.644,-0.513 1.052,-0.677c0.408,-0.164 0.857,-0.244 1.349,-0.244c0.484,0 0.932,0.08 1.344,0.244c0.413,0.164 0.765,0.388 1.061,0.677c0.296,0.288 0.528,0.624 0.692,1.012c0.164,0.388 0.248,0.804 0.248,1.253c0,0.448 -0.084,0.864 -0.248,1.252c-0.164,0.388 -0.396,0.724 -0.692,1.012c-0.296,0.289 -0.648,0.513 -1.061,0.677c-0.412,0.164 -0.86,0.244 -1.344,0.244c-0.492,0 -0.941,-0.08 -1.349,-0.244c-0.408,-0.164 -0.76,-0.388 -1.052,-0.677c-0.292,-0.288 -0.524,-0.624 -0.688,-1.012c-0.165,-0.388 -0.249,-0.804 -0.249,-1.252Z" style="fill:white;fill-rule:nonzero;"/>
    <path id="path23317" d="M51.901,195.077l0,-6.035l1.568,0l2.897,3.69l0,-3.69l1.561,0l0,6.035l-1.561,0l-2.897,-3.69l0,3.69l-1.568,0Z" style="fill:white;fill-rule:nonzero;"/>
    <path id="path23319" d="M62.489,192.836l-0.704,-2.009l-0.705,2.009l1.409,0Zm0.416,1.192l-2.241,0l-0.36,1.049l-1.673,0l2.297,-6.035l1.713,0l2.297,6.035l-1.673,0l-0.36,-1.049Z" style="fill:white;fill-rule:nonzero;"/>
    <path id="path23321" d="M65.626,195.077l0,-6.035l1.569,0l2.897,3.69l0,-3.69l1.561,0l0,6.035l-1.561,0l-2.897,-3.69l0,3.69l-1.569,0Z" style="fill:white;fill-rule:nonzero;"/>
    <path id="path23323" d="M77.343,191.059c-0.364,-0.444 -0.812,-0.664 -1.344,-0.664c-0.236,0 -0.453,0.044 -0.653,0.128c-0.2,0.084 -0.372,0.2 -0.516,0.348c-0.144,0.148 -0.256,0.32 -0.34,0.524c-0.084,0.204 -0.124,0.42 -0.124,0.657c0,0.24 0.04,0.46 0.124,0.664c0.084,0.204 0.196,0.38 0.344,0.528c0.148,0.148 0.32,0.268 0.516,0.352c0.196,0.084 0.413,0.128 0.641,0.128c0.5,0 0.952,-0.212 1.352,-0.64l0,1.857l-0.16,0.056c-0.24,0.084 -0.464,0.148 -0.672,0.188c-0.208,0.04 -0.412,0.06 -0.616,0.06c-0.417,0 -0.817,-0.08 -1.197,-0.236c-0.38,-0.156 -0.716,-0.38 -1.008,-0.665c-0.292,-0.284 -0.525,-0.624 -0.701,-1.016c-0.176,-0.392 -0.264,-0.82 -0.264,-1.284c0,-0.465 0.088,-0.889 0.26,-1.277c0.172,-0.388 0.405,-0.72 0.697,-1c0.292,-0.281 0.628,-0.501 1.012,-0.657c0.384,-0.156 0.788,-0.236 1.209,-0.236c0.24,0 0.476,0.024 0.708,0.076c0.232,0.052 0.476,0.128 0.732,0.236l0,1.873Z" style="fill:white;fill-rule:nonzero;"/>
    <path id="path23325" d="M81.769,190.371l-1.865,0l0,1.008l1.761,0l0,1.329l-1.761,0l0,1.04l1.865,0l0,1.329l-3.433,0l0,-6.035l3.433,0l0,1.329Z" style="fill:white;fill-rule:nonzero;"/>
    <path id="path23330" d="M126.904,155.662c2.737,-4.742 1.664,-10.824 -2.534,-14.346c-4.193,-3.521 -10.372,-3.521 -14.566,0c-4.197,3.522 -5.27,9.604 -2.533,14.346l9.816,-5.666l9.817,5.666Z" style="fill:none;stroke:rgb(204,204,204);stroke-width:1px;stroke-linecap:round;"/>
    <path id="path23333" d="M126.531,156.859l0.024,4.409" style="fill:rgb(204,204,204);fill-rule:nonzero;stroke:rgb(204,204,204);stroke-width:1px;stroke-linecap:round;"/>
    <path id="path23336" d="M128.748,159.032l-4.41,0.02" style="fill:rgb(204,204,204);fill-rule:nonzero;stroke:rgb(204,204,204);stroke-width:1px;stroke-linecap:round;"/>
    <path id="path23339" d="M110.429,158.908l-4.414,0.02" style="fill:rgb(204,204,204);fill-rule:nonzero;stroke:rgb(204,204,204);stroke-width:1px;stroke-linecap:round;"/>
    <path id="path23342" d="M117.087,150l-0.024,-13.31" style="fill:none;stroke:rgb(204,204,204);stroke-width:1px;stroke-linecap:round;"/>
    <path id="path23345" d="M75.383,173.241c5.878,-10.184 3.577,-23.245 -5.431,-30.804c-9.007,-7.556 -22.273,-7.556 -31.281,0c-9.007,7.559 -11.308,20.62 -5.43,30.804" style="fill:none;stroke:rgb(204,204,204);stroke-width:1.5px;stroke-linecap:round;"/>
    <circle id="circle23348" cx="36.173" cy="182.509" r="3.706" style="fill:none;stroke:rgb(204,204,204);stroke-width:1px;"/>
    <circle id="circle23351" cx="73.952" cy="181.997" r="3.706" style="fill:rgb(204,204,204);stroke:rgb(204,204,204);stroke-width:1px;"/>
    <path id="path23356" d="M75.383,242.241c5.878,-10.184 3.577,-23.245 -5.431,-30.804c-9.007,-7.556 -22.273,-7.556 -31.281,0c-9.007,7.559 -11.308,20.62 -5.43,30.804" style="fill:none;stroke:rgb(204,204,204);stroke-width:1.5px;stroke-linecap:round;"/>
    <circle id="circle23359" cx="36.173" cy="251.509" r="3.706" style="fill:none;stroke:rgb(204,204,204);stroke-width:1px;"/>
    <circle id="circle23362" cx="73.952" cy="250.997" r="3.706" style="fill:rgb(204,204,204);stroke:rgb(204,204,204);stroke-width:1px;"/>
    <path id="path23367" d="M101.642,305.631c0,0.24 0.044,0.46 0.136,0.664c0.092,0.204 0.212,0.38 0.368,0.528c0.156,0.148 0.336,0.264 0.54,0.348c0.204,0.084 0.424,0.124 0.652,0.124c0.228,0 0.449,-0.04 0.653,-0.124c0.204,-0.084 0.388,-0.2 0.544,-0.348c0.156,-0.148 0.28,-0.324 0.372,-0.528c0.092,-0.204 0.136,-0.424 0.136,-0.664c0,-0.241 -0.044,-0.461 -0.136,-0.665c-0.092,-0.204 -0.216,-0.38 -0.372,-0.528c-0.156,-0.148 -0.34,-0.264 -0.544,-0.348c-0.204,-0.084 -0.425,-0.124 -0.653,-0.124c-0.228,0 -0.448,0.04 -0.652,0.124c-0.204,0.084 -0.384,0.2 -0.54,0.348c-0.156,0.148 -0.276,0.324 -0.368,0.528c-0.092,0.204 -0.136,0.424 -0.136,0.665Zm-1.641,0c0,-0.449 0.084,-0.865 0.248,-1.253c0.164,-0.388 0.396,-0.724 0.688,-1.012c0.292,-0.289 0.645,-0.513 1.053,-0.677c0.408,-0.164 0.856,-0.244 1.348,-0.244c0.485,0 0.933,0.08 1.345,0.244c0.412,0.164 0.764,0.388 1.06,0.677c0.296,0.288 0.529,0.624 0.693,1.012c0.164,0.388 0.248,0.804 0.248,1.253c0,0.448 -0.084,0.864 -0.248,1.252c-0.164,0.388 -0.397,0.724 -0.693,1.012c-0.296,0.289 -0.648,0.513 -1.06,0.677c-0.412,0.164 -0.86,0.244 -1.345,0.244c-0.492,0 -0.94,-0.08 -1.348,-0.244c-0.408,-0.164 -0.761,-0.388 -1.053,-0.677c-0.292,-0.288 -0.524,-0.624 -0.688,-1.012c-0.164,-0.388 -0.248,-0.804 -0.248,-1.252Z" style="fill:white;fill-rule:nonzero;"/>
    <path id="path23369" d="M109.245,302.613l0,3.282c0,0.176 0.008,0.356 0.02,0.54c0.012,0.184 0.052,0.352 0.12,0.5c0.068,0.148 0.172,0.272 0.316,0.364c0.144,0.092 0.348,0.14 0.608,0.14c0.26,0 0.464,-0.048 0.604,-0.14c0.141,-0.092 0.249,-0.216 0.317,-0.364c0.068,-0.148 0.112,-0.316 0.124,-0.5c0.012,-0.184 0.02,-0.364 0.02,-0.54l0,-3.282l1.56,0l0,3.498c0,0.94 -0.216,1.624 -0.644,2.057c-0.428,0.432 -1.088,0.648 -1.981,0.648c-0.892,0 -1.552,-0.216 -1.985,-0.648c-0.432,-0.433 -0.648,-1.117 -0.648,-2.057l0,-3.498l1.569,0Z" style="fill:white;fill-rule:nonzero;"/>
    <path id="path23371" d="M116.488,303.942l0,4.706l-1.569,0l0,-4.706l-1.288,0l0,-1.329l4.145,0l0,1.329l-1.288,0Z" style="fill:white;fill-rule:nonzero;"/>
    <path id="path23373" d="M120.041,305.382l0.52,0c0.577,0 0.865,-0.252 0.865,-0.752c0,-0.5 -0.288,-0.752 -0.865,-0.752l-0.52,0l0,1.504Zm0,3.266l-1.568,0l0,-6.035l2.497,0c0.676,0 1.196,0.176 1.556,0.529c0.36,0.352 0.541,0.848 0.541,1.488c0,0.64 -0.181,1.137 -0.541,1.489c-0.36,0.352 -0.88,0.528 -1.556,0.528l-0.929,0l0,2.001Z" style="fill:white;fill-rule:nonzero;"/>
    <path id="path23375" d="M125.468,302.613l0,3.282c0,0.176 0.008,0.356 0.02,0.54c0.012,0.184 0.052,0.352 0.12,0.5c0.068,0.148 0.172,0.272 0.316,0.364c0.144,0.092 0.348,0.14 0.608,0.14c0.26,0 0.464,-0.048 0.604,-0.14c0.14,-0.092 0.248,-0.216 0.316,-0.364c0.068,-0.148 0.112,-0.316 0.124,-0.5c0.012,-0.184 0.02,-0.364 0.02,-0.54l0,-3.282l1.561,0l0,3.498c0,0.94 -0.216,1.624 -0.644,2.057c-0.428,0.432 -1.089,0.648 -1.981,0.648c-0.892,0 -1.553,-0.216 -1.985,-0.648c-0.432,-0.433 -0.648,-1.117 -0.648,-2.057l0,-3.498l1.569,0Z" style="fill:white;fill-rule:nonzero;"/>
    <path id="path23377" d="M132.711,303.942l0,4.706l-1.569,0l0,-4.706l-1.289,0l0,-1.329l4.146,0l0,1.329l-1.288,0Z" style="fill:white;fill-rule:nonzero;"/>
    <path id="path23382" d="M30.132,352.613l0,4.706l1.881,0l0,1.329l-3.449,0l0,-6.035l1.568,0Z" style="fill:white;fill-rule:nonzero;"/>
    <path id="path23384" d="M34.39,355.382l0.52,0c0.577,0 0.865,-0.252 0.865,-0.752c0,-0.5 -0.288,-0.752 -0.865,-0.752l-0.52,0l0,1.504Zm0,3.266l-1.568,0l0,-6.035l2.497,0c0.676,0 1.196,0.176 1.556,0.529c0.36,0.352 0.54,0.848 0.54,1.488c0,0.64 -0.18,1.137 -0.54,1.489c-0.36,0.352 -0.88,0.528 -1.556,0.528l-0.929,0l0,2.001Z" style="fill:white;fill-rule:nonzero;"/>
    <path id="path23389" d="M113.733,354.942l2.265,0l0,-2.329l1.569,0l0,6.035l-1.569,0l0,-2.489l-2.265,0l0,2.489l-1.569,0l0,-6.035l1.569,0l0,2.329Z" style="fill:white;fill-rule:nonzero;"/>
    <path id="path23391" d="M120.4,355.382l0.52,0c0.576,0 0.864,-0.252 0.864,-0.752c0,-0.5 -0.288,-0.752 -0.864,-0.752l-0.52,0l0,1.504Zm0,3.266l-1.569,0l0,-6.035l2.497,0c0.676,0 1.197,0.176 1.557,0.529c0.36,0.352 0.54,0.848 0.54,1.488c0,0.64 -0.18,1.137 -0.54,1.489c-0.36,0.352 -0.881,0.528 -1.557,0.528l-0.928,0l0,2.001Z" style="fill:white;fill-rule:nonzero;"/>
    <path id="path23396" d="M71.503,357.431l0.344,0c0.396,0 0.676,-0.052 0.848,-0.152c0.172,-0.1 0.256,-0.264 0.256,-0.488c0,-0.224 -0.084,-0.388 -0.256,-0.488c-0.172,-0.1 -0.452,-0.152 -0.848,-0.152l-0.344,0l0,1.28Zm0,-2.449l0.288,0c0.492,0 0.736,-0.196 0.736,-0.584c0,-0.388 -0.244,-0.584 -0.736,-0.584l-0.288,0l0,1.168Zm-1.569,-2.369l2.337,0c0.556,0 0.976,0.132 1.264,0.4c0.288,0.269 0.433,0.653 0.433,1.153c0,0.304 -0.056,0.556 -0.165,0.756c-0.108,0.2 -0.276,0.368 -0.5,0.508c0.224,0.044 0.416,0.109 0.572,0.197c0.157,0.088 0.285,0.196 0.385,0.324c0.1,0.128 0.168,0.272 0.212,0.432c0.044,0.16 0.064,0.332 0.064,0.512c0,0.284 -0.048,0.532 -0.148,0.752c-0.1,0.22 -0.236,0.405 -0.416,0.553c-0.181,0.148 -0.397,0.26 -0.653,0.336c-0.256,0.076 -0.544,0.112 -0.864,0.112l-2.521,0l0,-6.035Z" style="fill:white;fill-rule:nonzero;"/>
    <path id="path23398" d="M77.041,355.382l0.52,0c0.576,0 0.864,-0.252 0.864,-0.752c0,-0.5 -0.288,-0.752 -0.864,-0.752l-0.52,0l0,1.504Zm0,3.266l-1.569,0l0,-6.035l2.497,0c0.676,0 1.197,0.176 1.557,0.529c0.36,0.352 0.54,0.848 0.54,1.488c0,0.64 -0.18,1.137 -0.54,1.489c-0.36,0.352 -0.881,0.528 -1.557,0.528l-0.928,0l0,2.001Z" style="fill:white;fill-rule:nonzero;"/>
    <rect id="rect23403" x="60.175" y="316.539" width="1.569" height="6.035" style="fill:rgb(128,128,128);"/>
    <path id="path23405" d="M63.008,322.574l0,-6.035l1.569,0l2.897,3.69l0,-3.69l1.56,0l0,6.035l-1.56,0l-2.897,-3.69l0,3.69l-1.569,0Z" style="fill:rgb(128,128,128);fill-rule:nonzero;"/>
    <path id="path23407" d="M71.868,319.308l0.52,0c0.576,0 0.864,-0.252 0.864,-0.752c0,-0.5 -0.288,-0.752 -0.864,-0.752l-0.52,0l0,1.504Zm0,3.266l-1.569,0l0,-6.035l2.497,0c0.676,0 1.196,0.176 1.557,0.529c0.36,0.352 0.54,0.848 0.54,1.488c0,0.64 -0.18,1.137 -0.54,1.489c-0.361,0.352 -0.881,0.528 -1.557,0.528l-0.928,0l0,2.001Z" style="fill:rgb(128,128,128);fill-rule:nonzero;"/>
    <path id="path23409" d="M77.294,316.539l0,3.282c0,0.176 0.008,0.356 0.02,0.54c0.012,0.184 0.052,0.352 0.12,0.5c0.068,0.148 0.172,0.272 0.316,0.364c0.144,0.092 0.348,0.14 0.608,0.14c0.26,0 0.464,-0.048 0.604,-0.14c0.141,-0.092 0.249,-0.216 0.317,-0.364c0.068,-0.148 0.112,-0.316 0.124,-0.5c0.012,-0.184 0.02,-0.364 0.02,-0.54l0,-3.282l1.56,0l0,3.498c0,0.94 -0.216,1.624 -0.644,2.057c-0.428,0.432 -1.088,0.648 -1.981,0.648c-0.892,0 -1.552,-0.216 -1.985,-0.648c-0.432,-0.433 -0.648,-1.117 -0.648,-2.057l0,-3.498l1.569,0Z" style="fill:rgb(128,128,128);fill-rule:nonzero;"/>
    <path id="path23411" d="M84.537,317.868l0,4.706l-1.569,0l0,-4.706l-1.288,0l0,-1.329l4.145,0l0,1.329l-1.288,0Z" style="fill:rgb(128,128,128);fill-rule:nonzero;"/>
    <path id="path23413" d="M89.843,318.084c-0.172,-0.14 -0.34,-0.24 -0.512,-0.308c-0.172,-0.068 -0.336,-0.1 -0.496,-0.1c-0.205,0 -0.369,0.048 -0.497,0.144c-0.128,0.096 -0.192,0.22 -0.192,0.376c0,0.108 0.032,0.196 0.096,0.264c0.064,0.068 0.148,0.128 0.252,0.18c0.104,0.052 0.221,0.096 0.353,0.132c0.132,0.036 0.26,0.076 0.388,0.12c0.512,0.172 0.888,0.4 1.124,0.685c0.236,0.284 0.356,0.656 0.356,1.116c0,0.308 -0.052,0.588 -0.156,0.84c-0.104,0.252 -0.256,0.465 -0.456,0.645c-0.2,0.18 -0.444,0.316 -0.736,0.416c-0.292,0.1 -0.62,0.148 -0.989,0.148c-0.764,0 -1.468,-0.228 -2.12,-0.68l0.672,-1.265c0.236,0.208 0.468,0.364 0.696,0.464c0.228,0.1 0.456,0.152 0.68,0.152c0.256,0 0.449,-0.06 0.573,-0.176c0.124,-0.116 0.188,-0.252 0.188,-0.4c0,-0.092 -0.016,-0.168 -0.048,-0.236c-0.032,-0.068 -0.084,-0.128 -0.16,-0.184c-0.076,-0.056 -0.172,-0.108 -0.293,-0.156c-0.12,-0.048 -0.264,-0.1 -0.436,-0.16c-0.204,-0.064 -0.4,-0.136 -0.596,-0.212c-0.196,-0.076 -0.368,-0.18 -0.52,-0.308c-0.152,-0.128 -0.276,-0.289 -0.368,-0.485c-0.092,-0.196 -0.14,-0.44 -0.14,-0.74c0,-0.3 0.048,-0.568 0.148,-0.812c0.1,-0.244 0.236,-0.452 0.416,-0.625c0.18,-0.172 0.396,-0.308 0.656,-0.404c0.26,-0.096 0.548,-0.144 0.868,-0.144c0.301,0 0.613,0.04 0.937,0.124c0.324,0.084 0.636,0.204 0.936,0.364l-0.624,1.225Z" style="fill:rgb(128,128,128);fill-rule:nonzero;"/>
    <path id="path23418" d="M27.023,38.396l0,-1.01c0.683,0.286 1.267,0.428 1.75,0.428c0.566,0 0.849,-0.192 0.849,-0.577c0,-0.248 -0.233,-0.465 -0.699,-0.651l-0.466,-0.187c-0.506,-0.205 -0.867,-0.425 -1.084,-0.662c-0.217,-0.235 -0.326,-0.527 -0.326,-0.874c0,-0.485 0.184,-0.861 0.553,-1.13c0.37,-0.268 0.887,-0.402 1.55,-0.402c0.416,0 0.912,0.06 1.486,0.182l0,0.968c-0.553,-0.193 -1.01,-0.288 -1.373,-0.288c-0.571,0 -0.857,0.177 -0.857,0.53c0,0.233 0.211,0.43 0.633,0.591l0.4,0.153c0.6,0.227 1.016,0.457 1.251,0.69c0.234,0.233 0.351,0.532 0.351,0.899c0,0.48 -0.2,0.871 -0.598,1.171c-0.399,0.298 -0.918,0.449 -1.557,0.449c-0.615,0 -1.236,-0.094 -1.863,-0.28Z" style="fill:white;fill-rule:nonzero;"/>
    <path id="path23420" d="M35.184,38.532c-0.329,0.095 -0.587,0.144 -0.777,0.144c-1.195,0 -1.792,-0.559 -1.792,-1.676l0,-2.692l-0.573,0l0,-0.861l0.573,0l0,-0.86l1.377,-0.159l0,1.019l1.095,0l0,0.861l-1.095,0l0,2.509c0,0.628 0.256,0.942 0.769,0.942c0.117,0 0.259,-0.023 0.423,-0.066l0,0.839Z" style="fill:white;fill-rule:nonzero;"/>
    <path id="path23422" d="M40.576,38.387c-0.656,0.192 -1.276,0.289 -1.863,0.289c-0.853,0 -1.527,-0.243 -2.02,-0.727c-0.493,-0.484 -0.74,-1.145 -0.74,-1.983c0,-0.792 0.226,-1.428 0.677,-1.911c0.452,-0.483 1.048,-0.724 1.79,-0.724c0.747,0 1.294,0.236 1.639,0.707c0.344,0.472 0.517,1.219 0.517,2.239l-3.171,0c0.093,0.976 0.628,1.463 1.606,1.463c0.462,0 0.984,-0.107 1.565,-0.321l0,0.968Zm-3.189,-2.887l1.833,0c0,-0.872 -0.28,-1.307 -0.842,-1.307c-0.571,0 -0.901,0.435 -0.991,1.307Z" style="fill:white;fill-rule:nonzero;"/>
    <path id="path23424" d="M42,38.559l0,-5.112l1.378,0l0,5.112l-1.378,0Zm0,-5.972l0,-1.151l1.378,0l0,1.151l-1.378,0Z" style="fill:white;fill-rule:nonzero;"/>
    <path id="path23426" d="M45.101,38.559l0,-5.112l1.377,0l0,0.964c0.45,-0.72 1.031,-1.08 1.742,-1.08c0.456,0 0.816,0.144 1.08,0.433c0.263,0.289 0.396,0.683 0.396,1.183l0,3.612l-1.379,0l0,-3.273c0,-0.58 -0.192,-0.87 -0.577,-0.87c-0.437,0 -0.858,0.308 -1.262,0.927l0,3.216l-1.377,0Z" style="fill:white;fill-rule:nonzero;"/>
    <path id="path23428" d="M55.524,38.387c-0.655,0.192 -1.275,0.289 -1.862,0.289c-0.853,0 -1.527,-0.243 -2.02,-0.727c-0.494,-0.484 -0.74,-1.145 -0.74,-1.983c0,-0.792 0.225,-1.428 0.676,-1.911c0.452,-0.483 1.048,-0.724 1.791,-0.724c0.747,0 1.294,0.236 1.639,0.707c0.344,0.472 0.516,1.219 0.516,2.239l-3.171,0c0.094,0.976 0.629,1.463 1.606,1.463c0.463,0 0.985,-0.107 1.565,-0.321l0,0.968Zm-3.189,-2.887l1.834,0c0,-0.872 -0.28,-1.307 -0.843,-1.307c-0.57,0 -0.901,0.435 -0.991,1.307Z" style="fill:white;fill-rule:nonzero;"/>
    <path id="path23430" d="M56.948,38.559l0,-5.112l1.379,0l0,0.964c0.357,-0.72 0.9,-1.08 1.629,-1.08c0.087,0 0.173,0.009 0.257,0.027l0,1.23c-0.196,-0.071 -0.377,-0.107 -0.546,-0.107c-0.549,0 -0.996,0.278 -1.34,0.833l0,3.245l-1.379,0Z" style="fill:white;fill-rule:nonzero;"/>
    <rect id="rect23432" x="61.339" y="35.17" width="4.251" height="0.861" style="fill:white;"/>
    <path id="path23434" d="M67.372,40.398l0,-6.951l1.379,0l0,0.964c0.353,-0.72 0.91,-1.08 1.67,-1.08c0.615,0 1.098,0.225 1.451,0.675c0.352,0.45 0.528,1.07 0.528,1.857c0,0.857 -0.198,1.54 -0.596,2.049c-0.397,0.509 -0.93,0.764 -1.597,0.764c-0.536,0 -1.022,-0.211 -1.456,-0.634l0,2.356l-1.379,0Zm1.379,-3.175c0.335,0.373 0.692,0.559 1.07,0.559c0.339,0 0.609,-0.164 0.81,-0.491c0.202,-0.327 0.303,-0.765 0.303,-1.311c0,-1.046 -0.337,-1.569 -1.01,-1.569c-0.407,0 -0.798,0.262 -1.173,0.787l0,2.025Z" style="fill:white;fill-rule:nonzero;"/>
    <path id="path23436" d="M76.195,38.01c-0.46,0.443 -0.952,0.666 -1.476,0.666c-0.447,0 -0.81,-0.137 -1.09,-0.41c-0.279,-0.273 -0.419,-0.627 -0.419,-1.062c0,-0.564 0.227,-1 0.678,-1.306c0.452,-0.306 1.098,-0.458 1.938,-0.458l0.369,0l0,-0.466c0,-0.53 -0.303,-0.796 -0.909,-0.796c-0.537,0 -1.08,0.152 -1.629,0.456l0,-0.949c0.625,-0.237 1.242,-0.354 1.853,-0.354c1.338,0 2.007,0.532 2.007,1.597l0,2.262c0,0.4 0.128,0.6 0.387,0.6c0.046,0 0.107,-0.005 0.181,-0.018l0.032,0.773c-0.292,0.087 -0.549,0.131 -0.772,0.131c-0.566,0 -0.929,-0.223 -1.09,-0.666l-0.06,0Zm0,-0.74l0,-1.039l-0.326,0c-0.891,0 -1.337,0.279 -1.337,0.838c0,0.19 0.065,0.349 0.194,0.478c0.128,0.128 0.287,0.193 0.477,0.193c0.323,0 0.653,-0.157 0.992,-0.47Z" style="fill:white;fill-rule:nonzero;"/>
    <path id="path23438" d="M79.295,38.559l0,-5.112l1.378,0l0,0.964c0.357,-0.72 0.9,-1.08 1.63,-1.08c0.087,0 0.172,0.009 0.256,0.027l0,1.23c-0.196,-0.071 -0.377,-0.107 -0.545,-0.107c-0.55,0 -0.997,0.278 -1.341,0.833l0,3.245l-1.378,0Z" style="fill:white;fill-rule:nonzero;"/>
    <path id="path23440" d="M83.629,38.559l0,-7.351l1.379,0l0,4.623l0.088,0l1.82,-2.384l1.145,0l-1.68,2.189l2.207,2.923l-1.676,0l-1.816,-2.556l-0.088,0l0,2.556l-1.379,0Z" style="fill:white;fill-rule:nonzero;"/>
    <path id="path23442" d="M93.825,38.387c-0.655,0.192 -1.275,0.289 -1.862,0.289c-0.853,0 -1.527,-0.243 -2.021,-0.727c-0.494,-0.484 -0.74,-1.145 -0.74,-1.983c0,-0.792 0.226,-1.428 0.677,-1.911c0.452,-0.483 1.048,-0.724 1.791,-0.724c0.747,0 1.294,0.236 1.639,0.707c0.344,0.472 0.516,1.219 0.516,2.239l-3.171,0c0.094,0.976 0.629,1.463 1.606,1.463c0.463,0 0.984,-0.107 1.565,-0.321l0,0.968Zm-3.189,-2.887l1.834,0c0,-0.872 -0.28,-1.307 -0.843,-1.307c-0.57,0 -0.901,0.435 -0.991,1.307Z" style="fill:white;fill-rule:nonzero;"/>
    <path id="path23444" d="M95.249,38.559l0,-5.112l1.379,0l0,0.964c0.357,-0.72 0.9,-1.08 1.629,-1.08c0.087,0 0.172,0.009 0.256,0.027l0,1.23c-0.195,-0.071 -0.377,-0.107 -0.545,-0.107c-0.549,0 -0.996,0.278 -1.34,0.833l0,3.245l-1.379,0Z" style="fill:white;fill-rule:nonzero;"/>
    <path id="path23446" d="M102.87,38.559l0,-4.251l-0.703,0l0,-0.861l0.703,0l0,-0.353c0,-0.643 0.153,-1.137 0.459,-1.484c0.306,-0.345 0.741,-0.518 1.306,-0.518c0.348,0 0.717,0.063 1.108,0.19l0,0.941c-0.384,-0.171 -0.67,-0.256 -0.857,-0.256c-0.425,0 -0.637,0.388 -0.637,1.164l0,0.316l3.216,0l0,5.112l-1.378,0l0,-4.251l-1.838,0l0,4.251l-1.379,0Zm3.446,-5.972l0,-1.151l1.149,0l0,1.151l-1.149,0Z" style="fill:white;fill-rule:nonzero;"/>
    <rect id="rect23448" x="109.188" y="31.208" width="1.379" height="7.351" style="fill:white;"/>
    <path id="path23450" d="M114.923,38.532c-0.329,0.095 -0.587,0.144 -0.777,0.144c-1.195,0 -1.792,-0.559 -1.792,-1.676l0,-2.692l-0.573,0l0,-0.861l0.573,0l0,-0.86l1.377,-0.159l0,1.019l1.095,0l0,0.861l-1.095,0l0,2.509c0,0.628 0.257,0.942 0.769,0.942c0.117,0 0.259,-0.023 0.423,-0.066l0,0.839Z" style="fill:white;fill-rule:nonzero;"/>
    <path id="path23452" d="M120.315,38.387c-0.656,0.192 -1.276,0.289 -1.863,0.289c-0.853,0 -1.526,-0.243 -2.02,-0.727c-0.493,-0.484 -0.74,-1.145 -0.74,-1.983c0,-0.792 0.226,-1.428 0.677,-1.911c0.452,-0.483 1.049,-0.724 1.79,-0.724c0.749,0 1.295,0.236 1.639,0.707c0.344,0.472 0.517,1.219 0.517,2.239l-3.17,0c0.092,0.976 0.628,1.463 1.606,1.463c0.462,0 0.984,-0.107 1.564,-0.321l0,0.968Zm-3.189,-2.887l1.833,0c0,-0.872 -0.28,-1.307 -0.841,-1.307c-0.572,0 -0.902,0.435 -0.992,1.307Z" style="fill:white;fill-rule:nonzero;"/>
    <path id="path23454" d="M121.739,38.559l0,-5.112l1.378,0l0,0.964c0.357,-0.72 0.9,-1.08 1.63,-1.08c0.087,0 0.172,0.009 0.256,0.027l0,1.23c-0.196,-0.071 -0.377,-0.107 -0.545,-0.107c-0.549,0 -0.997,0.278 -1.341,0.833l0,3.245l-1.378,0Z" style="fill:white;fill-rule:nonzero;"/>
    <path id="path23459" d="M43.28,19.797l0,7.398l-2.466,0l0,-7.398l-2.024,0l0,-2.087l6.516,0l0,2.087l-2.026,0Z" style="fill:rgb(172,181,188);fill-rule:nonzero;"/>
    <path id="path23461" d="M51.118,23.672l-1.108,-3.157l-1.107,3.157l2.215,0Zm0.654,1.875l-3.523,0l-0.566,1.648l-2.629,0l3.611,-9.485l2.691,0l3.611,9.485l-2.629,0l-0.566,-1.648Z" style="fill:rgb(172,181,188);fill-rule:nonzero;"/>
    <path id="path23463" d="M56.049,27.195l0,-9.485l2.465,0l4.554,5.799l0,-5.799l2.453,0l0,9.485l-2.453,0l-4.554,-5.799l0,5.799l-2.465,0Z" style="fill:rgb(172,181,188);fill-rule:nonzero;"/>
    <path id="path23465" d="M72.302,21.886l4.894,0c0,0.503 -0.022,0.96 -0.063,1.372c-0.042,0.41 -0.126,0.792 -0.252,1.144c-0.177,0.495 -0.415,0.934 -0.717,1.314c-0.302,0.383 -0.656,0.701 -1.063,0.957c-0.407,0.256 -0.853,0.45 -1.34,0.585c-0.486,0.134 -0.998,0.201 -1.535,0.201c-0.738,0 -1.41,-0.122 -2.019,-0.365c-0.607,-0.243 -1.129,-0.585 -1.566,-1.025c-0.436,-0.44 -0.775,-0.969 -1.019,-1.585c-0.243,-0.616 -0.365,-1.298 -0.365,-2.044c0,-0.738 0.12,-1.416 0.36,-2.033c0.238,-0.615 0.578,-1.141 1.018,-1.578c0.44,-0.435 0.97,-0.775 1.591,-1.019c0.62,-0.242 1.313,-0.365 2.076,-0.365c0.99,0 1.857,0.215 2.604,0.642c0.746,0.428 1.337,1.09 1.774,1.987l-2.34,0.969c-0.218,-0.52 -0.501,-0.893 -0.85,-1.119c-0.347,-0.226 -0.744,-0.34 -1.188,-0.34c-0.369,0 -0.704,0.07 -1.007,0.208c-0.302,0.139 -0.559,0.336 -0.774,0.591c-0.213,0.256 -0.38,0.564 -0.502,0.925c-0.122,0.361 -0.182,0.763 -0.182,1.207c0,0.403 0.052,0.776 0.157,1.12c0.104,0.343 0.261,0.642 0.472,0.893c0.209,0.252 0.468,0.447 0.779,0.585c0.31,0.139 0.671,0.208 1.083,0.208c0.242,0 0.478,-0.028 0.704,-0.083c0.227,-0.054 0.429,-0.142 0.61,-0.263c0.18,-0.122 0.329,-0.279 0.446,-0.472c0.118,-0.193 0.197,-0.427 0.239,-0.704l-2.025,0l0,-1.913Z" style="fill:rgb(172,181,188);fill-rule:nonzero;"/>
    <path id="path23467" d="M84.152,19.797l-2.931,0l0,1.585l2.768,0l0,2.089l-2.768,0l0,1.635l2.931,0l0,2.089l-5.397,0l0,-9.485l5.397,0l0,2.087Z" style="fill:rgb(172,181,188);fill-rule:nonzero;"/>
    <path id="path23469" d="M85.926,27.195l0,-9.485l2.466,0l4.554,5.799l0,-5.799l2.453,0l0,9.485l-2.453,0l-4.554,-5.799l0,5.799l-2.466,0Z" style="fill:rgb(172,181,188);fill-rule:nonzero;"/>
    <path id="path23471" d="M100.984,19.797l0,7.398l-2.466,0l0,-7.398l-2.025,0l0,-2.087l6.517,0l0,2.087l-2.026,0Z" style="fill:rgb(172,181,188);fill-rule:nonzero;"/>
    <path id="path23473" d="M109.324,20.137c-0.267,-0.217 -0.536,-0.38 -0.804,-0.483c-0.269,-0.106 -0.529,-0.158 -0.781,-0.158c-0.318,0 -0.578,0.075 -0.78,0.227c-0.201,0.15 -0.301,0.347 -0.301,0.591c0,0.168 0.05,0.305 0.15,0.414c0.102,0.11 0.233,0.204 0.397,0.284c0.163,0.08 0.348,0.149 0.553,0.208c0.205,0.059 0.409,0.121 0.61,0.188c0.806,0.269 1.395,0.627 1.767,1.076c0.373,0.449 0.561,1.033 0.561,1.754c0,0.488 -0.082,0.927 -0.246,1.321c-0.163,0.395 -0.402,0.733 -0.717,1.013c-0.314,0.281 -0.7,0.499 -1.157,0.655c-0.457,0.154 -0.975,0.232 -1.553,0.232c-1.2,0 -2.311,-0.356 -3.334,-1.069l1.056,-1.988c0.369,0.328 0.734,0.57 1.095,0.73c0.361,0.16 0.717,0.238 1.07,0.238c0.402,0 0.701,-0.092 0.899,-0.276c0.197,-0.185 0.295,-0.394 0.295,-0.63c0,-0.142 -0.025,-0.265 -0.076,-0.37c-0.05,-0.105 -0.133,-0.201 -0.251,-0.289c-0.118,-0.089 -0.271,-0.17 -0.459,-0.246c-0.189,-0.075 -0.418,-0.159 -0.685,-0.251c-0.319,-0.101 -0.632,-0.211 -0.938,-0.334c-0.307,-0.121 -0.578,-0.282 -0.818,-0.483c-0.238,-0.203 -0.432,-0.456 -0.578,-0.762c-0.147,-0.307 -0.22,-0.694 -0.22,-1.163c0,-0.47 0.077,-0.896 0.232,-1.277c0.156,-0.383 0.374,-0.709 0.654,-0.982c0.281,-0.272 0.626,-0.483 1.032,-0.635c0.406,-0.151 0.862,-0.227 1.365,-0.227c0.469,0 0.961,0.066 1.472,0.196c0.512,0.129 1.002,0.32 1.472,0.571l-0.982,1.925Z" style="fill:rgb(172,181,188);fill-rule:nonzero;"/>
    <path id="path42" d="M62.952,363.5l2.673,0l2.49,8.317l2.574,-8.317l2.66,0l-3.46,10.397c-0.323,0.959 -0.903,1.438 -1.738,1.438c-0.847,0 -1.433,-0.484 -1.755,-1.453l-3.444,-10.382Z" style="fill:rgb(173,181,187);fill-rule:nonzero;"/>
    <path id="path44" d="M73.55,372.292l0,-8.792l2.507,0l0,8.709c0.044,0.312 0.334,0.468 0.869,0.468l1.705,0c0.513,0 0.797,-0.145 0.853,-0.435l0.017,-0.083l0,-8.659l2.507,0l0,8.776c0,0.769 -0.083,1.315 -0.251,1.638c-0.445,0.858 -1.231,1.287 -2.357,1.287l-3.243,0c-1.159,0 -1.95,-0.44 -2.373,-1.321c-0.156,-0.323 -0.234,-0.852 -0.234,-1.588l0,0Z" style="fill:rgb(173,181,187);fill-rule:nonzero;"/>
    <path id="path46" d="M83.161,372.343l0,-8.843l2.508,0l0,8.642c0,0.357 0.211,0.535 0.635,0.535l4.463,0l-0.016,2.524l-4.664,0c-0.167,0 -0.312,-0.006 -0.435,-0.017c-0.903,-0.077 -1.544,-0.342 -1.922,-0.794c-0.379,-0.451 -0.569,-1.133 -0.569,-2.047l0,0Z" style="fill:rgb(173,181,187);fill-rule:nonzero;"/>
    <path id="path48" d="M90.851,366.024l0,-2.524l7.522,0l0,2.524l-2.524,0l0,9.177l-2.508,0l0,-9.177l-2.49,0Z" style="fill:rgb(173,181,187);fill-rule:nonzero;"/>
    <path id="path4" d="M59.383,369.417c0,-4.509 -3.655,-8.164 -8.164,-8.164c-4.509,0 -8.165,3.655 -8.165,8.164c0,4.509 3.656,8.165 8.165,8.165c4.509,0 8.164,-3.656 8.164,-8.165Z" style="fill:rgb(117,117,117);fill-rule:nonzero;stroke:rgb(65,76,85);stroke-width:0.61px;stroke-miterlimit:10;"/>
    <path id="polygon6" d="M49.321,374.394l0.553,-0.891l-1.064,-2.393l-2.216,-2.284l0.46,3.101l0.597,1.28l0.833,1.264l0.837,-0.077Z" style="fill:rgb(43,43,43);fill-rule:nonzero;"/>
    <path id="polygon8" d="M53.048,374.401l-0.553,-0.89l1.064,-2.393l2.216,-2.285l-0.46,3.101l-0.597,1.281l-0.833,1.263l-0.837,-0.077Z" style="fill:rgb(38,38,38);fill-rule:nonzero;"/>
    <path id="polygon12" d="M48.636,363.359l2.584,-0.66l0,13.447l-1.349,-2.651l-1.061,-2.385l-1.022,-0.581l-2.052,-2.92l-0.057,-0.776l1.148,-2.067l1.809,-1.407Z" style="fill:rgb(66,66,66);fill-rule:nonzero;"/>
    <path id="polygon14" d="M53.801,363.364l-2.584,-0.661l0,13.448l1.35,-2.651l1.06,-2.385l1.023,-0.581l2.051,-2.921l0.058,-0.775l-1.149,-2.067l-1.809,-1.407Z" style="fill:rgb(51,51,51);fill-rule:nonzero;"/>
    <path id="polyline16" d="M49.496,369.237l1.723,-1.684l0,1.229l-1.723,1.718l0,-1.263" style="fill:rgb(76,76,76);fill-rule:nonzero;"/>
    <path id="polygon18" d="M51.22,368.781l-1.723,1.718l0.377,3.004l1.346,2.643l0,-7.365Z" style="fill:rgb(91,91,91);fill-rule:nonzero;"/>
    <path id="polygon20" d="M51.22,376.146l-1.346,-2.643l1.346,-0.635l0,3.278Z" style="fill:rgb(51,51,51);fill-rule:nonzero;"/>
    <path id="polygon22" d="M49.497,370.499l0,-1.263l-1.249,-1.58l-1.477,-1.19l-0.001,0.932l0.775,1.823l1.952,1.278Z" style="fill:white;fill-rule:nonzero;"/>
    <path id="polyline24" d="M52.942,369.238l-1.722,-1.685l0,1.23l1.722,1.718l0,-1.263" style="fill:rgb(45,45,45);fill-rule:nonzero;"/>
    <path id="polygon26" d="M51.218,368.781l1.722,1.718l-0.376,3.004l-1.347,2.643l0.001,-7.365Z" style="fill:rgb(53,53,53);fill-rule:nonzero;"/>
    <path id="polygon28" d="M51.217,376.146l1.347,-2.643l-1.346,-0.635l-0.001,3.278Z" style="fill:rgb(25,25,25);fill-rule:nonzero;"/>
    <path id="polygon30" d="M52.94,370.499l0,-1.263l1.249,-1.58l1.478,-1.19l0.001,0.932l-0.775,1.823l-1.953,1.278Z" style="fill:white;fill-rule:nonzero;"/>
    <path id="polyline32" d="M48.652,363.338l2.566,4.215l-0.005,-4.87" style="fill:rgb(56,56,56);fill-rule:nonzero;"/>
    <path id="polyline34" d="M53.785,363.338l-2.566,4.215l0.006,-4.869" style="fill:rgb(45,45,45);fill-rule:nonzero;"/>
    <path id="polygon36" d="M48.811,371.111l0.688,-0.611l0.375,3.006l-1.063,-2.395Z" style="fill:rgb(51,51,51);fill-rule:nonzero;"/>
    <path id="polygon38" d="M53.631,371.125l-0.688,-0.61l-0.375,3.006l1.063,-2.396Z" style="fill:rgb(28,28,28);fill-rule:nonzero;"/>
    <path id="path23502" d="M126.904,224.662c2.737,-4.742 1.664,-10.824 -2.534,-14.346c-4.193,-3.521 -10.372,-3.521 -14.566,0c-4.197,3.522 -5.27,9.604 -2.533,14.346l9.816,-5.666l9.817,5.666Z" style="fill:none;stroke:rgb(204,204,204);stroke-width:1px;stroke-linecap:round;"/>
    <path id="path23505" d="M117.087,219l-0.024,-13.31" style="fill:none;stroke:rgb(204,204,204);stroke-width:1px;stroke-linecap:round;"/>
    <path id="path23508" d="M43.66,262.748l0.36,0c0.272,0 0.516,-0.044 0.728,-0.128c0.212,-0.084 0.392,-0.204 0.54,-0.352c0.149,-0.148 0.261,-0.328 0.337,-0.532c0.076,-0.204 0.116,-0.432 0.116,-0.676c0,-0.241 -0.04,-0.465 -0.12,-0.673c-0.08,-0.208 -0.192,-0.388 -0.341,-0.536c-0.148,-0.148 -0.328,-0.268 -0.54,-0.352c-0.212,-0.084 -0.452,-0.128 -0.72,-0.128l-0.36,0l0,3.377Zm-1.569,-4.706l2.321,0c0.412,0 0.796,0.084 1.157,0.248c0.36,0.164 0.676,0.385 0.944,0.661c0.268,0.276 0.48,0.596 0.636,0.96c0.156,0.364 0.232,0.748 0.232,1.149c0,0.396 -0.076,0.776 -0.228,1.14c-0.152,0.364 -0.364,0.688 -0.632,0.964c-0.268,0.277 -0.584,0.501 -0.944,0.665c-0.361,0.164 -0.749,0.248 -1.165,0.248l-2.321,0l0,-6.035Z" style="fill:white;fill-rule:nonzero;"/>
    <path id="path23510" d="M49.95,260.739l0.297,0c0.308,0 0.548,-0.064 0.712,-0.192c0.164,-0.128 0.248,-0.312 0.248,-0.552c0,-0.24 -0.084,-0.424 -0.248,-0.552c-0.164,-0.128 -0.404,-0.192 -0.712,-0.192l-0.297,0l0,1.488Zm3.45,3.338l-1.953,0l-1.497,-2.321l0,2.321l-1.568,0l0,-6.035l2.441,0c0.336,0 0.628,0.048 0.88,0.148c0.252,0.1 0.456,0.232 0.62,0.405c0.164,0.172 0.285,0.368 0.369,0.592c0.084,0.224 0.124,0.464 0.124,0.72c0,0.46 -0.112,0.832 -0.333,1.117c-0.22,0.284 -0.548,0.48 -0.98,0.58l1.897,2.473Z" style="fill:white;fill-rule:nonzero;"/>
    <rect id="rect23512" x="54.056" y="258.042" width="1.569" height="6.035" style="fill:white;"/>
    <path id="path23514" d="M57.962,258.042l1.456,3.674l1.465,-3.674l1.705,0l-2.545,6.035l-1.249,0l-2.537,-6.035l1.705,0Z" style="fill:white;fill-rule:nonzero;"/>
    <path id="path23516" d="M66.653,259.371l-1.864,0l0,1.008l1.76,0l0,1.329l-1.76,0l0,1.04l1.864,0l0,1.329l-3.433,0l0,-6.035l3.433,0l0,1.329Z" style="fill:white;fill-rule:nonzero;"/>
    <path id="path23521" d="M41.211,296.268l0.769,-4.526l1.164,0l0.909,2.413l0.9,-2.413l1.16,0l0.769,4.526l-1.169,0l-0.388,-2.605l-1.068,2.605l-0.469,0l-1.016,-2.605l-0.388,2.605l-1.173,0Z" style="fill:white;fill-rule:nonzero;"/>
    <path id="path23523" d="M50.111,292.902c-0.128,-0.104 -0.256,-0.18 -0.384,-0.232c-0.128,-0.048 -0.252,-0.076 -0.372,-0.076c-0.152,0 -0.276,0.036 -0.372,0.108c-0.096,0.072 -0.144,0.168 -0.144,0.284c0,0.08 0.024,0.145 0.072,0.197c0.048,0.052 0.112,0.1 0.188,0.136c0.08,0.04 0.168,0.072 0.264,0.1c0.1,0.028 0.196,0.056 0.292,0.088c0.384,0.128 0.664,0.3 0.844,0.512c0.176,0.216 0.264,0.496 0.264,0.84c0,0.232 -0.036,0.44 -0.116,0.628c-0.076,0.189 -0.192,0.349 -0.34,0.485c-0.152,0.132 -0.336,0.236 -0.552,0.312c-0.22,0.072 -0.464,0.108 -0.74,0.108c-0.573,0 -1.105,-0.168 -1.593,-0.508l0.504,-0.949c0.176,0.156 0.352,0.272 0.524,0.348c0.172,0.076 0.341,0.116 0.509,0.116c0.192,0 0.336,-0.044 0.428,-0.132c0.096,-0.088 0.144,-0.188 0.144,-0.3c0,-0.068 -0.012,-0.128 -0.036,-0.18c-0.024,-0.048 -0.064,-0.096 -0.12,-0.136c-0.056,-0.044 -0.132,-0.08 -0.22,-0.116c-0.092,-0.036 -0.2,-0.076 -0.328,-0.12c-0.152,-0.048 -0.301,-0.104 -0.449,-0.16c-0.144,-0.06 -0.272,-0.136 -0.388,-0.232c-0.112,-0.096 -0.204,-0.216 -0.276,-0.36c-0.068,-0.148 -0.104,-0.332 -0.104,-0.557c0,-0.224 0.036,-0.428 0.112,-0.608c0.072,-0.184 0.176,-0.34 0.312,-0.468c0.132,-0.132 0.296,-0.232 0.488,-0.304c0.197,-0.072 0.413,-0.108 0.653,-0.108c0.224,0 0.46,0.032 0.704,0.092c0.244,0.064 0.476,0.152 0.7,0.272l-0.468,0.92Z" style="fill:white;fill-rule:nonzero;"/>
    <path id="path23527" d="M26.588,318.737l0.769,-4.526l1.164,0l0.908,2.413l0.901,-2.413l1.16,0l0.769,4.526l-1.169,0l-0.388,-2.605l-1.069,2.605l-0.468,0l-1.016,-2.605l-0.388,2.605l-1.173,0Z" style="fill:rgb(115,115,115);fill-rule:nonzero;"/>
    <path id="path23529" d="M34.031,316.476c0,0.18 0.032,0.344 0.1,0.496c0.068,0.152 0.16,0.284 0.276,0.396c0.117,0.112 0.253,0.2 0.405,0.26c0.156,0.064 0.32,0.096 0.492,0.096c0.172,0 0.332,-0.032 0.488,-0.096c0.152,-0.06 0.288,-0.148 0.408,-0.26c0.116,-0.112 0.208,-0.244 0.276,-0.396c0.068,-0.152 0.104,-0.316 0.104,-0.496c0,-0.18 -0.036,-0.348 -0.104,-0.5c-0.068,-0.152 -0.16,-0.284 -0.276,-0.397c-0.12,-0.112 -0.256,-0.196 -0.408,-0.26c-0.156,-0.06 -0.316,-0.092 -0.488,-0.092c-0.172,0 -0.336,0.032 -0.492,0.092c-0.152,0.064 -0.288,0.148 -0.405,0.26c-0.116,0.113 -0.208,0.245 -0.276,0.397c-0.068,0.152 -0.1,0.32 -0.1,0.5Zm-1.232,0c0,-0.336 0.064,-0.648 0.188,-0.941c0.124,-0.288 0.296,-0.544 0.516,-0.76c0.22,-0.216 0.48,-0.384 0.788,-0.504c0.305,-0.124 0.645,-0.184 1.013,-0.184c0.364,0 0.696,0.06 1.004,0.184c0.308,0.12 0.576,0.288 0.797,0.504c0.224,0.216 0.396,0.472 0.52,0.76c0.124,0.293 0.184,0.605 0.184,0.941c0,0.336 -0.06,0.648 -0.184,0.936c-0.124,0.292 -0.296,0.544 -0.52,0.761c-0.221,0.216 -0.489,0.384 -0.797,0.508c-0.308,0.12 -0.64,0.18 -1.004,0.18c-0.368,0 -0.708,-0.06 -1.013,-0.18c-0.308,-0.124 -0.568,-0.292 -0.788,-0.508c-0.22,-0.217 -0.392,-0.469 -0.516,-0.761c-0.124,-0.288 -0.188,-0.6 -0.188,-0.936Z" style="fill:rgb(115,115,115);fill-rule:nonzero;"/>
    <path id="path23531" d="M39.73,317.74l0.272,0c0.204,0 0.384,-0.032 0.544,-0.096c0.16,-0.064 0.296,-0.152 0.404,-0.264c0.112,-0.112 0.196,-0.244 0.252,-0.4c0.06,-0.152 0.088,-0.32 0.088,-0.504c0,-0.18 -0.032,-0.348 -0.092,-0.504c-0.06,-0.156 -0.144,-0.292 -0.252,-0.404c-0.112,-0.113 -0.244,-0.201 -0.404,-0.265c-0.16,-0.064 -0.34,-0.096 -0.54,-0.096l-0.272,0l0,2.533Zm-1.177,-3.529l1.741,0c0.308,0 0.596,0.064 0.868,0.188c0.268,0.124 0.504,0.288 0.709,0.496c0.2,0.204 0.36,0.444 0.476,0.721c0.116,0.272 0.172,0.56 0.172,0.86c0,0.296 -0.056,0.58 -0.168,0.852c-0.116,0.276 -0.272,0.516 -0.476,0.725c-0.201,0.208 -0.437,0.376 -0.709,0.5c-0.268,0.124 -0.56,0.184 -0.872,0.184l-1.741,0l0,-4.526Z" style="fill:rgb(115,115,115);fill-rule:nonzero;"/>
    <path id="path23533" d="M45.844,315.207l-1.396,0l0,0.757l1.316,0l0,0.996l-1.316,0l0,0.78l1.396,0l0,0.997l-2.573,0l0,-4.526l2.573,0l0,0.996Z" style="fill:rgb(115,115,115);fill-rule:nonzero;"/>
    <path id="path23535" d="M47.865,314.211l0,3.529l1.413,0l0,0.997l-2.589,0l0,-4.526l1.176,0Z" style="fill:rgb(115,115,115);fill-rule:nonzero;"/>
    <path id="path23539" d="M42.338,282.296l-1.649,-2.353l1.405,0l0.84,1.236l0.833,-1.236l1.404,0l-1.657,2.353l0,2.173l-1.176,0l0,-2.173Z" style="fill:white;fill-rule:nonzero;"/>
    <path id="path23541" d="M46.76,279.943l0,2.461c0,0.132 0.008,0.268 0.016,0.404c0.012,0.14 0.04,0.264 0.092,0.376c0.048,0.112 0.128,0.204 0.236,0.272c0.108,0.072 0.26,0.108 0.456,0.108c0.196,0 0.348,-0.036 0.452,-0.108c0.104,-0.068 0.184,-0.16 0.236,-0.272c0.052,-0.112 0.084,-0.236 0.092,-0.376c0.012,-0.136 0.016,-0.272 0.016,-0.404l0,-2.461l1.173,0l0,2.625c0,0.704 -0.164,1.217 -0.484,1.541c-0.324,0.324 -0.817,0.484 -1.485,0.484c-0.668,0 -1.164,-0.16 -1.488,-0.484c-0.325,-0.324 -0.485,-0.837 -0.485,-1.541l0,-2.625l1.173,0Z" style="fill:white;fill-rule:nonzero;"/>
    <path id="path23545" d="M42.712,305.76l-1.409,-2.113l1.453,0l0.612,1.172l0.757,-1.172l1.452,0l-1.496,2.113l1.684,2.413l-1.432,0l-0.905,-1.477l-1.064,1.477l-1.421,0l1.769,-2.413Z" style="fill:white;fill-rule:nonzero;"/>
    <path id="path23547" d="M47.538,305.76l-1.413,-2.113l1.453,0l0.612,1.172l0.757,-1.172l1.452,0l-1.492,2.113l1.684,2.413l-1.432,0l-0.909,-1.477l-1.06,1.477l-1.425,0l1.773,-2.413Z" style="fill:white;fill-rule:nonzero;"/>
    <g>
      <path id="path1060" d="M26.166,275.714l2.32,2.474l0,30.663l-2.32,2.422l0,-35.559Z" style="fill:rgb(90,90,90);"/>
      <path id="path1064" d="M35.439,278.188l2.395,-2.474l0,35.559l-2.395,-2.422l0,-30.664Z" style="fill:rgb(90,90,90);"/>
      <path id="path1066" d="M26.166,311.273l2.32,-2.422l6.953,0l2.395,2.422l-11.668,0Z" style="fill:rgb(200,200,200);"/>
      <path id="path2589" d="M35.823,278.567c0,-0.921 -0.628,-1.669 -1.401,-1.669l-4.84,0c-0.773,0 -1.401,0.748 -1.401,1.669l0,29.176c0,0.921 0.628,1.669 1.401,1.669l4.84,0c0.773,0 1.401,-0.748 1.401,-1.669l0,-29.176Z" style="fill:rgb(20,20,20);"/>
    </g>
  </g>
</svg>