<?xml version="1.0" encoding="UTF-8" standalone="no"?>
<!DOCTYPE svg PUBLIC "-//W3C//DTD SVG 1.1//EN" "http://www.w3.org/Graphics/SVG/1.1/DTD/svg11.dtd">
<svg width="60px" height="380px" version="1.1" xmlns="http://www.w3.org/2000/svg" xmlns:xlink="http://www.w3.org/1999/xlink" xml:space="preserve" xmlns:serif="http://www.serif.com/" style="fill-rule:evenodd;clip-rule:evenodd;stroke-miterlimit:10;">
    <g id="Panel" transform="matrix(1,0,0,1,10.1709,-56.7292)">
        <g id="rect9931" transform="matrix(1.51576,0,0,3.78266,-10.2526,-686.609)">
            <rect x="0.054" y="196.512" width="39.584" height="100.458" style="fill:rgb(26,26,26);"/>
        </g>
        <g transform="matrix(4.00166,0,0,4.00166,7.9265,355.36)">
            <g id="text9293-4">
                <rect x="0.158" y="-1.508" width="0.392" height="1.508" style="fill:white;fill-rule:nonzero;"/>
                <path d="M0.866,0l0,-1.508l0.392,0l0.724,0.922l0,-0.922l0.39,0l0,1.508l-0.39,0l-0.724,-0.922l0,0.922l-0.392,0Z" style="fill:white;fill-rule:nonzero;"/>
                <path d="M3.08,-0.816l0.13,0c0.144,0 0.216,-0.063 0.216,-0.188c0,-0.125 -0.072,-0.188 -0.216,-0.188l-0.13,0l0,0.376Zm0,0.816l-0.392,0l0,-1.508l0.624,0c0.169,0 0.299,0.044 0.389,0.132c0.09,0.088 0.135,0.212 0.135,0.372c0,0.16 -0.045,0.284 -0.135,0.372c-0.09,0.088 -0.22,0.132 -0.389,0.132l-0.232,0l0,0.5Z" style="fill:white;fill-rule:nonzero;"/>
                <path d="M4.436,-1.508l0,0.82c0,0.044 0.002,0.089 0.005,0.135c0.003,0.046 0.013,0.088 0.03,0.125c0.017,0.037 0.043,0.068 0.079,0.091c0.036,0.023 0.087,0.035 0.152,0.035c0.065,0 0.116,-0.012 0.151,-0.035c0.035,-0.023 0.062,-0.054 0.079,-0.091c0.017,-0.037 0.028,-0.079 0.031,-0.125c0.003,-0.046 0.005,-0.091 0.005,-0.135l0,-0.82l0.39,0l0,0.874c0,0.235 -0.054,0.406 -0.161,0.514c-0.107,0.108 -0.272,0.162 -0.495,0.162c-0.223,0 -0.388,-0.054 -0.496,-0.162c-0.108,-0.108 -0.162,-0.279 -0.162,-0.514l0,-0.874l0.392,0Z" style="fill:white;fill-rule:nonzero;"/>
                <path d="M6.246,-1.176l0,1.176l-0.392,0l0,-1.176l-0.322,0l0,-0.332l1.036,0l0,0.332l-0.322,0Z" style="fill:white;fill-rule:nonzero;"/>
            </g>
        </g>
        <g transform="matrix(1.33192,0,0,1.33192,-5.48227,89.1704)">
            <g id="text7967">
                <path d="M2.597,-1.436l0.406,0c0.466,0 0.8,-0.059 1.002,-0.179c0.201,-0.12 0.302,-0.312 0.302,-0.576c0,-0.265 -0.101,-0.457 -0.302,-0.576c-0.202,-0.12 -0.536,-0.18 -1.002,-0.18l-0.406,0l0,1.511Zm0,-2.89l0.34,0c0.58,0 0.869,-0.23 0.869,-0.689c0,-0.46 -0.289,-0.69 -0.869,-0.69l-0.34,0l0,1.379Zm-1.851,-2.795l2.758,0c0.655,0 1.152,0.157 1.492,0.472c0.34,0.315 0.51,0.768 0.51,1.36c0,0.359 -0.064,0.656 -0.193,0.892c-0.129,0.237 -0.326,0.436 -0.591,0.6c0.265,0.051 0.49,0.128 0.676,0.232c0.186,0.103 0.337,0.231 0.453,0.382c0.117,0.151 0.2,0.321 0.25,0.51c0.051,0.189 0.076,0.39 0.076,0.605c0,0.333 -0.058,0.629 -0.175,0.887c-0.116,0.259 -0.28,0.476 -0.491,0.652c-0.211,0.176 -0.467,0.309 -0.77,0.397c-0.302,0.088 -0.642,0.132 -1.02,0.132l-2.975,0l0,-7.121Z" style="fill:rgb(102,102,102);fill-rule:nonzero;"/>
                <path d="M8.576,-3.419l-2.597,-3.702l2.21,0l1.322,1.945l1.313,-1.945l2.21,0l-2.607,3.702l0,3.419l-1.851,0l0,-3.419Z" style="fill:rgb(102,102,102);fill-rule:nonzero;"/>
                <path d="M15.537,-3.854l0.614,0c0.68,0 1.02,-0.295 1.02,-0.887c0,-0.592 -0.34,-0.888 -1.02,-0.888l-0.614,0l0,1.775Zm0,3.854l-1.851,0l0,-7.121l2.946,0c0.8,0 1.412,0.207 1.837,0.623c0.426,0.415 0.638,1.001 0.638,1.757c0,0.755 -0.212,1.341 -0.638,1.756c-0.425,0.416 -1.037,0.624 -1.837,0.624l-1.095,0l0,2.361Z" style="fill:rgb(102,102,102);fill-rule:nonzero;"/>
                <path d="M23.565,-2.645l-0.831,-2.37l-0.831,2.37l1.662,0Zm0.491,1.408l-2.644,0l-0.425,1.237l-1.974,0l2.71,-7.121l2.021,0l2.711,7.121l-1.974,0l-0.425,-1.237Z" style="fill:rgb(102,102,102);fill-rule:nonzero;"/>
                <path d="M31.178,-5.299c-0.202,-0.163 -0.403,-0.285 -0.605,-0.363c-0.201,-0.079 -0.397,-0.118 -0.585,-0.118c-0.24,0 -0.435,0.056 -0.586,0.17c-0.151,0.113 -0.227,0.261 -0.227,0.444c0,0.126 0.038,0.229 0.114,0.311c0.075,0.082 0.174,0.153 0.297,0.213c0.123,0.06 0.261,0.112 0.416,0.156c0.154,0.044 0.307,0.091 0.458,0.141c0.604,0.202 1.047,0.471 1.327,0.808c0.28,0.337 0.42,0.776 0.42,1.317c0,0.366 -0.061,0.696 -0.184,0.992c-0.123,0.296 -0.302,0.55 -0.538,0.76c-0.237,0.211 -0.526,0.375 -0.869,0.492c-0.344,0.116 -0.732,0.174 -1.167,0.174c-0.9,0 -1.735,-0.267 -2.503,-0.802l0.794,-1.493c0.277,0.246 0.551,0.428 0.821,0.548c0.271,0.12 0.539,0.179 0.803,0.179c0.302,0 0.528,-0.069 0.675,-0.207c0.148,-0.139 0.222,-0.296 0.222,-0.473c0,-0.107 -0.018,-0.199 -0.056,-0.278c-0.038,-0.079 -0.101,-0.151 -0.189,-0.217c-0.088,-0.067 -0.203,-0.128 -0.345,-0.185c-0.142,-0.056 -0.313,-0.119 -0.515,-0.188c-0.239,-0.076 -0.473,-0.159 -0.703,-0.251c-0.23,-0.091 -0.435,-0.212 -0.614,-0.363c-0.18,-0.152 -0.324,-0.342 -0.435,-0.572c-0.11,-0.23 -0.165,-0.521 -0.165,-0.873c0,-0.353 0.058,-0.673 0.175,-0.959c0.116,-0.287 0.28,-0.532 0.491,-0.737c0.211,-0.204 0.469,-0.363 0.774,-0.477c0.306,-0.113 0.647,-0.17 1.025,-0.17c0.353,0 0.721,0.049 1.105,0.147c0.384,0.097 0.753,0.24 1.105,0.429l-0.736,1.445Z" style="fill:rgb(102,102,102);fill-rule:nonzero;"/>
                <path d="M37.279,-5.299c-0.201,-0.163 -0.403,-0.285 -0.604,-0.363c-0.202,-0.079 -0.397,-0.118 -0.586,-0.118c-0.239,0 -0.435,0.056 -0.586,0.17c-0.151,0.113 -0.226,0.261 -0.226,0.444c0,0.126 0.037,0.229 0.113,0.311c0.076,0.082 0.175,0.153 0.298,0.213c0.122,0.06 0.261,0.112 0.415,0.156c0.154,0.044 0.307,0.091 0.458,0.141c0.605,0.202 1.047,0.471 1.327,0.808c0.28,0.337 0.421,0.776 0.421,1.317c0,0.366 -0.062,0.696 -0.185,0.992c-0.122,0.296 -0.302,0.55 -0.538,0.76c-0.236,0.211 -0.526,0.375 -0.869,0.492c-0.343,0.116 -0.732,0.174 -1.166,0.174c-0.901,0 -1.735,-0.267 -2.503,-0.802l0.793,-1.493c0.277,0.246 0.551,0.428 0.822,0.548c0.271,0.12 0.538,0.179 0.803,0.179c0.302,0 0.527,-0.069 0.675,-0.207c0.148,-0.139 0.222,-0.296 0.222,-0.473c0,-0.107 -0.019,-0.199 -0.057,-0.278c-0.038,-0.079 -0.101,-0.151 -0.189,-0.217c-0.088,-0.067 -0.203,-0.128 -0.344,-0.185c-0.142,-0.056 -0.314,-0.119 -0.515,-0.188c-0.239,-0.076 -0.474,-0.159 -0.704,-0.251c-0.23,-0.091 -0.434,-0.212 -0.614,-0.363c-0.179,-0.152 -0.324,-0.342 -0.434,-0.572c-0.11,-0.23 -0.166,-0.521 -0.166,-0.873c0,-0.353 0.059,-0.673 0.175,-0.959c0.117,-0.287 0.28,-0.532 0.491,-0.737c0.211,-0.204 0.469,-0.363 0.775,-0.477c0.305,-0.113 0.647,-0.17 1.025,-0.17c0.352,0 0.721,0.049 1.105,0.147c0.384,0.097 0.752,0.24 1.105,0.429l-0.737,1.445Z" style="fill:rgb(102,102,102);fill-rule:nonzero;"/>
            </g>
        </g>
        <g transform="matrix(1.85259,0,0,1.20381,-436.799,-104.28)">
            <path d="M261.093,342.452c0,-0.599 -0.316,-1.086 -0.705,-1.086l-27.403,0c-0.389,0 -0.705,0.487 -0.705,1.086l0,32.334c0,0.599 0.316,1.085 0.705,1.085l27.403,0c0.389,0 0.705,-0.486 0.705,-1.085l0,-32.334Z"/>
        </g>
        <g transform="matrix(1.85259,0,0,1.20381,-436.799,-200.28)">
            <path d="M261.093,342.452c0,-0.599 -0.316,-1.086 -0.705,-1.086l-27.403,0c-0.389,0 -0.705,0.487 -0.705,1.086l0,32.334c0,0.599 0.316,1.085 0.705,1.085l27.403,0c0.389,0 0.705,-0.486 0.705,-1.085l0,-32.334Z"/>
        </g>
        <g id="g50" transform="matrix(0.0626855,0,0,0.0626855,-5.86178,358.343)">
            <path id="path42" d="M224.699,869.111l27.948,0l26.026,86.945l26.911,-86.945l27.806,0l-36.174,108.69c-3.38,10.021 -9.436,15.027 -18.173,15.027c-8.854,0 -14.971,-5.059 -18.345,-15.181l-35.999,-108.536Z" style="fill:rgb(102,102,102);fill-rule:nonzero;"/>
            <path id="path44" d="M335.484,961.026l0,-91.915l26.211,0l0,91.041c0.464,3.263 3.495,4.893 9.087,4.893l17.824,0c5.357,0 8.328,-1.512 8.912,-4.543l0.175,-0.874l0,-90.517l26.211,0l0,91.74c0,8.038 -0.873,13.747 -2.621,17.125c-4.66,8.972 -12.873,13.455 -24.639,13.455l-33.9,0c-12.118,0 -20.388,-4.601 -24.814,-13.805c-1.632,-3.377 -2.446,-8.911 -2.446,-16.6l0,0Z" style="fill:rgb(102,102,102);fill-rule:nonzero;"/>
            <path id="path46" d="M435.961,961.551l0,-92.439l26.212,0l0,90.342c0,3.73 2.211,5.592 6.64,5.592l46.657,0l-0.175,26.387l-48.754,0c-1.747,0 -3.263,-0.058 -4.543,-0.175c-9.437,-0.813 -16.137,-3.582 -20.096,-8.3c-3.962,-4.72 -5.941,-11.854 -5.941,-21.407l0,0Z" style="fill:rgb(102,102,102);fill-rule:nonzero;"/>
            <path id="path48" d="M516.341,895.497l0,-26.386l78.635,0l0,26.386l-26.386,0l0,95.935l-26.212,0l0,-95.935l-26.037,0Z" style="fill:rgb(102,102,102);fill-rule:nonzero;"/>
        </g>
        <g id="g8091" transform="matrix(0.0359254,0,0,0.0359254,20.6581,400.313)">
            <path id="path4" d="M210.282,78.87c0,-125.517 -101.752,-227.268 -227.271,-227.268c-125.514,0 -227.267,101.751 -227.267,227.268c0,125.516 101.752,227.268 227.267,227.268c125.519,0 227.271,-101.752 227.271,-227.268l0,0Z" style="fill:rgb(117,117,117);fill-rule:nonzero;stroke:rgb(53,53,53);stroke-width:17px;"/>
            <g id="g40" transform="matrix(1,0,0,1,-426.825,-542.575)">
                <path id="polygon6" d="M357.002,759.965l15.391,-24.781l-29.594,-66.614l-61.688,-63.583l12.788,86.322l16.629,35.632l23.179,35.166l23.295,-2.142Z" style="fill:rgb(43,43,43);fill-rule:nonzero;"/>
                <path id="polygon8" d="M460.762,760.17l-15.392,-24.783l29.597,-66.612l61.685,-63.582l-12.787,86.321l-16.63,35.631l-23.175,35.168l-23.298,-2.143Z" style="fill:rgb(38,38,38);fill-rule:nonzero;"/>
                <path id="polygon12" d="M337.948,452.81l71.936,-18.383l0,374.323l-37.568,-73.799l-29.517,-66.381l-28.471,-16.175l-57.105,-81.295l-1.598,-21.58l31.971,-57.547l50.352,-39.163Z" style="fill:rgb(66,66,66);fill-rule:nonzero;"/>
                <path id="polygon14" d="M481.727,452.944l-71.932,-18.382l0,374.325l37.564,-73.801l29.518,-66.379l28.473,-16.178l57.101,-81.295l1.599,-21.579l-31.969,-57.547l-50.354,-39.164Z" style="fill:rgb(51,51,51);fill-rule:nonzero;"/>
                <path id="polyline16" d="M361.886,616.429l47.96,-46.887l0,34.229l-47.96,47.827l0,-35.169" style="fill:rgb(76,76,76);fill-rule:nonzero;"/>
                <path id="polygon18" d="M409.881,603.732l-47.957,47.827l10.469,83.625l37.491,73.566l-0.003,-205.018Z" style="fill:rgb(91,91,91);fill-rule:nonzero;"/>
                <path id="polygon20" d="M409.884,808.75l-37.491,-73.566l37.485,-17.672l0.006,91.238Z" style="fill:rgb(51,51,51);fill-rule:nonzero;"/>
                <path id="polygon22" d="M361.924,651.559l0,-35.169l-34.766,-43.958l-41.119,-33.129l-0.043,25.934l21.582,50.752l54.346,35.57Z" style="fill:white;fill-rule:nonzero;"/>
                <path id="polyline24" d="M457.816,616.448l-47.957,-46.887l0,34.229l47.957,47.826l0,-35.168" style="fill:rgb(45,45,45);fill-rule:nonzero;"/>
                <path id="polygon26" d="M409.804,603.732l47.954,47.827l-10.469,83.625l-37.488,73.566l0.003,-205.018Z" style="fill:rgb(53,53,53);fill-rule:nonzero;"/>
                <path id="polygon28" d="M409.801,808.75l37.488,-73.566l-37.482,-17.672l-0.006,91.238Z" style="fill:rgb(25,25,25);fill-rule:nonzero;"/>
                <path id="polygon30" d="M457.758,651.559l0,-35.168l34.765,-43.958l41.122,-33.13l0.041,25.935l-21.578,50.753l-54.35,35.568Z" style="fill:white;fill-rule:nonzero;"/>
                <path id="polyline32" d="M338.399,452.22l71.425,117.329l-0.154,-135.546" style="fill:rgb(56,56,56);fill-rule:nonzero;"/>
                <path id="polyline34" d="M481.271,452.232l-71.425,117.329l0.154,-135.545" style="fill:rgb(45,45,45);fill-rule:nonzero;"/>
                <path id="polygon36" d="M342.815,668.578l19.143,-16.982l10.448,83.674l-29.591,-66.692Z" style="fill:rgb(51,51,51);fill-rule:nonzero;"/>
                <path id="polygon38" d="M476.975,668.989l-19.144,-16.982l-10.448,83.675l29.592,-66.693Z" style="fill:rgb(28,28,28);fill-rule:nonzero;"/>
            </g>
        </g>
        <g transform="matrix(1,0,0,1,-5.98273,55.7292)">
            <path d="M11.504,286.139l0,4.116l1.645,0l0,1.162l-3.017,0l0,-5.278l1.372,0Z" style="fill:rgb(140,140,140);fill-rule:nonzero;"/>
        </g>
        <g transform="matrix(1,0,0,1,23.5691,55.7292)">
            <path d="M10.884,288.498l0.259,0c0.271,0 0.479,-0.056 0.623,-0.168c0.145,-0.112 0.217,-0.273 0.217,-0.483c0,-0.21 -0.072,-0.371 -0.217,-0.483c-0.144,-0.112 -0.352,-0.168 -0.623,-0.168l-0.259,0l0,1.302Zm3.017,2.919l-1.708,0l-1.309,-2.03l0,2.03l-1.372,0l0,-5.278l2.135,0c0.294,0 0.551,0.043 0.77,0.13c0.22,0.086 0.401,0.204 0.543,0.353c0.142,0.149 0.25,0.322 0.322,0.518c0.072,0.196 0.108,0.406 0.108,0.63c0,0.401 -0.096,0.727 -0.29,0.977c-0.194,0.249 -0.48,0.418 -0.858,0.507l1.659,2.163Z" style="fill:rgb(140,140,140);fill-rule:nonzero;"/>
        </g>
        <g transform="matrix(1,0,0,1,-5.98273,2.72916)">
            <path d="M11.504,286.139l0,4.116l1.645,0l0,1.162l-3.017,0l0,-5.278l1.372,0Z" style="fill:rgb(140,140,140);fill-rule:nonzero;"/>
        </g>
        <g transform="matrix(1,0,0,1,23.5691,2.72916)">
            <path d="M10.884,288.498l0.259,0c0.271,0 0.479,-0.056 0.623,-0.168c0.145,-0.112 0.217,-0.273 0.217,-0.483c0,-0.21 -0.072,-0.371 -0.217,-0.483c-0.144,-0.112 -0.352,-0.168 -0.623,-0.168l-0.259,0l0,1.302Zm3.017,2.919l-1.708,0l-1.309,-2.03l0,2.03l-1.372,0l0,-5.278l2.135,0c0.294,0 0.551,0.043 0.77,0.13c0.22,0.086 0.401,0.204 0.543,0.353c0.142,0.149 0.25,0.322 0.322,0.518c0.072,0.196 0.108,0.406 0.108,0.63c0,0.401 -0.096,0.727 -0.29,0.977c-0.194,0.249 -0.48,0.418 -0.858,0.507l1.659,2.163Z" style="fill:rgb(140,140,140);fill-rule:nonzero;"/>
        </g>
        <g transform="matrix(1,0,0,1,-5.98273,-40.2708)">
            <path d="M11.504,286.139l0,4.116l1.645,0l0,1.162l-3.017,0l0,-5.278l1.372,0Z" style="fill:rgb(140,140,140);fill-rule:nonzero;"/>
        </g>
        <g transform="matrix(1,0,0,1,23.5691,-40.2708)">
            <path d="M10.884,288.498l0.259,0c0.271,0 0.479,-0.056 0.623,-0.168c0.145,-0.112 0.217,-0.273 0.217,-0.483c0,-0.21 -0.072,-0.371 -0.217,-0.483c-0.144,-0.112 -0.352,-0.168 -0.623,-0.168l-0.259,0l0,1.302Zm3.017,2.919l-1.708,0l-1.309,-2.03l0,2.03l-1.372,0l0,-5.278l2.135,0c0.294,0 0.551,0.043 0.77,0.13c0.22,0.086 0.401,0.204 0.543,0.353c0.142,0.149 0.25,0.322 0.322,0.518c0.072,0.196 0.108,0.406 0.108,0.63c0,0.401 -0.096,0.727 -0.29,0.977c-0.194,0.249 -0.48,0.418 -0.858,0.507l1.659,2.163Z" style="fill:rgb(140,140,140);fill-rule:nonzero;"/>
        </g>
        <g transform="matrix(1,0,0,1,-5.98273,95.7292)">
            <path d="M11.504,286.139l0,4.116l1.645,0l0,1.162l-3.017,0l0,-5.278l1.372,0Z" style="fill:rgb(140,140,140);fill-rule:nonzero;"/>
        </g>
        <g transform="matrix(1,0,0,1,23.5691,95.7292)">
            <path d="M10.884,288.498l0.259,0c0.271,0 0.479,-0.056 0.623,-0.168c0.145,-0.112 0.217,-0.273 0.217,-0.483c0,-0.21 -0.072,-0.371 -0.217,-0.483c-0.144,-0.112 -0.352,-0.168 -0.623,-0.168l-0.259,0l0,1.302Zm3.017,2.919l-1.708,0l-1.309,-2.03l0,2.03l-1.372,0l0,-5.278l2.135,0c0.294,0 0.551,0.043 0.77,0.13c0.22,0.086 0.401,0.204 0.543,0.353c0.142,0.149 0.25,0.322 0.322,0.518c0.072,0.196 0.108,0.406 0.108,0.63c0,0.401 -0.096,0.727 -0.29,0.977c-0.194,0.249 -0.48,0.418 -0.858,0.507l1.659,2.163Z" style="fill:rgb(140,140,140);fill-rule:nonzero;"/>
        </g>
        <g transform="matrix(4.00166,0,0,4.00166,17.6041,141.411)">
            <path d="M0.547,-0.882l0,0.882l-0.294,0l0,-0.882l-0.241,0l0,-0.249l0.777,0l0,0.249l-0.242,0Z" style="fill:white;fill-rule:nonzero;"/>
            <path d="M1.165,-0.565c0,0.045 0.009,0.086 0.026,0.124c0.016,0.038 0.039,0.071 0.068,0.099c0.029,0.028 0.063,0.05 0.102,0.065c0.038,0.016 0.079,0.024 0.122,0.024c0.043,0 0.084,-0.008 0.122,-0.024c0.039,-0.015 0.073,-0.037 0.102,-0.065c0.03,-0.028 0.053,-0.061 0.07,-0.099c0.017,-0.038 0.025,-0.079 0.025,-0.124c0,-0.045 -0.008,-0.087 -0.025,-0.125c-0.017,-0.038 -0.04,-0.071 -0.07,-0.099c-0.029,-0.028 -0.063,-0.049 -0.102,-0.065c-0.038,-0.015 -0.079,-0.023 -0.122,-0.023c-0.043,0 -0.084,0.008 -0.122,0.023c-0.039,0.016 -0.073,0.037 -0.102,0.065c-0.029,0.028 -0.052,0.061 -0.068,0.099c-0.017,0.038 -0.026,0.08 -0.026,0.125Zm-0.307,0c0,-0.084 0.015,-0.162 0.046,-0.235c0.031,-0.072 0.074,-0.136 0.129,-0.19c0.055,-0.054 0.121,-0.096 0.197,-0.126c0.077,-0.031 0.161,-0.046 0.253,-0.046c0.091,0 0.175,0.015 0.252,0.046c0.077,0.03 0.143,0.072 0.198,0.126c0.056,0.054 0.099,0.118 0.13,0.19c0.031,0.073 0.047,0.151 0.047,0.235c0,0.084 -0.016,0.162 -0.047,0.234c-0.031,0.073 -0.074,0.136 -0.13,0.19c-0.055,0.054 -0.121,0.096 -0.198,0.127c-0.077,0.03 -0.161,0.045 -0.252,0.045c-0.092,0 -0.176,-0.015 -0.253,-0.045c-0.076,-0.031 -0.142,-0.073 -0.197,-0.127c-0.055,-0.054 -0.098,-0.117 -0.129,-0.19c-0.031,-0.072 -0.046,-0.15 -0.046,-0.234Z" style="fill:white;fill-rule:nonzero;"/>
            <path d="M2.846,-0.633l0.583,0c0,0.06 -0.002,0.115 -0.007,0.164c-0.005,0.049 -0.015,0.094 -0.03,0.136c-0.021,0.059 -0.05,0.111 -0.086,0.157c-0.036,0.045 -0.078,0.083 -0.127,0.114c-0.048,0.03 -0.101,0.054 -0.159,0.069c-0.058,0.016 -0.119,0.024 -0.183,0.024c-0.088,0 -0.168,-0.014 -0.241,-0.043c-0.072,-0.029 -0.135,-0.07 -0.187,-0.122c-0.051,-0.053 -0.092,-0.116 -0.121,-0.189c-0.029,-0.074 -0.043,-0.155 -0.043,-0.244c0,-0.088 0.014,-0.168 0.042,-0.242c0.029,-0.073 0.069,-0.136 0.122,-0.188c0.052,-0.052 0.115,-0.093 0.189,-0.122c0.074,-0.029 0.157,-0.043 0.248,-0.043c0.118,0 0.221,0.025 0.31,0.076c0.089,0.051 0.16,0.13 0.212,0.237l-0.279,0.116c-0.026,-0.062 -0.06,-0.107 -0.101,-0.134c-0.042,-0.027 -0.089,-0.04 -0.142,-0.04c-0.044,0 -0.084,0.008 -0.12,0.025c-0.036,0.016 -0.067,0.04 -0.092,0.07c-0.026,0.031 -0.046,0.067 -0.06,0.11c-0.015,0.043 -0.022,0.091 -0.022,0.144c0,0.048 0.006,0.093 0.019,0.134c0.012,0.041 0.031,0.076 0.056,0.106c0.025,0.03 0.056,0.053 0.093,0.07c0.037,0.016 0.08,0.025 0.129,0.025c0.029,0 0.057,-0.004 0.084,-0.01c0.027,-0.007 0.051,-0.017 0.073,-0.032c0.021,-0.014 0.039,-0.033 0.053,-0.056c0.014,-0.023 0.023,-0.051 0.028,-0.084l-0.241,0l0,-0.228Z" style="fill:white;fill-rule:nonzero;"/>
            <path d="M4.165,-0.633l0.584,0c0,0.06 -0.003,0.115 -0.008,0.164c-0.005,0.049 -0.015,0.094 -0.03,0.136c-0.021,0.059 -0.049,0.111 -0.085,0.157c-0.036,0.045 -0.079,0.083 -0.127,0.114c-0.049,0.03 -0.102,0.054 -0.16,0.069c-0.058,0.016 -0.119,0.024 -0.183,0.024c-0.088,0 -0.168,-0.014 -0.24,-0.043c-0.073,-0.029 -0.135,-0.07 -0.187,-0.122c-0.052,-0.053 -0.093,-0.116 -0.121,-0.189c-0.029,-0.074 -0.044,-0.155 -0.044,-0.244c0,-0.088 0.014,-0.168 0.043,-0.242c0.028,-0.073 0.069,-0.136 0.121,-0.188c0.053,-0.052 0.116,-0.093 0.19,-0.122c0.074,-0.029 0.156,-0.043 0.247,-0.043c0.118,0 0.222,0.025 0.311,0.076c0.089,0.051 0.159,0.13 0.211,0.237l-0.279,0.116c-0.026,-0.062 -0.06,-0.107 -0.101,-0.134c-0.042,-0.027 -0.089,-0.04 -0.142,-0.04c-0.044,0 -0.084,0.008 -0.12,0.025c-0.036,0.016 -0.066,0.04 -0.092,0.07c-0.025,0.031 -0.045,0.067 -0.06,0.11c-0.014,0.043 -0.022,0.091 -0.022,0.144c0,0.048 0.007,0.093 0.019,0.134c0.013,0.041 0.031,0.076 0.056,0.106c0.025,0.03 0.056,0.053 0.093,0.07c0.037,0.016 0.08,0.025 0.129,0.025c0.029,0 0.057,-0.004 0.084,-0.01c0.027,-0.007 0.051,-0.017 0.073,-0.032c0.021,-0.014 0.039,-0.033 0.053,-0.056c0.014,-0.023 0.024,-0.051 0.029,-0.084l-0.242,0l0,-0.228Z" style="fill:white;fill-rule:nonzero;"/>
            <path d="M5.228,-1.131l0,0.882l0.353,0l0,0.249l-0.647,0l0,-1.131l0.294,0Z" style="fill:white;fill-rule:nonzero;"/>
            <path d="M6.375,-0.882l-0.349,0l0,0.189l0.33,0l0,0.249l-0.33,0l0,0.195l0.349,0l0,0.249l-0.643,0l0,-1.131l0.643,0l0,0.249Z" style="fill:white;fill-rule:nonzero;"/>
        </g>
        <g transform="matrix(4.00166,0,0,4.00166,10.5416,106.411)">
            <path d="M0.739,-0.841c-0.032,-0.026 -0.064,-0.045 -0.096,-0.058c-0.032,-0.012 -0.063,-0.019 -0.093,-0.019c-0.038,0 -0.069,0.009 -0.093,0.027c-0.024,0.018 -0.036,0.042 -0.036,0.071c0,0.02 0.006,0.036 0.018,0.049c0.012,0.013 0.028,0.025 0.048,0.034c0.019,0.01 0.041,0.018 0.066,0.025c0.024,0.007 0.048,0.014 0.072,0.022c0.096,0.032 0.166,0.075 0.211,0.128c0.044,0.054 0.067,0.124 0.067,0.21c0,0.058 -0.01,0.11 -0.03,0.157c-0.019,0.047 -0.048,0.087 -0.085,0.121c-0.038,0.033 -0.084,0.059 -0.138,0.078c-0.054,0.018 -0.116,0.027 -0.185,0.027c-0.143,0 -0.276,-0.042 -0.398,-0.127l0.126,-0.237c0.044,0.039 0.088,0.068 0.131,0.087c0.043,0.019 0.085,0.029 0.127,0.029c0.048,0 0.084,-0.011 0.108,-0.033c0.023,-0.022 0.035,-0.047 0.035,-0.075c0,-0.017 -0.003,-0.032 -0.009,-0.045c-0.006,-0.012 -0.016,-0.024 -0.03,-0.034c-0.014,-0.011 -0.032,-0.02 -0.055,-0.029c-0.022,-0.009 -0.05,-0.019 -0.082,-0.03c-0.038,-0.012 -0.075,-0.026 -0.111,-0.04c-0.037,-0.015 -0.069,-0.034 -0.098,-0.058c-0.028,-0.024 -0.051,-0.054 -0.069,-0.09c-0.017,-0.037 -0.026,-0.083 -0.026,-0.139c0,-0.056 0.009,-0.107 0.028,-0.152c0.018,-0.046 0.044,-0.085 0.078,-0.117c0.033,-0.033 0.074,-0.058 0.123,-0.076c0.048,-0.018 0.102,-0.027 0.162,-0.027c0.056,0 0.115,0.008 0.176,0.023c0.061,0.016 0.119,0.038 0.175,0.068l-0.117,0.23Z" style="fill:white;fill-rule:nonzero;"/>
            <path d="M1.523,-0.882l0,0.882l-0.294,0l0,-0.882l-0.241,0l0,-0.249l0.777,0l0,0.249l-0.242,0Z" style="fill:white;fill-rule:nonzero;"/>
            <path d="M2.457,-0.42l-0.131,-0.376l-0.132,0.376l0.263,0Zm0.078,0.224l-0.419,0l-0.068,0.196l-0.313,0l0.43,-1.131l0.321,0l0.43,1.131l-0.313,0l-0.068,-0.196Z" style="fill:white;fill-rule:nonzero;"/>
            <path d="M3.425,-0.882l0,0.882l-0.294,0l0,-0.882l-0.242,0l0,-0.249l0.777,0l0,0.249l-0.241,0Z" style="fill:white;fill-rule:nonzero;"/>
            <path d="M4.09,-1.131l0,0.615c0,0.033 0.002,0.067 0.004,0.101c0.003,0.035 0.01,0.066 0.023,0.094c0.012,0.028 0.032,0.051 0.059,0.068c0.027,0.018 0.065,0.027 0.114,0.027c0.049,0 0.086,-0.009 0.113,-0.027c0.026,-0.017 0.046,-0.04 0.059,-0.068c0.013,-0.028 0.021,-0.059 0.023,-0.094c0.003,-0.034 0.004,-0.068 0.004,-0.101l0,-0.615l0.293,0l0,0.656c0,0.176 -0.041,0.304 -0.121,0.385c-0.081,0.081 -0.204,0.121 -0.371,0.121c-0.167,0 -0.291,-0.04 -0.372,-0.121c-0.081,-0.081 -0.122,-0.209 -0.122,-0.385l0,-0.656l0.294,0Z" style="fill:white;fill-rule:nonzero;"/>
            <path d="M5.639,-0.841c-0.032,-0.026 -0.064,-0.045 -0.096,-0.058c-0.032,-0.012 -0.063,-0.019 -0.093,-0.019c-0.038,0 -0.069,0.009 -0.093,0.027c-0.024,0.018 -0.036,0.042 -0.036,0.071c0,0.02 0.006,0.036 0.018,0.049c0.012,0.013 0.028,0.025 0.048,0.034c0.019,0.01 0.041,0.018 0.065,0.025c0.025,0.007 0.049,0.014 0.073,0.022c0.096,0.032 0.166,0.075 0.211,0.128c0.044,0.054 0.067,0.124 0.067,0.21c0,0.058 -0.01,0.11 -0.03,0.157c-0.019,0.047 -0.048,0.087 -0.085,0.121c-0.038,0.033 -0.084,0.059 -0.138,0.078c-0.055,0.018 -0.116,0.027 -0.185,0.027c-0.143,0 -0.276,-0.042 -0.398,-0.127l0.126,-0.237c0.044,0.039 0.088,0.068 0.131,0.087c0.043,0.019 0.085,0.029 0.127,0.029c0.048,0 0.084,-0.011 0.107,-0.033c0.024,-0.022 0.036,-0.047 0.036,-0.075c0,-0.017 -0.003,-0.032 -0.009,-0.045c-0.006,-0.012 -0.016,-0.024 -0.03,-0.034c-0.014,-0.011 -0.033,-0.02 -0.055,-0.029c-0.022,-0.009 -0.05,-0.019 -0.082,-0.03c-0.038,-0.012 -0.075,-0.026 -0.111,-0.04c-0.037,-0.015 -0.069,-0.034 -0.098,-0.058c-0.028,-0.024 -0.051,-0.054 -0.069,-0.09c-0.017,-0.037 -0.026,-0.083 -0.026,-0.139c0,-0.056 0.009,-0.107 0.028,-0.152c0.018,-0.046 0.044,-0.085 0.078,-0.117c0.033,-0.033 0.074,-0.058 0.123,-0.076c0.048,-0.018 0.102,-0.027 0.162,-0.027c0.056,0 0.115,0.008 0.176,0.023c0.061,0.016 0.119,0.038 0.175,0.068l-0.117,0.23Z" style="fill:white;fill-rule:nonzero;"/>
        </g>
        <g transform="matrix(4.00166,0,0,4.00166,17.6041,152.73)">
            <path d="M0.412,-0.612l0.098,0c0.108,0 0.162,-0.047 0.162,-0.141c0,-0.094 -0.054,-0.141 -0.162,-0.141l-0.098,0l0,0.282Zm0,0.612l-0.294,0l0,-1.131l0.468,0c0.127,0 0.224,0.033 0.292,0.099c0.067,0.066 0.101,0.159 0.101,0.279c0,0.12 -0.034,0.213 -0.101,0.279c-0.068,0.066 -0.165,0.099 -0.292,0.099l-0.174,0l0,0.375Z" style="fill:white;fill-rule:nonzero;"/>
            <path d="M1.429,-1.131l0,0.615c0,0.033 0.001,0.067 0.004,0.101c0.002,0.035 0.01,0.066 0.022,0.094c0.013,0.028 0.032,0.051 0.059,0.068c0.027,0.018 0.065,0.027 0.114,0.027c0.049,0 0.087,-0.009 0.114,-0.027c0.026,-0.017 0.046,-0.04 0.059,-0.068c0.013,-0.028 0.02,-0.059 0.023,-0.094c0.002,-0.034 0.004,-0.068 0.004,-0.101l0,-0.615l0.292,0l0,0.656c0,0.176 -0.04,0.304 -0.121,0.385c-0.08,0.081 -0.204,0.121 -0.371,0.121c-0.167,0 -0.291,-0.04 -0.372,-0.121c-0.08,-0.081 -0.121,-0.209 -0.121,-0.385l0,-0.656l0.294,0Z" style="fill:white;fill-rule:nonzero;"/>
            <path d="M2.978,-0.841c-0.032,-0.026 -0.064,-0.045 -0.096,-0.058c-0.032,-0.012 -0.063,-0.019 -0.093,-0.019c-0.038,0 -0.069,0.009 -0.093,0.027c-0.024,0.018 -0.036,0.042 -0.036,0.071c0,0.02 0.006,0.036 0.018,0.049c0.012,0.013 0.028,0.025 0.047,0.034c0.02,0.01 0.042,0.018 0.066,0.025c0.025,0.007 0.049,0.014 0.073,0.022c0.096,0.032 0.166,0.075 0.21,0.128c0.045,0.054 0.067,0.124 0.067,0.21c0,0.058 -0.01,0.11 -0.029,0.157c-0.02,0.047 -0.048,0.087 -0.086,0.121c-0.037,0.033 -0.083,0.059 -0.137,0.078c-0.055,0.018 -0.117,0.027 -0.186,0.027c-0.143,0 -0.275,-0.042 -0.397,-0.127l0.126,-0.237c0.044,0.039 0.087,0.068 0.13,0.087c0.043,0.019 0.086,0.029 0.128,0.029c0.048,0 0.084,-0.011 0.107,-0.033c0.024,-0.022 0.035,-0.047 0.035,-0.075c0,-0.017 -0.003,-0.032 -0.009,-0.045c-0.006,-0.012 -0.016,-0.024 -0.03,-0.034c-0.014,-0.011 -0.032,-0.02 -0.054,-0.029c-0.023,-0.009 -0.05,-0.019 -0.082,-0.03c-0.038,-0.012 -0.075,-0.026 -0.112,-0.04c-0.036,-0.015 -0.069,-0.034 -0.097,-0.058c-0.029,-0.024 -0.052,-0.054 -0.069,-0.09c-0.018,-0.037 -0.026,-0.083 -0.026,-0.139c0,-0.056 0.009,-0.107 0.027,-0.152c0.019,-0.046 0.045,-0.085 0.078,-0.117c0.034,-0.033 0.075,-0.058 0.123,-0.076c0.049,-0.018 0.103,-0.027 0.163,-0.027c0.056,0 0.114,0.008 0.175,0.023c0.061,0.016 0.12,0.038 0.176,0.068l-0.117,0.23Z" style="fill:white;fill-rule:nonzero;"/>
            <path d="M3.619,-0.694l0.425,0l0,-0.437l0.294,0l0,1.131l-0.294,0l0,-0.466l-0.425,0l0,0.466l-0.293,0l0,-1.131l0.293,0l0,0.437Z" style="fill:white;fill-rule:nonzero;"/>
        </g>
        <g transform="matrix(4.00166,0,0,4.00166,1.6921,165.214)">
            <path d="M0.067,0l0.192,-1.131l0.291,0l0.227,0.603l0.225,-0.603l0.29,0l0.192,1.131l-0.292,0l-0.097,-0.651l-0.267,0.651l-0.117,0l-0.254,-0.651l-0.097,0.651l-0.293,0Z" style="fill:rgb(153,153,153);fill-rule:nonzero;"/>
            <path d="M1.927,-0.565c0,0.045 0.008,0.086 0.025,0.124c0.017,0.038 0.04,0.071 0.069,0.099c0.029,0.028 0.063,0.05 0.101,0.065c0.039,0.016 0.08,0.024 0.123,0.024c0.043,0 0.083,-0.008 0.122,-0.024c0.038,-0.015 0.072,-0.037 0.102,-0.065c0.029,-0.028 0.052,-0.061 0.069,-0.099c0.017,-0.038 0.026,-0.079 0.026,-0.124c0,-0.045 -0.009,-0.087 -0.026,-0.125c-0.017,-0.038 -0.04,-0.071 -0.069,-0.099c-0.03,-0.028 -0.064,-0.049 -0.102,-0.065c-0.039,-0.015 -0.079,-0.023 -0.122,-0.023c-0.043,0 -0.084,0.008 -0.123,0.023c-0.038,0.016 -0.072,0.037 -0.101,0.065c-0.029,0.028 -0.052,0.061 -0.069,0.099c-0.017,0.038 -0.025,0.08 -0.025,0.125Zm-0.308,0c0,-0.084 0.016,-0.162 0.047,-0.235c0.031,-0.072 0.074,-0.136 0.129,-0.19c0.055,-0.054 0.12,-0.096 0.197,-0.126c0.076,-0.031 0.161,-0.046 0.253,-0.046c0.091,0 0.174,0.015 0.251,0.046c0.077,0.03 0.144,0.072 0.199,0.126c0.056,0.054 0.099,0.118 0.13,0.19c0.031,0.073 0.046,0.151 0.046,0.235c0,0.084 -0.015,0.162 -0.046,0.234c-0.031,0.073 -0.074,0.136 -0.13,0.19c-0.055,0.054 -0.122,0.096 -0.199,0.127c-0.077,0.03 -0.16,0.045 -0.251,0.045c-0.092,0 -0.177,-0.015 -0.253,-0.045c-0.077,-0.031 -0.142,-0.073 -0.197,-0.127c-0.055,-0.054 -0.098,-0.117 -0.129,-0.19c-0.031,-0.072 -0.047,-0.15 -0.047,-0.234Z" style="fill:rgb(153,153,153);fill-rule:nonzero;"/>
            <path d="M3.351,-0.249l0.068,0c0.051,0 0.096,-0.008 0.136,-0.024c0.04,-0.016 0.074,-0.038 0.101,-0.066c0.028,-0.028 0.049,-0.061 0.063,-0.1c0.015,-0.038 0.022,-0.08 0.022,-0.126c0,-0.045 -0.008,-0.087 -0.023,-0.126c-0.015,-0.039 -0.036,-0.073 -0.063,-0.101c-0.028,-0.028 -0.061,-0.05 -0.101,-0.066c-0.04,-0.016 -0.085,-0.024 -0.135,-0.024l-0.068,0l0,0.633Zm-0.294,-0.882l0.435,0c0.077,0 0.149,0.016 0.217,0.047c0.067,0.031 0.126,0.072 0.177,0.124c0.05,0.051 0.09,0.111 0.119,0.18c0.029,0.068 0.043,0.14 0.043,0.215c0,0.074 -0.014,0.145 -0.042,0.213c-0.029,0.069 -0.068,0.129 -0.119,0.181c-0.05,0.052 -0.109,0.094 -0.177,0.125c-0.067,0.031 -0.14,0.046 -0.218,0.046l-0.435,0l0,-1.131Z" style="fill:rgb(153,153,153);fill-rule:nonzero;"/>
            <path d="M4.879,-0.882l-0.349,0l0,0.189l0.329,0l0,0.249l-0.329,0l0,0.195l0.349,0l0,0.249l-0.643,0l0,-1.131l0.643,0l0,0.249Z" style="fill:rgb(153,153,153);fill-rule:nonzero;"/>
        </g>
        <g transform="matrix(0.191638,0,0,0.704995,-8.51236,163.199)">
            <path d="M294,69.901c0,-2.153 -6.43,-3.901 -14.35,-3.901l-258.3,0c-7.92,0 -14.35,1.748 -14.35,3.901l0,116.198c0,2.153 6.43,3.901 14.35,3.901l258.3,0c7.92,0 14.35,-1.748 14.35,-3.901l0,-116.198Z" style="fill:none;stroke:rgb(77,77,77);stroke-width:2.9px;stroke-linecap:round;stroke-linejoin:round;stroke-miterlimit:1.5;"/>
        </g>
        <g transform="matrix(0.191638,0,0,0.704995,-8.51236,259.199)">
            <path d="M294,69.901c0,-2.153 -6.43,-3.901 -14.35,-3.901l-258.3,0c-7.92,0 -14.35,1.748 -14.35,3.901l0,116.198c0,2.153 6.43,3.901 14.35,3.901l258.3,0c7.92,0 14.35,-1.748 14.35,-3.901l0,-116.198Z" style="fill:none;stroke:rgb(77,77,77);stroke-width:2.9px;stroke-linecap:round;stroke-linejoin:round;stroke-miterlimit:1.5;"/>
        </g>
        <g transform="matrix(0.191638,0,0,0.834028,-8.51236,41.6833)">
            <path d="M294,69.297c0,-1.82 -6.43,-3.297 -14.35,-3.297l-258.3,0c-7.92,0 -14.35,1.477 -14.35,3.297l0,117.406c0,1.82 6.43,3.297 14.35,3.297l258.3,0c7.92,0 14.35,-1.477 14.35,-3.297l0,-117.406Z" style="fill:none;stroke:rgb(77,77,77);stroke-width:2.48px;stroke-linecap:round;stroke-linejoin:round;stroke-miterlimit:1.5;"/>
        </g>
        <g transform="matrix(4.00166,0,0,4.00166,2.4699,315.528)">
            <g id="text9293-41" serif:id="text9293-4">
                <path d="M0.5,-0.754c0,0.06 0.011,0.115 0.034,0.166c0.023,0.051 0.053,0.095 0.092,0.132c0.039,0.037 0.084,0.066 0.135,0.087c0.051,0.021 0.106,0.031 0.163,0.031c0.057,0 0.112,-0.01 0.163,-0.031c0.051,-0.021 0.097,-0.05 0.136,-0.087c0.039,-0.037 0.07,-0.081 0.093,-0.132c0.023,-0.051 0.034,-0.106 0.034,-0.166c0,-0.06 -0.011,-0.115 -0.034,-0.166c-0.023,-0.051 -0.054,-0.095 -0.093,-0.132c-0.039,-0.037 -0.085,-0.066 -0.136,-0.087c-0.051,-0.021 -0.106,-0.031 -0.163,-0.031c-0.057,0 -0.112,0.01 -0.163,0.031c-0.051,0.021 -0.096,0.05 -0.135,0.087c-0.039,0.037 -0.069,0.081 -0.092,0.132c-0.023,0.051 -0.034,0.106 -0.034,0.166Zm-0.41,0c0,-0.112 0.021,-0.216 0.062,-0.313c0.041,-0.097 0.099,-0.181 0.172,-0.253c0.073,-0.072 0.161,-0.128 0.263,-0.169c0.102,-0.041 0.214,-0.061 0.337,-0.061c0.121,0 0.233,0.02 0.336,0.061c0.103,0.041 0.191,0.097 0.265,0.169c0.074,0.072 0.132,0.156 0.173,0.253c0.041,0.097 0.062,0.201 0.062,0.313c0,0.112 -0.021,0.216 -0.062,0.313c-0.041,0.097 -0.099,0.181 -0.173,0.253c-0.074,0.072 -0.162,0.128 -0.265,0.169c-0.103,0.041 -0.215,0.061 -0.336,0.061c-0.123,0 -0.235,-0.02 -0.337,-0.061c-0.102,-0.041 -0.19,-0.097 -0.263,-0.169c-0.073,-0.072 -0.131,-0.156 -0.172,-0.253c-0.041,-0.097 -0.062,-0.201 -0.062,-0.313Z" style="fill:white;fill-rule:nonzero;"/>
                <path d="M2.4,-1.508l0,0.82c0,0.044 0.002,0.089 0.005,0.135c0.003,0.046 0.013,0.088 0.03,0.125c0.017,0.037 0.043,0.068 0.079,0.091c0.036,0.023 0.087,0.035 0.152,0.035c0.065,0 0.116,-0.012 0.151,-0.035c0.035,-0.023 0.062,-0.054 0.079,-0.091c0.017,-0.037 0.028,-0.079 0.031,-0.125c0.003,-0.046 0.005,-0.091 0.005,-0.135l0,-0.82l0.39,0l0,0.874c0,0.235 -0.054,0.406 -0.161,0.514c-0.107,0.108 -0.272,0.162 -0.495,0.162c-0.223,0 -0.388,-0.054 -0.496,-0.162c-0.108,-0.108 -0.162,-0.279 -0.162,-0.514l0,-0.874l0.392,0Z" style="fill:white;fill-rule:nonzero;"/>
                <path d="M4.21,-1.176l0,1.176l-0.392,0l0,-1.176l-0.322,0l0,-0.332l1.036,0l0,0.332l-0.322,0Z" style="fill:white;fill-rule:nonzero;"/>
                <path d="M5.098,-0.816l0.13,0c0.144,0 0.216,-0.063 0.216,-0.188c0,-0.125 -0.072,-0.188 -0.216,-0.188l-0.13,0l0,0.376Zm0,0.816l-0.392,0l0,-1.508l0.624,0c0.169,0 0.299,0.044 0.389,0.132c0.09,0.088 0.135,0.212 0.135,0.372c0,0.16 -0.045,0.284 -0.135,0.372c-0.09,0.088 -0.22,0.132 -0.389,0.132l-0.232,0l0,0.5Z" style="fill:white;fill-rule:nonzero;"/>
                <path d="M6.454,-1.508l0,0.82c0,0.044 0.002,0.089 0.005,0.135c0.003,0.046 0.013,0.088 0.03,0.125c0.017,0.037 0.043,0.068 0.079,0.091c0.036,0.023 0.087,0.035 0.152,0.035c0.065,0 0.116,-0.012 0.151,-0.035c0.035,-0.023 0.062,-0.054 0.079,-0.091c0.017,-0.037 0.028,-0.079 0.031,-0.125c0.003,-0.046 0.005,-0.091 0.005,-0.135l0,-0.82l0.39,0l0,0.874c0,0.235 -0.054,0.406 -0.161,0.514c-0.107,0.108 -0.272,0.162 -0.495,0.162c-0.223,0 -0.388,-0.054 -0.496,-0.162c-0.108,-0.108 -0.162,-0.279 -0.162,-0.514l0,-0.874l0.392,0Z" style="fill:white;fill-rule:nonzero;"/>
                <path d="M8.264,-1.176l0,1.176l-0.392,0l0,-1.176l-0.322,0l0,-0.332l1.036,0l0,0.332l-0.322,0Z" style="fill:white;fill-rule:nonzero;"/>
            </g>
        </g>
        <g transform="matrix(4.00166,0,0,4.00166,8.31887,219.528)">
            <g id="text9293-42" serif:id="text9293-4">
                <path d="M0.986,-1.122c-0.043,-0.035 -0.085,-0.06 -0.128,-0.077c-0.043,-0.017 -0.084,-0.025 -0.124,-0.025c-0.051,0 -0.092,0.012 -0.124,0.036c-0.032,0.024 -0.048,0.055 -0.048,0.094c0,0.027 0.008,0.049 0.024,0.066c0.016,0.017 0.037,0.032 0.063,0.045c0.026,0.013 0.055,0.024 0.088,0.033c0.033,0.009 0.065,0.019 0.097,0.03c0.128,0.043 0.222,0.1 0.281,0.171c0.059,0.071 0.089,0.164 0.089,0.279c0,0.077 -0.013,0.147 -0.039,0.21c-0.026,0.063 -0.064,0.116 -0.114,0.161c-0.05,0.045 -0.111,0.079 -0.184,0.104c-0.073,0.025 -0.155,0.037 -0.247,0.037c-0.191,0 -0.367,-0.057 -0.53,-0.17l0.168,-0.316c0.059,0.052 0.117,0.091 0.174,0.116c0.057,0.025 0.114,0.038 0.17,0.038c0.064,0 0.112,-0.015 0.143,-0.044c0.031,-0.029 0.047,-0.063 0.047,-0.1c0,-0.023 -0.004,-0.042 -0.012,-0.059c-0.008,-0.017 -0.021,-0.032 -0.04,-0.046c-0.019,-0.014 -0.043,-0.027 -0.073,-0.039c-0.03,-0.012 -0.066,-0.025 -0.109,-0.04c-0.051,-0.016 -0.1,-0.034 -0.149,-0.053c-0.049,-0.019 -0.092,-0.045 -0.13,-0.077c-0.038,-0.032 -0.069,-0.072 -0.092,-0.121c-0.023,-0.049 -0.035,-0.11 -0.035,-0.185c0,-0.075 0.012,-0.142 0.037,-0.203c0.025,-0.061 0.059,-0.113 0.104,-0.156c0.045,-0.043 0.099,-0.077 0.164,-0.101c0.065,-0.024 0.137,-0.036 0.217,-0.036c0.075,0 0.153,0.01 0.234,0.031c0.081,0.021 0.159,0.051 0.234,0.091l-0.156,0.306Z" style="fill:white;fill-rule:nonzero;"/>
                <path d="M2.308,-1.176l-0.466,0l0,0.252l0.44,0l0,0.332l-0.44,0l0,0.26l0.466,0l0,0.332l-0.858,0l0,-1.508l0.858,0l0,0.332Z" style="fill:white;fill-rule:nonzero;"/>
                <path d="M2.59,0l0,-1.508l0.392,0l0.724,0.922l0,-0.922l0.39,0l0,1.508l-0.39,0l-0.724,-0.922l0,0.922l-0.392,0Z" style="fill:white;fill-rule:nonzero;"/>
                <path d="M4.804,-0.332l0.09,0c0.068,0 0.129,-0.011 0.182,-0.032c0.053,-0.021 0.098,-0.051 0.135,-0.088c0.037,-0.037 0.065,-0.082 0.084,-0.133c0.019,-0.051 0.029,-0.108 0.029,-0.169c0,-0.06 -0.01,-0.116 -0.03,-0.168c-0.02,-0.052 -0.048,-0.097 -0.085,-0.134c-0.037,-0.037 -0.082,-0.067 -0.135,-0.088c-0.053,-0.021 -0.113,-0.032 -0.18,-0.032l-0.09,0l0,0.844Zm-0.392,-1.176l0.58,0c0.103,0 0.199,0.021 0.289,0.062c0.09,0.041 0.169,0.096 0.236,0.165c0.067,0.069 0.12,0.149 0.159,0.24c0.039,0.091 0.058,0.187 0.058,0.287c0,0.099 -0.019,0.194 -0.057,0.285c-0.038,0.091 -0.091,0.172 -0.158,0.241c-0.067,0.069 -0.146,0.125 -0.236,0.166c-0.09,0.041 -0.187,0.062 -0.291,0.062l-0.58,0l0,-1.508Z" style="fill:white;fill-rule:nonzero;"/>
            </g>
        </g>
        <g transform="matrix(4.00166,0,0,4.00166,-0.681129,198.528)">
            <g id="text9293-43" serif:id="text9293-4">
                <path d="M1.244,-1.004c-0.091,-0.111 -0.203,-0.166 -0.336,-0.166c-0.059,0 -0.113,0.011 -0.163,0.032c-0.05,0.021 -0.093,0.05 -0.129,0.087c-0.036,0.037 -0.064,0.08 -0.085,0.131c-0.021,0.051 -0.031,0.105 -0.031,0.164c0,0.06 0.01,0.115 0.031,0.166c0.021,0.051 0.049,0.095 0.086,0.132c0.037,0.037 0.08,0.067 0.129,0.088c0.049,0.021 0.103,0.032 0.16,0.032c0.125,0 0.238,-0.053 0.338,-0.16l0,0.464l-0.04,0.014c-0.06,0.021 -0.116,0.037 -0.168,0.047c-0.052,0.01 -0.103,0.015 -0.154,0.015c-0.104,0 -0.204,-0.02 -0.299,-0.059c-0.095,-0.039 -0.179,-0.095 -0.252,-0.166c-0.073,-0.071 -0.131,-0.156 -0.175,-0.254c-0.044,-0.098 -0.066,-0.205 -0.066,-0.321c0,-0.116 0.022,-0.222 0.065,-0.319c0.043,-0.097 0.101,-0.18 0.174,-0.25c0.073,-0.07 0.157,-0.125 0.253,-0.164c0.096,-0.039 0.197,-0.059 0.302,-0.059c0.06,0 0.119,0.006 0.177,0.019c0.058,0.013 0.119,0.032 0.183,0.059l0,0.468Z" style="fill:white;fill-rule:nonzero;"/>
                <path d="M1.856,-0.754c0,0.06 0.011,0.115 0.034,0.166c0.023,0.051 0.053,0.095 0.092,0.132c0.039,0.037 0.084,0.066 0.135,0.087c0.051,0.021 0.106,0.031 0.163,0.031c0.057,0 0.112,-0.01 0.163,-0.031c0.051,-0.021 0.097,-0.05 0.136,-0.087c0.039,-0.037 0.07,-0.081 0.093,-0.132c0.023,-0.051 0.034,-0.106 0.034,-0.166c0,-0.06 -0.011,-0.115 -0.034,-0.166c-0.023,-0.051 -0.054,-0.095 -0.093,-0.132c-0.039,-0.037 -0.085,-0.066 -0.136,-0.087c-0.051,-0.021 -0.106,-0.031 -0.163,-0.031c-0.057,0 -0.112,0.01 -0.163,0.031c-0.051,0.021 -0.096,0.05 -0.135,0.087c-0.039,0.037 -0.069,0.081 -0.092,0.132c-0.023,0.051 -0.034,0.106 -0.034,0.166Zm-0.41,0c0,-0.112 0.021,-0.216 0.062,-0.313c0.041,-0.097 0.099,-0.181 0.172,-0.253c0.073,-0.072 0.161,-0.128 0.263,-0.169c0.102,-0.041 0.214,-0.061 0.337,-0.061c0.121,0 0.233,0.02 0.336,0.061c0.103,0.041 0.191,0.097 0.265,0.169c0.074,0.072 0.132,0.156 0.173,0.253c0.041,0.097 0.062,0.201 0.062,0.313c0,0.112 -0.021,0.216 -0.062,0.313c-0.041,0.097 -0.099,0.181 -0.173,0.253c-0.074,0.072 -0.162,0.128 -0.265,0.169c-0.103,0.041 -0.215,0.061 -0.336,0.061c-0.123,0 -0.235,-0.02 -0.337,-0.061c-0.102,-0.041 -0.19,-0.097 -0.263,-0.169c-0.073,-0.072 -0.131,-0.156 -0.172,-0.253c-0.041,-0.097 -0.062,-0.201 -0.062,-0.313Z" style="fill:white;fill-rule:nonzero;"/>
                <path d="M3.364,0l0,-1.508l0.392,0l0.724,0.922l0,-0.922l0.39,0l0,1.508l-0.39,0l-0.724,-0.922l0,0.922l-0.392,0Z" style="fill:white;fill-rule:nonzero;"/>
                <path d="M5.758,-1.176l0,1.176l-0.392,0l0,-1.176l-0.322,0l0,-0.332l1.036,0l0,0.332l-0.322,0Z" style="fill:white;fill-rule:nonzero;"/>
                <path d="M6.646,-0.834l0.074,0c0.077,0 0.137,-0.016 0.178,-0.048c0.041,-0.032 0.062,-0.078 0.062,-0.138c0,-0.06 -0.021,-0.106 -0.062,-0.138c-0.041,-0.032 -0.101,-0.048 -0.178,-0.048l-0.074,0l0,0.372Zm0.862,0.834l-0.488,0l-0.374,-0.58l0,0.58l-0.392,0l0,-1.508l0.61,0c0.084,0 0.157,0.012 0.22,0.037c0.063,0.025 0.114,0.058 0.155,0.101c0.041,0.043 0.071,0.092 0.092,0.148c0.021,0.056 0.031,0.116 0.031,0.18c0,0.115 -0.028,0.208 -0.083,0.279c-0.055,0.071 -0.137,0.12 -0.245,0.145l0.474,0.618Z" style="fill:white;fill-rule:nonzero;"/>
                <path d="M7.986,-0.754c0,0.06 0.011,0.115 0.034,0.166c0.023,0.051 0.053,0.095 0.092,0.132c0.039,0.037 0.084,0.066 0.135,0.087c0.051,0.021 0.106,0.031 0.163,0.031c0.057,0 0.112,-0.01 0.163,-0.031c0.051,-0.021 0.097,-0.05 0.136,-0.087c0.039,-0.037 0.07,-0.081 0.093,-0.132c0.023,-0.051 0.034,-0.106 0.034,-0.166c0,-0.06 -0.011,-0.115 -0.034,-0.166c-0.023,-0.051 -0.054,-0.095 -0.093,-0.132c-0.039,-0.037 -0.085,-0.066 -0.136,-0.087c-0.051,-0.021 -0.106,-0.031 -0.163,-0.031c-0.057,0 -0.112,0.01 -0.163,0.031c-0.051,0.021 -0.096,0.05 -0.135,0.087c-0.039,0.037 -0.069,0.081 -0.092,0.132c-0.023,0.051 -0.034,0.106 -0.034,0.166Zm-0.41,0c0,-0.112 0.021,-0.216 0.062,-0.313c0.041,-0.097 0.099,-0.181 0.172,-0.253c0.073,-0.072 0.161,-0.128 0.263,-0.169c0.102,-0.041 0.214,-0.061 0.337,-0.061c0.121,0 0.233,0.02 0.336,0.061c0.103,0.041 0.191,0.097 0.265,0.169c0.074,0.072 0.132,0.156 0.173,0.253c0.041,0.097 0.062,0.201 0.062,0.313c0,0.112 -0.021,0.216 -0.062,0.313c-0.041,0.097 -0.099,0.181 -0.173,0.253c-0.074,0.072 -0.162,0.128 -0.265,0.169c-0.103,0.041 -0.215,0.061 -0.336,0.061c-0.123,0 -0.235,-0.02 -0.337,-0.061c-0.102,-0.041 -0.19,-0.097 -0.263,-0.169c-0.073,-0.072 -0.131,-0.156 -0.172,-0.253c-0.041,-0.097 -0.062,-0.201 -0.062,-0.313Z" style="fill:white;fill-rule:nonzero;"/>
                <path d="M9.886,-1.508l0,1.176l0.47,0l0,0.332l-0.862,0l0,-1.508l0.392,0Z" style="fill:white;fill-rule:nonzero;"/>
            </g>
        </g>
        <g transform="matrix(4.00166,0,0,4.00166,2.28997,261.528)">
            <g id="text9293-44" serif:id="text9293-4">
                <path d="M0.55,-0.834l0.074,0c0.077,0 0.137,-0.016 0.178,-0.048c0.041,-0.032 0.062,-0.078 0.062,-0.138c0,-0.06 -0.021,-0.106 -0.062,-0.138c-0.041,-0.032 -0.101,-0.048 -0.178,-0.048l-0.074,0l0,0.372Zm0.862,0.834l-0.488,0l-0.374,-0.58l0,0.58l-0.392,0l0,-1.508l0.61,0c0.084,0 0.157,0.012 0.22,0.037c0.063,0.025 0.114,0.058 0.155,0.101c0.041,0.043 0.071,0.092 0.092,0.148c0.021,0.056 0.031,0.116 0.031,0.18c0,0.115 -0.028,0.208 -0.083,0.279c-0.055,0.071 -0.137,0.12 -0.245,0.145l0.474,0.618Z" style="fill:white;fill-rule:nonzero;"/>
                <path d="M2.434,-1.176l-0.466,0l0,0.252l0.44,0l0,0.332l-0.44,0l0,0.26l0.466,0l0,0.332l-0.858,0l0,-1.508l0.858,0l0,0.332Z" style="fill:white;fill-rule:nonzero;"/>
                <path d="M3.288,-1.176l0,1.176l-0.392,0l0,-1.176l-0.322,0l0,-0.332l1.036,0l0,0.332l-0.322,0Z" style="fill:white;fill-rule:nonzero;"/>
                <path d="M4.176,-1.508l0,0.82c0,0.044 0.002,0.089 0.005,0.135c0.003,0.046 0.013,0.088 0.03,0.125c0.017,0.037 0.043,0.068 0.079,0.091c0.036,0.023 0.087,0.035 0.152,0.035c0.065,0 0.116,-0.012 0.151,-0.035c0.035,-0.023 0.062,-0.054 0.079,-0.091c0.017,-0.037 0.028,-0.079 0.031,-0.125c0.003,-0.046 0.005,-0.091 0.005,-0.135l0,-0.82l0.39,0l0,0.874c0,0.235 -0.054,0.406 -0.161,0.514c-0.107,0.108 -0.272,0.162 -0.495,0.162c-0.223,0 -0.388,-0.054 -0.496,-0.162c-0.108,-0.108 -0.162,-0.279 -0.162,-0.514l0,-0.874l0.392,0Z" style="fill:white;fill-rule:nonzero;"/>
                <path d="M5.806,-0.834l0.074,0c0.077,0 0.137,-0.016 0.178,-0.048c0.041,-0.032 0.062,-0.078 0.062,-0.138c0,-0.06 -0.021,-0.106 -0.062,-0.138c-0.041,-0.032 -0.101,-0.048 -0.178,-0.048l-0.074,0l0,0.372Zm0.862,0.834l-0.488,0l-0.374,-0.58l0,0.58l-0.392,0l0,-1.508l0.61,0c0.084,0 0.157,0.012 0.22,0.037c0.063,0.025 0.114,0.058 0.155,0.101c0.041,0.043 0.071,0.092 0.092,0.148c0.021,0.056 0.031,0.116 0.031,0.18c0,0.115 -0.028,0.208 -0.083,0.279c-0.055,0.071 -0.137,0.12 -0.245,0.145l0.474,0.618Z" style="fill:white;fill-rule:nonzero;"/>
                <path d="M6.832,0l0,-1.508l0.392,0l0.724,0.922l0,-0.922l0.39,0l0,1.508l-0.39,0l-0.724,-0.922l0,0.922l-0.392,0Z" style="fill:white;fill-rule:nonzero;"/>
            </g>
        </g>
        <g transform="matrix(1,0,0,1,-58.6709,56.7292)">
            <g transform="matrix(0.925161,0,0,1.35714,50.0923,-8.11366)">
                <path d="M48,47.8c0,-1.545 -1.84,-2.8 -4.107,-2.8l-27.455,0c-2.267,0 -4.107,1.255 -4.107,2.8l0,8.4c0,1.545 1.84,2.8 4.107,2.8l27.455,0c2.267,0 4.107,-1.255 4.107,-2.8l0,-8.4Z" style="fill:rgb(75,75,75);stroke:rgb(115,115,115);stroke-width:0.86px;stroke-linecap:round;stroke-linejoin:round;stroke-miterlimit:1.5;"/>
            </g>
            <g transform="matrix(0.869091,0,0,1.14835,51.7836,2.74349)">
                <path d="M48,47.8c0,-1.545 -1.658,-2.8 -3.7,-2.8l-28.27,0c-2.042,0 -3.699,1.255 -3.699,2.8l0,8.4c0,1.545 1.657,2.8 3.699,2.8l28.27,0c2.042,0 3.7,-1.255 3.7,-2.8l0,-8.4Z" style="fill:rgb(38,38,38);stroke:rgb(38,38,38);stroke-width:0.49px;stroke-linecap:round;stroke-linejoin:round;stroke-miterlimit:1.5;"/>
            </g>
        </g>
    </g>
</svg>
