<?xml version="1.0" encoding="UTF-8" standalone="no"?>
<!DOCTYPE svg PUBLIC "-//W3C//DTD SVG 1.1//EN" "http://www.w3.org/Graphics/SVG/1.1/DTD/svg11.dtd">
<svg width="120px" height="380px" version="1.1" xmlns="http://www.w3.org/2000/svg" xmlns:xlink="http://www.w3.org/1999/xlink" xml:space="preserve" xmlns:serif="http://www.serif.com/" style="fill-rule:evenodd;clip-rule:evenodd;">
    <g id="Panel" transform="matrix(1,0,0,1,40.1709,-56.7292)">
        <g id="rect9931" transform="matrix(3.03152,0,0,3.78266,-40.3344,-686.609)">
            <rect x="0.054" y="196.512" width="39.584" height="100.458" style="fill:rgb(26,26,26);"/>
        </g>
        <g id="path8216-1-5-0-2" transform="matrix(4.00166,0,0,-4.00166,-138.988,-767.405)">
            <path d="M31.417,-243.598c0.684,1.185 0.416,2.705 -0.633,3.585c-1.048,0.88 -2.592,0.88 -3.64,0c-1.049,-0.88 -1.317,-2.4 -0.633,-3.585l2.453,1.416l2.453,-1.416Z" style="fill:none;stroke:rgb(204,204,204);stroke-width:0.26px;"/>
        </g>
        <g id="path9630-2-6-1" transform="matrix(4.00166,0,0,4.00166,-138.988,-766.405)">
            <path d="M31.324,243.897l0.006,1.102" style="fill:rgb(204,204,204);fill-rule:nonzero;stroke:rgb(204,204,204);stroke-width:0.26px;"/>
        </g>
        <g id="path9630-1-1-4-7" transform="matrix(4.00166,0,0,4.00166,-138.988,-766.405)">
            <path d="M31.878,244.44l-1.102,0.005" style="fill:rgb(204,204,204);fill-rule:nonzero;stroke:rgb(204,204,204);stroke-width:0.26px;"/>
        </g>
        <g id="path9630-1-6-9-9-2" transform="matrix(4.00166,0,0,4.00166,-138.988,-766.405)">
            <path d="M27.3,244.409l-1.103,0.005" style="fill:rgb(204,204,204);fill-rule:nonzero;stroke:rgb(204,204,204);stroke-width:0.26px;"/>
        </g>
        <g id="path9948-9-9-4" transform="matrix(4.00166,0,0,4.00166,-138.988,-767.405)">
            <path d="M28.964,242.183l-0.006,-3.326" style="fill:none;stroke:rgb(204,204,204);stroke-width:0.29px;"/>
        </g>
        <g id="path8216-1-5-0-21" serif:id="path8216-1-5-0-2" transform="matrix(4.00166,0,0,-4.00166,-138.988,-767.405)">
            <path d="M31.417,-243.598c0.684,1.185 0.416,2.705 -0.633,3.585c-1.048,0.88 -2.592,0.88 -3.64,0c-1.049,-0.88 -1.317,-2.4 -0.633,-3.585l2.453,1.416l2.453,-1.416Z" style="fill:none;stroke:rgb(204,204,204);stroke-width:0.26px;"/>
        </g>
        <g id="path9630-2-6-11" serif:id="path9630-2-6-1" transform="matrix(4.00166,0,0,4.00166,-138.988,-766.405)">
            <path d="M31.324,243.897l0.006,1.102" style="fill:rgb(204,204,204);fill-rule:nonzero;stroke:rgb(204,204,204);stroke-width:0.26px;"/>
        </g>
        <g id="path9630-1-1-4-71" serif:id="path9630-1-1-4-7" transform="matrix(4.00166,0,0,4.00166,-138.988,-766.405)">
            <path d="M31.878,244.44l-1.102,0.005" style="fill:rgb(204,204,204);fill-rule:nonzero;stroke:rgb(204,204,204);stroke-width:0.26px;"/>
        </g>
        <g id="path9630-1-6-9-9-21" serif:id="path9630-1-6-9-9-2" transform="matrix(4.00166,0,0,4.00166,-138.988,-766.405)">
            <path d="M27.3,244.409l-1.103,0.005" style="fill:rgb(204,204,204);fill-rule:nonzero;stroke:rgb(204,204,204);stroke-width:0.26px;"/>
        </g>
        <g id="path9948-9-9-41" serif:id="path9948-9-9-4" transform="matrix(4.00166,0,0,4.00166,-138.988,-767.405)">
            <path d="M28.964,242.183l-0.006,-3.326" style="fill:none;stroke:rgb(204,204,204);stroke-width:0.29px;"/>
        </g>
        <g transform="matrix(1.33192,0,0,1.33192,-5.48227,89.1704)">
            <g id="text7967">
                <path d="M2.597,-4.184l2.258,-2.937l2.285,0l-2.824,3.371l3.089,3.75l-2.399,0l-2.409,-3.088l0,3.088l-1.851,0l0,-7.121l1.851,0l0,2.937Z" style="fill:rgb(102,102,102);fill-rule:nonzero;"/>
                <path d="M8.227,0l0,-7.121l1.851,0l3.419,4.354l0,-4.354l1.842,0l0,7.121l-1.842,0l-3.419,-4.354l0,4.354l-1.851,0Z" style="fill:rgb(102,102,102);fill-rule:nonzero;"/>
                <path d="M18.531,-3.561c0,0.284 0.053,0.545 0.16,0.784c0.107,0.239 0.252,0.447 0.435,0.624c0.183,0.176 0.395,0.313 0.637,0.41c0.243,0.098 0.499,0.147 0.77,0.147c0.271,0 0.528,-0.049 0.77,-0.147c0.242,-0.097 0.456,-0.234 0.642,-0.41c0.186,-0.177 0.332,-0.385 0.439,-0.624c0.107,-0.239 0.161,-0.5 0.161,-0.784c0,-0.283 -0.054,-0.544 -0.161,-0.784c-0.107,-0.239 -0.253,-0.447 -0.439,-0.623c-0.186,-0.176 -0.4,-0.313 -0.642,-0.411c-0.242,-0.097 -0.499,-0.146 -0.77,-0.146c-0.271,0 -0.527,0.049 -0.77,0.146c-0.242,0.098 -0.454,0.235 -0.637,0.411c-0.183,0.176 -0.328,0.384 -0.435,0.623c-0.107,0.24 -0.16,0.501 -0.16,0.784Zm-1.936,0c0,-0.529 0.097,-1.021 0.292,-1.478c0.196,-0.456 0.466,-0.855 0.813,-1.195c0.346,-0.34 0.76,-0.606 1.242,-0.798c0.481,-0.192 1.012,-0.288 1.591,-0.288c0.573,0 1.102,0.096 1.587,0.288c0.485,0.192 0.902,0.458 1.251,0.798c0.35,0.34 0.622,0.739 0.817,1.195c0.196,0.457 0.293,0.949 0.293,1.478c0,0.529 -0.097,1.022 -0.293,1.478c-0.195,0.457 -0.467,0.855 -0.817,1.195c-0.349,0.34 -0.766,0.606 -1.251,0.798c-0.485,0.192 -1.014,0.288 -1.587,0.288c-0.579,0 -1.11,-0.096 -1.591,-0.288c-0.482,-0.192 -0.896,-0.458 -1.242,-0.798c-0.347,-0.34 -0.617,-0.738 -0.813,-1.195c-0.195,-0.456 -0.292,-0.949 -0.292,-1.478Z" style="fill:rgb(102,102,102);fill-rule:nonzero;"/>
                <path d="M27.504,-1.436l0.406,0c0.466,0 0.799,-0.059 1.001,-0.179c0.201,-0.12 0.302,-0.312 0.302,-0.576c0,-0.265 -0.101,-0.457 -0.302,-0.576c-0.202,-0.12 -0.535,-0.18 -1.001,-0.18l-0.406,0l0,1.511Zm0,-2.89l0.34,0c0.579,0 0.868,-0.23 0.868,-0.689c0,-0.46 -0.289,-0.69 -0.868,-0.69l-0.34,0l0,1.379Zm-1.852,-2.795l2.758,0c0.655,0 1.153,0.157 1.493,0.472c0.34,0.315 0.51,0.768 0.51,1.36c0,0.359 -0.065,0.656 -0.194,0.892c-0.129,0.237 -0.326,0.436 -0.59,0.6c0.264,0.051 0.489,0.128 0.675,0.232c0.186,0.103 0.337,0.231 0.453,0.382c0.117,0.151 0.2,0.321 0.251,0.51c0.05,0.189 0.075,0.39 0.075,0.605c0,0.333 -0.058,0.629 -0.175,0.887c-0.116,0.259 -0.28,0.476 -0.491,0.652c-0.211,0.176 -0.467,0.309 -0.769,0.397c-0.303,0.088 -0.643,0.132 -1.021,0.132l-2.975,0l0,-7.121Z" style="fill:rgb(102,102,102);fill-rule:nonzero;"/>
                <path d="M36.098,-5.299c-0.201,-0.163 -0.403,-0.285 -0.604,-0.363c-0.202,-0.079 -0.397,-0.118 -0.586,-0.118c-0.239,0 -0.434,0.056 -0.585,0.17c-0.151,0.113 -0.227,0.261 -0.227,0.444c0,0.126 0.038,0.229 0.113,0.311c0.076,0.082 0.175,0.153 0.298,0.213c0.123,0.06 0.261,0.112 0.416,0.156c0.154,0.044 0.306,0.091 0.458,0.141c0.604,0.202 1.046,0.471 1.327,0.808c0.28,0.337 0.42,0.776 0.42,1.317c0,0.366 -0.061,0.696 -0.184,0.992c-0.123,0.296 -0.303,0.55 -0.539,0.76c-0.236,0.211 -0.525,0.375 -0.869,0.492c-0.343,0.116 -0.732,0.174 -1.166,0.174c-0.9,0 -1.735,-0.267 -2.503,-0.802l0.793,-1.493c0.278,0.246 0.551,0.428 0.822,0.548c0.271,0.12 0.539,0.179 0.803,0.179c0.302,0 0.527,-0.069 0.675,-0.207c0.148,-0.139 0.222,-0.296 0.222,-0.473c0,-0.107 -0.019,-0.199 -0.056,-0.278c-0.038,-0.079 -0.101,-0.151 -0.189,-0.217c-0.088,-0.067 -0.203,-0.128 -0.345,-0.185c-0.142,-0.056 -0.313,-0.119 -0.515,-0.188c-0.239,-0.076 -0.474,-0.159 -0.703,-0.251c-0.23,-0.091 -0.435,-0.212 -0.614,-0.363c-0.18,-0.152 -0.325,-0.342 -0.435,-0.572c-0.11,-0.23 -0.165,-0.521 -0.165,-0.873c0,-0.353 0.058,-0.673 0.175,-0.959c0.116,-0.287 0.28,-0.532 0.491,-0.737c0.211,-0.204 0.469,-0.363 0.774,-0.477c0.306,-0.113 0.647,-0.17 1.025,-0.17c0.353,0 0.721,0.049 1.105,0.147c0.384,0.097 0.752,0.24 1.105,0.429l-0.737,1.445Z" style="fill:rgb(102,102,102);fill-rule:nonzero;"/>
            </g>
        </g>
        <g id="g50" transform="matrix(0.0626855,0,0,0.0626855,2.13822,358.343)">
            <path id="path42" d="M224.699,869.111l27.948,0l26.026,86.945l26.911,-86.945l27.806,0l-36.174,108.69c-3.38,10.021 -9.436,15.027 -18.173,15.027c-8.854,0 -14.971,-5.059 -18.345,-15.181l-35.999,-108.536Z" style="fill:rgb(102,102,102);fill-rule:nonzero;"/>
            <path id="path44" d="M335.484,961.026l0,-91.915l26.211,0l0,91.041c0.464,3.263 3.495,4.893 9.087,4.893l17.824,0c5.357,0 8.328,-1.512 8.912,-4.543l0.175,-0.874l0,-90.517l26.211,0l0,91.74c0,8.038 -0.873,13.747 -2.621,17.125c-4.66,8.972 -12.873,13.455 -24.639,13.455l-33.9,0c-12.118,0 -20.388,-4.601 -24.814,-13.805c-1.632,-3.377 -2.446,-8.911 -2.446,-16.6l0,0Z" style="fill:rgb(102,102,102);fill-rule:nonzero;"/>
            <path id="path46" d="M435.961,961.551l0,-92.439l26.212,0l0,90.342c0,3.73 2.211,5.592 6.64,5.592l46.657,0l-0.175,26.387l-48.754,0c-1.747,0 -3.263,-0.058 -4.543,-0.175c-9.437,-0.813 -16.137,-3.582 -20.096,-8.3c-3.962,-4.72 -5.941,-11.854 -5.941,-21.407l0,0Z" style="fill:rgb(102,102,102);fill-rule:nonzero;"/>
            <path id="path48" d="M516.341,895.497l0,-26.386l78.635,0l0,26.386l-26.386,0l0,95.935l-26.212,0l0,-95.935l-26.037,0Z" style="fill:rgb(102,102,102);fill-rule:nonzero;"/>
        </g>
        <g id="g8091" transform="matrix(0.0359254,0,0,0.0359254,5.65812,413.313)">
            <path id="path4" d="M210.282,78.87c0,-125.517 -101.752,-227.268 -227.271,-227.268c-125.514,0 -227.267,101.751 -227.267,227.268c0,125.516 101.752,227.268 227.267,227.268c125.519,0 227.271,-101.752 227.271,-227.268l0,0Z" style="fill:rgb(117,117,117);fill-rule:nonzero;stroke:rgb(53,53,53);stroke-width:17px;stroke-miterlimit:10;"/>
            <g id="g40" transform="matrix(1,0,0,1,-426.825,-542.575)">
                <path id="polygon6" d="M357.002,759.965l15.391,-24.781l-29.594,-66.614l-61.688,-63.583l12.788,86.322l16.629,35.632l23.179,35.166l23.295,-2.142Z" style="fill:rgb(43,43,43);fill-rule:nonzero;"/>
                <path id="polygon8" d="M460.762,760.17l-15.392,-24.783l29.597,-66.612l61.685,-63.582l-12.787,86.321l-16.63,35.631l-23.175,35.168l-23.298,-2.143Z" style="fill:rgb(38,38,38);fill-rule:nonzero;"/>
                <path id="polygon12" d="M337.948,452.81l71.936,-18.383l0,374.323l-37.568,-73.799l-29.517,-66.381l-28.471,-16.175l-57.105,-81.295l-1.598,-21.58l31.971,-57.547l50.352,-39.163Z" style="fill:rgb(66,66,66);fill-rule:nonzero;"/>
                <path id="polygon14" d="M481.727,452.944l-71.932,-18.382l0,374.325l37.564,-73.801l29.518,-66.379l28.473,-16.178l57.101,-81.295l1.599,-21.579l-31.969,-57.547l-50.354,-39.164Z" style="fill:rgb(51,51,51);fill-rule:nonzero;"/>
                <path id="polyline16" d="M361.886,616.429l47.96,-46.887l0,34.229l-47.96,47.827l0,-35.169" style="fill:rgb(76,76,76);fill-rule:nonzero;"/>
                <path id="polygon18" d="M409.881,603.732l-47.957,47.827l10.469,83.625l37.491,73.566l-0.003,-205.018Z" style="fill:rgb(91,91,91);fill-rule:nonzero;"/>
                <path id="polygon20" d="M409.884,808.75l-37.491,-73.566l37.485,-17.672l0.006,91.238Z" style="fill:rgb(51,51,51);fill-rule:nonzero;"/>
                <path id="polygon22" d="M361.924,651.559l0,-35.169l-34.766,-43.958l-41.119,-33.129l-0.043,25.934l21.582,50.752l54.346,35.57Z" style="fill:white;fill-rule:nonzero;"/>
                <path id="polyline24" d="M457.816,616.448l-47.957,-46.887l0,34.229l47.957,47.826l0,-35.168" style="fill:rgb(45,45,45);fill-rule:nonzero;"/>
                <path id="polygon26" d="M409.804,603.732l47.954,47.827l-10.469,83.625l-37.488,73.566l0.003,-205.018Z" style="fill:rgb(53,53,53);fill-rule:nonzero;"/>
                <path id="polygon28" d="M409.801,808.75l37.488,-73.566l-37.482,-17.672l-0.006,91.238Z" style="fill:rgb(25,25,25);fill-rule:nonzero;"/>
                <path id="polygon30" d="M457.758,651.559l0,-35.168l34.765,-43.958l41.122,-33.13l0.041,25.935l-21.578,50.753l-54.35,35.568Z" style="fill:white;fill-rule:nonzero;"/>
                <path id="polyline32" d="M338.399,452.22l71.425,117.329l-0.154,-135.546" style="fill:rgb(56,56,56);fill-rule:nonzero;"/>
                <path id="polyline34" d="M481.271,452.232l-71.425,117.329l0.154,-135.545" style="fill:rgb(45,45,45);fill-rule:nonzero;"/>
                <path id="polygon36" d="M342.815,668.578l19.143,-16.982l10.448,83.674l-29.591,-66.692Z" style="fill:rgb(51,51,51);fill-rule:nonzero;"/>
                <path id="polygon38" d="M476.975,668.989l-19.144,-16.982l-10.448,83.675l29.592,-66.693Z" style="fill:rgb(28,28,28);fill-rule:nonzero;"/>
            </g>
        </g>
        <g transform="matrix(0.390244,0,0,1.1808,-38.9026,18.7963)">
            <path d="M294,70.743c0,-2.618 -6.43,-4.743 -14.35,-4.743l-258.3,0c-7.92,0 -14.35,2.125 -14.35,4.743l0,114.514c0,2.618 6.43,4.743 14.35,4.743l258.3,0c7.92,0 14.35,-2.125 14.35,-4.743l0,-114.514Z" style="fill:none;stroke:rgb(77,77,77);stroke-width:1.71px;stroke-linecap:round;stroke-linejoin:round;stroke-miterlimit:1.5;"/>
        </g>
        <g transform="matrix(4.00166,0,0,4.00166,58.4616,152.87)">
            <path d="M0.412,-0.228l0.065,0c0.074,0 0.127,-0.009 0.159,-0.028c0.032,-0.019 0.048,-0.05 0.048,-0.092c0,-0.042 -0.016,-0.072 -0.048,-0.091c-0.032,-0.019 -0.085,-0.029 -0.159,-0.029l-0.065,0l0,0.24Zm0,-0.459l0.054,0c0.092,0 0.138,-0.036 0.138,-0.109c0,-0.073 -0.046,-0.11 -0.138,-0.11l-0.054,0l0,0.219Zm-0.294,-0.444l0.438,0c0.104,0 0.183,0.025 0.237,0.075c0.054,0.05 0.081,0.122 0.081,0.216c0,0.057 -0.01,0.105 -0.031,0.142c-0.02,0.038 -0.051,0.069 -0.093,0.095c0.042,0.008 0.077,0.02 0.107,0.037c0.029,0.016 0.053,0.037 0.072,0.061c0.018,0.024 0.032,0.051 0.04,0.081c0.008,0.03 0.012,0.062 0.012,0.096c0,0.053 -0.01,0.1 -0.028,0.141c-0.019,0.041 -0.045,0.075 -0.078,0.103c-0.034,0.028 -0.074,0.049 -0.122,0.063c-0.048,0.014 -0.102,0.021 -0.162,0.021l-0.473,0l0,-1.131Z" style="fill:white;fill-rule:nonzero;"/>
            <rect x="1.156" y="-1.131" width="0.294" height="1.131" style="fill:white;fill-rule:nonzero;"/>
            <path d="M1.981,-0.612l0.097,0c0.108,0 0.162,-0.047 0.162,-0.141c0,-0.094 -0.054,-0.141 -0.162,-0.141l-0.097,0l0,0.282Zm0,0.612l-0.294,0l0,-1.131l0.468,0c0.127,0 0.224,0.033 0.291,0.099c0.068,0.066 0.101,0.159 0.101,0.279c0,0.12 -0.033,0.213 -0.101,0.279c-0.067,0.066 -0.164,0.099 -0.291,0.099l-0.174,0l0,0.375Z" style="fill:white;fill-rule:nonzero;"/>
        </g>
        <g transform="matrix(4.00166,0,0,4.00166,58.4616,164.87)">
            <path d="M0.067,0l0.192,-1.131l0.291,0l0.227,0.603l0.225,-0.603l0.29,0l0.192,1.131l-0.292,0l-0.097,-0.651l-0.267,0.651l-0.117,0l-0.254,-0.651l-0.097,0.651l-0.293,0Z" style="fill:white;fill-rule:nonzero;"/>
            <rect x="1.67" y="-1.131" width="0.294" height="1.131" style="fill:white;fill-rule:nonzero;"/>
            <path d="M2.525,-0.603l-0.352,-0.528l0.362,0l0.153,0.293l0.189,-0.293l0.363,0l-0.373,0.528l0.421,0.603l-0.358,0l-0.227,-0.369l-0.265,0.369l-0.355,0l0.442,-0.603Z" style="fill:white;fill-rule:nonzero;"/>
        </g>
        <g transform="matrix(4.00166,0,0,4.00166,58.4616,141.359)">
            <path d="M0.412,-1.131l0,0.615c0,0.033 0.002,0.067 0.004,0.101c0.003,0.035 0.01,0.066 0.023,0.094c0.012,0.028 0.032,0.051 0.059,0.068c0.027,0.018 0.065,0.027 0.114,0.027c0.049,0 0.086,-0.009 0.113,-0.027c0.026,-0.017 0.046,-0.04 0.059,-0.068c0.013,-0.028 0.021,-0.059 0.023,-0.094c0.003,-0.034 0.004,-0.068 0.004,-0.101l0,-0.615l0.293,0l0,0.656c0,0.176 -0.041,0.304 -0.121,0.385c-0.081,0.081 -0.204,0.121 -0.371,0.121c-0.167,0 -0.291,-0.04 -0.372,-0.121c-0.081,-0.081 -0.122,-0.209 -0.122,-0.385l0,-0.656l0.294,0Z" style="fill:white;fill-rule:nonzero;"/>
            <path d="M1.34,0l0,-1.131l0.294,0l0.543,0.692l0,-0.692l0.292,0l0,1.131l-0.292,0l-0.543,-0.691l0,0.691l-0.294,0Z" style="fill:white;fill-rule:nonzero;"/>
            <rect x="2.706" y="-1.131" width="0.294" height="1.131" style="fill:white;fill-rule:nonzero;"/>
        </g>
        <g transform="matrix(4.00166,0,0,4.00166,58.4616,313.87)">
            <path d="M0.412,-0.228l0.065,0c0.074,0 0.127,-0.009 0.159,-0.028c0.032,-0.019 0.048,-0.05 0.048,-0.092c0,-0.042 -0.016,-0.072 -0.048,-0.091c-0.032,-0.019 -0.085,-0.029 -0.159,-0.029l-0.065,0l0,0.24Zm0,-0.459l0.054,0c0.092,0 0.138,-0.036 0.138,-0.109c0,-0.073 -0.046,-0.11 -0.138,-0.11l-0.054,0l0,0.219Zm-0.294,-0.444l0.438,0c0.104,0 0.183,0.025 0.237,0.075c0.054,0.05 0.081,0.122 0.081,0.216c0,0.057 -0.01,0.105 -0.031,0.142c-0.02,0.038 -0.051,0.069 -0.093,0.095c0.042,0.008 0.077,0.02 0.107,0.037c0.029,0.016 0.053,0.037 0.072,0.061c0.018,0.024 0.032,0.051 0.04,0.081c0.008,0.03 0.012,0.062 0.012,0.096c0,0.053 -0.01,0.1 -0.028,0.141c-0.019,0.041 -0.045,0.075 -0.078,0.103c-0.034,0.028 -0.074,0.049 -0.122,0.063c-0.048,0.014 -0.102,0.021 -0.162,0.021l-0.473,0l0,-1.131Z" style="fill:white;fill-rule:nonzero;"/>
            <rect x="1.156" y="-1.131" width="0.294" height="1.131" style="fill:white;fill-rule:nonzero;"/>
            <path d="M1.981,-0.612l0.097,0c0.108,0 0.162,-0.047 0.162,-0.141c0,-0.094 -0.054,-0.141 -0.162,-0.141l-0.097,0l0,0.282Zm0,0.612l-0.294,0l0,-1.131l0.468,0c0.127,0 0.224,0.033 0.291,0.099c0.068,0.066 0.101,0.159 0.101,0.279c0,0.12 -0.033,0.213 -0.101,0.279c-0.067,0.066 -0.164,0.099 -0.291,0.099l-0.174,0l0,0.375Z" style="fill:white;fill-rule:nonzero;"/>
        </g>
        <g transform="matrix(4.00166,0,0,4.00166,58.4616,325.87)">
            <path d="M0.067,0l0.192,-1.131l0.291,0l0.227,0.603l0.225,-0.603l0.29,0l0.192,1.131l-0.292,0l-0.097,-0.651l-0.267,0.651l-0.117,0l-0.254,-0.651l-0.097,0.651l-0.293,0Z" style="fill:white;fill-rule:nonzero;"/>
            <rect x="1.67" y="-1.131" width="0.294" height="1.131" style="fill:white;fill-rule:nonzero;"/>
            <path d="M2.525,-0.603l-0.352,-0.528l0.362,0l0.153,0.293l0.189,-0.293l0.363,0l-0.373,0.528l0.421,0.603l-0.358,0l-0.227,-0.369l-0.265,0.369l-0.355,0l0.442,-0.603Z" style="fill:white;fill-rule:nonzero;"/>
        </g>
        <g transform="matrix(4.00166,0,0,4.00166,58.4616,302.359)">
            <path d="M0.412,-1.131l0,0.615c0,0.033 0.002,0.067 0.004,0.101c0.003,0.035 0.01,0.066 0.023,0.094c0.012,0.028 0.032,0.051 0.059,0.068c0.027,0.018 0.065,0.027 0.114,0.027c0.049,0 0.086,-0.009 0.113,-0.027c0.026,-0.017 0.046,-0.04 0.059,-0.068c0.013,-0.028 0.021,-0.059 0.023,-0.094c0.003,-0.034 0.004,-0.068 0.004,-0.101l0,-0.615l0.293,0l0,0.656c0,0.176 -0.041,0.304 -0.121,0.385c-0.081,0.081 -0.204,0.121 -0.371,0.121c-0.167,0 -0.291,-0.04 -0.372,-0.121c-0.081,-0.081 -0.122,-0.209 -0.122,-0.385l0,-0.656l0.294,0Z" style="fill:white;fill-rule:nonzero;"/>
            <path d="M1.34,0l0,-1.131l0.294,0l0.543,0.692l0,-0.692l0.292,0l0,1.131l-0.292,0l-0.543,-0.691l0,0.691l-0.294,0Z" style="fill:white;fill-rule:nonzero;"/>
            <rect x="2.706" y="-1.131" width="0.294" height="1.131" style="fill:white;fill-rule:nonzero;"/>
        </g>
        <g id="path8216-1-5-0-22" serif:id="path8216-1-5-0-2" transform="matrix(4.00166,0,0,-4.00166,-110.988,-767.405)">
            <path d="M31.417,-243.598c0.684,1.185 0.416,2.705 -0.633,3.585c-1.048,0.88 -2.592,0.88 -3.64,0c-1.049,-0.88 -1.317,-2.4 -0.633,-3.585l2.453,1.416l2.453,-1.416Z" style="fill:none;stroke:rgb(204,204,204);stroke-width:0.26px;"/>
        </g>
        <g id="path9630-2-6-12" serif:id="path9630-2-6-1" transform="matrix(4.00166,0,0,4.00166,-110.988,-766.405)">
            <path d="M31.324,243.897l0.006,1.102" style="fill:rgb(204,204,204);fill-rule:nonzero;stroke:rgb(204,204,204);stroke-width:0.26px;"/>
        </g>
        <g id="path9630-1-1-4-72" serif:id="path9630-1-1-4-7" transform="matrix(4.00166,0,0,4.00166,-110.988,-766.405)">
            <path d="M31.878,244.44l-1.102,0.005" style="fill:rgb(204,204,204);fill-rule:nonzero;stroke:rgb(204,204,204);stroke-width:0.26px;"/>
        </g>
        <g id="path9630-1-6-9-9-22" serif:id="path9630-1-6-9-9-2" transform="matrix(4.00166,0,0,4.00166,-110.988,-766.405)">
            <path d="M27.3,244.409l-1.103,0.005" style="fill:rgb(204,204,204);fill-rule:nonzero;stroke:rgb(204,204,204);stroke-width:0.26px;"/>
        </g>
        <g id="path9948-9-9-42" serif:id="path9948-9-9-4" transform="matrix(4.00166,0,0,4.00166,-110.988,-767.405)">
            <path d="M28.964,242.183l-0.006,-3.326" style="fill:none;stroke:rgb(204,204,204);stroke-width:0.29px;"/>
        </g>
        <g id="path8216-1-5-0-23" serif:id="path8216-1-5-0-2" transform="matrix(4.00166,0,0,-4.00166,-110.988,-767.405)">
            <path d="M31.417,-243.598c0.684,1.185 0.416,2.705 -0.633,3.585c-1.048,0.88 -2.592,0.88 -3.64,0c-1.049,-0.88 -1.317,-2.4 -0.633,-3.585l2.453,1.416l2.453,-1.416Z" style="fill:none;stroke:rgb(204,204,204);stroke-width:0.26px;"/>
        </g>
        <g id="path9630-2-6-13" serif:id="path9630-2-6-1" transform="matrix(4.00166,0,0,4.00166,-110.988,-766.405)">
            <path d="M31.324,243.897l0.006,1.102" style="fill:rgb(204,204,204);fill-rule:nonzero;stroke:rgb(204,204,204);stroke-width:0.26px;"/>
        </g>
        <g id="path9630-1-1-4-73" serif:id="path9630-1-1-4-7" transform="matrix(4.00166,0,0,4.00166,-110.988,-766.405)">
            <path d="M31.878,244.44l-1.102,0.005" style="fill:rgb(204,204,204);fill-rule:nonzero;stroke:rgb(204,204,204);stroke-width:0.26px;"/>
        </g>
        <g id="path9630-1-6-9-9-23" serif:id="path9630-1-6-9-9-2" transform="matrix(4.00166,0,0,4.00166,-110.988,-766.405)">
            <path d="M27.3,244.409l-1.103,0.005" style="fill:rgb(204,204,204);fill-rule:nonzero;stroke:rgb(204,204,204);stroke-width:0.26px;"/>
        </g>
        <g id="path9948-9-9-43" serif:id="path9948-9-9-4" transform="matrix(4.00166,0,0,4.00166,-110.988,-767.405)">
            <path d="M28.964,242.183l-0.006,-3.326" style="fill:none;stroke:rgb(204,204,204);stroke-width:0.29px;"/>
        </g>
        <g id="path8216-1-5-0-24" serif:id="path8216-1-5-0-2" transform="matrix(4.00166,0,0,-4.00166,-81.9875,-767.405)">
            <path d="M31.417,-243.598c0.684,1.185 0.416,2.705 -0.633,3.585c-1.048,0.88 -2.592,0.88 -3.64,0c-1.049,-0.88 -1.317,-2.4 -0.633,-3.585l2.453,1.416l2.453,-1.416Z" style="fill:none;stroke:rgb(204,204,204);stroke-width:0.26px;"/>
        </g>
        <g id="path9630-2-6-14" serif:id="path9630-2-6-1" transform="matrix(4.00166,0,0,4.00166,-81.9875,-766.405)">
            <path d="M31.324,243.897l0.006,1.102" style="fill:rgb(204,204,204);fill-rule:nonzero;stroke:rgb(204,204,204);stroke-width:0.26px;"/>
        </g>
        <g id="path9630-1-1-4-74" serif:id="path9630-1-1-4-7" transform="matrix(4.00166,0,0,4.00166,-81.9875,-766.405)">
            <path d="M31.878,244.44l-1.102,0.005" style="fill:rgb(204,204,204);fill-rule:nonzero;stroke:rgb(204,204,204);stroke-width:0.26px;"/>
        </g>
        <g id="path9630-1-6-9-9-24" serif:id="path9630-1-6-9-9-2" transform="matrix(4.00166,0,0,4.00166,-81.9875,-766.405)">
            <path d="M27.3,244.409l-1.103,0.005" style="fill:rgb(204,204,204);fill-rule:nonzero;stroke:rgb(204,204,204);stroke-width:0.26px;"/>
        </g>
        <g id="path9948-9-9-44" serif:id="path9948-9-9-4" transform="matrix(4.00166,0,0,4.00166,-81.9875,-767.405)">
            <path d="M28.964,242.183l-0.006,-3.326" style="fill:none;stroke:rgb(204,204,204);stroke-width:0.29px;"/>
        </g>
        <g id="path8216-1-5-0-25" serif:id="path8216-1-5-0-2" transform="matrix(4.00166,0,0,-4.00166,-81.9875,-767.405)">
            <path d="M31.417,-243.598c0.684,1.185 0.416,2.705 -0.633,3.585c-1.048,0.88 -2.592,0.88 -3.64,0c-1.049,-0.88 -1.317,-2.4 -0.633,-3.585l2.453,1.416l2.453,-1.416Z" style="fill:none;stroke:rgb(204,204,204);stroke-width:0.26px;"/>
        </g>
        <g id="path9630-2-6-15" serif:id="path9630-2-6-1" transform="matrix(4.00166,0,0,4.00166,-81.9875,-766.405)">
            <path d="M31.324,243.897l0.006,1.102" style="fill:rgb(204,204,204);fill-rule:nonzero;stroke:rgb(204,204,204);stroke-width:0.26px;"/>
        </g>
        <g id="path9630-1-1-4-75" serif:id="path9630-1-1-4-7" transform="matrix(4.00166,0,0,4.00166,-81.9875,-766.405)">
            <path d="M31.878,244.44l-1.102,0.005" style="fill:rgb(204,204,204);fill-rule:nonzero;stroke:rgb(204,204,204);stroke-width:0.26px;"/>
        </g>
        <g id="path9630-1-6-9-9-25" serif:id="path9630-1-6-9-9-2" transform="matrix(4.00166,0,0,4.00166,-81.9875,-766.405)">
            <path d="M27.3,244.409l-1.103,0.005" style="fill:rgb(204,204,204);fill-rule:nonzero;stroke:rgb(204,204,204);stroke-width:0.26px;"/>
        </g>
        <g id="path9948-9-9-45" serif:id="path9948-9-9-4" transform="matrix(4.00166,0,0,4.00166,-81.9875,-767.405)">
            <path d="M28.964,242.183l-0.006,-3.326" style="fill:none;stroke:rgb(204,204,204);stroke-width:0.29px;"/>
        </g>
        <g id="path8216-1-5-0-26" serif:id="path8216-1-5-0-2" transform="matrix(4.00166,0,0,-4.00166,-53.9875,-767.405)">
            <path d="M31.417,-243.598c0.684,1.185 0.416,2.705 -0.633,3.585c-1.048,0.88 -2.592,0.88 -3.64,0c-1.049,-0.88 -1.317,-2.4 -0.633,-3.585l2.453,1.416l2.453,-1.416Z" style="fill:none;stroke:rgb(204,204,204);stroke-width:0.26px;"/>
        </g>
        <g id="path9630-2-6-16" serif:id="path9630-2-6-1" transform="matrix(4.00166,0,0,4.00166,-53.9875,-766.405)">
            <path d="M31.324,243.897l0.006,1.102" style="fill:rgb(204,204,204);fill-rule:nonzero;stroke:rgb(204,204,204);stroke-width:0.26px;"/>
        </g>
        <g id="path9630-1-1-4-76" serif:id="path9630-1-1-4-7" transform="matrix(4.00166,0,0,4.00166,-53.9875,-766.405)">
            <path d="M31.878,244.44l-1.102,0.005" style="fill:rgb(204,204,204);fill-rule:nonzero;stroke:rgb(204,204,204);stroke-width:0.26px;"/>
        </g>
        <g id="path9630-1-6-9-9-26" serif:id="path9630-1-6-9-9-2" transform="matrix(4.00166,0,0,4.00166,-53.9875,-766.405)">
            <path d="M27.3,244.409l-1.103,0.005" style="fill:rgb(204,204,204);fill-rule:nonzero;stroke:rgb(204,204,204);stroke-width:0.26px;"/>
        </g>
        <g id="path9948-9-9-46" serif:id="path9948-9-9-4" transform="matrix(4.00166,0,0,4.00166,-53.9875,-767.405)">
            <path d="M28.964,242.183l-0.006,-3.326" style="fill:none;stroke:rgb(204,204,204);stroke-width:0.29px;"/>
        </g>
        <g id="path8216-1-5-0-27" serif:id="path8216-1-5-0-2" transform="matrix(4.00166,0,0,-4.00166,-53.9875,-767.405)">
            <path d="M31.417,-243.598c0.684,1.185 0.416,2.705 -0.633,3.585c-1.048,0.88 -2.592,0.88 -3.64,0c-1.049,-0.88 -1.317,-2.4 -0.633,-3.585l2.453,1.416l2.453,-1.416Z" style="fill:none;stroke:rgb(204,204,204);stroke-width:0.26px;"/>
        </g>
        <g id="path9630-2-6-17" serif:id="path9630-2-6-1" transform="matrix(4.00166,0,0,4.00166,-53.9875,-766.405)">
            <path d="M31.324,243.897l0.006,1.102" style="fill:rgb(204,204,204);fill-rule:nonzero;stroke:rgb(204,204,204);stroke-width:0.26px;"/>
        </g>
        <g id="path9630-1-1-4-77" serif:id="path9630-1-1-4-7" transform="matrix(4.00166,0,0,4.00166,-53.9875,-766.405)">
            <path d="M31.878,244.44l-1.102,0.005" style="fill:rgb(204,204,204);fill-rule:nonzero;stroke:rgb(204,204,204);stroke-width:0.26px;"/>
        </g>
        <g id="path9630-1-6-9-9-27" serif:id="path9630-1-6-9-9-2" transform="matrix(4.00166,0,0,4.00166,-53.9875,-766.405)">
            <path d="M27.3,244.409l-1.103,0.005" style="fill:rgb(204,204,204);fill-rule:nonzero;stroke:rgb(204,204,204);stroke-width:0.26px;"/>
        </g>
        <g id="path9948-9-9-47" serif:id="path9948-9-9-4" transform="matrix(4.00166,0,0,4.00166,-53.9875,-767.405)">
            <path d="M28.964,242.183l-0.006,-3.326" style="fill:none;stroke:rgb(204,204,204);stroke-width:0.29px;"/>
        </g>
        <g transform="matrix(4.00166,0,0,4.00166,-14.4661,183.91)">
            <g id="text9293-4">
                <path d="M0.55,-0.886l0.478,-0.622l0.484,0l-0.598,0.714l0.654,0.794l-0.508,0l-0.51,-0.654l0,0.654l-0.392,0l0,-1.508l0.392,0l0,0.622Z" style="fill:white;fill-rule:nonzero;"/>
                <path d="M1.742,0l0,-1.508l0.392,0l0.724,0.922l0,-0.922l0.39,0l0,1.508l-0.39,0l-0.724,-0.922l0,0.922l-0.392,0Z" style="fill:white;fill-rule:nonzero;"/>
                <path d="M3.924,-0.754c0,0.06 0.011,0.115 0.034,0.166c0.023,0.051 0.053,0.095 0.092,0.132c0.039,0.037 0.084,0.066 0.135,0.087c0.051,0.021 0.106,0.031 0.163,0.031c0.057,0 0.112,-0.01 0.163,-0.031c0.051,-0.021 0.097,-0.05 0.136,-0.087c0.039,-0.037 0.07,-0.081 0.093,-0.132c0.023,-0.051 0.034,-0.106 0.034,-0.166c0,-0.06 -0.011,-0.115 -0.034,-0.166c-0.023,-0.051 -0.054,-0.095 -0.093,-0.132c-0.039,-0.037 -0.085,-0.066 -0.136,-0.087c-0.051,-0.021 -0.106,-0.031 -0.163,-0.031c-0.057,0 -0.112,0.01 -0.163,0.031c-0.051,0.021 -0.096,0.05 -0.135,0.087c-0.039,0.037 -0.069,0.081 -0.092,0.132c-0.023,0.051 -0.034,0.106 -0.034,0.166Zm-0.41,0c0,-0.112 0.021,-0.216 0.062,-0.313c0.041,-0.097 0.099,-0.181 0.172,-0.253c0.073,-0.072 0.161,-0.128 0.263,-0.169c0.102,-0.041 0.214,-0.061 0.337,-0.061c0.121,0 0.233,0.02 0.336,0.061c0.103,0.041 0.191,0.097 0.265,0.169c0.074,0.072 0.132,0.156 0.173,0.253c0.041,0.097 0.062,0.201 0.062,0.313c0,0.112 -0.021,0.216 -0.062,0.313c-0.041,0.097 -0.099,0.181 -0.173,0.253c-0.074,0.072 -0.162,0.128 -0.265,0.169c-0.103,0.041 -0.215,0.061 -0.336,0.061c-0.123,0 -0.235,-0.02 -0.337,-0.061c-0.102,-0.041 -0.19,-0.097 -0.263,-0.169c-0.073,-0.072 -0.131,-0.156 -0.172,-0.253c-0.041,-0.097 -0.062,-0.201 -0.062,-0.313Z" style="fill:white;fill-rule:nonzero;"/>
                <path d="M5.824,-0.304l0.086,0c0.099,0 0.169,-0.013 0.212,-0.038c0.043,-0.025 0.064,-0.066 0.064,-0.122c0,-0.056 -0.021,-0.097 -0.064,-0.122c-0.043,-0.025 -0.113,-0.038 -0.212,-0.038l-0.086,0l0,0.32Zm0,-0.612l0.072,0c0.123,0 0.184,-0.049 0.184,-0.146c0,-0.097 -0.061,-0.146 -0.184,-0.146l-0.072,0l0,0.292Zm-0.392,-0.592l0.584,0c0.139,0 0.244,0.033 0.316,0.1c0.072,0.067 0.108,0.163 0.108,0.288c0,0.076 -0.014,0.139 -0.041,0.189c-0.027,0.05 -0.069,0.092 -0.125,0.127c0.056,0.011 0.104,0.027 0.143,0.049c0.039,0.022 0.071,0.049 0.096,0.081c0.025,0.032 0.042,0.068 0.053,0.108c0.011,0.04 0.016,0.083 0.016,0.128c0,0.071 -0.012,0.133 -0.037,0.188c-0.025,0.055 -0.059,0.101 -0.104,0.138c-0.045,0.037 -0.099,0.065 -0.163,0.084c-0.064,0.019 -0.136,0.028 -0.216,0.028l-0.63,0l0,-1.508Z" style="fill:white;fill-rule:nonzero;"/>
                <path d="M7.868,-1.176l-0.22,0l0,-0.332l0.612,0l0,1.508l-0.392,0l0,-1.176Z" style="fill:white;fill-rule:nonzero;"/>
            </g>
        </g>
        <g id="path8216-1" transform="matrix(5.5964,0,0,-5.5964,-69.4377,-1253.61)">
            <path d="M18.227,-252.754c1.469,2.545 0.894,5.809 -1.357,7.698c-2.251,1.888 -5.566,1.888 -7.817,0c-2.251,-1.889 -2.826,-5.153 -1.357,-7.698" style="fill:none;stroke:rgb(204,204,204);stroke-width:0.36px;"/>
        </g>
        <g id="path9488-2-9" transform="matrix(4.00166,0,0,4.00166,-59.4562,-850.534)">
            <circle cx="8.361" cy="255.07" r="0.926" style="fill:none;stroke:rgb(204,204,204);stroke-width:0.53px;"/>
        </g>
        <g id="path9488-2-6-0" transform="matrix(4.00166,0,0,4.00166,-38.4562,-850.534)">
            <circle cx="17.802" cy="254.942" r="0.926" style="fill:rgb(204,204,204);stroke:rgb(204,204,204);stroke-width:0.53px;"/>
        </g>
        <g transform="matrix(1,0,0,1,-64.2691,55.1715)">
            <g transform="matrix(1,0,0,1,18,0)">
                <path d="M78,67l11,-6" style="fill:none;stroke:rgb(77,77,77);stroke-width:2px;stroke-linejoin:round;stroke-miterlimit:1.5;"/>
            </g>
            <g transform="matrix(1,0,0,1,20,-1)">
                <path d="M84,60l4,6l2,-6l-6,0Z" style="fill:rgb(77,77,77);"/>
            </g>
        </g>
        <g id="path8216-1-5-0-28" serif:id="path8216-1-5-0-2" transform="matrix(4.00166,0,0,-4.00166,-138.988,-606.405)">
            <path d="M31.417,-243.598c0.684,1.185 0.416,2.705 -0.633,3.585c-1.048,0.88 -2.592,0.88 -3.64,0c-1.049,-0.88 -1.317,-2.4 -0.633,-3.585l2.453,1.416l2.453,-1.416Z" style="fill:none;stroke:rgb(204,204,204);stroke-width:0.26px;"/>
        </g>
        <g id="path9630-2-6-18" serif:id="path9630-2-6-1" transform="matrix(4.00166,0,0,4.00166,-138.988,-605.405)">
            <path d="M31.324,243.897l0.006,1.102" style="fill:rgb(204,204,204);fill-rule:nonzero;stroke:rgb(204,204,204);stroke-width:0.26px;"/>
        </g>
        <g id="path9630-1-1-4-78" serif:id="path9630-1-1-4-7" transform="matrix(4.00166,0,0,4.00166,-138.988,-605.405)">
            <path d="M31.878,244.44l-1.102,0.005" style="fill:rgb(204,204,204);fill-rule:nonzero;stroke:rgb(204,204,204);stroke-width:0.26px;"/>
        </g>
        <g id="path9630-1-6-9-9-28" serif:id="path9630-1-6-9-9-2" transform="matrix(4.00166,0,0,4.00166,-138.988,-605.405)">
            <path d="M27.3,244.409l-1.103,0.005" style="fill:rgb(204,204,204);fill-rule:nonzero;stroke:rgb(204,204,204);stroke-width:0.26px;"/>
        </g>
        <g id="path9948-9-9-48" serif:id="path9948-9-9-4" transform="matrix(4.00166,0,0,4.00166,-138.988,-606.405)">
            <path d="M28.964,242.183l-0.006,-3.326" style="fill:none;stroke:rgb(204,204,204);stroke-width:0.29px;"/>
        </g>
        <g id="path8216-1-5-0-29" serif:id="path8216-1-5-0-2" transform="matrix(4.00166,0,0,-4.00166,-138.988,-606.405)">
            <path d="M31.417,-243.598c0.684,1.185 0.416,2.705 -0.633,3.585c-1.048,0.88 -2.592,0.88 -3.64,0c-1.049,-0.88 -1.317,-2.4 -0.633,-3.585l2.453,1.416l2.453,-1.416Z" style="fill:none;stroke:rgb(204,204,204);stroke-width:0.26px;"/>
        </g>
        <g id="path9630-2-6-19" serif:id="path9630-2-6-1" transform="matrix(4.00166,0,0,4.00166,-138.988,-605.405)">
            <path d="M31.324,243.897l0.006,1.102" style="fill:rgb(204,204,204);fill-rule:nonzero;stroke:rgb(204,204,204);stroke-width:0.26px;"/>
        </g>
        <g id="path9630-1-1-4-79" serif:id="path9630-1-1-4-7" transform="matrix(4.00166,0,0,4.00166,-138.988,-605.405)">
            <path d="M31.878,244.44l-1.102,0.005" style="fill:rgb(204,204,204);fill-rule:nonzero;stroke:rgb(204,204,204);stroke-width:0.26px;"/>
        </g>
        <g id="path9630-1-6-9-9-29" serif:id="path9630-1-6-9-9-2" transform="matrix(4.00166,0,0,4.00166,-138.988,-605.405)">
            <path d="M27.3,244.409l-1.103,0.005" style="fill:rgb(204,204,204);fill-rule:nonzero;stroke:rgb(204,204,204);stroke-width:0.26px;"/>
        </g>
        <g id="path9948-9-9-49" serif:id="path9948-9-9-4" transform="matrix(4.00166,0,0,4.00166,-138.988,-606.405)">
            <path d="M28.964,242.183l-0.006,-3.326" style="fill:none;stroke:rgb(204,204,204);stroke-width:0.29px;"/>
        </g>
        <g transform="matrix(0.390244,0,0,1.1808,-38.9026,179.796)">
            <path d="M294,70.743c0,-2.618 -6.43,-4.743 -14.35,-4.743l-258.3,0c-7.92,0 -14.35,2.125 -14.35,4.743l0,114.514c0,2.618 6.43,4.743 14.35,4.743l258.3,0c7.92,0 14.35,-2.125 14.35,-4.743l0,-114.514Z" style="fill:none;stroke:rgb(77,77,77);stroke-width:1.71px;stroke-linecap:round;stroke-linejoin:round;stroke-miterlimit:1.5;"/>
        </g>
        <g id="path8216-1-5-0-210" serif:id="path8216-1-5-0-2" transform="matrix(4.00166,0,0,-4.00166,-110.988,-606.405)">
            <path d="M31.417,-243.598c0.684,1.185 0.416,2.705 -0.633,3.585c-1.048,0.88 -2.592,0.88 -3.64,0c-1.049,-0.88 -1.317,-2.4 -0.633,-3.585l2.453,1.416l2.453,-1.416Z" style="fill:none;stroke:rgb(204,204,204);stroke-width:0.26px;"/>
        </g>
        <g id="path9630-2-6-110" serif:id="path9630-2-6-1" transform="matrix(4.00166,0,0,4.00166,-110.988,-605.405)">
            <path d="M31.324,243.897l0.006,1.102" style="fill:rgb(204,204,204);fill-rule:nonzero;stroke:rgb(204,204,204);stroke-width:0.26px;"/>
        </g>
        <g id="path9630-1-1-4-710" serif:id="path9630-1-1-4-7" transform="matrix(4.00166,0,0,4.00166,-110.988,-605.405)">
            <path d="M31.878,244.44l-1.102,0.005" style="fill:rgb(204,204,204);fill-rule:nonzero;stroke:rgb(204,204,204);stroke-width:0.26px;"/>
        </g>
        <g id="path9630-1-6-9-9-210" serif:id="path9630-1-6-9-9-2" transform="matrix(4.00166,0,0,4.00166,-110.988,-605.405)">
            <path d="M27.3,244.409l-1.103,0.005" style="fill:rgb(204,204,204);fill-rule:nonzero;stroke:rgb(204,204,204);stroke-width:0.26px;"/>
        </g>
        <g id="path9948-9-9-410" serif:id="path9948-9-9-4" transform="matrix(4.00166,0,0,4.00166,-110.988,-606.405)">
            <path d="M28.964,242.183l-0.006,-3.326" style="fill:none;stroke:rgb(204,204,204);stroke-width:0.29px;"/>
        </g>
        <g id="path8216-1-5-0-211" serif:id="path8216-1-5-0-2" transform="matrix(4.00166,0,0,-4.00166,-110.988,-606.405)">
            <path d="M31.417,-243.598c0.684,1.185 0.416,2.705 -0.633,3.585c-1.048,0.88 -2.592,0.88 -3.64,0c-1.049,-0.88 -1.317,-2.4 -0.633,-3.585l2.453,1.416l2.453,-1.416Z" style="fill:none;stroke:rgb(204,204,204);stroke-width:0.26px;"/>
        </g>
        <g id="path9630-2-6-111" serif:id="path9630-2-6-1" transform="matrix(4.00166,0,0,4.00166,-110.988,-605.405)">
            <path d="M31.324,243.897l0.006,1.102" style="fill:rgb(204,204,204);fill-rule:nonzero;stroke:rgb(204,204,204);stroke-width:0.26px;"/>
        </g>
        <g id="path9630-1-1-4-711" serif:id="path9630-1-1-4-7" transform="matrix(4.00166,0,0,4.00166,-110.988,-605.405)">
            <path d="M31.878,244.44l-1.102,0.005" style="fill:rgb(204,204,204);fill-rule:nonzero;stroke:rgb(204,204,204);stroke-width:0.26px;"/>
        </g>
        <g id="path9630-1-6-9-9-211" serif:id="path9630-1-6-9-9-2" transform="matrix(4.00166,0,0,4.00166,-110.988,-605.405)">
            <path d="M27.3,244.409l-1.103,0.005" style="fill:rgb(204,204,204);fill-rule:nonzero;stroke:rgb(204,204,204);stroke-width:0.26px;"/>
        </g>
        <g id="path9948-9-9-411" serif:id="path9948-9-9-4" transform="matrix(4.00166,0,0,4.00166,-110.988,-606.405)">
            <path d="M28.964,242.183l-0.006,-3.326" style="fill:none;stroke:rgb(204,204,204);stroke-width:0.29px;"/>
        </g>
        <g id="path8216-1-5-0-212" serif:id="path8216-1-5-0-2" transform="matrix(4.00166,0,0,-4.00166,-81.9875,-606.405)">
            <path d="M31.417,-243.598c0.684,1.185 0.416,2.705 -0.633,3.585c-1.048,0.88 -2.592,0.88 -3.64,0c-1.049,-0.88 -1.317,-2.4 -0.633,-3.585l2.453,1.416l2.453,-1.416Z" style="fill:none;stroke:rgb(204,204,204);stroke-width:0.26px;"/>
        </g>
        <g id="path9630-2-6-112" serif:id="path9630-2-6-1" transform="matrix(4.00166,0,0,4.00166,-81.9875,-605.405)">
            <path d="M31.324,243.897l0.006,1.102" style="fill:rgb(204,204,204);fill-rule:nonzero;stroke:rgb(204,204,204);stroke-width:0.26px;"/>
        </g>
        <g id="path9630-1-1-4-712" serif:id="path9630-1-1-4-7" transform="matrix(4.00166,0,0,4.00166,-81.9875,-605.405)">
            <path d="M31.878,244.44l-1.102,0.005" style="fill:rgb(204,204,204);fill-rule:nonzero;stroke:rgb(204,204,204);stroke-width:0.26px;"/>
        </g>
        <g id="path9630-1-6-9-9-212" serif:id="path9630-1-6-9-9-2" transform="matrix(4.00166,0,0,4.00166,-81.9875,-605.405)">
            <path d="M27.3,244.409l-1.103,0.005" style="fill:rgb(204,204,204);fill-rule:nonzero;stroke:rgb(204,204,204);stroke-width:0.26px;"/>
        </g>
        <g id="path9948-9-9-412" serif:id="path9948-9-9-4" transform="matrix(4.00166,0,0,4.00166,-81.9875,-606.405)">
            <path d="M28.964,242.183l-0.006,-3.326" style="fill:none;stroke:rgb(204,204,204);stroke-width:0.29px;"/>
        </g>
        <g id="path8216-1-5-0-213" serif:id="path8216-1-5-0-2" transform="matrix(4.00166,0,0,-4.00166,-81.9875,-606.405)">
            <path d="M31.417,-243.598c0.684,1.185 0.416,2.705 -0.633,3.585c-1.048,0.88 -2.592,0.88 -3.64,0c-1.049,-0.88 -1.317,-2.4 -0.633,-3.585l2.453,1.416l2.453,-1.416Z" style="fill:none;stroke:rgb(204,204,204);stroke-width:0.26px;"/>
        </g>
        <g id="path9630-2-6-113" serif:id="path9630-2-6-1" transform="matrix(4.00166,0,0,4.00166,-81.9875,-605.405)">
            <path d="M31.324,243.897l0.006,1.102" style="fill:rgb(204,204,204);fill-rule:nonzero;stroke:rgb(204,204,204);stroke-width:0.26px;"/>
        </g>
        <g id="path9630-1-1-4-713" serif:id="path9630-1-1-4-7" transform="matrix(4.00166,0,0,4.00166,-81.9875,-605.405)">
            <path d="M31.878,244.44l-1.102,0.005" style="fill:rgb(204,204,204);fill-rule:nonzero;stroke:rgb(204,204,204);stroke-width:0.26px;"/>
        </g>
        <g id="path9630-1-6-9-9-213" serif:id="path9630-1-6-9-9-2" transform="matrix(4.00166,0,0,4.00166,-81.9875,-605.405)">
            <path d="M27.3,244.409l-1.103,0.005" style="fill:rgb(204,204,204);fill-rule:nonzero;stroke:rgb(204,204,204);stroke-width:0.26px;"/>
        </g>
        <g id="path9948-9-9-413" serif:id="path9948-9-9-4" transform="matrix(4.00166,0,0,4.00166,-81.9875,-606.405)">
            <path d="M28.964,242.183l-0.006,-3.326" style="fill:none;stroke:rgb(204,204,204);stroke-width:0.29px;"/>
        </g>
        <g id="path8216-1-5-0-214" serif:id="path8216-1-5-0-2" transform="matrix(4.00166,0,0,-4.00166,-53.9875,-606.405)">
            <path d="M31.417,-243.598c0.684,1.185 0.416,2.705 -0.633,3.585c-1.048,0.88 -2.592,0.88 -3.64,0c-1.049,-0.88 -1.317,-2.4 -0.633,-3.585l2.453,1.416l2.453,-1.416Z" style="fill:none;stroke:rgb(204,204,204);stroke-width:0.26px;"/>
        </g>
        <g id="path9630-2-6-114" serif:id="path9630-2-6-1" transform="matrix(4.00166,0,0,4.00166,-53.9875,-605.405)">
            <path d="M31.324,243.897l0.006,1.102" style="fill:rgb(204,204,204);fill-rule:nonzero;stroke:rgb(204,204,204);stroke-width:0.26px;"/>
        </g>
        <g id="path9630-1-1-4-714" serif:id="path9630-1-1-4-7" transform="matrix(4.00166,0,0,4.00166,-53.9875,-605.405)">
            <path d="M31.878,244.44l-1.102,0.005" style="fill:rgb(204,204,204);fill-rule:nonzero;stroke:rgb(204,204,204);stroke-width:0.26px;"/>
        </g>
        <g id="path9630-1-6-9-9-214" serif:id="path9630-1-6-9-9-2" transform="matrix(4.00166,0,0,4.00166,-53.9875,-605.405)">
            <path d="M27.3,244.409l-1.103,0.005" style="fill:rgb(204,204,204);fill-rule:nonzero;stroke:rgb(204,204,204);stroke-width:0.26px;"/>
        </g>
        <g id="path9948-9-9-414" serif:id="path9948-9-9-4" transform="matrix(4.00166,0,0,4.00166,-53.9875,-606.405)">
            <path d="M28.964,242.183l-0.006,-3.326" style="fill:none;stroke:rgb(204,204,204);stroke-width:0.29px;"/>
        </g>
        <g id="path8216-1-5-0-215" serif:id="path8216-1-5-0-2" transform="matrix(4.00166,0,0,-4.00166,-53.9875,-606.405)">
            <path d="M31.417,-243.598c0.684,1.185 0.416,2.705 -0.633,3.585c-1.048,0.88 -2.592,0.88 -3.64,0c-1.049,-0.88 -1.317,-2.4 -0.633,-3.585l2.453,1.416l2.453,-1.416Z" style="fill:none;stroke:rgb(204,204,204);stroke-width:0.26px;"/>
        </g>
        <g id="path9630-2-6-115" serif:id="path9630-2-6-1" transform="matrix(4.00166,0,0,4.00166,-53.9875,-605.405)">
            <path d="M31.324,243.897l0.006,1.102" style="fill:rgb(204,204,204);fill-rule:nonzero;stroke:rgb(204,204,204);stroke-width:0.26px;"/>
        </g>
        <g id="path9630-1-1-4-715" serif:id="path9630-1-1-4-7" transform="matrix(4.00166,0,0,4.00166,-53.9875,-605.405)">
            <path d="M31.878,244.44l-1.102,0.005" style="fill:rgb(204,204,204);fill-rule:nonzero;stroke:rgb(204,204,204);stroke-width:0.26px;"/>
        </g>
        <g id="path9630-1-6-9-9-215" serif:id="path9630-1-6-9-9-2" transform="matrix(4.00166,0,0,4.00166,-53.9875,-605.405)">
            <path d="M27.3,244.409l-1.103,0.005" style="fill:rgb(204,204,204);fill-rule:nonzero;stroke:rgb(204,204,204);stroke-width:0.26px;"/>
        </g>
        <g id="path9948-9-9-415" serif:id="path9948-9-9-4" transform="matrix(4.00166,0,0,4.00166,-53.9875,-606.405)">
            <path d="M28.964,242.183l-0.006,-3.326" style="fill:none;stroke:rgb(204,204,204);stroke-width:0.29px;"/>
        </g>
        <g transform="matrix(4.00166,0,0,4.00166,-14.4661,344.91)">
            <g id="text9293-41" serif:id="text9293-4">
                <path d="M0.55,-0.886l0.478,-0.622l0.484,0l-0.598,0.714l0.654,0.794l-0.508,0l-0.51,-0.654l0,0.654l-0.392,0l0,-1.508l0.392,0l0,0.622Z" style="fill:white;fill-rule:nonzero;"/>
                <path d="M1.742,0l0,-1.508l0.392,0l0.724,0.922l0,-0.922l0.39,0l0,1.508l-0.39,0l-0.724,-0.922l0,0.922l-0.392,0Z" style="fill:white;fill-rule:nonzero;"/>
                <path d="M3.924,-0.754c0,0.06 0.011,0.115 0.034,0.166c0.023,0.051 0.053,0.095 0.092,0.132c0.039,0.037 0.084,0.066 0.135,0.087c0.051,0.021 0.106,0.031 0.163,0.031c0.057,0 0.112,-0.01 0.163,-0.031c0.051,-0.021 0.097,-0.05 0.136,-0.087c0.039,-0.037 0.07,-0.081 0.093,-0.132c0.023,-0.051 0.034,-0.106 0.034,-0.166c0,-0.06 -0.011,-0.115 -0.034,-0.166c-0.023,-0.051 -0.054,-0.095 -0.093,-0.132c-0.039,-0.037 -0.085,-0.066 -0.136,-0.087c-0.051,-0.021 -0.106,-0.031 -0.163,-0.031c-0.057,0 -0.112,0.01 -0.163,0.031c-0.051,0.021 -0.096,0.05 -0.135,0.087c-0.039,0.037 -0.069,0.081 -0.092,0.132c-0.023,0.051 -0.034,0.106 -0.034,0.166Zm-0.41,0c0,-0.112 0.021,-0.216 0.062,-0.313c0.041,-0.097 0.099,-0.181 0.172,-0.253c0.073,-0.072 0.161,-0.128 0.263,-0.169c0.102,-0.041 0.214,-0.061 0.337,-0.061c0.121,0 0.233,0.02 0.336,0.061c0.103,0.041 0.191,0.097 0.265,0.169c0.074,0.072 0.132,0.156 0.173,0.253c0.041,0.097 0.062,0.201 0.062,0.313c0,0.112 -0.021,0.216 -0.062,0.313c-0.041,0.097 -0.099,0.181 -0.173,0.253c-0.074,0.072 -0.162,0.128 -0.265,0.169c-0.103,0.041 -0.215,0.061 -0.336,0.061c-0.123,0 -0.235,-0.02 -0.337,-0.061c-0.102,-0.041 -0.19,-0.097 -0.263,-0.169c-0.073,-0.072 -0.131,-0.156 -0.172,-0.253c-0.041,-0.097 -0.062,-0.201 -0.062,-0.313Z" style="fill:white;fill-rule:nonzero;"/>
                <path d="M5.824,-0.304l0.086,0c0.099,0 0.169,-0.013 0.212,-0.038c0.043,-0.025 0.064,-0.066 0.064,-0.122c0,-0.056 -0.021,-0.097 -0.064,-0.122c-0.043,-0.025 -0.113,-0.038 -0.212,-0.038l-0.086,0l0,0.32Zm0,-0.612l0.072,0c0.123,0 0.184,-0.049 0.184,-0.146c0,-0.097 -0.061,-0.146 -0.184,-0.146l-0.072,0l0,0.292Zm-0.392,-0.592l0.584,0c0.139,0 0.244,0.033 0.316,0.1c0.072,0.067 0.108,0.163 0.108,0.288c0,0.076 -0.014,0.139 -0.041,0.189c-0.027,0.05 -0.069,0.092 -0.125,0.127c0.056,0.011 0.104,0.027 0.143,0.049c0.039,0.022 0.071,0.049 0.096,0.081c0.025,0.032 0.042,0.068 0.053,0.108c0.011,0.04 0.016,0.083 0.016,0.128c0,0.071 -0.012,0.133 -0.037,0.188c-0.025,0.055 -0.059,0.101 -0.104,0.138c-0.045,0.037 -0.099,0.065 -0.163,0.084c-0.064,0.019 -0.136,0.028 -0.216,0.028l-0.63,0l0,-1.508Z" style="fill:white;fill-rule:nonzero;"/>
                <path d="M8.608,0l-1.214,0l0.374,-0.388c0.099,-0.103 0.176,-0.19 0.232,-0.261c0.056,-0.071 0.098,-0.132 0.125,-0.181c0.027,-0.049 0.044,-0.089 0.051,-0.12c0.007,-0.031 0.01,-0.057 0.01,-0.078c0,-0.023 -0.004,-0.045 -0.011,-0.066c-0.007,-0.021 -0.018,-0.04 -0.033,-0.057c-0.015,-0.017 -0.032,-0.03 -0.053,-0.04c-0.021,-0.01 -0.045,-0.015 -0.073,-0.015c-0.053,0 -0.095,0.017 -0.125,0.052c-0.03,0.035 -0.045,0.078 -0.045,0.13c0,0.015 0.002,0.036 0.006,0.064l-0.428,0c0,-0.088 0.014,-0.168 0.043,-0.24c0.029,-0.072 0.069,-0.134 0.121,-0.186c0.052,-0.052 0.114,-0.092 0.185,-0.12c0.071,-0.028 0.15,-0.042 0.235,-0.042c0.084,0 0.162,0.013 0.233,0.04c0.071,0.027 0.133,0.064 0.185,0.112c0.052,0.048 0.093,0.105 0.122,0.171c0.029,0.066 0.044,0.138 0.044,0.215c0,0.083 -0.018,0.159 -0.053,0.229c-0.035,0.07 -0.092,0.142 -0.169,0.215l-0.25,0.234l0.488,0l0,0.332Z" style="fill:white;fill-rule:nonzero;"/>
            </g>
        </g>
        <g transform="matrix(0.987631,0,0,0.774377,-182.563,-5.83807)">
            <path d="M261.093,346.126c0,-2.627 -1.672,-4.76 -3.732,-4.76l-21.349,0c-2.06,0 -3.732,2.133 -3.732,4.76l0,24.985c0,2.627 1.672,4.76 3.732,4.76l21.349,0c2.06,0 3.732,-2.133 3.732,-4.76l0,-24.985Z"/>
        </g>
        <g transform="matrix(0.987631,0,0,0.774377,-182.563,-166.838)">
            <path d="M261.093,346.126c0,-2.627 -1.672,-4.76 -3.732,-4.76l-21.349,0c-2.06,0 -3.732,2.133 -3.732,4.76l0,24.985c0,2.627 1.672,4.76 3.732,4.76l21.349,0c2.06,0 3.732,-2.133 3.732,-4.76l0,-24.985Z"/>
        </g>
        <g id="path8216-11" serif:id="path8216-1" transform="matrix(5.5964,0,0,-5.5964,-69.4377,-1092.61)">
            <path d="M18.227,-252.754c1.469,2.545 0.894,5.809 -1.357,7.698c-2.251,1.888 -5.566,1.888 -7.817,0c-2.251,-1.889 -2.826,-5.153 -1.357,-7.698" style="fill:none;stroke:rgb(204,204,204);stroke-width:0.36px;"/>
        </g>
        <g id="path9488-2-91" serif:id="path9488-2-9" transform="matrix(4.00166,0,0,4.00166,-59.4562,-689.534)">
            <circle cx="8.361" cy="255.07" r="0.926" style="fill:none;stroke:rgb(204,204,204);stroke-width:0.53px;"/>
        </g>
        <g id="path9488-2-6-01" serif:id="path9488-2-6-0" transform="matrix(4.00166,0,0,4.00166,-38.4562,-689.534)">
            <circle cx="17.802" cy="254.942" r="0.926" style="fill:rgb(204,204,204);stroke:rgb(204,204,204);stroke-width:0.53px;"/>
        </g>
        <g transform="matrix(1,0,0,1,-62.8394,220.157)">
            <g transform="matrix(1,0,0,1,18,0)">
                <path d="M78,67l11,-6" style="fill:none;stroke:rgb(77,77,77);stroke-width:2px;stroke-linejoin:round;stroke-miterlimit:1.5;"/>
            </g>
            <g transform="matrix(1,0,0,1,20,-1)">
                <path d="M84,60l4,6l2,-6l-6,0Z" style="fill:rgb(77,77,77);"/>
            </g>
        </g>
        <g transform="matrix(1,0,0,0.514946,-40.1709,160.93)">
            <path d="M43.617,209.107l0,9.147" style="fill:none;stroke:rgb(204,204,204);stroke-width:2.51px;stroke-linejoin:round;stroke-miterlimit:1.5;"/>
        </g>
        <g transform="matrix(1,0,0,0.514946,-40.1709,-0.0704049)">
            <path d="M43.617,209.107l0,9.147" style="fill:none;stroke:rgb(204,204,204);stroke-width:2.51px;stroke-linejoin:round;stroke-miterlimit:1.5;"/>
        </g>
    </g>
</svg>
