<svg width="150px" height="380px" version="1.1" xmlns="http://www.w3.org/2000/svg" xmlns:xlink="http://www.w3.org/1999/xlink" xml:space="preserve" xmlns:serif="http://www.serif.com/" style="fill-rule:evenodd;clip-rule:evenodd;stroke-linecap:round;">
  <defs>
    <linearGradient id="_Linear1" x1="0" y1="0" x2="1" y2="0" gradientUnits="userSpaceOnUse" gradientTransform="matrix(150,-379.998,379.998,150,0.000328145,379.998)">
      <stop offset="0" style="stop-color:rgb(9,13,17);stop-opacity:1"/>
      <stop offset="1" style="stop-color:rgb(24,35,46);stop-opacity:1"/>
    </linearGradient>
  </defs>
  <rect id="rect13307" x="0" y="0" width="150" height="379.998" style="fill:url(#_Linear1);"/>
  <path id="path13310" d="M126.904,77.593c2.737,-4.742 1.664,-10.824 -2.534,-14.346c-4.193,-3.521 -10.372,-3.521 -14.566,0c-4.197,3.522 -5.27,9.604 -2.533,14.346l9.816,-5.666l9.817,5.666Z" style="fill:none;stroke:rgb(204,204,204);stroke-width:1px;"/>
  <path id="path13313" d="M126.531,78.79l0.024,4.409" style="fill:rgb(204,204,204);fill-rule:nonzero;stroke:rgb(204,204,204);stroke-width:1px;"/>
  <path id="path13316" d="M128.748,80.963l-4.41,0.02" style="fill:rgb(204,204,204);fill-rule:nonzero;stroke:rgb(204,204,204);stroke-width:1px;"/>
  <path id="path13319" d="M110.429,80.839l-4.414,0.02" style="fill:rgb(204,204,204);fill-rule:nonzero;stroke:rgb(204,204,204);stroke-width:1px;"/>
  <path id="path13322" d="M117.087,71.931l-0.024,-13.31" style="fill:none;stroke:rgb(204,204,204);stroke-width:1px;"/>
  <path id="path13325" d="M44.683,123.163c-0.364,-0.444 -0.812,-0.664 -1.345,-0.664c-0.236,0 -0.452,0.044 -0.652,0.128c-0.2,0.084 -0.372,0.2 -0.516,0.348c-0.144,0.148 -0.256,0.32 -0.34,0.524c-0.084,0.204 -0.124,0.42 -0.124,0.657c0,0.24 0.04,0.46 0.124,0.664c0.084,0.204 0.196,0.38 0.344,0.528c0.148,0.148 0.32,0.268 0.516,0.352c0.196,0.084 0.412,0.128 0.64,0.128c0.501,0 0.953,-0.212 1.353,-0.64l0,1.857l-0.16,0.056c-0.24,0.084 -0.464,0.148 -0.672,0.188c-0.209,0.04 -0.413,0.06 -0.617,0.06c-0.416,0 -0.816,-0.08 -1.196,-0.236c-0.38,-0.156 -0.717,-0.38 -1.009,-0.665c-0.292,-0.284 -0.524,-0.624 -0.7,-1.016c-0.176,-0.392 -0.264,-0.82 -0.264,-1.285c0,-0.464 0.088,-0.888 0.26,-1.276c0.172,-0.388 0.404,-0.72 0.696,-1c0.292,-0.281 0.629,-0.501 1.013,-0.657c0.384,-0.156 0.788,-0.236 1.208,-0.236c0.24,0 0.476,0.024 0.709,0.076c0.232,0.052 0.476,0.128 0.732,0.236l0,1.873Z" style="fill:white;fill-rule:nonzero;"/>
  <path id="path13327" d="M47.244,121.146l0,3.282c0,0.176 0.008,0.356 0.02,0.54c0.012,0.184 0.052,0.352 0.12,0.5c0.068,0.148 0.172,0.272 0.316,0.364c0.144,0.092 0.348,0.14 0.608,0.14c0.26,0 0.465,-0.048 0.605,-0.14c0.14,-0.092 0.248,-0.216 0.316,-0.364c0.068,-0.148 0.112,-0.316 0.124,-0.5c0.012,-0.184 0.02,-0.364 0.02,-0.54l0,-3.282l1.56,0l0,3.498c0,0.94 -0.216,1.624 -0.644,2.057c-0.428,0.432 -1.088,0.648 -1.981,0.648c-0.892,0 -1.552,-0.216 -1.984,-0.648c-0.433,-0.433 -0.649,-1.117 -0.649,-2.057l0,-3.498l1.569,0Z" style="fill:white;fill-rule:nonzero;"/>
  <path id="path13329" d="M54.487,122.475l0,4.706l-1.569,0l0,-4.706l-1.288,0l0,-1.329l4.145,0l0,1.329l-1.288,0Z" style="fill:white;fill-rule:nonzero;"/>
  <path id="path13331" d="M57.784,124.164c0,0.24 0.044,0.46 0.136,0.664c0.092,0.204 0.212,0.38 0.369,0.528c0.156,0.148 0.336,0.264 0.54,0.348c0.204,0.084 0.424,0.124 0.652,0.124c0.228,0 0.448,-0.04 0.652,-0.124c0.204,-0.084 0.388,-0.2 0.545,-0.348c0.156,-0.148 0.28,-0.324 0.372,-0.528c0.092,-0.204 0.136,-0.424 0.136,-0.664c0,-0.241 -0.044,-0.461 -0.136,-0.665c-0.092,-0.204 -0.216,-0.38 -0.372,-0.528c-0.157,-0.148 -0.341,-0.264 -0.545,-0.348c-0.204,-0.084 -0.424,-0.124 -0.652,-0.124c-0.228,0 -0.448,0.04 -0.652,0.124c-0.204,0.084 -0.384,0.2 -0.54,0.348c-0.157,0.148 -0.277,0.324 -0.369,0.528c-0.092,0.204 -0.136,0.424 -0.136,0.665Zm-1.64,0c0,-0.449 0.084,-0.865 0.248,-1.253c0.164,-0.388 0.396,-0.724 0.688,-1.012c0.292,-0.289 0.644,-0.513 1.052,-0.677c0.409,-0.164 0.857,-0.244 1.349,-0.244c0.484,0 0.932,0.08 1.345,0.244c0.412,0.164 0.764,0.388 1.06,0.677c0.296,0.288 0.528,0.624 0.692,1.012c0.164,0.388 0.248,0.804 0.248,1.253c0,0.448 -0.084,0.864 -0.248,1.252c-0.164,0.388 -0.396,0.724 -0.692,1.012c-0.296,0.289 -0.648,0.513 -1.06,0.677c-0.413,0.164 -0.861,0.244 -1.345,0.244c-0.492,0 -0.94,-0.08 -1.349,-0.244c-0.408,-0.164 -0.76,-0.388 -1.052,-0.677c-0.292,-0.288 -0.524,-0.624 -0.688,-1.012c-0.164,-0.388 -0.248,-0.804 -0.248,-1.252Z" style="fill:white;fill-rule:nonzero;"/>
  <path id="path13333" d="M67.276,122.475l-1.889,0l0,1.008l1.721,0l0,1.329l-1.721,0l0,2.369l-1.568,0l0,-6.035l3.457,0l0,1.329Z" style="fill:white;fill-rule:nonzero;"/>
  <path id="path13335" d="M71.67,122.475l-1.889,0l0,1.008l1.721,0l0,1.329l-1.721,0l0,2.369l-1.568,0l0,-6.035l3.457,0l0,1.329Z" style="fill:white;fill-rule:nonzero;"/>
  <path id="path13340" d="M126.904,77.593c2.737,-4.742 1.664,-10.824 -2.534,-14.346c-4.193,-3.521 -10.372,-3.521 -14.566,0c-4.197,3.522 -5.27,9.604 -2.533,14.346l9.816,-5.666l9.817,5.666Z" style="fill:none;stroke:rgb(204,204,204);stroke-width:1px;"/>
  <path id="path13343" d="M126.531,78.79l0.024,4.409" style="fill:rgb(204,204,204);fill-rule:nonzero;stroke:rgb(204,204,204);stroke-width:1px;"/>
  <path id="path13346" d="M128.748,80.963l-4.41,0.02" style="fill:rgb(204,204,204);fill-rule:nonzero;stroke:rgb(204,204,204);stroke-width:1px;"/>
  <path id="path13349" d="M110.429,80.839l-4.414,0.02" style="fill:rgb(204,204,204);fill-rule:nonzero;stroke:rgb(204,204,204);stroke-width:1px;"/>
  <path id="path13352" d="M117.087,71.931l-0.024,-13.31" style="fill:none;stroke:rgb(204,204,204);stroke-width:1px;"/>
  <path id="path13355" d="M84.739,103.173c8.221,-14.243 5.003,-32.509 -7.595,-43.081c-12.597,-10.566 -31.149,-10.566 -43.747,0c-12.597,10.572 -15.815,28.838 -7.594,43.081" style="fill:none;stroke:rgb(204,204,204);stroke-width:1.5px;"/>
  <circle id="circle13358" cx="26.173" cy="112.44" r="3.706" style="fill:none;stroke:rgb(204,204,204);stroke-width:1px;stroke-linecap:butt;"/>
  <circle id="circle13361" cx="84.952" cy="111.928" r="3.706" style="fill:rgb(204,204,204);stroke:rgb(204,204,204);stroke-width:1px;stroke-linecap:butt;"/>
  <path id="path13364" d="M126.904,155.662c2.737,-4.742 1.664,-10.824 -2.534,-14.346c-4.193,-3.521 -10.372,-3.521 -14.566,0c-4.197,3.522 -5.27,9.604 -2.533,14.346l9.816,-5.666l9.817,5.666Z" style="fill:none;stroke:rgb(204,204,204);stroke-width:1px;"/>
  <path id="path13367" d="M126.531,156.859l0.024,4.409" style="fill:rgb(204,204,204);fill-rule:nonzero;stroke:rgb(204,204,204);stroke-width:1px;"/>
  <path id="path13370" d="M128.748,159.032l-4.41,0.02" style="fill:rgb(204,204,204);fill-rule:nonzero;stroke:rgb(204,204,204);stroke-width:1px;"/>
  <path id="path13373" d="M110.429,158.908l-4.414,0.02" style="fill:rgb(204,204,204);fill-rule:nonzero;stroke:rgb(204,204,204);stroke-width:1px;"/>
  <path id="path13376" d="M117.087,150l-0.024,-13.31" style="fill:none;stroke:rgb(204,204,204);stroke-width:1px;"/>
  <path id="path13379" d="M30.66,191.739l0.296,0c0.308,0 0.548,-0.064 0.712,-0.192c0.164,-0.128 0.248,-0.312 0.248,-0.552c0,-0.24 -0.084,-0.424 -0.248,-0.552c-0.164,-0.128 -0.404,-0.192 -0.712,-0.192l-0.296,0l0,1.488Zm3.449,3.338l-1.953,0l-1.496,-2.321l0,2.321l-1.569,0l0,-6.035l2.441,0c0.336,0 0.628,0.048 0.881,0.148c0.252,0.1 0.456,0.232 0.62,0.405c0.164,0.172 0.284,0.368 0.368,0.592c0.084,0.224 0.124,0.464 0.124,0.72c0,0.46 -0.112,0.832 -0.332,1.117c-0.22,0.284 -0.548,0.48 -0.981,0.58l1.897,2.473Z" style="fill:white;fill-rule:nonzero;"/>
  <path id="path13381" d="M38.199,190.371l-1.865,0l0,1.008l1.761,0l0,1.329l-1.761,0l0,1.04l1.865,0l0,1.329l-3.433,0l0,-6.035l3.433,0l0,1.329Z" style="fill:white;fill-rule:nonzero;"/>
  <path id="path13383" d="M42.641,190.587c-0.172,-0.14 -0.34,-0.24 -0.512,-0.308c-0.173,-0.068 -0.337,-0.1 -0.497,-0.1c-0.204,0 -0.368,0.048 -0.496,0.144c-0.128,0.096 -0.192,0.22 -0.192,0.376c0,0.108 0.032,0.196 0.096,0.264c0.064,0.068 0.148,0.128 0.252,0.18c0.104,0.052 0.22,0.096 0.352,0.132c0.132,0.036 0.26,0.076 0.389,0.12c0.512,0.172 0.888,0.4 1.124,0.685c0.236,0.284 0.356,0.656 0.356,1.116c0,0.308 -0.052,0.588 -0.156,0.84c-0.104,0.252 -0.256,0.465 -0.456,0.645c-0.2,0.18 -0.444,0.316 -0.736,0.416c-0.293,0.1 -0.621,0.148 -0.989,0.148c-0.764,0 -1.468,-0.228 -2.121,-0.68l0.673,-1.265c0.236,0.208 0.468,0.364 0.696,0.464c0.228,0.1 0.456,0.152 0.68,0.152c0.256,0 0.448,-0.06 0.572,-0.176c0.124,-0.116 0.188,-0.252 0.188,-0.4c0,-0.092 -0.016,-0.168 -0.048,-0.236c-0.032,-0.068 -0.084,-0.128 -0.16,-0.184c-0.076,-0.056 -0.172,-0.108 -0.292,-0.156c-0.12,-0.048 -0.264,-0.1 -0.436,-0.16c-0.204,-0.064 -0.4,-0.136 -0.596,-0.212c-0.196,-0.076 -0.368,-0.18 -0.52,-0.308c-0.152,-0.128 -0.277,-0.289 -0.369,-0.485c-0.092,-0.196 -0.14,-0.44 -0.14,-0.74c0,-0.3 0.048,-0.568 0.148,-0.812c0.101,-0.244 0.237,-0.452 0.417,-0.625c0.18,-0.172 0.396,-0.308 0.656,-0.404c0.26,-0.096 0.548,-0.144 0.868,-0.144c0.3,0 0.613,0.04 0.937,0.124c0.324,0.084 0.636,0.204 0.936,0.364l-0.624,1.225Z" style="fill:white;fill-rule:nonzero;"/>
  <path id="path13385" d="M45.866,192.06c0,0.24 0.044,0.46 0.136,0.664c0.092,0.204 0.212,0.38 0.368,0.528c0.156,0.148 0.336,0.264 0.541,0.348c0.204,0.084 0.424,0.124 0.652,0.124c0.228,0 0.448,-0.04 0.652,-0.124c0.204,-0.084 0.388,-0.2 0.544,-0.348c0.156,-0.148 0.28,-0.324 0.372,-0.528c0.093,-0.204 0.137,-0.424 0.137,-0.664c0,-0.241 -0.044,-0.461 -0.137,-0.665c-0.092,-0.204 -0.216,-0.38 -0.372,-0.528c-0.156,-0.148 -0.34,-0.264 -0.544,-0.348c-0.204,-0.084 -0.424,-0.124 -0.652,-0.124c-0.228,0 -0.448,0.04 -0.652,0.124c-0.205,0.084 -0.385,0.2 -0.541,0.348c-0.156,0.148 -0.276,0.324 -0.368,0.528c-0.092,0.204 -0.136,0.424 -0.136,0.665Zm-1.641,0c0,-0.449 0.084,-0.865 0.249,-1.253c0.164,-0.388 0.396,-0.724 0.688,-1.012c0.292,-0.289 0.644,-0.513 1.052,-0.677c0.408,-0.164 0.857,-0.244 1.349,-0.244c0.484,0 0.932,0.08 1.344,0.244c0.413,0.164 0.765,0.388 1.061,0.677c0.296,0.288 0.528,0.624 0.692,1.012c0.164,0.388 0.248,0.804 0.248,1.253c0,0.448 -0.084,0.864 -0.248,1.252c-0.164,0.388 -0.396,0.724 -0.692,1.012c-0.296,0.289 -0.648,0.513 -1.061,0.677c-0.412,0.164 -0.86,0.244 -1.344,0.244c-0.492,0 -0.941,-0.08 -1.349,-0.244c-0.408,-0.164 -0.76,-0.388 -1.052,-0.677c-0.292,-0.288 -0.524,-0.624 -0.688,-1.012c-0.165,-0.388 -0.249,-0.804 -0.249,-1.252Z" style="fill:white;fill-rule:nonzero;"/>
  <path id="path13387" d="M51.901,195.077l0,-6.035l1.568,0l2.897,3.69l0,-3.69l1.561,0l0,6.035l-1.561,0l-2.897,-3.69l0,3.69l-1.568,0Z" style="fill:white;fill-rule:nonzero;"/>
  <path id="path13389" d="M62.489,192.836l-0.704,-2.009l-0.705,2.009l1.409,0Zm0.416,1.192l-2.241,0l-0.36,1.049l-1.673,0l2.297,-6.035l1.713,0l2.297,6.035l-1.673,0l-0.36,-1.049Z" style="fill:white;fill-rule:nonzero;"/>
  <path id="path13391" d="M65.626,195.077l0,-6.035l1.569,0l2.897,3.69l0,-3.69l1.561,0l0,6.035l-1.561,0l-2.897,-3.69l0,3.69l-1.569,0Z" style="fill:white;fill-rule:nonzero;"/>
  <path id="path13393" d="M77.343,191.059c-0.364,-0.444 -0.812,-0.664 -1.344,-0.664c-0.236,0 -0.453,0.044 -0.653,0.128c-0.2,0.084 -0.372,0.2 -0.516,0.348c-0.144,0.148 -0.256,0.32 -0.34,0.524c-0.084,0.204 -0.124,0.42 -0.124,0.657c0,0.24 0.04,0.46 0.124,0.664c0.084,0.204 0.196,0.38 0.344,0.528c0.148,0.148 0.32,0.268 0.516,0.352c0.196,0.084 0.413,0.128 0.641,0.128c0.5,0 0.952,-0.212 1.352,-0.64l0,1.857l-0.16,0.056c-0.24,0.084 -0.464,0.148 -0.672,0.188c-0.208,0.04 -0.412,0.06 -0.616,0.06c-0.417,0 -0.817,-0.08 -1.197,-0.236c-0.38,-0.156 -0.716,-0.38 -1.008,-0.665c-0.292,-0.284 -0.525,-0.624 -0.701,-1.016c-0.176,-0.392 -0.264,-0.82 -0.264,-1.285c0,-0.464 0.088,-0.888 0.26,-1.276c0.172,-0.388 0.405,-0.72 0.697,-1c0.292,-0.281 0.628,-0.501 1.012,-0.657c0.384,-0.156 0.788,-0.236 1.209,-0.236c0.24,0 0.476,0.024 0.708,0.076c0.232,0.052 0.476,0.128 0.732,0.236l0,1.873Z" style="fill:white;fill-rule:nonzero;"/>
  <path id="path13395" d="M81.769,190.371l-1.865,0l0,1.008l1.761,0l0,1.329l-1.761,0l0,1.04l1.865,0l0,1.329l-3.433,0l0,-6.035l3.433,0l0,1.329Z" style="fill:white;fill-rule:nonzero;"/>
  <path id="path13400" d="M126.904,155.662c2.737,-4.742 1.664,-10.824 -2.534,-14.346c-4.193,-3.521 -10.372,-3.521 -14.566,0c-4.197,3.522 -5.27,9.604 -2.533,14.346l9.816,-5.666l9.817,5.666Z" style="fill:none;stroke:rgb(204,204,204);stroke-width:1px;"/>
  <path id="path13403" d="M126.531,156.859l0.024,4.409" style="fill:rgb(204,204,204);fill-rule:nonzero;stroke:rgb(204,204,204);stroke-width:1px;"/>
  <path id="path13406" d="M128.748,159.032l-4.41,0.02" style="fill:rgb(204,204,204);fill-rule:nonzero;stroke:rgb(204,204,204);stroke-width:1px;"/>
  <path id="path13409" d="M110.429,158.908l-4.414,0.02" style="fill:rgb(204,204,204);fill-rule:nonzero;stroke:rgb(204,204,204);stroke-width:1px;"/>
  <path id="path13412" d="M117.087,150l-0.024,-13.31" style="fill:none;stroke:rgb(204,204,204);stroke-width:1px;"/>
  <path id="path13415" d="M75.383,173.241c5.878,-10.184 3.577,-23.245 -5.431,-30.804c-9.007,-7.556 -22.273,-7.556 -31.281,0c-9.007,7.559 -11.308,20.62 -5.43,30.804" style="fill:none;stroke:rgb(204,204,204);stroke-width:1.5px;"/>
  <circle id="circle13418" cx="36.173" cy="182.509" r="3.706" style="fill:none;stroke:rgb(204,204,204);stroke-width:1px;stroke-linecap:butt;"/>
  <circle id="circle13421" cx="73.952" cy="181.997" r="3.706" style="fill:rgb(204,204,204);stroke:rgb(204,204,204);stroke-width:1px;stroke-linecap:butt;"/>
  <path id="path13426" d="M75.383,243.241c5.878,-10.184 3.577,-23.245 -5.431,-30.804c-9.007,-7.556 -22.273,-7.556 -31.281,0c-9.007,7.559 -11.308,20.62 -5.43,30.804" style="fill:none;stroke:rgb(204,204,204);stroke-width:1.5px;"/>
  <circle id="circle13429" cx="36.173" cy="252.509" r="3.706" style="fill:none;stroke:rgb(204,204,204);stroke-width:1px;stroke-linecap:butt;"/>
  <circle id="circle13432" cx="73.952" cy="251.997" r="3.706" style="fill:rgb(204,204,204);stroke:rgb(204,204,204);stroke-width:1px;stroke-linecap:butt;"/>
  <rect id="rect13437" x="62.164" y="353.613" width="1.569" height="6.035" style="fill:white;"/>
  <path id="path13439" d="M64.997,359.648l0,-6.035l1.569,0l2.897,3.69l0,-3.69l1.561,0l0,6.035l-1.561,0l-2.897,-3.69l0,3.69l-1.569,0Z" style="fill:white;fill-rule:nonzero;"/>
  <path id="path13441" d="M73.857,356.382l0.52,0c0.577,0 0.865,-0.252 0.865,-0.752c0,-0.5 -0.288,-0.752 -0.865,-0.752l-0.52,0l0,1.504Zm0,3.266l-1.569,0l0,-6.035l2.497,0c0.677,0 1.197,0.176 1.557,0.529c0.36,0.352 0.54,0.848 0.54,1.488c0,0.64 -0.18,1.137 -0.54,1.489c-0.36,0.352 -0.88,0.528 -1.557,0.528l-0.928,0l0,2.001Z" style="fill:white;fill-rule:nonzero;"/>
  <path id="path13443" d="M79.283,353.613l0,3.282c0,0.176 0.008,0.356 0.02,0.54c0.012,0.184 0.052,0.352 0.12,0.5c0.068,0.148 0.172,0.272 0.317,0.364c0.144,0.092 0.348,0.14 0.608,0.14c0.26,0 0.464,-0.048 0.604,-0.14c0.14,-0.092 0.248,-0.216 0.316,-0.364c0.068,-0.148 0.112,-0.316 0.124,-0.5c0.012,-0.184 0.02,-0.364 0.02,-0.54l0,-3.282l1.561,0l0,3.498c0,0.94 -0.216,1.624 -0.644,2.057c-0.429,0.432 -1.089,0.648 -1.981,0.648c-0.893,0 -1.553,-0.216 -1.985,-0.648c-0.432,-0.433 -0.648,-1.117 -0.648,-2.057l0,-3.498l1.568,0Z" style="fill:white;fill-rule:nonzero;"/>
  <path id="path13445" d="M86.526,354.942l0,4.706l-1.568,0l0,-4.706l-1.289,0l0,-1.329l4.146,0l0,1.329l-1.289,0Z" style="fill:white;fill-rule:nonzero;"/>
  <path id="path13450" d="M87.642,271.557c0,0.24 0.044,0.46 0.136,0.664c0.092,0.204 0.212,0.38 0.368,0.528c0.156,0.148 0.336,0.264 0.54,0.348c0.204,0.084 0.424,0.124 0.652,0.124c0.228,0 0.449,-0.04 0.653,-0.124c0.204,-0.084 0.388,-0.2 0.544,-0.348c0.156,-0.148 0.28,-0.324 0.372,-0.528c0.092,-0.204 0.136,-0.424 0.136,-0.664c0,-0.241 -0.044,-0.461 -0.136,-0.665c-0.092,-0.204 -0.216,-0.38 -0.372,-0.528c-0.156,-0.148 -0.34,-0.264 -0.544,-0.348c-0.204,-0.084 -0.425,-0.124 -0.653,-0.124c-0.228,0 -0.448,0.04 -0.652,0.124c-0.204,0.084 -0.384,0.2 -0.54,0.348c-0.156,0.148 -0.276,0.324 -0.368,0.528c-0.092,0.204 -0.136,0.424 -0.136,0.665Zm-1.641,0c0,-0.449 0.084,-0.865 0.248,-1.253c0.164,-0.388 0.396,-0.724 0.688,-1.012c0.292,-0.289 0.645,-0.513 1.053,-0.677c0.408,-0.164 0.856,-0.244 1.348,-0.244c0.485,0 0.933,0.08 1.345,0.244c0.412,0.164 0.764,0.388 1.06,0.677c0.296,0.288 0.529,0.624 0.693,1.012c0.164,0.388 0.248,0.804 0.248,1.253c0,0.448 -0.084,0.864 -0.248,1.252c-0.164,0.388 -0.397,0.724 -0.693,1.012c-0.296,0.289 -0.648,0.513 -1.06,0.677c-0.412,0.164 -0.86,0.244 -1.345,0.244c-0.492,0 -0.94,-0.08 -1.348,-0.244c-0.408,-0.164 -0.761,-0.388 -1.053,-0.677c-0.292,-0.288 -0.524,-0.624 -0.688,-1.012c-0.164,-0.388 -0.248,-0.804 -0.248,-1.252Z" style="fill:rgb(75,75,75);fill-rule:nonzero;"/>
  <path id="path13452" d="M95.245,268.539l0,3.282c0,0.176 0.008,0.356 0.02,0.54c0.012,0.184 0.052,0.352 0.12,0.5c0.068,0.148 0.172,0.272 0.316,0.364c0.144,0.092 0.348,0.14 0.608,0.14c0.26,0 0.464,-0.048 0.604,-0.14c0.141,-0.092 0.249,-0.216 0.317,-0.364c0.068,-0.148 0.112,-0.316 0.124,-0.5c0.012,-0.184 0.02,-0.364 0.02,-0.54l0,-3.282l1.56,0l0,3.498c0,0.94 -0.216,1.624 -0.644,2.057c-0.428,0.432 -1.088,0.648 -1.981,0.648c-0.892,0 -1.552,-0.216 -1.985,-0.648c-0.432,-0.433 -0.648,-1.117 -0.648,-2.057l0,-3.498l1.569,0Z" style="fill:rgb(75,75,75);fill-rule:nonzero;"/>
  <path id="path13454" d="M102.488,269.868l0,4.706l-1.569,0l0,-4.706l-1.288,0l0,-1.329l4.145,0l0,1.329l-1.288,0Z" style="fill:rgb(75,75,75);fill-rule:nonzero;"/>
  <path id="path13456" d="M106.041,271.308l0.52,0c0.577,0 0.865,-0.252 0.865,-0.752c0,-0.5 -0.288,-0.752 -0.865,-0.752l-0.52,0l0,1.504Zm0,3.266l-1.568,0l0,-6.035l2.497,0c0.676,0 1.196,0.176 1.556,0.529c0.36,0.352 0.541,0.848 0.541,1.488c0,0.64 -0.181,1.137 -0.541,1.489c-0.36,0.352 -0.88,0.528 -1.556,0.528l-0.929,0l0,2.001Z" style="fill:rgb(75,75,75);fill-rule:nonzero;"/>
  <path id="path13458" d="M111.468,268.539l0,3.282c0,0.176 0.008,0.356 0.02,0.54c0.012,0.184 0.052,0.352 0.12,0.5c0.068,0.148 0.172,0.272 0.316,0.364c0.144,0.092 0.348,0.14 0.608,0.14c0.26,0 0.464,-0.048 0.604,-0.14c0.14,-0.092 0.248,-0.216 0.316,-0.364c0.068,-0.148 0.112,-0.316 0.124,-0.5c0.012,-0.184 0.02,-0.364 0.02,-0.54l0,-3.282l1.561,0l0,3.498c0,0.94 -0.216,1.624 -0.644,2.057c-0.428,0.432 -1.089,0.648 -1.981,0.648c-0.892,0 -1.553,-0.216 -1.985,-0.648c-0.432,-0.433 -0.648,-1.117 -0.648,-2.057l0,-3.498l1.569,0Z" style="fill:rgb(75,75,75);fill-rule:nonzero;"/>
  <path id="path13460" d="M118.711,269.868l0,4.706l-1.569,0l0,-4.706l-1.289,0l0,-1.329l4.146,0l0,1.329l-1.288,0Z" style="fill:rgb(75,75,75);fill-rule:nonzero;"/>
  <path id="path13465" d="M45.158,38.559l0,-5.112l1.378,0l0,0.964c0.357,-0.72 0.9,-1.08 1.63,-1.08c0.087,0 0.172,0.009 0.256,0.027l0,1.23c-0.196,-0.071 -0.377,-0.107 -0.545,-0.107c-0.55,0 -0.997,0.278 -1.341,0.833l0,3.245l-1.378,0Z" style="fill:white;fill-rule:nonzero;"/>
  <path id="path13467" d="M52.654,38.559l0,-0.963c-0.447,0.72 -1.028,1.08 -1.742,1.08c-0.456,0 -0.816,-0.144 -1.08,-0.433c-0.263,-0.29 -0.396,-0.683 -0.396,-1.183l0,-3.613l1.379,0l0,3.273c0,0.58 0.194,0.87 0.582,0.87c0.434,0 0.853,-0.308 1.257,-0.926l0,-3.217l1.377,0l0,5.112l-1.377,0Z" style="fill:white;fill-rule:nonzero;"/>
  <path id="path13469" d="M55.619,38.396l0,-1.01c0.683,0.286 1.267,0.428 1.751,0.428c0.565,0 0.847,-0.192 0.847,-0.577c0,-0.248 -0.233,-0.465 -0.698,-0.651l-0.466,-0.187c-0.506,-0.205 -0.867,-0.425 -1.085,-0.662c-0.217,-0.235 -0.325,-0.527 -0.325,-0.874c0,-0.485 0.184,-0.861 0.554,-1.13c0.369,-0.268 0.886,-0.402 1.55,-0.402c0.416,0 0.911,0.06 1.485,0.182l0,0.968c-0.553,-0.193 -1.01,-0.288 -1.373,-0.288c-0.572,0 -0.857,0.177 -0.857,0.53c0,0.233 0.211,0.43 0.633,0.591l0.401,0.153c0.599,0.227 1.015,0.457 1.249,0.69c0.235,0.233 0.351,0.532 0.351,0.899c0,0.48 -0.199,0.871 -0.598,1.171c-0.398,0.298 -0.918,0.449 -1.556,0.449c-0.615,0 -1.236,-0.094 -1.863,-0.28Z" style="fill:white;fill-rule:nonzero;"/>
  <path id="path13471" d="M61.011,38.396l0,-1.01c0.682,0.286 1.266,0.428 1.75,0.428c0.564,0 0.847,-0.192 0.847,-0.577c0,-0.248 -0.233,-0.465 -0.698,-0.651l-0.466,-0.187c-0.506,-0.205 -0.868,-0.425 -1.085,-0.662c-0.217,-0.235 -0.326,-0.527 -0.326,-0.874c0,-0.485 0.185,-0.861 0.555,-1.13c0.369,-0.268 0.886,-0.402 1.55,-0.402c0.416,0 0.91,0.06 1.485,0.182l0,0.968c-0.552,-0.193 -1.011,-0.288 -1.374,-0.288c-0.571,0 -0.857,0.177 -0.857,0.53c0,0.233 0.212,0.43 0.634,0.591l0.401,0.153c0.598,0.227 1.015,0.457 1.249,0.69c0.235,0.233 0.352,0.532 0.352,0.899c0,0.48 -0.199,0.871 -0.598,1.171c-0.4,0.298 -0.918,0.449 -1.558,0.449c-0.614,0 -1.234,-0.094 -1.861,-0.28Z" style="fill:white;fill-rule:nonzero;"/>
  <path id="path13473" d="M66.536,38.559l0,-5.112l1.378,0l0,5.112l-1.378,0Zm0,-5.972l0,-1.151l1.378,0l0,1.151l-1.378,0Z" style="fill:white;fill-rule:nonzero;"/>
  <path id="path13475" d="M72.142,38.01c-0.46,0.443 -0.952,0.666 -1.476,0.666c-0.447,0 -0.81,-0.137 -1.09,-0.41c-0.279,-0.273 -0.419,-0.627 -0.419,-1.062c0,-0.564 0.226,-1 0.678,-1.306c0.452,-0.306 1.097,-0.458 1.939,-0.458l0.368,0l0,-0.466c0,-0.53 -0.303,-0.796 -0.909,-0.796c-0.537,0 -1.08,0.152 -1.628,0.456l0,-0.949c0.623,-0.237 1.241,-0.354 1.853,-0.354c1.337,0 2.006,0.532 2.006,1.597l0,2.262c0,0.4 0.128,0.6 0.386,0.6c0.047,0 0.107,-0.005 0.181,-0.018l0.033,0.773c-0.292,0.087 -0.549,0.131 -0.773,0.131c-0.565,0 -0.927,-0.223 -1.089,-0.666l-0.06,0Zm0,-0.74l0,-1.039l-0.327,0c-0.89,0 -1.336,0.279 -1.336,0.838c0,0.19 0.065,0.349 0.194,0.478c0.128,0.128 0.288,0.193 0.477,0.193c0.322,0 0.653,-0.157 0.992,-0.47Z" style="fill:white;fill-rule:nonzero;"/>
  <path id="path13477" d="M75.242,38.559l0,-5.112l1.378,0l0,0.964c0.45,-0.72 1.03,-1.08 1.741,-1.08c0.456,0 0.816,0.144 1.081,0.433c0.263,0.289 0.395,0.683 0.395,1.183l0,3.612l-1.378,0l0,-3.273c0,-0.58 -0.192,-0.87 -0.577,-0.87c-0.438,0 -0.858,0.308 -1.262,0.927l0,3.216l-1.378,0Z" style="fill:white;fill-rule:nonzero;"/>
  <path id="path13479" d="M84.791,38.559l0,-4.251l-0.703,0l0,-0.861l0.703,0l0,-0.353c0,-0.643 0.152,-1.137 0.458,-1.484c0.306,-0.345 0.741,-0.518 1.306,-0.518c0.348,0 0.716,0.063 1.108,0.19l0,0.941c-0.385,-0.171 -0.67,-0.256 -0.856,-0.256c-0.426,0 -0.639,0.388 -0.639,1.164l0,0.316l3.218,0l0,5.112l-1.379,0l0,-4.251l-1.839,0l0,4.251l-1.377,0Zm3.445,-5.972l0,-1.151l1.15,0l0,1.151l-1.15,0Z" style="fill:white;fill-rule:nonzero;"/>
  <rect id="rect13481" x="91.108" y="31.208" width="1.379" height="7.351" style="fill:white;"/>
  <path id="path13483" d="M96.844,38.532c-0.33,0.095 -0.589,0.144 -0.778,0.144c-1.195,0 -1.792,-0.559 -1.792,-1.676l0,-2.692l-0.573,0l0,-0.861l0.573,0l0,-0.86l1.378,-0.159l0,1.019l1.093,0l0,0.861l-1.093,0l0,2.509c0,0.628 0.256,0.942 0.768,0.942c0.118,0 0.259,-0.023 0.424,-0.066l0,0.839Z" style="fill:white;fill-rule:nonzero;"/>
  <path id="path13485" d="M102.235,38.387c-0.655,0.192 -1.276,0.289 -1.862,0.289c-0.854,0 -1.527,-0.243 -2.022,-0.727c-0.493,-0.484 -0.74,-1.145 -0.74,-1.983c0,-0.792 0.227,-1.428 0.678,-1.911c0.452,-0.483 1.048,-0.724 1.79,-0.724c0.748,0 1.294,0.236 1.639,0.707c0.344,0.472 0.517,1.219 0.517,2.239l-3.171,0c0.093,0.976 0.629,1.463 1.606,1.463c0.463,0 0.984,-0.107 1.565,-0.321l0,0.968Zm-3.189,-2.887l1.834,0c0,-0.872 -0.281,-1.307 -0.843,-1.307c-0.571,0 -0.901,0.435 -0.991,1.307Z" style="fill:white;fill-rule:nonzero;"/>
  <path id="path13487" d="M103.659,38.559l0,-5.112l1.379,0l0,0.964c0.356,-0.72 0.9,-1.08 1.629,-1.08c0.087,0 0.172,0.009 0.255,0.027l0,1.23c-0.195,-0.071 -0.377,-0.107 -0.544,-0.107c-0.55,0 -0.996,0.278 -1.34,0.833l0,3.245l-1.379,0Z" style="fill:white;fill-rule:nonzero;"/>
  <path id="path13492" d="M51.368,17.71l2.29,5.774l2.302,-5.774l2.679,0l-4.001,9.485l-1.962,0l-3.987,-9.485l2.679,0Z" style="fill:rgb(172,181,188);fill-rule:nonzero;"/>
  <path id="path13494" d="M61.345,22.452c0,0.378 0.07,0.726 0.213,1.044c0.142,0.318 0.335,0.596 0.579,0.831c0.242,0.235 0.526,0.417 0.848,0.546c0.324,0.131 0.665,0.196 1.026,0.196c0.361,0 0.702,-0.065 1.026,-0.196c0.322,-0.129 0.607,-0.311 0.855,-0.546c0.247,-0.235 0.442,-0.513 0.584,-0.831c0.143,-0.318 0.215,-0.666 0.215,-1.044c0,-0.377 -0.072,-0.725 -0.215,-1.044c-0.142,-0.319 -0.337,-0.596 -0.584,-0.83c-0.248,-0.234 -0.533,-0.417 -0.855,-0.547c-0.324,-0.13 -0.665,-0.195 -1.026,-0.195c-0.361,0 -0.702,0.065 -1.026,0.195c-0.322,0.13 -0.606,0.313 -0.848,0.547c-0.244,0.234 -0.437,0.511 -0.579,0.83c-0.143,0.319 -0.213,0.667 -0.213,1.044Zm-2.58,0c0,-0.705 0.13,-1.36 0.39,-1.969c0.26,-0.607 0.621,-1.138 1.081,-1.591c0.463,-0.453 1.014,-0.807 1.655,-1.063c0.642,-0.256 1.349,-0.384 2.12,-0.384c0.763,0 1.468,0.128 2.114,0.384c0.644,0.256 1.201,0.61 1.666,1.063c0.466,0.453 0.828,0.984 1.088,1.591c0.26,0.609 0.39,1.264 0.39,1.969c0,0.705 -0.13,1.361 -0.39,1.969c-0.26,0.608 -0.622,1.138 -1.088,1.591c-0.465,0.453 -1.022,0.807 -1.666,1.063c-0.646,0.256 -1.351,0.384 -2.114,0.384c-0.771,0 -1.478,-0.128 -2.12,-0.384c-0.641,-0.256 -1.192,-0.61 -1.655,-1.063c-0.46,-0.453 -0.821,-0.983 -1.081,-1.591c-0.26,-0.608 -0.39,-1.264 -0.39,-1.969Z" style="fill:rgb(172,181,188);fill-rule:nonzero;"/>
  <path id="path13496" d="M73.295,21.948l0.466,0c0.486,0 0.859,-0.099 1.119,-0.301c0.259,-0.201 0.39,-0.491 0.39,-0.868c0,-0.377 -0.131,-0.666 -0.39,-0.868c-0.26,-0.201 -0.633,-0.301 -1.119,-0.301l-0.466,0l0,2.338Zm5.422,5.247l-3.07,0l-2.352,-3.648l0,3.648l-2.466,0l0,-9.485l3.837,0c0.528,0 0.99,0.078 1.384,0.232c0.395,0.156 0.719,0.368 0.975,0.635c0.256,0.269 0.448,0.58 0.578,0.931c0.131,0.353 0.195,0.73 0.195,1.133c0,0.721 -0.173,1.306 -0.521,1.755c-0.349,0.449 -0.862,0.753 -1.541,0.912l2.981,3.887Z" style="fill:rgb(172,181,188);fill-rule:nonzero;"/>
  <path id="path13498" d="M83.359,19.797l0,7.398l-2.466,0l0,-7.398l-2.026,0l0,-2.087l6.517,0l0,2.087l-2.025,0Z" style="fill:rgb(172,181,188);fill-rule:nonzero;"/>
  <path id="path13500" d="M91.875,19.797l-2.93,0l0,1.585l2.767,0l0,2.089l-2.767,0l0,1.635l2.93,0l0,2.089l-5.397,0l0,-9.485l5.397,0l0,2.087Z" style="fill:rgb(172,181,188);fill-rule:nonzero;"/>
  <path id="path13502" d="M96.366,22.138l-2.955,-4.428l3.043,0l1.284,2.452l1.585,-2.452l3.043,0l-3.131,4.428l3.535,5.057l-3.008,0l-1.899,-3.094l-2.227,3.094l-2.981,0l3.711,-5.057Z" style="fill:rgb(172,181,188);fill-rule:nonzero;"/>
  <path id="path13507" d="M127.229,276.548c2.687,0 4.869,2.029 4.869,4.527l0,30.329c0,2.499 -2.182,4.528 -4.869,4.528l-25.556,0c0,0 -24.758,0 -24.758,0c-2.615,0 -4.737,-1.974 -4.737,-4.405l0,-30.575c0,-2.431 2.122,-4.404 4.737,-4.404l50.314,0Z" style="stroke:rgb(65,76,85);stroke-width:1.37px;stroke-linecap:butt;"/>
  <path id="path42" d="M62.952,363.5l2.673,0l2.49,8.317l2.574,-8.317l2.66,0l-3.46,10.397c-0.323,0.959 -0.903,1.438 -1.738,1.438c-0.847,0 -1.433,-0.484 -1.755,-1.453l-3.444,-10.382Z" style="fill:rgb(173,181,187);fill-rule:nonzero;"/>
  <path id="path44" d="M73.55,372.292l0,-8.792l2.507,0l0,8.709c0.044,0.312 0.334,0.468 0.869,0.468l1.705,0c0.513,0 0.797,-0.145 0.853,-0.435l0.017,-0.083l0,-8.659l2.507,0l0,8.776c0,0.769 -0.083,1.315 -0.251,1.638c-0.445,0.858 -1.231,1.287 -2.357,1.287l-3.243,0c-1.159,0 -1.95,-0.44 -2.373,-1.321c-0.156,-0.323 -0.234,-0.852 -0.234,-1.588l0,0Z" style="fill:rgb(173,181,187);fill-rule:nonzero;"/>
  <path id="path46" d="M83.161,372.343l0,-8.843l2.508,0l0,8.642c0,0.357 0.211,0.535 0.635,0.535l4.463,0l-0.016,2.524l-4.664,0c-0.167,0 -0.312,-0.006 -0.435,-0.017c-0.903,-0.077 -1.544,-0.342 -1.922,-0.794c-0.379,-0.451 -0.569,-1.133 -0.569,-2.047l0,0Z" style="fill:rgb(173,181,187);fill-rule:nonzero;"/>
  <path id="path48" d="M90.851,366.024l0,-2.524l7.522,0l0,2.524l-2.524,0l0,9.177l-2.508,0l0,-9.177l-2.49,0Z" style="fill:rgb(173,181,187);fill-rule:nonzero;"/>
  <path id="path4" d="M59.383,369.417c0,-4.509 -3.655,-8.164 -8.164,-8.164c-4.509,0 -8.165,3.655 -8.165,8.164c0,4.509 3.656,8.165 8.165,8.165c4.509,0 8.164,-3.656 8.164,-8.165Z" style="fill:rgb(117,117,117);fill-rule:nonzero;stroke:rgb(65,76,85);stroke-width:0.61px;stroke-linecap:butt;stroke-miterlimit:10;"/>
  <path id="polygon6" d="M49.321,374.394l0.553,-0.891l-1.064,-2.393l-2.216,-2.284l0.46,3.101l0.597,1.28l0.833,1.264l0.837,-0.077Z" style="fill:rgb(43,43,43);fill-rule:nonzero;"/>
  <path id="polygon8" d="M53.048,374.401l-0.553,-0.89l1.064,-2.393l2.216,-2.285l-0.46,3.101l-0.597,1.281l-0.833,1.263l-0.837,-0.077Z" style="fill:rgb(38,38,38);fill-rule:nonzero;"/>
  <path id="polygon12" d="M48.636,363.359l2.584,-0.66l0,13.447l-1.349,-2.651l-1.061,-2.385l-1.022,-0.581l-2.052,-2.92l-0.057,-0.776l1.148,-2.067l1.809,-1.407Z" style="fill:rgb(66,66,66);fill-rule:nonzero;"/>
  <path id="polygon14" d="M53.801,363.364l-2.584,-0.661l0,13.448l1.35,-2.651l1.06,-2.385l1.023,-0.581l2.051,-2.921l0.058,-0.775l-1.149,-2.067l-1.809,-1.407Z" style="fill:rgb(51,51,51);fill-rule:nonzero;"/>
  <path id="polyline16" d="M49.496,369.237l1.723,-1.684l0,1.229l-1.723,1.719l0,-1.264" style="fill:rgb(76,76,76);fill-rule:nonzero;"/>
  <path id="polygon18" d="M51.22,368.781l-1.723,1.718l0.377,3.004l1.346,2.643l0,-7.365Z" style="fill:rgb(91,91,91);fill-rule:nonzero;"/>
  <path id="polygon20" d="M51.22,376.146l-1.346,-2.643l1.346,-0.635l0,3.278Z" style="fill:rgb(51,51,51);fill-rule:nonzero;"/>
  <path id="polygon22" d="M49.497,370.499l0,-1.263l-1.249,-1.58l-1.477,-1.19l-0.001,0.932l0.775,1.823l1.952,1.278Z" style="fill:white;fill-rule:nonzero;"/>
  <path id="polyline24" d="M52.942,369.238l-1.722,-1.685l0,1.23l1.722,1.718l0,-1.263" style="fill:rgb(45,45,45);fill-rule:nonzero;"/>
  <path id="polygon26" d="M51.218,368.781l1.722,1.718l-0.376,3.004l-1.347,2.643l0.001,-7.365Z" style="fill:rgb(53,53,53);fill-rule:nonzero;"/>
  <path id="polygon28" d="M51.217,376.146l1.347,-2.643l-1.346,-0.635l-0.001,3.278Z" style="fill:rgb(25,25,25);fill-rule:nonzero;"/>
  <path id="polygon30" d="M52.94,370.499l0,-1.263l1.249,-1.58l1.478,-1.19l0.001,0.932l-0.775,1.823l-1.953,1.278Z" style="fill:white;fill-rule:nonzero;"/>
  <path id="polyline32" d="M48.652,363.338l2.566,4.215l-0.005,-4.87" style="fill:rgb(56,56,56);fill-rule:nonzero;"/>
  <path id="polyline34" d="M53.785,363.338l-2.566,4.215l0.006,-4.869" style="fill:rgb(45,45,45);fill-rule:nonzero;"/>
  <path id="polygon36" d="M48.811,371.111l0.688,-0.611l0.375,3.006l-1.063,-2.395Z" style="fill:rgb(51,51,51);fill-rule:nonzero;"/>
  <path id="polygon38" d="M53.631,371.125l-0.688,-0.61l-0.375,3.006l1.063,-2.396Z" style="fill:rgb(28,28,28);fill-rule:nonzero;"/>
  <path id="path13539" d="M112.201,311.708l0.344,0c0.396,0 0.676,-0.052 0.848,-0.152c0.172,-0.1 0.257,-0.264 0.257,-0.488c0,-0.224 -0.084,-0.388 -0.257,-0.488c-0.172,-0.1 -0.452,-0.152 -0.848,-0.152l-0.344,0l0,1.28Zm0,-2.449l0.288,0c0.492,0 0.736,-0.196 0.736,-0.584c0,-0.388 -0.244,-0.584 -0.736,-0.584l-0.288,0l0,1.168Zm-1.569,-2.369l2.337,0c0.556,0 0.977,0.132 1.265,0.4c0.288,0.269 0.432,0.653 0.432,1.153c0,0.304 -0.056,0.556 -0.164,0.756c-0.108,0.2 -0.276,0.368 -0.5,0.508c0.224,0.044 0.416,0.109 0.572,0.197c0.156,0.088 0.284,0.196 0.384,0.324c0.1,0.128 0.168,0.272 0.212,0.432c0.044,0.16 0.064,0.332 0.064,0.512c0,0.284 -0.048,0.532 -0.148,0.752c-0.1,0.22 -0.236,0.405 -0.416,0.553c-0.18,0.148 -0.396,0.26 -0.652,0.336c-0.256,0.076 -0.545,0.112 -0.865,0.112l-2.521,0l0,-6.035Z" style="fill:white;fill-rule:nonzero;"/>
  <path id="path13541" d="M117.739,309.659l0.52,0c0.577,0 0.865,-0.252 0.865,-0.752c0,-0.5 -0.288,-0.752 -0.865,-0.752l-0.52,0l0,1.504Zm0,3.266l-1.568,0l0,-6.035l2.497,0c0.676,0 1.196,0.176 1.556,0.529c0.36,0.352 0.54,0.848 0.54,1.488c0,0.64 -0.18,1.137 -0.54,1.489c-0.36,0.352 -0.88,0.528 -1.556,0.528l-0.929,0l0,2.001Z" style="fill:white;fill-rule:nonzero;"/>
  <path id="path13546" d="M87.021,306.89l0,4.706l1.881,0l0,1.329l-3.449,0l0,-6.035l1.568,0Z" style="fill:white;fill-rule:nonzero;"/>
  <path id="path13548" d="M91.279,309.659l0.52,0c0.577,0 0.865,-0.252 0.865,-0.752c0,-0.5 -0.288,-0.752 -0.865,-0.752l-0.52,0l0,1.504Zm0,3.266l-1.568,0l0,-6.035l2.497,0c0.676,0 1.196,0.176 1.556,0.529c0.36,0.352 0.54,0.848 0.54,1.488c0,0.64 -0.18,1.137 -0.54,1.489c-0.36,0.352 -0.88,0.528 -1.556,0.528l-0.929,0l0,2.001Z" style="fill:white;fill-rule:nonzero;"/>
  <path id="path13553" d="M43.66,262.748l0.36,0c0.272,0 0.516,-0.044 0.728,-0.128c0.212,-0.084 0.392,-0.204 0.54,-0.352c0.149,-0.148 0.261,-0.328 0.337,-0.532c0.076,-0.204 0.116,-0.432 0.116,-0.676c0,-0.241 -0.04,-0.465 -0.12,-0.673c-0.08,-0.208 -0.192,-0.388 -0.341,-0.536c-0.148,-0.148 -0.328,-0.268 -0.54,-0.352c-0.212,-0.084 -0.452,-0.128 -0.72,-0.128l-0.36,0l0,3.377Zm-1.569,-4.706l2.321,0c0.412,0 0.796,0.084 1.157,0.248c0.36,0.164 0.676,0.385 0.944,0.661c0.268,0.276 0.48,0.596 0.636,0.96c0.156,0.364 0.232,0.748 0.232,1.149c0,0.396 -0.076,0.776 -0.228,1.14c-0.152,0.364 -0.364,0.688 -0.632,0.964c-0.268,0.277 -0.584,0.501 -0.944,0.665c-0.361,0.164 -0.749,0.248 -1.165,0.248l-2.321,0l0,-6.035Z" style="fill:white;fill-rule:nonzero;"/>
  <path id="path13555" d="M49.95,260.739l0.297,0c0.308,0 0.548,-0.064 0.712,-0.192c0.164,-0.128 0.248,-0.312 0.248,-0.552c0,-0.24 -0.084,-0.424 -0.248,-0.552c-0.164,-0.128 -0.404,-0.192 -0.712,-0.192l-0.297,0l0,1.488Zm3.45,3.338l-1.953,0l-1.497,-2.321l0,2.321l-1.568,0l0,-6.035l2.441,0c0.336,0 0.628,0.048 0.88,0.148c0.252,0.1 0.456,0.232 0.62,0.405c0.164,0.172 0.285,0.368 0.369,0.592c0.084,0.224 0.124,0.464 0.124,0.72c0,0.46 -0.112,0.832 -0.333,1.117c-0.22,0.284 -0.548,0.48 -0.98,0.58l1.897,2.473Z" style="fill:white;fill-rule:nonzero;"/>
  <rect id="rect13557" x="54.056" y="258.042" width="1.569" height="6.035" style="fill:white;"/>
  <path id="path13559" d="M57.962,258.042l1.456,3.674l1.465,-3.674l1.705,0l-2.545,6.035l-1.249,0l-2.537,-6.035l1.705,0Z" style="fill:white;fill-rule:nonzero;"/>
  <path id="path13561" d="M66.653,259.371l-1.864,0l0,1.008l1.76,0l0,1.329l-1.76,0l0,1.04l1.864,0l0,1.329l-3.433,0l0,-6.035l3.433,0l0,1.329Z" style="fill:white;fill-rule:nonzero;"/>
  <path id="path13566" d="M126.904,224.662c2.737,-4.742 1.664,-10.824 -2.534,-14.346c-4.193,-3.521 -10.372,-3.521 -14.566,0c-4.197,3.522 -5.27,9.604 -2.533,14.346l9.816,-5.666l9.817,5.666Z" style="fill:none;stroke:rgb(204,204,204);stroke-width:1px;"/>
  <path id="path13569" d="M126.531,225.859l0.024,4.409" style="fill:rgb(204,204,204);fill-rule:nonzero;stroke:rgb(204,204,204);stroke-width:1px;"/>
  <path id="path13572" d="M128.748,228.032l-4.41,0.02" style="fill:rgb(204,204,204);fill-rule:nonzero;stroke:rgb(204,204,204);stroke-width:1px;"/>
  <path id="path13575" d="M110.429,227.908l-4.414,0.02" style="fill:rgb(204,204,204);fill-rule:nonzero;stroke:rgb(204,204,204);stroke-width:1px;"/>
  <path id="path13578" d="M117.087,219l-0.024,-13.31" style="fill:none;stroke:rgb(204,204,204);stroke-width:1px;"/>
  <path d="M23.206,309.07l0.876,0l0,4.272l-0.984,0l-0.006,-1.956l-0.81,1.956l-0.714,0l-0.816,-1.932l0,1.932l-0.978,0l0,-4.272l0.882,0l1.278,2.916l1.272,-2.916Z" style="fill:rgb(75,75,75);fill-rule:nonzero;"/>
  <path d="M26.902,313.396c-0.436,0 -0.816,-0.089 -1.14,-0.267c-0.324,-0.178 -0.573,-0.433 -0.747,-0.765c-0.174,-0.332 -0.261,-0.72 -0.261,-1.164c0,-0.444 0.088,-0.83 0.264,-1.158c0.176,-0.328 0.425,-0.581 0.747,-0.759c0.322,-0.178 0.701,-0.267 1.137,-0.267c0.436,0 0.815,0.089 1.137,0.267c0.322,0.178 0.569,0.431 0.741,0.759c0.172,0.328 0.258,0.714 0.258,1.158c0,0.444 -0.086,0.832 -0.258,1.164c-0.172,0.332 -0.419,0.587 -0.741,0.765c-0.322,0.178 -0.701,0.267 -1.137,0.267Zm0,-0.858c0.32,0 0.571,-0.114 0.753,-0.342c0.182,-0.228 0.273,-0.56 0.273,-0.996c0,-0.432 -0.091,-0.761 -0.273,-0.987c-0.182,-0.226 -0.433,-0.339 -0.753,-0.339c-0.32,0 -0.57,0.112 -0.75,0.336c-0.18,0.224 -0.27,0.554 -0.27,0.99c0,0.44 0.09,0.773 0.27,0.999c0.18,0.226 0.43,0.339 0.75,0.339Z" style="fill:rgb(75,75,75);fill-rule:nonzero;"/>
  <path d="M29.698,309.07l1.746,0c0.472,0 0.879,0.085 1.221,0.255c0.342,0.17 0.604,0.415 0.786,0.735c0.182,0.32 0.273,0.7 0.273,1.14c0,0.444 -0.09,0.827 -0.27,1.149c-0.18,0.322 -0.441,0.568 -0.783,0.738c-0.342,0.17 -0.751,0.255 -1.227,0.255l-1.746,0l0,-4.272Zm1.668,3.372c0.416,0 0.727,-0.103 0.933,-0.309c0.206,-0.206 0.309,-0.517 0.309,-0.933c0,-0.82 -0.414,-1.23 -1.242,-1.23l-0.54,0l0,2.472l0.54,0Z" style="fill:rgb(75,75,75);fill-rule:nonzero;"/>
  <path d="M34.384,313.342l0,-4.272l3.048,0l0,0.864l-1.95,0l0,0.804l1.824,0l0,0.864l-1.824,0l0,0.876l1.95,0l0,0.864l-3.048,0Z" style="fill:rgb(75,75,75);fill-rule:nonzero;"/>
  <path d="M38.008,313.342l0,-4.272l1.128,0l0,3.36l1.806,0l0,0.912l-2.934,0Z" style="fill:rgb(75,75,75);fill-rule:nonzero;"/>
  <path d="M33.901,290.235l0,-4.272l1.128,0l0,3.36l1.806,0l0,0.912l-2.934,0Z" style="fill:white;fill-rule:nonzero;"/>
  <path d="M39.841,285.963l1.134,0l-1.944,4.272l-0.894,0l-1.944,-4.272l1.17,0l1.23,2.868l1.248,-2.868Z" style="fill:white;fill-rule:nonzero;"/>
  <path d="M38.298,302.235l-1.393,0l-0.644,-1.659c-0.074,-0.187 -0.249,-0.28 -0.525,-0.28l-0.476,0l0,1.939l-1.295,0l0,-4.984l2.317,0c0.602,0 1.055,0.129 1.358,0.388c0.304,0.259 0.455,0.629 0.455,1.11c0,0.336 -0.09,0.626 -0.269,0.871c-0.18,0.245 -0.433,0.419 -0.76,0.522c0.14,0.028 0.266,0.093 0.378,0.196c0.112,0.102 0.201,0.24 0.266,0.413l0.588,1.484Zm-2.226,-2.919c0.28,0 0.483,-0.043 0.609,-0.13c0.126,-0.086 0.189,-0.22 0.189,-0.402c0,-0.192 -0.062,-0.329 -0.185,-0.413c-0.124,-0.084 -0.328,-0.126 -0.613,-0.126l-0.826,0l0,1.071l0.826,0Z" style="fill:white;fill-rule:nonzero;"/>
  <path d="M40.727,302.298c-0.373,0 -0.742,-0.049 -1.106,-0.147c-0.364,-0.098 -0.66,-0.231 -0.889,-0.399l0.413,-0.931c0.243,0.154 0.501,0.272 0.774,0.353c0.273,0.082 0.547,0.123 0.822,0.123c0.28,0 0.495,-0.039 0.644,-0.116c0.15,-0.077 0.224,-0.185 0.224,-0.325c0,-0.126 -0.067,-0.23 -0.203,-0.312c-0.135,-0.081 -0.389,-0.162 -0.763,-0.241c-0.471,-0.094 -0.837,-0.209 -1.099,-0.347c-0.261,-0.137 -0.444,-0.3 -0.549,-0.486c-0.105,-0.187 -0.158,-0.413 -0.158,-0.679c0,-0.304 0.087,-0.578 0.259,-0.823c0.173,-0.245 0.416,-0.436 0.728,-0.574c0.313,-0.137 0.67,-0.206 1.071,-0.206c0.36,0 0.708,0.05 1.047,0.15c0.338,0.101 0.603,0.232 0.794,0.396l-0.406,0.931c-0.219,-0.154 -0.45,-0.272 -0.693,-0.354c-0.242,-0.081 -0.485,-0.122 -0.728,-0.122c-0.238,0 -0.429,0.045 -0.574,0.136c-0.144,0.091 -0.217,0.214 -0.217,0.368c0,0.084 0.026,0.154 0.077,0.21c0.052,0.056 0.147,0.111 0.287,0.164c0.14,0.054 0.35,0.111 0.63,0.172c0.453,0.098 0.809,0.216 1.068,0.353c0.259,0.138 0.442,0.299 0.549,0.483c0.108,0.185 0.161,0.405 0.161,0.662c0,0.485 -0.189,0.867 -0.567,1.144c-0.378,0.278 -0.91,0.417 -1.596,0.417Z" style="fill:white;fill-rule:nonzero;"/>
</svg>