<?xml version="1.0" encoding="UTF-8" standalone="no"?>
<!-- Created with Inkscape (http://www.inkscape.org/) -->

<svg
   xmlns:dc="http://purl.org/dc/elements/1.1/"
   xmlns:cc="http://creativecommons.org/ns#"
   xmlns:rdf="http://www.w3.org/1999/02/22-rdf-syntax-ns#"
   xmlns:svg="http://www.w3.org/2000/svg"
   xmlns="http://www.w3.org/2000/svg"
   xmlns:sodipodi="http://sodipodi.sourceforge.net/DTD/sodipodi-0.dtd"
   xmlns:inkscape="http://www.inkscape.org/namespaces/inkscape"
   width="210"
   height="380"
   viewBox="0 0 210 380"
   version="1.1"
   id="svg12553"
   inkscape:version="0.92.2 2405546, 2018-03-11"
   sodipodi:docname="PiongBackup.svg"
   style="enable-background:new">
  <defs
     id="defs12547">
    <marker
       inkscape:stockid="Tail"
       orient="auto"
       refY="0"
       refX="0"
       id="Tail"
       style="overflow:visible"
       inkscape:isstock="true">
      <g
         id="g6757"
         transform="scale(-1.2)">
        <path
           id="path6745"
           d="M -3.8048674,-3.9585227 0.54352094,0"
           style="fill:none;fill-rule:evenodd;stroke:#000000;stroke-width:0.80000001;stroke-linecap:round"
           inkscape:connector-curvature="0" />
        <path
           id="path6747"
           d="M -1.2866832,-3.9585227 3.0617053,0"
           style="fill:none;fill-rule:evenodd;stroke:#000000;stroke-width:0.80000001;stroke-linecap:round"
           inkscape:connector-curvature="0" />
        <path
           id="path6749"
           d="M 1.3053582,-3.9585227 5.6537466,0"
           style="fill:none;fill-rule:evenodd;stroke:#000000;stroke-width:0.80000001;stroke-linecap:round"
           inkscape:connector-curvature="0" />
        <path
           id="path6751"
           d="M -3.8048674,4.1775838 0.54352094,0.21974226"
           style="fill:none;fill-rule:evenodd;stroke:#000000;stroke-width:0.80000001;stroke-linecap:round"
           inkscape:connector-curvature="0" />
        <path
           id="path6753"
           d="M -1.2866832,4.1775838 3.0617053,0.21974226"
           style="fill:none;fill-rule:evenodd;stroke:#000000;stroke-width:0.80000001;stroke-linecap:round"
           inkscape:connector-curvature="0" />
        <path
           id="path6755"
           d="M 1.3053582,4.1775838 5.6537466,0.21974226"
           style="fill:none;fill-rule:evenodd;stroke:#000000;stroke-width:0.80000001;stroke-linecap:round"
           inkscape:connector-curvature="0" />
      </g>
    </marker>
    <marker
       inkscape:stockid="Arrow1Lstart"
       orient="auto"
       refY="0"
       refX="0"
       id="marker6981"
       style="overflow:visible"
       inkscape:isstock="true">
      <path
         id="path6979"
         d="M 0,0 5,-5 -12.5,0 5,5 Z"
         style="fill-rule:evenodd;stroke:#000000;stroke-width:1.00000003pt"
         transform="matrix(0.8,0,0,0.8,10,0)"
         inkscape:connector-curvature="0" />
    </marker>
    <marker
       inkscape:stockid="Arrow1Lstart"
       orient="auto"
       refY="0"
       refX="0"
       id="Arrow1Lstart"
       style="overflow:visible"
       inkscape:isstock="true">
      <path
         id="path6709"
         d="M 0,0 5,-5 -12.5,0 5,5 Z"
         style="fill-rule:evenodd;stroke:#000000;stroke-width:1.00000003pt"
         transform="matrix(0.8,0,0,0.8,10,0)"
         inkscape:connector-curvature="0" />
    </marker>
  </defs>
  <sodipodi:namedview
     id="base"
     pagecolor="#ffffff"
     bordercolor="#666666"
     borderopacity="1.0"
     inkscape:pageopacity="0.0"
     inkscape:pageshadow="2"
     inkscape:zoom="1.4142135"
     inkscape:cx="-124.16854"
     inkscape:cy="240.83848"
     inkscape:document-units="px"
     inkscape:current-layer="layer6"
     showgrid="true"
     fit-margin-top="0"
     fit-margin-left="0"
     fit-margin-right="0"
     fit-margin-bottom="0"
     units="px"
     inkscape:window-width="1920"
     inkscape:window-height="1080"
     inkscape:window-x="0"
     inkscape:window-y="0"
     inkscape:window-maximized="0"
     gridtolerance="6"
     inkscape:measure-start="30.2273,250.267"
     inkscape:measure-end="30.2273,250.399"
     showguides="false"
     viewbox-width="52.5"
     scale-x="0.25">
    <inkscape:grid
       type="xygrid"
       id="grid12870"
       originx="0"
       originy="0"
       spacingx="15"
       spacingy="5"
       units="px"
       empspacing="2" />
  </sodipodi:namedview>
  <metadata
     id="metadata12550">
    <rdf:RDF>
      <cc:Work
         rdf:about="">
        <dc:format>image/svg+xml</dc:format>
        <dc:type
           rdf:resource="http://purl.org/dc/dcmitype/StillImage" />
        <dc:title></dc:title>
      </cc:Work>
    </rdf:RDF>
  </metadata>
  <g
     inkscape:groupmode="layer"
     id="layer7"
     inkscape:label="background"
     style="display:inline">
    <rect
       transform="translate(0,-27.958328)"
       id="rect4036"
       width="209.39314"
       height="379.92068"
       x="0.60687542"
       y="28.237043"
       style="fill:#efcc34;fill-opacity:1;stroke:#a76f2e;stroke-width:5;stroke-miterlimit:4;stroke-dasharray:none;stroke-opacity:1;enable-background:new" />
  </g>
  <g
     inkscape:groupmode="layer"
     id="layer6"
     inkscape:label="foreground"
     style="display:inline">
    <path
       style="fill:none;stroke:#e6d9cc;stroke-width:1px;stroke-linecap:butt;stroke-linejoin:miter;stroke-opacity:1"
       d="m 105,100 v 5"
       id="path1708"
       inkscape:connector-curvature="0" />
    <path
       style="fill:none;stroke:#e6d9cc;stroke-width:1px;stroke-linecap:butt;stroke-linejoin:miter;stroke-opacity:1"
       d="m 105,110 v 5"
       id="path1710"
       inkscape:connector-curvature="0" />
    <path
       style="fill:none;stroke:#e6d9cc;stroke-width:1px;stroke-linecap:butt;stroke-linejoin:miter;stroke-opacity:1"
       d="m 105,120 v 5"
       id="path1712"
       inkscape:connector-curvature="0" />
    <path
       style="fill:none;stroke:#e6d9cc;stroke-width:1px;stroke-linecap:butt;stroke-linejoin:miter;stroke-opacity:1"
       d="m 105,130 v 5"
       id="path1714"
       inkscape:connector-curvature="0" />
    <path
       style="fill:none;stroke:#e6d9cc;stroke-width:1px;stroke-linecap:butt;stroke-linejoin:miter;stroke-opacity:1"
       d="m 105,140 v 5"
       id="path1716"
       inkscape:connector-curvature="0" />
    <path
       style="fill:none;stroke:#e6d9cc;stroke-width:1px;stroke-linecap:butt;stroke-linejoin:miter;stroke-opacity:1"
       d="m 105,150 v 5"
       id="path1718"
       inkscape:connector-curvature="0" />
    <path
       style="fill:none;stroke:#e6d9cc;stroke-width:1px;stroke-linecap:butt;stroke-linejoin:miter;stroke-opacity:1"
       d="m 105,160 v 5"
       id="path1720"
       inkscape:connector-curvature="0" />
    <path
       style="fill:none;stroke:#e6d9cc;stroke-width:1px;stroke-linecap:butt;stroke-linejoin:miter;stroke-opacity:1"
       d="m 105,170 v 5"
       id="path1722"
       inkscape:connector-curvature="0" />
    <path
       style="fill:none;stroke:#e6d9cc;stroke-width:1px;stroke-linecap:butt;stroke-linejoin:miter;stroke-opacity:1"
       d="m 105,180 v 5"
       id="path1726"
       inkscape:connector-curvature="0" />
    <path
       style="fill:none;stroke:#e6d9cc;stroke-width:1px;stroke-linecap:butt;stroke-linejoin:miter;stroke-opacity:1"
       d="m 105,190 v 5"
       id="path1728"
       inkscape:connector-curvature="0" />
    <path
       style="fill:none;stroke:#e6d9cc;stroke-width:1px;stroke-linecap:butt;stroke-linejoin:miter;stroke-opacity:1"
       d="m 105,200 v 5"
       id="path1730"
       inkscape:connector-curvature="0" />
    <path
       style="fill:none;stroke:#e6d9cc;stroke-width:1px;stroke-linecap:butt;stroke-linejoin:miter;stroke-opacity:1"
       d="m 105,210 v 5"
       id="path1732"
       inkscape:connector-curvature="0" />
    <path
       style="fill:none;stroke:#e6d9cc;stroke-width:1px;stroke-linecap:butt;stroke-linejoin:miter;stroke-opacity:1"
       d="m 105,220 v 5"
       id="path1734"
       inkscape:connector-curvature="0" />
    <path
       style="fill:none;stroke:#e6d9cc;stroke-width:1px;stroke-linecap:butt;stroke-linejoin:miter;stroke-opacity:1"
       d="m 105,230 v 5"
       id="path1736"
       inkscape:connector-curvature="0" />
    <path
       inkscape:connector-curvature="0"
       id="path997"
       d="m 105,283.25 v 5"
       style="fill:none;stroke:#535149;stroke-width:2;stroke-linecap:butt;stroke-linejoin:miter;stroke-miterlimit:4;stroke-dasharray:none;stroke-opacity:1" />
    <path
       inkscape:connector-curvature="0"
       id="path999"
       d="m 105,293.25 v 5"
       style="fill:none;stroke:#535149;stroke-width:2;stroke-linecap:butt;stroke-linejoin:miter;stroke-miterlimit:4;stroke-dasharray:none;stroke-opacity:1" />
    <path
       transform="translate(0,-27.958328)"
       style="display:inline;fill:none;stroke:#535149;stroke-width:2;stroke-linecap:butt;stroke-linejoin:miter;stroke-miterlimit:4;stroke-dasharray:none;stroke-opacity:1;enable-background:new"
       d="M 42.779962,337.95833 60,322.95833 v -15"
       id="path990"
       inkscape:connector-curvature="0" />
    <path
       transform="translate(0,-27.958328)"
       style="display:inline;fill:none;stroke:#535149;stroke-width:2;stroke-linecap:butt;stroke-linejoin:miter;stroke-miterlimit:4;stroke-dasharray:none;stroke-opacity:1;enable-background:new"
       d="m 167.58431,337.95833 -17.58431,-15 v -15"
       id="path992"
       inkscape:connector-curvature="0" />
    <path
       transform="translate(0,-27.958328)"
       style="display:inline;fill:none;stroke:#535149;stroke-width:1px;stroke-linecap:butt;stroke-linejoin:miter;stroke-opacity:1;enable-background:new"
       d="m 169.70563,107.95833 -19.70563,10 v 10"
       id="path998"
       inkscape:connector-curvature="0" />
    <path
       transform="translate(0,-27.958328)"
       style="display:inline;fill:none;stroke:#535149;stroke-width:1px;stroke-linecap:butt;stroke-linejoin:miter;stroke-opacity:1;enable-background:new"
       d="m 41.012195,107.95833 18.987805,10 v 10"
       id="path1000"
       inkscape:connector-curvature="0" />
    <path
       style="display:inline;fill:none;stroke:#000000;stroke-width:1.11165035px;stroke-linecap:butt;stroke-linejoin:miter;stroke-opacity:1;enable-background:new"
       d="M 70.397356,16.332107 H -0.69027049"
       id="path982"
       inkscape:connector-curvature="0"
       sodipodi:nodetypes="cc" />
    <rect
       rx="23.013458"
       style="display:inline;opacity:0.97000002;fill:#b8c3a0;fill-opacity:0.67024129;stroke:none;stroke-width:0.88139391;stroke-linejoin:miter;stroke-miterlimit:4;stroke-dasharray:none;stroke-opacity:1;enable-background:new"
       id="rect1561"
       width="180"
       height="68.25"
       x="15"
       y="215"
       ry="20.545502" />
    <rect
       ry="22.795496"
       y="211.75"
       x="15"
       height="68.25"
       width="180.5"
       id="rect1738"
       style="display:inline;opacity:0.97000002;fill:#aab9b2;fill-opacity:1;stroke:none;stroke-width:0.88139391;stroke-linejoin:miter;stroke-miterlimit:4;stroke-dasharray:none;stroke-opacity:1;enable-background:new"
       rx="23.013458" />
    <rect
       style="display:inline;opacity:0.97000002;fill:#44303d;fill-opacity:1;stroke:none;stroke-width:1.36199999;stroke-linejoin:miter;stroke-miterlimit:4;stroke-dasharray:none;stroke-opacity:1;enable-background:new"
       id="rect7784"
       width="180"
       height="135"
       x="15"
       y="100"
       ry="5" />
    <path
       style="display:inline;fill:none;stroke:#000000;stroke-width:1.5;stroke-linecap:butt;stroke-linejoin:miter;stroke-miterlimit:0;stroke-dasharray:none;stroke-opacity:1;paint-order:stroke fill markers;enable-background:new"
       d="M 77.746784,16.903768 73.25,5.321024 H 83.703551 L 83.343084,12.5383 72.889533,12.137341 75.585911,18.975467 90.318611,18.868475 90,8.161449 90.318611,18.868475 102.15808,18.975467 V 8.161449 h -6.672076 v 9.301184 l 15.274566,0.06372 -0.19116,-9.364907 h 5.58493 l 5.35267,10.193295 h 17.30159 l -3.42328,-5.184583 -6.1746,-0.06791 v 0 l 6.1746,0.06791 -4.45205,10.808516 -5.06489,-9.055859 3.7221,-6.6180355 15.16998,-0.01432"
       id="path4709"
       inkscape:connector-curvature="0"
       sodipodi:nodetypes="cccccccccccccccccccccccccc" />
    <path
       style="display:inline;fill:none;stroke:#000000;stroke-width:1.12503409px;stroke-linecap:butt;stroke-linejoin:miter;stroke-opacity:1;enable-background:new"
       d="M 214.46767,16.243718 H 141.64445"
       id="path980"
       inkscape:connector-curvature="0"
       sodipodi:nodetypes="cc" />
    <path
       inkscape:connector-curvature="0"
       id="path987"
       d="M 68.629589,13.150126 H -2.4580376"
       style="display:inline;fill:none;stroke:#000000;stroke-width:1.11165035px;stroke-linecap:butt;stroke-linejoin:miter;stroke-opacity:1;enable-background:new"
       sodipodi:nodetypes="cc" />
    <path
       inkscape:connector-curvature="0"
       id="path989"
       d="M 214.46767,13.061737 H 139.87668"
       style="display:inline;fill:none;stroke:#000000;stroke-width:1.13860726px;stroke-linecap:butt;stroke-linejoin:miter;stroke-opacity:1;enable-background:new"
       sodipodi:nodetypes="cc" />
    <path
       inkscape:connector-curvature="0"
       id="path981"
       d="M 207.97398,370 H 150"
       style="display:inline;fill:none;stroke:#000000;stroke-width:1.12503409px;stroke-linecap:butt;stroke-linejoin:miter;stroke-opacity:1;enable-background:new"
       sodipodi:nodetypes="cc" />
    <path
       style="display:inline;fill:none;stroke:#000000;stroke-width:1.13860726px;stroke-linecap:butt;stroke-linejoin:miter;stroke-opacity:1;enable-background:new"
       d="M 207.62042,366.81802 H 150"
       id="path983"
       inkscape:connector-curvature="0"
       sodipodi:nodetypes="cc" />
    <path
       style="display:inline;fill:none;stroke:#000000;stroke-width:1.12503409px;stroke-linecap:butt;stroke-linejoin:miter;stroke-opacity:1;enable-background:new"
       d="M 60,370 H 2.9267807"
       id="path985"
       inkscape:connector-curvature="0"
       sodipodi:nodetypes="cc" />
    <path
       inkscape:connector-curvature="0"
       id="path988"
       d="M 60,366.81802 H 2.9090108"
       style="display:inline;fill:none;stroke:#000000;stroke-width:1.13860726px;stroke-linecap:butt;stroke-linejoin:miter;stroke-opacity:1;enable-background:new"
       sodipodi:nodetypes="cc" />
    <rect
       rx="6.4428368"
       style="display:inline;opacity:0.97000002;fill:#aab9b2;fill-opacity:1;stroke:none;stroke-width:1.1583786;stroke-linejoin:miter;stroke-miterlimit:4;stroke-dasharray:none;stroke-opacity:1;enable-background:new"
       id="rect1563"
       width="180"
       height="16.106155"
       x="15"
       y="97.5"
       ry="3.6239223" />
    <path
       style="display:inline;fill:none;stroke:#535149;stroke-width:1px;stroke-linecap:butt;stroke-linejoin:miter;stroke-opacity:1;enable-background:new"
       d="M 38.006991,61.978711 50.558137,51.902439"
       id="path963"
       inkscape:connector-curvature="0" />
    <path
       style="display:inline;fill:none;stroke:#535149;stroke-width:1px;stroke-linecap:butt;stroke-linejoin:miter;stroke-opacity:1;enable-background:new"
       d="M 159.45259,51.725662 170.7663,61.801934"
       id="path968"
       inkscape:connector-curvature="0" />
    <path
       style="display:inline;fill:none;stroke:#535149;stroke-width:1px;stroke-linecap:butt;stroke-linejoin:miter;stroke-opacity:1;enable-background:new"
       d="m 87.681245,71.878207 5.833631,0.176776"
       id="path971"
       inkscape:connector-curvature="0" />
    <path
       style="display:inline;fill:none;stroke:#535149;stroke-width:1px;stroke-linecap:butt;stroke-linejoin:miter;stroke-opacity:1;enable-background:new"
       d="m 117.91006,71.347876 h 5.3033"
       id="path973"
       inkscape:connector-curvature="0" />
    <path
       style="fill:#f78e54;fill-opacity:1;stroke:#666666;stroke-width:0.80000001;stroke-linecap:butt;stroke-linejoin:miter;stroke-miterlimit:4;stroke-dasharray:none;stroke-opacity:1;enable-background:new"
       d="m 10.337342,23.176143 4.61528,18.05437 22.40501,-6.0488 c 6.60706,-3.69655 9.65935,-4.29657 13.199,-7.41744 l -3.88683,-14.39699 z"
       id="path965"
       inkscape:connector-curvature="0"
       sodipodi:nodetypes="cccccc" />
    <path
       style="fill:none;stroke:#000000;stroke-width:0.60570168px;stroke-linecap:butt;stroke-linejoin:miter;stroke-opacity:1;enable-background:new"
       d="m 17.618492,26.608673 2.36309,8.52498 c 11.92892,-4.35857 10.95731,-5.8373 10.17203,-12.18885 l -3.56481,1.09309 -2.69109,0.77123 2.31887,8.44302 5.89745,-5.58314 7.17626,-2.05663 -7.21565,1.91454 3.48448,-6.05982 2.3631,8.52497 m 6.00563,-1.62207 -2.30207,-8.54151 -2.33551,5.78388"
       id="path4721"
       inkscape:connector-curvature="0"
       sodipodi:nodetypes="cccccccccccccc" />
    <path
       style="fill:#c8a283;fill-opacity:1;stroke:#666666;stroke-width:0.80000001;stroke-linecap:butt;stroke-linejoin:miter;stroke-miterlimit:4;stroke-dasharray:none;stroke-opacity:1;enable-background:new"
       d="m 50.556632,27.764273 c -1.84926,-0.10109 -2.18517,0.62018 -4.59584,-2.29285 -4.27845,7.91226 -4.36225,6.38143 -6.89071,8.85954"
       id="path967"
       inkscape:connector-curvature="0"
       sodipodi:nodetypes="ccc" />
  </g>
  <g
     inkscape:groupmode="layer"
     id="layer4"
     inkscape:label="text"
     style="display:inline">
    <text
       xml:space="preserve"
       style="font-style:normal;font-variant:normal;font-weight:normal;font-stretch:normal;font-size:7.05555534px;line-height:1.25;font-family:'Serto Urhoy';-inkscape-font-specification:'Serto Urhoy';letter-spacing:0px;word-spacing:0px;fill:#000000;fill-opacity:1;stroke:none;stroke-width:0.26458332"
       x="20.186214"
       y="5.4778647"
       id="text7627"><tspan
         sodipodi:role="line"
         id="tspan7625"
         x="20.186214"
         y="11.149481"
         style="font-style:normal;font-variant:normal;font-weight:normal;font-stretch:normal;font-size:5.64444447px;font-family:'Serto Urhoy';-inkscape-font-specification:'Serto Urhoy';letter-spacing:2.56910372px;word-spacing:0px;stroke-width:0.26458332" /></text>
    <text
       xml:space="preserve"
       style="font-style:normal;font-weight:normal;font-size:3.52777767px;line-height:1.25;font-family:sans-serif;letter-spacing:0px;word-spacing:0px;fill:#000000;fill-opacity:1;stroke:none;stroke-width:0.26458332"
       x="42.607582"
       y="99.284393"
       id="text7649"><tspan
         sodipodi:role="line"
         id="tspan7647"
         x="42.607582"
         y="102.40565"
         style="font-size:3.52777767px;stroke-width:0.26458332" /></text>
    <g
       aria-label="unless  games"
       style="font-style:normal;font-variant:normal;font-weight:normal;font-stretch:normal;font-size:3.52777767px;line-height:1.25;font-family:monospace;-inkscape-font-specification:monospace;letter-spacing:-0.47360417px;word-spacing:0px;fill:#3a3a3a;fill-opacity:1;stroke:none;stroke-width:0.26458332"
       id="text7820"
       transform="matrix(2.5010857,0,0,3.7733635,-4.152854,-0.88145349)">
      <path
         id="path7862"
         style="font-style:normal;font-variant:normal;font-weight:normal;font-stretch:normal;font-size:3.52777767px;font-family:monospace;-inkscape-font-specification:monospace;letter-spacing:-0.47360417px;fill:#858585;fill-opacity:1;stroke-width:0.33377695"
         d="m 60.314249,97.272013 v 0.310058 q -0.216564,-0.07924 -0.435869,-0.118856 -0.219306,-0.03962 -0.446834,-0.03962 -0.342665,0 -0.512627,0.07062 -0.16722,0.0689 -0.16722,0.211874 0,0.129191 0.126105,0.192925 0.126105,0.06373 0.627762,0.124023 l 0.202857,0.02412 q 0.37556,0.04479 0.567453,0.179145 0.194632,0.134359 0.194632,0.349677 0,0.285943 -0.323474,0.447863 -0.323476,0.160196 -0.899152,0.160196 -0.227528,0 -0.476988,-0.031 -0.24946,-0.02928 -0.54004,-0.08957 v -0.327284 q 0.282355,0.0913 0.54004,0.137804 0.257682,0.04479 0.487953,0.04479 0.334441,0 0.518109,-0.08441 0.183669,-0.08613 0.183669,-0.239434 0,-0.220486 -0.671624,-0.304891 l -0.02193,-0.0034 -0.189151,-0.02412 q -0.435869,-0.0534 -0.635985,-0.179144 -0.200116,-0.127469 -0.200116,-0.346233 0,-0.27733 0.298804,-0.427191 0.298804,-0.151585 0.852549,-0.151585 0.246718,0 0.474248,0.02928 0.227528,0.02756 0.446833,0.08441 z m -2.242549,0.81821 v 0.155029 h -2.184829 v 0.01034 q 0,0.315227 0.260425,0.487481 0.263167,0.172255 0.740155,0.172255 0.241236,0 0.504403,-0.04823 0.263165,-0.04823 0.561969,-0.146417 v 0.315226 q -0.287839,0.07407 -0.556487,0.110243 -0.265907,0.0379 -0.515367,0.0379 -0.715484,0 -1.118458,-0.268717 -0.402972,-0.27044 -0.402972,-0.744141 0,-0.461642 0.394749,-0.73725 0.39475,-0.275608 1.052665,-0.275608 0.586641,0 0.923824,0.24977 0.339923,0.249769 0.339923,0.682129 z m -0.504402,-0.09302 q -0.01098,-0.279053 -0.211081,-0.423747 -0.197376,-0.146416 -0.570194,-0.146416 -0.364595,0 -0.600348,0.151584 -0.235753,0.151584 -0.279614,0.420302 z m -3.314405,-0.595999 q 0.09321,-0.124024 0.235753,-0.18259 0.145298,-0.06029 0.348148,-0.06029 0.370076,0 0.52085,0.180868 0.153509,0.179145 0.153509,0.676961 v 1.117934 h -0.460541 v -1.104153 q 0,-0.408244 -0.07402,-0.506429 -0.07128,-0.09991 -0.263165,-0.09991 -0.219306,0 -0.301545,0.106798 -0.07949,0.105075 -0.07949,0.499539 v 1.104153 h -0.460541 v -1.104153 q 0,-0.413412 -0.07949,-0.509875 -0.07675,-0.09646 -0.279614,-0.09646 -0.200116,0 -0.279614,0.106798 -0.07675,0.105075 -0.07675,0.499539 v 1.104153 h -0.4578 v -1.929254 h 0.4578 v 0.165365 q 0.09046,-0.103353 0.224788,-0.156752 0.13707,-0.05512 0.309769,-0.05512 0.208339,0 0.345406,0.06029 0.139807,0.06029 0.216563,0.18259 z m -2.552319,0.763088 h -0.167219 q -0.441352,0 -0.66614,0.09819 -0.222047,0.09646 -0.222047,0.289388 0,0.173978 0.167221,0.27044 0.16722,0.09646 0.463281,0.09646 0.416682,0 0.655175,-0.180867 0.238495,-0.18259 0.241237,-0.502984 v -0.07062 z m 0.978651,-0.130913 v 1.100708 h -0.507143 v -0.285943 q -0.161739,0.172254 -0.408457,0.254937 -0.243977,0.08096 -0.594865,0.08096 -0.468766,0 -0.748379,-0.165364 -0.279614,-0.167087 -0.279614,-0.44614 0,-0.322116 0.342664,-0.489203 0.345405,-0.167088 1.011545,-0.167088 h 0.677106 v -0.04995 q -0.0027,-0.230822 -0.186411,-0.334175 -0.183667,-0.105075 -0.586641,-0.105075 -0.257683,0 -0.52085,0.04651 -0.263167,0.04651 -0.512625,0.136081 v -0.316949 q 0.279613,-0.06718 0.534555,-0.09991 0.257685,-0.03445 0.49892,-0.03445 0.381043,0 0.649692,0.07063 0.27139,0.07062 0.43861,0.211873 0.104175,0.08613 0.148034,0.213596 0.04386,0.125746 0.04386,0.378961 z m -3.174597,0.120578 q 0,-0.356567 -0.186409,-0.54088 -0.183669,-0.186035 -0.537299,-0.186035 -0.370078,0 -0.564711,0.186035 -0.194632,0.184313 -0.194632,0.54088 0,0.356567 0.194632,0.544325 0.197375,0.186035 0.570193,0.186035 0.348148,0 0.531817,-0.187758 0.186409,-0.187757 0.186409,-0.542602 z m 0.504402,0.856106 q 0,0.434082 -0.326216,0.658013 -0.326218,0.223932 -0.959461,0.223932 -0.208341,0 -0.435869,-0.02412 -0.22753,-0.02412 -0.455058,-0.07062 v -0.313503 q 0.268647,0.07924 0.487953,0.117133 0.219305,0.0379 0.402974,0.0379 0.408455,0 0.594866,-0.139526 0.186409,-0.139527 0.186409,-0.442695 v -0.01378 -0.215319 q -0.120615,0.16192 -0.328959,0.241157 -0.208339,0.07924 -0.507142,0.07924 -0.537298,0 -0.858033,-0.27044 -0.320734,-0.27044 -0.320734,-0.72347 0,-0.454753 0.320734,-0.725193 0.320735,-0.27044 0.858033,-0.27044 0.296061,0 0.50166,0.07407 0.205598,0.07407 0.334441,0.229099 v -0.24977 h 0.504402 z m -8.059928,-1.73805 v 0.310058 q -0.216563,-0.07924 -0.435869,-0.118856 -0.219305,-0.03962 -0.446834,-0.03962 -0.342664,0 -0.512625,0.07062 -0.167221,0.0689 -0.167221,0.211874 0,0.129191 0.126105,0.192925 0.126105,0.06373 0.627762,0.124023 l 0.202856,0.02412 q 0.37556,0.04479 0.567453,0.179145 0.194634,0.134359 0.194634,0.349677 0,0.285943 -0.323476,0.447863 -0.323476,0.160196 -0.899152,0.160196 -0.227528,0 -0.476988,-0.031 -0.24946,-0.02928 -0.540039,-0.08957 v -0.327284 q 0.282356,0.0913 0.540039,0.137804 0.257683,0.04479 0.487955,0.04479 0.334439,0 0.518108,-0.08441 0.183668,-0.08613 0.183668,-0.239434 0,-0.220486 -0.671622,-0.304891 l -0.02193,-0.0034 -0.189151,-0.02412 q -0.435869,-0.0534 -0.635985,-0.179144 -0.200116,-0.127469 -0.200116,-0.346233 0,-0.27733 0.298804,-0.427191 0.298804,-0.151585 0.852548,-0.151585 0.24672,0 0.474248,0.02928 0.22753,0.02756 0.446834,0.08441 z m -2.623591,0 v 0.310058 q -0.216565,-0.07924 -0.435871,-0.118856 -0.219304,-0.03962 -0.446834,-0.03962 -0.342663,0 -0.512625,0.07062 -0.167221,0.0689 -0.167221,0.211874 0,0.129191 0.126105,0.192925 0.126105,0.06373 0.62776,0.124023 l 0.202857,0.02412 q 0.375561,0.04479 0.567453,0.179145 0.194634,0.134359 0.194634,0.349677 0,0.285943 -0.323476,0.447863 -0.323476,0.160196 -0.899152,0.160196 -0.227529,0 -0.476989,-0.031 -0.24946,-0.02928 -0.540039,-0.08957 v -0.327284 q 0.282357,0.0913 0.540039,0.137804 0.257685,0.04479 0.487955,0.04479 0.33444,0 0.518108,-0.08441 0.183669,-0.08613 0.183669,-0.239434 0,-0.220486 -0.671622,-0.304891 l -0.02193,-0.0034 -0.18915,-0.02412 q -0.43587,-0.0534 -0.635986,-0.179144 -0.200116,-0.127469 -0.200116,-0.346233 0,-0.27733 0.298804,-0.427191 0.298803,-0.151585 0.85255,-0.151585 0.246718,0 0.474246,0.02928 0.22753,0.02756 0.446836,0.08441 z m -2.24255,0.81821 v 0.155029 h -2.184828 v 0.01034 q 0,0.315227 0.260425,0.487481 0.263165,0.172255 0.740155,0.172255 0.241236,0 0.504401,-0.04823 0.263167,-0.04823 0.561971,-0.146417 v 0.315226 q -0.287839,0.07407 -0.556487,0.110243 -0.265909,0.0379 -0.515367,0.0379 -0.715484,0 -1.118458,-0.268717 -0.402972,-0.27044 -0.402972,-0.744141 0,-0.461642 0.394749,-0.73725 0.394748,-0.275608 1.052665,-0.275608 0.586641,0 0.923822,0.24977 0.339924,0.249769 0.339924,0.682129 z M 36.57856,97.997203 Q 36.56758,97.71815 36.367477,97.573456 36.170103,97.42704 35.797283,97.42704 q -0.364593,0 -0.600348,0.151584 -0.235753,0.151584 -0.279612,0.420302 z m -3.415834,0.437529 q 0,0.213596 0.123351,0.322117 0.126105,0.10852 0.370078,0.10852 h 0.589383 v 0.268718 h -0.638727 q -0.452316,0 -0.701776,-0.18259 -0.246718,-0.182591 -0.246718,-0.516765 v -1.751831 h -0.808681 v -0.248047 h 1.31309 z m -1.494171,-0.496093 v 1.195448 h -0.507143 v -1.195448 q 0,-0.260105 -0.145297,-0.382406 -0.145282,-0.122301 -0.455059,-0.122301 -0.353628,0 -0.545521,0.158474 -0.189151,0.156752 -0.189151,0.451308 v 1.090373 h -0.504401 v -1.929254 h 0.504401 v 0.289388 q 0.134316,-0.165364 0.364595,-0.249769 0.23027,-0.08613 0.545521,-0.08613 0.468766,0 0.699036,0.194648 0.233011,0.192926 0.233011,0.585667 z m -4.970157,0.465087 V 97.208278 H 27.2028 v 1.195448 q 0,0.260105 0.145298,0.382406 0.148035,0.122301 0.455058,0.122301 0.356371,0 0.545522,-0.156752 0.189151,-0.158474 0.189151,-0.45303 v -1.090373 h 0.507143 v 1.925809 h -0.507151 v -0.289388 q -0.134317,0.167087 -0.367337,0.253214 -0.23027,0.08613 -0.540039,0.08613 -0.471506,0 -0.701777,-0.192925 -0.23027,-0.194648 -0.23027,-0.587389 z"
         inkscape:connector-curvature="0" />
    </g>
    <path
       transform="translate(0,-27.958328)"
       style="display:inline;fill:none;stroke:#868686;stroke-width:1px;stroke-linecap:butt;stroke-linejoin:miter;stroke-opacity:1;enable-background:new"
       d="m 34.568235,315.37367 3.977476,9.32627 4.429748,-9.06111"
       id="path962"
       inkscape:connector-curvature="0"
       sodipodi:nodetypes="ccc" />
    <path
       transform="translate(0,-27.958328)"
       sodipodi:nodetypes="ccc"
       inkscape:connector-curvature="0"
       id="path964"
       d="m 184.06824,315.62367 3.97747,9.32627 4.42975,-9.06111"
       style="display:inline;fill:none;stroke:#868686;stroke-width:1px;stroke-linecap:butt;stroke-linejoin:miter;stroke-opacity:1;enable-background:new" />
    <path
       inkscape:connector-curvature="0"
       id="path4729"
       d="M 69.99823,88.26812 80.434821,94.97734 75,91.25 l -4.601569,2.65671 9.68933,-5.59412"
       style="display:inline;fill:none;stroke:#6b6b6b;stroke-width:0.9983691px;stroke-linecap:butt;stroke-linejoin:miter;stroke-opacity:1;enable-background:new" />
    <path
       inkscape:connector-curvature="0"
       id="path4731"
       d="m 129.11517,88.527258 5.88642,2.616116 5.26689,-3.30456 -5.26689,3.373395 v 3.511102"
       style="display:inline;fill:none;stroke:#6b6b6b;stroke-width:0.86062759px;stroke-linecap:butt;stroke-linejoin:miter;stroke-opacity:1;enable-background:new" />
    <path
       style="display:inline;fill:none;stroke:#6b6b6b;stroke-width:1px;stroke-linecap:butt;stroke-linejoin:miter;stroke-opacity:1;enable-background:new"
       d="m 21.5625,95.937501 v -9.4375 l 7.9375,1.5 v 3.96875 l -7.9375,1.28125"
       id="path934"
       inkscape:connector-curvature="0" />
    <path
       style="display:inline;fill:none;stroke:#6b6b6b;stroke-width:1px;stroke-linecap:butt;stroke-linejoin:miter;stroke-opacity:1;enable-background:new"
       d="m 31.75,90.375001 3.875,-4 -0.125,9.5625"
       id="path936"
       inkscape:connector-curvature="0" />
    <path
       style="display:inline;fill:none;stroke:#6b6b6b;stroke-width:1px;stroke-linecap:butt;stroke-linejoin:miter;stroke-opacity:1;enable-background:new"
       d="m 43.991379,40.878679 -3.875,-2.75 -2.4375,2.375 5.6875,4.375 -2.5,2.5625 -3.1875,-2.5625"
       id="path942"
       inkscape:connector-curvature="0" />
    <path
       inkscape:connector-curvature="0"
       id="path944"
       d="m 171.5625,96.437501 v -9.4375 l 7.9375,1.5 v 3.96875 l -7.9375,1.28125"
       style="display:inline;fill:none;stroke:#6b6b6b;stroke-width:1px;stroke-linecap:butt;stroke-linejoin:miter;stroke-opacity:1;enable-background:new" />
    <path
       inkscape:connector-curvature="0"
       id="path948"
       d="m 171.3125,40.375 -3.875,-2.75 L 165,40 l 5.6875,4.375 -2.5,2.5625 L 165,44.375"
       style="display:inline;fill:none;stroke:#6b6b6b;stroke-width:1px;stroke-linecap:butt;stroke-linejoin:miter;stroke-opacity:1;enable-background:new" />
    <path
       style="display:inline;fill:none;stroke:#6b6b6b;stroke-width:1px;stroke-linecap:butt;stroke-linejoin:miter;stroke-opacity:1;enable-background:new"
       d="m 182.90322,89.390337 2.12132,-2.298097 2.47487,1.679379 -5.74524,6.717514 6.71752,-0.08839"
       id="path950"
       inkscape:connector-curvature="0" />
    <path
       inkscape:connector-curvature="0"
       id="path1013"
       d="M 116.63005,52.384142 113.62967,50.58574 111.74234,52.138906 116.14611,55 114.21039,56.675784 111.74234,55"
       style="display:inline;fill:none;stroke:#414141;stroke-width:0.7115882px;stroke-linecap:butt;stroke-linejoin:miter;stroke-opacity:1;enable-background:new" />
    <path
       style="display:inline;fill:none;stroke:#414141;stroke-width:0.64293456;stroke-linecap:square;stroke-linejoin:round;stroke-miterlimit:4;stroke-dasharray:none;stroke-opacity:1;enable-background:new"
       d="m 118.67915,56.689213 -0.0875,-6.277996 3.93518,1.772611 -4.02263,1.624893"
       id="path1015"
       inkscape:connector-curvature="0" />
    <path
       style="display:inline;fill:none;stroke:#414141;stroke-width:0.64293456;stroke-linecap:butt;stroke-linejoin:miter;stroke-miterlimit:4;stroke-dasharray:none;stroke-opacity:1;enable-background:new"
       d="m 124.20127,50.780511 v 5.760984 l 4.28496,-2.732774 z"
       id="path1023"
       inkscape:connector-curvature="0" />
    <path
       style="display:inline;fill:none;stroke:#404040;stroke-width:0.80153549;stroke-linecap:square;stroke-linejoin:round;stroke-miterlimit:4;stroke-dasharray:none;stroke-opacity:1;enable-background:new"
       d="M 80.693388,56.314668 V 50.93934 l 3.778475,1.242622 -3.778475,2.007314 4.132705,2.597702"
       id="path1025"
       inkscape:connector-curvature="0" />
    <path
       style="display:inline;fill:none;stroke:#404040;stroke-width:0.80153549;stroke-linecap:square;stroke-linejoin:round;stroke-miterlimit:4;stroke-dasharray:none;stroke-opacity:1;enable-background:new"
       d="m 87.305723,50.93934 0.11809,5.72956 4.25078,0.236155 -0.35425,-5.965715"
       id="path1027"
       inkscape:connector-curvature="0" />
    <path
       style="display:inline;fill:none;stroke:#404040;stroke-width:0.80153549;stroke-linecap:square;stroke-linejoin:round;stroke-miterlimit:4;stroke-dasharray:none;stroke-opacity:1;enable-background:new"
       d="m 95.216903,56.905055 -0.35424,-5.965715 h 3.89656 v 5.965715"
       id="path1029"
       inkscape:connector-curvature="0" />
    <path
       style="display:inline;fill:none;stroke:#404040;stroke-width:0.70729804;stroke-linecap:square;stroke-linejoin:round;stroke-miterlimit:4;stroke-dasharray:none;stroke-opacity:1;enable-background:new"
       d="m 94.199734,87.5 0.104194,7 3.959404,-1.790257 -3.751014,-1.667118 4.271991,-1.667117 z"
       id="path1031"
       inkscape:connector-curvature="0"
       sodipodi:nodetypes="cccccc" />
    <path
       style="display:inline;fill:none;stroke:#404040;stroke-width:0.70729804;stroke-linecap:square;stroke-linejoin:round;stroke-miterlimit:4;stroke-dasharray:none;stroke-opacity:1;enable-background:new"
       d="M 99.924143,94.5 102.94579,87.812584 105.13388,94.5"
       id="path1033"
       inkscape:connector-curvature="0"
       sodipodi:nodetypes="ccc" />
    <path
       style="display:inline;fill:none;stroke:#404040;stroke-width:0.70729804;stroke-linecap:square;stroke-linejoin:round;stroke-miterlimit:4;stroke-dasharray:none;stroke-opacity:1;enable-background:new"
       d="M 108.26604,87.935725 108.37025,94.5 111.70447,93.789582"
       id="path1035"
       inkscape:connector-curvature="0" />
    <path
       style="display:inline;fill:none;stroke:#404040;stroke-width:0.70729804;stroke-linecap:square;stroke-linejoin:round;stroke-miterlimit:4;stroke-dasharray:none;stroke-opacity:1;enable-background:new"
       d="M 113.99676,88.333559 V 94.5 l 3.43842,-0.644115"
       id="path1037"
       inkscape:connector-curvature="0" />
    <path
       style="display:inline;fill:none;stroke:#868686;stroke-width:0.9983691px;stroke-linecap:butt;stroke-linejoin:miter;stroke-opacity:1;enable-background:new"
       d="M 69.99823,288.95746 80.434821,295.66668 75,291.93934 l -4.601569,2.65671 9.68933,-5.59412"
       id="path7824"
       inkscape:connector-curvature="0" />
    <path
       style="display:inline;fill:none;stroke:#868686;stroke-width:0.9983691px;stroke-linecap:butt;stroke-linejoin:miter;stroke-opacity:1;enable-background:new"
       d="M 129.14759,287.90874 135,291.44973 140.23647,286.97691 135,291.5429 v 4.75238"
       id="path7826"
       inkscape:connector-curvature="0" />
    <path
       inkscape:connector-curvature="0"
       id="path958"
       d="m 17.787959,297.64188 v -9.4375 l 7.9375,1.5 v 3.96875 l -7.9375,1.28125"
       style="display:inline;fill:none;stroke:#868686;stroke-width:1px;stroke-linecap:butt;stroke-linejoin:miter;stroke-opacity:1;enable-background:new" />
    <path
       inkscape:connector-curvature="0"
       id="path960"
       d="m 27.975459,292.07938 3.875,-4 -0.125,9.5625"
       style="display:inline;fill:none;stroke:#868686;stroke-width:1px;stroke-linecap:butt;stroke-linejoin:miter;stroke-opacity:1;enable-background:new" />
    <path
       style="display:inline;fill:none;stroke:#868686;stroke-width:1px;stroke-linecap:butt;stroke-linejoin:miter;stroke-opacity:1;enable-background:new"
       d="m 167.28796,297.89188 v -9.4375 l 7.9375,1.5 v 3.96875 l -7.9375,1.28125"
       id="path966"
       inkscape:connector-curvature="0" />
    <path
       inkscape:connector-curvature="0"
       id="path970"
       d="M 177.87868,290.0481 180,287.75 l 2.47487,1.67938 -5.74524,6.71751 6.71752,-0.0884"
       style="display:inline;fill:none;stroke:#868686;stroke-width:1px;stroke-linecap:butt;stroke-linejoin:miter;stroke-opacity:1;enable-background:new" />
  </g>
  <g
     inkscape:groupmode="layer"
     id="layer5"
     inkscape:label="io"
     style="display:inline">
    <ellipse
       style="opacity:0.97000002;fill:#4a4a4a;fill-opacity:0.97254902;stroke:#868686;stroke-width:1.71870518;stroke-miterlimit:4;stroke-dasharray:none;stroke-opacity:1"
       id="path7786"
       cx="74.96077"
       cy="312.70557"
       rx="12.463383"
       ry="12.78928" />
    <ellipse
       ry="12.78928"
       rx="12.463383"
       cy="312.79916"
       cx="135.52187"
       id="ellipse7907"
       style="opacity:0.97000002;fill:#4a4a4a;fill-opacity:0.97254902;stroke:#868686;stroke-width:1.71870518;stroke-miterlimit:4;stroke-dasharray:none;stroke-opacity:1" />
    <ellipse
       ry="12.78928"
       rx="12.463383"
       cy="312.94876"
       cx="30.506849"
       id="ellipse4659"
       style="opacity:0.97000002;fill:#4a4a4a;fill-opacity:0.97254902;stroke:#868686;stroke-width:1.71870518;stroke-miterlimit:4;stroke-dasharray:none;stroke-opacity:1" />
    <ellipse
       style="opacity:0.97000002;fill:#4a4a4a;fill-opacity:0.97254902;stroke:#868686;stroke-width:1.71870518;stroke-miterlimit:4;stroke-dasharray:none;stroke-opacity:1"
       id="ellipse4665"
       cx="180.19432"
       cy="313.16623"
       rx="12.463383"
       ry="12.78928" />
    <path
       style="fill:none;stroke:#000000;stroke-width:1.5;stroke-linecap:butt;stroke-linejoin:miter;stroke-miterlimit:0;stroke-dasharray:none;stroke-opacity:1;paint-order:stroke fill markers"
       d="m 91.833942,-20 -3.78968,7.558728 4.809235,8.647408"
       id="path4711"
       inkscape:connector-curvature="0" />
    <path
       style="fill:none;stroke:#000000;stroke-width:1.5;stroke-linecap:butt;stroke-linejoin:miter;stroke-miterlimit:0;stroke-dasharray:none;stroke-opacity:1;paint-order:stroke fill markers"
       d="m 106.6175,-20 3.0548,6.141121 -3.0548,8.930929"
       id="path4713"
       inkscape:connector-curvature="0" />
    <rect
       y="332.47269"
       x="18.265961"
       height="23.19762"
       width="23.19762"
       id="rect4657"
       style="fill:#4a4a4a;fill-opacity:1;stroke:#868686;stroke-width:1.38380575;stroke-miterlimit:4;stroke-dasharray:none;stroke-opacity:1" />
    <rect
       style="fill:#4a4a4a;fill-opacity:1;stroke:#868686;stroke-width:1.38380575;stroke-miterlimit:4;stroke-dasharray:none;stroke-opacity:1"
       id="rect4663"
       width="23.19762"
       height="23.19762"
       x="167.49088"
       y="332.41342" />
    <rect
       style="fill:#4a4a4a;fill-opacity:1;stroke:#868686;stroke-width:1.38380575;stroke-miterlimit:4;stroke-dasharray:none;stroke-opacity:1"
       id="rect4669"
       width="23.19762"
       height="23.19762"
       x="48.983776"
       y="332.2959" />
    <rect
       y="332.323"
       x="77.811058"
       height="23.19762"
       width="23.19762"
       id="rect4671"
       style="fill:#4a4a4a;fill-opacity:1;stroke:#868686;stroke-width:1.38380575;stroke-miterlimit:4;stroke-dasharray:none;stroke-opacity:1" />
    <rect
       style="fill:#4a4a4a;fill-opacity:1;stroke:#868686;stroke-width:1.38380575;stroke-miterlimit:4;stroke-dasharray:none;stroke-opacity:1"
       id="rect4673"
       width="23.19762"
       height="23.19762"
       x="107.94254"
       y="332.2959" />
    <rect
       y="332.2959"
       x="138.01147"
       height="23.19762"
       width="23.19762"
       id="rect4675"
       style="fill:#4a4a4a;fill-opacity:1;stroke:#868686;stroke-width:1.38380575;stroke-miterlimit:4;stroke-dasharray:none;stroke-opacity:1" />
    <path
       style="fill:none;fill-opacity:1;stroke:#ffffff;stroke-width:4.12244415;stroke-linecap:butt;stroke-linejoin:miter;stroke-miterlimit:4;stroke-dasharray:none;stroke-dashoffset:0;stroke-opacity:1"
       d="m 107.25503,354.11855 h 24.63956"
       id="path4685"
       inkscape:connector-curvature="0" />
    <path
       inkscape:connector-curvature="0"
       id="path4687"
       d="m 161.20911,331.54463 v 24.70022"
       style="fill:#000000;fill-opacity:1;stroke:#0a0a0a;stroke-width:4.12751532;stroke-linecap:butt;stroke-linejoin:miter;stroke-miterlimit:4;stroke-dasharray:none;stroke-dashoffset:0;stroke-opacity:1" />
    <path
       style="fill:#000000;fill-opacity:1;stroke:#0a0a0a;stroke-width:4.14961147;stroke-linecap:butt;stroke-linejoin:miter;stroke-miterlimit:4;stroke-dasharray:none;stroke-dashoffset:0;stroke-opacity:1"
       d="m 48.983771,331.41205 v 24.96538"
       id="path4689"
       inkscape:connector-curvature="0" />
    <path
       style="fill:none;fill-opacity:1;stroke:#ffffff;stroke-width:4;stroke-linecap:butt;stroke-linejoin:miter;stroke-miterlimit:4;stroke-dasharray:none;stroke-dashoffset:0;stroke-opacity:1"
       d="m 190.40994,337.02019 v 12.78157"
       id="path4693"
       inkscape:connector-curvature="0" />
    <path
       inkscape:connector-curvature="0"
       id="path4695"
       d="m 18.242176,337.56107 v 12.78157"
       style="fill:none;fill-opacity:1;stroke:#ffffff;stroke-width:4;stroke-linecap:butt;stroke-linejoin:miter;stroke-miterlimit:4;stroke-dasharray:none;stroke-dashoffset:0;stroke-opacity:1" />
    <path
       inkscape:connector-curvature="0"
       id="path4683"
       d="M 77.084545,333.57301 H 101.74556"
       style="fill:none;fill-opacity:1;stroke:#ffffff;stroke-width:4.12423801;stroke-linecap:butt;stroke-linejoin:miter;stroke-miterlimit:4;stroke-dasharray:none;stroke-dashoffset:0;stroke-opacity:1" />
    <rect
       y="300.7959"
       x="93.45771"
       height="23.19762"
       width="23.19762"
       id="rect988"
       style="fill:#4a4a4a;fill-opacity:1;stroke:#868686;stroke-width:1.38380575;stroke-miterlimit:4;stroke-dasharray:none;stroke-opacity:1" />
    <rect
       style="display:inline;fill:none;fill-opacity:1;stroke:#868686;stroke-width:1.45842886;stroke-miterlimit:4;stroke-dasharray:none;stroke-opacity:1;enable-background:new"
       id="rect7737"
       width="24.448574"
       height="24.448574"
       x="93.390892"
       y="59.224884" />
    <ellipse
       ry="12.78928"
       rx="12.463383"
       cy="71.413361"
       cx="29.996489"
       id="ellipse7905"
       style="display:inline;opacity:0.97000002;fill:none;fill-opacity:1;stroke:#868686;stroke-width:1.71870518;stroke-miterlimit:4;stroke-dasharray:none;stroke-opacity:1;enable-background:new" />
    <rect
       y="23.60899"
       x="76.832901"
       height="24.448574"
       width="24.448574"
       id="rect4677"
       style="display:inline;fill:none;fill-opacity:1;stroke:#868686;stroke-width:1.45842886;stroke-miterlimit:4;stroke-dasharray:none;stroke-opacity:1;enable-background:new" />
    <ellipse
       style="display:inline;opacity:0.97000002;fill:none;fill-opacity:1;stroke:#868686;stroke-width:1.71870518;stroke-miterlimit:4;stroke-dasharray:none;stroke-opacity:1;enable-background:new"
       id="ellipse4699"
       cx="59.943562"
       cy="43.856274"
       rx="12.463383"
       ry="12.78928" />
    <ellipse
       ry="12.78928"
       rx="12.463383"
       cy="43.342075"
       cx="149.92058"
       id="ellipse4701"
       style="display:inline;opacity:0.97000002;fill:none;fill-opacity:1;stroke:#868686;stroke-width:1.71870518;stroke-miterlimit:4;stroke-dasharray:none;stroke-opacity:1;enable-background:new" />
    <ellipse
       style="display:inline;opacity:0.97000002;fill:none;fill-opacity:1;stroke:#868686;stroke-width:1.71870518;stroke-miterlimit:4;stroke-dasharray:none;stroke-opacity:1;enable-background:new"
       id="ellipse4703"
       cx="135.24292"
       cy="71.611633"
       rx="12.463383"
       ry="12.78928" />
    <ellipse
       ry="12.78928"
       rx="12.463383"
       cy="70.799187"
       cx="179.67476"
       id="ellipse4705"
       style="display:inline;opacity:0.97000002;fill:none;fill-opacity:1;stroke:#868686;stroke-width:1.71870518;stroke-miterlimit:4;stroke-dasharray:none;stroke-opacity:1;enable-background:new" />
    <ellipse
       ry="12.78928"
       rx="12.463383"
       cy="71.25808"
       cx="75.053047"
       id="ellipse4727"
       style="display:inline;opacity:0.97000002;fill:none;fill-opacity:1;stroke:#868686;stroke-width:1.71870518;stroke-miterlimit:4;stroke-dasharray:none;stroke-opacity:1;enable-background:new" />
    <ellipse
       style="display:inline;opacity:0.97000002;fill:none;fill-opacity:1;stroke:#868686;stroke-width:1.71870518;stroke-miterlimit:4;stroke-dasharray:none;stroke-opacity:1;enable-background:new"
       id="ellipse975"
       cx="120.04532"
       cy="35.387123"
       rx="12.463383"
       ry="12.78928" />
  </g>
</svg>
