<?xml version="1.0" encoding="UTF-8" standalone="no"?>
<svg
   xmlns:dc="http://purl.org/dc/elements/1.1/"
   xmlns:cc="http://creativecommons.org/ns#"
   xmlns:rdf="http://www.w3.org/1999/02/22-rdf-syntax-ns#"
   xmlns:svg="http://www.w3.org/2000/svg"
   xmlns="http://www.w3.org/2000/svg"
   xmlns:sodipodi="http://sodipodi.sourceforge.net/DTD/sodipodi-0.dtd"
   xmlns:inkscape="http://www.inkscape.org/namespaces/inkscape"
   width="300"
   height="380"
   viewBox="0 0 79.375 100.542"
   version="1.1"
   id="svg190"
   sodipodi:docname="ClockedLFO.svg"
   inkscape:version="0.92.3 (2405546, 2018-03-11)">
  <metadata
     id="metadata196">
    <rdf:RDF>
      <cc:Work
         rdf:about="">
        <dc:format>image/svg+xml</dc:format>
        <dc:type
           rdf:resource="http://purl.org/dc/dcmitype/StillImage" />
        <dc:title></dc:title>
      </cc:Work>
    </rdf:RDF>
  </metadata>
  <defs
     id="defs194" />
  <sodipodi:namedview
     pagecolor="#ffffff"
     bordercolor="#666666"
     borderopacity="1"
     objecttolerance="10"
     gridtolerance="10"
     guidetolerance="10"
     inkscape:pageopacity="0"
     inkscape:pageshadow="2"
     inkscape:window-width="1920"
     inkscape:window-height="1017"
     id="namedview192"
     showgrid="false"
     inkscape:zoom="2.2316011"
     inkscape:cx="180"
     inkscape:cy="279.62364"
     inkscape:window-x="-8"
     inkscape:window-y="-8"
     inkscape:window-maximized="1"
     inkscape:current-layer="svg190" />
  <path
     d="M 0,0 H 79.375264 V 100.541 H 0 Z m 0,0"
     id="path2"
     inkscape:connector-curvature="0"
     style="fill:#dcdcdc;stroke-width:0.99999994" />
  <rect
     rx="2.3399999"
     ry="2.3399999"
     y="78.873001"
     x="2.4159999"
     height="13.064"
     width="35.924999"
     id="rect4"
     style="fill:#999999;paint-order:stroke markers fill" />
  <rect
     rx="2.3399999"
     ry="2.3399999"
     y="23.242001"
     x="66.216003"
     height="12.939"
     width="10.742"
     id="rect6"
     style="fill:#999999;paint-order:stroke markers fill" />
  <g
     style="line-height:1.25"
     id="g10">
    <path
       word-spacing="0"
       letter-spacing="0"
       font-weight="400"
       aria-label="♫"
       font-size="3.528"
       style="font-weight:400;font-size:3.52800012px;font-family:Arial;-inkscape-font-specification:'Arial, Normal';font-variant-ligatures:normal;font-variant-caps:normal;font-variant-numeric:normal;font-feature-settings:normal;text-align:start;letter-spacing:0;word-spacing:0;fill:#333333"
       d="m 48.15,96.87 -1.63,0.115 v -2.06 q 0,-0.23 0.065,-0.333 0.064,-0.104 0.22,-0.147 0.153,-0.043 0.348,-0.002 0.223,0.047 0.356,0.19 0.133,0.146 0.133,0.33 0,0.186 -0.157,0.286 -0.158,0.103 -0.408,0.05 -0.082,-0.018 -0.143,-0.044 -0.064,-0.027 -0.205,-0.11 v 1.345 l 1.219,-0.085 v -1.554 q 0,-0.225 0.065,-0.337 0.066,-0.11 0.226,-0.151 0.16,-0.04 0.348,0 0.223,0.047 0.354,0.19 0.13,0.14 0.13,0.325 0,0.195 -0.156,0.294 -0.156,0.1 -0.408,0.047 -0.16,-0.034 -0.357,-0.16 z"
       id="path8"
       inkscape:connector-curvature="0" />
  </g>
  <g
     style="line-height:1.25"
     id="g14">
    <path
       d="m 30.132,96.698 q -0.007,-0.127 -0.01,-0.265 0,-0.137 -0.004,-0.296 -0.003,-0.159 -0.003,-0.342 v -0.417 q 0,-0.25 0.003,-0.426 0.004,-0.18 0.021,-0.293 0.018,-0.113 0.053,-0.166 0.039,-0.053 0.102,-0.053 0.032,0 0.06,0.007 0.029,0.007 0.05,0.032 0.02,0.02 0.035,0.067 0.018,0.042 0.021,0.113 0.007,0.127 0.01,0.225 l 0.008,0.198 q 0.003,0.095 0.003,0.201 v 0.536 q 0,0.145 -0.003,0.286 l -0.007,0.286 -0.01,0.303 q -0.004,0.085 -0.018,0.13 -0.015,0.047 -0.036,0.071 -0.02,0.025 -0.05,0.028 -0.027,0.007 -0.063,0.007 -0.063,0 -0.109,-0.042 -0.046,-0.046 -0.053,-0.19 z m 1.754,-0.381 q -0.162,-0.357 -0.29,-0.688 -0.123,-0.335 -0.211,-0.596 -0.081,0.437 -0.138,0.882 -0.053,0.444 -0.137,0.85 -0.021,0.092 -0.078,0.123 -0.056,0.028 -0.095,0.028 -0.064,0 -0.102,-0.038 -0.036,-0.04 -0.036,-0.1 0,-0.08 0.018,-0.246 0.021,-0.17 0.05,-0.381 0.031,-0.212 0.07,-0.445 0.039,-0.232 0.078,-0.448 l 0.077,-0.395 q 0.039,-0.176 0.067,-0.271 0.046,-0.163 0.187,-0.163 0.085,0 0.145,0.085 0.06,0.081 0.127,0.254 0.07,0.17 0.166,0.43 0.098,0.262 0.254,0.614 0.151,-0.352 0.243,-0.61 0.095,-0.261 0.159,-0.43 0.067,-0.173 0.127,-0.254 0.06,-0.085 0.148,-0.085 0.081,0 0.123,0.042 0.043,0.039 0.064,0.12 0.025,0.099 0.06,0.275 0.035,0.173 0.074,0.388 0.042,0.212 0.081,0.445 0.039,0.233 0.07,0.444 0.032,0.212 0.05,0.385 0.021,0.17 0.021,0.261 0,0.056 -0.039,0.092 -0.038,0.031 -0.098,0.031 -0.04,0 -0.096,-0.028 -0.056,-0.032 -0.077,-0.123 -0.043,-0.201 -0.078,-0.417 L 32.807,95.915 32.75,95.474 q -0.028,-0.223 -0.06,-0.441 -0.046,0.14 -0.106,0.31 -0.06,0.17 -0.127,0.342 -0.067,0.17 -0.137,0.335 -0.07,0.166 -0.138,0.3 -0.024,0.046 -0.067,0.07 -0.039,0.022 -0.08,0.022 -0.047,0 -0.09,-0.021 -0.038,-0.025 -0.06,-0.074 z m 2.005,0.377 q 0,0.085 -0.018,0.13 -0.014,0.047 -0.039,0.071 -0.02,0.025 -0.053,0.029 -0.028,0.007 -0.056,0.007 -0.095,0 -0.127,-0.043 -0.028,-0.042 -0.039,-0.19 -0.007,-0.078 -0.01,-0.226 -0.004,-0.148 -0.007,-0.353 0,-0.204 -0.004,-0.451 v -0.522 q 0,-0.131 0.032,-0.265 0.032,-0.134 0.12,-0.243 0.091,-0.11 0.25,-0.177 0.162,-0.067 0.42,-0.067 0.18,0 0.342,0.039 0.162,0.039 0.286,0.134 0.123,0.095 0.198,0.254 0.074,0.159 0.074,0.395 0,0.247 -0.082,0.41 -0.08,0.162 -0.229,0.257 -0.148,0.095 -0.353,0.134 -0.204,0.039 -0.448,0.039 h -0.12 q -0.06,0 -0.134,-0.007 z m 1.016,-1.485 q 0,-0.236 -0.134,-0.356 -0.13,-0.12 -0.438,-0.12 -0.116,0 -0.2,0.021 -0.082,0.018 -0.135,0.067 -0.053,0.046 -0.08,0.127 -0.026,0.081 -0.026,0.205 v 0.275 q 0,0.151 0.004,0.286 0.081,0.004 0.18,0.004 h 0.19 q 0.106,0 0.219,-0.015 0.116,-0.014 0.208,-0.063 0.092,-0.053 0.152,-0.152 0.06,-0.102 0.06,-0.278 z m 1.451,0.84 -0.102,0.007 h -0.223 q -0.06,0 -0.134,-0.007 v 0.716 q 0,0.113 -0.056,0.14 -0.053,0.026 -0.134,0.026 -0.042,0 -0.067,-0.007 -0.025,-0.004 -0.042,-0.018 -0.015,-0.018 -0.025,-0.05 -0.007,-0.031 -0.01,-0.088 -0.008,-0.063 -0.011,-0.183 -0.004,-0.123 -0.007,-0.318 0,-0.194 -0.004,-0.469 v -0.652 q 0,-0.145 0.035,-0.279 0.036,-0.138 0.127,-0.24 0.092,-0.106 0.247,-0.17 0.16,-0.063 0.402,-0.063 0.173,0 0.336,0.039 0.165,0.039 0.292,0.134 0.127,0.095 0.205,0.258 0.078,0.162 0.078,0.405 0,0.325 -0.141,0.505 -0.138,0.176 -0.381,0.25 l 0.472,0.65 q 0.064,0.084 0.064,0.172 0,0.07 -0.05,0.11 -0.046,0.042 -0.116,0.042 -0.078,0 -0.134,-0.042 -0.057,-0.046 -0.106,-0.117 z m 0.554,-0.822 q 0,-0.244 -0.148,-0.36 -0.145,-0.12 -0.462,-0.12 -0.117,0 -0.194,0.021 -0.078,0.018 -0.124,0.07 -0.046,0.054 -0.067,0.149 -0.018,0.091 -0.018,0.236 v 0.24 q 0,0.138 0.004,0.25 0.081,0.005 0.18,0.005 h 0.19 q 0.1,0 0.208,-0.011 0.113,-0.014 0.209,-0.064 0.095,-0.052 0.158,-0.148 0.064,-0.099 0.064,-0.268 z m 1.609,1.725 q -0.212,0 -0.398,-0.085 -0.184,-0.085 -0.322,-0.243 -0.137,-0.163 -0.218,-0.395 -0.078,-0.233 -0.078,-0.53 0,-0.278 0.067,-0.511 0.07,-0.233 0.205,-0.402 0.137,-0.17 0.338,-0.261 0.202,-0.096 0.466,-0.096 0.215,0 0.41,0.078 0.193,0.078 0.338,0.233 0.148,0.155 0.233,0.388 0.085,0.233 0.085,0.543 0,0.258 -0.071,0.49 -0.067,0.233 -0.208,0.41 -0.138,0.173 -0.35,0.278 -0.211,0.103 -0.497,0.103 z m 0.007,-0.332 q 0.194,0 0.339,-0.077 0.145,-0.082 0.24,-0.212 0.095,-0.13 0.14,-0.3 0.047,-0.173 0.047,-0.353 0,-0.218 -0.06,-0.388 -0.057,-0.173 -0.155,-0.29 -0.1,-0.115 -0.23,-0.175 -0.13,-0.064 -0.278,-0.064 -0.177,0 -0.31,0.074 -0.131,0.074 -0.223,0.201 -0.088,0.127 -0.134,0.3 -0.046,0.17 -0.046,0.363 0,0.209 0.053,0.381 0.053,0.17 0.141,0.29 0.092,0.12 0.215,0.187 0.124,0.063 0.261,0.063 z m 2.384,-0.303 q -0.162,-0.357 -0.29,-0.688 -0.123,-0.335 -0.21,-0.596 -0.082,0.437 -0.138,0.882 -0.053,0.444 -0.138,0.85 -0.021,0.092 -0.078,0.123 -0.056,0.028 -0.095,0.028 -0.063,0 -0.102,-0.038 -0.036,-0.04 -0.036,-0.1 0,-0.08 0.018,-0.246 0.021,-0.17 0.05,-0.381 0.031,-0.212 0.07,-0.445 0.039,-0.232 0.078,-0.448 l 0.077,-0.395 q 0.04,-0.176 0.067,-0.271 0.046,-0.163 0.187,-0.163 0.085,0 0.145,0.085 0.06,0.081 0.127,0.254 0.07,0.17 0.166,0.43 0.099,0.262 0.254,0.614 0.151,-0.352 0.243,-0.61 0.095,-0.261 0.159,-0.43 0.067,-0.173 0.127,-0.254 0.06,-0.085 0.148,-0.085 0.081,0 0.124,0.042 0.042,0.039 0.063,0.12 0.025,0.099 0.06,0.275 0.035,0.173 0.074,0.388 0.042,0.212 0.081,0.445 0.039,0.233 0.07,0.444 0.033,0.212 0.05,0.385 0.021,0.17 0.021,0.261 0,0.056 -0.038,0.092 -0.04,0.031 -0.1,0.031 -0.038,0 -0.094,-0.028 -0.057,-0.032 -0.078,-0.123 -0.042,-0.201 -0.078,-0.417 l -0.063,-0.433 -0.057,-0.441 q -0.028,-0.223 -0.06,-0.441 -0.045,0.14 -0.105,0.31 -0.06,0.17 -0.127,0.342 -0.067,0.17 -0.138,0.335 -0.07,0.166 -0.138,0.3 -0.024,0.046 -0.067,0.07 -0.038,0.022 -0.08,0.022 -0.047,0 -0.089,-0.021 -0.039,-0.025 -0.06,-0.074 z m 2.005,0.377 q 0,0.085 -0.018,0.13 -0.014,0.047 -0.038,0.071 -0.022,0.025 -0.053,0.029 -0.029,0.007 -0.057,0.007 -0.095,0 -0.127,-0.043 -0.028,-0.042 -0.039,-0.19 -0.007,-0.078 -0.01,-0.226 -0.004,-0.148 -0.007,-0.353 0,-0.204 -0.004,-0.451 v -0.522 q 0,-0.131 0.032,-0.265 0.032,-0.134 0.12,-0.243 0.092,-0.11 0.25,-0.177 0.163,-0.067 0.42,-0.067 0.18,0 0.342,0.039 0.163,0.039 0.286,0.134 0.124,0.095 0.198,0.254 0.074,0.159 0.074,0.395 0,0.247 -0.081,0.41 -0.082,0.162 -0.23,0.257 -0.148,0.095 -0.352,0.134 -0.205,0.039 -0.449,0.039 h -0.12 q -0.06,0 -0.134,-0.007 z m 1.016,-1.485 q 0,-0.236 -0.134,-0.356 -0.13,-0.12 -0.438,-0.12 -0.116,0 -0.2,0.021 -0.082,0.018 -0.135,0.067 -0.053,0.046 -0.08,0.127 -0.025,0.081 -0.025,0.205 v 0.275 q 0,0.151 0.003,0.286 0.081,0.004 0.18,0.004 h 0.19 q 0.106,0 0.22,-0.015 0.116,-0.014 0.207,-0.063 0.092,-0.053 0.152,-0.152 0.06,-0.102 0.06,-0.278 z m 1.974,-0.437 q -0.099,0.007 -0.212,0.01 l -0.243,0.007 0.007,0.18 0.007,0.166 q 0.004,0.085 0.004,0.176 0.003,0.092 0.003,0.205 v 0.307 q 0,0.144 -0.003,0.293 l -0.007,0.292 q -0.004,0.149 -0.011,0.307 -0.003,0.085 -0.018,0.13 -0.01,0.047 -0.031,0.072 -0.022,0.024 -0.05,0.028 -0.028,0.007 -0.063,0.007 -0.064,0 -0.11,-0.043 -0.042,-0.045 -0.049,-0.19 -0.007,-0.127 -0.01,-0.268 0,-0.141 -0.004,-0.304 -0.004,-0.162 -0.004,-0.349 V 95.04 q 0.004,-0.145 0.011,-0.25 h -0.145 q -0.148,0 -0.254,-0.005 -0.102,-0.004 -0.169,-0.017 -0.067,-0.018 -0.099,-0.053 -0.028,-0.036 -0.028,-0.1 0,-0.03 0.007,-0.055 0.007,-0.029 0.032,-0.05 0.025,-0.025 0.067,-0.039 0.046,-0.014 0.116,-0.02 l 0.12,-0.008 0.106,-0.007 q 0.053,-0.004 0.11,-0.004 h 0.13 q 0.208,0 0.392,0.004 0.186,0.004 0.395,0.014 0.084,0.007 0.13,0.021 0.046,0.011 0.07,0.032 0.025,0.021 0.029,0.05 0.007,0.028 0.007,0.063 0,0.064 -0.046,0.106 -0.042,0.042 -0.187,0.05 z"
       style="font-weight:400;font-size:3.52800012px;font-family:Sniglet;-inkscape-font-specification:'Sniglet, Normal';font-variant-ligatures:normal;font-variant-caps:normal;font-variant-numeric:normal;font-feature-settings:normal;text-align:start;letter-spacing:0;word-spacing:0;fill:#333333"
       word-spacing="0"
       letter-spacing="0"
       font-size="3.528"
       font-weight="400"
       aria-label="IMPROMPT"
       id="path12"
       inkscape:connector-curvature="0" />
  </g>
  <path
     d="M 53.684,16.465 H 56.33"
     id="path16"
     inkscape:connector-curvature="0"
     style="fill:none;stroke:#000000;stroke-width:0.132" />
  <g
     style="line-height:1.25"
     id="g20">
    <g
       aria-label="CLOCKED-LFO"
       style="font-style:normal;font-weight:normal;font-size:10.5833683px;line-height:1.25;font-family:sans-serif;letter-spacing:0px;word-spacing:0px;fill:#000000;fill-opacity:1;stroke:none;stroke-width:0.26458421"
       id="text1005">
      <path
         d="m 28.212136,3.5247908 q 0.1397,0 0.2794,0.0254 0.143934,0.021167 0.258235,0.071967 0.1143,0.046567 0.186267,0.1185337 0.0762,0.067734 0.0762,0.1608672 0,0.097367 -0.0508,0.1481672 -0.0508,0.0508 -0.127,0.0508 -0.07197,0 -0.127001,-0.021167 -0.05503,-0.0254 -0.127,-0.055034 -0.06773,-0.029633 -0.165101,-0.0508 -0.09737,-0.0254 -0.258234,-0.0254 -0.160867,0 -0.309034,0.084667 -0.143934,0.080434 -0.254001,0.2286008 -0.105834,0.1439338 -0.169334,0.3429011 -0.0635,0.1989673 -0.0635,0.4318014 0,0.2878677 0.07197,0.4953017 0.0762,0.207434 0.194734,0.3429011 0.118533,0.1312338 0.266701,0.1989674 0.1524,0.0635 0.304801,0.0635 0.182033,0 0.304801,-0.0381 0.122767,-0.0381 0.207434,-0.084667 0.0889,-0.046567 0.1524,-0.084667 0.0635,-0.0381 0.122767,-0.0381 0.07197,0 0.114301,0.042334 0.04233,0.0381 0.04233,0.1397005 0,0.084667 -0.06773,0.1735672 -0.0635,0.084667 -0.1905,0.1566339 -0.122767,0.067734 -0.296335,0.1143003 -0.173567,0.042333 -0.389467,0.042333 -0.237068,0 -0.474135,-0.093134 -0.232834,-0.093134 -0.419102,-0.2751676 -0.182034,-0.1862673 -0.296334,-0.4614349 -0.1143,-0.2794009 -0.1143,-0.6477021 0,-0.3683013 0.1016,-0.6561689 0.105834,-0.2878676 0.283634,-0.4868349 0.182034,-0.2032007 0.419102,-0.3090344 0.2413,-0.1058337 0.512235,-0.1058337 z"
         style="font-style:normal;font-variant:normal;font-weight:normal;font-stretch:normal;font-size:4.23334742px;font-family:Sniglet;-inkscape-font-specification:'Sniglet, Normal';font-variant-ligatures:normal;font-variant-caps:normal;font-variant-numeric:normal;font-feature-settings:normal;text-align:start;writing-mode:lr-tb;text-anchor:start;stroke-width:0.26458421"
         id="path1007" />
      <path
         d="m 29.941921,5.3408969 q 0,0.1354671 0,0.2413008 0,0.1016003 -0.0042,0.1947339 0,0.093134 -0.0042,0.1862673 -0.0042,0.093134 -0.0085,0.2074341 0.292101,-0.033867 0.457201,-0.055034 0.165101,-0.021167 0.258234,-0.033867 0.09737,-0.0127 0.148168,-0.016933 0.05503,-0.00423 0.127,-0.00423 0.186267,0 0.186267,0.182034 0,0.071967 -0.0762,0.122767 -0.07197,0.0508 -0.186267,0.0889 -0.110067,0.033867 -0.249768,0.059267 -0.135467,0.021167 -0.266701,0.029633 -0.127,0.0127 -0.232834,0.016933 -0.1016,0.00423 -0.143934,0.00423 -0.1524,0 -0.237067,-0.021167 -0.08467,-0.016933 -0.127,-0.110067 -0.04233,-0.097367 -0.05503,-0.292101 -0.0085,-0.194734 -0.0085,-0.5503351 0,-0.3429012 0,-0.6096021 0,-0.2667009 0.0042,-0.4783682 0.0042,-0.2116674 0.0042,-0.3767679 0.0042,-0.1651006 0.0127,-0.3005677 0.0085,-0.1735673 0.05927,-0.2243674 0.0508,-0.055033 0.127,-0.055033 0.04233,0 0.07197,0.00847 0.03387,0.00423 0.05927,0.033867 0.0254,0.029634 0.0381,0.084667 0.01693,0.055033 0.02117,0.1566338 0.01693,0.3725346 0.02117,0.7366025 0.0042,0.3640679 0.0042,0.7747026 z"
         style="font-style:normal;font-variant:normal;font-weight:normal;font-stretch:normal;font-size:4.23334742px;font-family:Sniglet;-inkscape-font-specification:'Sniglet, Normal';font-variant-ligatures:normal;font-variant-caps:normal;font-variant-numeric:normal;font-feature-settings:normal;text-align:start;writing-mode:lr-tb;text-anchor:start;stroke-width:0.26458421"
         id="path1009" />
      <path
         d="m 32.356384,6.5643343 q -0.254,0 -0.478368,-0.1016004 Q 31.657882,6.3611336 31.492781,6.170633 31.327681,5.975899 31.230314,5.696498 31.13718,5.4170971 31.13718,5.0614959 q 0,-0.3344344 0.08043,-0.6138353 0.08467,-0.279401 0.245534,-0.4826016 0.165101,-0.2032007 0.406401,-0.3132678 0.241301,-0.1143003 0.558802,-0.1143003 0.258234,0 0.491069,0.093134 0.232834,0.093134 0.406401,0.2794009 0.1778,0.1862673 0.279401,0.4656682 0.1016,0.279401 0.1016,0.6519356 0,0.3090343 -0.08467,0.5884352 -0.08043,0.279401 -0.249767,0.4910683 -0.165101,0.2074341 -0.419102,0.3344345 -0.254001,0.1227671 -0.596902,0.1227671 z m 0.0085,-0.3979347 q 0.232834,0 0.406401,-0.093134 0.173568,-0.097367 0.287868,-0.2540009 0.1143,-0.1566338 0.169334,-0.3598345 0.05503,-0.207434 0.05503,-0.4233348 0,-0.2624675 -0.07197,-0.4656682 -0.06773,-0.207434 -0.186268,-0.3471345 -0.118533,-0.1397004 -0.275167,-0.2116673 -0.156634,-0.0762 -0.334435,-0.0762 -0.211667,0 -0.372534,0.0889 -0.156634,0.0889 -0.266701,0.2413008 -0.105834,0.1524005 -0.160867,0.3598345 -0.05503,0.2032007 -0.05503,0.4360348 0,0.2497675 0.0635,0.4572016 0.0635,0.2032006 0.169334,0.3471344 0.110067,0.1439339 0.258234,0.2243675 0.148167,0.0762 0.313268,0.0762 z"
         style="font-style:normal;font-variant:normal;font-weight:normal;font-stretch:normal;font-size:4.23334742px;font-family:Sniglet;-inkscape-font-specification:'Sniglet, Normal';font-variant-ligatures:normal;font-variant-caps:normal;font-variant-numeric:normal;font-feature-settings:normal;text-align:start;writing-mode:lr-tb;text-anchor:start;stroke-width:0.26458421"
         id="path1011" />
      <path
         d="m 35.364178,3.5247908 q 0.1397,0 0.279401,0.0254 0.143934,0.021167 0.258234,0.071967 0.1143,0.046567 0.186267,0.1185337 0.0762,0.067734 0.0762,0.1608672 0,0.097367 -0.0508,0.1481672 -0.0508,0.0508 -0.127,0.0508 -0.07197,0 -0.127,-0.021167 -0.05503,-0.0254 -0.127001,-0.055034 -0.06773,-0.029633 -0.1651,-0.0508 -0.09737,-0.0254 -0.258235,-0.0254 -0.160867,0 -0.309034,0.084667 -0.143934,0.080434 -0.254001,0.2286008 -0.105833,0.1439338 -0.169334,0.3429011 -0.0635,0.1989673 -0.0635,0.4318014 0,0.2878677 0.07197,0.4953017 0.0762,0.207434 0.194734,0.3429011 0.118534,0.1312338 0.266701,0.1989674 0.1524,0.0635 0.304801,0.0635 0.182034,0 0.304801,-0.0381 0.122767,-0.0381 0.207434,-0.084667 0.0889,-0.046567 0.1524,-0.084667 0.0635,-0.0381 0.122768,-0.0381 0.07197,0 0.1143,0.042334 0.04233,0.0381 0.04233,0.1397005 0,0.084667 -0.06773,0.1735672 -0.0635,0.084667 -0.190501,0.1566339 -0.122767,0.067734 -0.296334,0.1143003 -0.173567,0.042333 -0.389468,0.042333 -0.237068,0 -0.474135,-0.093134 -0.232834,-0.093134 -0.419101,-0.2751676 -0.182034,-0.1862673 -0.296335,-0.4614349 -0.1143,-0.2794009 -0.1143,-0.6477021 0,-0.3683013 0.1016,-0.6561689 0.105834,-0.2878676 0.283635,-0.4868349 0.182033,-0.2032007 0.419101,-0.3090344 0.241301,-0.1058337 0.512235,-0.1058337 z"
         style="font-style:normal;font-variant:normal;font-weight:normal;font-stretch:normal;font-size:4.23334742px;font-family:Sniglet;-inkscape-font-specification:'Sniglet, Normal';font-variant-ligatures:normal;font-variant-caps:normal;font-variant-numeric:normal;font-feature-settings:normal;text-align:start;writing-mode:lr-tb;text-anchor:start;stroke-width:0.26458421"
         id="path1013" />
      <path
         d="m 36.691795,6.2595332 q -0.0085,-0.1524005 -0.0127,-0.317501 0,-0.1651006 -0.0042,-0.3556012 -0.0042,-0.1905006 -0.0042,-0.4106347 0,-0.2243674 0,-0.499535 0,-0.3005677 0.0042,-0.512235 0.0042,-0.2159007 0.02117,-0.3513679 0.02117,-0.1354671 0.0635,-0.1989673 0.04233,-0.0635 0.118534,-0.0635 0.07197,0 0.127,0.046567 0.05503,0.046567 0.0635,0.2159007 0.0085,0.1524006 0.0127,0.2709343 0.0042,0.1185337 0.0085,0.2370674 0.0042,0.1143004 0.0042,0.2413008 0,0.1227671 0,0.279401 v 0.220134 L 37.9999,4.0243258 q 0.1778,-0.2032007 0.275167,-0.2667009 0.09737,-0.067734 0.169334,-0.067734 0.08467,0 0.122767,0.042333 0.04233,0.042333 0.04233,0.1058337 0,0.0254 -0.0085,0.0508 -0.0085,0.0254 -0.0381,0.071967 -0.0254,0.042334 -0.08043,0.110067 -0.05503,0.0635 -0.148167,0.1651006 l -0.588435,0.6392354 0.927103,1.3208044 q 0.03387,0.046567 0.0508,0.097367 0.02117,0.0508 0.02117,0.097367 0,0.080434 -0.04657,0.1312338 -0.04233,0.055034 -0.1524,0.055034 -0.0889,0 -0.160868,-0.0508 -0.06773,-0.046567 -0.127,-0.1397004 L 37.453798,5.196963 37.08973,5.5948977 q -0.0042,0.1608672 -0.0085,0.3217344 -0.0042,0.1608672 -0.0127,0.3386678 -0.0042,0.1016003 -0.02117,0.1566339 -0.0127,0.055034 -0.0381,0.084667 -0.0254,0.029633 -0.05927,0.033867 -0.02963,0.00847 -0.07197,0.00847 -0.0762,0 -0.127001,-0.0508 -0.0508,-0.055033 -0.05927,-0.2286008 z"
         style="font-style:normal;font-variant:normal;font-weight:normal;font-stretch:normal;font-size:4.23334742px;font-family:Sniglet;-inkscape-font-specification:'Sniglet, Normal';font-variant-ligatures:normal;font-variant-caps:normal;font-variant-numeric:normal;font-feature-settings:normal;text-align:start;writing-mode:lr-tb;text-anchor:start;stroke-width:0.26458421"
         id="path1015" />
      <path
         d="m 39.110359,5.878532 q -0.0085,-0.1354671 -0.01693,-0.3683012 -0.0085,-0.2328342 -0.0085,-0.4783683 0,-0.1397005 0,-0.2878676 0.0042,-0.1524005 0.0085,-0.3090344 0.0085,-0.3132677 0.0381,-0.4910683 0.03387,-0.1778006 0.127,-0.2667009 0.09737,-0.0889 0.270935,-0.110067 0.173567,-0.021167 0.461435,-0.021167 0.0042,0 0.0889,0 0.0889,0 0.211667,0.00423 0.122767,0 0.254001,0.00423 0.135467,0.00423 0.224367,0.00847 0.09313,0.00847 0.148168,0.0254 0.05927,0.0127 0.0889,0.0381 0.02963,0.021167 0.0381,0.055033 0.0085,0.029633 0.0085,0.067734 0,0.097367 -0.05503,0.1439338 -0.05503,0.042333 -0.224367,0.055034 -0.08467,0.00847 -0.249768,0.0127 -0.160867,0 -0.330201,0 -0.169334,0 -0.304801,0.00423 -0.135467,0 -0.169334,0 -0.110067,0.00423 -0.156634,0.0508 -0.04233,0.042333 -0.04233,0.207434 0,0.0381 0.0042,0.1862673 0.0085,0.1439338 0.0085,0.4064014 h 0.351368 q 0.224367,0 0.364068,0.00847 0.143934,0.00423 0.220134,0.0254 0.08043,0.021167 0.110067,0.067733 0.02963,0.046567 0.02963,0.1227671 0,0.0381 -0.0085,0.071967 -0.0042,0.029633 -0.03387,0.055034 -0.02963,0.021167 -0.08467,0.0381 -0.05503,0.0127 -0.156634,0.021167 -0.122767,0.00847 -0.232834,0.0127 -0.105834,0 -0.211667,0 h -0.355602 q 0,0.0635 0,0.1524005 0,0.0889 0,0.182034 0,0.093134 0,0.1820339 0.0042,0.0889 0.0085,0.1439338 0.0042,0.067734 0.01693,0.1143004 0.01693,0.046567 0.05503,0.0762 0.04233,0.029633 0.118534,0.042333 0.08043,0.0127 0.211667,0.0127 h 0.91017 q 0.148167,0 0.186267,0.055034 0.0381,0.055033 0.0381,0.1481671 0,0.0762 -0.03387,0.1185338 -0.03387,0.0381 -0.1651,0.055033 -0.127001,0.021167 -0.385235,0.0254 -0.254001,0.00423 -0.702735,0.00423 -0.190501,0 -0.313268,-0.033867 -0.122767,-0.033867 -0.198968,-0.1143003 -0.0762,-0.080434 -0.1143,-0.2074341 -0.03387,-0.1312337 -0.04657,-0.317501 z"
         style="font-style:normal;font-variant:normal;font-weight:normal;font-stretch:normal;font-size:4.23334742px;font-family:Sniglet;-inkscape-font-specification:'Sniglet, Normal';font-variant-ligatures:normal;font-variant-caps:normal;font-variant-numeric:normal;font-feature-settings:normal;text-align:start;writing-mode:lr-tb;text-anchor:start;stroke-width:0.26458421"
         id="path1017" />
      <path
         d="m 42.317517,3.5290242 q 0.436035,0 0.698502,0.1312337 0.262468,0.1312338 0.402168,0.3471345 0.139701,0.2159007 0.182034,0.4910683 0.04657,0.2751676 0.04657,0.5588019 0,0.3090343 -0.08043,0.5842019 -0.0762,0.2751676 -0.241301,0.4826016 -0.160867,0.2032007 -0.414868,0.3259678 -0.254,0.1185337 -0.605368,0.1185337 -0.279401,0 -0.448735,-0.042333 -0.165101,-0.0381 -0.258234,-0.1185337 -0.0889,-0.080434 -0.118534,-0.2032007 -0.02963,-0.122767 -0.02963,-0.2878676 V 4.3248935 q 0,-0.182034 0.02963,-0.3302011 0.03387,-0.1481672 0.127,-0.2497675 0.09313,-0.1058337 0.262468,-0.1608672 0.173567,-0.055033 0.448735,-0.055033 z m 0.01693,2.6162087 q 0.262468,0 0.431802,-0.093134 0.173567,-0.097367 0.275167,-0.2540008 0.1016,-0.1566339 0.139701,-0.3556012 0.04233,-0.1989673 0.04233,-0.4064014 0,-0.1905006 -0.02963,-0.3810012 -0.02963,-0.194734 -0.122767,-0.3513679 -0.09313,-0.1566338 -0.266701,-0.2540008 -0.173568,-0.097367 -0.461435,-0.097367 -0.262468,0 -0.364068,0.0762 -0.1016,0.0762 -0.1016,0.2328341 v 1.621372 q 0,0.1312338 0.09313,0.1989674 0.09737,0.0635 0.364068,0.0635 z"
         style="font-style:normal;font-variant:normal;font-weight:normal;font-stretch:normal;font-size:4.23334742px;font-family:Sniglet;-inkscape-font-specification:'Sniglet, Normal';font-variant-ligatures:normal;font-variant-caps:normal;font-variant-numeric:normal;font-feature-settings:normal;text-align:start;writing-mode:lr-tb;text-anchor:start;stroke-width:0.26458421"
         id="path1019" />
      <path
         d="m 45.484656,5.4636639 q -0.194734,0.00847 -0.448735,0.016933 -0.254001,0.00423 -0.601135,0.00423 -0.143934,0 -0.245534,-0.00423 -0.101601,-0.00423 -0.165101,-0.021167 -0.0635,-0.021167 -0.09313,-0.0635 -0.02963,-0.042333 -0.02963,-0.1185338 0,-0.0381 0.0085,-0.067734 0.0085,-0.033867 0.0381,-0.059267 0.02963,-0.0254 0.08043,-0.042333 0.05503,-0.021167 0.1397,-0.029634 0.0635,-0.00423 0.110067,-0.00847 0.0508,-0.00423 0.09737,-0.00423 0.04657,-0.00423 0.09737,-0.00423 0.05503,0 0.127,0 0.228601,0 0.440269,0.00423 0.211667,0 0.440268,0.0127 0.1016,0.00847 0.156634,0.0254 0.05503,0.0127 0.08467,0.0381 0.02963,0.0254 0.03387,0.059267 0.0085,0.033867 0.0085,0.0762 0,0.0762 -0.05503,0.1270005 -0.0508,0.0508 -0.224367,0.059267 z"
         style="font-style:normal;font-variant:normal;font-weight:normal;font-stretch:normal;font-size:4.23334742px;font-family:Sniglet;-inkscape-font-specification:'Sniglet, Normal';font-variant-ligatures:normal;font-variant-caps:normal;font-variant-numeric:normal;font-feature-settings:normal;text-align:start;writing-mode:lr-tb;text-anchor:start;stroke-width:0.26458421"
         id="path1021" />
      <path
         d="m 46.528044,5.3408969 q 0,0.1354671 0,0.2413008 0,0.1016003 -0.0042,0.1947339 0,0.093134 -0.0042,0.1862673 -0.0042,0.093134 -0.0085,0.2074341 0.292101,-0.033867 0.457202,-0.055034 0.1651,-0.021167 0.258234,-0.033867 0.09737,-0.0127 0.148167,-0.016933 0.05503,-0.00423 0.127001,-0.00423 0.186267,0 0.186267,0.182034 0,0.071967 -0.0762,0.122767 -0.07197,0.0508 -0.186268,0.0889 -0.110067,0.033867 -0.249767,0.059267 -0.135467,0.021167 -0.266701,0.029633 -0.127001,0.0127 -0.232834,0.016933 -0.101601,0.00423 -0.143934,0.00423 -0.152401,0 -0.237068,-0.021167 -0.08467,-0.016933 -0.127,-0.110067 -0.04233,-0.097367 -0.05503,-0.292101 -0.0085,-0.194734 -0.0085,-0.5503351 0,-0.3429012 0,-0.6096021 0,-0.2667009 0.0042,-0.4783682 0.0042,-0.2116674 0.0042,-0.3767679 0.0042,-0.1651006 0.0127,-0.3005677 0.0085,-0.1735673 0.05927,-0.2243674 0.0508,-0.055033 0.127001,-0.055033 0.04233,0 0.07197,0.00847 0.03387,0.00423 0.05927,0.033867 0.0254,0.029634 0.0381,0.084667 0.01693,0.055033 0.02117,0.1566338 0.01693,0.3725346 0.02117,0.7366025 0.0042,0.3640679 0.0042,0.7747026 z"
         style="font-style:normal;font-variant:normal;font-weight:normal;font-stretch:normal;font-size:4.23334742px;font-family:Sniglet;-inkscape-font-specification:'Sniglet, Normal';font-variant-ligatures:normal;font-variant-caps:normal;font-variant-numeric:normal;font-feature-settings:normal;text-align:start;writing-mode:lr-tb;text-anchor:start;stroke-width:0.26458421"
         id="path1023" />
      <path
         d="m 48.022945,4.5534942 q 0,-0.3556011 0.0254,-0.5545685 0.0254,-0.2032006 0.105833,-0.304801 0.08043,-0.1016003 0.228601,-0.1227671 0.148167,-0.0254 0.389468,-0.0254 0.135467,0 0.245534,0 0.110067,0 0.211668,0.00423 0.105833,0 0.207434,0.00423 0.105833,0.00423 0.2286,0.00847 0.101601,0.00847 0.156634,0.0254 0.05503,0.0127 0.08467,0.0381 0.02963,0.0254 0.03387,0.059267 0.0085,0.033867 0.0085,0.0762 0,0.0762 -0.05503,0.1270004 -0.0508,0.0508 -0.224367,0.059267 -0.105834,0.00423 -0.207434,0.00847 -0.09737,0.00423 -0.224368,0.00847 -0.122767,0 -0.279401,0.00423 -0.156633,0 -0.376768,0 -0.0762,0 -0.105833,0.055033 -0.02963,0.0508 -0.02963,0.1312338 0,0.0635 0,0.1270004 0.0042,0.0635 0.0042,0.1397005 0.0042,0.0762 0.0042,0.1735672 0.0042,0.093134 0.0042,0.2201341 0.156634,0 0.270935,0.00423 0.118533,0 0.2032,0.00423 0.0889,0 0.156634,0.00423 0.06773,0.00423 0.131234,0.00847 0.173567,0.00847 0.224367,0.059267 0.05503,0.0508 0.05503,0.1270004 0,0.042333 -0.0085,0.0762 -0.0042,0.033867 -0.03387,0.059267 -0.02963,0.0254 -0.08467,0.042333 -0.05503,0.016933 -0.156633,0.0254 -0.06773,0.00423 -0.131234,0.00847 -0.05927,0 -0.143934,0.00423 -0.08043,0 -0.194734,0 -0.1143,0 -0.287868,0 -0.0042,0.2540009 -0.0042,0.5207018 0.0042,0.2624675 -0.0127,0.5418684 -0.0085,0.1651006 -0.05927,0.2032007 -0.04657,0.033867 -0.143934,0.033867 -0.09313,0 -0.1397,-0.0381 -0.04657,-0.042333 -0.05503,-0.194734 -0.0085,-0.1354671 -0.0127,-0.2963343 0,-0.1651006 -0.0042,-0.3725346 -0.0042,-0.2116674 -0.0042,-0.4741349 0,-0.2667009 0,-0.6096021 z"
         style="font-style:normal;font-variant:normal;font-weight:normal;font-stretch:normal;font-size:4.23334742px;font-family:Sniglet;-inkscape-font-specification:'Sniglet, Normal';font-variant-ligatures:normal;font-variant-caps:normal;font-variant-numeric:normal;font-feature-settings:normal;text-align:start;writing-mode:lr-tb;text-anchor:start;stroke-width:0.26458421"
         id="path1025" />
      <path
         d="m 51.249351,6.5643343 q -0.254001,0 -0.478368,-0.1016004 -0.220134,-0.1016003 -0.385235,-0.2921009 -0.1651,-0.194734 -0.262467,-0.474135 -0.09313,-0.2794009 -0.09313,-0.6350021 0,-0.3344344 0.08043,-0.6138353 0.08467,-0.279401 0.245534,-0.4826016 0.1651,-0.2032007 0.406401,-0.3132678 0.241301,-0.1143003 0.558802,-0.1143003 0.258234,0 0.491068,0.093134 0.232834,0.093134 0.406402,0.2794009 0.1778,0.1862673 0.279401,0.4656682 0.1016,0.279401 0.1016,0.6519356 0,0.3090343 -0.08467,0.5884352 -0.08043,0.279401 -0.249768,0.4910683 -0.1651,0.2074341 -0.419101,0.3344345 -0.254001,0.1227671 -0.596902,0.1227671 z m 0.0085,-0.3979347 q 0.232834,0 0.406401,-0.093134 0.173567,-0.097367 0.287868,-0.2540009 0.1143,-0.1566338 0.169334,-0.3598345 0.05503,-0.207434 0.05503,-0.4233348 0,-0.2624675 -0.07197,-0.4656682 -0.06773,-0.207434 -0.186267,-0.3471345 -0.118534,-0.1397004 -0.275168,-0.2116673 -0.156633,-0.0762 -0.334434,-0.0762 -0.211667,0 -0.372535,0.0889 -0.156633,0.0889 -0.266701,0.2413008 -0.105833,0.1524005 -0.160867,0.3598345 -0.05503,0.2032007 -0.05503,0.4360348 0,0.2497675 0.0635,0.4572016 0.0635,0.2032006 0.169334,0.3471344 0.110067,0.1439339 0.258234,0.2243675 0.148167,0.0762 0.313268,0.0762 z"
         style="font-style:normal;font-variant:normal;font-weight:normal;font-stretch:normal;font-size:4.23334742px;font-family:Sniglet;-inkscape-font-specification:'Sniglet, Normal';font-variant-ligatures:normal;font-variant-caps:normal;font-variant-numeric:normal;font-feature-settings:normal;text-align:start;writing-mode:lr-tb;text-anchor:start;stroke-width:0.26458421"
         id="path1027" />
    </g>
  </g>
  <g
     style="line-height:1.25"
     id="g24">
    <path
       style="font-weight:400;font-size:2.82200003px;font-family:Sniglet;-inkscape-font-specification:'Sniglet, Normal';font-variant-ligatures:normal;font-variant-caps:normal;font-variant-numeric:normal;font-feature-settings:normal;text-align:start;letter-spacing:0;word-spacing:0"
       d="M 5.051,11.261 4.969,11.267 H 4.791 q -0.048,0 -0.107,-0.006 v 0.573 q 0,0.09 -0.045,0.113 -0.042,0.02 -0.107,0.02 -0.034,0 -0.054,-0.006 Q 4.458,11.958 4.444,11.947 4.433,11.933 4.424,11.907 4.419,11.882 4.416,11.837 4.41,11.786 4.408,11.69 L 4.402,11.436 q 0,-0.155 -0.003,-0.375 v -0.522 q 0,-0.116 0.028,-0.223 0.029,-0.11 0.102,-0.192 0.073,-0.085 0.198,-0.136 0.127,-0.05 0.321,-0.05 0.139,0 0.268,0.03 0.133,0.031 0.235,0.108 0.101,0.076 0.163,0.206 0.062,0.13 0.062,0.324 0,0.26 -0.113,0.404 -0.11,0.14 -0.304,0.2 l 0.378,0.52 q 0.05,0.067 0.05,0.138 0,0.056 -0.039,0.087 -0.037,0.034 -0.093,0.034 -0.062,0 -0.107,-0.034 -0.045,-0.036 -0.085,-0.093 z m 0.443,-0.657 q 0,-0.195 -0.118,-0.288 -0.116,-0.096 -0.37,-0.096 -0.093,0 -0.155,0.017 -0.062,0.014 -0.1,0.056 -0.036,0.042 -0.053,0.119 -0.014,0.073 -0.014,0.189 v 0.192 q 0,0.11 0.003,0.2 0.065,0.003 0.144,0.003 h 0.152 q 0.08,0 0.167,-0.008 0.09,-0.011 0.166,-0.05 0.077,-0.043 0.127,-0.12 0.051,-0.078 0.051,-0.214 z M 6.042,11.527 6.031,11.281 Q 6.025,11.126 6.025,10.962 V 10.77 L 6.031,10.564 Q 6.036,10.355 6.056,10.237 6.079,10.118 6.141,10.059 6.206,9.999 6.321,9.986 6.437,9.971 6.629,9.971 h 0.06 q 0.059,0 0.14,0.003 0.082,0 0.17,0.003 l 0.15,0.006 Q 7.211,9.989 7.247,10 q 0.04,0.008 0.06,0.026 0.02,0.014 0.025,0.036 0.006,0.02 0.006,0.046 0,0.065 -0.037,0.096 -0.037,0.028 -0.15,0.036 -0.056,0.006 -0.166,0.008 h -0.22 q -0.113,0 -0.204,0.003 H 6.449 q -0.074,0.003 -0.105,0.034 -0.028,0.028 -0.028,0.138 l 0.003,0.125 q 0.005,0.096 0.005,0.27 h 0.235 q 0.15,0 0.242,0.007 0.096,0.003 0.147,0.016 0.054,0.015 0.073,0.046 0.02,0.03 0.02,0.081 0,0.026 -0.005,0.048 -0.003,0.02 -0.023,0.037 -0.02,0.014 -0.057,0.026 Q 6.92,11.087 6.852,11.093 6.77,11.099 6.697,11.101 H 6.319 v 0.344 q 0.002,0.06 0.005,0.096 0.003,0.045 0.012,0.076 0.01,0.031 0.036,0.05 0.028,0.02 0.08,0.03 0.053,0.007 0.14,0.007 h 0.607 q 0.099,0 0.124,0.037 0.026,0.036 0.026,0.099 0,0.05 -0.023,0.079 -0.022,0.025 -0.11,0.036 -0.085,0.014 -0.257,0.017 -0.17,0.003 -0.468,0.003 -0.127,0 -0.21,-0.022 Q 6.201,11.93 6.149,11.876 6.099,11.823 6.073,11.738 6.051,11.651 6.042,11.526 Z M 8.263,9.963 q 0.079,0 0.18,0.014 0.105,0.011 0.195,0.045 0.09,0.031 0.153,0.085 0.062,0.05 0.062,0.127 0,0.045 -0.026,0.076 -0.025,0.031 -0.082,0.031 -0.042,0 -0.087,-0.017 Q 8.616,10.307 8.559,10.29 8.505,10.27 8.432,10.254 8.362,10.237 8.266,10.237 q -0.187,0 -0.277,0.068 -0.087,0.064 -0.087,0.18 0,0.08 0.039,0.133 0.04,0.053 0.104,0.093 0.068,0.037 0.15,0.062 0.085,0.025 0.172,0.048 0.099,0.025 0.195,0.062 0.099,0.037 0.175,0.096 0.076,0.06 0.121,0.15 0.048,0.09 0.048,0.228 0,0.144 -0.053,0.26 -0.054,0.113 -0.147,0.195 -0.093,0.079 -0.223,0.124 -0.13,0.042 -0.282,0.042 -0.085,0 -0.198,-0.017 -0.113,-0.014 -0.214,-0.05 -0.102,-0.04 -0.173,-0.102 -0.07,-0.065 -0.07,-0.158 0,-0.057 0.028,-0.09 0.031,-0.035 0.09,-0.035 0.048,0 0.08,0.02 0.03,0.017 0.053,0.04 0.085,0.073 0.192,0.099 0.107,0.025 0.22,0.025 0.065,0 0.136,-0.008 0.073,-0.011 0.132,-0.042 0.06,-0.031 0.099,-0.088 0.04,-0.06 0.04,-0.158 0,-0.09 -0.037,-0.147 Q 8.545,11.208 8.486,11.169 8.426,11.129 8.345,11.104 8.265,11.078 8.172,11.053 8.068,11.025 7.966,10.991 q -0.101,-0.034 -0.18,-0.09 -0.08,-0.06 -0.13,-0.147 -0.048,-0.09 -0.048,-0.229 0,-0.138 0.05,-0.243 Q 7.71,10.178 7.798,10.107 7.885,10.037 8.003,10 8.124,9.963 8.263,9.963 Z m 0.971,1.564 Q 9.228,11.437 9.222,11.281 9.217,11.126 9.217,10.962 V 10.77 L 9.222,10.564 Q 9.228,10.355 9.248,10.237 9.27,10.118 9.332,10.059 9.397,9.999 9.513,9.986 9.629,9.971 9.821,9.971 H 9.88 q 0.06,0 0.141,0.003 0.082,0 0.17,0.003 l 0.149,0.006 q 0.062,0.006 0.099,0.017 0.04,0.008 0.06,0.026 0.019,0.014 0.024,0.036 0.006,0.02 0.006,0.046 0,0.065 -0.037,0.096 -0.036,0.028 -0.15,0.036 -0.056,0.006 -0.166,0.008 h -0.22 q -0.113,0 -0.203,0.003 H 9.64 q -0.073,0.003 -0.104,0.034 -0.029,0.028 -0.029,0.138 l 0.003,0.125 q 0.006,0.096 0.006,0.27 H 9.75 q 0.15,0 0.243,0.007 0.096,0.003 0.147,0.016 0.053,0.015 0.073,0.046 0.02,0.03 0.02,0.081 0,0.026 -0.006,0.048 -0.003,0.02 -0.023,0.037 -0.02,0.014 -0.056,0.026 -0.037,0.008 -0.104,0.014 -0.082,0.006 -0.156,0.008 H 9.51 v 0.344 l 0.006,0.096 q 0.003,0.045 0.011,0.076 0.011,0.031 0.037,0.05 0.028,0.02 0.079,0.03 0.053,0.007 0.14,0.007 h 0.608 q 0.098,0 0.124,0.037 0.025,0.036 0.025,0.099 0,0.05 -0.022,0.079 -0.023,0.025 -0.11,0.036 -0.085,0.014 -0.257,0.017 -0.17,0.003 -0.469,0.003 -0.127,0 -0.209,-0.022 Q 9.392,11.93 9.341,11.876 9.29,11.823 9.265,11.738 9.242,11.651 9.234,11.526 Z m 2.657,-1.287 q -0.079,0.006 -0.17,0.008 l -0.194,0.006 0.006,0.144 0.005,0.132 q 0.003,0.068 0.003,0.141 0.003,0.074 0.003,0.164 v 0.245 q 0,0.116 -0.003,0.235 l -0.006,0.234 q -0.002,0.119 -0.008,0.246 -0.003,0.067 -0.014,0.104 -0.009,0.037 -0.026,0.056 -0.017,0.02 -0.04,0.023 -0.022,0.006 -0.05,0.006 -0.05,0 -0.087,-0.034 -0.034,-0.037 -0.04,-0.152 -0.006,-0.102 -0.008,-0.215 0,-0.113 -0.003,-0.243 -0.003,-0.13 -0.003,-0.279 v -0.606 q 0.003,-0.116 0.008,-0.201 h -0.115 q -0.119,0 -0.203,-0.003 -0.082,-0.003 -0.136,-0.014 -0.054,-0.014 -0.079,-0.043 -0.022,-0.028 -0.022,-0.079 0,-0.025 0.005,-0.045 0.006,-0.022 0.026,-0.04 0.02,-0.019 0.053,-0.03 0.037,-0.012 0.093,-0.017 l 0.096,-0.006 0.085,-0.006 q 0.042,-0.003 0.087,-0.003 h 0.105 q 0.166,0 0.313,0.003 0.15,0.003 0.316,0.011 0.068,0.006 0.105,0.017 0.036,0.008 0.056,0.025 0.02,0.017 0.023,0.04 0.005,0.022 0.005,0.05 0,0.051 -0.036,0.085 -0.034,0.034 -0.15,0.04 z"
       word-spacing="0"
       letter-spacing="0"
       font-size="2.822"
       font-weight="400"
       aria-label="RESET"
       id="path22"
       inkscape:connector-curvature="0" />
  </g>
  <g
     style="line-height:1.25"
     id="g32">
    <path
       style="font-weight:400;font-size:2.82200003px;font-family:Sniglet;-inkscape-font-specification:'Sniglet, Normal';font-variant-ligatures:normal;font-variant-caps:normal;font-variant-numeric:normal;font-feature-settings:normal;text-align:start;letter-spacing:0;word-spacing:0"
       d="M 5.072,25.845 4.99,25.851 H 4.812 q -0.048,0 -0.107,-0.006 v 0.573 q 0,0.09 -0.045,0.113 -0.042,0.02 -0.107,0.02 -0.034,0 -0.054,-0.006 Q 4.479,26.542 4.465,26.531 4.454,26.517 4.445,26.491 4.44,26.466 4.437,26.421 4.431,26.37 4.428,26.274 L 4.423,26.02 q 0,-0.155 -0.003,-0.375 v -0.522 q 0,-0.116 0.028,-0.223 0.028,-0.11 0.102,-0.192 0.073,-0.085 0.197,-0.136 0.127,-0.05 0.322,-0.05 0.138,0 0.268,0.03 0.133,0.031 0.235,0.108 0.101,0.076 0.163,0.206 0.062,0.13 0.062,0.324 0,0.26 -0.113,0.404 -0.11,0.141 -0.304,0.2 l 0.378,0.52 q 0.05,0.067 0.05,0.138 0,0.056 -0.039,0.087 -0.037,0.034 -0.093,0.034 -0.062,0 -0.107,-0.034 -0.045,-0.036 -0.085,-0.093 z m 0.443,-0.657 q 0,-0.195 -0.118,-0.288 -0.116,-0.096 -0.37,-0.096 -0.093,0 -0.155,0.017 -0.062,0.014 -0.1,0.056 -0.036,0.042 -0.053,0.119 -0.014,0.073 -0.014,0.189 v 0.192 q 0,0.11 0.003,0.2 0.065,0.003 0.144,0.003 h 0.152 q 0.08,0 0.167,-0.008 0.09,-0.011 0.166,-0.05 0.076,-0.043 0.127,-0.12 0.051,-0.078 0.051,-0.214 z m 0.548,0.923 Q 6.057,26.021 6.052,25.865 6.046,25.71 6.046,25.546 V 25.354 L 6.052,25.148 Q 6.057,24.939 6.077,24.821 6.1,24.702 6.162,24.643 6.227,24.583 6.342,24.57 6.458,24.556 6.65,24.556 h 0.06 q 0.059,0 0.14,0.003 0.082,0 0.17,0.003 l 0.15,0.006 q 0.061,0.006 0.098,0.016 0.04,0.008 0.06,0.026 0.02,0.014 0.025,0.037 0.005,0.02 0.005,0.045 0,0.065 -0.036,0.096 -0.037,0.028 -0.15,0.036 -0.056,0.006 -0.166,0.008 h -0.22 q -0.113,0 -0.204,0.003 H 6.469 q -0.073,0.003 -0.104,0.034 -0.028,0.028 -0.028,0.139 l 0.003,0.124 q 0.005,0.096 0.005,0.27 h 0.234 q 0.15,0 0.243,0.007 0.096,0.003 0.147,0.017 0.054,0.014 0.073,0.045 0.02,0.03 0.02,0.082 0,0.025 -0.006,0.048 -0.002,0.02 -0.022,0.036 -0.02,0.014 -0.057,0.026 -0.036,0.008 -0.104,0.014 -0.082,0.006 -0.155,0.008 H 6.34 v 0.344 q 0.002,0.06 0.005,0.096 0.003,0.045 0.011,0.076 0.012,0.031 0.037,0.051 0.028,0.02 0.08,0.028 0.053,0.008 0.14,0.008 H 7.22 q 0.099,0 0.124,0.037 0.026,0.037 0.026,0.099 0,0.05 -0.023,0.079 -0.023,0.025 -0.11,0.036 -0.085,0.014 -0.257,0.017 -0.17,0.003 -0.468,0.003 -0.127,0 -0.21,-0.022 Q 6.221,26.514 6.17,26.46 6.12,26.407 6.094,26.322 6.071,26.235 6.063,26.11 Z m 2.221,-1.564 q 0.079,0 0.18,0.014 0.105,0.011 0.195,0.045 0.09,0.031 0.152,0.085 0.063,0.05 0.063,0.127 0,0.045 -0.026,0.076 -0.025,0.031 -0.082,0.031 -0.042,0 -0.087,-0.017 Q 8.636,24.891 8.58,24.874 8.526,24.854 8.453,24.838 8.383,24.821 8.286,24.821 q -0.186,0 -0.276,0.068 -0.088,0.064 -0.088,0.18 0,0.08 0.04,0.133 0.04,0.053 0.104,0.093 0.068,0.037 0.15,0.062 0.085,0.025 0.172,0.048 0.099,0.025 0.195,0.062 0.099,0.037 0.175,0.096 0.076,0.06 0.121,0.15 0.048,0.09 0.048,0.228 0,0.144 -0.053,0.26 -0.054,0.113 -0.147,0.195 -0.093,0.079 -0.223,0.124 -0.13,0.042 -0.282,0.042 -0.085,0 -0.198,-0.017 -0.113,-0.014 -0.214,-0.05 -0.102,-0.04 -0.173,-0.102 -0.07,-0.065 -0.07,-0.158 0,-0.057 0.028,-0.09 0.031,-0.034 0.09,-0.034 0.048,0 0.08,0.02 0.03,0.016 0.053,0.039 0.085,0.073 0.192,0.099 0.107,0.025 0.22,0.025 0.065,0 0.136,-0.008 0.073,-0.011 0.132,-0.042 0.06,-0.031 0.099,-0.088 0.04,-0.06 0.04,-0.158 0,-0.09 -0.037,-0.147 Q 8.566,25.792 8.507,25.753 8.447,25.713 8.366,25.688 8.286,25.662 8.193,25.637 8.089,25.609 7.987,25.575 q -0.101,-0.034 -0.18,-0.09 -0.08,-0.06 -0.13,-0.147 -0.048,-0.09 -0.048,-0.229 0,-0.138 0.05,-0.243 0.052,-0.104 0.139,-0.174 0.087,-0.071 0.206,-0.108 0.121,-0.036 0.26,-0.036 z m 0.971,1.564 Q 9.249,26.021 9.243,25.865 9.238,25.71 9.238,25.546 V 25.354 L 9.243,25.148 Q 9.249,24.939 9.269,24.821 9.291,24.702 9.353,24.643 9.418,24.583 9.534,24.57 9.65,24.556 9.842,24.556 h 0.059 q 0.06,0 0.141,0.003 0.082,0 0.17,0.003 l 0.149,0.006 q 0.062,0.006 0.099,0.016 0.04,0.008 0.059,0.026 0.02,0.014 0.025,0.037 0.006,0.02 0.006,0.045 0,0.065 -0.037,0.096 -0.036,0.028 -0.15,0.036 -0.056,0.006 -0.166,0.008 h -0.22 q -0.113,0 -0.203,0.003 H 9.661 q -0.073,0.003 -0.104,0.034 -0.029,0.028 -0.029,0.139 l 0.003,0.124 q 0.006,0.096 0.006,0.27 h 0.234 q 0.15,0 0.243,0.007 0.096,0.003 0.146,0.017 0.054,0.014 0.074,0.045 0.02,0.03 0.02,0.082 0,0.025 -0.006,0.048 -0.003,0.02 -0.023,0.036 -0.02,0.014 -0.056,0.026 -0.037,0.008 -0.104,0.014 -0.082,0.006 -0.156,0.008 H 9.531 v 0.344 l 0.006,0.096 q 0.003,0.045 0.011,0.076 0.011,0.031 0.037,0.051 0.028,0.02 0.079,0.028 0.053,0.008 0.14,0.008 h 0.608 q 0.098,0 0.124,0.037 0.025,0.037 0.025,0.099 0,0.05 -0.022,0.079 -0.023,0.025 -0.11,0.036 -0.085,0.014 -0.257,0.017 -0.17,0.003 -0.469,0.003 -0.127,0 -0.209,-0.022 Q 9.413,26.514 9.362,26.46 9.311,26.407 9.286,26.322 9.263,26.235 9.255,26.11 Z m 2.657,-1.288 q -0.079,0.007 -0.17,0.009 l -0.194,0.006 0.006,0.144 0.005,0.132 q 0.003,0.068 0.003,0.141 0.003,0.074 0.003,0.164 v 0.246 q 0,0.115 -0.003,0.234 l -0.006,0.234 q -0.002,0.119 -0.008,0.246 -0.003,0.067 -0.014,0.104 -0.009,0.037 -0.026,0.056 -0.017,0.02 -0.04,0.023 -0.022,0.006 -0.05,0.006 -0.05,0 -0.087,-0.034 -0.034,-0.037 -0.04,-0.152 -0.006,-0.102 -0.008,-0.215 0,-0.113 -0.003,-0.242 -0.003,-0.13 -0.003,-0.28 v -0.606 q 0.003,-0.116 0.008,-0.201 H 11.17 q -0.119,0 -0.204,-0.003 -0.081,-0.003 -0.135,-0.014 -0.054,-0.014 -0.079,-0.042 -0.023,-0.029 -0.023,-0.08 0,-0.025 0.006,-0.045 0.006,-0.022 0.025,-0.04 0.02,-0.019 0.054,-0.03 0.037,-0.012 0.093,-0.017 l 0.096,-0.006 0.085,-0.006 q 0.042,-0.003 0.087,-0.003 h 0.105 q 0.166,0 0.313,0.003 0.15,0.003 0.316,0.011 0.068,0.006 0.104,0.017 0.037,0.008 0.057,0.025 0.02,0.017 0.023,0.04 0.005,0.023 0.005,0.05 0,0.052 -0.037,0.085 -0.033,0.034 -0.15,0.04 z"
       word-spacing="0"
       letter-spacing="0"
       font-size="2.822"
       font-weight="400"
       aria-label="RESET"
       id="path30"
       inkscape:connector-curvature="0" />
  </g>
  <g
     style="line-height:1.25"
     id="g40">
    <path
       style="font-weight:400;font-size:2.82200003px;font-family:Sniglet;-inkscape-font-specification:'Sniglet, Normal';font-variant-ligatures:normal;font-variant-caps:normal;font-variant-numeric:normal;font-feature-settings:normal;text-align:start;letter-spacing:0;word-spacing:0"
       d="m 64.155,11.391 q -0.159,0 -0.254,-0.026 -0.096,-0.025 -0.15,-0.07 -0.05,-0.048 -0.07,-0.116 -0.018,-0.068 -0.026,-0.152 -0.009,-0.1 -0.014,-0.26 -0.003,-0.164 -0.003,-0.339 V 10.25 q 0.003,-0.096 0.003,-0.186 l 0.005,-0.172 q 0.003,-0.079 0.009,-0.135 0.008,-0.088 0.028,-0.159 0.02,-0.07 0.074,-0.12 0.056,-0.052 0.155,-0.077 0.101,-0.028 0.268,-0.028 0.378,0 0.564,0.14 0.19,0.14 0.19,0.396 0,0.133 -0.06,0.245 -0.056,0.113 -0.197,0.17 0.079,0.014 0.144,0.06 0.064,0.044 0.11,0.11 0.048,0.061 0.07,0.14 0.026,0.077 0.026,0.156 0,0.101 -0.043,0.208 -0.042,0.105 -0.144,0.192 -0.101,0.088 -0.27,0.144 -0.167,0.057 -0.415,0.057 z m 0.59,-0.61 q 0,-0.102 -0.049,-0.164 -0.045,-0.062 -0.118,-0.093 -0.074,-0.034 -0.164,-0.045 -0.09,-0.011 -0.18,-0.011 h -0.147 q -0.076,0 -0.141,0.003 l -0.006,0.121 -0.006,0.119 v 0.152 q 0,0.076 0.012,0.127 0.011,0.05 0.042,0.082 0.031,0.03 0.088,0.045 0.059,0.011 0.15,0.011 0.248,0 0.383,-0.087 0.135,-0.088 0.135,-0.26 z m -0.523,-1.14 q -0.093,0 -0.152,0.017 -0.057,0.014 -0.088,0.04 -0.028,0.025 -0.04,0.061 -0.008,0.037 -0.008,0.08 v 0.394 q 0.04,0.003 0.082,0.003 h 0.085 q 0.101,0 0.197,-0.014 0.1,-0.014 0.178,-0.048 0.08,-0.034 0.127,-0.093 0.048,-0.06 0.048,-0.152 0,-0.127 -0.104,-0.206 -0.102,-0.082 -0.325,-0.082 z m 1.341,1.572 q 0,0.067 -0.014,0.104 -0.012,0.037 -0.031,0.057 -0.017,0.02 -0.043,0.022 -0.022,0.006 -0.045,0.006 -0.076,0 -0.101,-0.034 -0.023,-0.034 -0.031,-0.152 -0.006,-0.062 -0.009,-0.18 l -0.005,-0.283 q 0,-0.164 -0.003,-0.361 V 9.974 q 0,-0.104 0.025,-0.212 0.026,-0.107 0.096,-0.194 0.073,-0.088 0.2,-0.141 0.13,-0.054 0.336,-0.054 0.144,0 0.274,0.031 0.13,0.031 0.229,0.107 0.098,0.076 0.158,0.203 0.059,0.127 0.059,0.317 0,0.197 -0.065,0.327 -0.065,0.13 -0.183,0.206 -0.119,0.076 -0.283,0.107 -0.163,0.031 -0.358,0.031 h -0.096 q -0.048,0 -0.107,-0.006 z m 0.813,-1.188 q 0,-0.19 -0.108,-0.285 -0.104,-0.096 -0.35,-0.096 -0.093,0 -0.16,0.016 -0.065,0.015 -0.108,0.054 -0.042,0.037 -0.065,0.102 -0.02,0.065 -0.02,0.163 v 0.22 q 0,0.122 0.004,0.23 0.064,0.002 0.143,0.002 h 0.153 q 0.085,0 0.175,-0.011 0.093,-0.012 0.166,-0.051 0.074,-0.042 0.122,-0.121 0.048,-0.082 0.048,-0.223 z m 1.237,0.886 q -0.13,-0.285 -0.23,-0.55 -0.1,-0.269 -0.17,-0.478 -0.065,0.35 -0.11,0.706 -0.043,0.356 -0.11,0.68 -0.017,0.074 -0.062,0.099 -0.046,0.023 -0.077,0.023 -0.05,0 -0.082,-0.031 -0.028,-0.031 -0.028,-0.08 0,-0.064 0.014,-0.197 l 0.04,-0.305 q 0.025,-0.17 0.056,-0.355 0.031,-0.187 0.062,-0.359 l 0.063,-0.316 q 0.03,-0.141 0.053,-0.217 0.037,-0.13 0.15,-0.13 0.067,0 0.115,0.068 0.048,0.065 0.102,0.203 0.056,0.135 0.133,0.344 0.079,0.21 0.203,0.491 0.121,-0.282 0.195,-0.488 0.076,-0.209 0.127,-0.344 0.053,-0.139 0.101,-0.203 0.048,-0.068 0.119,-0.068 0.065,0 0.099,0.034 0.033,0.03 0.05,0.096 0.02,0.079 0.048,0.22 0.029,0.138 0.06,0.31 0.033,0.17 0.064,0.356 0.032,0.186 0.057,0.356 0.025,0.169 0.04,0.307 0.016,0.136 0.016,0.209 0,0.045 -0.03,0.073 -0.032,0.026 -0.08,0.026 -0.03,0 -0.076,-0.023 -0.045,-0.025 -0.062,-0.099 -0.034,-0.16 -0.062,-0.333 -0.026,-0.172 -0.05,-0.347 l -0.046,-0.353 q -0.023,-0.177 -0.048,-0.352 -0.037,0.113 -0.085,0.248 -0.048,0.135 -0.101,0.274 -0.054,0.135 -0.11,0.268 -0.057,0.133 -0.11,0.24 -0.02,0.036 -0.054,0.056 -0.031,0.017 -0.065,0.017 -0.037,0 -0.07,-0.017 -0.032,-0.02 -0.049,-0.06 z"
       word-spacing="0"
       letter-spacing="0"
       font-size="2.822"
       font-weight="400"
       aria-label="BPM"
       id="path38"
       inkscape:connector-curvature="0" />
  </g>
  <g
     style="line-height:1.25"
     id="g52"
     transform="translate(-39.718437,-14.583188)">
    <path
       style="font-weight:400;font-size:2.82200003px;font-family:Sniglet;-inkscape-font-specification:'Sniglet, Normal';font-variant-ligatures:normal;font-variant-caps:normal;font-variant-numeric:normal;font-feature-settings:normal;text-align:start;letter-spacing:0;word-spacing:0"
       d="m 70.245,24.583 q 0.093,0 0.186,0.017 0.096,0.014 0.172,0.048 0.076,0.031 0.124,0.08 0.051,0.044 0.051,0.106 0,0.065 -0.034,0.1 -0.033,0.033 -0.084,0.033 -0.048,0 -0.085,-0.014 L 70.49,24.916 q -0.045,-0.02 -0.11,-0.034 -0.065,-0.017 -0.172,-0.017 -0.107,0 -0.206,0.057 -0.096,0.054 -0.17,0.152 -0.07,0.096 -0.112,0.229 -0.042,0.133 -0.042,0.288 0,0.192 0.048,0.33 0.05,0.138 0.13,0.229 0.078,0.087 0.177,0.132 0.102,0.043 0.203,0.043 0.122,0 0.204,-0.026 0.081,-0.025 0.138,-0.056 0.06,-0.031 0.101,-0.057 0.043,-0.025 0.082,-0.025 0.048,0 0.077,0.028 0.028,0.026 0.028,0.093 0,0.057 -0.045,0.116 -0.043,0.056 -0.127,0.104 -0.082,0.046 -0.198,0.077 -0.116,0.028 -0.26,0.028 -0.158,0 -0.316,-0.062 -0.155,-0.062 -0.28,-0.184 -0.12,-0.124 -0.197,-0.307 -0.076,-0.187 -0.076,-0.432 0,-0.246 0.068,-0.438 0.07,-0.192 0.189,-0.324 0.121,-0.136 0.28,-0.206 0.16,-0.07 0.34,-0.07 z m 1.153,1.21 v 0.162 q 0,0.067 -0.003,0.13 0,0.062 -0.003,0.124 l -0.005,0.138 0.305,-0.037 0.172,-0.022 0.099,-0.012 q 0.036,-0.003 0.084,-0.003 0.124,0 0.124,0.122 0,0.048 -0.05,0.082 -0.048,0.034 -0.125,0.059 -0.073,0.023 -0.166,0.04 -0.09,0.014 -0.178,0.02 -0.085,0.007 -0.155,0.01 -0.068,0.004 -0.096,0.004 -0.102,0 -0.158,-0.015 -0.057,-0.01 -0.085,-0.073 -0.028,-0.065 -0.036,-0.195 -0.006,-0.13 -0.006,-0.367 v -0.406 q 0,-0.178 0.003,-0.319 0.003,-0.141 0.003,-0.251 0.002,-0.11 0.008,-0.2 0.006,-0.116 0.04,-0.15 0.033,-0.037 0.084,-0.037 0.028,0 0.048,0.006 0.023,0.003 0.04,0.023 0.017,0.02 0.025,0.056 0.011,0.037 0.014,0.105 0.012,0.248 0.014,0.49 0.003,0.243 0.003,0.517 z m 1.011,0.613 q -0.006,-0.101 -0.009,-0.211 0,-0.11 -0.003,-0.237 -0.002,-0.127 -0.002,-0.274 v -0.333 q 0,-0.2 0.002,-0.342 0.003,-0.144 0.015,-0.234 0.014,-0.09 0.042,-0.133 0.028,-0.042 0.079,-0.042 0.048,0 0.085,0.031 0.036,0.031 0.042,0.144 0.006,0.102 0.008,0.18 l 0.006,0.159 q 0.003,0.076 0.003,0.16 v 0.335 l 0.604,-0.692 q 0.118,-0.135 0.183,-0.178 0.065,-0.045 0.113,-0.045 0.057,0 0.082,0.028 0.028,0.029 0.028,0.071 0,0.017 -0.005,0.034 -0.006,0.017 -0.026,0.048 -0.017,0.028 -0.053,0.073 -0.037,0.043 -0.1,0.11 l -0.392,0.426 0.619,0.881 q 0.022,0.031 0.033,0.065 0.015,0.034 0.015,0.065 0,0.053 -0.032,0.087 -0.028,0.037 -0.101,0.037 -0.06,0 -0.107,-0.034 -0.046,-0.031 -0.085,-0.093 l -0.536,-0.793 -0.243,0.265 -0.006,0.215 q -0.002,0.107 -0.008,0.226 -0.003,0.067 -0.014,0.104 -0.009,0.037 -0.026,0.056 -0.017,0.02 -0.04,0.023 -0.019,0.006 -0.047,0.006 -0.05,0 -0.085,-0.034 -0.034,-0.037 -0.04,-0.152 z"
       word-spacing="0"
       letter-spacing="0"
       font-size="2.822"
       font-weight="400"
       aria-label="CLK"
       id="path50"
       inkscape:connector-curvature="0" />
  </g>
  <g
     style="line-height:1.25"
     id="g56">
    <path
       style="font-weight:400;font-size:2.82200003px;font-family:Sniglet;-inkscape-font-specification:'Sniglet, Normal';font-variant-ligatures:normal;font-variant-caps:normal;font-variant-numeric:normal;font-feature-settings:normal;text-align:start;letter-spacing:0;word-spacing:0"
       d="m 43.294,24.555 q 0.079,0 0.18,0.014 0.105,0.012 0.195,0.045 0.09,0.031 0.153,0.085 0.062,0.051 0.062,0.127 0,0.045 -0.026,0.076 -0.025,0.031 -0.082,0.031 -0.042,0 -0.087,-0.017 -0.042,-0.016 -0.099,-0.033 -0.053,-0.02 -0.127,-0.037 -0.07,-0.017 -0.166,-0.017 -0.187,0 -0.277,0.068 -0.087,0.065 -0.087,0.18 0,0.08 0.04,0.133 0.039,0.054 0.104,0.093 0.067,0.037 0.15,0.062 0.084,0.026 0.171,0.048 0.1,0.026 0.195,0.062 0.099,0.037 0.175,0.096 0.076,0.06 0.121,0.15 0.048,0.09 0.048,0.228 0,0.144 -0.053,0.26 -0.054,0.113 -0.147,0.195 -0.093,0.079 -0.223,0.124 -0.13,0.042 -0.282,0.042 -0.085,0 -0.198,-0.017 -0.113,-0.014 -0.214,-0.05 -0.102,-0.04 -0.172,-0.102 -0.071,-0.065 -0.071,-0.158 0,-0.057 0.028,-0.09 0.031,-0.034 0.09,-0.034 0.049,0 0.08,0.02 0.03,0.016 0.053,0.039 0.085,0.073 0.192,0.099 0.107,0.025 0.22,0.025 0.065,0 0.136,-0.008 0.073,-0.011 0.132,-0.042 0.06,-0.031 0.1,-0.088 0.039,-0.059 0.039,-0.158 0,-0.09 -0.037,-0.146 -0.034,-0.06 -0.093,-0.1 -0.06,-0.039 -0.141,-0.064 -0.08,-0.026 -0.172,-0.051 -0.105,-0.028 -0.206,-0.062 -0.102,-0.034 -0.181,-0.09 -0.08,-0.06 -0.13,-0.147 -0.048,-0.09 -0.048,-0.229 0,-0.138 0.05,-0.242 0.052,-0.105 0.14,-0.175 0.087,-0.07 0.205,-0.108 0.122,-0.036 0.26,-0.036 z m 1.727,0.553 q 0.017,-0.04 0.051,-0.065 0.037,-0.025 0.076,-0.025 0.037,0 0.07,0.025 0.035,0.023 0.054,0.063 0.108,0.22 0.212,0.477 0.104,0.254 0.19,0.482 0.047,-0.35 0.104,-0.705 0.056,-0.356 0.127,-0.68 0.008,-0.037 0.025,-0.06 0.017,-0.025 0.037,-0.037 0.02,-0.014 0.04,-0.02 0.022,-0.005 0.036,-0.005 0.048,0 0.079,0.028 0.03,0.025 0.03,0.07 0,0.051 -0.016,0.181 -0.017,0.127 -0.045,0.3 -0.028,0.169 -0.065,0.36 -0.034,0.192 -0.068,0.37 -0.034,0.178 -0.065,0.325 -0.03,0.146 -0.05,0.223 -0.017,0.065 -0.051,0.098 -0.034,0.031 -0.1,0.031 -0.067,0 -0.115,-0.059 -0.045,-0.062 -0.101,-0.192 -0.054,-0.13 -0.13,-0.33 -0.076,-0.203 -0.198,-0.485 -0.124,0.282 -0.203,0.485 -0.076,0.203 -0.133,0.333 -0.053,0.13 -0.101,0.192 -0.048,0.06 -0.113,0.06 -0.113,0 -0.15,-0.13 -0.022,-0.077 -0.053,-0.22 -0.031,-0.147 -0.065,-0.325 l -0.065,-0.367 q -0.034,-0.192 -0.06,-0.361 l -0.042,-0.297 q -0.014,-0.13 -0.014,-0.18 0,-0.048 0.031,-0.08 0.031,-0.03 0.088,-0.03 0.04,0 0.076,0.025 0.037,0.023 0.053,0.096 0.068,0.325 0.119,0.68 0.054,0.356 0.113,0.706 0.087,-0.206 0.175,-0.438 0.087,-0.231 0.217,-0.519 z m 1.413,1.265 q -0.005,-0.102 -0.008,-0.212 0,-0.11 -0.003,-0.237 Q 46.42,25.797 46.42,25.65 v -0.333 q 0,-0.2 0.003,-0.341 0.003,-0.144 0.017,-0.235 0.014,-0.09 0.042,-0.132 0.031,-0.042 0.082,-0.042 0.026,0 0.048,0.006 0.023,0.006 0.04,0.025 0.017,0.017 0.028,0.054 0.014,0.033 0.017,0.09 l 0.008,0.18 0.006,0.158 q 0.003,0.077 0.003,0.161 v 0.429 q 0,0.116 -0.003,0.229 l -0.006,0.229 q -0.002,0.115 -0.008,0.242 -0.003,0.068 -0.014,0.105 -0.012,0.036 -0.028,0.056 -0.017,0.02 -0.04,0.023 -0.023,0.006 -0.05,0.006 -0.052,0 -0.088,-0.034 -0.037,-0.037 -0.043,-0.153 z m 1.765,0.042 q -0.09,-0.124 -0.172,-0.246 l -0.173,-0.27 q -0.09,-0.147 -0.208,-0.325 -0.116,-0.18 -0.28,-0.42 v 0.38 q 0,0.167 -0.003,0.31 l -0.005,0.272 q -0.003,0.127 -0.009,0.254 -0.003,0.068 -0.014,0.104 -0.008,0.037 -0.025,0.057 -0.017,0.02 -0.04,0.022 -0.02,0.006 -0.048,0.006 -0.05,0 -0.084,-0.034 -0.034,-0.036 -0.04,-0.152 -0.014,-0.31 -0.017,-0.62 v -0.647 q 0,-0.19 0.003,-0.296 0.006,-0.108 0.02,-0.161 0.017,-0.054 0.042,-0.068 0.028,-0.014 0.073,-0.014 0.046,0 0.119,0.07 0.073,0.068 0.16,0.181 0.088,0.113 0.187,0.26 0.102,0.147 0.2,0.302 0.1,0.155 0.19,0.307 l 0.169,0.277 q -0.003,-0.133 -0.003,-0.29 v -0.356 q 0,-0.223 0.003,-0.367 0.003,-0.147 0.014,-0.232 0.014,-0.084 0.042,-0.118 0.029,-0.034 0.08,-0.034 0.047,0 0.084,0.03 0.037,0.032 0.042,0.145 l 0.009,0.18 0.005,0.159 q 0.003,0.076 0.003,0.16 v 0.429 q 0,0.116 -0.003,0.229 l -0.005,0.229 q -0.003,0.115 -0.009,0.242 -0.002,0.068 -0.014,0.105 -0.008,0.036 -0.025,0.056 -0.017,0.02 -0.04,0.023 -0.02,0.006 -0.048,0.006 -0.048,0 -0.081,-0.028 -0.034,-0.029 -0.1,-0.116 z m 1.523,-1.865 q 0.093,0 0.192,0.016 0.099,0.017 0.18,0.051 0.083,0.031 0.136,0.08 0.054,0.047 0.054,0.11 0,0.064 -0.034,0.098 -0.034,0.034 -0.085,0.034 -0.048,0 -0.09,-0.017 l -0.09,-0.037 q -0.051,-0.02 -0.122,-0.036 -0.07,-0.017 -0.177,-0.017 -0.119,0 -0.223,0.056 -0.102,0.054 -0.181,0.153 -0.079,0.096 -0.124,0.228 -0.045,0.133 -0.045,0.288 0,0.19 0.048,0.327 0.048,0.139 0.124,0.23 0.079,0.09 0.175,0.135 0.099,0.042 0.197,0.042 0.161,0 0.254,-0.045 0.096,-0.048 0.153,-0.122 0.003,-0.059 0.003,-0.14 v -0.179 q 0,-0.036 -0.006,-0.056 -0.006,-0.023 -0.028,-0.034 -0.023,-0.011 -0.068,-0.014 -0.042,-0.003 -0.116,-0.003 -0.09,0 -0.146,-0.023 -0.057,-0.025 -0.057,-0.104 0,-0.057 0.028,-0.09 0.031,-0.037 0.125,-0.043 h 0.053 q 0.04,-0.003 0.082,-0.003 h 0.155 q 0.085,0 0.136,0.017 0.05,0.014 0.09,0.068 0.02,0.028 0.023,0.099 0.005,0.07 0.005,0.163 v 0.728 q 0,0.077 -0.042,0.113 -0.04,0.037 -0.093,0.037 -0.065,0 -0.108,-0.034 -0.039,-0.03 -0.039,-0.101 v -0.11 q -0.073,0.084 -0.175,0.12 -0.099,0.038 -0.251,0.038 -0.155,0 -0.305,-0.063 -0.15,-0.062 -0.265,-0.183 -0.116,-0.124 -0.19,-0.308 -0.07,-0.186 -0.07,-0.431 0,-0.246 0.07,-0.438 0.074,-0.192 0.198,-0.324 0.124,-0.136 0.29,-0.206 0.167,-0.07 0.36,-0.07 z"
       word-spacing="0"
       letter-spacing="0"
       font-size="2.822"
       font-weight="400"
       aria-label="SWING"
       id="path54"
       inkscape:connector-curvature="0" />
  </g>
  <g
     style="line-height:1.25"
     id="g60">
    <path
       style="font-weight:400;font-size:2.82200003px;font-family:Sniglet;-inkscape-font-specification:'Sniglet, Normal';font-variant-ligatures:normal;font-variant-caps:normal;font-variant-numeric:normal;font-feature-settings:normal;text-align:start;letter-spacing:0;word-spacing:0"
       d="m 57.497,26.351 q 0,0.068 -0.013,0.105 -0.012,0.036 -0.031,0.056 -0.017,0.02 -0.043,0.023 -0.022,0.006 -0.045,0.006 -0.076,0 -0.102,-0.034 -0.022,-0.034 -0.03,-0.153 -0.006,-0.062 -0.01,-0.18 l -0.005,-0.283 q 0,-0.163 -0.003,-0.36 v -0.419 q 0,-0.104 0.026,-0.211 0.025,-0.107 0.096,-0.195 0.073,-0.087 0.2,-0.141 0.13,-0.054 0.336,-0.054 0.144,0 0.274,0.031 0.13,0.031 0.228,0.108 0.1,0.076 0.158,0.203 0.06,0.127 0.06,0.316 0,0.197 -0.065,0.327 -0.065,0.13 -0.184,0.206 -0.118,0.076 -0.282,0.108 -0.164,0.03 -0.358,0.03 h -0.096 q -0.048,0 -0.107,-0.005 z m 0.813,-1.188 q 0,-0.19 -0.107,-0.285 -0.104,-0.096 -0.35,-0.096 -0.093,0 -0.16,0.017 -0.066,0.014 -0.108,0.053 -0.042,0.037 -0.065,0.102 -0.02,0.065 -0.02,0.164 v 0.22 q 0,0.121 0.003,0.228 0.065,0.003 0.144,0.003 H 57.8 q 0.084,0 0.175,-0.01 0.093,-0.012 0.166,-0.052 0.073,-0.042 0.121,-0.121 0.048,-0.082 0.048,-0.223 z m 1.283,-0.073 q 0.017,-0.04 0.05,-0.065 0.037,-0.026 0.077,-0.026 0.036,0 0.07,0.026 0.034,0.022 0.054,0.062 0.107,0.22 0.212,0.477 0.104,0.254 0.189,0.482 0.048,-0.35 0.104,-0.705 0.057,-0.356 0.127,-0.68 0.009,-0.037 0.026,-0.06 0.016,-0.025 0.036,-0.036 0.02,-0.015 0.04,-0.02 0.022,-0.006 0.036,-0.006 0.048,0 0.08,0.028 0.03,0.025 0.03,0.07 0,0.051 -0.016,0.181 -0.017,0.127 -0.046,0.3 -0.028,0.169 -0.065,0.36 -0.033,0.193 -0.067,0.37 -0.034,0.178 -0.065,0.325 -0.031,0.147 -0.051,0.223 -0.017,0.065 -0.05,0.099 -0.035,0.03 -0.1,0.03 -0.067,0 -0.115,-0.059 -0.045,-0.062 -0.102,-0.192 -0.053,-0.13 -0.13,-0.33 -0.076,-0.203 -0.197,-0.485 -0.124,0.282 -0.203,0.485 -0.077,0.203 -0.133,0.333 -0.054,0.13 -0.102,0.192 -0.048,0.06 -0.113,0.06 -0.112,0 -0.15,-0.13 -0.022,-0.077 -0.053,-0.22 l -0.065,-0.325 q -0.03,-0.178 -0.065,-0.367 -0.033,-0.192 -0.059,-0.361 l -0.042,-0.297 q -0.014,-0.13 -0.014,-0.18 0,-0.048 0.03,-0.08 0.032,-0.03 0.088,-0.03 0.04,0 0.076,0.025 0.037,0.023 0.054,0.096 0.068,0.325 0.119,0.68 0.053,0.356 0.112,0.706 0.088,-0.206 0.175,-0.437 0.088,-0.232 0.218,-0.52 z"
       word-spacing="0"
       letter-spacing="0"
       font-size="2.822"
       font-weight="400"
       aria-label="PW"
       id="path58"
       inkscape:connector-curvature="0" />
  </g>
  <path
     d="m 37.65,16.477 h 2.646"
     id="path94"
     inkscape:connector-curvature="0"
     style="fill:none;stroke:#000000;stroke-width:0.132" />
  <rect
     rx="2.3399999"
     ry="2.3399999"
     y="78.873001"
     x="41.044998"
     height="13.064"
     width="35.924999"
     id="rect124"
     style="fill:#999999;paint-order:stroke markers fill" />
  <g
     style="line-height:1.25"
     id="g182">
    <path
       d="m 30.043,26.002 q -0.13,-0.285 -0.231,-0.55 -0.1,-0.268 -0.17,-0.477 -0.065,0.35 -0.11,0.705 -0.042,0.356 -0.11,0.68 -0.017,0.074 -0.062,0.1 -0.045,0.022 -0.076,0.022 -0.05,0 -0.082,-0.031 -0.028,-0.031 -0.028,-0.08 0,-0.064 0.014,-0.197 l 0.04,-0.305 q 0.025,-0.169 0.056,-0.355 0.031,-0.186 0.062,-0.359 l 0.062,-0.316 q 0.031,-0.14 0.054,-0.217 0.036,-0.13 0.15,-0.13 0.067,0 0.115,0.068 0.048,0.065 0.102,0.203 0.056,0.136 0.132,0.344 0.08,0.21 0.203,0.492 0.122,-0.283 0.195,-0.489 0.076,-0.209 0.127,-0.344 0.054,-0.138 0.102,-0.203 0.048,-0.068 0.118,-0.068 0.065,0 0.1,0.034 0.033,0.031 0.05,0.096 0.02,0.079 0.048,0.22 0.028,0.138 0.06,0.31 0.033,0.17 0.064,0.356 0.031,0.186 0.057,0.356 0.025,0.169 0.039,0.307 0.017,0.136 0.017,0.21 0,0.044 -0.031,0.073 -0.031,0.025 -0.08,0.025 -0.03,0 -0.075,-0.023 Q 30.91,26.434 30.893,26.361 30.859,26.2 30.831,26.028 L 30.78,25.68 30.735,25.328 q -0.023,-0.178 -0.048,-0.353 -0.037,0.113 -0.085,0.248 -0.048,0.136 -0.102,0.274 -0.053,0.135 -0.11,0.268 -0.056,0.133 -0.11,0.24 -0.02,0.037 -0.053,0.056 -0.031,0.017 -0.065,0.017 -0.037,0 -0.07,-0.017 -0.032,-0.02 -0.049,-0.059 z m 2.051,0.508 q -0.17,0 -0.32,-0.068 -0.146,-0.067 -0.256,-0.194 -0.11,-0.13 -0.175,-0.316 -0.062,-0.187 -0.062,-0.424 0,-0.223 0.053,-0.409 0.057,-0.186 0.164,-0.322 0.11,-0.135 0.271,-0.209 0.16,-0.076 0.373,-0.076 0.172,0 0.327,0.062 0.155,0.062 0.27,0.187 0.12,0.124 0.187,0.31 0.068,0.186 0.068,0.435 0,0.206 -0.057,0.392 -0.053,0.186 -0.166,0.327 -0.11,0.139 -0.28,0.223 -0.169,0.082 -0.397,0.082 z m 0.005,-0.265 q 0.155,0 0.271,-0.062 0.116,-0.065 0.192,-0.17 0.076,-0.104 0.113,-0.24 0.037,-0.138 0.037,-0.282 0,-0.175 -0.048,-0.31 -0.045,-0.138 -0.125,-0.232 -0.079,-0.093 -0.183,-0.14 -0.104,-0.052 -0.223,-0.052 -0.141,0 -0.248,0.06 -0.105,0.059 -0.178,0.16 -0.07,0.102 -0.107,0.24 -0.037,0.136 -0.037,0.291 0,0.167 0.042,0.305 0.043,0.135 0.113,0.231 0.074,0.096 0.172,0.15 0.1,0.05 0.21,0.05 z m 1.757,-1.758 q 0.29,0 0.466,0.087 0.175,0.088 0.268,0.231 0.093,0.144 0.121,0.328 0.031,0.183 0.031,0.372 0,0.206 -0.053,0.39 -0.051,0.183 -0.161,0.322 -0.107,0.135 -0.277,0.217 -0.17,0.079 -0.403,0.079 -0.187,0 -0.3,-0.028 -0.11,-0.026 -0.172,-0.08 -0.059,-0.053 -0.079,-0.135 -0.02,-0.082 -0.02,-0.192 v -1.06 q 0,-0.122 0.02,-0.221 0.023,-0.099 0.085,-0.167 0.062,-0.07 0.175,-0.107 0.116,-0.036 0.3,-0.036 z m 0.011,1.744 q 0.175,0 0.288,-0.062 0.116,-0.065 0.184,-0.17 0.067,-0.104 0.093,-0.237 0.028,-0.132 0.028,-0.27 0,-0.128 -0.02,-0.255 -0.02,-0.13 -0.082,-0.234 -0.062,-0.104 -0.177,-0.17 -0.116,-0.064 -0.308,-0.064 -0.175,0 -0.243,0.05 -0.067,0.051 -0.067,0.156 v 1.08 q 0,0.088 0.062,0.133 0.065,0.043 0.242,0.043 z m 1.175,-0.178 q -0.006,-0.09 -0.011,-0.246 -0.006,-0.155 -0.006,-0.319 v -0.191 l 0.006,-0.206 q 0.005,-0.21 0.025,-0.328 0.023,-0.118 0.085,-0.178 0.065,-0.059 0.18,-0.073 0.116,-0.014 0.308,-0.014 h 0.06 q 0.058,0 0.14,0.003 l 0.17,0.002 0.15,0.006 q 0.061,0.006 0.098,0.017 0.04,0.008 0.06,0.025 0.019,0.014 0.025,0.037 0.005,0.02 0.005,0.045 0,0.065 -0.036,0.096 -0.037,0.028 -0.15,0.037 -0.057,0.005 -0.167,0.008 h -0.22 q -0.113,0 -0.203,0.003 h -0.113 q -0.073,0.003 -0.104,0.034 -0.028,0.028 -0.028,0.138 l 0.002,0.125 q 0.006,0.095 0.006,0.27 h 0.234 q 0.15,0 0.243,0.006 0.096,0.003 0.147,0.017 0.053,0.014 0.073,0.045 0.02,0.031 0.02,0.082 0,0.025 -0.006,0.048 -0.003,0.02 -0.022,0.037 -0.02,0.014 -0.057,0.025 -0.037,0.009 -0.104,0.014 -0.082,0.006 -0.155,0.009 h -0.379 v 0.344 l 0.006,0.096 q 0.003,0.045 0.011,0.076 0.012,0.031 0.037,0.05 0.028,0.02 0.079,0.03 0.054,0.008 0.141,0.008 h 0.607 q 0.099,0 0.124,0.036 0.025,0.037 0.025,0.1 0,0.05 -0.022,0.078 -0.023,0.026 -0.11,0.037 -0.085,0.014 -0.257,0.017 -0.17,0.003 -0.469,0.003 -0.127,0 -0.208,-0.023 -0.082,-0.023 -0.133,-0.076 -0.05,-0.054 -0.076,-0.139 -0.023,-0.087 -0.031,-0.211 z"
       style="font-weight:400;font-size:2.82200003px;font-family:Sniglet;-inkscape-font-specification:'Sniglet, Normal';font-variant-ligatures:normal;font-variant-caps:normal;font-variant-numeric:normal;font-feature-settings:normal;text-align:start;letter-spacing:0;word-spacing:0"
       aria-label="MODE"
       font-weight="400"
       font-size="2.822"
       letter-spacing="0"
       word-spacing="0"
       id="path180"
       inkscape:connector-curvature="0" />
  </g>
  <path
     d="m 32.822,21.082 v 2.116"
     id="path184"
     inkscape:connector-curvature="0"
     style="fill:none;stroke:#000000;stroke-width:0.132" />
  <g
     aria-label="TRI"
     style="font-style:normal;font-weight:normal;font-size:10.5833683px;line-height:1.25;font-family:sans-serif;letter-spacing:0px;word-spacing:0px;fill:#000000;fill-opacity:1;stroke:none;stroke-width:0.26458421"
     id="text1032">
    <path
       d="m 70.863236,24.724519 q -0.07902,0.0056 -0.169334,0.0085 -0.08749,0.0028 -0.194734,0.0056 0.0028,0.0762 0.0056,0.143934 0.0028,0.06491 0.0056,0.132644 0.0028,0.06773 0.0028,0.141112 0.0028,0.07338 0.0028,0.163689 0,0.127001 0,0.245535 0,0.115711 -0.0028,0.234245 -0.0028,0.115711 -0.0056,0.234245 -0.0028,0.118534 -0.0085,0.245534 -0.0028,0.06773 -0.01411,0.104423 -0.0085,0.03669 -0.0254,0.05644 -0.01693,0.01976 -0.03951,0.02258 -0.02258,0.0056 -0.0508,0.0056 -0.0508,0 -0.08749,-0.03387 -0.03387,-0.03669 -0.03951,-0.152401 -0.0056,-0.1016 -0.0085,-0.214489 0,-0.112889 -0.0028,-0.242712 -0.0028,-0.129823 -0.0028,-0.279401 0,-0.1524 0,-0.335846 0,-0.155222 0,-0.270934 0.0028,-0.115711 0.0085,-0.200378 h -0.115712 q -0.118534,0 -0.203201,-0.0028 -0.08184,-0.0028 -0.135467,-0.01411 -0.05362,-0.01411 -0.07902,-0.04233 -0.02258,-0.02822 -0.02258,-0.07902 0,-0.0254 0.0056,-0.04515 0.0056,-0.02258 0.0254,-0.03951 0.01976,-0.01976 0.05362,-0.03104 0.03669,-0.01129 0.09313,-0.01693 0.05362,-0.0028 0.09596,-0.0056 0.04233,-0.0028 0.08467,-0.0056 0.04233,-0.0028 0.08749,-0.0028 0.04516,0 0.104422,0 0.166512,0 0.313268,0.0028 0.149578,0.0028 0.31609,0.01129 0.06773,0.0056 0.104422,0.01693 0.03669,0.0085 0.05644,0.0254 0.01976,0.01693 0.02258,0.03951 0.0056,0.02258 0.0056,0.0508 0,0.0508 -0.03669,0.08467 -0.03387,0.03387 -0.149578,0.03951 z"
       style="font-style:normal;font-variant:normal;font-weight:normal;font-stretch:normal;font-size:2.82223153px;font-family:Sniglet;-inkscape-font-specification:'Sniglet, Normal';font-variant-ligatures:normal;font-variant-caps:normal;font-variant-numeric:normal;font-feature-settings:normal;text-align:start;writing-mode:lr-tb;text-anchor:start;stroke-width:0.26458421"
       id="path1034" />
    <path
       d="m 71.900097,25.746166 q -0.03951,0.0028 -0.08184,0.0056 -0.03951,0 -0.08185,0 -0.04798,0 -0.09596,0 -0.04798,0 -0.107245,-0.0056 v 0.572913 q 0,0.09031 -0.04516,0.11289 -0.04233,0.01975 -0.107245,0.01975 -0.03387,0 -0.05362,-0.0056 -0.01976,-0.0028 -0.03387,-0.01411 -0.01129,-0.01411 -0.01976,-0.03951 -0.0056,-0.0254 -0.0085,-0.07055 -0.0056,-0.0508 -0.0085,-0.146756 -0.0028,-0.09878 -0.0056,-0.254001 0,-0.155223 -0.0028,-0.375357 0,-0.222956 0,-0.522113 0,-0.115711 0.02822,-0.222956 0.02822,-0.110067 0.101601,-0.191912 0.07338,-0.08467 0.197556,-0.135467 0.127,-0.0508 0.321734,-0.0508 0.13829,0 0.268112,0.03104 0.132645,0.03105 0.234245,0.107245 0.101601,0.0762 0.16369,0.206023 0.06209,0.129823 0.06209,0.324557 0,0.259645 -0.112889,0.403579 -0.110067,0.141111 -0.304801,0.200378 l 0.378179,0.519291 q 0.0508,0.06773 0.0508,0.138289 0,0.05645 -0.03951,0.08749 -0.03669,0.03387 -0.09313,0.03387 -0.06209,0 -0.107245,-0.03387 -0.04516,-0.03669 -0.08467,-0.09313 z m 0.443091,-0.657579 q 0,-0.194734 -0.118534,-0.287868 -0.115711,-0.09596 -0.369712,-0.09596 -0.09313,0 -0.155223,0.01693 -0.06209,0.01411 -0.09878,0.05645 -0.03669,0.04233 -0.05362,0.118534 -0.01411,0.07338 -0.01411,0.189089 0,0.08184 0,0.191912 0,0.110067 0.0028,0.200378 0.06491,0.0028 0.143933,0.0028 0.08185,0 0.152401,0 0.07902,0 0.166512,-0.0085 0.09031,-0.01129 0.166511,-0.0508 0.0762,-0.04233 0.127001,-0.118534 0.0508,-0.07902 0.0508,-0.214489 z"
       style="font-style:normal;font-variant:normal;font-weight:normal;font-stretch:normal;font-size:2.82223153px;font-family:Sniglet;-inkscape-font-specification:'Sniglet, Normal';font-variant-ligatures:normal;font-variant-caps:normal;font-variant-numeric:normal;font-feature-settings:normal;text-align:start;writing-mode:lr-tb;text-anchor:start;stroke-width:0.26458421"
       id="path1036" />
    <path
       d="m 72.916586,26.265457 q -0.0056,-0.1016 -0.0085,-0.211667 0,-0.110067 -0.0028,-0.237068 -0.0028,-0.127 -0.0028,-0.273756 0,-0.149578 0,-0.333024 0,-0.200378 0.0028,-0.34149 0.0028,-0.143933 0.01693,-0.234245 0.01411,-0.09031 0.04233,-0.132645 0.03104,-0.04233 0.08184,-0.04233 0.0254,0 0.04798,0.0056 0.02258,0.0056 0.03951,0.0254 0.01693,0.01693 0.02822,0.05362 0.01411,0.03387 0.01693,0.09031 0.0056,0.101601 0.0085,0.180623 0.0028,0.07902 0.0056,0.158045 0.0028,0.0762 0.0028,0.160867 0,0.08184 0,0.186267 0,0.127001 0,0.242712 0,0.115712 -0.0028,0.228601 -0.0028,0.112889 -0.0056,0.228601 -0.0028,0.115711 -0.0085,0.242712 -0.0028,0.06773 -0.01411,0.104422 -0.01129,0.03669 -0.02822,0.05645 -0.01693,0.01976 -0.03951,0.02258 -0.02258,0.0056 -0.0508,0.0056 -0.0508,0 -0.08749,-0.03387 -0.03669,-0.03669 -0.04233,-0.152401 z"
       style="font-style:normal;font-variant:normal;font-weight:normal;font-stretch:normal;font-size:2.82223153px;font-family:Sniglet;-inkscape-font-specification:'Sniglet, Normal';font-variant-ligatures:normal;font-variant-caps:normal;font-variant-numeric:normal;font-feature-settings:normal;text-align:start;writing-mode:lr-tb;text-anchor:start;stroke-width:0.26458421"
       id="path1038" />
  </g>
</svg>
