<?xml version="1.0" encoding="UTF-8" standalone="no"?>
<svg
   xmlns:dc="http://purl.org/dc/elements/1.1/"
   xmlns:cc="http://creativecommons.org/ns#"
   xmlns:rdf="http://www.w3.org/1999/02/22-rdf-syntax-ns#"
   xmlns:svg="http://www.w3.org/2000/svg"
   xmlns="http://www.w3.org/2000/svg"
   xmlns:sodipodi="http://sodipodi.sourceforge.net/DTD/sodipodi-0.dtd"
   xmlns:inkscape="http://www.inkscape.org/namespaces/inkscape"
   width="285"
   height="380"
   viewBox="0 0 75.406529 100.542"
   version="1.1"
   id="svg136"
   sodipodi:docname="MidiFile.svg"
   inkscape:version="0.92.3 (2405546, 2018-03-11)">
  <metadata
     id="metadata140">
    <rdf:RDF>
      <cc:Work
         rdf:about="">
        <dc:format>image/svg+xml</dc:format>
        <dc:type
           rdf:resource="http://purl.org/dc/dcmitype/StillImage" />
        <dc:title />
      </cc:Work>
    </rdf:RDF>
  </metadata>
  <sodipodi:namedview
     pagecolor="#ffffff"
     bordercolor="#666666"
     borderopacity="1"
     objecttolerance="10"
     gridtolerance="10"
     guidetolerance="10"
     inkscape:pageopacity="0"
     inkscape:pageshadow="2"
     inkscape:window-width="1920"
     inkscape:window-height="1017"
     id="namedview138"
     showgrid="false"
     inkscape:zoom="4.2474114"
     inkscape:cx="145.41073"
     inkscape:cy="211.44207"
     inkscape:window-x="-8"
     inkscape:window-y="-8"
     inkscape:window-maximized="1"
     inkscape:current-layer="svg136" />
  <defs
     id="defs62">
    <filter
       height="1"
       width="1"
       y="0"
       x="0"
       filterUnits="objectBoundingBox"
       id="a">
      <feColorMatrix
         values="0 0 0 0 1 0 0 0 0 1 0 0 0 0 1 0 0 0 1 0"
         in="SourceGraphic"
         id="feColorMatrix2" />
    </filter>
    <filter
       height="1"
       width="1"
       y="0"
       x="0"
       filterUnits="objectBoundingBox"
       id="b">
      <feColorMatrix
         values="0 0 0 0 1 0 0 0 0 1 0 0 0 0 1 0 0 0 1 0"
         in="SourceGraphic"
         id="feColorMatrix5" />
    </filter>
    <filter
       height="1"
       width="1"
       y="0"
       x="0"
       filterUnits="objectBoundingBox"
       id="c">
      <feColorMatrix
         values="0 0 0 0 1 0 0 0 0 1 0 0 0 0 1 0 0 0 1 0"
         in="SourceGraphic"
         id="feColorMatrix8" />
    </filter>
    <filter
       height="1"
       width="1"
       y="0"
       x="0"
       filterUnits="objectBoundingBox"
       id="d">
      <feColorMatrix
         values="0 0 0 0 1 0 0 0 0 1 0 0 0 0 1 0 0 0 1 0"
         in="SourceGraphic"
         id="feColorMatrix11" />
    </filter>
    <filter
       height="1"
       width="1"
       y="0"
       x="0"
       filterUnits="objectBoundingBox"
       id="e">
      <feColorMatrix
         values="0 0 0 0 1 0 0 0 0 1 0 0 0 0 1 0 0 0 1 0"
         in="SourceGraphic"
         id="feColorMatrix14" />
    </filter>
    <filter
       height="1"
       width="1"
       y="0"
       x="0"
       filterUnits="objectBoundingBox"
       id="f">
      <feColorMatrix
         values="0 0 0 0 1 0 0 0 0 1 0 0 0 0 1 0 0 0 1 0"
         in="SourceGraphic"
         id="feColorMatrix17" />
    </filter>
    <filter
       height="1"
       width="1"
       y="0"
       x="0"
       filterUnits="objectBoundingBox"
       id="g">
      <feColorMatrix
         values="0 0 0 0 1 0 0 0 0 1 0 0 0 0 1 0 0 0 1 0"
         in="SourceGraphic"
         id="feColorMatrix20" />
    </filter>
    <filter
       height="1"
       width="1"
       y="0"
       x="0"
       filterUnits="objectBoundingBox"
       id="h">
      <feColorMatrix
         values="0 0 0 0 1 0 0 0 0 1 0 0 0 0 1 0 0 0 1 0"
         in="SourceGraphic"
         id="feColorMatrix23" />
    </filter>
    <filter
       height="1"
       width="1"
       y="0"
       x="0"
       filterUnits="objectBoundingBox"
       id="i">
      <feColorMatrix
         values="0 0 0 0 1 0 0 0 0 1 0 0 0 0 1 0 0 0 1 0"
         in="SourceGraphic"
         id="feColorMatrix26" />
    </filter>
    <filter
       height="1"
       width="1"
       y="0"
       x="0"
       filterUnits="objectBoundingBox"
       id="j">
      <feColorMatrix
         values="0 0 0 0 1 0 0 0 0 1 0 0 0 0 1 0 0 0 1 0"
         in="SourceGraphic"
         id="feColorMatrix29" />
    </filter>
    <filter
       height="1"
       width="1"
       y="0"
       x="0"
       filterUnits="objectBoundingBox"
       id="k">
      <feColorMatrix
         values="0 0 0 0 1 0 0 0 0 1 0 0 0 0 1 0 0 0 1 0"
         in="SourceGraphic"
         id="feColorMatrix32" />
    </filter>
    <filter
       height="1"
       width="1"
       y="0"
       x="0"
       filterUnits="objectBoundingBox"
       id="l">
      <feColorMatrix
         values="0 0 0 0 1 0 0 0 0 1 0 0 0 0 1 0 0 0 1 0"
         in="SourceGraphic"
         id="feColorMatrix35" />
    </filter>
    <filter
       height="1"
       width="1"
       y="0"
       x="0"
       filterUnits="objectBoundingBox"
       id="m">
      <feColorMatrix
         values="0 0 0 0 1 0 0 0 0 1 0 0 0 0 1 0 0 0 1 0"
         in="SourceGraphic"
         id="feColorMatrix38" />
    </filter>
    <filter
       height="1"
       width="1"
       y="0"
       x="0"
       filterUnits="objectBoundingBox"
       id="n">
      <feColorMatrix
         values="0 0 0 0 1 0 0 0 0 1 0 0 0 0 1 0 0 0 1 0"
         in="SourceGraphic"
         id="feColorMatrix41" />
    </filter>
    <filter
       height="1"
       width="1"
       y="0"
       x="0"
       filterUnits="objectBoundingBox"
       id="o">
      <feColorMatrix
         values="0 0 0 0 1 0 0 0 0 1 0 0 0 0 1 0 0 0 1 0"
         in="SourceGraphic"
         id="feColorMatrix44" />
    </filter>
    <filter
       height="1"
       width="1"
       y="0"
       x="0"
       filterUnits="objectBoundingBox"
       id="p">
      <feColorMatrix
         values="0 0 0 0 1 0 0 0 0 1 0 0 0 0 1 0 0 0 1 0"
         in="SourceGraphic"
         id="feColorMatrix47" />
    </filter>
    <filter
       height="1"
       width="1"
       y="0"
       x="0"
       filterUnits="objectBoundingBox"
       id="q">
      <feColorMatrix
         values="0 0 0 0 1 0 0 0 0 1 0 0 0 0 1 0 0 0 1 0"
         in="SourceGraphic"
         id="feColorMatrix50" />
    </filter>
    <filter
       height="1"
       width="1"
       y="0"
       x="0"
       filterUnits="objectBoundingBox"
       id="r">
      <feColorMatrix
         values="0 0 0 0 1 0 0 0 0 1 0 0 0 0 1 0 0 0 1 0"
         in="SourceGraphic"
         id="feColorMatrix53" />
    </filter>
    <filter
       height="1"
       width="1"
       y="0"
       x="0"
       filterUnits="objectBoundingBox"
       id="s">
      <feColorMatrix
         values="0 0 0 0 1 0 0 0 0 1 0 0 0 0 1 0 0 0 1 0"
         in="SourceGraphic"
         id="feColorMatrix56" />
    </filter>
    <filter
       height="1"
       width="1"
       y="0"
       x="0"
       filterUnits="objectBoundingBox"
       id="t">
      <feColorMatrix
         values="0 0 0 0 1 0 0 0 0 1 0 0 0 0 1 0 0 0 1 0"
         in="SourceGraphic"
         id="feColorMatrix59" />
    </filter>
  </defs>
  <path
     style="fill:#dcdcdc;stroke-width:1"
     inkscape:connector-curvature="0"
     id="path64"
     d="M 0,0 H 75.406516 V 100.541 H 0 Z m 0,0" />
  <text
     id="text66"
     word-spacing="0"
     letter-spacing="0"
     font-size="10.583"
     font-weight="400"
     y="59.389"
     x="70.710999"
     style="font-weight:400;font-size:10.58300018px;line-height:1.25;font-family:sans-serif;letter-spacing:0;word-spacing:0;stroke-width:0.26499999" />
  <rect
     style="fill:#999999;stroke-width:1;paint-order:stroke markers fill"
     id="rect68"
     rx="2.3399994"
     ry="2.3400002"
     y="58.004944"
     x="2.8645167"
     height="32.01561"
     width="46.540455" />
  <g
     style="font-weight:400;letter-spacing:0;word-spacing:0;fill:#333333"
     id="g78"
     word-spacing="0"
     letter-spacing="0"
     font-weight="400"
     transform="translate(-22.574168,-161.307)">
    <g
       id="g72"
       style="line-height:1.25">
      <path
         inkscape:connector-curvature="0"
         id="path70"
         aria-label="♫"
         font-size="3.528"
         d="m 68.745,258.177 -1.63,0.115 v -2.06 q 0,-0.23 0.065,-0.333 0.063,-0.104 0.22,-0.147 0.153,-0.043 0.347,-0.002 0.224,0.047 0.357,0.19 0.133,0.146 0.133,0.33 0,0.186 -0.158,0.286 -0.158,0.103 -0.407,0.05 -0.082,-0.018 -0.144,-0.044 -0.063,-0.027 -0.205,-0.11 v 1.345 l 1.22,-0.085 v -1.554 q 0,-0.225 0.065,-0.337 0.065,-0.11 0.225,-0.151 0.16,-0.04 0.348,0 0.224,0.047 0.355,0.19 0.129,0.14 0.129,0.325 0,0.195 -0.156,0.294 -0.156,0.1 -0.407,0.047 -0.16,-0.034 -0.357,-0.16 z"
         style="font-size:3.52800012px;font-family:Arial;-inkscape-font-specification:'Arial, Normal';font-variant-ligatures:normal;font-variant-caps:normal;font-variant-numeric:normal;font-feature-settings:normal;text-align:start;stroke-width:0.234" />
    </g>
    <g
       id="g76"
       font-size="3.528"
       style="font-size:3.52800012px;line-height:1.25;font-family:Sniglet;stroke-width:0.26499999"
       aria-label="IMPROMPT">
      <path
         inkscape:connector-curvature="0"
         id="path74"
         style="-inkscape-font-specification:'Sniglet, Normal';font-variant-ligatures:normal;font-variant-caps:normal;font-variant-numeric:normal;font-feature-settings:normal;text-align:start"
         d="m 50.727,258.005 q -0.007,-0.127 -0.01,-0.265 0,-0.137 -0.004,-0.296 -0.004,-0.159 -0.004,-0.342 v -0.417 q 0,-0.25 0.004,-0.426 0.003,-0.18 0.02,-0.293 0.018,-0.113 0.054,-0.166 0.038,-0.053 0.102,-0.053 0.032,0 0.06,0.007 0.028,0.007 0.05,0.032 0.02,0.02 0.035,0.067 0.017,0.042 0.02,0.113 0.008,0.127 0.011,0.225 l 0.007,0.198 q 0.004,0.095 0.004,0.201 v 0.536 q 0,0.145 -0.004,0.286 l -0.007,0.286 q -0.003,0.144 -0.01,0.303 -0.004,0.085 -0.018,0.13 -0.014,0.047 -0.035,0.071 -0.021,0.025 -0.05,0.028 -0.028,0.007 -0.063,0.007 -0.064,0 -0.11,-0.042 -0.045,-0.046 -0.052,-0.19 z m 1.753,-0.381 q -0.162,-0.357 -0.289,-0.688 -0.123,-0.335 -0.211,-0.596 -0.082,0.437 -0.138,0.882 -0.053,0.444 -0.138,0.85 -0.02,0.092 -0.077,0.123 -0.057,0.028 -0.096,0.028 -0.063,0 -0.102,-0.038 -0.035,-0.04 -0.035,-0.1 0,-0.08 0.018,-0.246 0.02,-0.17 0.049,-0.381 0.032,-0.212 0.07,-0.445 l 0.078,-0.448 q 0.042,-0.218 0.078,-0.395 0.039,-0.176 0.067,-0.271 0.046,-0.163 0.187,-0.163 0.084,0 0.144,0.085 0.06,0.081 0.127,0.254 0.07,0.17 0.166,0.43 0.099,0.262 0.254,0.614 0.152,-0.352 0.244,-0.61 l 0.158,-0.43 q 0.067,-0.173 0.127,-0.254 0.06,-0.085 0.149,-0.085 0.08,0 0.123,0.042 0.042,0.039 0.063,0.12 0.025,0.099 0.06,0.275 0.036,0.173 0.075,0.388 0.042,0.212 0.08,0.445 0.04,0.233 0.071,0.444 0.032,0.212 0.05,0.385 0.02,0.17 0.02,0.261 0,0.056 -0.038,0.092 -0.039,0.031 -0.099,0.031 -0.039,0 -0.095,-0.028 -0.057,-0.032 -0.078,-0.123 -0.042,-0.201 -0.077,-0.417 l -0.064,-0.433 -0.056,-0.441 q -0.028,-0.223 -0.06,-0.441 -0.046,0.14 -0.106,0.31 -0.06,0.17 -0.127,0.342 -0.067,0.17 -0.138,0.335 -0.07,0.166 -0.137,0.3 -0.025,0.046 -0.067,0.07 -0.039,0.022 -0.081,0.022 -0.046,0 -0.089,-0.021 -0.038,-0.025 -0.06,-0.074 z m 2.005,0.377 q 0,0.085 -0.017,0.13 -0.014,0.047 -0.039,0.071 -0.021,0.025 -0.053,0.029 -0.028,0.007 -0.056,0.007 -0.096,0 -0.127,-0.043 -0.029,-0.042 -0.04,-0.19 -0.006,-0.078 -0.01,-0.226 l -0.007,-0.353 q 0,-0.204 -0.003,-0.451 v -0.522 q 0,-0.131 0.031,-0.265 0.032,-0.134 0.12,-0.243 0.092,-0.11 0.25,-0.177 0.163,-0.067 0.42,-0.067 0.18,0 0.343,0.039 0.162,0.039 0.286,0.134 0.123,0.095 0.197,0.254 0.074,0.159 0.074,0.395 0,0.247 -0.081,0.41 -0.081,0.162 -0.23,0.257 -0.147,0.095 -0.352,0.134 -0.205,0.039 -0.448,0.039 h -0.12 q -0.06,0 -0.134,-0.007 z m 1.016,-1.485 q 0,-0.236 -0.134,-0.356 -0.13,-0.12 -0.437,-0.12 -0.117,0 -0.201,0.021 -0.081,0.018 -0.134,0.067 -0.053,0.046 -0.081,0.127 -0.025,0.081 -0.025,0.205 v 0.275 q 0,0.151 0.003,0.286 0.082,0.004 0.18,0.004 h 0.19 q 0.107,0 0.22,-0.015 0.116,-0.014 0.208,-0.063 0.091,-0.053 0.151,-0.152 0.06,-0.102 0.06,-0.278 z m 1.452,0.84 -0.103,0.007 h -0.222 q -0.06,0 -0.134,-0.007 v 0.716 q 0,0.113 -0.056,0.14 -0.053,0.026 -0.135,0.026 -0.042,0 -0.067,-0.007 -0.024,-0.004 -0.042,-0.018 -0.014,-0.018 -0.025,-0.05 -0.007,-0.031 -0.01,-0.088 -0.007,-0.063 -0.01,-0.183 l -0.008,-0.318 q 0,-0.194 -0.003,-0.469 v -0.652 q 0,-0.145 0.035,-0.279 0.035,-0.138 0.127,-0.24 0.092,-0.106 0.247,-0.17 0.159,-0.063 0.402,-0.063 0.173,0 0.335,0.039 0.166,0.039 0.293,0.134 0.127,0.095 0.205,0.258 0.077,0.162 0.077,0.405 0,0.325 -0.14,0.505 -0.138,0.176 -0.382,0.25 l 0.473,0.65 q 0.063,0.084 0.063,0.172 0,0.07 -0.05,0.11 -0.045,0.042 -0.115,0.042 -0.078,0 -0.135,-0.042 -0.056,-0.046 -0.105,-0.117 z m 0.553,-0.822 q 0,-0.244 -0.148,-0.36 -0.144,-0.12 -0.462,-0.12 -0.116,0 -0.194,0.021 -0.077,0.018 -0.123,0.07 -0.046,0.054 -0.067,0.149 -0.018,0.091 -0.018,0.236 v 0.24 q 0,0.138 0.003,0.25 0.082,0.005 0.18,0.005 h 0.19 q 0.1,0 0.209,-0.011 0.113,-0.014 0.208,-0.064 0.095,-0.052 0.159,-0.148 0.063,-0.099 0.063,-0.268 z m 1.61,1.725 q -0.212,0 -0.399,-0.085 -0.183,-0.085 -0.32,-0.243 -0.139,-0.163 -0.22,-0.395 -0.077,-0.233 -0.077,-0.53 0,-0.278 0.067,-0.511 0.07,-0.233 0.204,-0.402 0.138,-0.17 0.339,-0.261 0.201,-0.096 0.466,-0.096 0.215,0 0.409,0.078 0.194,0.078 0.339,0.233 0.148,0.155 0.232,0.388 0.085,0.233 0.085,0.543 0,0.258 -0.07,0.49 -0.067,0.233 -0.209,0.41 -0.137,0.173 -0.349,0.278 -0.212,0.103 -0.497,0.103 z m 0.007,-0.332 q 0.194,0 0.338,-0.077 0.145,-0.082 0.24,-0.212 0.096,-0.13 0.141,-0.3 0.046,-0.173 0.046,-0.353 0,-0.218 -0.06,-0.388 -0.056,-0.173 -0.155,-0.29 -0.099,-0.115 -0.23,-0.175 -0.13,-0.064 -0.278,-0.064 -0.176,0 -0.31,0.074 -0.13,0.074 -0.223,0.201 -0.088,0.127 -0.134,0.3 -0.045,0.17 -0.045,0.363 0,0.209 0.052,0.381 0.053,0.17 0.142,0.29 0.091,0.12 0.215,0.187 0.123,0.063 0.26,0.063 z m 2.384,-0.303 q -0.163,-0.357 -0.29,-0.688 -0.123,-0.335 -0.211,-0.596 -0.081,0.437 -0.138,0.882 -0.053,0.444 -0.137,0.85 -0.022,0.092 -0.078,0.123 -0.057,0.028 -0.095,0.028 -0.064,0 -0.103,-0.038 -0.035,-0.04 -0.035,-0.1 0,-0.08 0.018,-0.246 0.02,-0.17 0.05,-0.381 0.03,-0.212 0.07,-0.445 0.038,-0.232 0.077,-0.448 l 0.078,-0.395 q 0.039,-0.176 0.067,-0.271 0.046,-0.163 0.187,-0.163 0.085,0 0.145,0.085 0.06,0.081 0.127,0.254 0.07,0.17 0.165,0.43 0.1,0.262 0.254,0.614 0.152,-0.352 0.244,-0.61 l 0.158,-0.43 q 0.068,-0.173 0.127,-0.254 0.06,-0.085 0.149,-0.085 0.08,0 0.123,0.042 0.042,0.039 0.064,0.12 0.024,0.099 0.06,0.275 0.035,0.173 0.074,0.388 0.042,0.212 0.08,0.445 0.04,0.233 0.071,0.444 0.032,0.212 0.05,0.385 0.02,0.17 0.02,0.261 0,0.056 -0.038,0.092 -0.039,0.031 -0.099,0.031 -0.038,0 -0.095,-0.028 -0.056,-0.032 -0.078,-0.123 -0.042,-0.201 -0.077,-0.417 l -0.064,-0.433 -0.056,-0.441 q -0.028,-0.223 -0.06,-0.441 -0.046,0.14 -0.106,0.31 -0.06,0.17 -0.127,0.342 -0.067,0.17 -0.137,0.335 -0.071,0.166 -0.138,0.3 -0.025,0.046 -0.067,0.07 -0.039,0.022 -0.081,0.022 -0.046,0 -0.088,-0.021 -0.04,-0.025 -0.06,-0.074 z m 2.005,0.377 q 0,0.085 -0.018,0.13 -0.014,0.047 -0.039,0.071 -0.021,0.025 -0.053,0.029 -0.028,0.007 -0.056,0.007 -0.096,0 -0.127,-0.043 -0.028,-0.042 -0.04,-0.19 -0.006,-0.078 -0.01,-0.226 l -0.007,-0.353 q 0,-0.204 -0.003,-0.451 v -0.522 q 0,-0.131 0.032,-0.265 0.031,-0.134 0.12,-0.243 0.091,-0.11 0.25,-0.177 0.162,-0.067 0.42,-0.067 0.18,0 0.342,0.039 0.162,0.039 0.286,0.134 0.123,0.095 0.197,0.254 0.074,0.159 0.074,0.395 0,0.247 -0.08,0.41 -0.082,0.162 -0.23,0.257 -0.148,0.095 -0.353,0.134 -0.205,0.039 -0.448,0.039 h -0.12 q -0.06,0 -0.134,-0.007 z m 1.016,-1.485 q 0,-0.236 -0.135,-0.356 -0.13,-0.12 -0.437,-0.12 -0.116,0 -0.201,0.021 -0.081,0.018 -0.134,0.067 -0.053,0.046 -0.081,0.127 -0.025,0.081 -0.025,0.205 v 0.275 q 0,0.151 0.004,0.286 0.08,0.004 0.18,0.004 h 0.19 q 0.106,0 0.219,-0.015 0.116,-0.014 0.208,-0.063 0.092,-0.053 0.152,-0.152 0.06,-0.102 0.06,-0.278 z m 1.974,-0.437 q -0.1,0.007 -0.212,0.01 l -0.243,0.007 0.007,0.18 0.007,0.166 q 0.003,0.085 0.003,0.176 0.004,0.092 0.004,0.205 v 0.307 q 0,0.144 -0.004,0.293 l -0.007,0.292 q -0.003,0.149 -0.01,0.307 -0.004,0.085 -0.018,0.13 -0.01,0.047 -0.032,0.072 -0.02,0.024 -0.05,0.028 -0.027,0.007 -0.063,0.007 -0.063,0 -0.109,-0.043 -0.042,-0.045 -0.05,-0.19 -0.007,-0.127 -0.01,-0.268 0,-0.141 -0.003,-0.304 -0.004,-0.162 -0.004,-0.349 v -0.42 -0.338 q 0.004,-0.145 0.01,-0.25 h -0.144 q -0.148,0 -0.254,-0.005 -0.102,-0.004 -0.17,-0.017 -0.066,-0.018 -0.098,-0.053 -0.028,-0.036 -0.028,-0.1 0,-0.03 0.007,-0.055 0.007,-0.029 0.031,-0.05 0.025,-0.025 0.067,-0.039 0.046,-0.014 0.117,-0.02 l 0.12,-0.008 0.106,-0.007 q 0.053,-0.004 0.109,-0.004 h 0.13 q 0.209,0 0.392,0.004 0.187,0.004 0.395,0.014 0.085,0.007 0.13,0.021 0.047,0.011 0.071,0.032 0.025,0.021 0.029,0.05 0.007,0.028 0.007,0.063 0,0.064 -0.046,0.106 -0.043,0.042 -0.187,0.05 z" />
    </g>
  </g>
  <path
     style="fill:none;stroke:#000000;stroke-width:0.132"
     inkscape:connector-curvature="0"
     id="path80"
     d="m 67.618091,57.258209 v -3.039" />
  <g
     id="g120"
     word-spacing="0"
     letter-spacing="0"
     font-size="2.822"
     font-weight="400"
     style="font-weight:400;font-size:2.82200003px;line-height:1.25;font-family:Sniglet;letter-spacing:0;word-spacing:0;stroke-width:0.26499999"
     aria-label="RESET"
     transform="translate(-8.7374905,-195.65228)">
    <path
       inkscape:connector-curvature="0"
       id="path118"
       style="-inkscape-font-specification:'Sniglet, Normal';font-variant-ligatures:normal;font-variant-caps:normal;font-variant-numeric:normal;font-feature-settings:normal;text-align:start"
       d="m 30.856,233.289 -0.082,0.006 h -0.178 q -0.048,0 -0.107,-0.006 v 0.573 q 0,0.09 -0.045,0.113 -0.042,0.02 -0.107,0.02 -0.034,0 -0.054,-0.006 -0.02,-0.003 -0.034,-0.015 -0.011,-0.014 -0.02,-0.04 -0.005,-0.024 -0.008,-0.07 -0.006,-0.05 -0.008,-0.146 l -0.006,-0.254 q 0,-0.156 -0.003,-0.376 v -0.522 q 0,-0.116 0.028,-0.223 0.029,-0.11 0.102,-0.192 0.073,-0.084 0.197,-0.135 0.127,-0.051 0.322,-0.051 0.139,0 0.268,0.031 0.133,0.031 0.235,0.107 0.101,0.076 0.163,0.206 0.062,0.13 0.062,0.325 0,0.26 -0.113,0.403 -0.11,0.142 -0.304,0.2 l 0.378,0.52 q 0.05,0.068 0.05,0.138 0,0.057 -0.039,0.088 -0.037,0.034 -0.093,0.034 -0.062,0 -0.107,-0.034 -0.045,-0.037 -0.085,-0.093 z m 0.443,-0.658 q 0,-0.194 -0.118,-0.288 -0.116,-0.096 -0.37,-0.096 -0.093,0 -0.155,0.017 -0.062,0.014 -0.1,0.057 -0.036,0.042 -0.053,0.118 -0.014,0.074 -0.014,0.19 v 0.191 q 0,0.11 0.003,0.2 0.065,0.004 0.144,0.004 h 0.152 q 0.08,0 0.167,-0.008 0.09,-0.012 0.166,-0.051 0.077,-0.042 0.127,-0.119 0.051,-0.079 0.051,-0.214 z m 0.548,0.923 -0.011,-0.245 q -0.006,-0.156 -0.006,-0.32 v -0.191 l 0.006,-0.206 q 0.005,-0.209 0.025,-0.328 0.023,-0.118 0.085,-0.177 0.065,-0.06 0.18,-0.074 0.116,-0.014 0.308,-0.014 h 0.06 q 0.059,0 0.14,0.003 0.082,0 0.17,0.003 l 0.15,0.006 q 0.062,0.006 0.098,0.017 0.04,0.008 0.06,0.025 0.02,0.015 0.025,0.037 0.006,0.02 0.006,0.045 0,0.065 -0.037,0.096 -0.037,0.029 -0.15,0.037 -0.056,0.006 -0.166,0.008 h -0.22 q -0.113,0 -0.204,0.003 h -0.112 q -0.074,0.003 -0.105,0.034 -0.028,0.028 -0.028,0.138 l 0.003,0.124 q 0.005,0.096 0.005,0.271 h 0.235 q 0.15,0 0.242,0.006 0.096,0.003 0.147,0.017 0.054,0.014 0.073,0.045 0.02,0.031 0.02,0.082 0,0.026 -0.005,0.048 -0.003,0.02 -0.023,0.037 -0.02,0.014 -0.057,0.025 -0.036,0.008 -0.104,0.014 -0.082,0.006 -0.155,0.008 h -0.378 v 0.345 q 0.002,0.06 0.005,0.096 0.003,0.045 0.012,0.076 0.01,0.03 0.036,0.05 0.028,0.02 0.08,0.029 0.053,0.008 0.14,0.008 h 0.607 q 0.099,0 0.124,0.037 0.026,0.036 0.026,0.098 0,0.051 -0.023,0.08 -0.022,0.025 -0.11,0.036 -0.085,0.014 -0.257,0.017 -0.17,0.003 -0.468,0.003 -0.127,0 -0.21,-0.023 -0.08,-0.022 -0.132,-0.076 -0.05,-0.053 -0.076,-0.138 -0.022,-0.088 -0.03,-0.212 z m 2.221,-1.564 q 0.079,0 0.18,0.015 0.105,0.011 0.195,0.045 0.09,0.031 0.153,0.085 0.062,0.05 0.062,0.127 0,0.045 -0.026,0.076 -0.025,0.03 -0.082,0.03 -0.042,0 -0.087,-0.016 -0.042,-0.017 -0.099,-0.034 -0.054,-0.02 -0.127,-0.037 -0.07,-0.017 -0.166,-0.017 -0.187,0 -0.277,0.068 -0.088,0.065 -0.088,0.18 0,0.08 0.04,0.133 0.04,0.054 0.104,0.094 0.068,0.036 0.15,0.062 0.085,0.025 0.172,0.048 0.099,0.025 0.195,0.062 0.099,0.036 0.175,0.096 0.076,0.059 0.121,0.15 0.048,0.09 0.048,0.228 0,0.144 -0.053,0.26 -0.054,0.112 -0.147,0.194 -0.093,0.08 -0.223,0.124 -0.13,0.043 -0.282,0.043 -0.085,0 -0.198,-0.017 -0.113,-0.014 -0.214,-0.051 -0.102,-0.04 -0.173,-0.102 -0.07,-0.065 -0.07,-0.158 0,-0.056 0.028,-0.09 0.031,-0.034 0.09,-0.034 0.048,0 0.08,0.02 0.03,0.017 0.053,0.04 0.085,0.073 0.192,0.098 0.107,0.026 0.22,0.026 0.065,0 0.136,-0.008 0.073,-0.012 0.132,-0.043 0.06,-0.03 0.099,-0.087 0.04,-0.06 0.04,-0.158 0,-0.09 -0.037,-0.147 -0.034,-0.06 -0.093,-0.099 -0.06,-0.04 -0.141,-0.065 -0.08,-0.025 -0.173,-0.05 -0.104,-0.029 -0.206,-0.063 -0.101,-0.033 -0.18,-0.09 -0.08,-0.06 -0.13,-0.147 -0.048,-0.09 -0.048,-0.228 0,-0.138 0.05,-0.243 0.052,-0.104 0.14,-0.175 0.087,-0.07 0.205,-0.107 0.121,-0.037 0.26,-0.037 z m 0.971,1.564 q -0.006,-0.09 -0.012,-0.245 -0.005,-0.156 -0.005,-0.32 v -0.191 l 0.005,-0.206 q 0.006,-0.209 0.026,-0.328 0.022,-0.118 0.084,-0.177 0.065,-0.06 0.181,-0.074 0.116,-0.014 0.308,-0.014 h 0.059 q 0.06,0 0.141,0.003 0.082,0 0.17,0.003 l 0.149,0.006 q 0.062,0.006 0.099,0.017 0.04,0.008 0.059,0.025 0.02,0.015 0.025,0.037 0.006,0.02 0.006,0.045 0,0.065 -0.037,0.096 -0.036,0.029 -0.15,0.037 -0.056,0.006 -0.166,0.008 h -0.22 q -0.113,0 -0.203,0.003 h -0.113 q -0.073,0.003 -0.104,0.034 -0.029,0.028 -0.029,0.138 l 0.003,0.124 q 0.006,0.096 0.006,0.271 h 0.234 q 0.15,0 0.243,0.006 0.096,0.003 0.147,0.017 0.053,0.014 0.073,0.045 0.02,0.031 0.02,0.082 0,0.026 -0.006,0.048 -0.003,0.02 -0.023,0.037 -0.02,0.014 -0.056,0.025 -0.037,0.008 -0.104,0.014 -0.082,0.006 -0.156,0.008 h -0.378 v 0.345 l 0.006,0.096 q 0.003,0.045 0.011,0.076 0.011,0.03 0.037,0.05 0.028,0.02 0.079,0.029 0.053,0.008 0.14,0.008 h 0.608 q 0.098,0 0.124,0.037 0.025,0.036 0.025,0.098 0,0.051 -0.022,0.08 -0.023,0.025 -0.11,0.036 -0.085,0.014 -0.257,0.017 -0.17,0.003 -0.469,0.003 -0.127,0 -0.209,-0.023 -0.081,-0.022 -0.132,-0.076 -0.051,-0.053 -0.076,-0.138 -0.023,-0.088 -0.031,-0.212 z m 2.657,-1.287 q -0.079,0.006 -0.17,0.008 l -0.194,0.006 0.006,0.144 0.005,0.133 q 0.003,0.068 0.003,0.141 0.003,0.073 0.003,0.164 v 0.245 q 0,0.116 -0.003,0.234 l -0.006,0.235 q -0.002,0.118 -0.008,0.245 -0.003,0.068 -0.014,0.105 -0.009,0.036 -0.026,0.056 -0.017,0.02 -0.04,0.023 -0.022,0.006 -0.05,0.006 -0.05,0 -0.087,-0.034 -0.034,-0.037 -0.04,-0.153 -0.006,-0.101 -0.008,-0.214 0,-0.113 -0.003,-0.243 -0.003,-0.13 -0.003,-0.28 v -0.335 -0.271 q 0.003,-0.116 0.008,-0.2 h -0.115 q -0.119,0 -0.203,-0.003 -0.082,-0.003 -0.136,-0.015 -0.054,-0.014 -0.079,-0.042 -0.022,-0.028 -0.022,-0.079 0,-0.025 0.005,-0.045 0.006,-0.023 0.026,-0.04 0.02,-0.02 0.053,-0.03 0.037,-0.012 0.093,-0.017 l 0.096,-0.006 0.085,-0.006 q 0.042,-0.003 0.087,-0.003 h 0.105 q 0.166,0 0.313,0.003 0.15,0.003 0.316,0.01 0.068,0.007 0.105,0.018 0.036,0.008 0.056,0.025 0.02,0.017 0.023,0.04 0.005,0.022 0.005,0.05 0,0.051 -0.036,0.085 -0.034,0.034 -0.15,0.04 z" />
  </g>
  <g
     aria-label="MIDI-FILE"
     style="font-style:normal;font-weight:normal;font-size:10.58337021px;line-height:1.25;font-family:sans-serif;letter-spacing:0px;word-spacing:0px;fill:#000000;fill-opacity:1;stroke:none;stroke-width:0.26458427"
     id="text949">
    <path
       d="M 30.324797,5.8107997 Q 30.130063,5.3832315 29.977662,4.9852968 29.829495,4.5831287 29.723661,4.2698609 q -0.09737,0.5249352 -0.1651,1.0583371 -0.0635,0.5334019 -0.165101,1.020237 -0.0254,0.110067 -0.09313,0.1481672 -0.06773,0.033867 -0.1143,0.033867 -0.0762,0 -0.122767,-0.046567 -0.04233,-0.046567 -0.04233,-0.1185337 0,-0.097367 0.02117,-0.2963344 0.0254,-0.2032008 0.05927,-0.4572017 0.0381,-0.2540009 0.08467,-0.5334019 0.04657,-0.2794009 0.09313,-0.5376352 0.0508,-0.2624676 0.09313,-0.474135 0.04657,-0.2116674 0.08043,-0.3259678 0.05503,-0.1947341 0.224367,-0.1947341 0.101601,0 0.173568,0.1016004 0.07197,0.097367 0.1524,0.3048011 0.08467,0.2032007 0.198967,0.5164685 0.118534,0.3132678 0.304802,0.7366026 0.182034,-0.4233348 0.292101,-0.7323693 0.1143,-0.3132677 0.1905,-0.5164685 0.08043,-0.207434 0.152401,-0.3048011 0.07197,-0.1016003 0.1778,-0.1016003 0.09737,0 0.148168,0.0508 0.0508,0.046567 0.0762,0.1439338 0.02963,0.1185338 0.07197,0.3302012 0.04233,0.2074341 0.0889,0.4656683 0.0508,0.2540009 0.09737,0.5334019 0.04657,0.279401 0.08467,0.5334019 0.0381,0.2540009 0.05927,0.461435 0.0254,0.2032007 0.0254,0.3132677 0,0.067734 -0.04657,0.1100671 -0.04657,0.0381 -0.118533,0.0381 -0.04657,0 -0.114301,-0.033867 -0.06773,-0.0381 -0.09313,-0.1481672 -0.0508,-0.2413009 -0.09313,-0.4995351 -0.0381,-0.2582343 -0.0762,-0.5207019 Q 31.395834,5.0614971 31.361967,4.7990295 31.3281,4.5323285 31.29,4.2698609 q -0.05503,0.1693339 -0.127,0.3725347 -0.07197,0.2032007 -0.152401,0.4106348 -0.08043,0.2032007 -0.165101,0.4021681 -0.08467,0.1989673 -0.1651,0.3598346 -0.02963,0.055034 -0.08043,0.084667 -0.04657,0.0254 -0.09737,0.0254 -0.05503,0 -0.105833,-0.0254 -0.04657,-0.029633 -0.07197,-0.0889 z"
       style="font-style:normal;font-variant:normal;font-weight:normal;font-stretch:normal;font-size:4.23334837px;font-family:Sniglet;-inkscape-font-specification:'Sniglet, Normal';font-variant-ligatures:normal;font-variant-caps:normal;font-variant-numeric:normal;font-feature-settings:normal;text-align:start;writing-mode:lr-tb;text-anchor:start;stroke-width:0.26458427"
       id="path923" />
    <path
       d="m 32.370893,6.2680013 q -0.0085,-0.1524005 -0.0127,-0.3175011 0,-0.1651006 -0.0042,-0.3556012 -0.0042,-0.1905007 -0.0042,-0.4106348 0,-0.2243675 0,-0.4995351 0,-0.3005678 0.0042,-0.5122352 0.0042,-0.2159008 0.0254,-0.3513679 0.02117,-0.1354672 0.0635,-0.1989674 0.04657,-0.0635 0.122767,-0.0635 0.0381,0 0.07197,0.00847 0.03387,0.00847 0.05927,0.0381 0.0254,0.0254 0.04233,0.080434 0.02117,0.0508 0.0254,0.1354672 0.0085,0.1524005 0.0127,0.2709343 0.0042,0.1185337 0.0085,0.2370675 0.0042,0.1143004 0.0042,0.2413008 0,0.1227671 0,0.279401 0,0.1905007 0,0.364068 0,0.1735673 -0.0042,0.3429012 -0.0042,0.169334 -0.0085,0.3429012 -0.0042,0.1735673 -0.0127,0.364068 -0.0042,0.1016004 -0.02117,0.1566339 -0.01693,0.055034 -0.04233,0.084667 -0.0254,0.029633 -0.05927,0.033867 -0.03387,0.00847 -0.0762,0.00847 -0.0762,0 -0.131234,-0.0508 -0.05503,-0.055034 -0.0635,-0.2286009 z"
       style="font-style:normal;font-variant:normal;font-weight:normal;font-stretch:normal;font-size:4.23334837px;font-family:Sniglet;-inkscape-font-specification:'Sniglet, Normal';font-variant-ligatures:normal;font-variant-caps:normal;font-variant-numeric:normal;font-feature-settings:normal;text-align:start;writing-mode:lr-tb;text-anchor:start;stroke-width:0.26458427"
       id="path925" />
    <path
       d="m 34.208761,3.5374916 q 0.436035,0 0.698503,0.1312338 0.262467,0.1312338 0.402168,0.3471346 0.1397,0.2159008 0.182034,0.4910684 0.04657,0.2751677 0.04657,0.558802 0,0.3090344 -0.08043,0.5842021 -0.0762,0.2751676 -0.241301,0.4826017 -0.160867,0.2032007 -0.414868,0.3259678 -0.254001,0.1185338 -0.605369,0.1185338 -0.279401,0 -0.448735,-0.042333 -0.1651,-0.0381 -0.258234,-0.1185338 -0.0889,-0.080434 -0.118534,-0.2032007 -0.02963,-0.1227671 -0.02963,-0.2878677 v -1.591739 q 0,-0.1820339 0.02963,-0.3302011 0.03387,-0.1481672 0.127001,-0.2497676 0.09313,-0.1058337 0.262467,-0.1608672 0.173568,-0.055034 0.448735,-0.055034 z m 0.01693,2.6162093 q 0.262467,0 0.431801,-0.093134 0.173568,-0.097367 0.275168,-0.2540009 0.1016,-0.1566339 0.1397,-0.3556013 0.04233,-0.1989674 0.04233,-0.4064014 0,-0.1905007 -0.02963,-0.3810014 -0.02963,-0.194734 -0.122768,-0.3513679 -0.09313,-0.1566339 -0.266701,-0.2540009 -0.173567,-0.097367 -0.461435,-0.097367 -0.262467,0 -0.364067,0.0762 -0.101601,0.0762 -0.101601,0.2328341 v 1.6213724 q 0,0.1312338 0.09313,0.1989674 0.09737,0.0635 0.364068,0.0635 z"
       style="font-style:normal;font-variant:normal;font-weight:normal;font-stretch:normal;font-size:4.23334837px;font-family:Sniglet;-inkscape-font-specification:'Sniglet, Normal';font-variant-ligatures:normal;font-variant-caps:normal;font-variant-numeric:normal;font-feature-settings:normal;text-align:start;writing-mode:lr-tb;text-anchor:start;stroke-width:0.26458427"
       id="path928" />
    <path
       d="m 36.025463,6.2680013 q -0.0085,-0.1524005 -0.0127,-0.3175011 0,-0.1651006 -0.0042,-0.3556012 -0.0042,-0.1905007 -0.0042,-0.4106348 0,-0.2243675 0,-0.4995351 0,-0.3005678 0.0042,-0.5122352 0.0042,-0.2159008 0.0254,-0.3513679 0.02117,-0.1354672 0.0635,-0.1989674 0.04657,-0.0635 0.122767,-0.0635 0.0381,0 0.07197,0.00847 0.03387,0.00847 0.05927,0.0381 0.0254,0.0254 0.04233,0.080434 0.02117,0.0508 0.0254,0.1354672 0.0085,0.1524005 0.0127,0.2709343 0.0042,0.1185337 0.0085,0.2370675 0.0042,0.1143004 0.0042,0.2413008 0,0.1227671 0,0.279401 0,0.1905007 0,0.364068 0,0.1735673 -0.0042,0.3429012 -0.0042,0.169334 -0.0085,0.3429012 -0.0042,0.1735673 -0.0127,0.364068 -0.0042,0.1016004 -0.02117,0.1566339 -0.01693,0.055034 -0.04233,0.084667 -0.0254,0.029633 -0.05927,0.033867 -0.03387,0.00847 -0.0762,0.00847 -0.0762,0 -0.131234,-0.0508 -0.05503,-0.055034 -0.0635,-0.2286009 z"
       style="font-style:normal;font-variant:normal;font-weight:normal;font-stretch:normal;font-size:4.23334837px;font-family:Sniglet;-inkscape-font-specification:'Sniglet, Normal';font-variant-ligatures:normal;font-variant-caps:normal;font-variant-numeric:normal;font-feature-settings:normal;text-align:start;writing-mode:lr-tb;text-anchor:start;stroke-width:0.26458427"
       id="path930" />
    <path
       d="m 38.409433,5.4721318 q -0.194734,0.00847 -0.448734,0.016933 -0.254001,0.00423 -0.601136,0.00423 -0.143934,0 -0.245534,-0.00423 -0.101601,-0.00423 -0.165101,-0.021167 -0.0635,-0.021167 -0.09313,-0.0635 -0.02963,-0.042334 -0.02963,-0.1185338 0,-0.0381 0.0085,-0.067734 0.0085,-0.033867 0.0381,-0.059267 0.02963,-0.0254 0.08043,-0.042333 0.05503,-0.021167 0.1397,-0.029634 0.0635,-0.00423 0.110067,-0.00847 0.0508,-0.00423 0.09737,-0.00423 0.04657,-0.00423 0.09737,-0.00423 0.05503,0 0.127001,0 0.2286,0 0.440268,0.00423 0.211667,0 0.440268,0.0127 0.1016,0.00847 0.156634,0.0254 0.05503,0.0127 0.08467,0.0381 0.02963,0.0254 0.03387,0.059267 0.0085,0.033867 0.0085,0.0762 0,0.0762 -0.05503,0.1270005 -0.0508,0.0508 -0.224368,0.059267 z"
       style="font-style:normal;font-variant:normal;font-weight:normal;font-stretch:normal;font-size:4.23334837px;font-family:Sniglet;-inkscape-font-specification:'Sniglet, Normal';font-variant-ligatures:normal;font-variant-caps:normal;font-variant-numeric:normal;font-feature-settings:normal;text-align:start;writing-mode:lr-tb;text-anchor:start;stroke-width:0.26458427"
       id="path932" />
    <path
       d="m 39.029487,4.5619619 q 0,-0.3556012 0.0254,-0.5545686 0.0254,-0.2032007 0.105834,-0.3048011 0.08043,-0.1016003 0.228601,-0.1227671 0.148167,-0.0254 0.389468,-0.0254 0.135467,0 0.245534,0 0.110067,0 0.211667,0.00423 0.105834,0 0.207434,0.00423 0.105834,0.00423 0.228601,0.00847 0.1016,0.00847 0.156634,0.0254 0.05503,0.0127 0.08467,0.0381 0.02963,0.0254 0.03387,0.059267 0.0085,0.033867 0.0085,0.0762 0,0.0762 -0.05503,0.1270005 -0.0508,0.0508 -0.224368,0.059267 -0.105833,0.00423 -0.207434,0.00847 -0.09737,0.00423 -0.224367,0.00847 -0.122767,0 -0.279401,0.00423 -0.156634,0 -0.376768,0 -0.0762,0 -0.105834,0.055033 -0.02963,0.0508 -0.02963,0.1312338 0,0.0635 0,0.1270005 0.0042,0.0635 0.0042,0.1397004 0.0042,0.0762 0.0042,0.1735673 0.0042,0.093134 0.0042,0.2201341 0.156634,0 0.270934,0.00423 0.118534,0 0.203201,0.00423 0.0889,0 0.156634,0.00423 0.06773,0.00423 0.131233,0.00847 0.173568,0.00847 0.224368,0.059267 0.05503,0.0508 0.05503,0.1270004 0,0.042333 -0.0085,0.0762 -0.0042,0.033867 -0.03387,0.059267 -0.02963,0.0254 -0.08467,0.042333 -0.05503,0.016933 -0.156634,0.0254 -0.06773,0.00423 -0.131234,0.00847 -0.05927,0 -0.143934,0.00423 -0.08043,0 -0.194734,0 -0.1143,0 -0.287867,0 -0.0042,0.2540009 -0.0042,0.5207018 0.0042,0.2624676 -0.0127,0.5418686 -0.0085,0.1651006 -0.05927,0.2032007 -0.04657,0.033867 -0.143934,0.033867 -0.09313,0 -0.139701,-0.0381 -0.04657,-0.042333 -0.05503,-0.194734 -0.0085,-0.1354672 -0.0127,-0.2963344 0,-0.1651006 -0.0042,-0.3725347 -0.0042,-0.2116674 -0.0042,-0.474135 0,-0.2667009 0,-0.6096022 z"
       style="font-style:normal;font-variant:normal;font-weight:normal;font-stretch:normal;font-size:4.23334837px;font-family:Sniglet;-inkscape-font-specification:'Sniglet, Normal';font-variant-ligatures:normal;font-variant-caps:normal;font-variant-numeric:normal;font-feature-settings:normal;text-align:start;writing-mode:lr-tb;text-anchor:start;stroke-width:0.26458427"
       id="path934" />
    <path
       d="m 41.375027,6.2680013 q -0.0085,-0.1524005 -0.0127,-0.3175011 0,-0.1651006 -0.0042,-0.3556012 -0.0042,-0.1905007 -0.0042,-0.4106348 0,-0.2243675 0,-0.4995351 0,-0.3005678 0.0042,-0.5122352 0.0042,-0.2159008 0.0254,-0.3513679 0.02117,-0.1354672 0.0635,-0.1989674 0.04657,-0.0635 0.122767,-0.0635 0.0381,0 0.07197,0.00847 0.03387,0.00847 0.05927,0.0381 0.0254,0.0254 0.04233,0.080434 0.02117,0.0508 0.0254,0.1354672 0.0085,0.1524005 0.0127,0.2709343 0.0042,0.1185337 0.0085,0.2370675 0.0042,0.1143004 0.0042,0.2413008 0,0.1227671 0,0.279401 0,0.1905007 0,0.364068 0,0.1735673 -0.0042,0.3429012 -0.0042,0.169334 -0.0085,0.3429012 -0.0042,0.1735673 -0.0127,0.364068 -0.0042,0.1016004 -0.02117,0.1566339 -0.01693,0.055034 -0.04233,0.084667 -0.0254,0.029633 -0.05927,0.033867 -0.03387,0.00847 -0.0762,0.00847 -0.0762,0 -0.131234,-0.0508 -0.05503,-0.055034 -0.0635,-0.2286009 z"
       style="font-style:normal;font-variant:normal;font-weight:normal;font-stretch:normal;font-size:4.23334837px;font-family:Sniglet;-inkscape-font-specification:'Sniglet, Normal';font-variant-ligatures:normal;font-variant-caps:normal;font-variant-numeric:normal;font-feature-settings:normal;text-align:start;writing-mode:lr-tb;text-anchor:start;stroke-width:0.26458427"
       id="path936" />
    <path
       d="m 42.768394,5.3493647 q 0,0.1354672 0,0.2413009 0,0.1016004 -0.0042,0.194734 0,0.093134 -0.0042,0.1862674 -0.0042,0.093134 -0.0085,0.207434 0.292101,-0.033867 0.457202,-0.055034 0.1651,-0.021167 0.258234,-0.033867 0.09737,-0.0127 0.148167,-0.016933 0.05503,-0.00423 0.127001,-0.00423 0.186267,0 0.186267,0.1820339 0,0.071967 -0.0762,0.1227672 -0.07197,0.0508 -0.186268,0.0889 -0.110067,0.033867 -0.249767,0.059267 -0.135467,0.021167 -0.266701,0.029634 -0.127001,0.0127 -0.232834,0.016933 -0.101601,0.00423 -0.143934,0.00423 -0.152401,0 -0.237068,-0.021167 -0.08467,-0.016933 -0.127,-0.1100671 -0.04233,-0.097367 -0.05503,-0.292101 -0.0085,-0.194734 -0.0085,-0.5503353 0,-0.3429012 0,-0.6096022 0,-0.2667009 0.0042,-0.4783683 0.0042,-0.2116675 0.0042,-0.376768 0.0042,-0.1651006 0.0127,-0.3005678 0.0085,-0.1735673 0.05927,-0.2243674 0.0508,-0.055034 0.127001,-0.055034 0.04233,0 0.07197,0.00847 0.03387,0.00423 0.05927,0.033867 0.0254,0.029634 0.0381,0.084667 0.01693,0.055033 0.02117,0.1566339 0.01693,0.3725346 0.02117,0.7366026 0.0042,0.364068 0.0042,0.7747027 z"
       style="font-style:normal;font-variant:normal;font-weight:normal;font-stretch:normal;font-size:4.23334837px;font-family:Sniglet;-inkscape-font-specification:'Sniglet, Normal';font-variant-ligatures:normal;font-variant-caps:normal;font-variant-numeric:normal;font-feature-settings:normal;text-align:start;writing-mode:lr-tb;text-anchor:start;stroke-width:0.26458427"
       id="path938" />
    <path
       d="m 44.288695,5.887 q -0.0085,-0.1354672 -0.01693,-0.3683013 -0.0085,-0.2328342 -0.0085,-0.4783684 0,-0.1397005 0,-0.2878677 0.0042,-0.1524005 0.0085,-0.3090344 0.0085,-0.3132678 0.0381,-0.4910684 0.03387,-0.1778006 0.127001,-0.266701 0.09737,-0.0889 0.270934,-0.110067 0.173567,-0.021167 0.461435,-0.021167 0.0042,0 0.0889,0 0.0889,0 0.211668,0.00423 0.122767,0 0.254001,0.00423 0.135467,0.00423 0.224367,0.00847 0.09313,0.00847 0.148167,0.0254 0.05927,0.0127 0.0889,0.0381 0.02963,0.021167 0.0381,0.055033 0.0085,0.029633 0.0085,0.067734 0,0.097367 -0.05503,0.1439338 -0.05503,0.042333 -0.224368,0.055033 -0.08467,0.00847 -0.249767,0.0127 -0.160867,0 -0.330201,0 -0.169334,0 -0.304801,0.00423 -0.135467,0 -0.169334,0 -0.110067,0.00423 -0.156634,0.0508 -0.04233,0.042334 -0.04233,0.2074341 0,0.0381 0.0042,0.1862673 0.0085,0.1439338 0.0085,0.4064014 h 0.351368 q 0.224368,0 0.364068,0.00847 0.143934,0.00423 0.220134,0.0254 0.08043,0.021167 0.110067,0.067734 0.02963,0.046567 0.02963,0.1227671 0,0.0381 -0.0085,0.071967 -0.0042,0.029634 -0.03387,0.055034 -0.02963,0.021167 -0.08467,0.0381 -0.05503,0.0127 -0.156633,0.021167 -0.122768,0.00847 -0.232835,0.0127 -0.105833,0 -0.211667,0 h -0.355601 q 0,0.0635 0,0.1524005 0,0.0889 0,0.182034 0,0.093134 0,0.182034 0.0042,0.0889 0.0085,0.1439338 0.0042,0.067734 0.01693,0.1143004 0.01693,0.046567 0.05503,0.0762 0.04233,0.029633 0.118534,0.042333 0.08043,0.0127 0.211667,0.0127 h 0.91017 q 0.148168,0 0.186268,0.055034 0.0381,0.055033 0.0381,0.1481672 0,0.0762 -0.03387,0.1185337 -0.03387,0.0381 -0.165101,0.055033 -0.127,0.021167 -0.385234,0.0254 -0.254001,0.00423 -0.702736,0.00423 -0.190501,0 -0.313268,-0.033867 Q 44.525762,6.4923688 44.449562,6.4119352 44.373362,6.3315016 44.335261,6.2045011 44.301395,6.0732673 44.288695,5.887 Z"
       style="font-style:normal;font-variant:normal;font-weight:normal;font-stretch:normal;font-size:4.23334837px;font-family:Sniglet;-inkscape-font-specification:'Sniglet, Normal';font-variant-ligatures:normal;font-variant-caps:normal;font-variant-numeric:normal;font-feature-settings:normal;text-align:start;writing-mode:lr-tb;text-anchor:start;stroke-width:0.26458427"
       id="path940" />
  </g>
  <g
     aria-label="CV"
     style="font-style:normal;font-weight:normal;font-size:10.58337021px;line-height:1.25;font-family:sans-serif;letter-spacing:0px;word-spacing:0px;fill:#000000;fill-opacity:1;stroke:none;stroke-width:0.26458427"
     id="text866"
     transform="translate(2.5149621,-0.77834076)">
    <path
       d="m 4.9773588,69.266142 q 0.093134,0 0.1862673,0.01693 0.095956,0.01411 0.1721562,0.04798 0.0762,0.03105 0.1241782,0.07902 0.0508,0.04516 0.0508,0.107245 0,0.06491 -0.033867,0.09878 -0.033867,0.03387 -0.084667,0.03387 -0.047978,0 -0.084667,-0.01411 -0.036689,-0.01693 -0.084667,-0.03669 -0.045156,-0.01976 -0.1100671,-0.03387 -0.064911,-0.01693 -0.1721561,-0.01693 -0.1072448,0 -0.2060229,0.05644 -0.095956,0.05362 -0.169334,0.1524 -0.070556,0.09596 -0.1128892,0.228601 -0.042333,0.132645 -0.042333,0.287868 0,0.191912 0.047978,0.330201 0.0508,0.138289 0.1298227,0.228601 0.079022,0.08749 0.1778006,0.132645 0.1016004,0.04233 0.2032007,0.04233 0.121356,0 0.2032007,-0.0254 0.081845,-0.0254 0.1382894,-0.05645 0.059267,-0.03104 0.1016003,-0.05644 0.042334,-0.0254 0.081845,-0.0254 0.047978,0 0.0762,0.02822 0.028222,0.0254 0.028222,0.09313 0,0.05644 -0.045156,0.115711 -0.042333,0.05644 -0.1270004,0.104423 -0.081845,0.04515 -0.1975562,0.0762 -0.1157116,0.02822 -0.2596454,0.02822 -0.158045,0 -0.31609,-0.06209 -0.1552227,-0.06209 -0.2794009,-0.183445 -0.121356,-0.124178 -0.1975563,-0.307623 -0.0762,-0.186267 -0.0762,-0.431802 0,-0.245534 0.067734,-0.437446 0.070556,-0.191911 0.1890896,-0.324556 0.1213559,-0.135467 0.2794009,-0.206023 0.1608673,-0.07056 0.3414901,-0.07056 z"
       style="font-style:normal;font-variant:normal;font-weight:normal;font-stretch:normal;font-size:2.82223201px;font-family:Sniglet;-inkscape-font-specification:'Sniglet, Normal';font-variant-ligatures:normal;font-variant-caps:normal;font-variant-numeric:normal;font-feature-settings:normal;text-align:start;writing-mode:lr-tb;text-anchor:start;stroke-width:0.26458427"
       id="path914"
       inkscape:connector-curvature="0" />
    <path
       d="m 6.6187954,71.151393 q -0.036689,0.06773 -0.067734,0.09878 -0.028222,0.03105 -0.073378,0.03105 -0.045156,0 -0.079023,-0.03105 -0.033867,-0.03104 -0.073378,-0.09596 -0.0508,-0.08467 -0.1157115,-0.234245 Q 6.1474819,70.77039 6.0825704,70.595411 6.0176594,70.417611 5.95557,70.228521 5.893481,70.039432 5.8426807,69.87292 q -0.047978,-0.166512 -0.079022,-0.29069 -0.028222,-0.127 -0.028222,-0.180623 0,-0.05644 0.022578,-0.08467 0.022578,-0.02822 0.087489,-0.02822 0.036689,0 0.062089,0.01976 0.028222,0.01693 0.070556,0.101601 0.033867,0.06491 0.073378,0.169334 0.039511,0.104422 0.081845,0.231423 0.045156,0.127 0.090311,0.268112 0.045156,0.138289 0.090312,0.276579 0.045156,0.138289 0.084667,0.265289 0.039511,0.127001 0.073378,0.228601 0.033867,-0.104422 0.0762,-0.231423 0.042334,-0.129823 0.087489,-0.26529 0.045156,-0.138289 0.090311,-0.276578 0.045156,-0.141112 0.090312,-0.26529 0.045156,-0.124178 0.084667,-0.228601 0.039511,-0.104423 0.070556,-0.172156 0.039511,-0.08185 0.067734,-0.101601 0.031045,-0.01976 0.062089,-0.01976 0.064911,0 0.087489,0.03387 0.0254,0.03104 0.0254,0.09313 0,0.05645 -0.016933,0.135467 -0.016933,0.07902 -0.059267,0.211668 -0.039511,0.129822 -0.1072448,0.324556 -0.067734,0.194734 -0.1665117,0.476958 -0.0254,0.0762 -0.059267,0.158045 -0.031044,0.08184 -0.064911,0.160867 -0.031045,0.0762 -0.062089,0.146756 -0.031045,0.07056 -0.059267,0.121356 z"
       style="font-style:normal;font-variant:normal;font-weight:normal;font-stretch:normal;font-size:2.82223201px;font-family:Sniglet;-inkscape-font-specification:'Sniglet, Normal';font-variant-ligatures:normal;font-variant-caps:normal;font-variant-numeric:normal;font-feature-settings:normal;text-align:start;writing-mode:lr-tb;text-anchor:start;stroke-width:0.26458427"
       id="path916"
       inkscape:connector-curvature="0" />
  </g>
  <g
     aria-label="GATE"
     style="font-style:normal;font-weight:normal;font-size:10.58337021px;line-height:1.25;font-family:sans-serif;letter-spacing:0px;word-spacing:0px;fill:#000000;fill-opacity:1;stroke:none;stroke-width:0.26458427"
     id="text866-0"
     transform="translate(2.4088551,-0.77834076)">
    <path
       d="m 5.1229801,77.131682 q 0.093134,0 0.1919118,0.01693 0.098778,0.01693 0.1806229,0.0508 0.081845,0.03104 0.1354671,0.07902 0.053622,0.04798 0.053622,0.110067 0,0.06491 -0.033867,0.09878 -0.033867,0.03387 -0.084667,0.03387 -0.047978,0 -0.090311,-0.01693 -0.039511,-0.01693 -0.090311,-0.03669 -0.0508,-0.01976 -0.1213559,-0.03669 -0.070556,-0.01693 -0.1778007,-0.01693 -0.1185337,0 -0.2229563,0.05644 -0.1016003,0.05362 -0.1806228,0.152401 -0.079023,0.09596 -0.1241783,0.228601 -0.045156,0.132645 -0.045156,0.287867 0,0.18909 0.047978,0.327379 0.047978,0.13829 0.1241782,0.228601 0.079022,0.09031 0.1749784,0.135467 0.098778,0.04233 0.1975562,0.04233 0.1608672,0 0.2540009,-0.04516 0.095956,-0.04798 0.1524005,-0.121356 0.00282,-0.05927 0.00282,-0.141112 0,-0.08184 0,-0.1778 0,-0.03669 -0.00564,-0.05644 -0.00564,-0.02258 -0.028222,-0.03387 -0.022578,-0.01129 -0.067734,-0.01411 -0.042334,-0.0028 -0.1157115,-0.0028 -0.090311,0 -0.1467561,-0.02258 -0.056445,-0.0254 -0.056445,-0.104422 0,-0.05644 0.028222,-0.09031 0.031045,-0.03669 0.1241782,-0.04233 0.016933,0 0.053622,0 0.039511,-0.0028 0.081845,-0.0028 0.045156,0 0.087489,0 0.042333,0 0.067734,0 0.084667,0 0.1354671,0.01693 0.0508,0.01411 0.090311,0.06773 0.019756,0.02822 0.022578,0.09878 0.00564,0.07056 0.00564,0.16369 v 0.728136 q 0,0.0762 -0.042333,0.112889 -0.039511,0.03669 -0.093134,0.03669 -0.064911,0 -0.1072449,-0.03387 -0.039511,-0.03104 -0.039511,-0.1016 v -0.110067 q -0.073378,0.08467 -0.1749784,0.121356 -0.098778,0.03669 -0.2511786,0.03669 -0.1552228,0 -0.3048011,-0.06209 Q 4.5811085,79.031079 4.465397,78.909724 4.3496855,78.785545 4.2763074,78.6021 q -0.070556,-0.186267 -0.070556,-0.431801 0,-0.245534 0.070556,-0.437446 0.073378,-0.191912 0.1975563,-0.324557 0.1241782,-0.135467 0.2906899,-0.206023 0.1665117,-0.07055 0.3584234,-0.07055 z"
       style="font-style:normal;font-variant:normal;font-weight:normal;font-stretch:normal;font-size:2.82223201px;font-family:Sniglet;-inkscape-font-specification:'Sniglet, Normal';font-variant-ligatures:normal;font-variant-caps:normal;font-variant-numeric:normal;font-feature-settings:normal;text-align:start;writing-mode:lr-tb;text-anchor:start;stroke-width:0.26458427"
       id="path905"
       inkscape:connector-curvature="0" />
    <path
       d="m 7.2361705,78.985888 q -0.028222,-0.06773 -0.062089,-0.155223 -0.031045,-0.09031 -0.067734,-0.189089 -0.084667,0.0028 -0.1778006,0.0056 -0.093134,0 -0.1890896,0 -0.1213559,0 -0.2201341,0 -0.098778,0 -0.1806228,-0.0028 -0.033867,0.09878 -0.064911,0.186267 -0.031045,0.08749 -0.059267,0.155223 -0.056445,0.143934 -0.1636895,0.143934 -0.039511,0 -0.0762,-0.0254 -0.033867,-0.0254 -0.033867,-0.07338 0,-0.04798 0.016933,-0.124179 0.016933,-0.07902 0.042333,-0.166511 0.028222,-0.09031 0.059267,-0.183445 0.031045,-0.09596 0.059267,-0.177801 0.028222,-0.09031 0.079022,-0.228601 0.053622,-0.141111 0.1128893,-0.293512 0.059267,-0.1524 0.1185337,-0.299156 0.059267,-0.149579 0.1072448,-0.259646 0.011289,-0.02822 0.028222,-0.06209 0.016933,-0.03669 0.039511,-0.06773 0.0254,-0.03104 0.053622,-0.05362 0.031045,-0.02258 0.067734,-0.02258 0.036689,0 0.067734,0.0254 0.031045,0.02258 0.053622,0.05644 0.0254,0.03387 0.042333,0.07056 0.019756,0.03669 0.031045,0.06491 0.045156,0.112889 0.1016003,0.259645 0.059267,0.146757 0.1157115,0.296335 0.059267,0.149578 0.1100671,0.285045 0.0508,0.135467 0.081845,0.228601 0.0254,0.08185 0.056445,0.174978 0.033867,0.09313 0.062089,0.183446 0.028222,0.09031 0.045156,0.169333 0.019756,0.0762 0.019756,0.124179 0,0.04798 -0.036689,0.07338 -0.033867,0.0254 -0.073378,0.0254 -0.0508,0 -0.093134,-0.03387 -0.042333,-0.03669 -0.073378,-0.110067 z M 6.7366354,78.364997 q 0.067734,0 0.1354671,0.0028 0.067734,0 0.1354672,0.0028 -0.033867,-0.09878 -0.067734,-0.197556 -0.033867,-0.09878 -0.064911,-0.189089 -0.028222,-0.09031 -0.053622,-0.166512 -0.022578,-0.07902 -0.039511,-0.138289 -0.011289,-0.03669 -0.0254,-0.05927 -0.014111,-0.02258 -0.036689,-0.02258 -0.022578,0 -0.036689,0.0254 -0.014111,0.02258 -0.0254,0.05927 -0.033867,0.115711 -0.095956,0.301979 -0.059267,0.183445 -0.1270004,0.386645 0.0762,-0.0028 0.1524005,-0.0028 0.0762,-0.0028 0.1495783,-0.0028 z"
       style="font-style:normal;font-variant:normal;font-weight:normal;font-stretch:normal;font-size:2.82223201px;font-family:Sniglet;-inkscape-font-specification:'Sniglet, Normal';font-variant-ligatures:normal;font-variant-caps:normal;font-variant-numeric:normal;font-feature-settings:normal;text-align:start;writing-mode:lr-tb;text-anchor:start;stroke-width:0.26458427"
       id="path907"
       inkscape:connector-curvature="0" />
    <path
       d="m 8.6122292,77.413905 q -0.079023,0.0056 -0.169334,0.0085 -0.087489,0.0028 -0.194734,0.0056 0.00282,0.0762 0.00564,0.143934 0.00282,0.06491 0.00564,0.132645 0.00282,0.06773 0.00282,0.141111 0.00282,0.07338 0.00282,0.16369 0,0.127 0,0.245534 0,0.115711 -0.00282,0.234245 -0.00282,0.115712 -0.00564,0.234245 -0.00282,0.118534 -0.00847,0.245535 -0.00282,0.06773 -0.014111,0.104422 -0.00847,0.03669 -0.0254,0.05645 -0.016933,0.01975 -0.039511,0.02258 -0.022578,0.0056 -0.0508,0.0056 -0.0508,0 -0.087489,-0.03387 -0.033867,-0.03669 -0.039511,-0.1524 -0.00564,-0.101601 -0.00847,-0.21449 0,-0.112889 -0.00282,-0.242712 -0.00282,-0.129822 -0.00282,-0.279401 0,-0.1524 0,-0.335845 0,-0.155223 0,-0.270935 0.00282,-0.115711 0.00847,-0.200378 h -0.115707 q -0.1185338,0 -0.2032008,-0.0028 -0.081845,-0.0028 -0.1354671,-0.01411 -0.053622,-0.01411 -0.079022,-0.04233 -0.022578,-0.02822 -0.022578,-0.07902 0,-0.0254 0.00564,-0.04516 0.00564,-0.02258 0.0254,-0.03951 0.019756,-0.01976 0.053622,-0.03105 0.036689,-0.01129 0.093134,-0.01693 0.053622,-0.0028 0.095956,-0.0056 0.042333,-0.0028 0.084667,-0.0056 0.042333,-0.0028 0.087489,-0.0028 0.045156,0 0.1044226,0 0.1665117,0 0.3132678,0.0028 0.1495782,0.0028 0.3160899,0.01129 0.067734,0.0056 0.1044226,0.01693 0.036689,0.0085 0.056445,0.0254 0.019756,0.01693 0.022578,0.03951 0.00564,0.02258 0.00564,0.0508 0,0.0508 -0.036689,0.08467 -0.033867,0.03387 -0.1495783,0.03951 z"
       style="font-style:normal;font-variant:normal;font-weight:normal;font-stretch:normal;font-size:2.82223201px;font-family:Sniglet;-inkscape-font-specification:'Sniglet, Normal';font-variant-ligatures:normal;font-variant-caps:normal;font-variant-numeric:normal;font-feature-settings:normal;text-align:start;writing-mode:lr-tb;text-anchor:start;stroke-width:0.26458427"
       id="path909"
       inkscape:connector-curvature="0" />
    <path
       d="m 9.0140886,78.700843 q -0.00564,-0.09031 -0.011289,-0.245535 -0.00564,-0.155222 -0.00564,-0.318912 0,-0.09313 0,-0.191912 0.00282,-0.1016 0.00564,-0.206023 0.00564,-0.208845 0.0254,-0.327379 0.022578,-0.118533 0.084667,-0.1778 0.064911,-0.05927 0.1806228,-0.07338 0.1157115,-0.01411 0.3076233,-0.01411 0.00282,0 0.059267,0 0.059267,0 0.1411116,0.0028 0.081845,0 0.1693339,0.0028 0.090312,0.0028 0.1495788,0.0056 0.06209,0.0056 0.09878,0.01693 0.03951,0.0085 0.05927,0.0254 0.01975,0.01411 0.0254,0.03669 0.0056,0.01976 0.0056,0.04516 0,0.06491 -0.03669,0.09596 -0.03669,0.02822 -0.149578,0.03669 -0.05645,0.0056 -0.1665119,0.0085 -0.1072449,0 -0.2201341,0 -0.1128893,0 -0.2032007,0.0028 -0.090312,0 -0.1128893,0 -0.073378,0.0028 -0.1044226,0.03387 -0.028222,0.02822 -0.028222,0.13829 0,0.0254 0.00282,0.124178 0.00564,0.09596 0.00564,0.270934 H 9.530557 q 0.1495783,0 0.242712,0.0056 0.095956,0.0028 0.146756,0.01693 0.053622,0.01411 0.073378,0.04516 0.019756,0.03104 0.019756,0.08185 0,0.0254 -0.0056,0.04798 -0.0028,0.01975 -0.022578,0.03669 -0.019756,0.01411 -0.056445,0.0254 -0.036689,0.0085 -0.1044225,0.01411 -0.081845,0.0056 -0.1552228,0.0085 -0.070556,0 -0.1411116,0 H 9.2906673 q 0,0.04233 0,0.101601 0,0.05927 0,0.121356 0,0.06209 0,0.121356 0.00282,0.05927 0.00564,0.09596 0.00282,0.04515 0.011289,0.0762 0.011289,0.03104 0.036689,0.0508 0.028222,0.01976 0.079023,0.02822 0.053622,0.0085 0.1411116,0.0085 H 10.1712 q 0.09878,0 0.124178,0.03669 0.0254,0.03669 0.0254,0.09878 0,0.0508 -0.02258,0.07902 -0.02258,0.0254 -0.110067,0.03669 -0.08467,0.01411 -0.2568229,0.01693 -0.169334,0.0028 -0.4684905,0.0028 -0.1270005,0 -0.2088452,-0.02258 -0.081845,-0.02258 -0.1326449,-0.0762 -0.0508,-0.05362 -0.0762,-0.138289 -0.022578,-0.08749 -0.031045,-0.211667 z"
       style="font-style:normal;font-variant:normal;font-weight:normal;font-stretch:normal;font-size:2.82223201px;font-family:Sniglet;-inkscape-font-specification:'Sniglet, Normal';font-variant-ligatures:normal;font-variant-caps:normal;font-variant-numeric:normal;font-feature-settings:normal;text-align:start;writing-mode:lr-tb;text-anchor:start;stroke-width:0.26458427"
       id="path911"
       inkscape:connector-curvature="0" />
  </g>
  <g
     aria-label="VEL"
     style="font-style:normal;font-weight:normal;font-size:10.58337021px;line-height:1.25;font-family:sans-serif;letter-spacing:0px;word-spacing:0px;fill:#000000;fill-opacity:1;stroke:none;stroke-width:0.26458427"
     id="text866-09"
     transform="translate(2.2482383,-0.77834076)">
    <path
       d="m 5.2497269,87.088092 q -0.036689,0.06773 -0.067734,0.09878 -0.028222,0.03105 -0.073378,0.03105 -0.045156,0 -0.079023,-0.03105 -0.033867,-0.03105 -0.073378,-0.09596 -0.0508,-0.08467 -0.1157115,-0.234245 -0.062089,-0.149578 -0.1270005,-0.324557 -0.064911,-0.1778 -0.1270004,-0.36689 -0.062089,-0.18909 -0.1128893,-0.355601 -0.047978,-0.166512 -0.079022,-0.29069 -0.028222,-0.127001 -0.028222,-0.180623 0,-0.05644 0.022578,-0.08467 0.022578,-0.02822 0.087489,-0.02822 0.036689,0 0.062089,0.01976 0.028222,0.01693 0.070556,0.101601 0.033867,0.06491 0.073378,0.169334 0.039511,0.104422 0.081845,0.231423 0.045156,0.127 0.090311,0.268112 0.045156,0.138289 0.090312,0.276578 0.045156,0.13829 0.084667,0.26529 0.039511,0.127001 0.073378,0.228601 0.033867,-0.104423 0.0762,-0.231423 0.042334,-0.129823 0.087489,-0.26529 0.045156,-0.138289 0.090311,-0.276579 0.045156,-0.141111 0.090311,-0.265289 0.045156,-0.124179 0.084667,-0.228601 0.039511,-0.104423 0.070556,-0.172156 0.039511,-0.08184 0.067734,-0.101601 0.031045,-0.01976 0.062089,-0.01976 0.064911,0 0.087489,0.03387 0.0254,0.03104 0.0254,0.09313 0,0.05644 -0.016933,0.135467 -0.016933,0.07902 -0.059267,0.211668 -0.039511,0.129822 -0.1072448,0.324556 -0.067734,0.194734 -0.1665117,0.476958 -0.0254,0.0762 -0.059267,0.158045 -0.031044,0.08184 -0.064911,0.160867 -0.031045,0.0762 -0.062089,0.146756 -0.031045,0.07056 -0.059267,0.121356 z"
       style="font-style:normal;font-variant:normal;font-weight:normal;font-stretch:normal;font-size:2.82223201px;font-family:Sniglet;-inkscape-font-specification:'Sniglet, Normal';font-variant-ligatures:normal;font-variant-caps:normal;font-variant-numeric:normal;font-feature-settings:normal;text-align:start;writing-mode:lr-tb;text-anchor:start;stroke-width:0.26458427"
       id="path898"
       inkscape:connector-curvature="0" />
    <path
       d="m 6.0892087,86.772002 q -0.00564,-0.09031 -0.011289,-0.245534 -0.00564,-0.155223 -0.00564,-0.318913 0,-0.09313 0,-0.191911 0.00282,-0.101601 0.00564,-0.206023 0.00564,-0.208845 0.0254,-0.327379 0.022578,-0.118534 0.084667,-0.177801 0.064911,-0.05927 0.1806228,-0.07338 0.1157115,-0.01411 0.3076233,-0.01411 0.00282,0 0.059267,0 0.059267,0 0.1411116,0.0028 0.081845,0 0.1693339,0.0028 0.090311,0.0028 0.1495783,0.0056 0.062089,0.0056 0.098778,0.01693 0.039511,0.0085 0.059267,0.0254 0.019756,0.01411 0.0254,0.03669 0.00564,0.01976 0.00564,0.04516 0,0.06491 -0.036689,0.09596 -0.036689,0.02822 -0.1495783,0.03669 -0.056445,0.0056 -0.1665117,0.0085 -0.1072448,0 -0.220134,0 -0.1128893,0 -0.2032008,0.0028 -0.090311,0 -0.1128892,0 -0.073378,0.0028 -0.1044226,0.03387 -0.028222,0.02822 -0.028222,0.138289 0,0.0254 0.00282,0.124178 0.00564,0.09596 0.00564,0.270935 h 0.2342452 q 0.1495783,0 0.242712,0.0056 0.095956,0.0028 0.146756,0.01693 0.053622,0.01411 0.073378,0.04516 0.019756,0.03105 0.019756,0.08185 0,0.0254 -0.00564,0.04798 -0.00282,0.01976 -0.022578,0.03669 -0.019756,0.01411 -0.056445,0.0254 -0.036689,0.0085 -0.1044226,0.01411 -0.081845,0.0056 -0.1552227,0.0085 -0.070556,0 -0.1411116,0 H 6.3657874 q 0,0.04233 0,0.1016 0,0.05927 0,0.121356 0,0.06209 0,0.121356 0.00282,0.05927 0.00564,0.09596 0.00282,0.04516 0.011289,0.0762 0.011289,0.03105 0.036689,0.0508 0.028222,0.01976 0.079022,0.02822 0.053622,0.0085 0.1411116,0.0085 h 0.6067799 q 0.098778,0 0.1241782,0.03669 0.0254,0.03669 0.0254,0.09878 0,0.0508 -0.022578,0.07902 -0.022578,0.0254 -0.110067,0.03669 -0.084667,0.01411 -0.2568231,0.01693 -0.169334,0.0028 -0.4684906,0.0028 -0.1270004,0 -0.2088451,-0.02258 -0.081845,-0.02258 -0.1326449,-0.0762 -0.0508,-0.05362 -0.0762,-0.13829 -0.022578,-0.08749 -0.031044,-0.211667 z"
       style="font-style:normal;font-variant:normal;font-weight:normal;font-stretch:normal;font-size:2.82223201px;font-family:Sniglet;-inkscape-font-specification:'Sniglet, Normal';font-variant-ligatures:normal;font-variant-caps:normal;font-variant-numeric:normal;font-feature-settings:normal;text-align:start;writing-mode:lr-tb;text-anchor:start;stroke-width:0.26458427"
       id="path900"
       inkscape:connector-curvature="0" />
    <path
       d="m 7.9309797,86.413578 q 0,0.09031 0,0.160868 0,0.06773 -0.00282,0.129822 0,0.06209 -0.00282,0.124179 -0.00282,0.06209 -0.00564,0.138289 0.194734,-0.02258 0.304801,-0.03669 0.1100671,-0.01411 0.1721562,-0.02258 0.064911,-0.0085 0.098778,-0.01129 0.036689,-0.0028 0.084667,-0.0028 0.1241782,0 0.1241782,0.121356 0,0.04798 -0.0508,0.08185 -0.047978,0.03387 -0.1241782,0.05927 -0.073378,0.02258 -0.1665117,0.03951 -0.090311,0.01411 -0.1778006,0.01976 -0.084667,0.0085 -0.1552228,0.01129 -0.067734,0.0028 -0.095956,0.0028 -0.1016003,0 -0.158045,-0.01411 -0.056445,-0.01129 -0.084667,-0.07338 -0.028222,-0.06491 -0.036689,-0.194734 -0.00564,-0.129822 -0.00564,-0.36689 0,-0.228601 0,-0.406401 0,-0.177801 0.00282,-0.318913 0.00282,-0.141111 0.00282,-0.251178 0.00282,-0.110067 0.00847,-0.200379 0.00564,-0.115711 0.039511,-0.149578 0.033867,-0.03669 0.084667,-0.03669 0.028222,0 0.047978,0.0056 0.022578,0.0028 0.039511,0.02258 0.016933,0.01976 0.0254,0.05644 0.011289,0.03669 0.014111,0.104423 0.011289,0.248356 0.014111,0.491068 0.00282,0.242712 0.00282,0.516468 z"
       style="font-style:normal;font-variant:normal;font-weight:normal;font-stretch:normal;font-size:2.82223201px;font-family:Sniglet;-inkscape-font-specification:'Sniglet, Normal';font-variant-ligatures:normal;font-variant-caps:normal;font-variant-numeric:normal;font-feature-settings:normal;text-align:start;writing-mode:lr-tb;text-anchor:start;stroke-width:0.26458427"
       id="path902"
       inkscape:connector-curvature="0" />
  </g>
  <path
     inkscape:connector-curvature="0"
     id="path927"
     style="font-style:normal;font-variant:normal;font-weight:normal;font-stretch:normal;font-size:2.82223201px;line-height:1.25;font-family:Sniglet;-inkscape-font-specification:'Sniglet, Normal';font-variant-ligatures:normal;font-variant-caps:normal;font-variant-numeric:normal;font-feature-settings:normal;text-align:start;letter-spacing:0px;word-spacing:0px;writing-mode:lr-tb;text-anchor:start;fill:#000000;fill-opacity:1;stroke:none;stroke-width:0.26458427"
     d="m 18.659964,63.1145 q -0.0056,-0.101601 -0.0085,-0.211668 0,-0.110067 -0.0028,-0.237067 -0.0028,-0.127001 -0.0028,-0.273757 0,-0.149578 0,-0.333023 v -0.352779 l -0.169334,0.08749 q -0.07056,0.04516 -0.112889,0.05362 -0.03951,0.0085 -0.08749,0.0085 -0.04233,0 -0.0762,-0.03669 -0.03104,-0.03669 -0.03104,-0.08749 0,-0.0508 0.03387,-0.08749 0.03669,-0.03951 0.08467,-0.07056 0.06209,-0.04233 0.132645,-0.08467 0.07338,-0.04233 0.141111,-0.0762 0.06773,-0.03669 0.124179,-0.05645 0.05927,-0.02258 0.09878,-0.02258 0.01975,0 0.03951,0.0056 0.02258,0.0056 0.03951,0.02258 0.01976,0.01693 0.03104,0.05362 0.01411,0.03387 0.01693,0.09313 0.0056,0.1016 0.0085,0.1778 0.0028,0.0762 0.0056,0.149578 0.0028,0.07056 0.0028,0.149579 0,0.07902 0,0.183445 0,0.127 0,0.242712 0,0.115711 -0.0028,0.228601 -0.0028,0.112889 -0.0056,0.2286 -0.0028,0.115712 -0.0085,0.242712 -0.0028,0.06773 -0.01411,0.104423 -0.0085,0.03669 -0.0254,0.05645 -0.01693,0.01975 -0.03951,0.02258 -0.01976,0.0056 -0.04798,0.0056 -0.0508,0 -0.08467,-0.03387 -0.03387,-0.03669 -0.03951,-0.1524 z" />
  <path
     inkscape:connector-curvature="0"
     id="path929"
     style="font-style:normal;font-variant:normal;font-weight:normal;font-stretch:normal;font-size:2.82223201px;line-height:1.25;font-family:Sniglet;-inkscape-font-specification:'Sniglet, Normal';font-variant-ligatures:normal;font-variant-caps:normal;font-variant-numeric:normal;font-feature-settings:normal;text-align:start;letter-spacing:0px;word-spacing:0px;writing-mode:lr-tb;text-anchor:start;fill:#000000;fill-opacity:1;stroke:none;stroke-width:0.26458427"
     d="m 26.343315,61.584851 q -0.101601,0 -0.169334,0.02258 -0.06773,0.01976 -0.11289,0.05362 -0.04516,0.03387 -0.07338,0.07056 -0.0254,0.03669 -0.0508,0.07056 -0.02258,0.03387 -0.0508,0.05644 -0.0254,0.01976 -0.06491,0.01976 -0.06773,0 -0.09596,-0.03387 -0.0254,-0.03669 -0.0254,-0.09596 0,-0.124178 0.09313,-0.231423 0.02822,-0.03387 0.0762,-0.07056 0.0508,-0.03951 0.118533,-0.07055 0.07056,-0.03104 0.160868,-0.0508 0.09313,-0.02258 0.208845,-0.02258 0.307623,0 0.476957,0.149578 0.169334,0.149578 0.169334,0.420512 0,0.05362 -0.01129,0.118534 -0.0085,0.06491 -0.03669,0.135467 -0.0254,0.07056 -0.07338,0.146756 -0.04798,0.0762 -0.127001,0.155223 -0.07055,0.07056 -0.149578,0.129823 -0.07902,0.05927 -0.163689,0.118534 -0.08467,0.05927 -0.177801,0.127 -0.09031,0.06491 -0.183445,0.149578 0.09031,0.04798 0.194734,0.06209 0.104423,0.01411 0.234245,0.01411 0.121356,0 0.194734,-0.0056 0.07338,-0.0056 0.118534,-0.01411 0.04516,-0.0085 0.07056,-0.01411 0.0254,-0.0056 0.05362,-0.0056 0.104423,0 0.104423,0.09596 0,0.08467 -0.07056,0.129823 -0.07056,0.04516 -0.169334,0.06773 -0.09878,0.01976 -0.203201,0.02258 -0.104422,0.0056 -0.172156,0.0056 -0.03669,0 -0.104422,-0.0056 -0.06491,-0.0028 -0.141112,-0.01411 -0.0762,-0.01129 -0.155223,-0.03104 -0.0762,-0.02258 -0.141111,-0.05645 -0.06209,-0.03669 -0.101601,-0.08749 -0.03951,-0.05362 -0.03951,-0.127001 0,-0.09878 0.07056,-0.186267 0.07338,-0.09031 0.180623,-0.174978 0.107245,-0.08749 0.231423,-0.172156 0.124178,-0.08749 0.231423,-0.177801 0.107245,-0.09313 0.1778,-0.191912 0.07338,-0.09878 0.07338,-0.21449 0,-0.143933 -0.09878,-0.214489 -0.09596,-0.07338 -0.276578,-0.07338 z" />
  <path
     inkscape:connector-curvature="0"
     id="path931"
     style="font-style:normal;font-variant:normal;font-weight:normal;font-stretch:normal;font-size:2.82223201px;line-height:1.25;font-family:Sniglet;-inkscape-font-specification:'Sniglet, Normal';font-variant-ligatures:normal;font-variant-caps:normal;font-variant-numeric:normal;font-feature-settings:normal;text-align:start;letter-spacing:0px;word-spacing:0px;writing-mode:lr-tb;text-anchor:start;fill:#000000;fill-opacity:1;stroke:none;stroke-width:0.26458427"
     d="m 34.034426,61.596139 q -0.09031,0 -0.132645,-0.04516 -0.04233,-0.04798 -0.04233,-0.09596 0,-0.0508 0.04798,-0.08185 0.04798,-0.03387 0.127001,-0.0508 0.07902,-0.01975 0.180622,-0.0254 0.101601,-0.0085 0.206023,-0.0085 0.08749,0 0.194734,0.0085 0.107245,0.0056 0.200379,0.03387 0.09313,0.0254 0.155223,0.07902 0.06209,0.0508 0.06209,0.141112 0,0.07056 -0.05362,0.146756 -0.05362,0.0762 -0.124178,0.143934 -0.07056,0.06773 -0.141112,0.121356 -0.06773,0.0508 -0.09878,0.07338 0.299157,0 0.434624,0.149578 0.135467,0.149579 0.135467,0.42898 0,0.174979 -0.06491,0.304801 -0.06209,0.129822 -0.169334,0.217311 -0.104423,0.08467 -0.242712,0.127001 -0.135467,0.04233 -0.279401,0.04233 -0.118534,0 -0.234245,-0.01975 -0.11289,-0.01976 -0.203201,-0.06773 -0.09031,-0.0508 -0.146756,-0.132644 -0.05362,-0.08467 -0.05362,-0.208845 0,-0.129823 0.141111,-0.129823 0.04233,0 0.06491,0.02258 0.0254,0.01976 0.04233,0.0508 0.01976,0.02822 0.03951,0.06491 0.01976,0.03669 0.05645,0.06773 0.03951,0.02822 0.1016,0.0508 0.06491,0.01976 0.169334,0.01976 0.08185,0 0.160867,-0.01693 0.07902,-0.01976 0.141112,-0.06209 0.06209,-0.04233 0.09878,-0.11289 0.03951,-0.07338 0.03951,-0.180622 0,-0.208847 -0.08749,-0.296335 -0.08467,-0.08749 -0.23989,-0.08749 -0.03951,0 -0.07338,0.01411 -0.03387,0.01129 -0.06773,0.02822 -0.03387,0.01411 -0.07056,0.02822 -0.03669,0.01129 -0.08185,0.01129 -0.04516,0 -0.07902,-0.03951 -0.03387,-0.04233 -0.03387,-0.107244 0,-0.04516 0.04233,-0.104422 0.04515,-0.05927 0.121355,-0.135467 0.07902,-0.0762 0.18909,-0.166512 0.110067,-0.09313 0.245534,-0.200378 -0.02822,0 -0.06773,0 -0.03669,0 -0.0762,0.0028 -0.03669,0 -0.07338,0 -0.03669,0 -0.06209,0 -0.107245,0 -0.211667,0 -0.101601,-0.0028 -0.186267,-0.0028 z" />
  <path
     inkscape:connector-curvature="0"
     id="path933"
     style="font-style:normal;font-variant:normal;font-weight:normal;font-stretch:normal;font-size:2.82223201px;line-height:1.25;font-family:Sniglet;-inkscape-font-specification:'Sniglet, Normal';font-variant-ligatures:normal;font-variant-caps:normal;font-variant-numeric:normal;font-feature-settings:normal;text-align:start;letter-spacing:0px;word-spacing:0px;writing-mode:lr-tb;text-anchor:start;fill:#000000;fill-opacity:1;stroke:none;stroke-width:0.26458427"
     d="m 43.014239,62.705276 q -0.0028,0.107245 -0.0028,0.234245 0,0.127001 -0.0085,0.237068 -0.0056,0.08467 -0.03951,0.110067 -0.03105,0.02258 -0.08749,0.02258 -0.0508,0 -0.07902,-0.01976 -0.0254,-0.01693 -0.03951,-0.0762 -0.01129,-0.06209 -0.01411,-0.177801 -0.0028,-0.118534 -0.0028,-0.31609 -0.09313,0 -0.177801,0.0028 -0.08467,0.0028 -0.163689,0.0028 -0.118534,0 -0.217312,-0.0056 -0.09596,-0.0056 -0.166512,-0.01976 -0.06773,-0.01693 -0.107245,-0.04516 -0.03669,-0.02822 -0.03669,-0.07338 0,-0.06209 0.0508,-0.155223 0.0508,-0.09596 0.127001,-0.206023 0.0762,-0.110067 0.160867,-0.222956 0.08749,-0.115712 0.160867,-0.21449 0.03387,-0.04516 0.09596,-0.124178 0.06491,-0.08185 0.13829,-0.160867 0.07338,-0.08185 0.146756,-0.141112 0.07338,-0.05927 0.124178,-0.05927 0.04798,0 0.08467,0.03104 0.03669,0.03104 0.04233,0.143934 0.01129,0.163689 0.01411,0.344312 0.0028,0.1778 0.0028,0.352779 v 0.279401 q 0.07902,0.0056 0.127,0.01411 0.04798,0.0085 0.07338,0.0254 0.0254,0.01411 0.03387,0.03669 0.0085,0.02258 0.0085,0.05644 0,0.07056 -0.06491,0.09596 -0.06491,0.02258 -0.183445,0.02822 z m -0.276579,-0.92287 q -0.124178,0.149578 -0.211667,0.256823 -0.08467,0.104423 -0.146756,0.180623 -0.05927,0.0762 -0.104423,0.129823 -0.04233,0.05362 -0.0762,0.09596 0.129823,-0.0056 0.26529,-0.0056 0.138289,-0.0028 0.273756,-0.0028 z" />
  <g
     aria-label="LOAD FILE"
     style="font-style:normal;font-weight:normal;font-size:10.58337021px;line-height:1.25;font-family:sans-serif;letter-spacing:0px;word-spacing:0px;fill:#000000;fill-opacity:1;stroke:none;stroke-width:0.26458427"
     id="text996"
     transform="translate(0,1.3305809)">
    <path
       d="m 4.3137269,36.215691 q 0,0.09031 0,0.160867 0,0.06773 -0.00282,0.129823 0,0.06209 -0.00282,0.124178 -0.00282,0.06209 -0.00564,0.138289 0.194734,-0.02258 0.3048011,-0.03669 0.110067,-0.01411 0.1721561,-0.02258 0.064911,-0.0085 0.098778,-0.01129 0.036689,-0.0028 0.084667,-0.0028 0.1241782,0 0.1241782,0.121356 0,0.04798 -0.0508,0.08185 -0.047978,0.03387 -0.1241783,0.05927 -0.073378,0.02258 -0.1665116,0.03951 -0.090312,0.01411 -0.1778007,0.01976 -0.084667,0.0085 -0.1552227,0.01129 -0.067734,0.0028 -0.095956,0.0028 -0.1016004,0 -0.158045,-0.01411 -0.056445,-0.01129 -0.084667,-0.07338 -0.028222,-0.06491 -0.036689,-0.194734 -0.00564,-0.129823 -0.00564,-0.36689 0,-0.228601 0,-0.406402 0,-0.1778 0.00282,-0.318912 0.00282,-0.141112 0.00282,-0.251179 0.00282,-0.110067 0.00847,-0.200378 0.00564,-0.115712 0.039511,-0.149578 0.033867,-0.03669 0.084667,-0.03669 0.028222,0 0.047978,0.0056 0.022578,0.0028 0.039511,0.02258 0.016933,0.01976 0.0254,0.05645 0.011289,0.03669 0.014111,0.104422 0.011289,0.248357 0.014111,0.491069 0.00282,0.242711 0.00282,0.516468 z"
       style="font-style:normal;font-variant:normal;font-weight:normal;font-stretch:normal;font-size:2.82223201px;font-family:Sniglet;-inkscape-font-specification:'Sniglet, Normal';font-variant-ligatures:normal;font-variant-caps:normal;font-variant-numeric:normal;font-feature-settings:normal;text-align:start;writing-mode:lr-tb;text-anchor:start;stroke-width:0.26458427"
       id="path998"
       inkscape:connector-curvature="0" />
    <path
       d="m 5.9233693,37.031316 q -0.1693339,0 -0.3189122,-0.06773 Q 5.457701,36.895856 5.347634,36.768852 5.2375669,36.63903 5.1726556,36.452762 q -0.062089,-0.186267 -0.062089,-0.423334 0,-0.222957 0.053622,-0.409224 0.056445,-0.186267 0.1636895,-0.321734 0.110067,-0.135468 0.2709342,-0.208846 0.1608672,-0.0762 0.3725346,-0.0762 0.1721562,0 0.327379,0.06209 0.1552227,0.06209 0.2709342,0.186268 0.1185338,0.124178 0.1862673,0.310445 0.067734,0.186267 0.067734,0.434624 0,0.206023 -0.056445,0.39229 -0.053622,0.186267 -0.1665117,0.327379 -0.1100671,0.138289 -0.279401,0.222956 -0.1693339,0.08184 -0.3979344,0.08184 z m 0.00564,-0.26529 q 0.1552227,0 0.2709342,-0.06209 0.1157116,-0.06491 0.1919118,-0.169334 0.0762,-0.104422 0.1128893,-0.23989 0.036689,-0.138289 0.036689,-0.282223 0,-0.174978 -0.047978,-0.310445 -0.045156,-0.13829 -0.1241782,-0.231423 -0.079022,-0.09313 -0.1834451,-0.141112 -0.1044226,-0.0508 -0.2229563,-0.0508 -0.1411116,0 -0.2483565,0.05927 -0.1044225,0.05927 -0.1778006,0.160867 -0.070556,0.1016 -0.1072448,0.23989 -0.036689,0.135467 -0.036689,0.29069 0,0.166511 0.042333,0.304801 0.042333,0.135467 0.1128892,0.231423 0.073378,0.09596 0.1721562,0.149578 0.098778,0.0508 0.2088452,0.0508 z"
       style="font-style:normal;font-variant:normal;font-weight:normal;font-stretch:normal;font-size:2.82223201px;font-family:Sniglet;-inkscape-font-specification:'Sniglet, Normal';font-variant-ligatures:normal;font-variant-caps:normal;font-variant-numeric:normal;font-feature-settings:normal;text-align:start;writing-mode:lr-tb;text-anchor:start;stroke-width:0.26458427"
       id="path1000"
       inkscape:connector-curvature="0" />
    <path
       d="m 8.2181526,36.85916 q -0.028222,-0.06773 -0.062089,-0.155223 -0.031045,-0.09031 -0.067734,-0.189089 -0.084667,0.0028 -0.1778006,0.0056 -0.093134,0 -0.1890896,0 -0.1213559,0 -0.2201341,0 -0.098778,0 -0.1806228,-0.0028 -0.033867,0.09878 -0.064911,0.186267 -0.031045,0.08749 -0.059267,0.155223 -0.056445,0.143934 -0.1636895,0.143934 -0.039511,0 -0.0762,-0.0254 -0.033867,-0.0254 -0.033867,-0.07338 0,-0.04798 0.016933,-0.124179 0.016933,-0.07902 0.042333,-0.166511 0.028222,-0.09031 0.059267,-0.183445 0.031045,-0.09596 0.059267,-0.177801 0.028222,-0.09031 0.079022,-0.228601 0.053622,-0.141111 0.1128893,-0.293512 0.059267,-0.1524 0.1185337,-0.299157 0.059267,-0.149578 0.1072448,-0.259645 0.011289,-0.02822 0.028222,-0.06209 0.016933,-0.03669 0.039511,-0.06773 0.0254,-0.03104 0.053622,-0.05362 0.031045,-0.02258 0.067734,-0.02258 0.036689,0 0.067734,0.0254 0.031045,0.02258 0.053622,0.05644 0.0254,0.03387 0.042333,0.07056 0.019756,0.03669 0.031045,0.06491 0.045156,0.112889 0.1016003,0.259645 0.059267,0.146756 0.1157116,0.296335 0.059267,0.149578 0.110067,0.285045 0.0508,0.135467 0.081845,0.228601 0.0254,0.08185 0.056445,0.174978 0.033867,0.09313 0.062089,0.183445 0.028222,0.09031 0.045156,0.169334 0.019756,0.0762 0.019756,0.124179 0,0.04798 -0.036689,0.07338 -0.033867,0.0254 -0.073378,0.0254 -0.0508,0 -0.093134,-0.03387 -0.042333,-0.03669 -0.073378,-0.110067 z M 7.7186175,36.238269 q 0.067734,0 0.1354671,0.0028 0.067734,0 0.1354672,0.0028 -0.033867,-0.09878 -0.067734,-0.197556 -0.033867,-0.09878 -0.064911,-0.189089 -0.028222,-0.09031 -0.053622,-0.166512 -0.022578,-0.07902 -0.039511,-0.13829 -0.011289,-0.03669 -0.0254,-0.05927 -0.014111,-0.02258 -0.036689,-0.02258 -0.022578,0 -0.036689,0.0254 -0.014111,0.02258 -0.0254,0.05927 -0.033867,0.115711 -0.095956,0.301979 -0.059267,0.183445 -0.1270004,0.386645 0.0762,-0.0028 0.1524005,-0.0028 0.0762,-0.0028 0.1495783,-0.0028 z"
       style="font-style:normal;font-variant:normal;font-weight:normal;font-stretch:normal;font-size:2.82223201px;font-family:Sniglet;-inkscape-font-specification:'Sniglet, Normal';font-variant-ligatures:normal;font-variant-caps:normal;font-variant-numeric:normal;font-feature-settings:normal;text-align:start;writing-mode:lr-tb;text-anchor:start;stroke-width:0.26458427"
       id="path1002"
       inkscape:connector-curvature="0" />
    <path
       d="m 9.2733589,35.007776 q 0.2906899,0 0.4656683,0.08749 0.1749783,0.08749 0.2681118,0.231423 0.09313,0.143934 0.121356,0.327379 0.03105,0.183445 0.03105,0.372534 0,0.206023 -0.05362,0.389468 -0.0508,0.183446 -0.1608669,0.321735 -0.1072448,0.135467 -0.2765787,0.217312 -0.169334,0.07902 -0.4035792,0.07902 -0.1862673,0 -0.2991566,-0.02822 -0.1100671,-0.0254 -0.1721562,-0.07902 -0.059267,-0.05362 -0.079023,-0.135467 -0.019756,-0.08184 -0.019756,-0.191911 v -1.06116 q 0,-0.121356 0.019756,-0.220134 0.022578,-0.09878 0.084667,-0.166511 0.062089,-0.07056 0.1749784,-0.107245 0.1157115,-0.03669 0.2991566,-0.03669 z m 0.011289,1.744139 q 0.1749784,0 0.2878677,-0.06209 0.1157115,-0.06491 0.1834451,-0.169334 0.067734,-0.104423 0.093134,-0.237067 0.028222,-0.132645 0.028222,-0.270935 0,-0.127 -0.019756,-0.254001 -0.019756,-0.129822 -0.081845,-0.234245 -0.062089,-0.104422 -0.1778006,-0.169334 -0.1157116,-0.06491 -0.3076233,-0.06491 -0.1749784,0 -0.242712,0.0508 -0.067734,0.0508 -0.067734,0.155223 v 1.080915 q 0,0.08749 0.062089,0.132645 0.064911,0.04233 0.2427119,0.04233 z"
       style="font-style:normal;font-variant:normal;font-weight:normal;font-stretch:normal;font-size:2.82223201px;font-family:Sniglet;-inkscape-font-specification:'Sniglet, Normal';font-variant-ligatures:normal;font-variant-caps:normal;font-variant-numeric:normal;font-feature-settings:normal;text-align:start;writing-mode:lr-tb;text-anchor:start;stroke-width:0.26458427"
       id="path1004"
       inkscape:connector-curvature="0" />
    <path
       d="m 11.031962,35.690756 q 0,-0.237068 0.01693,-0.369713 0.01693,-0.135467 0.07056,-0.2032 0.05362,-0.06773 0.152401,-0.08185 0.09878,-0.01693 0.259645,-0.01693 0.09031,0 0.163689,0 0.07338,0 0.141112,0.0028 0.07056,0 0.138289,0.0028 0.07056,0.0028 0.152401,0.0056 0.06773,0.0056 0.104423,0.01693 0.03669,0.0085 0.05644,0.0254 0.01976,0.01693 0.02258,0.03951 0.0056,0.02258 0.0056,0.0508 0,0.0508 -0.03669,0.08467 -0.03387,0.03387 -0.149578,0.03951 -0.07056,0.0028 -0.138289,0.0056 -0.06491,0.0028 -0.149579,0.0056 -0.08184,0 -0.186267,0.0028 -0.104422,0 -0.251178,0 -0.0508,0 -0.07056,0.03669 -0.01976,0.03387 -0.01976,0.08749 0,0.04233 0,0.08467 0.0028,0.04233 0.0028,0.09313 0.0028,0.0508 0.0028,0.115711 0.0028,0.06209 0.0028,0.146756 0.104422,0 0.180623,0.0028 0.07902,0 0.135467,0.0028 0.05927,0 0.104422,0.0028 0.04516,0.0028 0.08749,0.0056 0.115711,0.0056 0.149578,0.03951 0.03669,0.03387 0.03669,0.08467 0,0.02822 -0.0056,0.0508 -0.0028,0.02258 -0.02258,0.03951 -0.01976,0.01693 -0.05645,0.02822 -0.03669,0.01129 -0.104423,0.01693 -0.04515,0.0028 -0.08749,0.0056 -0.03951,0 -0.09596,0.0028 -0.05362,0 -0.129822,0 -0.0762,0 -0.191912,0 -0.0028,0.169334 -0.0028,0.347135 0.0028,0.174978 -0.0085,0.361246 -0.0056,0.110067 -0.03951,0.135467 -0.03105,0.02258 -0.09596,0.02258 -0.06209,0 -0.09313,-0.0254 -0.03104,-0.02822 -0.03669,-0.129823 -0.0056,-0.09031 -0.0085,-0.197556 0,-0.110067 -0.0028,-0.248357 -0.0028,-0.141111 -0.0028,-0.31609 0,-0.1778 0,-0.406401 z"
       style="font-style:normal;font-variant:normal;font-weight:normal;font-stretch:normal;font-size:2.82223201px;font-family:Sniglet;-inkscape-font-specification:'Sniglet, Normal';font-variant-ligatures:normal;font-variant-caps:normal;font-variant-numeric:normal;font-feature-settings:normal;text-align:start;writing-mode:lr-tb;text-anchor:start;stroke-width:0.26458427"
       id="path1006"
       inkscape:connector-curvature="0" />
    <path
       d="m 12.595655,36.828115 q -0.0056,-0.1016 -0.0085,-0.211667 0,-0.110067 -0.0028,-0.237068 -0.0028,-0.127 -0.0028,-0.273756 0,-0.149578 0,-0.333023 0,-0.200379 0.0028,-0.341491 0.0028,-0.143933 0.01693,-0.234245 0.01411,-0.09031 0.04233,-0.132645 0.03105,-0.04233 0.08185,-0.04233 0.0254,0 0.04798,0.0056 0.02258,0.0056 0.03951,0.0254 0.01693,0.01693 0.02822,0.05362 0.01411,0.03387 0.01693,0.09031 0.0056,0.101601 0.0085,0.180623 0.0028,0.07902 0.0056,0.158045 0.0028,0.0762 0.0028,0.160867 0,0.08185 0,0.186268 0,0.127 0,0.242712 0,0.115711 -0.0028,0.2286 -0.0028,0.11289 -0.0056,0.228601 -0.0028,0.115712 -0.0085,0.242712 -0.0028,0.06773 -0.01411,0.104423 -0.01129,0.03669 -0.02822,0.05644 -0.01693,0.01976 -0.03951,0.02258 -0.02258,0.0056 -0.0508,0.0056 -0.0508,0 -0.08749,-0.03387 -0.03669,-0.03669 -0.04233,-0.152401 z"
       style="font-style:normal;font-variant:normal;font-weight:normal;font-stretch:normal;font-size:2.82223201px;font-family:Sniglet;-inkscape-font-specification:'Sniglet, Normal';font-variant-ligatures:normal;font-variant-caps:normal;font-variant-numeric:normal;font-feature-settings:normal;text-align:start;writing-mode:lr-tb;text-anchor:start;stroke-width:0.26458427"
       id="path1008"
       inkscape:connector-curvature="0" />
    <path
       d="m 13.524566,36.215691 q 0,0.09031 0,0.160867 0,0.06773 -0.0028,0.129823 0,0.06209 -0.0028,0.124178 -0.0028,0.06209 -0.0056,0.138289 0.194734,-0.02258 0.304801,-0.03669 0.110067,-0.01411 0.172156,-0.02258 0.06491,-0.0085 0.09878,-0.01129 0.03669,-0.0028 0.08467,-0.0028 0.124179,0 0.124179,0.121356 0,0.04798 -0.0508,0.08185 -0.04798,0.03387 -0.124179,0.05927 -0.07338,0.02258 -0.166511,0.03951 -0.09031,0.01411 -0.177801,0.01976 -0.08467,0.0085 -0.155223,0.01129 -0.06773,0.0028 -0.09596,0.0028 -0.1016,0 -0.158045,-0.01411 -0.05644,-0.01129 -0.08467,-0.07338 -0.02822,-0.06491 -0.03669,-0.194734 -0.0056,-0.129823 -0.0056,-0.36689 0,-0.228601 0,-0.406402 0,-0.1778 0.0028,-0.318912 0.0028,-0.141112 0.0028,-0.251179 0.0028,-0.110067 0.0085,-0.200378 0.0056,-0.115712 0.03951,-0.149578 0.03387,-0.03669 0.08467,-0.03669 0.02822,0 0.04798,0.0056 0.02258,0.0028 0.03951,0.02258 0.01693,0.01976 0.0254,0.05645 0.01129,0.03669 0.01411,0.104422 0.01129,0.248357 0.01411,0.491069 0.0028,0.242711 0.0028,0.516468 z"
       style="font-style:normal;font-variant:normal;font-weight:normal;font-stretch:normal;font-size:2.82223201px;font-family:Sniglet;-inkscape-font-specification:'Sniglet, Normal';font-variant-ligatures:normal;font-variant-caps:normal;font-variant-numeric:normal;font-feature-settings:normal;text-align:start;writing-mode:lr-tb;text-anchor:start;stroke-width:0.26458427"
       id="path1010"
       inkscape:connector-curvature="0" />
    <path
       d="m 14.5381,36.574114 q -0.0056,-0.09031 -0.01129,-0.245534 -0.0056,-0.155222 -0.0056,-0.318912 0,-0.09313 0,-0.191912 0.0028,-0.1016 0.0056,-0.206023 0.0056,-0.208845 0.0254,-0.327379 0.02258,-0.118533 0.08467,-0.1778 0.06491,-0.05927 0.180623,-0.07338 0.115712,-0.01411 0.307623,-0.01411 0.0028,0 0.05927,0 0.05927,0 0.141112,0.0028 0.08185,0 0.169334,0.0028 0.09031,0.0028 0.149578,0.0056 0.06209,0.0056 0.09878,0.01693 0.03951,0.0085 0.05927,0.0254 0.01976,0.01411 0.0254,0.03669 0.0056,0.01976 0.0056,0.04516 0,0.06491 -0.03669,0.09596 -0.03669,0.02822 -0.149579,0.03669 -0.05644,0.0056 -0.166511,0.0085 -0.107245,0 -0.220134,0 -0.11289,0 -0.203201,0.0028 -0.09031,0 -0.112889,0 -0.07338,0.0028 -0.104423,0.03387 -0.02822,0.02822 -0.02822,0.13829 0,0.0254 0.0028,0.124178 0.0056,0.09596 0.0056,0.270934 h 0.234246 q 0.149578,0 0.242712,0.0056 0.09596,0.0028 0.146756,0.01693 0.05362,0.01411 0.07338,0.04516 0.01975,0.03104 0.01975,0.08185 0,0.0254 -0.0056,0.04798 -0.0028,0.01976 -0.02258,0.03669 -0.01976,0.01411 -0.05645,0.0254 -0.03669,0.0085 -0.104422,0.01411 -0.08185,0.0056 -0.155223,0.0085 -0.07056,0 -0.141112,0 h -0.237067 q 0,0.04233 0,0.101601 0,0.05927 0,0.121356 0,0.06209 0,0.121356 0.0028,0.05927 0.0056,0.09596 0.0028,0.04516 0.01129,0.0762 0.01129,0.03104 0.03669,0.0508 0.02822,0.01976 0.07902,0.02822 0.05362,0.0085 0.141111,0.0085 h 0.60678 q 0.09878,0 0.124179,0.03669 0.0254,0.03669 0.0254,0.09878 0,0.0508 -0.02258,0.07902 -0.02258,0.0254 -0.110067,0.03669 -0.08467,0.01411 -0.256823,0.01693 -0.169334,0.0028 -0.468491,0.0028 -0.127,0 -0.208845,-0.02258 -0.08185,-0.02258 -0.132645,-0.0762 -0.0508,-0.05362 -0.0762,-0.138289 -0.02258,-0.08749 -0.03105,-0.211668 z"
       style="font-style:normal;font-variant:normal;font-weight:normal;font-stretch:normal;font-size:2.82223201px;font-family:Sniglet;-inkscape-font-specification:'Sniglet, Normal';font-variant-ligatures:normal;font-variant-caps:normal;font-variant-numeric:normal;font-feature-settings:normal;text-align:start;writing-mode:lr-tb;text-anchor:start;stroke-width:0.26458427"
       id="path1012"
       inkscape:connector-curvature="0" />
  </g>
  <g
     aria-label="RUN"
     style="font-style:normal;font-weight:normal;font-size:10.58337021px;line-height:1.25;font-family:sans-serif;letter-spacing:0px;word-spacing:0px;fill:#000000;fill-opacity:1;stroke:none;stroke-width:0.26458427"
     id="text1017"
     transform="translate(1.058337)">
    <path
       d="m 36.203727,37.622469 q -0.03951,0.0028 -0.08184,0.0056 -0.03951,0 -0.08184,0 -0.04798,0 -0.09596,0 -0.04798,0 -0.107245,-0.0056 v 0.572913 q 0,0.09031 -0.04516,0.112889 -0.04233,0.01976 -0.107244,0.01976 -0.03387,0 -0.05362,-0.0056 -0.01976,-0.0028 -0.03387,-0.01411 -0.01129,-0.01411 -0.01976,-0.03951 -0.0056,-0.0254 -0.0085,-0.07056 -0.0056,-0.0508 -0.0085,-0.146756 -0.0028,-0.09878 -0.0056,-0.254001 0,-0.155222 -0.0028,-0.375356 0,-0.222957 0,-0.522113 0,-0.115712 0.02822,-0.222957 0.02822,-0.110067 0.1016,-0.191911 0.07338,-0.08467 0.197557,-0.135468 0.127,-0.0508 0.321734,-0.0508 0.138289,0 0.268112,0.03104 0.132645,0.03104 0.234245,0.107245 0.101601,0.0762 0.16369,0.206023 0.06209,0.129822 0.06209,0.324556 0,0.259646 -0.112889,0.403579 -0.110067,0.141112 -0.304801,0.200379 l 0.378179,0.519291 q 0.0508,0.06773 0.0508,0.138289 0,0.05644 -0.03951,0.08749 -0.03669,0.03387 -0.09313,0.03387 -0.06209,0 -0.107245,-0.03387 -0.04516,-0.03669 -0.08467,-0.09313 z m 0.443091,-0.65758 q 0,-0.194734 -0.118534,-0.287868 -0.115712,-0.09596 -0.369712,-0.09596 -0.09313,0 -0.155223,0.01693 -0.06209,0.01411 -0.09878,0.05644 -0.03669,0.04233 -0.05362,0.118534 -0.01411,0.07338 -0.01411,0.18909 0,0.08184 0,0.191912 0,0.110067 0.0028,0.200378 0.06491,0.0028 0.143934,0.0028 0.08185,0 0.152401,0 0.07902,0 0.166511,-0.0085 0.09031,-0.01129 0.166512,-0.0508 0.0762,-0.04233 0.127,-0.118533 0.0508,-0.07902 0.0508,-0.21449 z"
       style="font-style:normal;font-variant:normal;font-weight:normal;font-stretch:normal;font-size:2.82223201px;font-family:Sniglet;-inkscape-font-specification:'Sniglet, Normal';font-variant-ligatures:normal;font-variant-caps:normal;font-variant-numeric:normal;font-feature-settings:normal;text-align:start;writing-mode:lr-tb;text-anchor:start;stroke-width:0.26458427"
       id="path1019"
       inkscape:connector-curvature="0" />
    <path
       d="m 37.85804,38.364716 q -0.321734,0 -0.471312,-0.174978 -0.05927,-0.06773 -0.101601,-0.172156 -0.03951,-0.107245 -0.06491,-0.276579 -0.02258,-0.169334 -0.03387,-0.417691 -0.0085,-0.251178 -0.0085,-0.609602 0,-0.115711 0.0056,-0.189089 0.0056,-0.0762 0.02258,-0.118534 0.01693,-0.04516 0.04233,-0.06209 0.02822,-0.01693 0.07056,-0.01693 0.08184,0 0.115712,0.07338 0.03387,0.07338 0.03387,0.254 0,0.06209 -0.0028,0.110068 0,0.04798 0,0.09878 0,0.04798 -0.0028,0.107244 0,0.05927 0,0.143934 0,0.282223 0.01693,0.468491 0.01976,0.186267 0.06491,0.299156 0.04516,0.110067 0.121356,0.155223 0.07902,0.04516 0.194734,0.04516 0.121356,0 0.200378,-0.04798 0.08184,-0.0508 0.129823,-0.166512 0.04798,-0.118534 0.06773,-0.313268 0.02258,-0.194734 0.02258,-0.485423 0,-0.127001 -0.0028,-0.217312 0,-0.09031 0,-0.16369 0,-0.104422 0.0056,-0.174978 0.0085,-0.07056 0.02258,-0.110067 0.01693,-0.04233 0.04516,-0.05927 0.02822,-0.01693 0.07056,-0.01693 0.04233,0 0.07056,0.01693 0.02822,0.01693 0.04516,0.05927 0.01693,0.04233 0.02258,0.118534 0.0056,0.07338 0.0056,0.191911 0,0.496713 -0.03104,0.818448 -0.03104,0.318912 -0.110067,0.505179 -0.07902,0.183445 -0.217312,0.256823 -0.135467,0.07056 -0.349957,0.07056 z"
       style="font-style:normal;font-variant:normal;font-weight:normal;font-stretch:normal;font-size:2.82223201px;font-family:Sniglet;-inkscape-font-specification:'Sniglet, Normal';font-variant-ligatures:normal;font-variant-caps:normal;font-variant-numeric:normal;font-feature-settings:normal;text-align:start;writing-mode:lr-tb;text-anchor:start;stroke-width:0.26458427"
       id="path1021"
       inkscape:connector-curvature="0" />
    <path
       d="m 40.020796,38.184093 q -0.09031,-0.124178 -0.172156,-0.245534 -0.07902,-0.124178 -0.172156,-0.270934 -0.09031,-0.146756 -0.208845,-0.324557 -0.115712,-0.180623 -0.279401,-0.420512 0,0.211667 0,0.381001 0,0.166512 -0.0028,0.310445 -0.0028,0.143934 -0.0056,0.270935 -0.0028,0.127 -0.0085,0.254001 -0.0028,0.06773 -0.01411,0.104422 -0.0085,0.03669 -0.0254,0.05644 -0.01693,0.01976 -0.03951,0.02258 -0.01976,0.0056 -0.04798,0.0056 -0.0508,0 -0.08467,-0.03387 -0.03387,-0.03669 -0.03951,-0.1524 -0.01411,-0.310446 -0.01693,-0.620891 0,-0.313268 0,-0.646291 0,-0.18909 0.0028,-0.296335 0.0056,-0.107245 0.01976,-0.160867 0.01693,-0.05362 0.04233,-0.06773 0.02822,-0.01411 0.07338,-0.01411 0.04516,0 0.118533,0.07056 0.07338,0.06773 0.160868,0.180623 0.08749,0.112889 0.186267,0.259645 0.1016,0.146756 0.200378,0.301979 0.09878,0.155223 0.18909,0.307623 0.09313,0.152401 0.169334,0.276579 -0.0028,-0.132645 -0.0028,-0.29069 0,-0.160867 0,-0.355601 0,-0.222956 0.0028,-0.36689 0.0028,-0.146756 0.01411,-0.231423 0.01411,-0.08467 0.04233,-0.118534 0.02822,-0.03387 0.07902,-0.03387 0.04798,0 0.08467,0.03104 0.03669,0.03104 0.04233,0.143934 0.0056,0.1016 0.0085,0.180622 0.0028,0.07902 0.0056,0.158045 0.0028,0.0762 0.0028,0.160868 0,0.08184 0,0.186267 0,0.127 0,0.242712 0,0.115711 -0.0028,0.228601 -0.0028,0.112889 -0.0056,0.228601 -0.0028,0.115711 -0.0085,0.242712 -0.0028,0.06773 -0.01411,0.104422 -0.0085,0.03669 -0.0254,0.05644 -0.01693,0.01976 -0.03951,0.02258 -0.01976,0.0056 -0.04798,0.0056 -0.04798,0 -0.08185,-0.02822 -0.03387,-0.02822 -0.09878,-0.115712 z"
       style="font-style:normal;font-variant:normal;font-weight:normal;font-stretch:normal;font-size:2.82223201px;font-family:Sniglet;-inkscape-font-specification:'Sniglet, Normal';font-variant-ligatures:normal;font-variant-caps:normal;font-variant-numeric:normal;font-feature-settings:normal;text-align:start;writing-mode:lr-tb;text-anchor:start;stroke-width:0.26458427"
       id="path1023"
       inkscape:connector-curvature="0" />
  </g>
  <g
     aria-label="OUT"
     style="font-style:normal;font-weight:normal;font-size:10.58337021px;line-height:1.25;font-family:sans-serif;letter-spacing:0px;word-spacing:0px;fill:#000000;fill-opacity:1;stroke:none;stroke-width:0.26458427"
     id="text905"
     transform="translate(2.6458425,1.058337)">
    <path
       d="m 4.6632765,62.136068 q -0.169334,0 -0.3189123,-0.06773 Q 4.1976082,62.0006 4.0875411,61.8736 3.9774741,61.743777 3.9125627,61.55751 q -0.062089,-0.186267 -0.062089,-0.423335 0,-0.222956 0.053622,-0.409223 0.056445,-0.186268 0.1636895,-0.321735 0.110067,-0.135467 0.2709343,-0.208845 0.1608672,-0.0762 0.3725346,-0.0762 0.1721561,0 0.3273789,0.06209 0.1552228,0.06209 0.2709343,0.186267 0.1185337,0.124178 0.1862673,0.310446 0.067734,0.186267 0.067734,0.434623 0,0.206023 -0.056445,0.392291 -0.053622,0.186267 -0.1665117,0.327379 -0.110067,0.138289 -0.2794009,0.222956 -0.169334,0.08185 -0.3979347,0.08185 z m 0.00564,-0.26529 q 0.1552228,0 0.2709343,-0.06209 0.1157115,-0.06491 0.1919118,-0.169334 0.0762,-0.104423 0.1128892,-0.23989 0.036689,-0.138289 0.036689,-0.282223 0,-0.174979 -0.047978,-0.310446 -0.045156,-0.138289 -0.1241782,-0.231423 -0.079022,-0.09313 -0.1834451,-0.141111 -0.1044226,-0.0508 -0.2229563,-0.0508 -0.1411116,0 -0.2483564,0.05927 -0.1044226,0.05927 -0.1778006,0.160868 -0.070556,0.1016 -0.1072449,0.239889 -0.036689,0.135468 -0.036689,0.29069 0,0.166512 0.042334,0.304801 0.042333,0.135467 0.1128893,0.231423 0.073378,0.09596 0.1721561,0.149579 0.098778,0.0508 0.2088452,0.0508 z"
       style="font-style:normal;font-variant:normal;font-weight:normal;font-stretch:normal;font-size:2.82223201px;font-family:Sniglet;-inkscape-font-specification:'Sniglet, Normal';font-variant-ligatures:normal;font-variant-caps:normal;font-variant-numeric:normal;font-feature-settings:normal;text-align:start;writing-mode:lr-tb;text-anchor:start;stroke-width:0.26458427"
       id="path908"
       inkscape:connector-curvature="0" />
    <path
       d="m 6.5273607,62.155823 q -0.3217345,0 -0.4713128,-0.174978 -0.059267,-0.06773 -0.1016003,-0.172156 -0.039511,-0.107245 -0.064911,-0.276579 -0.022578,-0.169334 -0.033867,-0.41769 -0.00847,-0.251179 -0.00847,-0.609602 0,-0.115712 0.00564,-0.18909 0.00564,-0.0762 0.022578,-0.118534 0.016933,-0.04516 0.042333,-0.06209 0.028222,-0.01693 0.070556,-0.01693 0.081845,0 0.1157115,0.07338 0.033867,0.07338 0.033867,0.254001 0,0.06209 -0.00282,0.110067 0,0.04798 0,0.09878 0,0.04798 -0.00282,0.107245 0,0.05927 0,0.143933 0,0.282224 0.016933,0.468491 0.019756,0.186267 0.064911,0.299157 0.045156,0.110067 0.121356,0.155222 0.079022,0.04516 0.194734,0.04516 0.121356,0 0.2003785,-0.04798 0.081845,-0.0508 0.1298227,-0.166512 0.047978,-0.118533 0.067734,-0.313267 0.022578,-0.194734 0.022578,-0.485424 0,-0.127001 -0.00282,-0.217312 0,-0.09031 0,-0.16369 0,-0.104422 0.00564,-0.174978 0.00847,-0.07056 0.022578,-0.110067 0.016933,-0.04233 0.045156,-0.05927 0.028222,-0.01693 0.070556,-0.01693 0.042334,0 0.070556,0.01693 0.028222,0.01693 0.045156,0.05927 0.016933,0.04233 0.022578,0.118534 0.00564,0.07338 0.00564,0.191912 0,0.496712 -0.031045,0.818447 -0.031045,0.318912 -0.1100671,0.505179 -0.079023,0.183445 -0.2173119,0.256823 -0.1354671,0.07056 -0.3499567,0.07056 z"
       style="font-style:normal;font-variant:normal;font-weight:normal;font-stretch:normal;font-size:2.82223201px;font-family:Sniglet;-inkscape-font-specification:'Sniglet, Normal';font-variant-ligatures:normal;font-variant-caps:normal;font-variant-numeric:normal;font-feature-settings:normal;text-align:start;writing-mode:lr-tb;text-anchor:start;stroke-width:0.26458427"
       id="path910"
       inkscape:connector-curvature="0" />
    <path
       d="m 8.6703609,60.391928 q -0.079023,0.0056 -0.169334,0.0085 -0.087489,0.0028 -0.194734,0.0056 0.00282,0.0762 0.00564,0.143934 0.00282,0.06491 0.00564,0.132645 0.00282,0.06773 0.00282,0.141112 0.00282,0.07338 0.00282,0.163689 0,0.127001 0,0.245534 0,0.115712 -0.00282,0.234246 -0.00282,0.115711 -0.00564,0.234245 -0.00282,0.118534 -0.00847,0.245534 -0.00282,0.06773 -0.014111,0.104423 -0.00847,0.03669 -0.0254,0.05644 -0.016933,0.01976 -0.039511,0.02258 -0.022578,0.0056 -0.0508,0.0056 -0.0508,0 -0.087489,-0.03387 -0.033867,-0.03669 -0.039511,-0.152401 -0.00564,-0.1016 -0.00847,-0.214489 0,-0.11289 -0.00282,-0.242712 -0.00282,-0.129823 -0.00282,-0.279401 0,-0.152401 0,-0.335846 0,-0.155223 0,-0.270934 0.00282,-0.115712 0.00847,-0.200379 H 7.9281138 q -0.1185337,0 -0.2032007,-0.0028 -0.081845,-0.0028 -0.1354671,-0.01411 -0.053622,-0.01411 -0.079022,-0.04233 -0.022578,-0.02822 -0.022578,-0.07902 0,-0.0254 0.00564,-0.04516 0.00564,-0.02258 0.0254,-0.03951 0.019756,-0.01976 0.053622,-0.03104 0.036689,-0.01129 0.093134,-0.01693 0.053622,-0.0028 0.095956,-0.0056 0.042333,-0.0028 0.084667,-0.0056 0.042333,-0.0028 0.087489,-0.0028 0.045156,0 0.1044226,0 0.1665117,0 0.3132677,0.0028 0.1495783,0.0028 0.31609,0.01129 0.067734,0.0056 0.1044226,0.01693 0.036689,0.0085 0.056445,0.0254 0.019756,0.01693 0.022578,0.03951 0.00564,0.02258 0.00564,0.0508 0,0.0508 -0.036689,0.08467 -0.033867,0.03387 -0.1495783,0.03951 z"
       style="font-style:normal;font-variant:normal;font-weight:normal;font-stretch:normal;font-size:2.82223201px;font-family:Sniglet;-inkscape-font-specification:'Sniglet, Normal';font-variant-ligatures:normal;font-variant-caps:normal;font-variant-numeric:normal;font-feature-settings:normal;text-align:start;writing-mode:lr-tb;text-anchor:start;stroke-width:0.26458427"
       id="path912"
       inkscape:connector-curvature="0" />
  </g>
  <g
     aria-label="LOOP"
     style="font-style:normal;font-weight:normal;font-size:10.58337021px;line-height:1.25;font-family:sans-serif;letter-spacing:0px;word-spacing:0px;fill:#000000;fill-opacity:1;stroke:none;stroke-width:0.26458427"
     id="text907"
     transform="translate(2.116674)">
    <path
       d="m 50.560821,37.549092 q 0,0.09031 0,0.160867 0,0.06773 -0.0028,0.129823 0,0.06209 -0.0028,0.124178 -0.0028,0.06209 -0.0056,0.138289 0.194734,-0.02258 0.304801,-0.03669 0.110067,-0.01411 0.172156,-0.02258 0.06491,-0.0085 0.09878,-0.01129 0.03669,-0.0028 0.08467,-0.0028 0.124178,0 0.124178,0.121356 0,0.04798 -0.0508,0.08185 -0.04798,0.03387 -0.124178,0.05927 -0.07338,0.02258 -0.166512,0.03951 -0.09031,0.01411 -0.177801,0.01976 -0.08467,0.0085 -0.155222,0.01129 -0.06773,0.0028 -0.09596,0.0028 -0.101601,0 -0.158045,-0.01411 -0.05645,-0.01129 -0.08467,-0.07338 -0.02822,-0.06491 -0.03669,-0.194734 -0.0056,-0.129823 -0.0056,-0.366891 0,-0.2286 0,-0.406401 0,-0.177801 0.0028,-0.318912 0.0028,-0.141112 0.0028,-0.251179 0.0028,-0.110067 0.0085,-0.200378 0.0056,-0.115712 0.03951,-0.149579 0.03387,-0.03669 0.08467,-0.03669 0.02822,0 0.04798,0.0056 0.02258,0.0028 0.03951,0.02258 0.01693,0.01976 0.0254,0.05644 0.01129,0.03669 0.01411,0.104423 0.01129,0.248356 0.01411,0.491068 0.0028,0.242712 0.0028,0.516469 z"
       style="font-style:normal;font-variant:normal;font-weight:normal;font-stretch:normal;font-size:2.82223201px;font-family:Sniglet;-inkscape-font-specification:'Sniglet, Normal';font-variant-ligatures:normal;font-variant-caps:normal;font-variant-numeric:normal;font-feature-settings:normal;text-align:start;writing-mode:lr-tb;text-anchor:start;stroke-width:0.26458427"
       id="path913"
       inkscape:connector-curvature="0" />
    <path
       d="m 52.170464,38.364717 q -0.169334,0 -0.318912,-0.06773 -0.146756,-0.06773 -0.256823,-0.194734 -0.110067,-0.129822 -0.174979,-0.31609 -0.06209,-0.186267 -0.06209,-0.423335 0,-0.222956 0.05362,-0.409223 0.05644,-0.186268 0.163689,-0.321735 0.110067,-0.135467 0.270934,-0.208845 0.160867,-0.0762 0.372535,-0.0762 0.172156,0 0.327379,0.06209 0.155223,0.06209 0.270934,0.186267 0.118534,0.124179 0.186267,0.310446 0.06773,0.186267 0.06773,0.434624 0,0.206022 -0.05645,0.39229 -0.05362,0.186267 -0.166511,0.327379 -0.110067,0.138289 -0.279401,0.222956 -0.169334,0.08185 -0.397935,0.08185 z m 0.0056,-0.26529 q 0.155223,0 0.270935,-0.06209 0.115711,-0.06491 0.191911,-0.169334 0.0762,-0.104423 0.11289,-0.23989 0.03669,-0.138289 0.03669,-0.282223 0,-0.174978 -0.04798,-0.310446 -0.04516,-0.138289 -0.124178,-0.231423 -0.07902,-0.09313 -0.183445,-0.141111 -0.104423,-0.0508 -0.222957,-0.0508 -0.141111,0 -0.248356,0.05927 -0.104423,0.05927 -0.177801,0.160867 -0.07056,0.1016 -0.107245,0.23989 -0.03669,0.135467 -0.03669,0.290689 0,0.166512 0.04233,0.304801 0.04233,0.135468 0.112889,0.231423 0.07338,0.09596 0.172156,0.149579 0.09878,0.0508 0.208845,0.0508 z"
       style="font-style:normal;font-variant:normal;font-weight:normal;font-stretch:normal;font-size:2.82223201px;font-family:Sniglet;-inkscape-font-specification:'Sniglet, Normal';font-variant-ligatures:normal;font-variant-caps:normal;font-variant-numeric:normal;font-feature-settings:normal;text-align:start;writing-mode:lr-tb;text-anchor:start;stroke-width:0.26458427"
       id="path915"
       inkscape:connector-curvature="0" />
    <path
       d="m 54.110748,38.364717 q -0.169334,0 -0.318912,-0.06773 -0.146756,-0.06773 -0.256823,-0.194734 -0.110067,-0.129822 -0.174978,-0.31609 -0.06209,-0.186267 -0.06209,-0.423335 0,-0.222956 0.05362,-0.409223 0.05644,-0.186268 0.163689,-0.321735 0.110067,-0.135467 0.270935,-0.208845 0.160867,-0.0762 0.372534,-0.0762 0.172156,0 0.327379,0.06209 0.155223,0.06209 0.270934,0.186267 0.118534,0.124179 0.186268,0.310446 0.06773,0.186267 0.06773,0.434624 0,0.206022 -0.05644,0.39229 -0.05362,0.186267 -0.166512,0.327379 -0.110067,0.138289 -0.279401,0.222956 -0.169334,0.08185 -0.397935,0.08185 z m 0.0056,-0.26529 q 0.155223,0 0.270934,-0.06209 0.115712,-0.06491 0.191912,-0.169334 0.0762,-0.104423 0.112889,-0.23989 0.03669,-0.138289 0.03669,-0.282223 0,-0.174978 -0.04798,-0.310446 -0.04516,-0.138289 -0.124178,-0.231423 -0.07902,-0.09313 -0.183445,-0.141111 -0.104423,-0.0508 -0.222956,-0.0508 -0.141112,0 -0.248357,0.05927 -0.104422,0.05927 -0.1778,0.160867 -0.07056,0.1016 -0.107245,0.23989 -0.03669,0.135467 -0.03669,0.290689 0,0.166512 0.04233,0.304801 0.04233,0.135468 0.112889,0.231423 0.07338,0.09596 0.172157,0.149579 0.09878,0.0508 0.208845,0.0508 z"
       style="font-style:normal;font-variant:normal;font-weight:normal;font-stretch:normal;font-size:2.82223201px;font-family:Sniglet;-inkscape-font-specification:'Sniglet, Normal';font-variant-ligatures:normal;font-variant-caps:normal;font-variant-numeric:normal;font-feature-settings:normal;text-align:start;writing-mode:lr-tb;text-anchor:start;stroke-width:0.26458427"
       id="path917"
       inkscape:connector-curvature="0" />
    <path
       d="m 55.576898,38.158694 q 0,0.06773 -0.01411,0.104422 -0.01129,0.03669 -0.03104,0.05645 -0.01693,0.01976 -0.04233,0.02258 -0.02258,0.0056 -0.04516,0.0056 -0.0762,0 -0.1016,-0.03387 -0.02258,-0.03387 -0.03104,-0.152401 -0.0056,-0.06209 -0.0085,-0.180623 -0.0028,-0.118534 -0.0056,-0.282223 0,-0.163689 -0.0028,-0.361246 0,-0.197556 0,-0.41769 0,-0.104423 0.0254,-0.211667 0.0254,-0.107245 0.09596,-0.194734 0.07338,-0.08749 0.200378,-0.141112 0.129823,-0.05362 0.335846,-0.05362 0.143934,0 0.273756,0.03104 0.129823,0.03104 0.228601,0.107245 0.09878,0.0762 0.158045,0.203201 0.05927,0.127 0.05927,0.31609 0,0.197556 -0.06491,0.327379 -0.06491,0.129822 -0.183445,0.206022 -0.118534,0.0762 -0.282224,0.107245 -0.163689,0.03104 -0.358423,0.03104 -0.04798,0 -0.09596,0 -0.04798,0 -0.107245,-0.0056 z m 0.812803,-1.18816 q 0,-0.189089 -0.107245,-0.285045 -0.104423,-0.09596 -0.349957,-0.09596 -0.09313,0 -0.160867,0.01693 -0.06491,0.01411 -0.107245,0.05362 -0.04233,0.03669 -0.06491,0.1016 -0.01976,0.06491 -0.01976,0.163689 0,0.09596 0,0.220135 0,0.121356 0.0028,0.2286 0.06491,0.0028 0.143933,0.0028 0.08185,0 0.152401,0 0.08467,0 0.174978,-0.01129 0.09313,-0.01129 0.166512,-0.0508 0.07338,-0.04233 0.121356,-0.121356 0.04798,-0.08184 0.04798,-0.222956 z"
       style="font-style:normal;font-variant:normal;font-weight:normal;font-stretch:normal;font-size:2.82223201px;font-family:Sniglet;-inkscape-font-specification:'Sniglet, Normal';font-variant-ligatures:normal;font-variant-caps:normal;font-variant-numeric:normal;font-feature-settings:normal;text-align:start;writing-mode:lr-tb;text-anchor:start;stroke-width:0.26458427"
       id="path919"
       inkscape:connector-curvature="0" />
  </g>
</svg>
